M48
; DRILL file {KiCad 8.0.0-8.0.0-1~ubuntu22.04.1} date 2024-03-31T18:48:55+0200
; FORMAT={-:-/ absolute / inch / decimal}
; #@! TF.CreationDate,2024-03-31T18:48:55+02:00
; #@! TF.GenerationSoftware,Kicad,Pcbnew,8.0.0-8.0.0-1~ubuntu22.04.1
; #@! TF.FileFunction,Plated,1,2,PTH
FMAT,2
INCH
; #@! TA.AperFunction,Plated,PTH,ViaDrill
T1C0.0157
; #@! TA.AperFunction,Plated,PTH,ComponentDrill
T2C0.0197
; #@! TA.AperFunction,Plated,PTH,ComponentDrill
T3C0.0370
; #@! TA.AperFunction,Plated,PTH,ComponentDrill
T4C0.0374
; #@! TA.AperFunction,Plated,PTH,ComponentDrill
T5C0.0394
; #@! TA.AperFunction,Plated,PTH,ComponentDrill
T6C0.1260
%
G90
G05
T1
X2.7854Y-3.5433
X2.7854Y-3.6417
X2.7854Y-3.7402
X2.7854Y-3.8386
X2.7854Y-3.937
X2.7854Y-4.0354
X2.7854Y-4.1339
X2.7854Y-4.2323
X2.7854Y-4.3307
X2.7854Y-4.4291
X2.7854Y-4.5276
X2.7854Y-4.626
X2.7854Y-4.7244
X2.7854Y-4.8228
X2.7854Y-4.9213
X2.7854Y-5.0197
X2.7854Y-5.1181
X2.7854Y-5.2165
X2.7854Y-5.315
X2.7854Y-5.4134
X2.7854Y-5.5118
X2.8051Y-3.4646
X2.8051Y-5.5906
X2.8543Y-3.4055
X2.8543Y-5.6496
X2.9528Y-3.376
X2.9528Y-5.6791
X3.0512Y-3.376
X3.0512Y-5.6791
X3.0709Y-4.8031
X3.1496Y-3.376
X3.1496Y-5.6791
X3.2283Y-4.2756
X3.248Y-3.376
X3.248Y-5.6791
X3.3465Y-3.376
X3.3465Y-5.6791
X3.4016Y-5.3307
X3.4449Y-3.376
X3.4449Y-5.6791
X3.4646Y-4.3701
X3.5433Y-3.376
X3.5433Y-5.6791
X3.5984Y-4.1654
X3.6417Y-3.376
X3.6417Y-5.6791
X3.7402Y-3.376
X3.7402Y-5.6791
X3.7717Y-3.6929
X3.8386Y-3.376
X3.8386Y-5.6791
X3.937Y-3.376
X3.937Y-4.3622
X3.937Y-5.6791
X4.0157Y-4.0394
X4.0354Y-3.376
X4.0354Y-5.6791
X4.1339Y-3.376
X4.1339Y-5.6791
X4.1654Y-3.6772
X4.1732Y-3.9528
X4.2323Y-3.376
X4.2323Y-5.6791
X4.3307Y-3.376
X4.3307Y-5.6791
X4.4094Y-4.0787
X4.4094Y-4.3701
X4.4291Y-3.376
X4.4291Y-5.6791
X4.4882Y-5.3543
X4.5276Y-3.376
X4.5276Y-5.6791
X4.5354Y-5.0709
X4.626Y-3.376
X4.626Y-5.6791
X4.6693Y-4.5039
X4.7244Y-3.376
X4.7244Y-5.6791
X4.7323Y-5.0787
X4.8228Y-3.376
X4.8228Y-5.6791
X4.9213Y-3.376
X4.9213Y-4.5118
X4.9213Y-5.6791
X5.0098Y-3.3957
X5.0098Y-5.6594
X5.0689Y-3.4646
X5.0689Y-5.5906
X5.0886Y-3.5433
X5.0886Y-3.6417
X5.0886Y-3.7402
X5.0886Y-3.8386
X5.0886Y-3.937
X5.0886Y-4.0354
X5.0886Y-4.1339
X5.0886Y-4.2323
X5.0886Y-4.3307
X5.0886Y-4.4291
X5.0886Y-4.5276
X5.0886Y-4.626
X5.0886Y-4.7244
X5.0886Y-4.8228
X5.0886Y-4.9213
X5.0886Y-5.0197
X5.0886Y-5.1181
X5.0886Y-5.2165
X5.0886Y-5.315
X5.0886Y-5.4134
X5.0886Y-5.5118
T2
X2.8583Y-3.5433
X2.8583Y-5.5118
X2.8859Y-3.4765
X2.8859Y-3.6101
X2.8859Y-5.445
X2.8859Y-5.5786
X2.9528Y-3.4488
X2.9528Y-3.6378
X2.9528Y-5.4173
X2.9528Y-5.6063
X3.0196Y-3.4765
X3.0196Y-3.6101
X3.0196Y-5.445
X3.0196Y-5.5786
X3.0472Y-3.5433
X3.0472Y-5.5118
X4.8268Y-3.5433
X4.8268Y-5.5118
X4.8544Y-3.4765
X4.8544Y-3.6101
X4.8544Y-5.445
X4.8544Y-5.5786
X4.9213Y-3.4488
X4.9213Y-3.6378
X4.9213Y-5.4173
X4.9213Y-5.6063
X4.9881Y-3.4765
X4.9881Y-3.6101
X4.9881Y-5.445
X4.9881Y-5.5786
X5.0157Y-3.5433
X5.0157Y-5.5118
T3
X3.5553Y-5.1945
X3.6098Y-5.3063
X3.6644Y-5.1945
X3.7189Y-5.3063
X3.7734Y-5.1945
X3.828Y-5.3063
X3.8825Y-5.1945
X3.937Y-5.3063
X3.9915Y-5.1945
X4.0461Y-5.3063
X4.1006Y-5.1945
X4.1551Y-5.3063
X4.2096Y-5.1945
X4.2642Y-5.3063
X4.3187Y-5.1945
T4
X3.5138Y-3.5039
X3.6122Y-3.5039
X3.7106Y-3.5039
X3.8091Y-3.5039
X4.065Y-3.5039
X4.1634Y-3.5039
X4.2618Y-3.5039
X4.3602Y-3.5039
T5
X3.1283Y-4.3701
X3.2283Y-4.3701
X3.2559Y-4.6031
X3.2559Y-4.7031
X3.2559Y-4.8031
X3.3283Y-4.3701
X3.6008Y-4.3701
X3.687Y-4.6031
X3.687Y-4.7031
X3.687Y-4.8031
X3.7008Y-4.3701
X3.787Y-4.6031
X3.787Y-4.7031
X3.787Y-4.8031
X3.8008Y-4.3701
X3.887Y-4.6031
X3.887Y-4.7031
X3.887Y-4.8031
X3.987Y-4.6031
X3.987Y-4.7031
X3.987Y-4.8031
X4.0732Y-4.3701
X4.087Y-4.6031
X4.087Y-4.7031
X4.087Y-4.8031
X4.1732Y-4.3701
X4.187Y-4.6031
X4.187Y-4.7031
X4.187Y-4.8031
X4.2732Y-4.3701
X4.2874Y-3.7637
X4.2874Y-3.8637
X4.2874Y-3.9637
X4.5457Y-4.3701
X4.6181Y-4.6031
X4.6181Y-4.7031
X4.6181Y-4.8031
X4.6457Y-4.3701
X4.7457Y-4.3701
T6
X2.9528Y-3.5433
X2.9528Y-5.5118
X4.9213Y-3.5433
X4.9213Y-5.5118
M30
