%TF.GenerationSoftware,KiCad,Pcbnew,8.0.0-8.0.0-1~ubuntu22.04.1*%
%TF.CreationDate,2024-03-31T18:48:54+02:00*%
%TF.ProjectId,Projet_Animatronic,50726f6a-6574-45f4-916e-696d6174726f,rev?*%
%TF.SameCoordinates,Original*%
%TF.FileFunction,Soldermask,Top*%
%TF.FilePolarity,Negative*%
%FSLAX46Y46*%
G04 Gerber Fmt 4.6, Leading zero omitted, Abs format (unit mm)*
G04 Created by KiCad (PCBNEW 8.0.0-8.0.0-1~ubuntu22.04.1) date 2024-03-31 18:48:54*
%MOMM*%
%LPD*%
G01*
G04 APERTURE LIST*
G04 Aperture macros list*
%AMRoundRect*
0 Rectangle with rounded corners*
0 $1 Rounding radius*
0 $2 $3 $4 $5 $6 $7 $8 $9 X,Y pos of 4 corners*
0 Add a 4 corners polygon primitive as box body*
4,1,4,$2,$3,$4,$5,$6,$7,$8,$9,$2,$3,0*
0 Add four circle primitives for the rounded corners*
1,1,$1+$1,$2,$3*
1,1,$1+$1,$4,$5*
1,1,$1+$1,$6,$7*
1,1,$1+$1,$8,$9*
0 Add four rect primitives between the rounded corners*
20,1,$1+$1,$2,$3,$4,$5,0*
20,1,$1+$1,$4,$5,$6,$7,0*
20,1,$1+$1,$6,$7,$8,$9,0*
20,1,$1+$1,$8,$9,$2,$3,0*%
G04 Aperture macros list end*
%ADD10C,1.600000*%
%ADD11C,1.447800*%
%ADD12RoundRect,0.250000X0.600000X0.725000X-0.600000X0.725000X-0.600000X-0.725000X0.600000X-0.725000X0*%
%ADD13O,1.700000X1.950000*%
%ADD14C,0.800000*%
%ADD15C,6.400000*%
%ADD16R,1.700000X1.700000*%
%ADD17O,1.700000X1.700000*%
%ADD18RoundRect,0.100000X-0.100000X0.637500X-0.100000X-0.637500X0.100000X-0.637500X0.100000X0.637500X0*%
%ADD19RoundRect,0.225000X-0.250000X0.225000X-0.250000X-0.225000X0.250000X-0.225000X0.250000X0.225000X0*%
%ADD20RoundRect,0.225000X0.225000X0.250000X-0.225000X0.250000X-0.225000X-0.250000X0.225000X-0.250000X0*%
%ADD21RoundRect,0.225000X-0.225000X-0.250000X0.225000X-0.250000X0.225000X0.250000X-0.225000X0.250000X0*%
%ADD22RoundRect,0.140000X0.170000X-0.140000X0.170000X0.140000X-0.170000X0.140000X-0.170000X-0.140000X0*%
%ADD23RoundRect,0.225000X0.250000X-0.225000X0.250000X0.225000X-0.250000X0.225000X-0.250000X-0.225000X0*%
G04 APERTURE END LIST*
D10*
%TO.C,U105*%
X103460000Y-111000000D03*
X106000000Y-111000000D03*
X108540000Y-111000000D03*
%TD*%
D11*
%TO.C,J101*%
X90305000Y-131939993D03*
X93075000Y-131939993D03*
X95844999Y-131939993D03*
X98614999Y-131939993D03*
X101384998Y-131939993D03*
X104154998Y-131939993D03*
X106924998Y-131939993D03*
X109694997Y-131939993D03*
X91690001Y-134779992D03*
X94460001Y-134779992D03*
X97230000Y-134779992D03*
X100000000Y-134779992D03*
X102770000Y-134779992D03*
X105539999Y-134779992D03*
X108309999Y-134779992D03*
%TD*%
D10*
%TO.C,U107*%
X79460000Y-111000000D03*
X82000000Y-111000000D03*
X84540000Y-111000000D03*
%TD*%
D12*
%TO.C,J103*%
X96750000Y-89000000D03*
D13*
X94250000Y-89000000D03*
X91750000Y-89000000D03*
X89250000Y-89000000D03*
%TD*%
D14*
%TO.C,H103*%
X72600000Y-90000000D03*
X73302944Y-88302944D03*
X73302944Y-91697056D03*
X75000000Y-87600000D03*
D15*
X75000000Y-90000000D03*
D14*
X75000000Y-92400000D03*
X76697056Y-88302944D03*
X76697056Y-91697056D03*
X77400000Y-90000000D03*
%TD*%
D10*
%TO.C,U108*%
X82700000Y-122000000D03*
X82700000Y-119460000D03*
X82700000Y-116920000D03*
%TD*%
D16*
%TO.C,J104*%
X93650000Y-119460000D03*
D17*
X96190000Y-119460000D03*
X98730000Y-119460000D03*
X101270000Y-119460000D03*
X103810000Y-119460000D03*
X106350000Y-119460000D03*
%TD*%
D18*
%TO.C,U101*%
X104225000Y-95275000D03*
X103575000Y-95275000D03*
X102925000Y-95275000D03*
X102275000Y-95275000D03*
X101625000Y-95275000D03*
X100975000Y-95275000D03*
X100325000Y-95275000D03*
X99675000Y-95275000D03*
X99025000Y-95275000D03*
X98375000Y-95275000D03*
X97725000Y-95275000D03*
X97075000Y-95275000D03*
X96425000Y-95275000D03*
X95775000Y-95275000D03*
X95775000Y-101000000D03*
X96425000Y-101000000D03*
X97075000Y-101000000D03*
X97725000Y-101000000D03*
X98375000Y-101000000D03*
X99025000Y-101000000D03*
X99675000Y-101000000D03*
X100325000Y-101000000D03*
X100975000Y-101000000D03*
X101625000Y-101000000D03*
X102275000Y-101000000D03*
X102925000Y-101000000D03*
X103575000Y-101000000D03*
X104225000Y-101000000D03*
%TD*%
D14*
%TO.C,H102*%
X122600000Y-140000000D03*
X123302944Y-138302944D03*
X123302944Y-141697056D03*
X125000000Y-137600000D03*
D15*
X125000000Y-140000000D03*
D14*
X125000000Y-142400000D03*
X126697056Y-138302944D03*
X126697056Y-141697056D03*
X127400000Y-140000000D03*
%TD*%
D10*
%TO.C,U103*%
X117300000Y-116920000D03*
X117300000Y-119460000D03*
X117300000Y-122000000D03*
%TD*%
D14*
%TO.C,H101*%
X72600000Y-140000000D03*
X73302944Y-138302944D03*
X73302944Y-141697056D03*
X75000000Y-137600000D03*
D15*
X75000000Y-140000000D03*
D14*
X75000000Y-142400000D03*
X76697056Y-138302944D03*
X76697056Y-141697056D03*
X77400000Y-140000000D03*
%TD*%
%TO.C,H104*%
X122600000Y-90000000D03*
X123302944Y-88302944D03*
X123302944Y-91697056D03*
X125000000Y-87600000D03*
D15*
X125000000Y-90000000D03*
D14*
X125000000Y-92400000D03*
X126697056Y-88302944D03*
X126697056Y-91697056D03*
X127400000Y-90000000D03*
%TD*%
D10*
%TO.C,U102*%
X108900000Y-95597500D03*
X108900000Y-98137500D03*
X108900000Y-100677500D03*
%TD*%
D19*
%TO.C,C104*%
X91000000Y-119447000D03*
X91000000Y-120997000D03*
%TD*%
D10*
%TO.C,U106*%
X91460000Y-111000000D03*
X94000000Y-111000000D03*
X96540000Y-111000000D03*
%TD*%
D20*
%TO.C,C105*%
X102553000Y-114500000D03*
X101003000Y-114500000D03*
%TD*%
D12*
%TO.C,J102*%
X110750000Y-89000000D03*
D13*
X108250000Y-89000000D03*
X105750000Y-89000000D03*
X103250000Y-89000000D03*
%TD*%
D21*
%TO.C,C112*%
X97447000Y-114500000D03*
X98997000Y-114500000D03*
%TD*%
D10*
%TO.C,U104*%
X115460000Y-111000000D03*
X118000000Y-111000000D03*
X120540000Y-111000000D03*
%TD*%
D19*
%TO.C,C113*%
X109000000Y-119447000D03*
X109000000Y-120997000D03*
%TD*%
D16*
%TO.C,J106*%
X93650000Y-116920000D03*
D17*
X96190000Y-116920000D03*
X98730000Y-116920000D03*
X101270000Y-116920000D03*
X103810000Y-116920000D03*
X106350000Y-116920000D03*
%TD*%
D22*
%TO.C,C101*%
X106000000Y-98655000D03*
X106000000Y-97695000D03*
%TD*%
D23*
%TO.C,C108*%
X91000000Y-117975000D03*
X91000000Y-116425000D03*
%TD*%
D16*
%TO.C,J105*%
X93650000Y-122000000D03*
D17*
X96190000Y-122000000D03*
X98730000Y-122000000D03*
X101270000Y-122000000D03*
X103810000Y-122000000D03*
X106350000Y-122000000D03*
%TD*%
D23*
%TO.C,C109*%
X109000000Y-118000000D03*
X109000000Y-116450000D03*
%TD*%
M02*
