%TF.GenerationSoftware,KiCad,Pcbnew,8.0.0-8.0.0-1~ubuntu22.04.1*%
%TF.CreationDate,2024-03-31T18:48:54+02:00*%
%TF.ProjectId,Projet_Animatronic,50726f6a-6574-45f4-916e-696d6174726f,rev?*%
%TF.SameCoordinates,Original*%
%TF.FileFunction,Copper,L2,Bot*%
%TF.FilePolarity,Positive*%
%FSLAX46Y46*%
G04 Gerber Fmt 4.6, Leading zero omitted, Abs format (unit mm)*
G04 Created by KiCad (PCBNEW 8.0.0-8.0.0-1~ubuntu22.04.1) date 2024-03-31 18:48:54*
%MOMM*%
%LPD*%
G01*
G04 APERTURE LIST*
G04 Aperture macros list*
%AMRoundRect*
0 Rectangle with rounded corners*
0 $1 Rounding radius*
0 $2 $3 $4 $5 $6 $7 $8 $9 X,Y pos of 4 corners*
0 Add a 4 corners polygon primitive as box body*
4,1,4,$2,$3,$4,$5,$6,$7,$8,$9,$2,$3,0*
0 Add four circle primitives for the rounded corners*
1,1,$1+$1,$2,$3*
1,1,$1+$1,$4,$5*
1,1,$1+$1,$6,$7*
1,1,$1+$1,$8,$9*
0 Add four rect primitives between the rounded corners*
20,1,$1+$1,$2,$3,$4,$5,0*
20,1,$1+$1,$4,$5,$6,$7,0*
20,1,$1+$1,$6,$7,$8,$9,0*
20,1,$1+$1,$8,$9,$2,$3,0*%
G04 Aperture macros list end*
%TA.AperFunction,ComponentPad*%
%ADD10C,1.600000*%
%TD*%
%TA.AperFunction,ComponentPad*%
%ADD11C,1.447800*%
%TD*%
%TA.AperFunction,ComponentPad*%
%ADD12RoundRect,0.250000X0.600000X0.725000X-0.600000X0.725000X-0.600000X-0.725000X0.600000X-0.725000X0*%
%TD*%
%TA.AperFunction,ComponentPad*%
%ADD13O,1.700000X1.950000*%
%TD*%
%TA.AperFunction,ComponentPad*%
%ADD14C,0.800000*%
%TD*%
%TA.AperFunction,ComponentPad*%
%ADD15C,6.400000*%
%TD*%
%TA.AperFunction,ComponentPad*%
%ADD16R,1.700000X1.700000*%
%TD*%
%TA.AperFunction,ComponentPad*%
%ADD17O,1.700000X1.700000*%
%TD*%
%TA.AperFunction,ViaPad*%
%ADD18C,0.800000*%
%TD*%
%TA.AperFunction,Conductor*%
%ADD19C,1.500000*%
%TD*%
G04 APERTURE END LIST*
D10*
%TO.P,U105,1,G*%
%TO.N,GND*%
X103460000Y-111000000D03*
%TO.P,U105,2,VO*%
%TO.N,/5V_4*%
X106000000Y-111000000D03*
%TO.P,U105,3,VI*%
%TO.N,+12V*%
X108540000Y-111000000D03*
%TD*%
D11*
%TO.P,J101,1,Pin_1*%
%TO.N,GND*%
X90305000Y-131939993D03*
%TO.P,J101,2,Pin_2*%
%TO.N,PWM_TIM1_CH1*%
X93075000Y-131939993D03*
%TO.P,J101,3,Pin_3*%
%TO.N,PWM_TIM1_CH2*%
X95844999Y-131939993D03*
%TO.P,J101,4,Pin_4*%
%TO.N,PWM_TIM1_CH3*%
X98614999Y-131939993D03*
%TO.P,J101,5,Pin_5*%
%TO.N,PWM_TIM1_CH4*%
X101384998Y-131939993D03*
%TO.P,J101,6,Pin_6*%
%TO.N,PWM_TIM2_CH1*%
X104154998Y-131939993D03*
%TO.P,J101,7,Pin_7*%
%TO.N,PWM_TIM2_CH2*%
X106924998Y-131939993D03*
%TO.P,J101,8,Pin_8*%
%TO.N,GND*%
X109694997Y-131939993D03*
%TO.P,J101,9,Pin_9*%
%TO.N,+12V*%
X91690001Y-134779992D03*
%TO.P,J101,10,Pin_10*%
X94460001Y-134779992D03*
%TO.P,J101,11,Pin_11*%
%TO.N,GND*%
X97230000Y-134779992D03*
%TO.P,J101,12,Pin_12*%
%TO.N,I2C_SDA*%
X100000000Y-134779992D03*
%TO.P,J101,13,Pin_13*%
%TO.N,I2C_SCL*%
X102770000Y-134779992D03*
%TO.P,J101,14,Pin_14*%
%TO.N,+12V*%
X105539999Y-134779992D03*
%TO.P,J101,15,Pin_15*%
%TO.N,GND*%
X108309999Y-134779992D03*
%TD*%
D10*
%TO.P,U107,1,G*%
%TO.N,GND*%
X79460000Y-111000000D03*
%TO.P,U107,2,VO*%
%TO.N,/5V_2*%
X82000000Y-111000000D03*
%TO.P,U107,3,VI*%
%TO.N,+12V*%
X84540000Y-111000000D03*
%TD*%
D12*
%TO.P,J103,1,Pin_1*%
%TO.N,LED3*%
X96750000Y-89000000D03*
D13*
%TO.P,J103,2,Pin_2*%
%TO.N,LED4*%
X94250000Y-89000000D03*
%TO.P,J103,3,Pin_3*%
%TO.N,LED5*%
X91750000Y-89000000D03*
%TO.P,J103,4,Pin_4*%
%TO.N,+5V*%
X89250000Y-89000000D03*
%TD*%
D14*
%TO.P,H103,1,1*%
%TO.N,GND*%
X72600000Y-90000000D03*
X73302944Y-88302944D03*
X73302944Y-91697056D03*
X75000000Y-87600000D03*
D15*
X75000000Y-90000000D03*
D14*
X75000000Y-92400000D03*
X76697056Y-88302944D03*
X76697056Y-91697056D03*
X77400000Y-90000000D03*
%TD*%
D10*
%TO.P,U108,1,G*%
%TO.N,GND*%
X82700000Y-122000000D03*
%TO.P,U108,2,VO*%
%TO.N,/5V_1*%
X82700000Y-119460000D03*
%TO.P,U108,3,VI*%
%TO.N,+12V*%
X82700000Y-116920000D03*
%TD*%
D16*
%TO.P,J104,1,Pin_1*%
%TO.N,/5V_1*%
X93650000Y-119460000D03*
D17*
%TO.P,J104,2,Pin_2*%
%TO.N,/5V_2*%
X96190000Y-119460000D03*
%TO.P,J104,3,Pin_3*%
%TO.N,/5V_3*%
X98730000Y-119460000D03*
%TO.P,J104,4,Pin_4*%
%TO.N,/5V_4*%
X101270000Y-119460000D03*
%TO.P,J104,5,Pin_5*%
%TO.N,/5V_5*%
X103810000Y-119460000D03*
%TO.P,J104,6,Pin_6*%
%TO.N,/5V_6*%
X106350000Y-119460000D03*
%TD*%
D14*
%TO.P,H102,1,1*%
%TO.N,GND*%
X122600000Y-140000000D03*
X123302944Y-138302944D03*
X123302944Y-141697056D03*
X125000000Y-137600000D03*
D15*
X125000000Y-140000000D03*
D14*
X125000000Y-142400000D03*
X126697056Y-138302944D03*
X126697056Y-141697056D03*
X127400000Y-140000000D03*
%TD*%
D10*
%TO.P,U103,1,G*%
%TO.N,GND*%
X117300000Y-116920000D03*
%TO.P,U103,2,VO*%
%TO.N,/5V_6*%
X117300000Y-119460000D03*
%TO.P,U103,3,VI*%
%TO.N,+12V*%
X117300000Y-122000000D03*
%TD*%
D14*
%TO.P,H101,1,1*%
%TO.N,GND*%
X72600000Y-140000000D03*
X73302944Y-138302944D03*
X73302944Y-141697056D03*
X75000000Y-137600000D03*
D15*
X75000000Y-140000000D03*
D14*
X75000000Y-142400000D03*
X76697056Y-138302944D03*
X76697056Y-141697056D03*
X77400000Y-140000000D03*
%TD*%
%TO.P,H104,1,1*%
%TO.N,GND*%
X122600000Y-90000000D03*
X123302944Y-88302944D03*
X123302944Y-91697056D03*
X125000000Y-87600000D03*
D15*
X125000000Y-90000000D03*
D14*
X125000000Y-92400000D03*
X126697056Y-88302944D03*
X126697056Y-91697056D03*
X127400000Y-90000000D03*
%TD*%
D10*
%TO.P,U102,1,GND*%
%TO.N,GND*%
X108900000Y-95597500D03*
%TO.P,U102,2,VO*%
%TO.N,+5V*%
X108900000Y-98137500D03*
%TO.P,U102,3,VI*%
%TO.N,+12V*%
X108900000Y-100677500D03*
%TD*%
%TO.P,U106,1,G*%
%TO.N,GND*%
X91460000Y-111000000D03*
%TO.P,U106,2,VO*%
%TO.N,/5V_3*%
X94000000Y-111000000D03*
%TO.P,U106,3,VI*%
%TO.N,+12V*%
X96540000Y-111000000D03*
%TD*%
D12*
%TO.P,J102,1,Pin_1*%
%TO.N,LED0*%
X110750000Y-89000000D03*
D13*
%TO.P,J102,2,Pin_2*%
%TO.N,LED1*%
X108250000Y-89000000D03*
%TO.P,J102,3,Pin_3*%
%TO.N,LED2*%
X105750000Y-89000000D03*
%TO.P,J102,4,Pin_4*%
%TO.N,+5V*%
X103250000Y-89000000D03*
%TD*%
D10*
%TO.P,U104,1,G*%
%TO.N,GND*%
X115460000Y-111000000D03*
%TO.P,U104,2,VO*%
%TO.N,/5V_5*%
X118000000Y-111000000D03*
%TO.P,U104,3,VI*%
%TO.N,+12V*%
X120540000Y-111000000D03*
%TD*%
D16*
%TO.P,J106,1,Pin_1*%
%TO.N,GND*%
X93650000Y-116920000D03*
D17*
%TO.P,J106,2,Pin_2*%
X96190000Y-116920000D03*
%TO.P,J106,3,Pin_3*%
X98730000Y-116920000D03*
%TO.P,J106,4,Pin_4*%
X101270000Y-116920000D03*
%TO.P,J106,5,Pin_5*%
X103810000Y-116920000D03*
%TO.P,J106,6,Pin_6*%
X106350000Y-116920000D03*
%TD*%
D16*
%TO.P,J105,1,Pin_1*%
%TO.N,PWM_TIM1_CH1*%
X93650000Y-122000000D03*
D17*
%TO.P,J105,2,Pin_2*%
%TO.N,PWM_TIM1_CH2*%
X96190000Y-122000000D03*
%TO.P,J105,3,Pin_3*%
%TO.N,PWM_TIM1_CH3*%
X98730000Y-122000000D03*
%TO.P,J105,4,Pin_4*%
%TO.N,PWM_TIM1_CH4*%
X101270000Y-122000000D03*
%TO.P,J105,5,Pin_5*%
%TO.N,PWM_TIM2_CH1*%
X103810000Y-122000000D03*
%TO.P,J105,6,Pin_6*%
%TO.N,PWM_TIM2_CH2*%
X106350000Y-122000000D03*
%TD*%
D18*
%TO.N,GND*%
X72500000Y-143500000D03*
X70750000Y-122500000D03*
X129250000Y-137500000D03*
X100000000Y-85750000D03*
X129250000Y-107500000D03*
X82000000Y-108600000D03*
X70750000Y-115000000D03*
X71250000Y-88000000D03*
X102500000Y-144250000D03*
X128750000Y-142000000D03*
X75000000Y-144250000D03*
X107500000Y-85750000D03*
X97500000Y-144250000D03*
X117500000Y-144250000D03*
X106000000Y-100400000D03*
X70750000Y-97500000D03*
X70750000Y-95000000D03*
X80000000Y-85750000D03*
X87500000Y-144250000D03*
X70750000Y-102500000D03*
X92500000Y-144250000D03*
X125000000Y-85750000D03*
X70750000Y-137500000D03*
X112000000Y-103600000D03*
X120200000Y-129000000D03*
X70750000Y-107500000D03*
X122500000Y-144250000D03*
X117500000Y-85750000D03*
X129250000Y-140000000D03*
X127250000Y-86250000D03*
X102500000Y-85750000D03*
X91400000Y-105800000D03*
X82500000Y-85750000D03*
X70750000Y-125000000D03*
X105000000Y-85750000D03*
X115000000Y-85750000D03*
X129250000Y-100000000D03*
X129250000Y-135000000D03*
X77500000Y-144250000D03*
X127250000Y-143750000D03*
X82500000Y-144250000D03*
X77500000Y-85750000D03*
X70750000Y-117500000D03*
X72500000Y-86500000D03*
X118600000Y-114400000D03*
X70750000Y-127500000D03*
X105000000Y-144250000D03*
X70750000Y-120000000D03*
X87500000Y-85750000D03*
X70750000Y-105000000D03*
X78000000Y-122000000D03*
X112000000Y-111000000D03*
X85000000Y-144250000D03*
X92500000Y-85750000D03*
X95000000Y-144250000D03*
X71250000Y-142000000D03*
X110000000Y-85750000D03*
X125000000Y-114600000D03*
X88000000Y-111000000D03*
X122500000Y-85750000D03*
X95000000Y-85750000D03*
X120000000Y-144250000D03*
X70750000Y-112500000D03*
X129250000Y-102500000D03*
X70750000Y-135000000D03*
X70750000Y-100000000D03*
X129250000Y-110000000D03*
X112500000Y-144250000D03*
X97500000Y-85750000D03*
X70750000Y-130000000D03*
X129250000Y-127500000D03*
X115000000Y-144250000D03*
X129250000Y-97500000D03*
X129250000Y-92500000D03*
X86400000Y-135400000D03*
X128750000Y-88000000D03*
X129250000Y-105000000D03*
X107500000Y-144250000D03*
X129250000Y-125000000D03*
X70750000Y-90000000D03*
X70750000Y-132500000D03*
X105800000Y-93400000D03*
X95800000Y-93800000D03*
X70750000Y-110000000D03*
X70750000Y-92500000D03*
X129250000Y-130000000D03*
X129250000Y-90000000D03*
X100000000Y-110800000D03*
X85000000Y-85750000D03*
X110000000Y-144250000D03*
X129250000Y-120000000D03*
X129250000Y-117500000D03*
X102000000Y-102600000D03*
X129250000Y-95000000D03*
X115200000Y-128800000D03*
X114000000Y-136000000D03*
X125000000Y-144250000D03*
X80000000Y-144250000D03*
X112500000Y-85750000D03*
X90000000Y-144250000D03*
X129250000Y-132500000D03*
X129250000Y-115000000D03*
X100000000Y-144250000D03*
X75000000Y-85750000D03*
X120000000Y-85750000D03*
X90000000Y-85750000D03*
X70750000Y-140000000D03*
X129250000Y-112500000D03*
X129250000Y-122500000D03*
%TD*%
D19*
%TO.N,+12V*%
X119500000Y-108000000D02*
X120540000Y-109040000D01*
X80500000Y-117000000D02*
X80500000Y-115500000D01*
X120540000Y-120460000D02*
X119000000Y-122000000D01*
X119000000Y-122000000D02*
X117300000Y-122000000D01*
X86000000Y-108000000D02*
X96500000Y-108000000D01*
X95500000Y-137000000D02*
X94460001Y-135960001D01*
X94460001Y-134779992D02*
X91690001Y-134779992D01*
X108900000Y-100677500D02*
X108900000Y-107600000D01*
X94460001Y-135960001D02*
X94460001Y-134779992D01*
X80500000Y-117000000D02*
X80580000Y-116920000D01*
X104500000Y-137000000D02*
X95500000Y-137000000D01*
X96540000Y-108040000D02*
X96500000Y-108000000D01*
X108540000Y-111000000D02*
X108540000Y-108040000D01*
X80500000Y-115500000D02*
X81000000Y-115000000D01*
X105539999Y-134779992D02*
X105539999Y-135960001D01*
X120540000Y-109040000D02*
X120540000Y-111000000D01*
X84540000Y-111460000D02*
X84500000Y-111500000D01*
X83000000Y-113000000D02*
X84500000Y-111500000D01*
X108900000Y-107600000D02*
X108500000Y-108000000D01*
X80500000Y-125700000D02*
X80500000Y-117000000D01*
X91690001Y-134779992D02*
X89579992Y-134779992D01*
X84540000Y-111000000D02*
X84540000Y-111460000D01*
X105539999Y-135960001D02*
X104500000Y-137000000D01*
X84540000Y-111000000D02*
X84540000Y-109460000D01*
X108540000Y-108040000D02*
X108500000Y-108000000D01*
X96500000Y-108000000D02*
X108500000Y-108000000D01*
X80580000Y-116920000D02*
X82700000Y-116920000D01*
X108500000Y-108000000D02*
X119500000Y-108000000D01*
X89579992Y-134779992D02*
X80500000Y-125700000D01*
X84540000Y-109460000D02*
X86000000Y-108000000D01*
X120540000Y-111000000D02*
X120540000Y-120460000D01*
X81000000Y-115000000D02*
X83000000Y-113000000D01*
X96540000Y-111000000D02*
X96540000Y-108040000D01*
%TO.N,+5V*%
X89500000Y-91000000D02*
X103250000Y-91000000D01*
X89250000Y-89000000D02*
X89250000Y-90750000D01*
X103250000Y-93750000D02*
X103500000Y-94000000D01*
X103500000Y-94000000D02*
X107637500Y-98137500D01*
X107637500Y-98137500D02*
X108900000Y-98137500D01*
X103250000Y-91000000D02*
X103250000Y-93750000D01*
X103250000Y-89000000D02*
X103250000Y-91000000D01*
X89250000Y-90750000D02*
X89500000Y-91000000D01*
%TD*%
%TA.AperFunction,Conductor*%
%TO.N,GND*%
G36*
X95724075Y-116727007D02*
G01*
X95690000Y-116854174D01*
X95690000Y-116985826D01*
X95724075Y-117112993D01*
X95756988Y-117170000D01*
X94083012Y-117170000D01*
X94115925Y-117112993D01*
X94150000Y-116985826D01*
X94150000Y-116854174D01*
X94115925Y-116727007D01*
X94083012Y-116670000D01*
X95756988Y-116670000D01*
X95724075Y-116727007D01*
G37*
%TD.AperFunction*%
%TA.AperFunction,Conductor*%
G36*
X98264075Y-116727007D02*
G01*
X98230000Y-116854174D01*
X98230000Y-116985826D01*
X98264075Y-117112993D01*
X98296988Y-117170000D01*
X96623012Y-117170000D01*
X96655925Y-117112993D01*
X96690000Y-116985826D01*
X96690000Y-116854174D01*
X96655925Y-116727007D01*
X96623012Y-116670000D01*
X98296988Y-116670000D01*
X98264075Y-116727007D01*
G37*
%TD.AperFunction*%
%TA.AperFunction,Conductor*%
G36*
X100804075Y-116727007D02*
G01*
X100770000Y-116854174D01*
X100770000Y-116985826D01*
X100804075Y-117112993D01*
X100836988Y-117170000D01*
X99163012Y-117170000D01*
X99195925Y-117112993D01*
X99230000Y-116985826D01*
X99230000Y-116854174D01*
X99195925Y-116727007D01*
X99163012Y-116670000D01*
X100836988Y-116670000D01*
X100804075Y-116727007D01*
G37*
%TD.AperFunction*%
%TA.AperFunction,Conductor*%
G36*
X103344075Y-116727007D02*
G01*
X103310000Y-116854174D01*
X103310000Y-116985826D01*
X103344075Y-117112993D01*
X103376988Y-117170000D01*
X101703012Y-117170000D01*
X101735925Y-117112993D01*
X101770000Y-116985826D01*
X101770000Y-116854174D01*
X101735925Y-116727007D01*
X101703012Y-116670000D01*
X103376988Y-116670000D01*
X103344075Y-116727007D01*
G37*
%TD.AperFunction*%
%TA.AperFunction,Conductor*%
G36*
X105884075Y-116727007D02*
G01*
X105850000Y-116854174D01*
X105850000Y-116985826D01*
X105884075Y-117112993D01*
X105916988Y-117170000D01*
X104243012Y-117170000D01*
X104275925Y-117112993D01*
X104310000Y-116985826D01*
X104310000Y-116854174D01*
X104275925Y-116727007D01*
X104243012Y-116670000D01*
X105916988Y-116670000D01*
X105884075Y-116727007D01*
G37*
%TD.AperFunction*%
%TA.AperFunction,Conductor*%
G36*
X125000641Y-85000006D02*
G01*
X125213481Y-85002328D01*
X125222915Y-85002792D01*
X125647552Y-85039943D01*
X125658270Y-85041354D01*
X126077393Y-85115256D01*
X126087921Y-85117590D01*
X126499033Y-85227747D01*
X126509322Y-85230992D01*
X126909255Y-85376555D01*
X126919221Y-85380683D01*
X127304942Y-85560547D01*
X127314528Y-85565538D01*
X127683088Y-85778326D01*
X127692207Y-85784135D01*
X128040820Y-86028237D01*
X128049402Y-86034822D01*
X128375420Y-86308383D01*
X128383395Y-86315692D01*
X128684307Y-86616604D01*
X128691616Y-86624579D01*
X128965177Y-86950597D01*
X128971762Y-86959179D01*
X129215864Y-87307792D01*
X129221676Y-87316916D01*
X129434459Y-87685467D01*
X129439454Y-87695062D01*
X129619310Y-88080764D01*
X129623450Y-88090759D01*
X129769003Y-88490664D01*
X129772256Y-88500980D01*
X129882405Y-88912061D01*
X129884746Y-88922623D01*
X129958644Y-89341725D01*
X129960056Y-89352450D01*
X129997206Y-89777073D01*
X129997671Y-89786527D01*
X129999993Y-89999357D01*
X130000000Y-90000710D01*
X130000000Y-139999289D01*
X129999993Y-140000642D01*
X129997671Y-140213472D01*
X129997206Y-140222926D01*
X129960056Y-140647549D01*
X129958644Y-140658274D01*
X129884746Y-141077376D01*
X129882405Y-141087938D01*
X129772256Y-141499019D01*
X129769003Y-141509335D01*
X129623450Y-141909240D01*
X129619310Y-141919235D01*
X129439454Y-142304937D01*
X129434459Y-142314532D01*
X129221676Y-142683083D01*
X129215864Y-142692207D01*
X128971762Y-143040820D01*
X128965177Y-143049402D01*
X128691616Y-143375420D01*
X128684307Y-143383395D01*
X128383395Y-143684307D01*
X128375420Y-143691616D01*
X128049402Y-143965177D01*
X128040820Y-143971762D01*
X127692207Y-144215864D01*
X127683083Y-144221676D01*
X127314532Y-144434459D01*
X127304937Y-144439454D01*
X126919235Y-144619310D01*
X126909240Y-144623450D01*
X126509335Y-144769003D01*
X126499019Y-144772256D01*
X126087938Y-144882405D01*
X126077376Y-144884746D01*
X125658274Y-144958644D01*
X125647549Y-144960056D01*
X125222926Y-144997206D01*
X125213472Y-144997671D01*
X125005455Y-144999940D01*
X125000640Y-144999993D01*
X124999290Y-145000000D01*
X75000710Y-145000000D01*
X74999359Y-144999993D01*
X74994454Y-144999939D01*
X74786527Y-144997671D01*
X74777073Y-144997206D01*
X74352450Y-144960056D01*
X74341725Y-144958644D01*
X73922623Y-144884746D01*
X73912061Y-144882405D01*
X73500980Y-144772256D01*
X73490664Y-144769003D01*
X73090759Y-144623450D01*
X73080764Y-144619310D01*
X72695062Y-144439454D01*
X72685467Y-144434459D01*
X72316916Y-144221676D01*
X72307792Y-144215864D01*
X71959179Y-143971762D01*
X71950597Y-143965177D01*
X71624579Y-143691616D01*
X71616604Y-143684307D01*
X71315692Y-143383395D01*
X71308383Y-143375420D01*
X71034822Y-143049402D01*
X71028237Y-143040820D01*
X70997887Y-142997476D01*
X70784132Y-142692203D01*
X70778323Y-142683083D01*
X70635294Y-142435350D01*
X70565538Y-142314528D01*
X70560545Y-142304937D01*
X70501252Y-142177783D01*
X70380683Y-141919221D01*
X70376555Y-141909255D01*
X70230992Y-141509322D01*
X70227747Y-141499033D01*
X70117590Y-141087921D01*
X70115256Y-141077393D01*
X70041354Y-140658270D01*
X70039943Y-140647549D01*
X70017173Y-140387287D01*
X70002792Y-140222915D01*
X70002328Y-140213471D01*
X70000007Y-140000641D01*
X70000004Y-140000000D01*
X71294922Y-140000000D01*
X71315219Y-140387287D01*
X71375886Y-140770323D01*
X71375887Y-140770330D01*
X71476262Y-141144936D01*
X71615244Y-141506994D01*
X71791310Y-141852543D01*
X72002531Y-142177793D01*
X72211095Y-142435350D01*
X72211096Y-142435350D01*
X73705748Y-140940698D01*
X73779588Y-141042330D01*
X73957670Y-141220412D01*
X74059300Y-141294251D01*
X72564648Y-142788903D01*
X72564649Y-142788904D01*
X72822206Y-142997468D01*
X73147456Y-143208689D01*
X73493005Y-143384755D01*
X73855063Y-143523737D01*
X74229669Y-143624112D01*
X74229676Y-143624113D01*
X74612712Y-143684780D01*
X74999999Y-143705078D01*
X75000001Y-143705078D01*
X75387287Y-143684780D01*
X75770323Y-143624113D01*
X75770330Y-143624112D01*
X76144936Y-143523737D01*
X76506994Y-143384755D01*
X76852543Y-143208689D01*
X77177783Y-142997476D01*
X77177785Y-142997475D01*
X77435349Y-142788902D01*
X75940698Y-141294251D01*
X76042330Y-141220412D01*
X76220412Y-141042330D01*
X76294251Y-140940698D01*
X77788902Y-142435349D01*
X77997475Y-142177785D01*
X77997476Y-142177783D01*
X78208689Y-141852543D01*
X78384755Y-141506994D01*
X78523737Y-141144936D01*
X78624112Y-140770330D01*
X78624113Y-140770323D01*
X78684780Y-140387287D01*
X78705078Y-140000000D01*
X121294922Y-140000000D01*
X121315219Y-140387287D01*
X121375886Y-140770323D01*
X121375887Y-140770330D01*
X121476262Y-141144936D01*
X121615244Y-141506994D01*
X121791310Y-141852543D01*
X122002531Y-142177793D01*
X122211095Y-142435350D01*
X122211096Y-142435350D01*
X123705748Y-140940698D01*
X123779588Y-141042330D01*
X123957670Y-141220412D01*
X124059300Y-141294251D01*
X122564648Y-142788903D01*
X122564649Y-142788904D01*
X122822206Y-142997468D01*
X123147456Y-143208689D01*
X123493005Y-143384755D01*
X123855063Y-143523737D01*
X124229669Y-143624112D01*
X124229676Y-143624113D01*
X124612712Y-143684780D01*
X124999999Y-143705078D01*
X125000001Y-143705078D01*
X125387287Y-143684780D01*
X125770323Y-143624113D01*
X125770330Y-143624112D01*
X126144936Y-143523737D01*
X126506994Y-143384755D01*
X126852543Y-143208689D01*
X127177783Y-142997476D01*
X127177785Y-142997475D01*
X127435349Y-142788902D01*
X125940698Y-141294251D01*
X126042330Y-141220412D01*
X126220412Y-141042330D01*
X126294251Y-140940698D01*
X127788902Y-142435349D01*
X127997475Y-142177785D01*
X127997476Y-142177783D01*
X128208689Y-141852543D01*
X128384755Y-141506994D01*
X128523737Y-141144936D01*
X128624112Y-140770330D01*
X128624113Y-140770323D01*
X128684780Y-140387287D01*
X128705078Y-140000000D01*
X128705078Y-139999999D01*
X128684780Y-139612712D01*
X128624113Y-139229676D01*
X128624112Y-139229669D01*
X128523737Y-138855063D01*
X128384755Y-138493005D01*
X128208689Y-138147456D01*
X127997468Y-137822206D01*
X127788904Y-137564649D01*
X127788903Y-137564648D01*
X126294251Y-139059300D01*
X126220412Y-138957670D01*
X126042330Y-138779588D01*
X125940698Y-138705748D01*
X127435350Y-137211096D01*
X127435350Y-137211095D01*
X127177793Y-137002531D01*
X126852543Y-136791310D01*
X126506994Y-136615244D01*
X126144936Y-136476262D01*
X125770330Y-136375887D01*
X125770323Y-136375886D01*
X125387287Y-136315219D01*
X125000001Y-136294922D01*
X124999999Y-136294922D01*
X124612712Y-136315219D01*
X124229676Y-136375886D01*
X124229669Y-136375887D01*
X123855063Y-136476262D01*
X123493005Y-136615244D01*
X123147456Y-136791310D01*
X122822206Y-137002531D01*
X122564648Y-137211095D01*
X122564648Y-137211096D01*
X124059301Y-138705748D01*
X123957670Y-138779588D01*
X123779588Y-138957670D01*
X123705748Y-139059300D01*
X122211096Y-137564648D01*
X122211095Y-137564648D01*
X122002531Y-137822206D01*
X121791310Y-138147456D01*
X121615244Y-138493005D01*
X121476262Y-138855063D01*
X121375887Y-139229669D01*
X121375886Y-139229676D01*
X121315219Y-139612712D01*
X121294922Y-139999999D01*
X121294922Y-140000000D01*
X78705078Y-140000000D01*
X78705078Y-139999999D01*
X78684780Y-139612712D01*
X78624113Y-139229676D01*
X78624112Y-139229669D01*
X78523737Y-138855063D01*
X78384755Y-138493005D01*
X78208689Y-138147456D01*
X77997468Y-137822206D01*
X77788904Y-137564649D01*
X77788903Y-137564648D01*
X76294251Y-139059300D01*
X76220412Y-138957670D01*
X76042330Y-138779588D01*
X75940698Y-138705748D01*
X77435350Y-137211096D01*
X77435350Y-137211095D01*
X77177793Y-137002531D01*
X76852543Y-136791310D01*
X76506994Y-136615244D01*
X76144936Y-136476262D01*
X75770330Y-136375887D01*
X75770323Y-136375886D01*
X75387287Y-136315219D01*
X75000001Y-136294922D01*
X74999999Y-136294922D01*
X74612712Y-136315219D01*
X74229676Y-136375886D01*
X74229669Y-136375887D01*
X73855063Y-136476262D01*
X73493005Y-136615244D01*
X73147456Y-136791310D01*
X72822206Y-137002531D01*
X72564648Y-137211095D01*
X72564648Y-137211096D01*
X74059301Y-138705748D01*
X73957670Y-138779588D01*
X73779588Y-138957670D01*
X73705748Y-139059300D01*
X72211096Y-137564648D01*
X72211095Y-137564648D01*
X72002531Y-137822206D01*
X71791310Y-138147456D01*
X71615244Y-138493005D01*
X71476262Y-138855063D01*
X71375887Y-139229669D01*
X71375886Y-139229676D01*
X71315219Y-139612712D01*
X71294922Y-139999999D01*
X71294922Y-140000000D01*
X70000004Y-140000000D01*
X70000000Y-139999289D01*
X70000000Y-133481294D01*
X81489300Y-133481294D01*
X81489301Y-133481310D01*
X81520964Y-133721817D01*
X81520965Y-133721822D01*
X81520966Y-133721828D01*
X81520967Y-133721830D01*
X81583756Y-133956166D01*
X81676593Y-134180293D01*
X81676597Y-134180303D01*
X81797896Y-134390399D01*
X81945583Y-134582868D01*
X81945589Y-134582875D01*
X82117124Y-134754410D01*
X82117131Y-134754416D01*
X82309600Y-134902103D01*
X82519696Y-135023402D01*
X82519697Y-135023402D01*
X82519700Y-135023404D01*
X82628615Y-135068518D01*
X82743833Y-135116243D01*
X82743834Y-135116243D01*
X82743836Y-135116244D01*
X82978172Y-135179034D01*
X83218699Y-135210700D01*
X83218706Y-135210700D01*
X83461294Y-135210700D01*
X83461301Y-135210700D01*
X83701828Y-135179034D01*
X83936164Y-135116244D01*
X84160300Y-135023404D01*
X84370400Y-134902103D01*
X84562870Y-134754415D01*
X84734415Y-134582870D01*
X84882103Y-134390400D01*
X85003404Y-134180300D01*
X85096244Y-133956164D01*
X85159034Y-133721828D01*
X85190700Y-133481301D01*
X85190700Y-133238699D01*
X85159034Y-132998172D01*
X85096244Y-132763836D01*
X85088424Y-132744958D01*
X85003406Y-132539706D01*
X85003402Y-132539696D01*
X84882103Y-132329600D01*
X84734416Y-132137131D01*
X84734410Y-132137124D01*
X84562875Y-131965589D01*
X84562868Y-131965583D01*
X84370399Y-131817896D01*
X84160303Y-131696597D01*
X84160293Y-131696593D01*
X83936166Y-131603756D01*
X83787714Y-131563979D01*
X83701828Y-131540966D01*
X83701822Y-131540965D01*
X83701817Y-131540964D01*
X83461310Y-131509301D01*
X83461307Y-131509300D01*
X83461301Y-131509300D01*
X83218699Y-131509300D01*
X83218693Y-131509300D01*
X83218689Y-131509301D01*
X82978182Y-131540964D01*
X82978175Y-131540965D01*
X82978172Y-131540966D01*
X82932203Y-131553283D01*
X82743833Y-131603756D01*
X82519706Y-131696593D01*
X82519696Y-131696597D01*
X82309600Y-131817896D01*
X82117131Y-131965583D01*
X82117124Y-131965589D01*
X81945589Y-132137124D01*
X81945583Y-132137131D01*
X81797896Y-132329600D01*
X81676597Y-132539696D01*
X81676593Y-132539706D01*
X81583756Y-132763833D01*
X81520967Y-132998169D01*
X81520964Y-132998182D01*
X81489301Y-133238689D01*
X81489300Y-133238705D01*
X81489300Y-133481294D01*
X70000000Y-133481294D01*
X70000000Y-125793621D01*
X79549500Y-125793621D01*
X79586024Y-125977242D01*
X79586027Y-125977251D01*
X79657673Y-126150223D01*
X79657680Y-126150236D01*
X79761697Y-126305907D01*
X79761700Y-126305911D01*
X88974080Y-135518291D01*
X88974084Y-135518294D01*
X89129755Y-135622311D01*
X89129757Y-135622312D01*
X89129762Y-135622315D01*
X89230378Y-135663991D01*
X89302741Y-135693965D01*
X89334362Y-135700254D01*
X89394509Y-135712219D01*
X89394542Y-135712224D01*
X89394558Y-135712228D01*
X89455769Y-135724404D01*
X89486374Y-135730492D01*
X89486375Y-135730492D01*
X89486376Y-135730492D01*
X91596385Y-135730492D01*
X93385501Y-135730492D01*
X93452540Y-135750177D01*
X93498295Y-135802981D01*
X93509501Y-135854492D01*
X93509501Y-136053622D01*
X93546025Y-136237243D01*
X93546028Y-136237252D01*
X93617674Y-136410224D01*
X93617681Y-136410237D01*
X93721698Y-136565908D01*
X93721701Y-136565912D01*
X94894088Y-137738299D01*
X94894092Y-137738302D01*
X95049763Y-137842319D01*
X95049765Y-137842320D01*
X95049770Y-137842323D01*
X95151099Y-137884294D01*
X95222749Y-137913973D01*
X95406379Y-137950499D01*
X95406383Y-137950500D01*
X95406384Y-137950500D01*
X104593618Y-137950500D01*
X104611980Y-137946847D01*
X104685433Y-137932236D01*
X104685434Y-137932236D01*
X104708545Y-137927638D01*
X104777251Y-137913973D01*
X104848901Y-137884294D01*
X104950230Y-137842323D01*
X105105908Y-137738302D01*
X106278301Y-136565909D01*
X106382322Y-136410231D01*
X106453972Y-136237251D01*
X106490499Y-136053617D01*
X106490499Y-135866384D01*
X106490499Y-134779992D01*
X107081424Y-134779992D01*
X107100088Y-134993327D01*
X107100090Y-134993337D01*
X107155513Y-135200181D01*
X107155517Y-135200190D01*
X107246022Y-135394279D01*
X107285614Y-135450823D01*
X107851612Y-134884825D01*
X107872122Y-134961367D01*
X107933985Y-135068518D01*
X108021473Y-135156006D01*
X108128624Y-135217869D01*
X108205165Y-135238378D01*
X107639166Y-135804375D01*
X107695711Y-135843969D01*
X107889800Y-135934473D01*
X107889809Y-135934477D01*
X108096653Y-135989900D01*
X108096663Y-135989902D01*
X108309998Y-136008567D01*
X108310000Y-136008567D01*
X108523334Y-135989902D01*
X108523344Y-135989900D01*
X108730188Y-135934477D01*
X108730202Y-135934472D01*
X108924284Y-135843970D01*
X108924296Y-135843963D01*
X108980829Y-135804377D01*
X108980830Y-135804375D01*
X108414833Y-135238378D01*
X108491374Y-135217869D01*
X108598525Y-135156006D01*
X108686013Y-135068518D01*
X108747876Y-134961367D01*
X108768385Y-134884825D01*
X109334383Y-135450823D01*
X109334384Y-135450822D01*
X109373970Y-135394289D01*
X109373977Y-135394277D01*
X109464479Y-135200195D01*
X109464484Y-135200181D01*
X109519907Y-134993337D01*
X109519909Y-134993327D01*
X109538574Y-134779992D01*
X109538574Y-134779991D01*
X109519909Y-134566656D01*
X109519907Y-134566646D01*
X109464484Y-134359802D01*
X109464480Y-134359793D01*
X109373976Y-134165706D01*
X109334382Y-134109159D01*
X108768385Y-134675157D01*
X108747876Y-134598617D01*
X108686013Y-134491466D01*
X108598525Y-134403978D01*
X108491374Y-134342115D01*
X108414832Y-134321605D01*
X108980830Y-133755607D01*
X108924286Y-133716015D01*
X108730197Y-133625510D01*
X108730188Y-133625506D01*
X108523344Y-133570083D01*
X108523334Y-133570081D01*
X108310000Y-133551417D01*
X108309998Y-133551417D01*
X108096663Y-133570081D01*
X108096653Y-133570083D01*
X107889809Y-133625506D01*
X107889800Y-133625510D01*
X107695709Y-133716016D01*
X107639166Y-133755606D01*
X108205165Y-134321605D01*
X108128624Y-134342115D01*
X108021473Y-134403978D01*
X107933985Y-134491466D01*
X107872122Y-134598617D01*
X107851612Y-134675158D01*
X107285613Y-134109159D01*
X107246023Y-134165702D01*
X107155517Y-134359793D01*
X107155513Y-134359802D01*
X107100090Y-134566646D01*
X107100088Y-134566656D01*
X107081424Y-134779991D01*
X107081424Y-134779992D01*
X106490499Y-134779992D01*
X106490499Y-134686376D01*
X106453972Y-134502741D01*
X106382321Y-134329761D01*
X106382320Y-134329760D01*
X106382317Y-134329754D01*
X106278301Y-134174084D01*
X106278298Y-134174080D01*
X106145910Y-134041692D01*
X106145906Y-134041689D01*
X105990236Y-133937673D01*
X105990227Y-133937668D01*
X105817250Y-133866019D01*
X105817242Y-133866017D01*
X105633619Y-133829492D01*
X105633615Y-133829492D01*
X105446383Y-133829492D01*
X105446378Y-133829492D01*
X105262755Y-133866017D01*
X105262747Y-133866019D01*
X105089770Y-133937668D01*
X105089761Y-133937673D01*
X104934091Y-134041689D01*
X104934087Y-134041692D01*
X104801699Y-134174080D01*
X104801696Y-134174084D01*
X104697680Y-134329754D01*
X104697675Y-134329763D01*
X104626026Y-134502740D01*
X104626024Y-134502748D01*
X104589499Y-134686371D01*
X104589499Y-135514929D01*
X104569814Y-135581968D01*
X104553180Y-135602610D01*
X104142609Y-136013181D01*
X104081286Y-136046666D01*
X104054928Y-136049500D01*
X97944037Y-136049500D01*
X97876998Y-136029815D01*
X97831243Y-135977011D01*
X97821299Y-135907853D01*
X97850324Y-135844297D01*
X97872911Y-135823927D01*
X97900831Y-135804376D01*
X97900831Y-135804375D01*
X97334834Y-135238378D01*
X97411375Y-135217869D01*
X97518526Y-135156006D01*
X97606014Y-135068518D01*
X97667877Y-134961367D01*
X97688386Y-134884825D01*
X98254384Y-135450823D01*
X98254385Y-135450822D01*
X98293971Y-135394289D01*
X98293978Y-135394277D01*
X98384480Y-135200195D01*
X98384485Y-135200181D01*
X98439908Y-134993337D01*
X98439910Y-134993327D01*
X98458575Y-134779992D01*
X99070508Y-134779992D01*
X99090820Y-134973246D01*
X99090821Y-134973248D01*
X99150867Y-135158051D01*
X99150868Y-135158053D01*
X99231074Y-135296975D01*
X99248025Y-135326334D01*
X99293317Y-135376636D01*
X99378042Y-135470734D01*
X99378045Y-135470736D01*
X99378048Y-135470739D01*
X99443498Y-135518291D01*
X99535255Y-135584957D01*
X99603398Y-135615295D01*
X99712771Y-135663991D01*
X99902842Y-135704392D01*
X100097158Y-135704392D01*
X100287229Y-135663991D01*
X100464746Y-135584956D01*
X100621952Y-135470739D01*
X100639885Y-135450823D01*
X100650122Y-135439452D01*
X100751975Y-135326334D01*
X100849133Y-135158050D01*
X100909180Y-134973244D01*
X100929492Y-134779992D01*
X101840508Y-134779992D01*
X101860820Y-134973246D01*
X101860821Y-134973248D01*
X101920867Y-135158051D01*
X101920868Y-135158053D01*
X102001074Y-135296975D01*
X102018025Y-135326334D01*
X102063317Y-135376636D01*
X102148042Y-135470734D01*
X102148045Y-135470736D01*
X102148048Y-135470739D01*
X102213498Y-135518291D01*
X102305255Y-135584957D01*
X102373398Y-135615295D01*
X102482771Y-135663991D01*
X102672842Y-135704392D01*
X102867158Y-135704392D01*
X103057229Y-135663991D01*
X103234746Y-135584956D01*
X103391952Y-135470739D01*
X103409885Y-135450823D01*
X103420122Y-135439452D01*
X103521975Y-135326334D01*
X103619133Y-135158050D01*
X103679180Y-134973244D01*
X103699492Y-134779992D01*
X103679180Y-134586740D01*
X103619133Y-134401934D01*
X103612473Y-134390399D01*
X103566108Y-134310092D01*
X103521975Y-134233650D01*
X103471048Y-134177090D01*
X103391957Y-134089249D01*
X103391954Y-134089247D01*
X103391953Y-134089246D01*
X103391952Y-134089245D01*
X103313349Y-134032136D01*
X103234744Y-133975026D01*
X103098457Y-133914348D01*
X103057229Y-133895993D01*
X103057227Y-133895992D01*
X102867158Y-133855592D01*
X102672842Y-133855592D01*
X102482773Y-133895992D01*
X102305255Y-133975026D01*
X102148045Y-134089247D01*
X102148042Y-134089249D01*
X102018024Y-134233651D01*
X101920868Y-134401930D01*
X101920867Y-134401932D01*
X101860821Y-134586735D01*
X101860820Y-134586737D01*
X101840508Y-134779992D01*
X100929492Y-134779992D01*
X100909180Y-134586740D01*
X100849133Y-134401934D01*
X100842473Y-134390399D01*
X100796108Y-134310092D01*
X100751975Y-134233650D01*
X100701048Y-134177090D01*
X100621957Y-134089249D01*
X100621954Y-134089247D01*
X100621953Y-134089246D01*
X100621952Y-134089245D01*
X100543349Y-134032136D01*
X100464744Y-133975026D01*
X100328457Y-133914348D01*
X100287229Y-133895993D01*
X100287227Y-133895992D01*
X100097158Y-133855592D01*
X99902842Y-133855592D01*
X99712773Y-133895992D01*
X99535255Y-133975026D01*
X99378045Y-134089247D01*
X99378042Y-134089249D01*
X99248024Y-134233651D01*
X99150868Y-134401930D01*
X99150867Y-134401932D01*
X99090821Y-134586735D01*
X99090820Y-134586737D01*
X99070508Y-134779992D01*
X98458575Y-134779992D01*
X98458575Y-134779991D01*
X98439910Y-134566656D01*
X98439908Y-134566646D01*
X98384485Y-134359802D01*
X98384481Y-134359793D01*
X98293977Y-134165706D01*
X98254383Y-134109159D01*
X97688386Y-134675157D01*
X97667877Y-134598617D01*
X97606014Y-134491466D01*
X97518526Y-134403978D01*
X97411375Y-134342115D01*
X97334833Y-134321605D01*
X97900831Y-133755607D01*
X97844287Y-133716015D01*
X97650198Y-133625510D01*
X97650189Y-133625506D01*
X97443345Y-133570083D01*
X97443335Y-133570081D01*
X97230001Y-133551417D01*
X97229999Y-133551417D01*
X97016664Y-133570081D01*
X97016654Y-133570083D01*
X96809810Y-133625506D01*
X96809801Y-133625510D01*
X96615710Y-133716016D01*
X96559167Y-133755606D01*
X97125166Y-134321605D01*
X97048625Y-134342115D01*
X96941474Y-134403978D01*
X96853986Y-134491466D01*
X96792123Y-134598617D01*
X96771613Y-134675158D01*
X96205614Y-134109159D01*
X96166024Y-134165702D01*
X96075518Y-134359793D01*
X96075514Y-134359802D01*
X96020091Y-134566646D01*
X96020089Y-134566656D01*
X96001425Y-134779991D01*
X96001425Y-134779992D01*
X96020089Y-134993327D01*
X96020091Y-134993337D01*
X96075514Y-135200181D01*
X96075518Y-135200190D01*
X96166023Y-135394279D01*
X96205615Y-135450823D01*
X96771613Y-134884825D01*
X96792123Y-134961367D01*
X96853986Y-135068518D01*
X96941474Y-135156006D01*
X97048625Y-135217869D01*
X97125166Y-135238378D01*
X96559167Y-135804375D01*
X96559167Y-135804376D01*
X96587087Y-135823926D01*
X96630712Y-135878503D01*
X96637904Y-135948001D01*
X96606382Y-136010356D01*
X96546152Y-136045769D01*
X96515963Y-136049500D01*
X95945072Y-136049500D01*
X95878033Y-136029815D01*
X95857391Y-136013181D01*
X95446820Y-135602610D01*
X95413335Y-135541287D01*
X95410501Y-135514929D01*
X95410501Y-134686375D01*
X95410500Y-134686371D01*
X95390681Y-134586735D01*
X95373974Y-134502741D01*
X95302323Y-134329761D01*
X95302322Y-134329760D01*
X95302319Y-134329754D01*
X95198303Y-134174084D01*
X95198300Y-134174080D01*
X95065912Y-134041692D01*
X95065908Y-134041689D01*
X94910238Y-133937673D01*
X94910229Y-133937668D01*
X94737252Y-133866019D01*
X94737244Y-133866017D01*
X94553621Y-133829492D01*
X94553617Y-133829492D01*
X91783617Y-133829492D01*
X90025064Y-133829492D01*
X89958025Y-133809807D01*
X89937383Y-133793173D01*
X89625504Y-133481294D01*
X114809300Y-133481294D01*
X114809301Y-133481310D01*
X114840964Y-133721817D01*
X114840965Y-133721822D01*
X114840966Y-133721828D01*
X114840967Y-133721830D01*
X114903756Y-133956166D01*
X114996593Y-134180293D01*
X114996597Y-134180303D01*
X115117896Y-134390399D01*
X115265583Y-134582868D01*
X115265589Y-134582875D01*
X115437124Y-134754410D01*
X115437131Y-134754416D01*
X115629600Y-134902103D01*
X115839696Y-135023402D01*
X115839697Y-135023402D01*
X115839700Y-135023404D01*
X115948615Y-135068518D01*
X116063833Y-135116243D01*
X116063834Y-135116243D01*
X116063836Y-135116244D01*
X116298172Y-135179034D01*
X116538699Y-135210700D01*
X116538706Y-135210700D01*
X116781294Y-135210700D01*
X116781301Y-135210700D01*
X117021828Y-135179034D01*
X117256164Y-135116244D01*
X117480300Y-135023404D01*
X117690400Y-134902103D01*
X117882870Y-134754415D01*
X118054415Y-134582870D01*
X118202103Y-134390400D01*
X118323404Y-134180300D01*
X118416244Y-133956164D01*
X118479034Y-133721828D01*
X118510700Y-133481301D01*
X118510700Y-133238699D01*
X118479034Y-132998172D01*
X118416244Y-132763836D01*
X118408424Y-132744958D01*
X118323406Y-132539706D01*
X118323402Y-132539696D01*
X118202103Y-132329600D01*
X118054416Y-132137131D01*
X118054410Y-132137124D01*
X117882875Y-131965589D01*
X117882868Y-131965583D01*
X117690399Y-131817896D01*
X117480303Y-131696597D01*
X117480293Y-131696593D01*
X117256166Y-131603756D01*
X117107714Y-131563979D01*
X117021828Y-131540966D01*
X117021822Y-131540965D01*
X117021817Y-131540964D01*
X116781310Y-131509301D01*
X116781307Y-131509300D01*
X116781301Y-131509300D01*
X116538699Y-131509300D01*
X116538693Y-131509300D01*
X116538689Y-131509301D01*
X116298182Y-131540964D01*
X116298175Y-131540965D01*
X116298172Y-131540966D01*
X116252203Y-131553283D01*
X116063833Y-131603756D01*
X115839706Y-131696593D01*
X115839696Y-131696597D01*
X115629600Y-131817896D01*
X115437131Y-131965583D01*
X115437124Y-131965589D01*
X115265589Y-132137124D01*
X115265583Y-132137131D01*
X115117896Y-132329600D01*
X114996597Y-132539696D01*
X114996593Y-132539706D01*
X114903756Y-132763833D01*
X114840967Y-132998169D01*
X114840964Y-132998182D01*
X114809301Y-133238689D01*
X114809300Y-133238705D01*
X114809300Y-133481294D01*
X89625504Y-133481294D01*
X88084203Y-131939993D01*
X89076425Y-131939993D01*
X89095089Y-132153328D01*
X89095091Y-132153338D01*
X89150514Y-132360182D01*
X89150518Y-132360191D01*
X89241023Y-132554280D01*
X89280615Y-132610824D01*
X89846613Y-132044826D01*
X89867123Y-132121368D01*
X89928986Y-132228519D01*
X90016474Y-132316007D01*
X90123625Y-132377870D01*
X90200166Y-132398379D01*
X89634167Y-132964376D01*
X89690712Y-133003970D01*
X89884801Y-133094474D01*
X89884810Y-133094478D01*
X90091654Y-133149901D01*
X90091664Y-133149903D01*
X90304999Y-133168568D01*
X90305001Y-133168568D01*
X90518335Y-133149903D01*
X90518345Y-133149901D01*
X90725189Y-133094478D01*
X90725203Y-133094473D01*
X90919285Y-133003971D01*
X90919297Y-133003964D01*
X90975830Y-132964378D01*
X90975831Y-132964376D01*
X90409834Y-132398379D01*
X90486375Y-132377870D01*
X90593526Y-132316007D01*
X90681014Y-132228519D01*
X90742877Y-132121368D01*
X90763386Y-132044826D01*
X91329384Y-132610824D01*
X91329385Y-132610823D01*
X91368971Y-132554290D01*
X91368978Y-132554278D01*
X91459480Y-132360196D01*
X91459485Y-132360182D01*
X91514908Y-132153338D01*
X91514910Y-132153328D01*
X91533575Y-131939993D01*
X92145508Y-131939993D01*
X92165820Y-132133247D01*
X92165821Y-132133249D01*
X92225867Y-132318052D01*
X92225868Y-132318054D01*
X92306074Y-132456976D01*
X92323025Y-132486335D01*
X92368317Y-132536637D01*
X92453042Y-132630735D01*
X92453045Y-132630737D01*
X92453048Y-132630740D01*
X92570952Y-132716402D01*
X92610255Y-132744958D01*
X92652657Y-132763836D01*
X92787771Y-132823992D01*
X92977842Y-132864393D01*
X93172158Y-132864393D01*
X93362229Y-132823992D01*
X93539746Y-132744957D01*
X93696952Y-132630740D01*
X93714885Y-132610824D01*
X93725122Y-132599453D01*
X93826975Y-132486335D01*
X93924133Y-132318051D01*
X93984180Y-132133245D01*
X94004492Y-131939993D01*
X94915507Y-131939993D01*
X94935819Y-132133247D01*
X94935820Y-132133249D01*
X94995866Y-132318052D01*
X94995867Y-132318054D01*
X95076073Y-132456976D01*
X95093024Y-132486335D01*
X95138316Y-132536637D01*
X95223041Y-132630735D01*
X95223044Y-132630737D01*
X95223047Y-132630740D01*
X95340951Y-132716402D01*
X95380254Y-132744958D01*
X95422656Y-132763836D01*
X95557770Y-132823992D01*
X95747841Y-132864393D01*
X95942157Y-132864393D01*
X96132228Y-132823992D01*
X96309745Y-132744957D01*
X96466951Y-132630740D01*
X96484884Y-132610824D01*
X96495121Y-132599453D01*
X96596974Y-132486335D01*
X96694132Y-132318051D01*
X96754179Y-132133245D01*
X96774491Y-131939993D01*
X97685507Y-131939993D01*
X97705819Y-132133247D01*
X97705820Y-132133249D01*
X97765866Y-132318052D01*
X97765867Y-132318054D01*
X97846073Y-132456976D01*
X97863024Y-132486335D01*
X97908316Y-132536637D01*
X97993041Y-132630735D01*
X97993044Y-132630737D01*
X97993047Y-132630740D01*
X98110951Y-132716402D01*
X98150254Y-132744958D01*
X98192656Y-132763836D01*
X98327770Y-132823992D01*
X98517841Y-132864393D01*
X98712157Y-132864393D01*
X98902228Y-132823992D01*
X99079745Y-132744957D01*
X99236951Y-132630740D01*
X99254884Y-132610824D01*
X99265121Y-132599453D01*
X99366974Y-132486335D01*
X99464132Y-132318051D01*
X99524179Y-132133245D01*
X99544491Y-131939993D01*
X100455506Y-131939993D01*
X100475818Y-132133247D01*
X100475819Y-132133249D01*
X100535865Y-132318052D01*
X100535866Y-132318054D01*
X100616072Y-132456976D01*
X100633023Y-132486335D01*
X100678315Y-132536637D01*
X100763040Y-132630735D01*
X100763043Y-132630737D01*
X100763046Y-132630740D01*
X100880950Y-132716402D01*
X100920253Y-132744958D01*
X100962655Y-132763836D01*
X101097769Y-132823992D01*
X101287840Y-132864393D01*
X101482156Y-132864393D01*
X101672227Y-132823992D01*
X101849744Y-132744957D01*
X102006950Y-132630740D01*
X102024883Y-132610824D01*
X102035120Y-132599453D01*
X102136973Y-132486335D01*
X102234131Y-132318051D01*
X102294178Y-132133245D01*
X102314490Y-131939993D01*
X103225506Y-131939993D01*
X103245818Y-132133247D01*
X103245819Y-132133249D01*
X103305865Y-132318052D01*
X103305866Y-132318054D01*
X103386072Y-132456976D01*
X103403023Y-132486335D01*
X103448315Y-132536637D01*
X103533040Y-132630735D01*
X103533043Y-132630737D01*
X103533046Y-132630740D01*
X103650950Y-132716402D01*
X103690253Y-132744958D01*
X103732655Y-132763836D01*
X103867769Y-132823992D01*
X104057840Y-132864393D01*
X104252156Y-132864393D01*
X104442227Y-132823992D01*
X104619744Y-132744957D01*
X104776950Y-132630740D01*
X104794883Y-132610824D01*
X104805120Y-132599453D01*
X104906973Y-132486335D01*
X105004131Y-132318051D01*
X105064178Y-132133245D01*
X105084490Y-131939993D01*
X105995506Y-131939993D01*
X106015818Y-132133247D01*
X106015819Y-132133249D01*
X106075865Y-132318052D01*
X106075866Y-132318054D01*
X106156072Y-132456976D01*
X106173023Y-132486335D01*
X106218315Y-132536637D01*
X106303040Y-132630735D01*
X106303043Y-132630737D01*
X106303046Y-132630740D01*
X106420950Y-132716402D01*
X106460253Y-132744958D01*
X106502655Y-132763836D01*
X106637769Y-132823992D01*
X106827840Y-132864393D01*
X107022156Y-132864393D01*
X107212227Y-132823992D01*
X107389744Y-132744957D01*
X107546950Y-132630740D01*
X107564883Y-132610824D01*
X107575120Y-132599453D01*
X107676973Y-132486335D01*
X107774131Y-132318051D01*
X107834178Y-132133245D01*
X107854490Y-131939993D01*
X108466422Y-131939993D01*
X108485086Y-132153328D01*
X108485088Y-132153338D01*
X108540511Y-132360182D01*
X108540515Y-132360191D01*
X108631020Y-132554280D01*
X108670612Y-132610824D01*
X109236610Y-132044826D01*
X109257120Y-132121368D01*
X109318983Y-132228519D01*
X109406471Y-132316007D01*
X109513622Y-132377870D01*
X109590163Y-132398379D01*
X109024164Y-132964376D01*
X109080709Y-133003970D01*
X109274798Y-133094474D01*
X109274807Y-133094478D01*
X109481651Y-133149901D01*
X109481661Y-133149903D01*
X109694996Y-133168568D01*
X109694998Y-133168568D01*
X109908332Y-133149903D01*
X109908342Y-133149901D01*
X110115186Y-133094478D01*
X110115200Y-133094473D01*
X110309282Y-133003971D01*
X110309294Y-133003964D01*
X110365827Y-132964378D01*
X110365828Y-132964376D01*
X109799831Y-132398379D01*
X109876372Y-132377870D01*
X109983523Y-132316007D01*
X110071011Y-132228519D01*
X110132874Y-132121368D01*
X110153383Y-132044826D01*
X110719380Y-132610824D01*
X110719382Y-132610823D01*
X110758968Y-132554290D01*
X110758975Y-132554278D01*
X110849477Y-132360196D01*
X110849482Y-132360182D01*
X110904905Y-132153338D01*
X110904907Y-132153328D01*
X110923572Y-131939993D01*
X110923572Y-131939992D01*
X110904907Y-131726657D01*
X110904905Y-131726647D01*
X110849482Y-131519803D01*
X110849478Y-131519794D01*
X110758974Y-131325707D01*
X110719380Y-131269160D01*
X110153383Y-131835158D01*
X110132874Y-131758618D01*
X110071011Y-131651467D01*
X109983523Y-131563979D01*
X109876372Y-131502116D01*
X109799830Y-131481606D01*
X110365828Y-130915608D01*
X110309284Y-130876016D01*
X110115195Y-130785511D01*
X110115186Y-130785507D01*
X109908342Y-130730084D01*
X109908332Y-130730082D01*
X109694998Y-130711418D01*
X109694996Y-130711418D01*
X109481661Y-130730082D01*
X109481651Y-130730084D01*
X109274807Y-130785507D01*
X109274798Y-130785511D01*
X109080707Y-130876017D01*
X109024164Y-130915607D01*
X109590163Y-131481606D01*
X109513622Y-131502116D01*
X109406471Y-131563979D01*
X109318983Y-131651467D01*
X109257120Y-131758618D01*
X109236610Y-131835159D01*
X108670611Y-131269160D01*
X108631021Y-131325703D01*
X108540515Y-131519794D01*
X108540511Y-131519803D01*
X108485088Y-131726647D01*
X108485086Y-131726657D01*
X108466422Y-131939992D01*
X108466422Y-131939993D01*
X107854490Y-131939993D01*
X107834178Y-131746741D01*
X107774131Y-131561935D01*
X107762023Y-131540964D01*
X107721106Y-131470093D01*
X107676973Y-131393651D01*
X107615792Y-131325703D01*
X107546955Y-131249250D01*
X107546952Y-131249248D01*
X107546951Y-131249247D01*
X107546950Y-131249246D01*
X107468347Y-131192137D01*
X107389742Y-131135027D01*
X107253455Y-131074349D01*
X107212227Y-131055994D01*
X107212225Y-131055993D01*
X107022156Y-131015593D01*
X106827840Y-131015593D01*
X106637771Y-131055993D01*
X106460253Y-131135027D01*
X106303043Y-131249248D01*
X106303040Y-131249250D01*
X106173022Y-131393652D01*
X106075866Y-131561931D01*
X106075865Y-131561933D01*
X106015819Y-131746736D01*
X106015818Y-131746738D01*
X105995506Y-131939993D01*
X105084490Y-131939993D01*
X105064178Y-131746741D01*
X105004131Y-131561935D01*
X104992023Y-131540964D01*
X104951106Y-131470093D01*
X104906973Y-131393651D01*
X104845792Y-131325703D01*
X104776955Y-131249250D01*
X104776952Y-131249248D01*
X104776951Y-131249247D01*
X104776950Y-131249246D01*
X104698347Y-131192137D01*
X104619742Y-131135027D01*
X104483455Y-131074349D01*
X104442227Y-131055994D01*
X104442225Y-131055993D01*
X104252156Y-131015593D01*
X104057840Y-131015593D01*
X103867771Y-131055993D01*
X103690253Y-131135027D01*
X103533043Y-131249248D01*
X103533040Y-131249250D01*
X103403022Y-131393652D01*
X103305866Y-131561931D01*
X103305865Y-131561933D01*
X103245819Y-131746736D01*
X103245818Y-131746738D01*
X103225506Y-131939993D01*
X102314490Y-131939993D01*
X102294178Y-131746741D01*
X102234131Y-131561935D01*
X102222023Y-131540964D01*
X102181106Y-131470093D01*
X102136973Y-131393651D01*
X102075792Y-131325703D01*
X102006955Y-131249250D01*
X102006952Y-131249248D01*
X102006951Y-131249247D01*
X102006950Y-131249246D01*
X101928347Y-131192137D01*
X101849742Y-131135027D01*
X101713455Y-131074349D01*
X101672227Y-131055994D01*
X101672225Y-131055993D01*
X101482156Y-131015593D01*
X101287840Y-131015593D01*
X101097771Y-131055993D01*
X100920253Y-131135027D01*
X100763043Y-131249248D01*
X100763040Y-131249250D01*
X100633022Y-131393652D01*
X100535866Y-131561931D01*
X100535865Y-131561933D01*
X100475819Y-131746736D01*
X100475818Y-131746738D01*
X100455506Y-131939993D01*
X99544491Y-131939993D01*
X99524179Y-131746741D01*
X99464132Y-131561935D01*
X99452024Y-131540964D01*
X99411107Y-131470093D01*
X99366974Y-131393651D01*
X99305793Y-131325703D01*
X99236956Y-131249250D01*
X99236953Y-131249248D01*
X99236952Y-131249247D01*
X99236951Y-131249246D01*
X99158348Y-131192137D01*
X99079743Y-131135027D01*
X98943456Y-131074349D01*
X98902228Y-131055994D01*
X98902226Y-131055993D01*
X98712157Y-131015593D01*
X98517841Y-131015593D01*
X98327772Y-131055993D01*
X98150254Y-131135027D01*
X97993044Y-131249248D01*
X97993041Y-131249250D01*
X97863023Y-131393652D01*
X97765867Y-131561931D01*
X97765866Y-131561933D01*
X97705820Y-131746736D01*
X97705819Y-131746738D01*
X97685507Y-131939993D01*
X96774491Y-131939993D01*
X96754179Y-131746741D01*
X96694132Y-131561935D01*
X96682024Y-131540964D01*
X96641107Y-131470093D01*
X96596974Y-131393651D01*
X96535793Y-131325703D01*
X96466956Y-131249250D01*
X96466953Y-131249248D01*
X96466952Y-131249247D01*
X96466951Y-131249246D01*
X96388348Y-131192137D01*
X96309743Y-131135027D01*
X96173456Y-131074349D01*
X96132228Y-131055994D01*
X96132226Y-131055993D01*
X95942157Y-131015593D01*
X95747841Y-131015593D01*
X95557772Y-131055993D01*
X95380254Y-131135027D01*
X95223044Y-131249248D01*
X95223041Y-131249250D01*
X95093023Y-131393652D01*
X94995867Y-131561931D01*
X94995866Y-131561933D01*
X94935820Y-131746736D01*
X94935819Y-131746738D01*
X94915507Y-131939993D01*
X94004492Y-131939993D01*
X93984180Y-131746741D01*
X93924133Y-131561935D01*
X93912025Y-131540964D01*
X93871108Y-131470093D01*
X93826975Y-131393651D01*
X93765794Y-131325703D01*
X93696957Y-131249250D01*
X93696954Y-131249248D01*
X93696953Y-131249247D01*
X93696952Y-131249246D01*
X93618349Y-131192137D01*
X93539744Y-131135027D01*
X93403457Y-131074349D01*
X93362229Y-131055994D01*
X93362227Y-131055993D01*
X93172158Y-131015593D01*
X92977842Y-131015593D01*
X92787773Y-131055993D01*
X92610255Y-131135027D01*
X92453045Y-131249248D01*
X92453042Y-131249250D01*
X92323024Y-131393652D01*
X92225868Y-131561931D01*
X92225867Y-131561933D01*
X92165821Y-131746736D01*
X92165820Y-131746738D01*
X92145508Y-131939993D01*
X91533575Y-131939993D01*
X91533575Y-131939992D01*
X91514910Y-131726657D01*
X91514908Y-131726647D01*
X91459485Y-131519803D01*
X91459481Y-131519794D01*
X91368977Y-131325707D01*
X91329383Y-131269160D01*
X90763386Y-131835158D01*
X90742877Y-131758618D01*
X90681014Y-131651467D01*
X90593526Y-131563979D01*
X90486375Y-131502116D01*
X90409833Y-131481606D01*
X90975831Y-130915608D01*
X90919287Y-130876016D01*
X90725198Y-130785511D01*
X90725189Y-130785507D01*
X90518345Y-130730084D01*
X90518335Y-130730082D01*
X90305001Y-130711418D01*
X90304999Y-130711418D01*
X90091664Y-130730082D01*
X90091654Y-130730084D01*
X89884810Y-130785507D01*
X89884801Y-130785511D01*
X89690710Y-130876017D01*
X89634167Y-130915607D01*
X90200166Y-131481606D01*
X90123625Y-131502116D01*
X90016474Y-131563979D01*
X89928986Y-131651467D01*
X89867123Y-131758618D01*
X89846613Y-131835159D01*
X89280614Y-131269160D01*
X89241024Y-131325703D01*
X89150518Y-131519794D01*
X89150514Y-131519803D01*
X89095091Y-131726647D01*
X89095089Y-131726657D01*
X89076425Y-131939992D01*
X89076425Y-131939993D01*
X88084203Y-131939993D01*
X81486819Y-125342609D01*
X81453334Y-125281286D01*
X81450500Y-125254928D01*
X81450500Y-122845880D01*
X81470185Y-122778841D01*
X81522989Y-122733086D01*
X81585307Y-122722352D01*
X81620974Y-122725472D01*
X82217037Y-122129409D01*
X82234075Y-122192993D01*
X82299901Y-122307007D01*
X82392993Y-122400099D01*
X82507007Y-122465925D01*
X82570590Y-122482962D01*
X81974526Y-123079025D01*
X82047513Y-123130132D01*
X82047521Y-123130136D01*
X82253668Y-123226264D01*
X82253682Y-123226269D01*
X82473389Y-123285139D01*
X82473400Y-123285141D01*
X82699998Y-123304966D01*
X82700002Y-123304966D01*
X82926599Y-123285141D01*
X82926610Y-123285139D01*
X83146317Y-123226269D01*
X83146331Y-123226264D01*
X83352478Y-123130136D01*
X83425471Y-123079024D01*
X83216199Y-122869752D01*
X92599500Y-122869752D01*
X92611131Y-122928229D01*
X92611132Y-122928230D01*
X92655447Y-122994552D01*
X92721769Y-123038867D01*
X92721770Y-123038868D01*
X92780247Y-123050499D01*
X92780250Y-123050500D01*
X92780252Y-123050500D01*
X94519750Y-123050500D01*
X94519751Y-123050499D01*
X94534568Y-123047552D01*
X94578229Y-123038868D01*
X94578229Y-123038867D01*
X94578231Y-123038867D01*
X94644552Y-122994552D01*
X94688867Y-122928231D01*
X94688867Y-122928229D01*
X94688868Y-122928229D01*
X94700499Y-122869752D01*
X94700500Y-122869750D01*
X94700500Y-122000000D01*
X95134417Y-122000000D01*
X95154699Y-122205932D01*
X95160972Y-122226610D01*
X95214768Y-122403954D01*
X95312315Y-122586450D01*
X95312317Y-122586452D01*
X95443589Y-122746410D01*
X95540209Y-122825702D01*
X95603550Y-122877685D01*
X95786046Y-122975232D01*
X95984066Y-123035300D01*
X95984065Y-123035300D01*
X96002529Y-123037118D01*
X96190000Y-123055583D01*
X96395934Y-123035300D01*
X96593954Y-122975232D01*
X96776450Y-122877685D01*
X96936410Y-122746410D01*
X97067685Y-122586450D01*
X97165232Y-122403954D01*
X97225300Y-122205934D01*
X97245583Y-122000000D01*
X97674417Y-122000000D01*
X97694699Y-122205932D01*
X97700972Y-122226610D01*
X97754768Y-122403954D01*
X97852315Y-122586450D01*
X97852317Y-122586452D01*
X97983589Y-122746410D01*
X98080209Y-122825702D01*
X98143550Y-122877685D01*
X98326046Y-122975232D01*
X98524066Y-123035300D01*
X98524065Y-123035300D01*
X98542529Y-123037118D01*
X98730000Y-123055583D01*
X98935934Y-123035300D01*
X99133954Y-122975232D01*
X99316450Y-122877685D01*
X99476410Y-122746410D01*
X99607685Y-122586450D01*
X99705232Y-122403954D01*
X99765300Y-122205934D01*
X99785583Y-122000000D01*
X100214417Y-122000000D01*
X100234699Y-122205932D01*
X100240972Y-122226610D01*
X100294768Y-122403954D01*
X100392315Y-122586450D01*
X100392317Y-122586452D01*
X100523589Y-122746410D01*
X100620209Y-122825702D01*
X100683550Y-122877685D01*
X100866046Y-122975232D01*
X101064066Y-123035300D01*
X101064065Y-123035300D01*
X101082529Y-123037118D01*
X101270000Y-123055583D01*
X101475934Y-123035300D01*
X101673954Y-122975232D01*
X101856450Y-122877685D01*
X102016410Y-122746410D01*
X102147685Y-122586450D01*
X102245232Y-122403954D01*
X102305300Y-122205934D01*
X102325583Y-122000000D01*
X102754417Y-122000000D01*
X102774699Y-122205932D01*
X102780972Y-122226610D01*
X102834768Y-122403954D01*
X102932315Y-122586450D01*
X102932317Y-122586452D01*
X103063589Y-122746410D01*
X103160209Y-122825702D01*
X103223550Y-122877685D01*
X103406046Y-122975232D01*
X103604066Y-123035300D01*
X103604065Y-123035300D01*
X103622529Y-123037118D01*
X103810000Y-123055583D01*
X104015934Y-123035300D01*
X104213954Y-122975232D01*
X104396450Y-122877685D01*
X104556410Y-122746410D01*
X104687685Y-122586450D01*
X104785232Y-122403954D01*
X104845300Y-122205934D01*
X104865583Y-122000000D01*
X105294417Y-122000000D01*
X105314699Y-122205932D01*
X105320972Y-122226610D01*
X105374768Y-122403954D01*
X105472315Y-122586450D01*
X105472317Y-122586452D01*
X105603589Y-122746410D01*
X105700209Y-122825702D01*
X105763550Y-122877685D01*
X105946046Y-122975232D01*
X106144066Y-123035300D01*
X106144065Y-123035300D01*
X106162529Y-123037118D01*
X106350000Y-123055583D01*
X106555934Y-123035300D01*
X106753954Y-122975232D01*
X106936450Y-122877685D01*
X107096410Y-122746410D01*
X107227685Y-122586450D01*
X107325232Y-122403954D01*
X107385300Y-122205934D01*
X107405583Y-122000000D01*
X107385300Y-121794066D01*
X107325232Y-121596046D01*
X107227685Y-121413550D01*
X107173490Y-121347513D01*
X107096410Y-121253589D01*
X106946121Y-121130252D01*
X106936450Y-121122315D01*
X106753954Y-121024768D01*
X106555934Y-120964700D01*
X106555932Y-120964699D01*
X106555934Y-120964699D01*
X106350000Y-120944417D01*
X106144067Y-120964699D01*
X105946043Y-121024769D01*
X105859205Y-121071186D01*
X105763550Y-121122315D01*
X105763548Y-121122316D01*
X105763547Y-121122317D01*
X105603589Y-121253589D01*
X105472317Y-121413547D01*
X105374769Y-121596043D01*
X105314699Y-121794067D01*
X105294417Y-122000000D01*
X104865583Y-122000000D01*
X104845300Y-121794066D01*
X104785232Y-121596046D01*
X104687685Y-121413550D01*
X104633490Y-121347513D01*
X104556410Y-121253589D01*
X104406121Y-121130252D01*
X104396450Y-121122315D01*
X104213954Y-121024768D01*
X104015934Y-120964700D01*
X104015932Y-120964699D01*
X104015934Y-120964699D01*
X103810000Y-120944417D01*
X103604067Y-120964699D01*
X103406043Y-121024769D01*
X103319205Y-121071186D01*
X103223550Y-121122315D01*
X103223548Y-121122316D01*
X103223547Y-121122317D01*
X103063589Y-121253589D01*
X102932317Y-121413547D01*
X102834769Y-121596043D01*
X102774699Y-121794067D01*
X102754417Y-122000000D01*
X102325583Y-122000000D01*
X102305300Y-121794066D01*
X102245232Y-121596046D01*
X102147685Y-121413550D01*
X102093490Y-121347513D01*
X102016410Y-121253589D01*
X101866121Y-121130252D01*
X101856450Y-121122315D01*
X101673954Y-121024768D01*
X101475934Y-120964700D01*
X101475932Y-120964699D01*
X101475934Y-120964699D01*
X101270000Y-120944417D01*
X101064067Y-120964699D01*
X100866043Y-121024769D01*
X100779205Y-121071186D01*
X100683550Y-121122315D01*
X100683548Y-121122316D01*
X100683547Y-121122317D01*
X100523589Y-121253589D01*
X100392317Y-121413547D01*
X100294769Y-121596043D01*
X100234699Y-121794067D01*
X100214417Y-122000000D01*
X99785583Y-122000000D01*
X99765300Y-121794066D01*
X99705232Y-121596046D01*
X99607685Y-121413550D01*
X99553490Y-121347513D01*
X99476410Y-121253589D01*
X99326121Y-121130252D01*
X99316450Y-121122315D01*
X99133954Y-121024768D01*
X98935934Y-120964700D01*
X98935932Y-120964699D01*
X98935934Y-120964699D01*
X98730000Y-120944417D01*
X98524067Y-120964699D01*
X98326043Y-121024769D01*
X98239205Y-121071186D01*
X98143550Y-121122315D01*
X98143548Y-121122316D01*
X98143547Y-121122317D01*
X97983589Y-121253589D01*
X97852317Y-121413547D01*
X97754769Y-121596043D01*
X97694699Y-121794067D01*
X97674417Y-122000000D01*
X97245583Y-122000000D01*
X97225300Y-121794066D01*
X97165232Y-121596046D01*
X97067685Y-121413550D01*
X97013490Y-121347513D01*
X96936410Y-121253589D01*
X96786121Y-121130252D01*
X96776450Y-121122315D01*
X96593954Y-121024768D01*
X96395934Y-120964700D01*
X96395932Y-120964699D01*
X96395934Y-120964699D01*
X96190000Y-120944417D01*
X95984067Y-120964699D01*
X95786043Y-121024769D01*
X95699205Y-121071186D01*
X95603550Y-121122315D01*
X95603548Y-121122316D01*
X95603547Y-121122317D01*
X95443589Y-121253589D01*
X95312317Y-121413547D01*
X95214769Y-121596043D01*
X95154699Y-121794067D01*
X95134417Y-122000000D01*
X94700500Y-122000000D01*
X94700500Y-121130249D01*
X94700499Y-121130247D01*
X94688868Y-121071770D01*
X94688867Y-121071769D01*
X94644552Y-121005447D01*
X94578230Y-120961132D01*
X94578229Y-120961131D01*
X94519752Y-120949500D01*
X94519748Y-120949500D01*
X92780252Y-120949500D01*
X92780247Y-120949500D01*
X92721770Y-120961131D01*
X92721769Y-120961132D01*
X92655447Y-121005447D01*
X92611132Y-121071769D01*
X92611131Y-121071770D01*
X92599500Y-121130247D01*
X92599500Y-122869752D01*
X83216199Y-122869752D01*
X82829409Y-122482962D01*
X82892993Y-122465925D01*
X83007007Y-122400099D01*
X83100099Y-122307007D01*
X83165925Y-122192993D01*
X83182962Y-122129409D01*
X83779024Y-122725471D01*
X83830136Y-122652478D01*
X83926264Y-122446331D01*
X83926269Y-122446317D01*
X83985139Y-122226610D01*
X83985141Y-122226599D01*
X84004966Y-122000002D01*
X84004966Y-121999997D01*
X83985141Y-121773400D01*
X83985139Y-121773389D01*
X83926269Y-121553682D01*
X83926264Y-121553668D01*
X83830136Y-121347521D01*
X83830132Y-121347513D01*
X83779025Y-121274526D01*
X83182962Y-121870589D01*
X83165925Y-121807007D01*
X83100099Y-121692993D01*
X83007007Y-121599901D01*
X82892993Y-121534075D01*
X82829410Y-121517037D01*
X83425472Y-120920974D01*
X83352478Y-120869863D01*
X83146331Y-120773735D01*
X83146317Y-120773730D01*
X82926610Y-120714860D01*
X82926600Y-120714858D01*
X82793401Y-120703205D01*
X82728333Y-120677752D01*
X82699524Y-120637967D01*
X82681093Y-120669674D01*
X82618896Y-120701505D01*
X82606598Y-120703205D01*
X82473399Y-120714858D01*
X82473389Y-120714860D01*
X82253682Y-120773730D01*
X82253673Y-120773734D01*
X82047516Y-120869866D01*
X82047512Y-120869868D01*
X81974526Y-120920973D01*
X81974526Y-120920974D01*
X82570590Y-121517037D01*
X82507007Y-121534075D01*
X82392993Y-121599901D01*
X82299901Y-121692993D01*
X82234075Y-121807007D01*
X82217037Y-121870589D01*
X81620973Y-121274525D01*
X81585306Y-121277646D01*
X81516806Y-121263879D01*
X81466624Y-121215263D01*
X81450500Y-121154118D01*
X81450500Y-119505091D01*
X81463807Y-119459771D01*
X81462776Y-119457756D01*
X81685508Y-119457756D01*
X81693477Y-119470156D01*
X81697903Y-119492937D01*
X81713975Y-119656129D01*
X81771188Y-119844733D01*
X81864086Y-120018532D01*
X81864090Y-120018539D01*
X81989116Y-120170883D01*
X82141460Y-120295909D01*
X82141467Y-120295913D01*
X82315266Y-120388811D01*
X82315269Y-120388811D01*
X82315273Y-120388814D01*
X82503868Y-120446024D01*
X82607944Y-120456274D01*
X82672731Y-120482434D01*
X82700402Y-120521538D01*
X82717930Y-120490615D01*
X82779777Y-120458108D01*
X82792047Y-120456275D01*
X82896132Y-120446024D01*
X83084727Y-120388814D01*
X83085822Y-120388229D01*
X83258532Y-120295913D01*
X83258538Y-120295910D01*
X83410883Y-120170883D01*
X83535910Y-120018538D01*
X83628814Y-119844727D01*
X83686024Y-119656132D01*
X83705341Y-119460000D01*
X83686024Y-119263868D01*
X83628814Y-119075273D01*
X83628811Y-119075269D01*
X83628811Y-119075266D01*
X83535913Y-118901467D01*
X83535909Y-118901460D01*
X83410883Y-118749116D01*
X83258539Y-118624090D01*
X83258532Y-118624086D01*
X83084733Y-118531188D01*
X83084727Y-118531186D01*
X82896132Y-118473976D01*
X82896129Y-118473975D01*
X82700000Y-118454659D01*
X82503870Y-118473975D01*
X82315266Y-118531188D01*
X82141467Y-118624086D01*
X82141460Y-118624090D01*
X81989116Y-118749116D01*
X81864090Y-118901460D01*
X81864086Y-118901467D01*
X81771188Y-119075266D01*
X81713975Y-119263870D01*
X81697903Y-119427062D01*
X81685508Y-119457756D01*
X81462776Y-119457756D01*
X81452672Y-119438013D01*
X81450500Y-119414908D01*
X81450500Y-117994500D01*
X81470185Y-117927461D01*
X81522989Y-117881706D01*
X81574500Y-117870500D01*
X82368366Y-117870500D01*
X82404361Y-117875839D01*
X82458305Y-117892202D01*
X82503868Y-117906024D01*
X82700000Y-117925341D01*
X82896132Y-117906024D01*
X83084727Y-117848814D01*
X83142668Y-117817844D01*
X92300000Y-117817844D01*
X92306401Y-117877372D01*
X92306403Y-117877379D01*
X92356645Y-118012086D01*
X92356649Y-118012093D01*
X92442809Y-118127187D01*
X92442812Y-118127190D01*
X92557906Y-118213350D01*
X92557913Y-118213354D01*
X92635617Y-118242336D01*
X92691551Y-118284207D01*
X92715968Y-118349672D01*
X92701116Y-118417945D01*
X92661179Y-118461617D01*
X92655448Y-118465446D01*
X92611132Y-118531769D01*
X92611131Y-118531770D01*
X92599500Y-118590247D01*
X92599500Y-120329752D01*
X92611131Y-120388229D01*
X92611132Y-120388230D01*
X92655447Y-120454552D01*
X92721769Y-120498867D01*
X92721770Y-120498868D01*
X92780247Y-120510499D01*
X92780250Y-120510500D01*
X92780252Y-120510500D01*
X94519750Y-120510500D01*
X94519751Y-120510499D01*
X94534568Y-120507552D01*
X94578229Y-120498868D01*
X94578229Y-120498867D01*
X94578231Y-120498867D01*
X94644552Y-120454552D01*
X94688867Y-120388231D01*
X94688867Y-120388229D01*
X94688868Y-120388229D01*
X94700499Y-120329752D01*
X94700500Y-120329750D01*
X94700500Y-118590249D01*
X94700499Y-118590247D01*
X94688868Y-118531770D01*
X94688867Y-118531769D01*
X94644551Y-118465446D01*
X94638823Y-118461619D01*
X94594018Y-118408006D01*
X94585312Y-118338681D01*
X94615468Y-118275654D01*
X94664382Y-118242336D01*
X94742086Y-118213354D01*
X94742093Y-118213350D01*
X94857187Y-118127190D01*
X94857190Y-118127187D01*
X94943350Y-118012093D01*
X94943354Y-118012086D01*
X94992614Y-117880013D01*
X95034485Y-117824079D01*
X95099949Y-117799662D01*
X95168222Y-117814513D01*
X95196477Y-117835665D01*
X95318917Y-117958105D01*
X95512421Y-118093600D01*
X95726507Y-118193429D01*
X95726516Y-118193433D01*
X95848649Y-118226158D01*
X95908310Y-118262523D01*
X95938839Y-118325369D01*
X95930545Y-118394745D01*
X95886059Y-118448623D01*
X95852552Y-118464593D01*
X95786046Y-118484767D01*
X95698112Y-118531770D01*
X95603550Y-118582315D01*
X95603548Y-118582316D01*
X95603547Y-118582317D01*
X95443589Y-118713589D01*
X95312317Y-118873547D01*
X95214769Y-119056043D01*
X95154699Y-119254067D01*
X95134417Y-119460000D01*
X95154699Y-119665932D01*
X95154700Y-119665934D01*
X95214768Y-119863954D01*
X95312315Y-120046450D01*
X95312317Y-120046452D01*
X95443589Y-120206410D01*
X95540209Y-120285702D01*
X95603550Y-120337685D01*
X95786046Y-120435232D01*
X95984066Y-120495300D01*
X95984065Y-120495300D01*
X96002529Y-120497118D01*
X96190000Y-120515583D01*
X96395934Y-120495300D01*
X96593954Y-120435232D01*
X96776450Y-120337685D01*
X96936410Y-120206410D01*
X97067685Y-120046450D01*
X97165232Y-119863954D01*
X97225300Y-119665934D01*
X97245583Y-119460000D01*
X97225300Y-119254066D01*
X97165232Y-119056046D01*
X97067685Y-118873550D01*
X97015702Y-118810209D01*
X96936410Y-118713589D01*
X96786121Y-118590252D01*
X96776450Y-118582315D01*
X96593954Y-118484768D01*
X96527447Y-118464593D01*
X96469009Y-118426296D01*
X96440553Y-118362484D01*
X96451113Y-118293417D01*
X96497337Y-118241023D01*
X96531350Y-118226158D01*
X96653483Y-118193433D01*
X96653492Y-118193429D01*
X96867578Y-118093600D01*
X97061082Y-117958105D01*
X97228105Y-117791082D01*
X97358425Y-117604968D01*
X97413002Y-117561344D01*
X97482501Y-117554151D01*
X97544855Y-117585673D01*
X97561575Y-117604968D01*
X97691894Y-117791082D01*
X97858917Y-117958105D01*
X98052421Y-118093600D01*
X98266507Y-118193429D01*
X98266516Y-118193433D01*
X98388649Y-118226158D01*
X98448310Y-118262523D01*
X98478839Y-118325369D01*
X98470545Y-118394745D01*
X98426059Y-118448623D01*
X98392552Y-118464593D01*
X98326046Y-118484767D01*
X98238112Y-118531770D01*
X98143550Y-118582315D01*
X98143548Y-118582316D01*
X98143547Y-118582317D01*
X97983589Y-118713589D01*
X97852317Y-118873547D01*
X97754769Y-119056043D01*
X97694699Y-119254067D01*
X97674417Y-119460000D01*
X97694699Y-119665932D01*
X97694700Y-119665934D01*
X97754768Y-119863954D01*
X97852315Y-120046450D01*
X97852317Y-120046452D01*
X97983589Y-120206410D01*
X98080209Y-120285702D01*
X98143550Y-120337685D01*
X98326046Y-120435232D01*
X98524066Y-120495300D01*
X98524065Y-120495300D01*
X98542529Y-120497118D01*
X98730000Y-120515583D01*
X98935934Y-120495300D01*
X99133954Y-120435232D01*
X99316450Y-120337685D01*
X99476410Y-120206410D01*
X99607685Y-120046450D01*
X99705232Y-119863954D01*
X99765300Y-119665934D01*
X99785583Y-119460000D01*
X99765300Y-119254066D01*
X99705232Y-119056046D01*
X99607685Y-118873550D01*
X99555702Y-118810209D01*
X99476410Y-118713589D01*
X99326121Y-118590252D01*
X99316450Y-118582315D01*
X99133954Y-118484768D01*
X99067447Y-118464593D01*
X99009009Y-118426296D01*
X98980553Y-118362484D01*
X98991113Y-118293417D01*
X99037337Y-118241023D01*
X99071350Y-118226158D01*
X99193483Y-118193433D01*
X99193492Y-118193429D01*
X99407578Y-118093600D01*
X99601082Y-117958105D01*
X99768105Y-117791082D01*
X99898425Y-117604968D01*
X99953002Y-117561344D01*
X100022501Y-117554151D01*
X100084855Y-117585673D01*
X100101575Y-117604968D01*
X100231894Y-117791082D01*
X100398917Y-117958105D01*
X100592421Y-118093600D01*
X100806507Y-118193429D01*
X100806516Y-118193433D01*
X100928649Y-118226158D01*
X100988310Y-118262523D01*
X101018839Y-118325369D01*
X101010545Y-118394745D01*
X100966059Y-118448623D01*
X100932552Y-118464593D01*
X100866046Y-118484767D01*
X100778112Y-118531770D01*
X100683550Y-118582315D01*
X100683548Y-118582316D01*
X100683547Y-118582317D01*
X100523589Y-118713589D01*
X100392317Y-118873547D01*
X100294769Y-119056043D01*
X100234699Y-119254067D01*
X100214417Y-119460000D01*
X100234699Y-119665932D01*
X100234700Y-119665934D01*
X100294768Y-119863954D01*
X100392315Y-120046450D01*
X100392317Y-120046452D01*
X100523589Y-120206410D01*
X100620209Y-120285702D01*
X100683550Y-120337685D01*
X100866046Y-120435232D01*
X101064066Y-120495300D01*
X101064065Y-120495300D01*
X101082529Y-120497118D01*
X101270000Y-120515583D01*
X101475934Y-120495300D01*
X101673954Y-120435232D01*
X101856450Y-120337685D01*
X102016410Y-120206410D01*
X102147685Y-120046450D01*
X102245232Y-119863954D01*
X102305300Y-119665934D01*
X102325583Y-119460000D01*
X102305300Y-119254066D01*
X102245232Y-119056046D01*
X102147685Y-118873550D01*
X102095702Y-118810209D01*
X102016410Y-118713589D01*
X101866121Y-118590252D01*
X101856450Y-118582315D01*
X101673954Y-118484768D01*
X101607447Y-118464593D01*
X101549009Y-118426296D01*
X101520553Y-118362484D01*
X101531113Y-118293417D01*
X101577337Y-118241023D01*
X101611350Y-118226158D01*
X101733483Y-118193433D01*
X101733492Y-118193429D01*
X101947578Y-118093600D01*
X102141082Y-117958105D01*
X102308105Y-117791082D01*
X102438425Y-117604968D01*
X102493002Y-117561344D01*
X102562501Y-117554151D01*
X102624855Y-117585673D01*
X102641575Y-117604968D01*
X102771894Y-117791082D01*
X102938917Y-117958105D01*
X103132421Y-118093600D01*
X103346507Y-118193429D01*
X103346516Y-118193433D01*
X103468649Y-118226158D01*
X103528310Y-118262523D01*
X103558839Y-118325369D01*
X103550545Y-118394745D01*
X103506059Y-118448623D01*
X103472552Y-118464593D01*
X103406046Y-118484767D01*
X103318112Y-118531770D01*
X103223550Y-118582315D01*
X103223548Y-118582316D01*
X103223547Y-118582317D01*
X103063589Y-118713589D01*
X102932317Y-118873547D01*
X102834769Y-119056043D01*
X102774699Y-119254067D01*
X102754417Y-119460000D01*
X102774699Y-119665932D01*
X102774700Y-119665934D01*
X102834768Y-119863954D01*
X102932315Y-120046450D01*
X102932317Y-120046452D01*
X103063589Y-120206410D01*
X103160209Y-120285702D01*
X103223550Y-120337685D01*
X103406046Y-120435232D01*
X103604066Y-120495300D01*
X103604065Y-120495300D01*
X103622529Y-120497118D01*
X103810000Y-120515583D01*
X104015934Y-120495300D01*
X104213954Y-120435232D01*
X104396450Y-120337685D01*
X104556410Y-120206410D01*
X104687685Y-120046450D01*
X104785232Y-119863954D01*
X104845300Y-119665934D01*
X104865583Y-119460000D01*
X104845300Y-119254066D01*
X104785232Y-119056046D01*
X104687685Y-118873550D01*
X104635702Y-118810209D01*
X104556410Y-118713589D01*
X104406121Y-118590252D01*
X104396450Y-118582315D01*
X104213954Y-118484768D01*
X104147447Y-118464593D01*
X104089009Y-118426296D01*
X104060553Y-118362484D01*
X104071113Y-118293417D01*
X104117337Y-118241023D01*
X104151350Y-118226158D01*
X104273483Y-118193433D01*
X104273492Y-118193429D01*
X104487578Y-118093600D01*
X104681082Y-117958105D01*
X104848105Y-117791082D01*
X104978425Y-117604968D01*
X105033002Y-117561344D01*
X105102501Y-117554151D01*
X105164855Y-117585673D01*
X105181575Y-117604968D01*
X105311894Y-117791082D01*
X105478917Y-117958105D01*
X105672421Y-118093600D01*
X105886507Y-118193429D01*
X105886516Y-118193433D01*
X106008649Y-118226158D01*
X106068310Y-118262523D01*
X106098839Y-118325369D01*
X106090545Y-118394745D01*
X106046059Y-118448623D01*
X106012552Y-118464593D01*
X105946046Y-118484767D01*
X105858112Y-118531770D01*
X105763550Y-118582315D01*
X105763548Y-118582316D01*
X105763547Y-118582317D01*
X105603589Y-118713589D01*
X105472317Y-118873547D01*
X105374769Y-119056043D01*
X105314699Y-119254067D01*
X105294417Y-119460000D01*
X105314699Y-119665932D01*
X105314700Y-119665934D01*
X105374768Y-119863954D01*
X105472315Y-120046450D01*
X105472317Y-120046452D01*
X105603589Y-120206410D01*
X105700209Y-120285702D01*
X105763550Y-120337685D01*
X105946046Y-120435232D01*
X106144066Y-120495300D01*
X106144065Y-120495300D01*
X106162529Y-120497118D01*
X106350000Y-120515583D01*
X106555934Y-120495300D01*
X106753954Y-120435232D01*
X106936450Y-120337685D01*
X107096410Y-120206410D01*
X107227685Y-120046450D01*
X107325232Y-119863954D01*
X107385300Y-119665934D01*
X107405583Y-119460000D01*
X116294659Y-119460000D01*
X116313975Y-119656129D01*
X116371188Y-119844733D01*
X116464086Y-120018532D01*
X116464090Y-120018539D01*
X116589116Y-120170883D01*
X116741460Y-120295909D01*
X116741467Y-120295913D01*
X116915266Y-120388811D01*
X116915269Y-120388811D01*
X116915273Y-120388814D01*
X117103868Y-120446024D01*
X117300000Y-120465341D01*
X117496132Y-120446024D01*
X117684727Y-120388814D01*
X117685822Y-120388229D01*
X117858532Y-120295913D01*
X117858538Y-120295910D01*
X118010883Y-120170883D01*
X118135910Y-120018538D01*
X118228814Y-119844727D01*
X118286024Y-119656132D01*
X118305341Y-119460000D01*
X118286024Y-119263868D01*
X118228814Y-119075273D01*
X118228811Y-119075269D01*
X118228811Y-119075266D01*
X118135913Y-118901467D01*
X118135909Y-118901460D01*
X118010883Y-118749116D01*
X117858539Y-118624090D01*
X117858532Y-118624086D01*
X117684733Y-118531188D01*
X117684727Y-118531186D01*
X117496132Y-118473976D01*
X117496129Y-118473975D01*
X117392055Y-118463725D01*
X117327267Y-118437564D01*
X117299596Y-118398459D01*
X117282069Y-118429383D01*
X117220223Y-118461891D01*
X117207945Y-118463725D01*
X117103870Y-118473975D01*
X116915266Y-118531188D01*
X116741467Y-118624086D01*
X116741460Y-118624090D01*
X116589116Y-118749116D01*
X116464090Y-118901460D01*
X116464086Y-118901467D01*
X116371188Y-119075266D01*
X116313975Y-119263870D01*
X116294659Y-119460000D01*
X107405583Y-119460000D01*
X107385300Y-119254066D01*
X107325232Y-119056046D01*
X107227685Y-118873550D01*
X107175702Y-118810209D01*
X107096410Y-118713589D01*
X106946121Y-118590252D01*
X106936450Y-118582315D01*
X106753954Y-118484768D01*
X106687447Y-118464593D01*
X106629009Y-118426296D01*
X106600553Y-118362484D01*
X106611113Y-118293417D01*
X106657337Y-118241023D01*
X106691350Y-118226158D01*
X106813483Y-118193433D01*
X106813492Y-118193429D01*
X107027578Y-118093600D01*
X107221082Y-117958105D01*
X107388105Y-117791082D01*
X107523600Y-117597578D01*
X107623429Y-117383492D01*
X107623432Y-117383486D01*
X107680636Y-117170000D01*
X106783012Y-117170000D01*
X106815925Y-117112993D01*
X106850000Y-116985826D01*
X106850000Y-116920002D01*
X115995034Y-116920002D01*
X116014858Y-117146599D01*
X116014860Y-117146610D01*
X116073730Y-117366317D01*
X116073735Y-117366331D01*
X116169863Y-117572478D01*
X116220974Y-117645472D01*
X116817037Y-117049409D01*
X116834075Y-117112993D01*
X116899901Y-117227007D01*
X116992993Y-117320099D01*
X117107007Y-117385925D01*
X117170590Y-117402962D01*
X116574526Y-117999025D01*
X116647513Y-118050132D01*
X116647521Y-118050136D01*
X116853668Y-118146264D01*
X116853682Y-118146269D01*
X117073389Y-118205139D01*
X117073400Y-118205141D01*
X117206597Y-118216794D01*
X117271666Y-118242246D01*
X117300474Y-118282031D01*
X117318907Y-118250325D01*
X117381104Y-118218494D01*
X117393402Y-118216794D01*
X117526599Y-118205141D01*
X117526610Y-118205139D01*
X117746317Y-118146269D01*
X117746331Y-118146264D01*
X117952478Y-118050136D01*
X118025471Y-117999024D01*
X117429409Y-117402962D01*
X117492993Y-117385925D01*
X117607007Y-117320099D01*
X117700099Y-117227007D01*
X117765925Y-117112993D01*
X117782962Y-117049409D01*
X118379024Y-117645471D01*
X118430136Y-117572478D01*
X118526264Y-117366331D01*
X118526269Y-117366317D01*
X118585139Y-117146610D01*
X118585141Y-117146599D01*
X118604966Y-116920002D01*
X118604966Y-116919997D01*
X118585141Y-116693400D01*
X118585139Y-116693389D01*
X118526269Y-116473682D01*
X118526264Y-116473668D01*
X118430136Y-116267521D01*
X118430132Y-116267513D01*
X118379025Y-116194526D01*
X117782962Y-116790589D01*
X117765925Y-116727007D01*
X117700099Y-116612993D01*
X117607007Y-116519901D01*
X117492993Y-116454075D01*
X117429410Y-116437037D01*
X118025472Y-115840974D01*
X117952478Y-115789863D01*
X117746331Y-115693735D01*
X117746317Y-115693730D01*
X117526610Y-115634860D01*
X117526599Y-115634858D01*
X117300002Y-115615034D01*
X117299998Y-115615034D01*
X117073400Y-115634858D01*
X117073389Y-115634860D01*
X116853682Y-115693730D01*
X116853673Y-115693734D01*
X116647516Y-115789866D01*
X116647512Y-115789868D01*
X116574526Y-115840973D01*
X116574526Y-115840974D01*
X117170590Y-116437037D01*
X117107007Y-116454075D01*
X116992993Y-116519901D01*
X116899901Y-116612993D01*
X116834075Y-116727007D01*
X116817037Y-116790589D01*
X116220974Y-116194526D01*
X116220973Y-116194526D01*
X116169868Y-116267512D01*
X116169866Y-116267516D01*
X116073734Y-116473673D01*
X116073730Y-116473682D01*
X116014860Y-116693389D01*
X116014858Y-116693400D01*
X115995034Y-116919997D01*
X115995034Y-116920002D01*
X106850000Y-116920002D01*
X106850000Y-116854174D01*
X106815925Y-116727007D01*
X106783012Y-116670000D01*
X107680636Y-116670000D01*
X107680635Y-116669999D01*
X107623432Y-116456513D01*
X107623429Y-116456507D01*
X107523600Y-116242422D01*
X107523599Y-116242420D01*
X107388113Y-116048926D01*
X107388108Y-116048920D01*
X107221082Y-115881894D01*
X107027578Y-115746399D01*
X106813492Y-115646570D01*
X106813486Y-115646567D01*
X106600000Y-115589364D01*
X106600000Y-116486988D01*
X106542993Y-116454075D01*
X106415826Y-116420000D01*
X106284174Y-116420000D01*
X106157007Y-116454075D01*
X106100000Y-116486988D01*
X106100000Y-115589364D01*
X106099999Y-115589364D01*
X105886513Y-115646567D01*
X105886507Y-115646570D01*
X105672422Y-115746399D01*
X105672420Y-115746400D01*
X105478926Y-115881886D01*
X105478920Y-115881891D01*
X105311891Y-116048920D01*
X105311890Y-116048922D01*
X105181575Y-116235031D01*
X105126998Y-116278655D01*
X105057499Y-116285848D01*
X104995145Y-116254326D01*
X104978425Y-116235031D01*
X104848109Y-116048922D01*
X104848108Y-116048920D01*
X104681082Y-115881894D01*
X104487578Y-115746399D01*
X104273492Y-115646570D01*
X104273486Y-115646567D01*
X104060000Y-115589364D01*
X104060000Y-116486988D01*
X104002993Y-116454075D01*
X103875826Y-116420000D01*
X103744174Y-116420000D01*
X103617007Y-116454075D01*
X103560000Y-116486988D01*
X103560000Y-115589364D01*
X103559999Y-115589364D01*
X103346513Y-115646567D01*
X103346507Y-115646570D01*
X103132422Y-115746399D01*
X103132420Y-115746400D01*
X102938926Y-115881886D01*
X102938920Y-115881891D01*
X102771891Y-116048920D01*
X102771890Y-116048922D01*
X102641575Y-116235031D01*
X102586998Y-116278655D01*
X102517499Y-116285848D01*
X102455145Y-116254326D01*
X102438425Y-116235031D01*
X102308109Y-116048922D01*
X102308108Y-116048920D01*
X102141082Y-115881894D01*
X101947578Y-115746399D01*
X101733492Y-115646570D01*
X101733486Y-115646567D01*
X101520000Y-115589364D01*
X101520000Y-116486988D01*
X101462993Y-116454075D01*
X101335826Y-116420000D01*
X101204174Y-116420000D01*
X101077007Y-116454075D01*
X101020000Y-116486988D01*
X101020000Y-115589364D01*
X101019999Y-115589364D01*
X100806513Y-115646567D01*
X100806507Y-115646570D01*
X100592422Y-115746399D01*
X100592420Y-115746400D01*
X100398926Y-115881886D01*
X100398920Y-115881891D01*
X100231891Y-116048920D01*
X100231890Y-116048922D01*
X100101575Y-116235031D01*
X100046998Y-116278655D01*
X99977499Y-116285848D01*
X99915145Y-116254326D01*
X99898425Y-116235031D01*
X99768109Y-116048922D01*
X99768108Y-116048920D01*
X99601082Y-115881894D01*
X99407578Y-115746399D01*
X99193492Y-115646570D01*
X99193486Y-115646567D01*
X98980000Y-115589364D01*
X98980000Y-116486988D01*
X98922993Y-116454075D01*
X98795826Y-116420000D01*
X98664174Y-116420000D01*
X98537007Y-116454075D01*
X98480000Y-116486988D01*
X98480000Y-115589364D01*
X98479999Y-115589364D01*
X98266513Y-115646567D01*
X98266507Y-115646570D01*
X98052422Y-115746399D01*
X98052420Y-115746400D01*
X97858926Y-115881886D01*
X97858920Y-115881891D01*
X97691891Y-116048920D01*
X97691890Y-116048922D01*
X97561575Y-116235031D01*
X97506998Y-116278655D01*
X97437499Y-116285848D01*
X97375145Y-116254326D01*
X97358425Y-116235031D01*
X97228109Y-116048922D01*
X97228108Y-116048920D01*
X97061082Y-115881894D01*
X96867578Y-115746399D01*
X96653492Y-115646570D01*
X96653486Y-115646567D01*
X96440000Y-115589364D01*
X96440000Y-116486988D01*
X96382993Y-116454075D01*
X96255826Y-116420000D01*
X96124174Y-116420000D01*
X95997007Y-116454075D01*
X95940000Y-116486988D01*
X95940000Y-115589364D01*
X95939999Y-115589364D01*
X95726513Y-115646567D01*
X95726507Y-115646570D01*
X95512422Y-115746399D01*
X95512420Y-115746400D01*
X95318926Y-115881886D01*
X95196477Y-116004335D01*
X95135154Y-116037819D01*
X95065462Y-116032835D01*
X95009529Y-115990963D01*
X94992614Y-115959986D01*
X94943354Y-115827913D01*
X94943350Y-115827906D01*
X94857190Y-115712812D01*
X94857187Y-115712809D01*
X94742093Y-115626649D01*
X94742086Y-115626645D01*
X94607379Y-115576403D01*
X94607372Y-115576401D01*
X94547844Y-115570000D01*
X93900000Y-115570000D01*
X93900000Y-116486988D01*
X93842993Y-116454075D01*
X93715826Y-116420000D01*
X93584174Y-116420000D01*
X93457007Y-116454075D01*
X93400000Y-116486988D01*
X93400000Y-115570000D01*
X92752155Y-115570000D01*
X92692627Y-115576401D01*
X92692620Y-115576403D01*
X92557913Y-115626645D01*
X92557906Y-115626649D01*
X92442812Y-115712809D01*
X92442809Y-115712812D01*
X92356649Y-115827906D01*
X92356645Y-115827913D01*
X92306403Y-115962620D01*
X92306401Y-115962627D01*
X92300000Y-116022155D01*
X92300000Y-116670000D01*
X93216988Y-116670000D01*
X93184075Y-116727007D01*
X93150000Y-116854174D01*
X93150000Y-116985826D01*
X93184075Y-117112993D01*
X93216988Y-117170000D01*
X92300000Y-117170000D01*
X92300000Y-117817844D01*
X83142668Y-117817844D01*
X83258538Y-117755910D01*
X83410883Y-117630883D01*
X83535910Y-117478538D01*
X83595893Y-117366317D01*
X83628811Y-117304733D01*
X83628811Y-117304732D01*
X83628814Y-117304727D01*
X83686024Y-117116132D01*
X83705341Y-116920000D01*
X83686024Y-116723868D01*
X83628814Y-116535273D01*
X83628811Y-116535269D01*
X83628811Y-116535266D01*
X83535913Y-116361467D01*
X83535909Y-116361460D01*
X83410883Y-116209116D01*
X83258539Y-116084090D01*
X83258532Y-116084086D01*
X83084733Y-115991188D01*
X83084727Y-115991186D01*
X82896132Y-115933976D01*
X82896129Y-115933975D01*
X82700000Y-115914659D01*
X82503869Y-115933975D01*
X82404361Y-115964161D01*
X82368366Y-115969500D01*
X81674072Y-115969500D01*
X81607033Y-115949815D01*
X81561278Y-115897011D01*
X81551334Y-115827853D01*
X81580359Y-115764297D01*
X81586391Y-115757819D01*
X85278299Y-112065911D01*
X85278302Y-112065908D01*
X85382323Y-111910230D01*
X85448485Y-111750500D01*
X85453973Y-111737251D01*
X85490500Y-111553616D01*
X85490500Y-111331633D01*
X85495839Y-111295638D01*
X85498381Y-111287257D01*
X85526024Y-111196132D01*
X85545341Y-111000002D01*
X90155034Y-111000002D01*
X90174858Y-111226599D01*
X90174860Y-111226610D01*
X90233730Y-111446317D01*
X90233735Y-111446331D01*
X90329863Y-111652478D01*
X90380974Y-111725472D01*
X90977037Y-111129409D01*
X90994075Y-111192993D01*
X91059901Y-111307007D01*
X91152993Y-111400099D01*
X91267007Y-111465925D01*
X91330590Y-111482962D01*
X90734526Y-112079025D01*
X90807513Y-112130132D01*
X90807521Y-112130136D01*
X91013668Y-112226264D01*
X91013682Y-112226269D01*
X91233389Y-112285139D01*
X91233400Y-112285141D01*
X91459998Y-112304966D01*
X91460002Y-112304966D01*
X91686599Y-112285141D01*
X91686610Y-112285139D01*
X91906317Y-112226269D01*
X91906331Y-112226264D01*
X92112478Y-112130136D01*
X92185471Y-112079024D01*
X91589409Y-111482962D01*
X91652993Y-111465925D01*
X91767007Y-111400099D01*
X91860099Y-111307007D01*
X91925925Y-111192993D01*
X91942962Y-111129409D01*
X92539024Y-111725471D01*
X92590136Y-111652478D01*
X92686264Y-111446331D01*
X92686269Y-111446317D01*
X92745139Y-111226610D01*
X92745141Y-111226599D01*
X92756794Y-111093402D01*
X92782246Y-111028333D01*
X92820818Y-111000402D01*
X92938459Y-111000402D01*
X92969383Y-111017930D01*
X93001891Y-111079776D01*
X93003725Y-111092055D01*
X93013975Y-111196129D01*
X93013976Y-111196132D01*
X93061729Y-111353553D01*
X93071188Y-111384733D01*
X93164086Y-111558532D01*
X93164090Y-111558539D01*
X93289116Y-111710883D01*
X93441460Y-111835909D01*
X93441467Y-111835913D01*
X93615266Y-111928811D01*
X93615269Y-111928811D01*
X93615273Y-111928814D01*
X93803868Y-111986024D01*
X94000000Y-112005341D01*
X94196132Y-111986024D01*
X94384727Y-111928814D01*
X94384737Y-111928809D01*
X94558532Y-111835913D01*
X94558538Y-111835910D01*
X94710883Y-111710883D01*
X94835910Y-111558538D01*
X94895893Y-111446317D01*
X94928811Y-111384733D01*
X94928811Y-111384732D01*
X94928814Y-111384727D01*
X94986024Y-111196132D01*
X95005341Y-111000000D01*
X94986024Y-110803868D01*
X94928814Y-110615273D01*
X94928811Y-110615269D01*
X94928811Y-110615266D01*
X94835913Y-110441467D01*
X94835909Y-110441460D01*
X94710883Y-110289116D01*
X94558539Y-110164090D01*
X94558532Y-110164086D01*
X94384733Y-110071188D01*
X94384727Y-110071186D01*
X94196132Y-110013976D01*
X94196129Y-110013975D01*
X94000000Y-109994659D01*
X93803870Y-110013975D01*
X93615266Y-110071188D01*
X93441467Y-110164086D01*
X93441460Y-110164090D01*
X93289116Y-110289116D01*
X93164090Y-110441460D01*
X93164086Y-110441467D01*
X93071188Y-110615266D01*
X93013975Y-110803870D01*
X93003725Y-110907945D01*
X92977564Y-110972732D01*
X92938459Y-111000402D01*
X92820818Y-111000402D01*
X92822031Y-110999524D01*
X92790325Y-110981092D01*
X92758493Y-110918894D01*
X92756794Y-110906597D01*
X92745141Y-110773400D01*
X92745139Y-110773389D01*
X92686269Y-110553682D01*
X92686264Y-110553668D01*
X92590136Y-110347521D01*
X92590132Y-110347513D01*
X92539025Y-110274526D01*
X91942962Y-110870589D01*
X91925925Y-110807007D01*
X91860099Y-110692993D01*
X91767007Y-110599901D01*
X91652993Y-110534075D01*
X91589410Y-110517037D01*
X92185472Y-109920974D01*
X92112478Y-109869863D01*
X91906331Y-109773735D01*
X91906317Y-109773730D01*
X91686610Y-109714860D01*
X91686599Y-109714858D01*
X91460002Y-109695034D01*
X91459998Y-109695034D01*
X91233400Y-109714858D01*
X91233389Y-109714860D01*
X91013682Y-109773730D01*
X91013673Y-109773734D01*
X90807516Y-109869866D01*
X90807512Y-109869868D01*
X90734526Y-109920973D01*
X90734526Y-109920974D01*
X91330590Y-110517037D01*
X91267007Y-110534075D01*
X91152993Y-110599901D01*
X91059901Y-110692993D01*
X90994075Y-110807007D01*
X90977037Y-110870589D01*
X90380974Y-110274526D01*
X90380973Y-110274526D01*
X90329868Y-110347512D01*
X90329866Y-110347516D01*
X90233734Y-110553673D01*
X90233730Y-110553682D01*
X90174860Y-110773389D01*
X90174858Y-110773400D01*
X90155034Y-110999997D01*
X90155034Y-111000002D01*
X85545341Y-111000002D01*
X85545341Y-111000000D01*
X85526024Y-110803868D01*
X85495839Y-110704361D01*
X85490500Y-110668366D01*
X85490500Y-109905072D01*
X85510185Y-109838033D01*
X85526819Y-109817391D01*
X86357391Y-108986819D01*
X86418714Y-108953334D01*
X86445072Y-108950500D01*
X95465500Y-108950500D01*
X95532539Y-108970185D01*
X95578294Y-109022989D01*
X95589500Y-109074500D01*
X95589500Y-110668366D01*
X95584161Y-110704361D01*
X95553975Y-110803869D01*
X95534659Y-111000000D01*
X95553975Y-111196129D01*
X95553976Y-111196132D01*
X95601729Y-111353553D01*
X95611188Y-111384733D01*
X95704086Y-111558532D01*
X95704090Y-111558539D01*
X95829116Y-111710883D01*
X95981460Y-111835909D01*
X95981467Y-111835913D01*
X96155266Y-111928811D01*
X96155269Y-111928811D01*
X96155273Y-111928814D01*
X96343868Y-111986024D01*
X96540000Y-112005341D01*
X96736132Y-111986024D01*
X96924727Y-111928814D01*
X96924737Y-111928809D01*
X97098532Y-111835913D01*
X97098538Y-111835910D01*
X97250883Y-111710883D01*
X97375910Y-111558538D01*
X97435893Y-111446317D01*
X97468811Y-111384733D01*
X97468811Y-111384732D01*
X97468814Y-111384727D01*
X97526024Y-111196132D01*
X97545341Y-111000002D01*
X102155034Y-111000002D01*
X102174858Y-111226599D01*
X102174860Y-111226610D01*
X102233730Y-111446317D01*
X102233735Y-111446331D01*
X102329863Y-111652478D01*
X102380974Y-111725472D01*
X102977037Y-111129409D01*
X102994075Y-111192993D01*
X103059901Y-111307007D01*
X103152993Y-111400099D01*
X103267007Y-111465925D01*
X103330590Y-111482962D01*
X102734526Y-112079025D01*
X102807513Y-112130132D01*
X102807521Y-112130136D01*
X103013668Y-112226264D01*
X103013682Y-112226269D01*
X103233389Y-112285139D01*
X103233400Y-112285141D01*
X103459998Y-112304966D01*
X103460002Y-112304966D01*
X103686599Y-112285141D01*
X103686610Y-112285139D01*
X103906317Y-112226269D01*
X103906331Y-112226264D01*
X104112478Y-112130136D01*
X104185471Y-112079024D01*
X103589409Y-111482962D01*
X103652993Y-111465925D01*
X103767007Y-111400099D01*
X103860099Y-111307007D01*
X103925925Y-111192993D01*
X103942962Y-111129409D01*
X104539024Y-111725471D01*
X104590136Y-111652478D01*
X104686264Y-111446331D01*
X104686269Y-111446317D01*
X104745139Y-111226610D01*
X104745141Y-111226599D01*
X104756794Y-111093402D01*
X104782246Y-111028333D01*
X104820818Y-111000402D01*
X104938459Y-111000402D01*
X104969383Y-111017930D01*
X105001891Y-111079776D01*
X105003725Y-111092055D01*
X105013975Y-111196129D01*
X105013976Y-111196132D01*
X105061729Y-111353553D01*
X105071188Y-111384733D01*
X105164086Y-111558532D01*
X105164090Y-111558539D01*
X105289116Y-111710883D01*
X105441460Y-111835909D01*
X105441467Y-111835913D01*
X105615266Y-111928811D01*
X105615269Y-111928811D01*
X105615273Y-111928814D01*
X105803868Y-111986024D01*
X106000000Y-112005341D01*
X106196132Y-111986024D01*
X106384727Y-111928814D01*
X106384737Y-111928809D01*
X106558532Y-111835913D01*
X106558538Y-111835910D01*
X106710883Y-111710883D01*
X106835910Y-111558538D01*
X106895893Y-111446317D01*
X106928811Y-111384733D01*
X106928811Y-111384732D01*
X106928814Y-111384727D01*
X106986024Y-111196132D01*
X107005341Y-111000000D01*
X106986024Y-110803868D01*
X106928814Y-110615273D01*
X106928811Y-110615269D01*
X106928811Y-110615266D01*
X106835913Y-110441467D01*
X106835909Y-110441460D01*
X106710883Y-110289116D01*
X106558539Y-110164090D01*
X106558532Y-110164086D01*
X106384733Y-110071188D01*
X106384727Y-110071186D01*
X106196132Y-110013976D01*
X106196129Y-110013975D01*
X106000000Y-109994659D01*
X105803870Y-110013975D01*
X105615266Y-110071188D01*
X105441467Y-110164086D01*
X105441460Y-110164090D01*
X105289116Y-110289116D01*
X105164090Y-110441460D01*
X105164086Y-110441467D01*
X105071188Y-110615266D01*
X105013975Y-110803870D01*
X105003725Y-110907945D01*
X104977564Y-110972732D01*
X104938459Y-111000402D01*
X104820818Y-111000402D01*
X104822031Y-110999524D01*
X104790325Y-110981092D01*
X104758493Y-110918894D01*
X104756794Y-110906597D01*
X104745141Y-110773400D01*
X104745139Y-110773389D01*
X104686269Y-110553682D01*
X104686264Y-110553668D01*
X104590136Y-110347521D01*
X104590132Y-110347513D01*
X104539025Y-110274526D01*
X103942962Y-110870589D01*
X103925925Y-110807007D01*
X103860099Y-110692993D01*
X103767007Y-110599901D01*
X103652993Y-110534075D01*
X103589410Y-110517037D01*
X104185472Y-109920974D01*
X104112478Y-109869863D01*
X103906331Y-109773735D01*
X103906317Y-109773730D01*
X103686610Y-109714860D01*
X103686599Y-109714858D01*
X103460002Y-109695034D01*
X103459998Y-109695034D01*
X103233400Y-109714858D01*
X103233389Y-109714860D01*
X103013682Y-109773730D01*
X103013673Y-109773734D01*
X102807516Y-109869866D01*
X102807512Y-109869868D01*
X102734526Y-109920973D01*
X102734526Y-109920974D01*
X103330590Y-110517037D01*
X103267007Y-110534075D01*
X103152993Y-110599901D01*
X103059901Y-110692993D01*
X102994075Y-110807007D01*
X102977037Y-110870589D01*
X102380973Y-110274526D01*
X102329868Y-110347512D01*
X102329866Y-110347516D01*
X102233734Y-110553673D01*
X102233730Y-110553682D01*
X102174860Y-110773389D01*
X102174858Y-110773400D01*
X102155034Y-110999997D01*
X102155034Y-111000002D01*
X97545341Y-111000002D01*
X97545341Y-111000000D01*
X97526024Y-110803868D01*
X97495839Y-110704361D01*
X97490500Y-110668366D01*
X97490500Y-109074500D01*
X97510185Y-109007461D01*
X97562989Y-108961706D01*
X97614500Y-108950500D01*
X107465500Y-108950500D01*
X107532539Y-108970185D01*
X107578294Y-109022989D01*
X107589500Y-109074500D01*
X107589500Y-110668366D01*
X107584161Y-110704361D01*
X107553975Y-110803869D01*
X107534659Y-111000000D01*
X107553975Y-111196129D01*
X107553976Y-111196132D01*
X107601729Y-111353553D01*
X107611188Y-111384733D01*
X107704086Y-111558532D01*
X107704090Y-111558539D01*
X107829116Y-111710883D01*
X107981460Y-111835909D01*
X107981467Y-111835913D01*
X108155266Y-111928811D01*
X108155269Y-111928811D01*
X108155273Y-111928814D01*
X108343868Y-111986024D01*
X108540000Y-112005341D01*
X108736132Y-111986024D01*
X108924727Y-111928814D01*
X108924737Y-111928809D01*
X109098532Y-111835913D01*
X109098538Y-111835910D01*
X109250883Y-111710883D01*
X109375910Y-111558538D01*
X109435893Y-111446317D01*
X109468811Y-111384733D01*
X109468811Y-111384732D01*
X109468814Y-111384727D01*
X109526024Y-111196132D01*
X109545341Y-111000002D01*
X114155034Y-111000002D01*
X114174858Y-111226599D01*
X114174860Y-111226610D01*
X114233730Y-111446317D01*
X114233735Y-111446331D01*
X114329863Y-111652478D01*
X114380974Y-111725472D01*
X114977037Y-111129409D01*
X114994075Y-111192993D01*
X115059901Y-111307007D01*
X115152993Y-111400099D01*
X115267007Y-111465925D01*
X115330590Y-111482962D01*
X114734526Y-112079025D01*
X114807513Y-112130132D01*
X114807521Y-112130136D01*
X115013668Y-112226264D01*
X115013682Y-112226269D01*
X115233389Y-112285139D01*
X115233400Y-112285141D01*
X115459998Y-112304966D01*
X115460002Y-112304966D01*
X115686599Y-112285141D01*
X115686610Y-112285139D01*
X115906317Y-112226269D01*
X115906331Y-112226264D01*
X116112478Y-112130136D01*
X116185471Y-112079024D01*
X115589409Y-111482962D01*
X115652993Y-111465925D01*
X115767007Y-111400099D01*
X115860099Y-111307007D01*
X115925925Y-111192993D01*
X115942962Y-111129409D01*
X116539024Y-111725471D01*
X116590136Y-111652478D01*
X116686264Y-111446331D01*
X116686269Y-111446317D01*
X116745139Y-111226610D01*
X116745141Y-111226599D01*
X116756794Y-111093402D01*
X116782246Y-111028333D01*
X116820818Y-111000402D01*
X116938459Y-111000402D01*
X116969383Y-111017930D01*
X117001891Y-111079776D01*
X117003725Y-111092055D01*
X117013975Y-111196129D01*
X117013976Y-111196132D01*
X117061729Y-111353553D01*
X117071188Y-111384733D01*
X117164086Y-111558532D01*
X117164090Y-111558539D01*
X117289116Y-111710883D01*
X117441460Y-111835909D01*
X117441467Y-111835913D01*
X117615266Y-111928811D01*
X117615269Y-111928811D01*
X117615273Y-111928814D01*
X117803868Y-111986024D01*
X118000000Y-112005341D01*
X118196132Y-111986024D01*
X118384727Y-111928814D01*
X118384737Y-111928809D01*
X118558532Y-111835913D01*
X118558538Y-111835910D01*
X118710883Y-111710883D01*
X118835910Y-111558538D01*
X118895893Y-111446317D01*
X118928811Y-111384733D01*
X118928811Y-111384732D01*
X118928814Y-111384727D01*
X118986024Y-111196132D01*
X119005341Y-111000000D01*
X118986024Y-110803868D01*
X118928814Y-110615273D01*
X118928811Y-110615269D01*
X118928811Y-110615266D01*
X118835913Y-110441467D01*
X118835909Y-110441460D01*
X118710883Y-110289116D01*
X118558539Y-110164090D01*
X118558532Y-110164086D01*
X118384733Y-110071188D01*
X118384727Y-110071186D01*
X118196132Y-110013976D01*
X118196129Y-110013975D01*
X118000000Y-109994659D01*
X117803870Y-110013975D01*
X117615266Y-110071188D01*
X117441467Y-110164086D01*
X117441460Y-110164090D01*
X117289116Y-110289116D01*
X117164090Y-110441460D01*
X117164086Y-110441467D01*
X117071188Y-110615266D01*
X117013975Y-110803870D01*
X117003725Y-110907945D01*
X116977564Y-110972732D01*
X116938459Y-111000402D01*
X116820818Y-111000402D01*
X116822031Y-110999524D01*
X116790325Y-110981092D01*
X116758493Y-110918894D01*
X116756794Y-110906597D01*
X116745141Y-110773400D01*
X116745139Y-110773389D01*
X116686269Y-110553682D01*
X116686264Y-110553668D01*
X116590136Y-110347521D01*
X116590132Y-110347513D01*
X116539025Y-110274526D01*
X115942962Y-110870589D01*
X115925925Y-110807007D01*
X115860099Y-110692993D01*
X115767007Y-110599901D01*
X115652993Y-110534075D01*
X115589410Y-110517037D01*
X116185472Y-109920974D01*
X116112478Y-109869863D01*
X115906331Y-109773735D01*
X115906317Y-109773730D01*
X115686610Y-109714860D01*
X115686599Y-109714858D01*
X115460002Y-109695034D01*
X115459998Y-109695034D01*
X115233400Y-109714858D01*
X115233389Y-109714860D01*
X115013682Y-109773730D01*
X115013673Y-109773734D01*
X114807516Y-109869866D01*
X114807512Y-109869868D01*
X114734526Y-109920973D01*
X114734526Y-109920974D01*
X115330590Y-110517037D01*
X115267007Y-110534075D01*
X115152993Y-110599901D01*
X115059901Y-110692993D01*
X114994075Y-110807007D01*
X114977037Y-110870589D01*
X114380973Y-110274526D01*
X114329868Y-110347512D01*
X114329866Y-110347516D01*
X114233734Y-110553673D01*
X114233730Y-110553682D01*
X114174860Y-110773389D01*
X114174858Y-110773400D01*
X114155034Y-110999997D01*
X114155034Y-111000002D01*
X109545341Y-111000002D01*
X109545341Y-111000000D01*
X109526024Y-110803868D01*
X109495839Y-110704361D01*
X109490500Y-110668366D01*
X109490500Y-109074500D01*
X109510185Y-109007461D01*
X109562989Y-108961706D01*
X109614500Y-108950500D01*
X119054928Y-108950500D01*
X119121967Y-108970185D01*
X119142609Y-108986819D01*
X119553181Y-109397391D01*
X119586666Y-109458714D01*
X119589500Y-109485072D01*
X119589500Y-110668366D01*
X119584161Y-110704361D01*
X119553975Y-110803869D01*
X119534659Y-111000000D01*
X119553975Y-111196130D01*
X119584161Y-111295638D01*
X119589500Y-111331633D01*
X119589500Y-120014928D01*
X119569815Y-120081967D01*
X119553181Y-120102609D01*
X118642609Y-121013181D01*
X118581286Y-121046666D01*
X118554928Y-121049500D01*
X117631634Y-121049500D01*
X117595639Y-121044161D01*
X117496130Y-121013975D01*
X117300000Y-120994659D01*
X117103870Y-121013975D01*
X116915266Y-121071188D01*
X116741467Y-121164086D01*
X116741460Y-121164090D01*
X116589116Y-121289116D01*
X116464090Y-121441460D01*
X116464086Y-121441467D01*
X116371188Y-121615266D01*
X116313975Y-121803870D01*
X116294659Y-122000000D01*
X116313975Y-122196129D01*
X116313976Y-122196132D01*
X116361729Y-122353553D01*
X116371188Y-122384733D01*
X116464086Y-122558532D01*
X116464090Y-122558539D01*
X116589116Y-122710883D01*
X116741460Y-122835909D01*
X116741467Y-122835913D01*
X116915266Y-122928811D01*
X116915269Y-122928811D01*
X116915273Y-122928814D01*
X117103868Y-122986024D01*
X117300000Y-123005341D01*
X117496132Y-122986024D01*
X117558636Y-122967063D01*
X117595639Y-122955839D01*
X117631634Y-122950500D01*
X119093619Y-122950500D01*
X119166299Y-122936042D01*
X119202640Y-122928814D01*
X119277251Y-122913973D01*
X119364858Y-122877685D01*
X119450230Y-122842323D01*
X119605908Y-122738302D01*
X121278302Y-121065908D01*
X121382323Y-120910230D01*
X121453973Y-120737250D01*
X121490500Y-120553617D01*
X121490500Y-120366383D01*
X121490500Y-111331633D01*
X121495839Y-111295638D01*
X121498381Y-111287257D01*
X121526024Y-111196132D01*
X121545341Y-111000000D01*
X121526024Y-110803868D01*
X121495839Y-110704361D01*
X121490500Y-110668366D01*
X121490500Y-108946383D01*
X121490499Y-108946379D01*
X121453974Y-108762756D01*
X121453973Y-108762749D01*
X121382322Y-108589769D01*
X121382321Y-108589768D01*
X121382318Y-108589762D01*
X121278303Y-108434093D01*
X121278302Y-108434092D01*
X121145908Y-108301698D01*
X120105911Y-107261700D01*
X120105907Y-107261697D01*
X119950236Y-107157680D01*
X119950227Y-107157675D01*
X119848903Y-107115706D01*
X119848901Y-107115705D01*
X119777251Y-107086027D01*
X119777247Y-107086026D01*
X119777243Y-107086024D01*
X119685433Y-107067763D01*
X119593620Y-107049500D01*
X119593617Y-107049500D01*
X119593616Y-107049500D01*
X109974500Y-107049500D01*
X109907461Y-107029815D01*
X109861706Y-106977011D01*
X109850500Y-106925500D01*
X109850500Y-101009133D01*
X109855839Y-100973138D01*
X109858381Y-100964757D01*
X109886024Y-100873632D01*
X109905341Y-100677500D01*
X109886024Y-100481368D01*
X109828814Y-100292773D01*
X109828811Y-100292769D01*
X109828811Y-100292766D01*
X109735913Y-100118967D01*
X109735909Y-100118960D01*
X109610883Y-99966616D01*
X109458539Y-99841590D01*
X109458532Y-99841586D01*
X109284733Y-99748688D01*
X109284727Y-99748686D01*
X109096132Y-99691476D01*
X109096129Y-99691475D01*
X108900000Y-99672159D01*
X108703870Y-99691475D01*
X108515266Y-99748688D01*
X108341467Y-99841586D01*
X108341460Y-99841590D01*
X108189116Y-99966616D01*
X108064090Y-100118960D01*
X108064086Y-100118967D01*
X107971188Y-100292766D01*
X107913975Y-100481370D01*
X107894659Y-100677500D01*
X107913975Y-100873630D01*
X107944161Y-100973138D01*
X107949500Y-101009133D01*
X107949500Y-106925500D01*
X107929815Y-106992539D01*
X107877011Y-107038294D01*
X107825500Y-107049500D01*
X85906378Y-107049500D01*
X85722756Y-107086024D01*
X85722752Y-107086026D01*
X85722750Y-107086026D01*
X85722749Y-107086027D01*
X85651099Y-107115705D01*
X85651097Y-107115706D01*
X85549772Y-107157675D01*
X85549763Y-107157680D01*
X85394092Y-107261697D01*
X85394088Y-107261700D01*
X83801700Y-108854088D01*
X83801697Y-108854092D01*
X83697680Y-109009763D01*
X83697675Y-109009772D01*
X83655705Y-109111096D01*
X83655706Y-109111097D01*
X83626026Y-109182752D01*
X83626024Y-109182756D01*
X83589500Y-109366379D01*
X83589500Y-110668366D01*
X83584161Y-110704361D01*
X83553975Y-110803869D01*
X83534659Y-111000000D01*
X83539771Y-111051906D01*
X83526752Y-111120552D01*
X83504049Y-111151740D01*
X83126916Y-111528873D01*
X83065593Y-111562358D01*
X82995901Y-111557374D01*
X82939968Y-111515502D01*
X82915551Y-111450038D01*
X82928112Y-111391034D01*
X82926482Y-111390359D01*
X82928809Y-111384739D01*
X82928810Y-111384732D01*
X82928814Y-111384727D01*
X82986024Y-111196132D01*
X83005341Y-111000000D01*
X82986024Y-110803868D01*
X82928814Y-110615273D01*
X82928811Y-110615269D01*
X82928811Y-110615266D01*
X82835913Y-110441467D01*
X82835909Y-110441460D01*
X82710883Y-110289116D01*
X82558539Y-110164090D01*
X82558532Y-110164086D01*
X82384733Y-110071188D01*
X82384727Y-110071186D01*
X82196132Y-110013976D01*
X82196129Y-110013975D01*
X82000000Y-109994659D01*
X81803870Y-110013975D01*
X81615266Y-110071188D01*
X81441467Y-110164086D01*
X81441460Y-110164090D01*
X81289116Y-110289116D01*
X81164090Y-110441460D01*
X81164086Y-110441467D01*
X81071188Y-110615266D01*
X81013975Y-110803870D01*
X81003725Y-110907945D01*
X80977564Y-110972732D01*
X80938459Y-111000402D01*
X80969383Y-111017930D01*
X81001891Y-111079776D01*
X81003725Y-111092055D01*
X81013975Y-111196129D01*
X81013976Y-111196132D01*
X81061729Y-111353553D01*
X81071188Y-111384733D01*
X81164086Y-111558532D01*
X81164090Y-111558539D01*
X81289116Y-111710883D01*
X81441460Y-111835909D01*
X81441467Y-111835913D01*
X81615266Y-111928811D01*
X81615269Y-111928811D01*
X81615273Y-111928814D01*
X81803868Y-111986024D01*
X82000000Y-112005341D01*
X82196132Y-111986024D01*
X82384727Y-111928814D01*
X82384732Y-111928810D01*
X82384739Y-111928809D01*
X82390359Y-111926482D01*
X82391049Y-111928149D01*
X82451123Y-111915632D01*
X82516371Y-111940622D01*
X82557750Y-111996921D01*
X82562123Y-112066654D01*
X82528875Y-112126914D01*
X82394091Y-112261699D01*
X80394092Y-114261698D01*
X79761700Y-114894088D01*
X79761697Y-114894092D01*
X79657680Y-115049763D01*
X79657673Y-115049776D01*
X79639515Y-115093616D01*
X79586028Y-115222744D01*
X79586025Y-115222756D01*
X79549500Y-115406379D01*
X79549500Y-125793621D01*
X70000000Y-125793621D01*
X70000000Y-111000002D01*
X78155034Y-111000002D01*
X78174858Y-111226599D01*
X78174860Y-111226610D01*
X78233730Y-111446317D01*
X78233735Y-111446331D01*
X78329863Y-111652478D01*
X78380974Y-111725472D01*
X78977037Y-111129409D01*
X78994075Y-111192993D01*
X79059901Y-111307007D01*
X79152993Y-111400099D01*
X79267007Y-111465925D01*
X79330590Y-111482962D01*
X78734526Y-112079025D01*
X78807513Y-112130132D01*
X78807521Y-112130136D01*
X79013668Y-112226264D01*
X79013682Y-112226269D01*
X79233389Y-112285139D01*
X79233400Y-112285141D01*
X79459998Y-112304966D01*
X79460002Y-112304966D01*
X79686599Y-112285141D01*
X79686610Y-112285139D01*
X79906317Y-112226269D01*
X79906331Y-112226264D01*
X80112478Y-112130136D01*
X80185471Y-112079024D01*
X79589409Y-111482962D01*
X79652993Y-111465925D01*
X79767007Y-111400099D01*
X79860099Y-111307007D01*
X79925925Y-111192993D01*
X79942962Y-111129409D01*
X80539024Y-111725471D01*
X80590136Y-111652478D01*
X80686264Y-111446331D01*
X80686269Y-111446317D01*
X80745139Y-111226610D01*
X80745141Y-111226599D01*
X80756794Y-111093402D01*
X80782246Y-111028333D01*
X80822031Y-110999524D01*
X80790325Y-110981092D01*
X80758493Y-110918894D01*
X80756794Y-110906597D01*
X80745141Y-110773400D01*
X80745139Y-110773389D01*
X80686269Y-110553682D01*
X80686264Y-110553668D01*
X80590136Y-110347521D01*
X80590132Y-110347513D01*
X80539025Y-110274526D01*
X79942962Y-110870589D01*
X79925925Y-110807007D01*
X79860099Y-110692993D01*
X79767007Y-110599901D01*
X79652993Y-110534075D01*
X79589410Y-110517037D01*
X80185472Y-109920974D01*
X80112478Y-109869863D01*
X79906331Y-109773735D01*
X79906317Y-109773730D01*
X79686610Y-109714860D01*
X79686599Y-109714858D01*
X79460002Y-109695034D01*
X79459998Y-109695034D01*
X79233400Y-109714858D01*
X79233389Y-109714860D01*
X79013682Y-109773730D01*
X79013673Y-109773734D01*
X78807516Y-109869866D01*
X78807512Y-109869868D01*
X78734526Y-109920973D01*
X78734526Y-109920974D01*
X79330590Y-110517037D01*
X79267007Y-110534075D01*
X79152993Y-110599901D01*
X79059901Y-110692993D01*
X78994075Y-110807007D01*
X78977037Y-110870589D01*
X78380974Y-110274526D01*
X78380973Y-110274526D01*
X78329868Y-110347512D01*
X78329866Y-110347516D01*
X78233734Y-110553673D01*
X78233730Y-110553682D01*
X78174860Y-110773389D01*
X78174858Y-110773400D01*
X78155034Y-110999997D01*
X78155034Y-111000002D01*
X70000000Y-111000002D01*
X70000000Y-90000710D01*
X70000004Y-90000000D01*
X71294922Y-90000000D01*
X71315219Y-90387287D01*
X71375886Y-90770323D01*
X71375887Y-90770330D01*
X71476262Y-91144936D01*
X71615244Y-91506994D01*
X71791310Y-91852543D01*
X72002531Y-92177793D01*
X72211095Y-92435350D01*
X72211096Y-92435350D01*
X73705748Y-90940698D01*
X73779588Y-91042330D01*
X73957670Y-91220412D01*
X74059300Y-91294251D01*
X72564648Y-92788903D01*
X72564649Y-92788904D01*
X72822206Y-92997468D01*
X73147456Y-93208689D01*
X73493005Y-93384755D01*
X73855063Y-93523737D01*
X74229669Y-93624112D01*
X74229676Y-93624113D01*
X74612712Y-93684780D01*
X74999999Y-93705078D01*
X75000001Y-93705078D01*
X75387287Y-93684780D01*
X75770323Y-93624113D01*
X75770330Y-93624112D01*
X76144936Y-93523737D01*
X76506994Y-93384755D01*
X76852543Y-93208689D01*
X77177783Y-92997476D01*
X77177785Y-92997475D01*
X77435349Y-92788902D01*
X75940698Y-91294251D01*
X76042330Y-91220412D01*
X76220412Y-91042330D01*
X76294251Y-90940698D01*
X77788902Y-92435349D01*
X77997475Y-92177785D01*
X77997476Y-92177783D01*
X78208689Y-91852543D01*
X78384755Y-91506994D01*
X78523737Y-91144936D01*
X78624112Y-90770330D01*
X78624113Y-90770323D01*
X78684780Y-90387287D01*
X78705078Y-90000000D01*
X78705078Y-89999999D01*
X78684780Y-89612712D01*
X78624113Y-89229676D01*
X78624112Y-89229669D01*
X78623790Y-89228469D01*
X88199500Y-89228469D01*
X88213526Y-89298982D01*
X88215877Y-89325968D01*
X88215647Y-89336152D01*
X88248412Y-89522720D01*
X88248439Y-89522877D01*
X88282820Y-89720141D01*
X88282833Y-89720301D01*
X88282848Y-89720299D01*
X88297686Y-89806083D01*
X88299500Y-89827217D01*
X88299500Y-90843620D01*
X88333423Y-91014164D01*
X88336026Y-91027249D01*
X88336027Y-91027253D01*
X88407673Y-91200223D01*
X88407680Y-91200236D01*
X88511697Y-91355907D01*
X88511700Y-91355911D01*
X88761698Y-91605908D01*
X88894092Y-91738302D01*
X88894093Y-91738303D01*
X89049762Y-91842318D01*
X89049771Y-91842323D01*
X89081718Y-91855556D01*
X89222749Y-91913973D01*
X89254370Y-91920262D01*
X89314517Y-91932227D01*
X89314550Y-91932232D01*
X89314566Y-91932236D01*
X89375777Y-91944412D01*
X89406382Y-91950500D01*
X89406383Y-91950500D01*
X89406384Y-91950500D01*
X102175500Y-91950500D01*
X102242539Y-91970185D01*
X102288294Y-92022989D01*
X102299500Y-92074500D01*
X102299500Y-93843621D01*
X102336024Y-94027242D01*
X102336027Y-94027251D01*
X102407673Y-94200223D01*
X102407680Y-94200236D01*
X102511697Y-94355907D01*
X102511700Y-94355911D01*
X102761698Y-94605908D01*
X107031588Y-98875799D01*
X107031592Y-98875802D01*
X107187263Y-98979819D01*
X107187265Y-98979820D01*
X107187270Y-98979823D01*
X107288599Y-99021794D01*
X107360249Y-99051473D01*
X107543879Y-99087999D01*
X107543883Y-99088000D01*
X107543884Y-99088000D01*
X108568366Y-99088000D01*
X108604361Y-99093339D01*
X108658305Y-99109702D01*
X108703868Y-99123524D01*
X108900000Y-99142841D01*
X109096132Y-99123524D01*
X109284727Y-99066314D01*
X109312495Y-99051472D01*
X109446540Y-98979823D01*
X109458538Y-98973410D01*
X109610883Y-98848383D01*
X109735910Y-98696038D01*
X109828814Y-98522227D01*
X109886024Y-98333632D01*
X109905341Y-98137500D01*
X109886024Y-97941368D01*
X109828814Y-97752773D01*
X109828811Y-97752769D01*
X109828811Y-97752766D01*
X109735913Y-97578967D01*
X109735909Y-97578960D01*
X109610883Y-97426616D01*
X109458539Y-97301590D01*
X109458532Y-97301586D01*
X109284733Y-97208688D01*
X109284727Y-97208686D01*
X109096132Y-97151476D01*
X109096129Y-97151475D01*
X108992055Y-97141225D01*
X108927267Y-97115064D01*
X108899596Y-97075959D01*
X108882069Y-97106883D01*
X108820223Y-97139391D01*
X108807945Y-97141225D01*
X108703868Y-97151475D01*
X108604361Y-97181661D01*
X108568366Y-97187000D01*
X108082572Y-97187000D01*
X108015533Y-97167315D01*
X107994891Y-97150681D01*
X106441712Y-95597502D01*
X107595034Y-95597502D01*
X107614858Y-95824099D01*
X107614860Y-95824110D01*
X107673730Y-96043817D01*
X107673735Y-96043831D01*
X107769863Y-96249978D01*
X107820974Y-96322972D01*
X108417037Y-95726909D01*
X108434075Y-95790493D01*
X108499901Y-95904507D01*
X108592993Y-95997599D01*
X108707007Y-96063425D01*
X108770590Y-96080462D01*
X108174526Y-96676525D01*
X108247513Y-96727632D01*
X108247521Y-96727636D01*
X108453668Y-96823764D01*
X108453682Y-96823769D01*
X108673389Y-96882639D01*
X108673400Y-96882641D01*
X108806597Y-96894294D01*
X108871666Y-96919746D01*
X108900474Y-96959531D01*
X108918907Y-96927825D01*
X108981104Y-96895994D01*
X108993402Y-96894294D01*
X109126599Y-96882641D01*
X109126610Y-96882639D01*
X109346317Y-96823769D01*
X109346331Y-96823764D01*
X109552478Y-96727636D01*
X109625471Y-96676524D01*
X109029409Y-96080462D01*
X109092993Y-96063425D01*
X109207007Y-95997599D01*
X109300099Y-95904507D01*
X109365925Y-95790493D01*
X109382962Y-95726909D01*
X109979024Y-96322971D01*
X110030136Y-96249978D01*
X110126264Y-96043831D01*
X110126269Y-96043817D01*
X110185139Y-95824110D01*
X110185141Y-95824099D01*
X110204966Y-95597502D01*
X110204966Y-95597497D01*
X110185141Y-95370900D01*
X110185139Y-95370889D01*
X110126269Y-95151182D01*
X110126264Y-95151168D01*
X110030136Y-94945021D01*
X110030132Y-94945013D01*
X109979025Y-94872026D01*
X109382962Y-95468089D01*
X109365925Y-95404507D01*
X109300099Y-95290493D01*
X109207007Y-95197401D01*
X109092993Y-95131575D01*
X109029410Y-95114537D01*
X109625472Y-94518474D01*
X109552478Y-94467363D01*
X109346331Y-94371235D01*
X109346317Y-94371230D01*
X109126610Y-94312360D01*
X109126599Y-94312358D01*
X108900002Y-94292534D01*
X108899998Y-94292534D01*
X108673400Y-94312358D01*
X108673389Y-94312360D01*
X108453682Y-94371230D01*
X108453673Y-94371234D01*
X108247516Y-94467366D01*
X108247512Y-94467368D01*
X108174526Y-94518473D01*
X108174526Y-94518474D01*
X108770590Y-95114537D01*
X108707007Y-95131575D01*
X108592993Y-95197401D01*
X108499901Y-95290493D01*
X108434075Y-95404507D01*
X108417037Y-95468089D01*
X107820974Y-94872026D01*
X107820973Y-94872026D01*
X107769868Y-94945012D01*
X107769866Y-94945016D01*
X107673734Y-95151173D01*
X107673730Y-95151182D01*
X107614860Y-95370889D01*
X107614858Y-95370900D01*
X107595034Y-95597497D01*
X107595034Y-95597502D01*
X106441712Y-95597502D01*
X104236819Y-93392609D01*
X104203334Y-93331286D01*
X104200500Y-93304928D01*
X104200500Y-90845593D01*
X104204459Y-90814510D01*
X104205796Y-90809349D01*
X104215165Y-90645265D01*
X104215164Y-90645264D01*
X104215306Y-90642794D01*
X104225159Y-90471750D01*
X104225158Y-90471749D01*
X104235143Y-90299900D01*
X104235164Y-90299841D01*
X104235147Y-90299840D01*
X104245141Y-90129331D01*
X104245149Y-90129331D01*
X104245144Y-90129271D01*
X104255142Y-89960214D01*
X104255298Y-89957577D01*
X104255302Y-89957514D01*
X104260280Y-89874077D01*
X104265052Y-89794079D01*
X104265129Y-89792815D01*
X104275129Y-89626699D01*
X104275128Y-89626698D01*
X104285122Y-89462197D01*
X104285121Y-89462196D01*
X104295108Y-89299306D01*
X104295117Y-89299306D01*
X104295112Y-89299238D01*
X104296369Y-89278922D01*
X104298519Y-89244163D01*
X104300319Y-89230296D01*
X104300500Y-89228469D01*
X104699500Y-89228469D01*
X104739868Y-89431412D01*
X104739870Y-89431420D01*
X104807209Y-89593991D01*
X104819059Y-89622598D01*
X104835737Y-89647558D01*
X104934024Y-89794657D01*
X105080342Y-89940975D01*
X105080345Y-89940977D01*
X105252402Y-90055941D01*
X105443580Y-90135130D01*
X105632187Y-90172646D01*
X105646530Y-90175499D01*
X105646534Y-90175500D01*
X105646535Y-90175500D01*
X105853466Y-90175500D01*
X105853467Y-90175499D01*
X106056420Y-90135130D01*
X106247598Y-90055941D01*
X106419655Y-89940977D01*
X106565977Y-89794655D01*
X106680941Y-89622598D01*
X106760130Y-89431420D01*
X106800499Y-89228469D01*
X107199500Y-89228469D01*
X107239868Y-89431412D01*
X107239870Y-89431420D01*
X107307209Y-89593991D01*
X107319059Y-89622598D01*
X107335737Y-89647558D01*
X107434024Y-89794657D01*
X107580342Y-89940975D01*
X107580345Y-89940977D01*
X107752402Y-90055941D01*
X107943580Y-90135130D01*
X108132187Y-90172646D01*
X108146530Y-90175499D01*
X108146534Y-90175500D01*
X108146535Y-90175500D01*
X108353466Y-90175500D01*
X108353467Y-90175499D01*
X108556420Y-90135130D01*
X108747598Y-90055941D01*
X108919655Y-89940977D01*
X109065977Y-89794655D01*
X109076258Y-89779269D01*
X109699500Y-89779269D01*
X109702353Y-89809699D01*
X109702353Y-89809701D01*
X109742874Y-89925500D01*
X109747207Y-89937882D01*
X109827850Y-90047150D01*
X109937118Y-90127793D01*
X109958089Y-90135131D01*
X110065299Y-90172646D01*
X110095730Y-90175500D01*
X110095734Y-90175500D01*
X111404270Y-90175500D01*
X111434699Y-90172646D01*
X111434701Y-90172646D01*
X111498790Y-90150219D01*
X111562882Y-90127793D01*
X111672150Y-90047150D01*
X111706948Y-90000000D01*
X121294922Y-90000000D01*
X121315219Y-90387287D01*
X121375886Y-90770323D01*
X121375887Y-90770330D01*
X121476262Y-91144936D01*
X121615244Y-91506994D01*
X121791310Y-91852543D01*
X122002531Y-92177793D01*
X122211095Y-92435350D01*
X122211096Y-92435350D01*
X123705748Y-90940698D01*
X123779588Y-91042330D01*
X123957670Y-91220412D01*
X124059300Y-91294251D01*
X122564648Y-92788903D01*
X122564649Y-92788904D01*
X122822206Y-92997468D01*
X123147456Y-93208689D01*
X123493005Y-93384755D01*
X123855063Y-93523737D01*
X124229669Y-93624112D01*
X124229676Y-93624113D01*
X124612712Y-93684780D01*
X124999999Y-93705078D01*
X125000001Y-93705078D01*
X125387287Y-93684780D01*
X125770323Y-93624113D01*
X125770330Y-93624112D01*
X126144936Y-93523737D01*
X126506994Y-93384755D01*
X126852543Y-93208689D01*
X127177783Y-92997476D01*
X127177785Y-92997475D01*
X127435349Y-92788902D01*
X125940698Y-91294251D01*
X126042330Y-91220412D01*
X126220412Y-91042330D01*
X126294251Y-90940698D01*
X127788902Y-92435349D01*
X127997475Y-92177785D01*
X127997476Y-92177783D01*
X128208689Y-91852543D01*
X128384755Y-91506994D01*
X128523737Y-91144936D01*
X128624112Y-90770330D01*
X128624113Y-90770323D01*
X128684780Y-90387287D01*
X128705078Y-90000000D01*
X128705078Y-89999999D01*
X128684780Y-89612712D01*
X128624113Y-89229676D01*
X128624112Y-89229669D01*
X128523737Y-88855063D01*
X128384755Y-88493005D01*
X128208689Y-88147456D01*
X127997468Y-87822206D01*
X127788904Y-87564649D01*
X127788903Y-87564648D01*
X126294251Y-89059300D01*
X126220412Y-88957670D01*
X126042330Y-88779588D01*
X125940698Y-88705748D01*
X127435350Y-87211096D01*
X127435350Y-87211095D01*
X127177793Y-87002531D01*
X126852543Y-86791310D01*
X126506994Y-86615244D01*
X126144936Y-86476262D01*
X125770330Y-86375887D01*
X125770323Y-86375886D01*
X125387287Y-86315219D01*
X125000001Y-86294922D01*
X124999999Y-86294922D01*
X124612712Y-86315219D01*
X124229676Y-86375886D01*
X124229669Y-86375887D01*
X123855063Y-86476262D01*
X123493005Y-86615244D01*
X123147456Y-86791310D01*
X122822206Y-87002531D01*
X122564648Y-87211095D01*
X122564648Y-87211096D01*
X124059301Y-88705748D01*
X123957670Y-88779588D01*
X123779588Y-88957670D01*
X123705748Y-89059300D01*
X122211096Y-87564648D01*
X122211095Y-87564648D01*
X122002531Y-87822206D01*
X121791310Y-88147456D01*
X121615244Y-88493005D01*
X121476262Y-88855063D01*
X121375887Y-89229669D01*
X121375886Y-89229676D01*
X121315219Y-89612712D01*
X121294922Y-89999999D01*
X121294922Y-90000000D01*
X111706948Y-90000000D01*
X111752793Y-89937882D01*
X111785540Y-89844297D01*
X111797646Y-89809701D01*
X111797646Y-89809699D01*
X111800500Y-89779269D01*
X111800500Y-88220730D01*
X111797646Y-88190300D01*
X111797646Y-88190298D01*
X111752793Y-88062119D01*
X111752792Y-88062117D01*
X111672150Y-87952850D01*
X111562882Y-87872207D01*
X111562880Y-87872206D01*
X111434700Y-87827353D01*
X111404270Y-87824500D01*
X111404266Y-87824500D01*
X110095734Y-87824500D01*
X110095730Y-87824500D01*
X110065300Y-87827353D01*
X110065298Y-87827353D01*
X109937119Y-87872206D01*
X109937117Y-87872207D01*
X109827850Y-87952850D01*
X109747207Y-88062117D01*
X109747206Y-88062119D01*
X109702353Y-88190298D01*
X109702353Y-88190300D01*
X109699500Y-88220730D01*
X109699500Y-89779269D01*
X109076258Y-89779269D01*
X109180941Y-89622598D01*
X109260130Y-89431420D01*
X109300500Y-89228465D01*
X109300500Y-88771535D01*
X109260130Y-88568580D01*
X109180941Y-88377402D01*
X109065977Y-88205345D01*
X109065975Y-88205342D01*
X108919657Y-88059024D01*
X108833626Y-88001541D01*
X108747598Y-87944059D01*
X108556420Y-87864870D01*
X108556412Y-87864868D01*
X108353469Y-87824500D01*
X108353465Y-87824500D01*
X108146535Y-87824500D01*
X108146530Y-87824500D01*
X107943587Y-87864868D01*
X107943579Y-87864870D01*
X107752403Y-87944058D01*
X107580342Y-88059024D01*
X107434024Y-88205342D01*
X107319058Y-88377403D01*
X107239870Y-88568579D01*
X107239868Y-88568587D01*
X107199500Y-88771530D01*
X107199500Y-89228469D01*
X106800499Y-89228469D01*
X106800500Y-89228465D01*
X106800500Y-88771535D01*
X106760130Y-88568580D01*
X106680941Y-88377402D01*
X106565977Y-88205345D01*
X106565975Y-88205342D01*
X106419657Y-88059024D01*
X106333626Y-88001541D01*
X106247598Y-87944059D01*
X106056420Y-87864870D01*
X106056412Y-87864868D01*
X105853469Y-87824500D01*
X105853465Y-87824500D01*
X105646535Y-87824500D01*
X105646530Y-87824500D01*
X105443587Y-87864868D01*
X105443579Y-87864870D01*
X105252403Y-87944058D01*
X105080342Y-88059024D01*
X104934024Y-88205342D01*
X104819058Y-88377403D01*
X104739870Y-88568579D01*
X104739868Y-88568587D01*
X104699500Y-88771530D01*
X104699500Y-89228469D01*
X104300500Y-89228469D01*
X104300500Y-89228468D01*
X104300500Y-89215983D01*
X104300737Y-89208324D01*
X104304444Y-89148419D01*
X104304443Y-89148415D01*
X104304444Y-89148410D01*
X104301294Y-89120708D01*
X104300500Y-89106699D01*
X104300500Y-88771534D01*
X104300499Y-88771530D01*
X104260131Y-88568587D01*
X104260130Y-88568580D01*
X104180941Y-88377402D01*
X104065977Y-88205345D01*
X104065975Y-88205342D01*
X103919657Y-88059024D01*
X103833626Y-88001541D01*
X103747598Y-87944059D01*
X103556420Y-87864870D01*
X103556412Y-87864868D01*
X103353469Y-87824500D01*
X103353465Y-87824500D01*
X103146535Y-87824500D01*
X103146530Y-87824500D01*
X102943587Y-87864868D01*
X102943579Y-87864870D01*
X102752403Y-87944058D01*
X102580342Y-88059024D01*
X102434024Y-88205342D01*
X102319058Y-88377403D01*
X102239870Y-88568579D01*
X102239868Y-88568587D01*
X102199500Y-88771530D01*
X102199500Y-89228466D01*
X102209535Y-89278922D01*
X102211816Y-89308125D01*
X102211680Y-89311463D01*
X102219533Y-89447574D01*
X102219537Y-89447647D01*
X102227893Y-89593991D01*
X102227897Y-89594064D01*
X102236268Y-89742190D01*
X102236272Y-89742258D01*
X102244616Y-89891372D01*
X102244617Y-89891441D01*
X102244620Y-89891441D01*
X102246127Y-89918640D01*
X102230181Y-89986666D01*
X102179990Y-90035272D01*
X102122317Y-90049500D01*
X97888498Y-90049500D01*
X97821459Y-90029815D01*
X97775704Y-89977011D01*
X97765760Y-89907853D01*
X97771457Y-89884545D01*
X97797645Y-89809701D01*
X97797646Y-89809699D01*
X97800500Y-89779269D01*
X97800500Y-88220730D01*
X97797646Y-88190300D01*
X97797646Y-88190298D01*
X97752793Y-88062119D01*
X97752792Y-88062117D01*
X97672150Y-87952850D01*
X97562882Y-87872207D01*
X97562880Y-87872206D01*
X97434700Y-87827353D01*
X97404270Y-87824500D01*
X97404266Y-87824500D01*
X96095734Y-87824500D01*
X96095730Y-87824500D01*
X96065300Y-87827353D01*
X96065298Y-87827353D01*
X95937119Y-87872206D01*
X95937117Y-87872207D01*
X95827850Y-87952850D01*
X95747207Y-88062117D01*
X95747206Y-88062119D01*
X95702353Y-88190298D01*
X95702353Y-88190300D01*
X95699500Y-88220730D01*
X95699500Y-89779269D01*
X95702353Y-89809699D01*
X95702354Y-89809701D01*
X95728543Y-89884545D01*
X95732105Y-89954324D01*
X95697377Y-90014951D01*
X95635383Y-90047179D01*
X95611502Y-90049500D01*
X95110495Y-90049500D01*
X95043456Y-90029815D01*
X94997701Y-89977011D01*
X94987757Y-89907853D01*
X95016782Y-89844297D01*
X95022814Y-89837819D01*
X95065974Y-89794658D01*
X95065975Y-89794657D01*
X95065977Y-89794655D01*
X95180941Y-89622598D01*
X95260130Y-89431420D01*
X95300500Y-89228465D01*
X95300500Y-88771535D01*
X95260130Y-88568580D01*
X95180941Y-88377402D01*
X95065977Y-88205345D01*
X95065975Y-88205342D01*
X94919657Y-88059024D01*
X94833626Y-88001541D01*
X94747598Y-87944059D01*
X94556420Y-87864870D01*
X94556412Y-87864868D01*
X94353469Y-87824500D01*
X94353465Y-87824500D01*
X94146535Y-87824500D01*
X94146530Y-87824500D01*
X93943587Y-87864868D01*
X93943579Y-87864870D01*
X93752403Y-87944058D01*
X93580342Y-88059024D01*
X93434024Y-88205342D01*
X93319058Y-88377403D01*
X93239870Y-88568579D01*
X93239868Y-88568587D01*
X93199500Y-88771530D01*
X93199500Y-89228469D01*
X93239868Y-89431412D01*
X93239870Y-89431420D01*
X93307209Y-89593991D01*
X93319059Y-89622598D01*
X93335737Y-89647558D01*
X93434024Y-89794657D01*
X93477186Y-89837819D01*
X93510671Y-89899142D01*
X93505687Y-89968834D01*
X93463815Y-90024767D01*
X93398351Y-90049184D01*
X93389505Y-90049500D01*
X92610495Y-90049500D01*
X92543456Y-90029815D01*
X92497701Y-89977011D01*
X92487757Y-89907853D01*
X92516782Y-89844297D01*
X92522814Y-89837819D01*
X92565974Y-89794658D01*
X92565975Y-89794657D01*
X92565977Y-89794655D01*
X92680941Y-89622598D01*
X92760130Y-89431420D01*
X92800500Y-89228465D01*
X92800500Y-88771535D01*
X92760130Y-88568580D01*
X92680941Y-88377402D01*
X92565977Y-88205345D01*
X92565975Y-88205342D01*
X92419657Y-88059024D01*
X92333626Y-88001541D01*
X92247598Y-87944059D01*
X92056420Y-87864870D01*
X92056412Y-87864868D01*
X91853469Y-87824500D01*
X91853465Y-87824500D01*
X91646535Y-87824500D01*
X91646530Y-87824500D01*
X91443587Y-87864868D01*
X91443579Y-87864870D01*
X91252403Y-87944058D01*
X91080342Y-88059024D01*
X90934024Y-88205342D01*
X90819058Y-88377403D01*
X90739870Y-88568579D01*
X90739868Y-88568587D01*
X90699500Y-88771530D01*
X90699500Y-89228469D01*
X90739868Y-89431412D01*
X90739870Y-89431420D01*
X90807209Y-89593991D01*
X90819059Y-89622598D01*
X90835737Y-89647558D01*
X90934024Y-89794657D01*
X90977186Y-89837819D01*
X91010671Y-89899142D01*
X91005687Y-89968834D01*
X90963815Y-90024767D01*
X90898351Y-90049184D01*
X90889505Y-90049500D01*
X90324500Y-90049500D01*
X90257461Y-90029815D01*
X90211706Y-89977011D01*
X90200500Y-89925500D01*
X90200500Y-89647558D01*
X90205115Y-89614045D01*
X90210744Y-89593992D01*
X90229045Y-89528799D01*
X90247562Y-89463890D01*
X90252238Y-89450470D01*
X90260130Y-89431420D01*
X90266237Y-89400715D01*
X90268754Y-89390399D01*
X90277944Y-89358717D01*
X90280718Y-89330891D01*
X90282486Y-89319024D01*
X90300500Y-89228465D01*
X90300500Y-88771535D01*
X90260130Y-88568580D01*
X90180941Y-88377402D01*
X90065977Y-88205345D01*
X90065975Y-88205342D01*
X89919657Y-88059024D01*
X89833626Y-88001541D01*
X89747598Y-87944059D01*
X89556420Y-87864870D01*
X89556412Y-87864868D01*
X89353469Y-87824500D01*
X89353465Y-87824500D01*
X89146535Y-87824500D01*
X89146530Y-87824500D01*
X88943587Y-87864868D01*
X88943579Y-87864870D01*
X88752403Y-87944058D01*
X88580342Y-88059024D01*
X88434024Y-88205342D01*
X88319058Y-88377403D01*
X88239870Y-88568579D01*
X88239868Y-88568587D01*
X88199500Y-88771530D01*
X88199500Y-89228469D01*
X78623790Y-89228469D01*
X78523737Y-88855063D01*
X78384755Y-88493005D01*
X78208689Y-88147456D01*
X77997468Y-87822206D01*
X77788904Y-87564649D01*
X77788903Y-87564648D01*
X76294251Y-89059300D01*
X76220412Y-88957670D01*
X76042330Y-88779588D01*
X75940698Y-88705748D01*
X77435350Y-87211096D01*
X77435350Y-87211095D01*
X77177793Y-87002531D01*
X76852543Y-86791310D01*
X76506994Y-86615244D01*
X76144936Y-86476262D01*
X75770330Y-86375887D01*
X75770323Y-86375886D01*
X75387287Y-86315219D01*
X75000001Y-86294922D01*
X74999999Y-86294922D01*
X74612712Y-86315219D01*
X74229676Y-86375886D01*
X74229669Y-86375887D01*
X73855063Y-86476262D01*
X73493005Y-86615244D01*
X73147456Y-86791310D01*
X72822206Y-87002531D01*
X72564648Y-87211095D01*
X72564648Y-87211096D01*
X74059301Y-88705748D01*
X73957670Y-88779588D01*
X73779588Y-88957670D01*
X73705748Y-89059300D01*
X72211096Y-87564648D01*
X72211095Y-87564648D01*
X72002531Y-87822206D01*
X71791310Y-88147456D01*
X71615244Y-88493005D01*
X71476262Y-88855063D01*
X71375887Y-89229669D01*
X71375886Y-89229676D01*
X71315219Y-89612712D01*
X71294922Y-89999999D01*
X71294922Y-90000000D01*
X70000004Y-90000000D01*
X70000007Y-89999358D01*
X70000644Y-89940975D01*
X70002328Y-89786517D01*
X70002793Y-89777073D01*
X70007761Y-89720299D01*
X70039943Y-89352444D01*
X70041355Y-89341725D01*
X70043264Y-89330898D01*
X70115257Y-88922602D01*
X70117589Y-88912083D01*
X70227749Y-88500959D01*
X70230989Y-88490683D01*
X70376558Y-88090736D01*
X70380679Y-88080786D01*
X70560552Y-87695047D01*
X70565532Y-87685480D01*
X70778332Y-87316900D01*
X70784125Y-87307806D01*
X71028246Y-86959165D01*
X71034812Y-86950609D01*
X71308394Y-86624566D01*
X71315681Y-86616615D01*
X71616615Y-86315681D01*
X71624566Y-86308394D01*
X71950609Y-86034812D01*
X71959165Y-86028246D01*
X72307806Y-85784125D01*
X72316900Y-85778332D01*
X72685480Y-85565532D01*
X72695047Y-85560552D01*
X73080786Y-85380679D01*
X73090736Y-85376558D01*
X73490683Y-85230989D01*
X73500959Y-85227749D01*
X73912083Y-85117589D01*
X73922602Y-85115257D01*
X74341732Y-85041353D01*
X74352444Y-85039943D01*
X74777085Y-85002792D01*
X74786517Y-85002328D01*
X74999358Y-85000006D01*
X75000710Y-85000000D01*
X124999290Y-85000000D01*
X125000641Y-85000006D01*
G37*
%TD.AperFunction*%
%TD*%
%TA.AperFunction,Conductor*%
%TO.N,+5V*%
G36*
X89785219Y-89186548D02*
G01*
X90073200Y-89287170D01*
X90079880Y-89293134D01*
X90080578Y-89301474D01*
X90057474Y-89381133D01*
X90031302Y-89472867D01*
X90031303Y-89472868D01*
X90005116Y-89566151D01*
X90005110Y-89566175D01*
X89978925Y-89660957D01*
X89978919Y-89660980D01*
X89978918Y-89660979D01*
X89952745Y-89757218D01*
X89952740Y-89757240D01*
X89926554Y-89855023D01*
X89918812Y-89884379D01*
X89900363Y-89954326D01*
X89874178Y-90055108D01*
X89847992Y-90157391D01*
X89822602Y-90258024D01*
X89819531Y-90263435D01*
X88777275Y-91305691D01*
X88769002Y-91309118D01*
X88760729Y-91305691D01*
X88757457Y-91299315D01*
X88726672Y-91111970D01*
X88692190Y-90903622D01*
X88657706Y-90696760D01*
X88657706Y-90696759D01*
X88623226Y-90491425D01*
X88588744Y-90287577D01*
X88554260Y-90085213D01*
X88554260Y-90085212D01*
X88519780Y-89884379D01*
X88485296Y-89685016D01*
X88485296Y-89685015D01*
X88450816Y-89487182D01*
X88450816Y-89487183D01*
X88450815Y-89487175D01*
X88418051Y-89300610D01*
X88419996Y-89291870D01*
X88425707Y-89287545D01*
X89245432Y-89000643D01*
X89253153Y-89000642D01*
X89785219Y-89186548D01*
G37*
%TD.AperFunction*%
%TD*%
%TA.AperFunction,Conductor*%
%TO.N,+5V*%
G36*
X104089375Y-89123425D02*
G01*
X104097055Y-89128027D01*
X104099336Y-89135720D01*
X104091958Y-89254967D01*
X104090000Y-89286616D01*
X104080851Y-89435861D01*
X104080000Y-89449736D01*
X104069999Y-89614346D01*
X104070000Y-89614347D01*
X104070000Y-89614350D01*
X104060000Y-89780466D01*
X104050000Y-89948083D01*
X104039999Y-90117200D01*
X104029999Y-90287816D01*
X104019999Y-90459933D01*
X104009999Y-90633550D01*
X104009052Y-90650132D01*
X104000630Y-90797634D01*
X103996737Y-90805698D01*
X103988949Y-90808667D01*
X102511099Y-90808667D01*
X102502826Y-90805240D01*
X102499415Y-90797584D01*
X102491633Y-90650129D01*
X102491633Y-90650128D01*
X102483266Y-90493100D01*
X102474899Y-90337566D01*
X102466533Y-90183526D01*
X102466533Y-90183525D01*
X102458166Y-90031000D01*
X102453573Y-89948083D01*
X102449799Y-89879963D01*
X102441433Y-89730429D01*
X102433066Y-89582395D01*
X102424699Y-89435861D01*
X102416840Y-89299628D01*
X102419785Y-89291173D01*
X102424652Y-89287914D01*
X103247275Y-88999953D01*
X103252854Y-88999423D01*
X104089375Y-89123425D01*
G37*
%TD.AperFunction*%
%TD*%
M02*
