M48
; DRILL file {KiCad 8.0.0} date 2024-10-25T11:24:53+0200
; FORMAT={-:-/ absolute / metric / decimal}
; #@! TF.CreationDate,2024-10-25T11:24:53+02:00
; #@! TF.GenerationSoftware,Kicad,Pcbnew,8.0.0
; #@! TF.FileFunction,Plated,1,2,PTH
FMAT,2
METRIC
; #@! TA.AperFunction,Plated,PTH,ViaDrill
T1C0.400
; #@! TA.AperFunction,Plated,PTH,ComponentDrill
T2C0.500
; #@! TA.AperFunction,Plated,PTH,ComponentDrill
T3C0.940
; #@! TA.AperFunction,Plated,PTH,ComponentDrill
T4C1.000
; #@! TA.AperFunction,Plated,PTH,ComponentDrill
T5C3.200
%
G90
G05
T1
X70.75Y-90.0
X70.75Y-92.5
X70.75Y-95.0
X70.75Y-97.5
X70.75Y-100.0
X70.75Y-102.5
X70.75Y-105.0
X70.75Y-107.5
X70.75Y-110.0
X70.75Y-112.5
X70.75Y-115.0
X70.75Y-117.5
X70.75Y-120.0
X70.75Y-122.5
X70.75Y-125.0
X70.75Y-127.5
X70.75Y-130.0
X70.75Y-132.5
X70.75Y-135.0
X70.75Y-137.5
X70.75Y-140.0
X71.25Y-88.0
X71.25Y-142.0
X72.5Y-86.5
X72.5Y-143.5
X73.45Y-124.75
X74.75Y-109.55
X74.75Y-129.35
X75.0Y-85.75
X75.0Y-144.25
X75.1Y-103.6
X75.83Y-119.04
X75.83Y-120.64
X77.5Y-85.75
X77.5Y-132.6
X77.5Y-144.25
X78.7Y-125.75
X78.95Y-95.5
X80.0Y-85.75
X80.0Y-144.25
X80.15Y-100.45
X80.53Y-115.34
X81.03Y-111.24
X81.455Y-120.34
X81.529Y-115.382
X82.33Y-120.34
X82.5Y-85.75
X82.5Y-144.25
X82.522Y-115.501
X82.7Y-90.1
X83.23Y-120.34
X83.55Y-105.9
X85.0Y-85.75
X85.0Y-144.25
X85.13Y-112.94
X85.53Y-117.24
X86.53Y-117.24
X87.5Y-85.75
X87.5Y-144.25
X87.53Y-117.24
X88.53Y-117.24
X88.93Y-121.64
X89.53Y-117.24
X90.0Y-85.75
X90.0Y-144.25
X90.45Y-102.0
X92.5Y-85.75
X92.5Y-144.25
X95.0Y-85.75
X95.0Y-144.25
X95.95Y-88.35
X97.4Y-96.6
X97.5Y-85.75
X97.5Y-144.25
X97.55Y-104.25
X100.0Y-85.75
X100.0Y-144.25
X102.3Y-113.3
X102.5Y-85.75
X102.5Y-144.25
X105.0Y-85.75
X105.0Y-144.25
X105.85Y-103.4
X107.5Y-85.75
X107.5Y-144.25
X110.0Y-85.75
X110.0Y-144.25
X110.2Y-122.0
X110.8Y-117.6
X111.2Y-122.0
X111.35Y-96.9
X112.2Y-122.0
X112.5Y-85.75
X112.5Y-144.25
X113.2Y-122.0
X114.2Y-122.0
X114.4Y-108.05
X114.6Y-126.3
X115.0Y-85.75
X115.0Y-144.25
X116.5Y-118.9
X116.9Y-99.5
X117.15Y-94.35
X117.208Y-123.739
X117.4Y-118.9
X117.5Y-85.75
X117.5Y-144.25
X118.201Y-123.858
X118.275Y-118.9
X118.7Y-108.1
X118.7Y-128.0
X119.2Y-123.9
X119.55Y-88.5
X120.0Y-85.75
X120.0Y-144.25
X122.5Y-85.75
X122.5Y-144.25
X123.85Y-104.15
X123.9Y-118.6
X123.9Y-120.2
X125.0Y-85.75
X125.0Y-144.25
X125.2Y-114.45
X127.25Y-86.25
X127.25Y-143.75
X128.75Y-88.0
X128.75Y-142.0
X129.1Y-119.2
X129.1Y-122.45
X129.15Y-116.25
X129.2Y-113.65
X129.25Y-90.0
X129.25Y-92.5
X129.25Y-95.0
X129.25Y-97.5
X129.25Y-100.0
X129.25Y-102.5
X129.25Y-105.0
X129.25Y-107.95
X129.25Y-110.85
X129.25Y-125.0
X129.25Y-127.5
X129.25Y-130.0
X129.25Y-132.5
X129.25Y-135.0
X129.25Y-137.5
X129.25Y-140.0
T2
X72.6Y-90.0
X72.6Y-140.0
X73.303Y-88.303
X73.303Y-91.697
X73.303Y-138.303
X73.303Y-141.697
X75.0Y-87.6
X75.0Y-92.4
X75.0Y-137.6
X75.0Y-142.4
X76.697Y-88.303
X76.697Y-91.697
X76.697Y-138.303
X76.697Y-141.697
X77.4Y-90.0
X77.4Y-140.0
X122.6Y-90.0
X122.6Y-140.0
X123.303Y-88.303
X123.303Y-91.697
X123.303Y-138.303
X123.303Y-141.697
X125.0Y-87.6
X125.0Y-92.4
X125.0Y-137.6
X125.0Y-142.4
X126.697Y-88.303
X126.697Y-91.697
X126.697Y-138.303
X126.697Y-141.697
X127.4Y-90.0
X127.4Y-140.0
T3
X90.305Y-131.94
X91.69Y-134.78
X93.075Y-131.94
X94.46Y-134.78
X95.845Y-131.94
X97.23Y-134.78
X98.615Y-131.94
X100.0Y-134.78
X101.385Y-131.94
X102.77Y-134.78
X104.155Y-131.94
X105.54Y-134.78
X106.925Y-131.94
X108.31Y-134.78
X109.695Y-131.94
T4
X93.65Y-116.92
X93.65Y-119.46
X93.65Y-122.0
X96.19Y-116.92
X96.19Y-119.46
X96.19Y-122.0
X98.73Y-116.92
X98.73Y-119.46
X98.73Y-122.0
X99.76Y-90.6
X99.76Y-93.14
X101.27Y-116.92
X101.27Y-119.46
X101.27Y-122.0
X102.3Y-90.6
X102.3Y-93.14
X103.81Y-116.92
X103.81Y-119.46
X103.81Y-122.0
X104.84Y-90.6
X104.84Y-93.14
X106.35Y-116.92
X106.35Y-119.46
X106.35Y-122.0
X107.38Y-90.6
X107.38Y-93.14
X109.92Y-90.6
X109.92Y-93.14
T5
X75.0Y-90.0
X75.0Y-140.0
X125.0Y-90.0
X125.0Y-140.0
M30
