%TF.GenerationSoftware,KiCad,Pcbnew,8.0.8*%
%TF.CreationDate,2025-01-29T06:06:36+01:00*%
%TF.ProjectId,PCB_Gant,5043425f-4761-46e7-942e-6b696361645f,rev?*%
%TF.SameCoordinates,Original*%
%TF.FileFunction,Copper,L4,Bot*%
%TF.FilePolarity,Positive*%
%FSLAX46Y46*%
G04 Gerber Fmt 4.6, Leading zero omitted, Abs format (unit mm)*
G04 Created by KiCad (PCBNEW 8.0.8) date 2025-01-29 06:06:36*
%MOMM*%
%LPD*%
G01*
G04 APERTURE LIST*
G04 Aperture macros list*
%AMRoundRect*
0 Rectangle with rounded corners*
0 $1 Rounding radius*
0 $2 $3 $4 $5 $6 $7 $8 $9 X,Y pos of 4 corners*
0 Add a 4 corners polygon primitive as box body*
4,1,4,$2,$3,$4,$5,$6,$7,$8,$9,$2,$3,0*
0 Add four circle primitives for the rounded corners*
1,1,$1+$1,$2,$3*
1,1,$1+$1,$4,$5*
1,1,$1+$1,$6,$7*
1,1,$1+$1,$8,$9*
0 Add four rect primitives between the rounded corners*
20,1,$1+$1,$2,$3,$4,$5,0*
20,1,$1+$1,$4,$5,$6,$7,0*
20,1,$1+$1,$6,$7,$8,$9,0*
20,1,$1+$1,$8,$9,$2,$3,0*%
G04 Aperture macros list end*
%TA.AperFunction,ComponentPad*%
%ADD10RoundRect,0.250000X0.750000X-0.600000X0.750000X0.600000X-0.750000X0.600000X-0.750000X-0.600000X0*%
%TD*%
%TA.AperFunction,ComponentPad*%
%ADD11O,2.000000X1.700000*%
%TD*%
%TA.AperFunction,ComponentPad*%
%ADD12C,0.800000*%
%TD*%
%TA.AperFunction,ComponentPad*%
%ADD13C,6.400000*%
%TD*%
%TA.AperFunction,ComponentPad*%
%ADD14RoundRect,0.250000X-0.600000X-0.725000X0.600000X-0.725000X0.600000X0.725000X-0.600000X0.725000X0*%
%TD*%
%TA.AperFunction,ComponentPad*%
%ADD15O,1.700000X1.950000*%
%TD*%
%TA.AperFunction,ComponentPad*%
%ADD16R,2.000000X2.000000*%
%TD*%
%TA.AperFunction,ComponentPad*%
%ADD17C,2.000000*%
%TD*%
%TA.AperFunction,ComponentPad*%
%ADD18R,3.000000X2.500000*%
%TD*%
%TA.AperFunction,ViaPad*%
%ADD19C,0.450000*%
%TD*%
%TA.AperFunction,Conductor*%
%ADD20C,0.200000*%
%TD*%
G04 APERTURE END LIST*
D10*
%TO.P,J3,1,Pin_1*%
%TO.N,+5V*%
X133160000Y-79280000D03*
D11*
%TO.P,J3,2,Pin_2*%
%TO.N,GND*%
X133160000Y-76780000D03*
%TD*%
D12*
%TO.P,H1,1,1*%
%TO.N,GND*%
X97600000Y-100000000D03*
X98302944Y-98302944D03*
X98302944Y-101697056D03*
X100000000Y-97600000D03*
D13*
X100000000Y-100000000D03*
D12*
X100000000Y-102400000D03*
X101697056Y-98302944D03*
X101697056Y-101697056D03*
X102400000Y-100000000D03*
%TD*%
D14*
%TO.P,J2,1,Pin_1*%
%TO.N,unconnected-(J2-Pin_1-Pad1)*%
X109500000Y-101200000D03*
D15*
%TO.P,J2,2,Pin_2*%
%TO.N,+5V*%
X112000000Y-101200000D03*
%TO.P,J2,3,Pin_3*%
%TO.N,GND*%
X114500000Y-101200000D03*
%TO.P,J2,4,Pin_4*%
%TO.N,UART1_HC05_TX*%
X117000000Y-101200000D03*
%TO.P,J2,5,Pin_5*%
%TO.N,UART1_HC05_RX*%
X119500000Y-101200000D03*
%TO.P,J2,6,Pin_6*%
%TO.N,unconnected-(J2-Pin_6-Pad6)*%
X122000000Y-101200000D03*
%TD*%
D12*
%TO.P,H2,1,1*%
%TO.N,GND*%
X97600000Y-70000000D03*
X98302944Y-68302944D03*
X98302944Y-71697056D03*
X100000000Y-67600000D03*
D13*
X100000000Y-70000000D03*
D12*
X100000000Y-72400000D03*
X101697056Y-68302944D03*
X101697056Y-71697056D03*
X102400000Y-70000000D03*
%TD*%
%TO.P,H3,1,1*%
%TO.N,GND*%
X129600000Y-100000000D03*
X130302944Y-98302944D03*
X130302944Y-101697056D03*
X132000000Y-97600000D03*
D13*
X132000000Y-100000000D03*
D12*
X132000000Y-102400000D03*
X133697056Y-98302944D03*
X133697056Y-101697056D03*
X134400000Y-100000000D03*
%TD*%
D16*
%TO.P,SW2,A,A*%
%TO.N,CLK*%
X109820000Y-90500000D03*
D17*
%TO.P,SW2,B,B*%
%TO.N,DT*%
X109820000Y-85500000D03*
%TO.P,SW2,C,C*%
%TO.N,GND*%
X109820000Y-88000000D03*
D18*
%TO.P,SW2,MP*%
%TO.N,N/C*%
X102320000Y-93600000D03*
X102320000Y-82400000D03*
%TD*%
D12*
%TO.P,H4,1,1*%
%TO.N,GND*%
X129600000Y-70000000D03*
X130302944Y-68302944D03*
X130302944Y-71697056D03*
X132000000Y-67600000D03*
D13*
X132000000Y-70000000D03*
D12*
X132000000Y-72400000D03*
X133697056Y-68302944D03*
X133697056Y-71697056D03*
X134400000Y-70000000D03*
%TD*%
D19*
%TO.N,GND*%
X119700000Y-77400000D03*
X105700000Y-101600000D03*
X113600000Y-78400000D03*
X126500000Y-68200000D03*
X122700000Y-78400000D03*
X109500000Y-97600000D03*
X127900000Y-103400000D03*
X106000000Y-97300000D03*
X98500000Y-83100000D03*
X128200000Y-95200000D03*
X96300000Y-96000000D03*
X96700000Y-74000000D03*
X115700000Y-76100000D03*
X135000000Y-89400000D03*
X114400000Y-92900000D03*
X119800000Y-67200000D03*
X129000000Y-73600000D03*
X116700000Y-79200000D03*
X121000000Y-92700000D03*
X121500000Y-73400000D03*
X130000000Y-95100000D03*
X101900000Y-79100000D03*
X111900000Y-90500000D03*
X105700000Y-92300000D03*
X126800000Y-100900000D03*
X110100000Y-76900000D03*
X106300000Y-86600000D03*
X111300000Y-67100000D03*
X132300000Y-87400000D03*
X104900000Y-74700000D03*
X129500000Y-66200000D03*
X136000000Y-87400000D03*
X108900000Y-82500000D03*
X134400000Y-83400000D03*
X113720589Y-89320589D03*
X111000000Y-87049725D03*
X102100000Y-74100000D03*
X132400000Y-84700000D03*
X122075000Y-82403822D03*
X127000000Y-81000000D03*
X127300000Y-76900000D03*
X135600000Y-72700000D03*
X132400000Y-88600000D03*
X112660000Y-87070000D03*
X97900000Y-90100000D03*
X108400000Y-70100000D03*
X133200000Y-94100000D03*
%TO.N,+3.3V*%
X110700000Y-78400000D03*
X117880000Y-95200000D03*
X132400000Y-89820000D03*
X126500000Y-78380000D03*
X121396178Y-81725000D03*
X114600000Y-90075000D03*
X112000000Y-84100000D03*
X112700000Y-87900000D03*
%TO.N,NRST*%
X120800000Y-85200000D03*
X124600000Y-85200000D03*
%TO.N,+5V*%
X106750000Y-70570000D03*
X102400000Y-77460000D03*
X123550000Y-70590000D03*
X111000000Y-98400000D03*
%TO.N,UART2_DEBUG_RX*%
X129400000Y-83500000D03*
X115100000Y-82800000D03*
%TO.N,UART2_DEBUG_TX*%
X125500000Y-83500000D03*
X116000000Y-82800000D03*
%TO.N,UART1_HC05_RX*%
X117600000Y-91400000D03*
%TO.N,UART1_HC05_TX*%
X116800000Y-91400000D03*
%TO.N,Net-(U2B-+)*%
X113037500Y-69300000D03*
X103400000Y-76100000D03*
%TO.N,CLK*%
X111423619Y-85236724D03*
%TO.N,GPIO3*%
X113400000Y-82200000D03*
X125900000Y-74600000D03*
%TD*%
D20*
%TO.N,NRST*%
X124600000Y-85200000D02*
X120800000Y-85200000D01*
%TO.N,UART2_DEBUG_RX*%
X116700000Y-84400000D02*
X128500000Y-84400000D01*
X115100000Y-82800000D02*
X116700000Y-84400000D01*
X128500000Y-84400000D02*
X129400000Y-83500000D01*
%TO.N,UART2_DEBUG_TX*%
X116000000Y-82800000D02*
X117010000Y-83810000D01*
X117010000Y-83810000D02*
X125190000Y-83810000D01*
X125190000Y-83810000D02*
X125500000Y-83500000D01*
%TO.N,UART1_HC05_RX*%
X119500000Y-101200000D02*
X119500000Y-93300000D01*
X119500000Y-93300000D02*
X117600000Y-91400000D01*
%TO.N,UART1_HC05_TX*%
X117000000Y-91600000D02*
X116800000Y-91400000D01*
X117000000Y-101200000D02*
X117000000Y-91600000D01*
%TO.N,Net-(U2B-+)*%
X103700000Y-75800000D02*
X103400000Y-76100000D01*
X113037500Y-69300000D02*
X113000000Y-69300000D01*
X106500000Y-75800000D02*
X103700000Y-75800000D01*
X113000000Y-69300000D02*
X106500000Y-75800000D01*
%TO.N,CLK*%
X111423619Y-85236724D02*
X111600000Y-85413105D01*
X111600000Y-88720000D02*
X109820000Y-90500000D01*
X109500000Y-90170000D02*
X109500000Y-90500000D01*
X111600000Y-85413105D02*
X111600000Y-88720000D01*
%TO.N,GPIO3*%
X125900000Y-74600000D02*
X120161522Y-74600000D01*
X113400000Y-81361522D02*
X113400000Y-82200000D01*
X120161522Y-74600000D02*
X113400000Y-81361522D01*
%TD*%
%TA.AperFunction,Conductor*%
%TO.N,GND*%
G36*
X111143365Y-86074445D02*
G01*
X111188700Y-86127610D01*
X111199500Y-86178225D01*
X111199500Y-87008777D01*
X111179815Y-87075816D01*
X111127011Y-87121571D01*
X111062709Y-87132116D01*
X111043434Y-87130117D01*
X110302962Y-87870590D01*
X110285925Y-87807007D01*
X110220099Y-87692993D01*
X110127007Y-87599901D01*
X110012993Y-87534075D01*
X109949409Y-87517037D01*
X110690055Y-86776389D01*
X110690055Y-86776388D01*
X110643236Y-86739947D01*
X110643231Y-86739944D01*
X110635452Y-86735734D01*
X110585863Y-86686513D01*
X110570757Y-86618296D01*
X110594930Y-86552741D01*
X110623348Y-86525107D01*
X110659139Y-86500047D01*
X110820047Y-86339139D01*
X110950568Y-86152734D01*
X110963118Y-86125819D01*
X111009290Y-86073381D01*
X111076484Y-86054229D01*
X111143365Y-86074445D01*
G37*
%TD.AperFunction*%
%TA.AperFunction,Conductor*%
G36*
X132002702Y-65500617D02*
G01*
X132386771Y-65517386D01*
X132397506Y-65518326D01*
X132775971Y-65568152D01*
X132786597Y-65570025D01*
X133159284Y-65652648D01*
X133169710Y-65655442D01*
X133533765Y-65770227D01*
X133543911Y-65773920D01*
X133896578Y-65920000D01*
X133906369Y-65924566D01*
X134244942Y-66100816D01*
X134254310Y-66106224D01*
X134576244Y-66311318D01*
X134585105Y-66317523D01*
X134887930Y-66549889D01*
X134896217Y-66556843D01*
X135177635Y-66814715D01*
X135185284Y-66822364D01*
X135443156Y-67103782D01*
X135450110Y-67112069D01*
X135682476Y-67414894D01*
X135688681Y-67423755D01*
X135893775Y-67745689D01*
X135899183Y-67755057D01*
X136075430Y-68093623D01*
X136080002Y-68103427D01*
X136226075Y-68456078D01*
X136229775Y-68466244D01*
X136344554Y-68830278D01*
X136347354Y-68840727D01*
X136429971Y-69213389D01*
X136431849Y-69224042D01*
X136481671Y-69602473D01*
X136482614Y-69613249D01*
X136499382Y-69997297D01*
X136499500Y-70002706D01*
X136499500Y-99997293D01*
X136499382Y-100002702D01*
X136482614Y-100386750D01*
X136481671Y-100397526D01*
X136431849Y-100775957D01*
X136429971Y-100786610D01*
X136347354Y-101159272D01*
X136344554Y-101169721D01*
X136229775Y-101533755D01*
X136226075Y-101543921D01*
X136080002Y-101896572D01*
X136075430Y-101906376D01*
X135899183Y-102244942D01*
X135893775Y-102254310D01*
X135688681Y-102576244D01*
X135682476Y-102585105D01*
X135450110Y-102887930D01*
X135443156Y-102896217D01*
X135185284Y-103177635D01*
X135177635Y-103185284D01*
X134896217Y-103443156D01*
X134887930Y-103450110D01*
X134585105Y-103682476D01*
X134576244Y-103688681D01*
X134254310Y-103893775D01*
X134244942Y-103899183D01*
X133906376Y-104075430D01*
X133896572Y-104080002D01*
X133543921Y-104226075D01*
X133533755Y-104229775D01*
X133169721Y-104344554D01*
X133159272Y-104347354D01*
X132786610Y-104429971D01*
X132775957Y-104431849D01*
X132397526Y-104481671D01*
X132386750Y-104482614D01*
X132002703Y-104499382D01*
X131997294Y-104499500D01*
X100002706Y-104499500D01*
X99997297Y-104499382D01*
X99613249Y-104482614D01*
X99602473Y-104481671D01*
X99224042Y-104431849D01*
X99213389Y-104429971D01*
X98840727Y-104347354D01*
X98830278Y-104344554D01*
X98466244Y-104229775D01*
X98456078Y-104226075D01*
X98103427Y-104080002D01*
X98093623Y-104075430D01*
X97755057Y-103899183D01*
X97745689Y-103893775D01*
X97423755Y-103688681D01*
X97414894Y-103682476D01*
X97112069Y-103450110D01*
X97103782Y-103443156D01*
X96822364Y-103185284D01*
X96814715Y-103177635D01*
X96556843Y-102896217D01*
X96549889Y-102887930D01*
X96317523Y-102585105D01*
X96311318Y-102576244D01*
X96205001Y-102409360D01*
X96106223Y-102254309D01*
X96100816Y-102244942D01*
X95924566Y-101906369D01*
X95919997Y-101896572D01*
X95878933Y-101797434D01*
X95773920Y-101543911D01*
X95770224Y-101533755D01*
X95655442Y-101169710D01*
X95652648Y-101159284D01*
X95570025Y-100786597D01*
X95568152Y-100775971D01*
X95518326Y-100397506D01*
X95517386Y-100386771D01*
X95500618Y-100002702D01*
X95500559Y-99999999D01*
X96294922Y-99999999D01*
X96294922Y-100000000D01*
X96315219Y-100387287D01*
X96375886Y-100770323D01*
X96375887Y-100770330D01*
X96476262Y-101144936D01*
X96615244Y-101506994D01*
X96791310Y-101852543D01*
X97002523Y-102177783D01*
X97002525Y-102177785D01*
X97211096Y-102435348D01*
X98705747Y-100940697D01*
X98779588Y-101042330D01*
X98957670Y-101220412D01*
X99059301Y-101294251D01*
X97564650Y-102788902D01*
X97822214Y-102997475D01*
X97822216Y-102997476D01*
X98147456Y-103208689D01*
X98493005Y-103384755D01*
X98855063Y-103523737D01*
X99229669Y-103624112D01*
X99229676Y-103624113D01*
X99612712Y-103684780D01*
X99999999Y-103705078D01*
X100000001Y-103705078D01*
X100387287Y-103684780D01*
X100770323Y-103624113D01*
X100770330Y-103624112D01*
X101144936Y-103523737D01*
X101506994Y-103384755D01*
X101852543Y-103208689D01*
X102177771Y-102997484D01*
X102177784Y-102997474D01*
X102435348Y-102788902D01*
X100940698Y-101294252D01*
X101042330Y-101220412D01*
X101220412Y-101042330D01*
X101294252Y-100940698D01*
X102788902Y-102435348D01*
X102997474Y-102177784D01*
X102997484Y-102177771D01*
X103208689Y-101852543D01*
X103384755Y-101506994D01*
X103523737Y-101144936D01*
X103624112Y-100770330D01*
X103624113Y-100770323D01*
X103677714Y-100431898D01*
X108349500Y-100431898D01*
X108349500Y-101968102D01*
X108353473Y-102001185D01*
X108360122Y-102056561D01*
X108360122Y-102056563D01*
X108360123Y-102056564D01*
X108377722Y-102101192D01*
X108415639Y-102197343D01*
X108507077Y-102317922D01*
X108627656Y-102409360D01*
X108627657Y-102409360D01*
X108627658Y-102409361D01*
X108768436Y-102464877D01*
X108856898Y-102475500D01*
X108856903Y-102475500D01*
X110143097Y-102475500D01*
X110143102Y-102475500D01*
X110231564Y-102464877D01*
X110372342Y-102409361D01*
X110492922Y-102317922D01*
X110584361Y-102197342D01*
X110639877Y-102056564D01*
X110650500Y-101968102D01*
X110650500Y-101677669D01*
X110670185Y-101610630D01*
X110722989Y-101564875D01*
X110792147Y-101554931D01*
X110855703Y-101583956D01*
X110892431Y-101639351D01*
X110933787Y-101766636D01*
X110933788Y-101766639D01*
X110989664Y-101876300D01*
X111016003Y-101927993D01*
X111016006Y-101927997D01*
X111122441Y-102074494D01*
X111122445Y-102074499D01*
X111250500Y-102202554D01*
X111250505Y-102202558D01*
X111378287Y-102295396D01*
X111397006Y-102308996D01*
X111486750Y-102354723D01*
X111558360Y-102391211D01*
X111558363Y-102391212D01*
X111640398Y-102417866D01*
X111730591Y-102447171D01*
X111813429Y-102460291D01*
X111909449Y-102475500D01*
X111909454Y-102475500D01*
X112090551Y-102475500D01*
X112177259Y-102461765D01*
X112269409Y-102447171D01*
X112441639Y-102391211D01*
X112602994Y-102308996D01*
X112749501Y-102202553D01*
X112877553Y-102074501D01*
X112983996Y-101927994D01*
X113027563Y-101842488D01*
X113075537Y-101791692D01*
X113143358Y-101774897D01*
X113209493Y-101797434D01*
X113248533Y-101842488D01*
X113345379Y-102032557D01*
X113470272Y-102204459D01*
X113470276Y-102204464D01*
X113620535Y-102354723D01*
X113620540Y-102354727D01*
X113792442Y-102479620D01*
X113981782Y-102576095D01*
X114183871Y-102641757D01*
X114250000Y-102652231D01*
X114250000Y-101604145D01*
X114316657Y-101642630D01*
X114437465Y-101675000D01*
X114562535Y-101675000D01*
X114683343Y-101642630D01*
X114750000Y-101604145D01*
X114750000Y-102652230D01*
X114816126Y-102641757D01*
X114816129Y-102641757D01*
X115018217Y-102576095D01*
X115207557Y-102479620D01*
X115379459Y-102354727D01*
X115379464Y-102354723D01*
X115529723Y-102204464D01*
X115529727Y-102204459D01*
X115654620Y-102032558D01*
X115751466Y-101842488D01*
X115799440Y-101791692D01*
X115867261Y-101774897D01*
X115933396Y-101797434D01*
X115972435Y-101842488D01*
X116016002Y-101927992D01*
X116016003Y-101927993D01*
X116122441Y-102074494D01*
X116122445Y-102074499D01*
X116250500Y-102202554D01*
X116250505Y-102202558D01*
X116378287Y-102295396D01*
X116397006Y-102308996D01*
X116486750Y-102354723D01*
X116558360Y-102391211D01*
X116558363Y-102391212D01*
X116640398Y-102417866D01*
X116730591Y-102447171D01*
X116813429Y-102460291D01*
X116909449Y-102475500D01*
X116909454Y-102475500D01*
X117090551Y-102475500D01*
X117177259Y-102461765D01*
X117269409Y-102447171D01*
X117441639Y-102391211D01*
X117602994Y-102308996D01*
X117749501Y-102202553D01*
X117877553Y-102074501D01*
X117983996Y-101927994D01*
X118066211Y-101766639D01*
X118122171Y-101594409D01*
X118126849Y-101564875D01*
X118127527Y-101560594D01*
X118157456Y-101497459D01*
X118216768Y-101460528D01*
X118286630Y-101461526D01*
X118344863Y-101500136D01*
X118372473Y-101560594D01*
X118377829Y-101594410D01*
X118433787Y-101766636D01*
X118433788Y-101766639D01*
X118489664Y-101876300D01*
X118516003Y-101927993D01*
X118516006Y-101927997D01*
X118622441Y-102074494D01*
X118622445Y-102074499D01*
X118750500Y-102202554D01*
X118750505Y-102202558D01*
X118878287Y-102295396D01*
X118897006Y-102308996D01*
X118986750Y-102354723D01*
X119058360Y-102391211D01*
X119058363Y-102391212D01*
X119140398Y-102417866D01*
X119230591Y-102447171D01*
X119313429Y-102460291D01*
X119409449Y-102475500D01*
X119409454Y-102475500D01*
X119590551Y-102475500D01*
X119677259Y-102461765D01*
X119769409Y-102447171D01*
X119941639Y-102391211D01*
X120102994Y-102308996D01*
X120249501Y-102202553D01*
X120377553Y-102074501D01*
X120483996Y-101927994D01*
X120566211Y-101766639D01*
X120622171Y-101594409D01*
X120626849Y-101564875D01*
X120627527Y-101560594D01*
X120657456Y-101497459D01*
X120716768Y-101460528D01*
X120786630Y-101461526D01*
X120844863Y-101500136D01*
X120872473Y-101560594D01*
X120877829Y-101594410D01*
X120933787Y-101766636D01*
X120933788Y-101766639D01*
X120989664Y-101876300D01*
X121016003Y-101927993D01*
X121016006Y-101927997D01*
X121122441Y-102074494D01*
X121122445Y-102074499D01*
X121250500Y-102202554D01*
X121250505Y-102202558D01*
X121378287Y-102295396D01*
X121397006Y-102308996D01*
X121486750Y-102354723D01*
X121558360Y-102391211D01*
X121558363Y-102391212D01*
X121640398Y-102417866D01*
X121730591Y-102447171D01*
X121813429Y-102460291D01*
X121909449Y-102475500D01*
X121909454Y-102475500D01*
X122090551Y-102475500D01*
X122177259Y-102461765D01*
X122269409Y-102447171D01*
X122441639Y-102391211D01*
X122602994Y-102308996D01*
X122749501Y-102202553D01*
X122877553Y-102074501D01*
X122983996Y-101927994D01*
X123066211Y-101766639D01*
X123122171Y-101594409D01*
X123138445Y-101491657D01*
X123150500Y-101415551D01*
X123150500Y-100984448D01*
X123128495Y-100845522D01*
X123122171Y-100805591D01*
X123066211Y-100633361D01*
X123066211Y-100633360D01*
X123027563Y-100557511D01*
X122983996Y-100472006D01*
X122954856Y-100431898D01*
X122877558Y-100325505D01*
X122877554Y-100325500D01*
X122749499Y-100197445D01*
X122749494Y-100197441D01*
X122602997Y-100091006D01*
X122602996Y-100091005D01*
X122602994Y-100091004D01*
X122551300Y-100064664D01*
X122441639Y-100008788D01*
X122441636Y-100008787D01*
X122414589Y-99999999D01*
X128294922Y-99999999D01*
X128294922Y-100000000D01*
X128315219Y-100387287D01*
X128375886Y-100770323D01*
X128375887Y-100770330D01*
X128476262Y-101144936D01*
X128615244Y-101506994D01*
X128791310Y-101852543D01*
X129002523Y-102177783D01*
X129002525Y-102177785D01*
X129211096Y-102435348D01*
X130705747Y-100940697D01*
X130779588Y-101042330D01*
X130957670Y-101220412D01*
X131059301Y-101294251D01*
X129564650Y-102788902D01*
X129822214Y-102997475D01*
X129822216Y-102997476D01*
X130147456Y-103208689D01*
X130493005Y-103384755D01*
X130855063Y-103523737D01*
X131229669Y-103624112D01*
X131229676Y-103624113D01*
X131612712Y-103684780D01*
X131999999Y-103705078D01*
X132000001Y-103705078D01*
X132387287Y-103684780D01*
X132770323Y-103624113D01*
X132770330Y-103624112D01*
X133144936Y-103523737D01*
X133506994Y-103384755D01*
X133852543Y-103208689D01*
X134177771Y-102997484D01*
X134177784Y-102997474D01*
X134435348Y-102788902D01*
X132940698Y-101294252D01*
X133042330Y-101220412D01*
X133220412Y-101042330D01*
X133294252Y-100940698D01*
X134788902Y-102435348D01*
X134997474Y-102177784D01*
X134997484Y-102177771D01*
X135208689Y-101852543D01*
X135384755Y-101506994D01*
X135523737Y-101144936D01*
X135624112Y-100770330D01*
X135624113Y-100770323D01*
X135684780Y-100387287D01*
X135705078Y-100000000D01*
X135705078Y-99999999D01*
X135684780Y-99612712D01*
X135624113Y-99229676D01*
X135624112Y-99229669D01*
X135523737Y-98855063D01*
X135384755Y-98493005D01*
X135208689Y-98147456D01*
X134997476Y-97822216D01*
X134997475Y-97822214D01*
X134788902Y-97564650D01*
X133294251Y-99059301D01*
X133220412Y-98957670D01*
X133042330Y-98779588D01*
X132940698Y-98705748D01*
X134435349Y-97211096D01*
X134177785Y-97002525D01*
X134177783Y-97002523D01*
X133852543Y-96791310D01*
X133506994Y-96615244D01*
X133144936Y-96476262D01*
X132770330Y-96375887D01*
X132770323Y-96375886D01*
X132387287Y-96315219D01*
X132000001Y-96294922D01*
X131999999Y-96294922D01*
X131612712Y-96315219D01*
X131229676Y-96375886D01*
X131229669Y-96375887D01*
X130855063Y-96476262D01*
X130493005Y-96615244D01*
X130147456Y-96791310D01*
X129822206Y-97002531D01*
X129564649Y-97211095D01*
X129564649Y-97211096D01*
X131059301Y-98705748D01*
X130957670Y-98779588D01*
X130779588Y-98957670D01*
X130705748Y-99059301D01*
X129211096Y-97564649D01*
X129211095Y-97564649D01*
X129002531Y-97822206D01*
X128791310Y-98147456D01*
X128615244Y-98493005D01*
X128476262Y-98855063D01*
X128375887Y-99229669D01*
X128375886Y-99229676D01*
X128315219Y-99612712D01*
X128294922Y-99999999D01*
X122414589Y-99999999D01*
X122269410Y-99952829D01*
X122090551Y-99924500D01*
X122090546Y-99924500D01*
X121909454Y-99924500D01*
X121909449Y-99924500D01*
X121730589Y-99952829D01*
X121558363Y-100008787D01*
X121558360Y-100008788D01*
X121397002Y-100091006D01*
X121250505Y-100197441D01*
X121250500Y-100197445D01*
X121122445Y-100325500D01*
X121122441Y-100325505D01*
X121016006Y-100472002D01*
X120933788Y-100633360D01*
X120933787Y-100633363D01*
X120877829Y-100805589D01*
X120872473Y-100839406D01*
X120842543Y-100902540D01*
X120783232Y-100939471D01*
X120713369Y-100938473D01*
X120655137Y-100899863D01*
X120627527Y-100839406D01*
X120624438Y-100819905D01*
X120622171Y-100805591D01*
X120566211Y-100633361D01*
X120566211Y-100633360D01*
X120527563Y-100557511D01*
X120483996Y-100472006D01*
X120454856Y-100431898D01*
X120377558Y-100325505D01*
X120377554Y-100325500D01*
X120249499Y-100197445D01*
X120249494Y-100197441D01*
X120102997Y-100091006D01*
X120102996Y-100091005D01*
X120102994Y-100091004D01*
X119968205Y-100022325D01*
X119917409Y-99974350D01*
X119900500Y-99911840D01*
X119900500Y-93247275D01*
X119900500Y-93247273D01*
X119873207Y-93145413D01*
X119873207Y-93145412D01*
X119846843Y-93099750D01*
X119820480Y-93054087D01*
X119745913Y-92979520D01*
X119745912Y-92979519D01*
X119741582Y-92975189D01*
X119741571Y-92975179D01*
X118154285Y-91387892D01*
X118120800Y-91326569D01*
X118119029Y-91316410D01*
X118111974Y-91262817D01*
X118059024Y-91134983D01*
X117974791Y-91025209D01*
X117974789Y-91025208D01*
X117974789Y-91025207D01*
X117865015Y-90940974D01*
X117737186Y-90888027D01*
X117737184Y-90888026D01*
X117737183Y-90888026D01*
X117645727Y-90875985D01*
X117600001Y-90869965D01*
X117599999Y-90869965D01*
X117531408Y-90878995D01*
X117462817Y-90888026D01*
X117462816Y-90888026D01*
X117462813Y-90888027D01*
X117334984Y-90940974D01*
X117334982Y-90940976D01*
X117275486Y-90986629D01*
X117210317Y-91011823D01*
X117141872Y-90997784D01*
X117124513Y-90986629D01*
X117065015Y-90940974D01*
X116937186Y-90888027D01*
X116937184Y-90888026D01*
X116937183Y-90888026D01*
X116845727Y-90875985D01*
X116800001Y-90869965D01*
X116799999Y-90869965D01*
X116731408Y-90878995D01*
X116662817Y-90888026D01*
X116662816Y-90888026D01*
X116662813Y-90888027D01*
X116534985Y-90940974D01*
X116425209Y-91025209D01*
X116340974Y-91134985D01*
X116288027Y-91262813D01*
X116288026Y-91262818D01*
X116269965Y-91399999D01*
X116269965Y-91400000D01*
X116288026Y-91537181D01*
X116288027Y-91537186D01*
X116340974Y-91665015D01*
X116340975Y-91665017D01*
X116340976Y-91665018D01*
X116425209Y-91774791D01*
X116534982Y-91859024D01*
X116534993Y-91859028D01*
X116537494Y-91860473D01*
X116539192Y-91862253D01*
X116541430Y-91863971D01*
X116541162Y-91864319D01*
X116585712Y-91911038D01*
X116599500Y-91967864D01*
X116599500Y-99911840D01*
X116579815Y-99978879D01*
X116531795Y-100022325D01*
X116397002Y-100091006D01*
X116250505Y-100197441D01*
X116250500Y-100197445D01*
X116122445Y-100325500D01*
X116122441Y-100325505D01*
X116016004Y-100472004D01*
X115972435Y-100557512D01*
X115924460Y-100608307D01*
X115856639Y-100625102D01*
X115790504Y-100602564D01*
X115751466Y-100557511D01*
X115654620Y-100367442D01*
X115529727Y-100195540D01*
X115529723Y-100195535D01*
X115379464Y-100045276D01*
X115379459Y-100045272D01*
X115207557Y-99920379D01*
X115018215Y-99823903D01*
X114816124Y-99758241D01*
X114750000Y-99747768D01*
X114750000Y-100795854D01*
X114683343Y-100757370D01*
X114562535Y-100725000D01*
X114437465Y-100725000D01*
X114316657Y-100757370D01*
X114250000Y-100795854D01*
X114250000Y-99747768D01*
X114249999Y-99747768D01*
X114183875Y-99758241D01*
X113981784Y-99823903D01*
X113792442Y-99920379D01*
X113620540Y-100045272D01*
X113620535Y-100045276D01*
X113470276Y-100195535D01*
X113470272Y-100195540D01*
X113345379Y-100367442D01*
X113248533Y-100557511D01*
X113200558Y-100608307D01*
X113132737Y-100625102D01*
X113066602Y-100602564D01*
X113027563Y-100557511D01*
X112983996Y-100472006D01*
X112954856Y-100431898D01*
X112877558Y-100325505D01*
X112877554Y-100325500D01*
X112749499Y-100197445D01*
X112749494Y-100197441D01*
X112602997Y-100091006D01*
X112602996Y-100091005D01*
X112602994Y-100091004D01*
X112551300Y-100064664D01*
X112441639Y-100008788D01*
X112441636Y-100008787D01*
X112269410Y-99952829D01*
X112090551Y-99924500D01*
X112090546Y-99924500D01*
X111909454Y-99924500D01*
X111909449Y-99924500D01*
X111730589Y-99952829D01*
X111558363Y-100008787D01*
X111558360Y-100008788D01*
X111397002Y-100091006D01*
X111250505Y-100197441D01*
X111250500Y-100197445D01*
X111122445Y-100325500D01*
X111122441Y-100325505D01*
X111016006Y-100472002D01*
X110933788Y-100633360D01*
X110933787Y-100633363D01*
X110892431Y-100760648D01*
X110852994Y-100818323D01*
X110788635Y-100845522D01*
X110719789Y-100833608D01*
X110668313Y-100786364D01*
X110650500Y-100722330D01*
X110650500Y-100431903D01*
X110650500Y-100431898D01*
X110639877Y-100343436D01*
X110584361Y-100202658D01*
X110584360Y-100202657D01*
X110584360Y-100202656D01*
X110492922Y-100082077D01*
X110372343Y-99990639D01*
X110231561Y-99935122D01*
X110185926Y-99929642D01*
X110143102Y-99924500D01*
X108856898Y-99924500D01*
X108817853Y-99929188D01*
X108768438Y-99935122D01*
X108627656Y-99990639D01*
X108507077Y-100082077D01*
X108415639Y-100202656D01*
X108360122Y-100343438D01*
X108357240Y-100367442D01*
X108349500Y-100431898D01*
X103677714Y-100431898D01*
X103684780Y-100387287D01*
X103705078Y-100000000D01*
X103705078Y-99999999D01*
X103684780Y-99612712D01*
X103624113Y-99229676D01*
X103624112Y-99229669D01*
X103523737Y-98855063D01*
X103384755Y-98493005D01*
X103337366Y-98399999D01*
X110469965Y-98399999D01*
X110469965Y-98400000D01*
X110488026Y-98537181D01*
X110488027Y-98537186D01*
X110540974Y-98665015D01*
X110540975Y-98665017D01*
X110540976Y-98665018D01*
X110625209Y-98774791D01*
X110734982Y-98859024D01*
X110862817Y-98911974D01*
X110985702Y-98928152D01*
X110999999Y-98930035D01*
X111000000Y-98930035D01*
X111000001Y-98930035D01*
X111012947Y-98928330D01*
X111137183Y-98911974D01*
X111265018Y-98859024D01*
X111374791Y-98774791D01*
X111459024Y-98665018D01*
X111511974Y-98537183D01*
X111530035Y-98400000D01*
X111511974Y-98262817D01*
X111476674Y-98177594D01*
X111459025Y-98134985D01*
X111459024Y-98134984D01*
X111459024Y-98134983D01*
X111374791Y-98025209D01*
X111374789Y-98025208D01*
X111374789Y-98025207D01*
X111265015Y-97940974D01*
X111137186Y-97888027D01*
X111137184Y-97888026D01*
X111137183Y-97888026D01*
X111045727Y-97875985D01*
X111000001Y-97869965D01*
X110999999Y-97869965D01*
X110931408Y-97878995D01*
X110862817Y-97888026D01*
X110862816Y-97888026D01*
X110862813Y-97888027D01*
X110734985Y-97940974D01*
X110625209Y-98025209D01*
X110540974Y-98134985D01*
X110488027Y-98262813D01*
X110488026Y-98262818D01*
X110469965Y-98399999D01*
X103337366Y-98399999D01*
X103208689Y-98147456D01*
X102997476Y-97822216D01*
X102997475Y-97822214D01*
X102788902Y-97564650D01*
X101294251Y-99059301D01*
X101220412Y-98957670D01*
X101042330Y-98779588D01*
X100940698Y-98705748D01*
X102435349Y-97211096D01*
X102177785Y-97002525D01*
X102177783Y-97002523D01*
X101852543Y-96791310D01*
X101506994Y-96615244D01*
X101144936Y-96476262D01*
X100770330Y-96375887D01*
X100770323Y-96375886D01*
X100387287Y-96315219D01*
X100000001Y-96294922D01*
X99999999Y-96294922D01*
X99612712Y-96315219D01*
X99229676Y-96375886D01*
X99229669Y-96375887D01*
X98855063Y-96476262D01*
X98493005Y-96615244D01*
X98147456Y-96791310D01*
X97822206Y-97002531D01*
X97564649Y-97211095D01*
X97564649Y-97211096D01*
X99059301Y-98705748D01*
X98957670Y-98779588D01*
X98779588Y-98957670D01*
X98705748Y-99059301D01*
X97211096Y-97564649D01*
X97211095Y-97564649D01*
X97002531Y-97822206D01*
X96791310Y-98147456D01*
X96615244Y-98493005D01*
X96476262Y-98855063D01*
X96375887Y-99229669D01*
X96375886Y-99229676D01*
X96315219Y-99612712D01*
X96294922Y-99999999D01*
X95500559Y-99999999D01*
X95500500Y-99997293D01*
X95500500Y-92305131D01*
X100519500Y-92305131D01*
X100519500Y-94894856D01*
X100519502Y-94894882D01*
X100522413Y-94919987D01*
X100522415Y-94919991D01*
X100567793Y-95022764D01*
X100567794Y-95022765D01*
X100647235Y-95102206D01*
X100750009Y-95147585D01*
X100775135Y-95150500D01*
X103864864Y-95150499D01*
X103864879Y-95150497D01*
X103864882Y-95150497D01*
X103889987Y-95147586D01*
X103889988Y-95147585D01*
X103889991Y-95147585D01*
X103992765Y-95102206D01*
X104072206Y-95022765D01*
X104117585Y-94919991D01*
X104120500Y-94894865D01*
X104120499Y-92305136D01*
X104120497Y-92305117D01*
X104117586Y-92280012D01*
X104117585Y-92280010D01*
X104117585Y-92280009D01*
X104072206Y-92177235D01*
X103992765Y-92097794D01*
X103992763Y-92097793D01*
X103889992Y-92052415D01*
X103864865Y-92049500D01*
X100775143Y-92049500D01*
X100775117Y-92049502D01*
X100750012Y-92052413D01*
X100750008Y-92052415D01*
X100647235Y-92097793D01*
X100567794Y-92177234D01*
X100522415Y-92280006D01*
X100522415Y-92280008D01*
X100519500Y-92305131D01*
X95500500Y-92305131D01*
X95500500Y-87999994D01*
X108314859Y-87999994D01*
X108314859Y-88000005D01*
X108335385Y-88247729D01*
X108335387Y-88247738D01*
X108396412Y-88488717D01*
X108496267Y-88716367D01*
X108596562Y-88869881D01*
X109337037Y-88129408D01*
X109354075Y-88192993D01*
X109419901Y-88307007D01*
X109512993Y-88400099D01*
X109627007Y-88465925D01*
X109690590Y-88482962D01*
X109010371Y-89163181D01*
X108949048Y-89196666D01*
X108922691Y-89199500D01*
X108775143Y-89199500D01*
X108775118Y-89199502D01*
X108750011Y-89202414D01*
X108750008Y-89202415D01*
X108647235Y-89247793D01*
X108567794Y-89327234D01*
X108522415Y-89430006D01*
X108522415Y-89430008D01*
X108519500Y-89455131D01*
X108519500Y-91544856D01*
X108519502Y-91544882D01*
X108522413Y-91569987D01*
X108522415Y-91569991D01*
X108567793Y-91672764D01*
X108567794Y-91672765D01*
X108647235Y-91752206D01*
X108750009Y-91797585D01*
X108775135Y-91800500D01*
X110864864Y-91800499D01*
X110864879Y-91800497D01*
X110864882Y-91800497D01*
X110889987Y-91797586D01*
X110889988Y-91797585D01*
X110889991Y-91797585D01*
X110992765Y-91752206D01*
X111072206Y-91672765D01*
X111117585Y-91569991D01*
X111120500Y-91544865D01*
X111120499Y-90074999D01*
X114069965Y-90074999D01*
X114069965Y-90075000D01*
X114088026Y-90212181D01*
X114088027Y-90212186D01*
X114140974Y-90340015D01*
X114140975Y-90340017D01*
X114140976Y-90340018D01*
X114225209Y-90449791D01*
X114334982Y-90534024D01*
X114462817Y-90586974D01*
X114585702Y-90603152D01*
X114599999Y-90605035D01*
X114600000Y-90605035D01*
X114600001Y-90605035D01*
X114612947Y-90603330D01*
X114737183Y-90586974D01*
X114865018Y-90534024D01*
X114974791Y-90449791D01*
X115059024Y-90340018D01*
X115111974Y-90212183D01*
X115130035Y-90075000D01*
X115111974Y-89937817D01*
X115063173Y-89820000D01*
X131869965Y-89820000D01*
X131885476Y-89937818D01*
X131888026Y-89957181D01*
X131888027Y-89957186D01*
X131940974Y-90085015D01*
X131940975Y-90085017D01*
X131940976Y-90085018D01*
X132025209Y-90194791D01*
X132134982Y-90279024D01*
X132262817Y-90331974D01*
X132385702Y-90348152D01*
X132399999Y-90350035D01*
X132400000Y-90350035D01*
X132400001Y-90350035D01*
X132412947Y-90348330D01*
X132537183Y-90331974D01*
X132665018Y-90279024D01*
X132774791Y-90194791D01*
X132859024Y-90085018D01*
X132911974Y-89957183D01*
X132930035Y-89820000D01*
X132928716Y-89809985D01*
X132920847Y-89750216D01*
X132911974Y-89682817D01*
X132862356Y-89563027D01*
X132859025Y-89554985D01*
X132859024Y-89554984D01*
X132859024Y-89554983D01*
X132774791Y-89445209D01*
X132774789Y-89445208D01*
X132774789Y-89445207D01*
X132665015Y-89360974D01*
X132537186Y-89308027D01*
X132537184Y-89308026D01*
X132537183Y-89308026D01*
X132445727Y-89295985D01*
X132400001Y-89289965D01*
X132399999Y-89289965D01*
X132331408Y-89298995D01*
X132262817Y-89308026D01*
X132262816Y-89308026D01*
X132262813Y-89308027D01*
X132134985Y-89360974D01*
X132025209Y-89445209D01*
X131940974Y-89554985D01*
X131888027Y-89682813D01*
X131888026Y-89682816D01*
X131888026Y-89682817D01*
X131885736Y-89700209D01*
X131871284Y-89809985D01*
X131869965Y-89820000D01*
X115063173Y-89820000D01*
X115059024Y-89809983D01*
X114974791Y-89700209D01*
X114974789Y-89700208D01*
X114974789Y-89700207D01*
X114865015Y-89615974D01*
X114737186Y-89563027D01*
X114737184Y-89563026D01*
X114737183Y-89563026D01*
X114645727Y-89550985D01*
X114600001Y-89544965D01*
X114599999Y-89544965D01*
X114531408Y-89553995D01*
X114462817Y-89563026D01*
X114462816Y-89563026D01*
X114462813Y-89563027D01*
X114334985Y-89615974D01*
X114225209Y-89700209D01*
X114140974Y-89809985D01*
X114088027Y-89937813D01*
X114088026Y-89937818D01*
X114069965Y-90074999D01*
X111120499Y-90074999D01*
X111120499Y-89817254D01*
X111140184Y-89750216D01*
X111156818Y-89729574D01*
X111456386Y-89430006D01*
X111920480Y-88965913D01*
X111973207Y-88874588D01*
X112000500Y-88772727D01*
X112000500Y-88667273D01*
X112000500Y-88207847D01*
X112020185Y-88140808D01*
X112072989Y-88095053D01*
X112142147Y-88085109D01*
X112205703Y-88114134D01*
X112239060Y-88160394D01*
X112240976Y-88165018D01*
X112325209Y-88274791D01*
X112434982Y-88359024D01*
X112562817Y-88411974D01*
X112685702Y-88428152D01*
X112699999Y-88430035D01*
X112700000Y-88430035D01*
X112700001Y-88430035D01*
X112712947Y-88428330D01*
X112837183Y-88411974D01*
X112965018Y-88359024D01*
X113074791Y-88274791D01*
X113159024Y-88165018D01*
X113211974Y-88037183D01*
X113230035Y-87900000D01*
X113211974Y-87762817D01*
X113159024Y-87634983D01*
X113074791Y-87525209D01*
X113074789Y-87525208D01*
X113074789Y-87525207D01*
X112965015Y-87440974D01*
X112837186Y-87388027D01*
X112837184Y-87388026D01*
X112837183Y-87388026D01*
X112745727Y-87375985D01*
X112700001Y-87369965D01*
X112699999Y-87369965D01*
X112631408Y-87378995D01*
X112562817Y-87388026D01*
X112562816Y-87388026D01*
X112562813Y-87388027D01*
X112434985Y-87440974D01*
X112325209Y-87525209D01*
X112240973Y-87634986D01*
X112239060Y-87639607D01*
X112195219Y-87694010D01*
X112128924Y-87716074D01*
X112061225Y-87698794D01*
X112013615Y-87647656D01*
X112000500Y-87592153D01*
X112000500Y-85360380D01*
X112000500Y-85360378D01*
X111973207Y-85258518D01*
X111963925Y-85242441D01*
X111948375Y-85196630D01*
X111935593Y-85099541D01*
X111900293Y-85014318D01*
X111882644Y-84971709D01*
X111882643Y-84971708D01*
X111882643Y-84971707D01*
X111798410Y-84861933D01*
X111798407Y-84861931D01*
X111798406Y-84861929D01*
X111757879Y-84830831D01*
X111716676Y-84774403D01*
X111712522Y-84704657D01*
X111746735Y-84643737D01*
X111808453Y-84610984D01*
X111854569Y-84612358D01*
X111854760Y-84610913D01*
X111862816Y-84611973D01*
X111862817Y-84611974D01*
X111949306Y-84623360D01*
X111999999Y-84630035D01*
X112000000Y-84630035D01*
X112000001Y-84630035D01*
X112012947Y-84628330D01*
X112137183Y-84611974D01*
X112265018Y-84559024D01*
X112374791Y-84474791D01*
X112459024Y-84365018D01*
X112511974Y-84237183D01*
X112530035Y-84100000D01*
X112511974Y-83962817D01*
X112459024Y-83834983D01*
X112374791Y-83725209D01*
X112374789Y-83725208D01*
X112374789Y-83725207D01*
X112265015Y-83640974D01*
X112137186Y-83588027D01*
X112137184Y-83588026D01*
X112137183Y-83588026D01*
X112045727Y-83575985D01*
X112000001Y-83569965D01*
X111999999Y-83569965D01*
X111931408Y-83578995D01*
X111862817Y-83588026D01*
X111862816Y-83588026D01*
X111862813Y-83588027D01*
X111734985Y-83640974D01*
X111625209Y-83725209D01*
X111540974Y-83834985D01*
X111488027Y-83962813D01*
X111488026Y-83962816D01*
X111488026Y-83962817D01*
X111481554Y-84011974D01*
X111469965Y-84099999D01*
X111469965Y-84100000D01*
X111488026Y-84237181D01*
X111488027Y-84237186D01*
X111540974Y-84365015D01*
X111540975Y-84365017D01*
X111540976Y-84365018D01*
X111625208Y-84474790D01*
X111625211Y-84474793D01*
X111665739Y-84505892D01*
X111706941Y-84562320D01*
X111711096Y-84632066D01*
X111676883Y-84692986D01*
X111615166Y-84725738D01*
X111569049Y-84724366D01*
X111568859Y-84725811D01*
X111560802Y-84724750D01*
X111474312Y-84713363D01*
X111423620Y-84706689D01*
X111423618Y-84706689D01*
X111355027Y-84715719D01*
X111286436Y-84724750D01*
X111286435Y-84724750D01*
X111286432Y-84724751D01*
X111158603Y-84777698D01*
X111158601Y-84777700D01*
X111094355Y-84826998D01*
X111029186Y-84852192D01*
X110960741Y-84838153D01*
X110917294Y-84799745D01*
X110820045Y-84660858D01*
X110659141Y-84499954D01*
X110472734Y-84369432D01*
X110472732Y-84369431D01*
X110266497Y-84273261D01*
X110266488Y-84273258D01*
X110046697Y-84214366D01*
X110046693Y-84214365D01*
X110046692Y-84214365D01*
X110046691Y-84214364D01*
X110046686Y-84214364D01*
X109820002Y-84194532D01*
X109819998Y-84194532D01*
X109593313Y-84214364D01*
X109593302Y-84214366D01*
X109373511Y-84273258D01*
X109373502Y-84273261D01*
X109167267Y-84369431D01*
X109167265Y-84369432D01*
X108980858Y-84499954D01*
X108819954Y-84660858D01*
X108689432Y-84847265D01*
X108689431Y-84847267D01*
X108593261Y-85053502D01*
X108593258Y-85053511D01*
X108534366Y-85273302D01*
X108534364Y-85273313D01*
X108514532Y-85499998D01*
X108514532Y-85500001D01*
X108534364Y-85726686D01*
X108534366Y-85726697D01*
X108593258Y-85946488D01*
X108593261Y-85946497D01*
X108689431Y-86152732D01*
X108689432Y-86152734D01*
X108819954Y-86339141D01*
X108980858Y-86500045D01*
X109016649Y-86525106D01*
X109060274Y-86579682D01*
X109067468Y-86649181D01*
X109035946Y-86711535D01*
X109004551Y-86735732D01*
X108996770Y-86739943D01*
X108949943Y-86776389D01*
X109690591Y-87517037D01*
X109627007Y-87534075D01*
X109512993Y-87599901D01*
X109419901Y-87692993D01*
X109354075Y-87807007D01*
X109337037Y-87870590D01*
X108596563Y-87130117D01*
X108496267Y-87283633D01*
X108496265Y-87283637D01*
X108396412Y-87511282D01*
X108335387Y-87752261D01*
X108335385Y-87752270D01*
X108314859Y-87999994D01*
X95500500Y-87999994D01*
X95500500Y-81105131D01*
X100519500Y-81105131D01*
X100519500Y-83694856D01*
X100519502Y-83694882D01*
X100522413Y-83719987D01*
X100522415Y-83719991D01*
X100567793Y-83822764D01*
X100567794Y-83822765D01*
X100647235Y-83902206D01*
X100750009Y-83947585D01*
X100775135Y-83950500D01*
X103864864Y-83950499D01*
X103864879Y-83950497D01*
X103864882Y-83950497D01*
X103889987Y-83947586D01*
X103889988Y-83947585D01*
X103889991Y-83947585D01*
X103992765Y-83902206D01*
X104072206Y-83822765D01*
X104117585Y-83719991D01*
X104120500Y-83694865D01*
X104120499Y-82799999D01*
X114569965Y-82799999D01*
X114569965Y-82800000D01*
X114588026Y-82937181D01*
X114588027Y-82937186D01*
X114640974Y-83065015D01*
X114640975Y-83065017D01*
X114640976Y-83065018D01*
X114725209Y-83174791D01*
X114834982Y-83259024D01*
X114962817Y-83311974D01*
X115016397Y-83319027D01*
X115080292Y-83347293D01*
X115087892Y-83354285D01*
X116375179Y-84641571D01*
X116375189Y-84641582D01*
X116379519Y-84645912D01*
X116379520Y-84645913D01*
X116454087Y-84720480D01*
X116545413Y-84773207D01*
X116647273Y-84800501D01*
X116647275Y-84800501D01*
X116760323Y-84800501D01*
X116760339Y-84800500D01*
X120211102Y-84800500D01*
X120278141Y-84820185D01*
X120323896Y-84872989D01*
X120333840Y-84942147D01*
X120325663Y-84971952D01*
X120288027Y-85062813D01*
X120288026Y-85062816D01*
X120288026Y-85062817D01*
X120269965Y-85200000D01*
X120279616Y-85273308D01*
X120288026Y-85337181D01*
X120288027Y-85337186D01*
X120340974Y-85465015D01*
X120340975Y-85465017D01*
X120340976Y-85465018D01*
X120425209Y-85574791D01*
X120534982Y-85659024D01*
X120662817Y-85711974D01*
X120785702Y-85728152D01*
X120799999Y-85730035D01*
X120800000Y-85730035D01*
X120800001Y-85730035D01*
X120812947Y-85728330D01*
X120937183Y-85711974D01*
X121065018Y-85659024D01*
X121107893Y-85626124D01*
X121173060Y-85600930D01*
X121183379Y-85600500D01*
X124216621Y-85600500D01*
X124283660Y-85620185D01*
X124292093Y-85626114D01*
X124334982Y-85659024D01*
X124462817Y-85711974D01*
X124585702Y-85728152D01*
X124599999Y-85730035D01*
X124600000Y-85730035D01*
X124600001Y-85730035D01*
X124612947Y-85728330D01*
X124737183Y-85711974D01*
X124865018Y-85659024D01*
X124974791Y-85574791D01*
X125059024Y-85465018D01*
X125111974Y-85337183D01*
X125130035Y-85200000D01*
X125111974Y-85062817D01*
X125074337Y-84971952D01*
X125066868Y-84902483D01*
X125098143Y-84840004D01*
X125158232Y-84804352D01*
X125188898Y-84800500D01*
X128552725Y-84800500D01*
X128552727Y-84800500D01*
X128654588Y-84773207D01*
X128745913Y-84720480D01*
X129412108Y-84054283D01*
X129473429Y-84020800D01*
X129483587Y-84019029D01*
X129537183Y-84011974D01*
X129665018Y-83959024D01*
X129774791Y-83874791D01*
X129859024Y-83765018D01*
X129911974Y-83637183D01*
X129930035Y-83500000D01*
X129911974Y-83362817D01*
X129859024Y-83234983D01*
X129774791Y-83125209D01*
X129774789Y-83125208D01*
X129774789Y-83125207D01*
X129665015Y-83040974D01*
X129537186Y-82988027D01*
X129537184Y-82988026D01*
X129537183Y-82988026D01*
X129445727Y-82975985D01*
X129400001Y-82969965D01*
X129399999Y-82969965D01*
X129331408Y-82978995D01*
X129262817Y-82988026D01*
X129262816Y-82988026D01*
X129262813Y-82988027D01*
X129134985Y-83040974D01*
X129025209Y-83125209D01*
X128940974Y-83234985D01*
X128888026Y-83362815D01*
X128880971Y-83416399D01*
X128852703Y-83480295D01*
X128845713Y-83487892D01*
X128370426Y-83963181D01*
X128309103Y-83996666D01*
X128282745Y-83999500D01*
X126030546Y-83999500D01*
X125963507Y-83979815D01*
X125917752Y-83927011D01*
X125907808Y-83857853D01*
X125932171Y-83800013D01*
X125959024Y-83765018D01*
X126011974Y-83637183D01*
X126030035Y-83500000D01*
X126011974Y-83362817D01*
X125959024Y-83234983D01*
X125874791Y-83125209D01*
X125874789Y-83125208D01*
X125874789Y-83125207D01*
X125765015Y-83040974D01*
X125637186Y-82988027D01*
X125637184Y-82988026D01*
X125637183Y-82988026D01*
X125545727Y-82975985D01*
X125500001Y-82969965D01*
X125499999Y-82969965D01*
X125431408Y-82978995D01*
X125362817Y-82988026D01*
X125362816Y-82988026D01*
X125362813Y-82988027D01*
X125234985Y-83040974D01*
X125125209Y-83125209D01*
X125040974Y-83234986D01*
X125000396Y-83332952D01*
X124956555Y-83387356D01*
X124890261Y-83409421D01*
X124885835Y-83409500D01*
X117227254Y-83409500D01*
X117160215Y-83389815D01*
X117139573Y-83373181D01*
X116554285Y-82787892D01*
X116520800Y-82726569D01*
X116519029Y-82716410D01*
X116511974Y-82662817D01*
X116459024Y-82534983D01*
X116374791Y-82425209D01*
X116374789Y-82425208D01*
X116374789Y-82425207D01*
X116265015Y-82340974D01*
X116137186Y-82288027D01*
X116137184Y-82288026D01*
X116137183Y-82288026D01*
X116045727Y-82275985D01*
X116000001Y-82269965D01*
X115999999Y-82269965D01*
X115931408Y-82278995D01*
X115862817Y-82288026D01*
X115862816Y-82288026D01*
X115862813Y-82288027D01*
X115734984Y-82340974D01*
X115734982Y-82340976D01*
X115625486Y-82424996D01*
X115560317Y-82450190D01*
X115491872Y-82436152D01*
X115474513Y-82424995D01*
X115365019Y-82340976D01*
X115365016Y-82340975D01*
X115237186Y-82288027D01*
X115237184Y-82288026D01*
X115237183Y-82288026D01*
X115145727Y-82275985D01*
X115100001Y-82269965D01*
X115099999Y-82269965D01*
X115031408Y-82278995D01*
X114962817Y-82288026D01*
X114962816Y-82288026D01*
X114962813Y-82288027D01*
X114834985Y-82340974D01*
X114725209Y-82425209D01*
X114640974Y-82534985D01*
X114588027Y-82662813D01*
X114588026Y-82662818D01*
X114569965Y-82799999D01*
X104120499Y-82799999D01*
X104120499Y-82199999D01*
X112869965Y-82199999D01*
X112869965Y-82200000D01*
X112888026Y-82337181D01*
X112888027Y-82337186D01*
X112940974Y-82465015D01*
X112940975Y-82465017D01*
X112940976Y-82465018D01*
X113025209Y-82574791D01*
X113134982Y-82659024D01*
X113134983Y-82659024D01*
X113134984Y-82659025D01*
X113177593Y-82676674D01*
X113262817Y-82711974D01*
X113385702Y-82728152D01*
X113399999Y-82730035D01*
X113400000Y-82730035D01*
X113400001Y-82730035D01*
X113412947Y-82728330D01*
X113537183Y-82711974D01*
X113665018Y-82659024D01*
X113774791Y-82574791D01*
X113859024Y-82465018D01*
X113911974Y-82337183D01*
X113930035Y-82200000D01*
X113911974Y-82062817D01*
X113859024Y-81934983D01*
X113859024Y-81934982D01*
X113826124Y-81892106D01*
X113800930Y-81826937D01*
X113800500Y-81816620D01*
X113800500Y-81725000D01*
X120866143Y-81725000D01*
X120878205Y-81816620D01*
X120884204Y-81862181D01*
X120884205Y-81862186D01*
X120937152Y-81990015D01*
X120937153Y-81990017D01*
X120937154Y-81990018D01*
X121021387Y-82099791D01*
X121131160Y-82184024D01*
X121258995Y-82236974D01*
X121381880Y-82253152D01*
X121396177Y-82255035D01*
X121396178Y-82255035D01*
X121396179Y-82255035D01*
X121409125Y-82253330D01*
X121533361Y-82236974D01*
X121661196Y-82184024D01*
X121770969Y-82099791D01*
X121855202Y-81990018D01*
X121908152Y-81862183D01*
X121926213Y-81725000D01*
X121908152Y-81587817D01*
X121855202Y-81459983D01*
X121770969Y-81350209D01*
X121770967Y-81350208D01*
X121770967Y-81350207D01*
X121661193Y-81265974D01*
X121533364Y-81213027D01*
X121533362Y-81213026D01*
X121533361Y-81213026D01*
X121441905Y-81200985D01*
X121396179Y-81194965D01*
X121396177Y-81194965D01*
X121327586Y-81203995D01*
X121258995Y-81213026D01*
X121258994Y-81213026D01*
X121258991Y-81213027D01*
X121131163Y-81265974D01*
X121021387Y-81350209D01*
X120937152Y-81459985D01*
X120884205Y-81587813D01*
X120884204Y-81587816D01*
X120884204Y-81587817D01*
X120866143Y-81725000D01*
X113800500Y-81725000D01*
X113800500Y-81578777D01*
X113820185Y-81511738D01*
X113836819Y-81491096D01*
X116947916Y-78379999D01*
X125969965Y-78379999D01*
X125969965Y-78380000D01*
X125988026Y-78517181D01*
X125988027Y-78517186D01*
X126040974Y-78645015D01*
X126040975Y-78645017D01*
X126040976Y-78645018D01*
X126125209Y-78754791D01*
X126234982Y-78839024D01*
X126362817Y-78891974D01*
X126485702Y-78908152D01*
X126499999Y-78910035D01*
X126500000Y-78910035D01*
X126500001Y-78910035D01*
X126512947Y-78908330D01*
X126637183Y-78891974D01*
X126765018Y-78839024D01*
X126874791Y-78754791D01*
X126959024Y-78645018D01*
X127011974Y-78517183D01*
X127030035Y-78380000D01*
X127011974Y-78242817D01*
X126959024Y-78114983D01*
X126874791Y-78005209D01*
X126874789Y-78005208D01*
X126874789Y-78005207D01*
X126791082Y-77940976D01*
X126765018Y-77920976D01*
X126765017Y-77920975D01*
X126765015Y-77920974D01*
X126637186Y-77868027D01*
X126637184Y-77868026D01*
X126637183Y-77868026D01*
X126545727Y-77855985D01*
X126500001Y-77849965D01*
X126499999Y-77849965D01*
X126431408Y-77858995D01*
X126362817Y-77868026D01*
X126362816Y-77868026D01*
X126362813Y-77868027D01*
X126234985Y-77920974D01*
X126125209Y-78005209D01*
X126040974Y-78114985D01*
X125988027Y-78242813D01*
X125988026Y-78242818D01*
X125969965Y-78379999D01*
X116947916Y-78379999D01*
X118797915Y-76530000D01*
X131682769Y-76530000D01*
X132726988Y-76530000D01*
X132694075Y-76587007D01*
X132660000Y-76714174D01*
X132660000Y-76845826D01*
X132694075Y-76972993D01*
X132726988Y-77030000D01*
X131682769Y-77030000D01*
X131693242Y-77096126D01*
X131693242Y-77096129D01*
X131758904Y-77298217D01*
X131855379Y-77487557D01*
X131980272Y-77659459D01*
X131980276Y-77659464D01*
X132130535Y-77809723D01*
X132130540Y-77809727D01*
X132294560Y-77928894D01*
X132337226Y-77984223D01*
X132343205Y-78053837D01*
X132310600Y-78115632D01*
X132267166Y-78144566D01*
X132137658Y-78195638D01*
X132017077Y-78287077D01*
X131925639Y-78407656D01*
X131870122Y-78548438D01*
X131864188Y-78597853D01*
X131859500Y-78636898D01*
X131859500Y-79923102D01*
X131865126Y-79969954D01*
X131870122Y-80011561D01*
X131925639Y-80152343D01*
X132017077Y-80272922D01*
X132137656Y-80364360D01*
X132137657Y-80364360D01*
X132137658Y-80364361D01*
X132278436Y-80419877D01*
X132366898Y-80430500D01*
X132366903Y-80430500D01*
X133953097Y-80430500D01*
X133953102Y-80430500D01*
X134041564Y-80419877D01*
X134182342Y-80364361D01*
X134302922Y-80272922D01*
X134394361Y-80152342D01*
X134449877Y-80011564D01*
X134460500Y-79923102D01*
X134460500Y-78636898D01*
X134449877Y-78548436D01*
X134394361Y-78407658D01*
X134394360Y-78407657D01*
X134394360Y-78407656D01*
X134302922Y-78287077D01*
X134182341Y-78195638D01*
X134052833Y-78144566D01*
X133997690Y-78101660D01*
X133974497Y-78035752D01*
X133990618Y-77967768D01*
X134025439Y-77928893D01*
X134189466Y-77809721D01*
X134339723Y-77659464D01*
X134339727Y-77659459D01*
X134464620Y-77487557D01*
X134561095Y-77298217D01*
X134626757Y-77096129D01*
X134626757Y-77096126D01*
X134637231Y-77030000D01*
X133593012Y-77030000D01*
X133625925Y-76972993D01*
X133660000Y-76845826D01*
X133660000Y-76714174D01*
X133625925Y-76587007D01*
X133593012Y-76530000D01*
X134637231Y-76530000D01*
X134626757Y-76463873D01*
X134626757Y-76463870D01*
X134561095Y-76261782D01*
X134464620Y-76072442D01*
X134339727Y-75900540D01*
X134339723Y-75900535D01*
X134189464Y-75750276D01*
X134189459Y-75750272D01*
X134017557Y-75625379D01*
X133828217Y-75528904D01*
X133626129Y-75463242D01*
X133416246Y-75430000D01*
X133410000Y-75430000D01*
X133410000Y-76346988D01*
X133352993Y-76314075D01*
X133225826Y-76280000D01*
X133094174Y-76280000D01*
X132967007Y-76314075D01*
X132910000Y-76346988D01*
X132910000Y-75430000D01*
X132903754Y-75430000D01*
X132693872Y-75463242D01*
X132693869Y-75463242D01*
X132491782Y-75528904D01*
X132302442Y-75625379D01*
X132130540Y-75750272D01*
X132130535Y-75750276D01*
X131980276Y-75900535D01*
X131980272Y-75900540D01*
X131855379Y-76072442D01*
X131758904Y-76261782D01*
X131693242Y-76463870D01*
X131693242Y-76463873D01*
X131682769Y-76530000D01*
X118797915Y-76530000D01*
X120291096Y-75036819D01*
X120352419Y-75003334D01*
X120378777Y-75000500D01*
X125516621Y-75000500D01*
X125583660Y-75020185D01*
X125592093Y-75026114D01*
X125634982Y-75059024D01*
X125762817Y-75111974D01*
X125885702Y-75128152D01*
X125899999Y-75130035D01*
X125900000Y-75130035D01*
X125900001Y-75130035D01*
X125912947Y-75128330D01*
X126037183Y-75111974D01*
X126165018Y-75059024D01*
X126274791Y-74974791D01*
X126359024Y-74865018D01*
X126411974Y-74737183D01*
X126430035Y-74600000D01*
X126411974Y-74462817D01*
X126359024Y-74334983D01*
X126274791Y-74225209D01*
X126274789Y-74225208D01*
X126274789Y-74225207D01*
X126165015Y-74140974D01*
X126037186Y-74088027D01*
X126037184Y-74088026D01*
X126037183Y-74088026D01*
X125945727Y-74075985D01*
X125900001Y-74069965D01*
X125899999Y-74069965D01*
X125831408Y-74078995D01*
X125762817Y-74088026D01*
X125762816Y-74088026D01*
X125762813Y-74088027D01*
X125634982Y-74140975D01*
X125592108Y-74173875D01*
X125526939Y-74199070D01*
X125516621Y-74199500D01*
X120108795Y-74199500D01*
X120006932Y-74226793D01*
X119915609Y-74279520D01*
X119915606Y-74279522D01*
X113079522Y-81115606D01*
X113079518Y-81115612D01*
X113026792Y-81206934D01*
X113026793Y-81206935D01*
X112999500Y-81308795D01*
X112999500Y-81816620D01*
X112979815Y-81883659D01*
X112973876Y-81892106D01*
X112940975Y-81934982D01*
X112888027Y-82062813D01*
X112888026Y-82062818D01*
X112869965Y-82199999D01*
X104120499Y-82199999D01*
X104120499Y-81105136D01*
X104120497Y-81105117D01*
X104117586Y-81080012D01*
X104117585Y-81080010D01*
X104117585Y-81080009D01*
X104072206Y-80977235D01*
X103992765Y-80897794D01*
X103992763Y-80897793D01*
X103889992Y-80852415D01*
X103864865Y-80849500D01*
X100775143Y-80849500D01*
X100775117Y-80849502D01*
X100750012Y-80852413D01*
X100750008Y-80852415D01*
X100647235Y-80897793D01*
X100567794Y-80977234D01*
X100522415Y-81080006D01*
X100522415Y-81080008D01*
X100519500Y-81105131D01*
X95500500Y-81105131D01*
X95500500Y-78399999D01*
X110169965Y-78399999D01*
X110169965Y-78400000D01*
X110188026Y-78537181D01*
X110188027Y-78537186D01*
X110240974Y-78665015D01*
X110240975Y-78665017D01*
X110240976Y-78665018D01*
X110325209Y-78774791D01*
X110434982Y-78859024D01*
X110562817Y-78911974D01*
X110685702Y-78928152D01*
X110699999Y-78930035D01*
X110700000Y-78930035D01*
X110700001Y-78930035D01*
X110712947Y-78928330D01*
X110837183Y-78911974D01*
X110965018Y-78859024D01*
X111074791Y-78774791D01*
X111159024Y-78665018D01*
X111211974Y-78537183D01*
X111230035Y-78400000D01*
X111211974Y-78262817D01*
X111159024Y-78134983D01*
X111074791Y-78025209D01*
X111074789Y-78025208D01*
X111074789Y-78025207D01*
X111005412Y-77971972D01*
X110965018Y-77940976D01*
X110965017Y-77940975D01*
X110965015Y-77940974D01*
X110837186Y-77888027D01*
X110837184Y-77888026D01*
X110837183Y-77888026D01*
X110745727Y-77875985D01*
X110700001Y-77869965D01*
X110699999Y-77869965D01*
X110631408Y-77878995D01*
X110562817Y-77888026D01*
X110562816Y-77888026D01*
X110562813Y-77888027D01*
X110434985Y-77940974D01*
X110325209Y-78025209D01*
X110240974Y-78134985D01*
X110188027Y-78262813D01*
X110188026Y-78262818D01*
X110169965Y-78399999D01*
X95500500Y-78399999D01*
X95500500Y-77459999D01*
X101869965Y-77459999D01*
X101869965Y-77460000D01*
X101888026Y-77597181D01*
X101888027Y-77597186D01*
X101940974Y-77725015D01*
X101940975Y-77725017D01*
X101940976Y-77725018D01*
X102025209Y-77834791D01*
X102134982Y-77919024D01*
X102134983Y-77919024D01*
X102134984Y-77919025D01*
X102158808Y-77928893D01*
X102262817Y-77971974D01*
X102385702Y-77988152D01*
X102399999Y-77990035D01*
X102400000Y-77990035D01*
X102400001Y-77990035D01*
X102412947Y-77988330D01*
X102537183Y-77971974D01*
X102665018Y-77919024D01*
X102774791Y-77834791D01*
X102859024Y-77725018D01*
X102911974Y-77597183D01*
X102930035Y-77460000D01*
X102911974Y-77322817D01*
X102859024Y-77194983D01*
X102774791Y-77085209D01*
X102774789Y-77085208D01*
X102774789Y-77085207D01*
X102665015Y-77000974D01*
X102537186Y-76948027D01*
X102537184Y-76948026D01*
X102537183Y-76948026D01*
X102445727Y-76935985D01*
X102400001Y-76929965D01*
X102399999Y-76929965D01*
X102331408Y-76938995D01*
X102262817Y-76948026D01*
X102262816Y-76948026D01*
X102262813Y-76948027D01*
X102134985Y-77000974D01*
X102025209Y-77085209D01*
X101940974Y-77194985D01*
X101888027Y-77322813D01*
X101888026Y-77322818D01*
X101869965Y-77459999D01*
X95500500Y-77459999D01*
X95500500Y-76100000D01*
X102869965Y-76100000D01*
X102883196Y-76200500D01*
X102888026Y-76237181D01*
X102888027Y-76237186D01*
X102940974Y-76365015D01*
X102940975Y-76365017D01*
X102940976Y-76365018D01*
X103025209Y-76474791D01*
X103134982Y-76559024D01*
X103262817Y-76611974D01*
X103385702Y-76628152D01*
X103399999Y-76630035D01*
X103400000Y-76630035D01*
X103400001Y-76630035D01*
X103412947Y-76628330D01*
X103537183Y-76611974D01*
X103665018Y-76559024D01*
X103774791Y-76474791D01*
X103859024Y-76365018D01*
X103895462Y-76277048D01*
X103939302Y-76222644D01*
X104005596Y-76200579D01*
X104010023Y-76200500D01*
X106552725Y-76200500D01*
X106552727Y-76200500D01*
X106654588Y-76173207D01*
X106745913Y-76120480D01*
X112276392Y-70589999D01*
X123019965Y-70589999D01*
X123019965Y-70590000D01*
X123038026Y-70727181D01*
X123038027Y-70727186D01*
X123090974Y-70855015D01*
X123090975Y-70855017D01*
X123090976Y-70855018D01*
X123175209Y-70964791D01*
X123284982Y-71049024D01*
X123412817Y-71101974D01*
X123535702Y-71118152D01*
X123549999Y-71120035D01*
X123550000Y-71120035D01*
X123550001Y-71120035D01*
X123562947Y-71118330D01*
X123687183Y-71101974D01*
X123815018Y-71049024D01*
X123924791Y-70964791D01*
X124009024Y-70855018D01*
X124061974Y-70727183D01*
X124080035Y-70590000D01*
X124061974Y-70452817D01*
X124009024Y-70324983D01*
X123924791Y-70215209D01*
X123924789Y-70215208D01*
X123924789Y-70215207D01*
X123815015Y-70130974D01*
X123687186Y-70078027D01*
X123687184Y-70078026D01*
X123687183Y-70078026D01*
X123595727Y-70065985D01*
X123550001Y-70059965D01*
X123549999Y-70059965D01*
X123481408Y-70068995D01*
X123412817Y-70078026D01*
X123412816Y-70078026D01*
X123412813Y-70078027D01*
X123284985Y-70130974D01*
X123175209Y-70215209D01*
X123090974Y-70324985D01*
X123038027Y-70452813D01*
X123038026Y-70452818D01*
X123019965Y-70589999D01*
X112276392Y-70589999D01*
X112866392Y-69999999D01*
X128294922Y-69999999D01*
X128294922Y-70000000D01*
X128315219Y-70387287D01*
X128375886Y-70770323D01*
X128375887Y-70770330D01*
X128476262Y-71144936D01*
X128615244Y-71506994D01*
X128791310Y-71852543D01*
X129002523Y-72177783D01*
X129002525Y-72177785D01*
X129211096Y-72435348D01*
X130705747Y-70940697D01*
X130779588Y-71042330D01*
X130957670Y-71220412D01*
X131059301Y-71294251D01*
X129564650Y-72788902D01*
X129822214Y-72997475D01*
X129822216Y-72997476D01*
X130147456Y-73208689D01*
X130493005Y-73384755D01*
X130855063Y-73523737D01*
X131229669Y-73624112D01*
X131229676Y-73624113D01*
X131612712Y-73684780D01*
X131999999Y-73705078D01*
X132000001Y-73705078D01*
X132387287Y-73684780D01*
X132770323Y-73624113D01*
X132770330Y-73624112D01*
X133144936Y-73523737D01*
X133506994Y-73384755D01*
X133852543Y-73208689D01*
X134177771Y-72997484D01*
X134177784Y-72997474D01*
X134435348Y-72788902D01*
X132940698Y-71294252D01*
X133042330Y-71220412D01*
X133220412Y-71042330D01*
X133294252Y-70940698D01*
X134788902Y-72435348D01*
X134997474Y-72177784D01*
X134997484Y-72177771D01*
X135208689Y-71852543D01*
X135384755Y-71506994D01*
X135523737Y-71144936D01*
X135624112Y-70770330D01*
X135624113Y-70770323D01*
X135684780Y-70387287D01*
X135705078Y-70000000D01*
X135705078Y-69999999D01*
X135684780Y-69612712D01*
X135624113Y-69229676D01*
X135624112Y-69229669D01*
X135523737Y-68855063D01*
X135384755Y-68493005D01*
X135208689Y-68147456D01*
X134997476Y-67822216D01*
X134997475Y-67822214D01*
X134788902Y-67564650D01*
X133294251Y-69059301D01*
X133220412Y-68957670D01*
X133042330Y-68779588D01*
X132940698Y-68705748D01*
X134435349Y-67211096D01*
X134177785Y-67002525D01*
X134177783Y-67002523D01*
X133852543Y-66791310D01*
X133506994Y-66615244D01*
X133144936Y-66476262D01*
X132770330Y-66375887D01*
X132770323Y-66375886D01*
X132387287Y-66315219D01*
X132000001Y-66294922D01*
X131999999Y-66294922D01*
X131612712Y-66315219D01*
X131229676Y-66375886D01*
X131229669Y-66375887D01*
X130855063Y-66476262D01*
X130493005Y-66615244D01*
X130147456Y-66791310D01*
X129822206Y-67002531D01*
X129564649Y-67211095D01*
X129564649Y-67211096D01*
X131059301Y-68705748D01*
X130957670Y-68779588D01*
X130779588Y-68957670D01*
X130705748Y-69059301D01*
X129211096Y-67564649D01*
X129211095Y-67564649D01*
X129002531Y-67822206D01*
X128791310Y-68147456D01*
X128615244Y-68493005D01*
X128476262Y-68855063D01*
X128375887Y-69229669D01*
X128375886Y-69229676D01*
X128315219Y-69612712D01*
X128294922Y-69999999D01*
X112866392Y-69999999D01*
X113006421Y-69859970D01*
X113067742Y-69826487D01*
X113077908Y-69824714D01*
X113174683Y-69811974D01*
X113302518Y-69759024D01*
X113412291Y-69674791D01*
X113496524Y-69565018D01*
X113549474Y-69437183D01*
X113567535Y-69300000D01*
X113549474Y-69162817D01*
X113496524Y-69034983D01*
X113412291Y-68925209D01*
X113412289Y-68925208D01*
X113412289Y-68925207D01*
X113302515Y-68840974D01*
X113174686Y-68788027D01*
X113174684Y-68788026D01*
X113174683Y-68788026D01*
X113083227Y-68775985D01*
X113037501Y-68769965D01*
X113037499Y-68769965D01*
X112968908Y-68778995D01*
X112900317Y-68788026D01*
X112900316Y-68788026D01*
X112900313Y-68788027D01*
X112772485Y-68840974D01*
X112662709Y-68925209D01*
X112578474Y-69034985D01*
X112525526Y-69162815D01*
X112524157Y-69173215D01*
X112495887Y-69237111D01*
X112488899Y-69244706D01*
X106370426Y-75363181D01*
X106309103Y-75396666D01*
X106282745Y-75399500D01*
X103647273Y-75399500D01*
X103545410Y-75426793D01*
X103454087Y-75479520D01*
X103454083Y-75479523D01*
X103387891Y-75545714D01*
X103326567Y-75579199D01*
X103316399Y-75580971D01*
X103262815Y-75588026D01*
X103134985Y-75640974D01*
X103025209Y-75725209D01*
X102940974Y-75834985D01*
X102888027Y-75962813D01*
X102888026Y-75962816D01*
X102888026Y-75962817D01*
X102869965Y-76100000D01*
X95500500Y-76100000D01*
X95500500Y-70002706D01*
X95500559Y-69999999D01*
X96294922Y-69999999D01*
X96294922Y-70000000D01*
X96315219Y-70387287D01*
X96375886Y-70770323D01*
X96375887Y-70770330D01*
X96476262Y-71144936D01*
X96615244Y-71506994D01*
X96791310Y-71852543D01*
X97002523Y-72177783D01*
X97002525Y-72177785D01*
X97211096Y-72435348D01*
X98705747Y-70940697D01*
X98779588Y-71042330D01*
X98957670Y-71220412D01*
X99059301Y-71294251D01*
X97564650Y-72788902D01*
X97822214Y-72997475D01*
X97822216Y-72997476D01*
X98147456Y-73208689D01*
X98493005Y-73384755D01*
X98855063Y-73523737D01*
X99229669Y-73624112D01*
X99229676Y-73624113D01*
X99612712Y-73684780D01*
X99999999Y-73705078D01*
X100000001Y-73705078D01*
X100387287Y-73684780D01*
X100770323Y-73624113D01*
X100770330Y-73624112D01*
X101144936Y-73523737D01*
X101506994Y-73384755D01*
X101852543Y-73208689D01*
X102177771Y-72997484D01*
X102177784Y-72997474D01*
X102435348Y-72788902D01*
X100940698Y-71294252D01*
X101042330Y-71220412D01*
X101220412Y-71042330D01*
X101294252Y-70940698D01*
X102788902Y-72435348D01*
X102997474Y-72177784D01*
X102997484Y-72177771D01*
X103208689Y-71852543D01*
X103384755Y-71506994D01*
X103523737Y-71144936D01*
X103624112Y-70770330D01*
X103624113Y-70770323D01*
X103655841Y-70570000D01*
X106219965Y-70570000D01*
X106225782Y-70614187D01*
X106238026Y-70707181D01*
X106238027Y-70707186D01*
X106290974Y-70835015D01*
X106290975Y-70835017D01*
X106290976Y-70835018D01*
X106375209Y-70944791D01*
X106484982Y-71029024D01*
X106612817Y-71081974D01*
X106735702Y-71098152D01*
X106749999Y-71100035D01*
X106750000Y-71100035D01*
X106750001Y-71100035D01*
X106762947Y-71098330D01*
X106887183Y-71081974D01*
X107015018Y-71029024D01*
X107124791Y-70944791D01*
X107209024Y-70835018D01*
X107261974Y-70707183D01*
X107280035Y-70570000D01*
X107261974Y-70432817D01*
X107209024Y-70304983D01*
X107124791Y-70195209D01*
X107124789Y-70195208D01*
X107124789Y-70195207D01*
X107041082Y-70130976D01*
X107015018Y-70110976D01*
X107015017Y-70110975D01*
X107015015Y-70110974D01*
X106887186Y-70058027D01*
X106887184Y-70058026D01*
X106887183Y-70058026D01*
X106795727Y-70045985D01*
X106750001Y-70039965D01*
X106749999Y-70039965D01*
X106681408Y-70048995D01*
X106612817Y-70058026D01*
X106612816Y-70058026D01*
X106612813Y-70058027D01*
X106484985Y-70110974D01*
X106375209Y-70195209D01*
X106290974Y-70304985D01*
X106238027Y-70432813D01*
X106238026Y-70432816D01*
X106238026Y-70432817D01*
X106219965Y-70570000D01*
X103655841Y-70570000D01*
X103684780Y-70387287D01*
X103705078Y-70000000D01*
X103705078Y-69999999D01*
X103684780Y-69612712D01*
X103624113Y-69229676D01*
X103624112Y-69229669D01*
X103523737Y-68855063D01*
X103384755Y-68493005D01*
X103208689Y-68147456D01*
X102997476Y-67822216D01*
X102997475Y-67822214D01*
X102788902Y-67564650D01*
X101294251Y-69059301D01*
X101220412Y-68957670D01*
X101042330Y-68779588D01*
X100940698Y-68705748D01*
X102435349Y-67211096D01*
X102177785Y-67002525D01*
X102177783Y-67002523D01*
X101852543Y-66791310D01*
X101506994Y-66615244D01*
X101144936Y-66476262D01*
X100770330Y-66375887D01*
X100770323Y-66375886D01*
X100387287Y-66315219D01*
X100000001Y-66294922D01*
X99999999Y-66294922D01*
X99612712Y-66315219D01*
X99229676Y-66375886D01*
X99229669Y-66375887D01*
X98855063Y-66476262D01*
X98493005Y-66615244D01*
X98147456Y-66791310D01*
X97822206Y-67002531D01*
X97564649Y-67211095D01*
X97564649Y-67211096D01*
X99059301Y-68705748D01*
X98957670Y-68779588D01*
X98779588Y-68957670D01*
X98705748Y-69059301D01*
X97211096Y-67564649D01*
X97211095Y-67564649D01*
X97002531Y-67822206D01*
X96791310Y-68147456D01*
X96615244Y-68493005D01*
X96476262Y-68855063D01*
X96375887Y-69229669D01*
X96375886Y-69229676D01*
X96315219Y-69612712D01*
X96294922Y-69999999D01*
X95500559Y-69999999D01*
X95500618Y-69997297D01*
X95505998Y-69874077D01*
X95517386Y-69613226D01*
X95518326Y-69602495D01*
X95568152Y-69224025D01*
X95570025Y-69213405D01*
X95652649Y-68840709D01*
X95655440Y-68830295D01*
X95770230Y-68466227D01*
X95773917Y-68456095D01*
X95920003Y-68103412D01*
X95924561Y-68093638D01*
X96100822Y-67755045D01*
X96106217Y-67745700D01*
X96311325Y-67423744D01*
X96317515Y-67414905D01*
X96549896Y-67112060D01*
X96556834Y-67103791D01*
X96814726Y-66822352D01*
X96822352Y-66814726D01*
X97103791Y-66556834D01*
X97112060Y-66549896D01*
X97414905Y-66317515D01*
X97423744Y-66311325D01*
X97745700Y-66106217D01*
X97755045Y-66100822D01*
X98093638Y-65924561D01*
X98103412Y-65920003D01*
X98456095Y-65773917D01*
X98466227Y-65770230D01*
X98830295Y-65655440D01*
X98840709Y-65652649D01*
X99213405Y-65570025D01*
X99224025Y-65568152D01*
X99602495Y-65518326D01*
X99613226Y-65517386D01*
X99997297Y-65500617D01*
X100002706Y-65500500D01*
X100065892Y-65500500D01*
X131934108Y-65500500D01*
X131997294Y-65500500D01*
X132002702Y-65500617D01*
G37*
%TD.AperFunction*%
%TD*%
M02*
