%TF.GenerationSoftware,KiCad,Pcbnew,8.0.8*%
%TF.CreationDate,2025-01-29T06:06:35+01:00*%
%TF.ProjectId,PCB_Gant,5043425f-4761-46e7-942e-6b696361645f,rev?*%
%TF.SameCoordinates,Original*%
%TF.FileFunction,Copper,L1,Top*%
%TF.FilePolarity,Positive*%
%FSLAX46Y46*%
G04 Gerber Fmt 4.6, Leading zero omitted, Abs format (unit mm)*
G04 Created by KiCad (PCBNEW 8.0.8) date 2025-01-29 06:06:35*
%MOMM*%
%LPD*%
G01*
G04 APERTURE LIST*
G04 Aperture macros list*
%AMRoundRect*
0 Rectangle with rounded corners*
0 $1 Rounding radius*
0 $2 $3 $4 $5 $6 $7 $8 $9 X,Y pos of 4 corners*
0 Add a 4 corners polygon primitive as box body*
4,1,4,$2,$3,$4,$5,$6,$7,$8,$9,$2,$3,0*
0 Add four circle primitives for the rounded corners*
1,1,$1+$1,$2,$3*
1,1,$1+$1,$4,$5*
1,1,$1+$1,$6,$7*
1,1,$1+$1,$8,$9*
0 Add four rect primitives between the rounded corners*
20,1,$1+$1,$2,$3,$4,$5,0*
20,1,$1+$1,$4,$5,$6,$7,0*
20,1,$1+$1,$6,$7,$8,$9,0*
20,1,$1+$1,$8,$9,$2,$3,0*%
G04 Aperture macros list end*
%TA.AperFunction,SMDPad,CuDef*%
%ADD10RoundRect,0.140000X0.219203X0.021213X0.021213X0.219203X-0.219203X-0.021213X-0.021213X-0.219203X0*%
%TD*%
%TA.AperFunction,SMDPad,CuDef*%
%ADD11RoundRect,0.375000X-0.625000X-0.375000X0.625000X-0.375000X0.625000X0.375000X-0.625000X0.375000X0*%
%TD*%
%TA.AperFunction,SMDPad,CuDef*%
%ADD12RoundRect,0.500000X-0.500000X-1.400000X0.500000X-1.400000X0.500000X1.400000X-0.500000X1.400000X0*%
%TD*%
%TA.AperFunction,SMDPad,CuDef*%
%ADD13RoundRect,0.135000X0.135000X0.185000X-0.135000X0.185000X-0.135000X-0.185000X0.135000X-0.185000X0*%
%TD*%
%TA.AperFunction,SMDPad,CuDef*%
%ADD14C,1.500000*%
%TD*%
%TA.AperFunction,SMDPad,CuDef*%
%ADD15RoundRect,0.150000X-0.150000X0.825000X-0.150000X-0.825000X0.150000X-0.825000X0.150000X0.825000X0*%
%TD*%
%TA.AperFunction,SMDPad,CuDef*%
%ADD16RoundRect,0.250000X-1.137500X-0.550000X1.137500X-0.550000X1.137500X0.550000X-1.137500X0.550000X0*%
%TD*%
%TA.AperFunction,SMDPad,CuDef*%
%ADD17RoundRect,0.250000X-0.362500X-1.425000X0.362500X-1.425000X0.362500X1.425000X-0.362500X1.425000X0*%
%TD*%
%TA.AperFunction,SMDPad,CuDef*%
%ADD18RoundRect,0.135000X-0.185000X0.135000X-0.185000X-0.135000X0.185000X-0.135000X0.185000X0.135000X0*%
%TD*%
%TA.AperFunction,SMDPad,CuDef*%
%ADD19RoundRect,0.135000X0.185000X-0.135000X0.185000X0.135000X-0.185000X0.135000X-0.185000X-0.135000X0*%
%TD*%
%TA.AperFunction,SMDPad,CuDef*%
%ADD20RoundRect,0.140000X0.140000X0.170000X-0.140000X0.170000X-0.140000X-0.170000X0.140000X-0.170000X0*%
%TD*%
%TA.AperFunction,SMDPad,CuDef*%
%ADD21RoundRect,0.140000X-0.219203X-0.021213X-0.021213X-0.219203X0.219203X0.021213X0.021213X0.219203X0*%
%TD*%
%TA.AperFunction,SMDPad,CuDef*%
%ADD22RoundRect,0.140000X-0.170000X0.140000X-0.170000X-0.140000X0.170000X-0.140000X0.170000X0.140000X0*%
%TD*%
%TA.AperFunction,ComponentPad*%
%ADD23RoundRect,0.250000X0.750000X-0.600000X0.750000X0.600000X-0.750000X0.600000X-0.750000X-0.600000X0*%
%TD*%
%TA.AperFunction,ComponentPad*%
%ADD24O,2.000000X1.700000*%
%TD*%
%TA.AperFunction,ComponentPad*%
%ADD25C,0.800000*%
%TD*%
%TA.AperFunction,ComponentPad*%
%ADD26C,6.400000*%
%TD*%
%TA.AperFunction,SMDPad,CuDef*%
%ADD27RoundRect,0.140000X0.170000X-0.140000X0.170000X0.140000X-0.170000X0.140000X-0.170000X-0.140000X0*%
%TD*%
%TA.AperFunction,SMDPad,CuDef*%
%ADD28RoundRect,0.135000X-0.135000X-0.185000X0.135000X-0.185000X0.135000X0.185000X-0.135000X0.185000X0*%
%TD*%
%TA.AperFunction,ComponentPad*%
%ADD29RoundRect,0.250000X-0.600000X-0.725000X0.600000X-0.725000X0.600000X0.725000X-0.600000X0.725000X0*%
%TD*%
%TA.AperFunction,ComponentPad*%
%ADD30O,1.700000X1.950000*%
%TD*%
%TA.AperFunction,SMDPad,CuDef*%
%ADD31RoundRect,0.250000X-0.109544X-1.466299X0.604441X-1.340404X0.109544X1.466299X-0.604441X1.340404X0*%
%TD*%
%TA.AperFunction,SMDPad,CuDef*%
%ADD32RoundRect,0.125000X-0.125000X0.625000X-0.125000X-0.625000X0.125000X-0.625000X0.125000X0.625000X0*%
%TD*%
%TA.AperFunction,SMDPad,CuDef*%
%ADD33RoundRect,0.125000X-0.625000X0.125000X-0.625000X-0.125000X0.625000X-0.125000X0.625000X0.125000X0*%
%TD*%
%TA.AperFunction,ComponentPad*%
%ADD34R,2.000000X2.000000*%
%TD*%
%TA.AperFunction,ComponentPad*%
%ADD35C,2.000000*%
%TD*%
%TA.AperFunction,ComponentPad*%
%ADD36R,3.000000X2.500000*%
%TD*%
%TA.AperFunction,SMDPad,CuDef*%
%ADD37RoundRect,0.250000X-0.604441X-1.340404X0.109544X-1.466299X0.604441X1.340404X-0.109544X1.466299X0*%
%TD*%
%TA.AperFunction,SMDPad,CuDef*%
%ADD38R,2.400000X0.740000*%
%TD*%
%TA.AperFunction,ViaPad*%
%ADD39C,0.450000*%
%TD*%
%TA.AperFunction,Conductor*%
%ADD40C,0.200000*%
%TD*%
%TA.AperFunction,Conductor*%
%ADD41C,0.300000*%
%TD*%
%TA.AperFunction,Conductor*%
%ADD42C,1.500000*%
%TD*%
G04 APERTURE END LIST*
D10*
%TO.P,C6,1*%
%TO.N,+3.3V*%
X113739411Y-90659411D03*
%TO.P,C6,2*%
%TO.N,GND*%
X113060589Y-89980589D03*
%TD*%
D11*
%TO.P,U5,1,GND*%
%TO.N,GND*%
X113100000Y-92900000D03*
%TO.P,U5,2,VO*%
%TO.N,+3.3V*%
X113100000Y-95200000D03*
D12*
X119400000Y-95200000D03*
D11*
%TO.P,U5,3,VI*%
%TO.N,+5V*%
X113100000Y-97500000D03*
%TD*%
D13*
%TO.P,R7,1*%
%TO.N,Net-(U2B--)*%
X103420000Y-79100000D03*
%TO.P,R7,2*%
%TO.N,GND*%
X102400000Y-79100000D03*
%TD*%
D14*
%TO.P,Flex1pos1,1,1*%
%TO.N,Net-(U2A-+)*%
X99500000Y-75600000D03*
%TD*%
D15*
%TO.P,U2,1*%
%TO.N,GPIO1*%
X108705000Y-73425000D03*
%TO.P,U2,2,-*%
%TO.N,Net-(U2A--)*%
X107435000Y-73425000D03*
%TO.P,U2,3,+*%
%TO.N,Net-(U2A-+)*%
X106165000Y-73425000D03*
%TO.P,U2,4,V-*%
%TO.N,GND*%
X104895000Y-73425000D03*
%TO.P,U2,5,+*%
%TO.N,Net-(U2B-+)*%
X104895000Y-78375000D03*
%TO.P,U2,6,-*%
%TO.N,Net-(U2B--)*%
X106165000Y-78375000D03*
%TO.P,U2,7*%
%TO.N,GPIO2*%
X107435000Y-78375000D03*
%TO.P,U2,8,V+*%
%TO.N,+3.3V*%
X108705000Y-78375000D03*
%TD*%
D16*
%TO.P,C8,1*%
%TO.N,+3.3V*%
X122437500Y-95200000D03*
%TO.P,C8,2*%
%TO.N,GND*%
X126562500Y-95200000D03*
%TD*%
D14*
%TO.P,Flex2pos1,1,1*%
%TO.N,Net-(U2B-+)*%
X114700000Y-71600000D03*
%TD*%
D17*
%TO.P,R6,1*%
%TO.N,Net-(U2B-+)*%
X113037500Y-67200000D03*
%TO.P,R6,2*%
%TO.N,GND*%
X118962500Y-67200000D03*
%TD*%
D18*
%TO.P,R13,1*%
%TO.N,+3.3V*%
X112000000Y-84600000D03*
%TO.P,R13,2*%
%TO.N,CLK*%
X112000000Y-85620000D03*
%TD*%
D15*
%TO.P,U3,1*%
%TO.N,GPIO3*%
X125905000Y-73425000D03*
%TO.P,U3,2,-*%
%TO.N,Net-(U3A--)*%
X124635000Y-73425000D03*
%TO.P,U3,3,+*%
%TO.N,Net-(U3A-+)*%
X123365000Y-73425000D03*
%TO.P,U3,4,V-*%
%TO.N,GND*%
X122095000Y-73425000D03*
%TO.P,U3,5,+*%
X122095000Y-78375000D03*
%TO.P,U3,6,-*%
X123365000Y-78375000D03*
%TO.P,U3,7*%
%TO.N,unconnected-(U3-Pad7)*%
X124635000Y-78375000D03*
%TO.P,U3,8,V+*%
%TO.N,+3.3V*%
X125905000Y-78375000D03*
%TD*%
D19*
%TO.P,R14,1*%
%TO.N,+3.3V*%
X112000000Y-83620000D03*
%TO.P,R14,2*%
%TO.N,DT*%
X112000000Y-82600000D03*
%TD*%
D20*
%TO.P,C2,1*%
%TO.N,NRST*%
X118360000Y-79800000D03*
%TO.P,C2,2*%
%TO.N,GND*%
X117400000Y-79800000D03*
%TD*%
D19*
%TO.P,R1,1*%
%TO.N,Net-(U2A--)*%
X107300000Y-71600000D03*
%TO.P,R1,2*%
%TO.N,+5V*%
X107300000Y-70580000D03*
%TD*%
D21*
%TO.P,C5,1*%
%TO.N,+3.3V*%
X122160589Y-80960589D03*
%TO.P,C5,2*%
%TO.N,GND*%
X122839411Y-81639411D03*
%TD*%
D22*
%TO.P,C9,1*%
%TO.N,GND*%
X110100000Y-77420000D03*
%TO.P,C9,2*%
%TO.N,+3.3V*%
X110100000Y-78380000D03*
%TD*%
D14*
%TO.P,Flex1neg1,1,1*%
%TO.N,Net-(U2A--)*%
X111600000Y-72800000D03*
%TD*%
D23*
%TO.P,J3,1,Pin_1*%
%TO.N,+5V*%
X133160000Y-79280000D03*
D24*
%TO.P,J3,2,Pin_2*%
%TO.N,GND*%
X133160000Y-76780000D03*
%TD*%
D25*
%TO.P,H1,1,1*%
%TO.N,GND*%
X97600000Y-100000000D03*
X98302944Y-98302944D03*
X98302944Y-101697056D03*
X100000000Y-97600000D03*
D26*
X100000000Y-100000000D03*
D25*
X100000000Y-102400000D03*
X101697056Y-98302944D03*
X101697056Y-101697056D03*
X102400000Y-100000000D03*
%TD*%
D27*
%TO.P,C12,1*%
%TO.N,+3.3V*%
X127300000Y-78380000D03*
%TO.P,C12,2*%
%TO.N,GND*%
X127300000Y-77420000D03*
%TD*%
D14*
%TO.P,Flex2neg1,1,1*%
%TO.N,Net-(U2B--)*%
X99500000Y-79200000D03*
%TD*%
D28*
%TO.P,R5,1*%
%TO.N,+5V*%
X102400000Y-76900000D03*
%TO.P,R5,2*%
%TO.N,Net-(U2B-+)*%
X103420000Y-76900000D03*
%TD*%
D29*
%TO.P,J2,1,Pin_1*%
%TO.N,unconnected-(J2-Pin_1-Pad1)*%
X109500000Y-101200000D03*
D30*
%TO.P,J2,2,Pin_2*%
%TO.N,+5V*%
X112000000Y-101200000D03*
%TO.P,J2,3,Pin_3*%
%TO.N,GND*%
X114500000Y-101200000D03*
%TO.P,J2,4,Pin_4*%
%TO.N,UART1_HC05_TX*%
X117000000Y-101200000D03*
%TO.P,J2,5,Pin_5*%
%TO.N,UART1_HC05_RX*%
X119500000Y-101200000D03*
%TO.P,J2,6,Pin_6*%
%TO.N,unconnected-(J2-Pin_6-Pad6)*%
X122000000Y-101200000D03*
%TD*%
D14*
%TO.P,Flex3neg1,1,1*%
%TO.N,Net-(U3A--)*%
X118500000Y-75300000D03*
%TD*%
D31*
%TO.P,R4,1*%
%TO.N,Net-(U2A-+)*%
X104665014Y-68314433D03*
%TO.P,R4,2*%
%TO.N,GND*%
X110500000Y-67285567D03*
%TD*%
D27*
%TO.P,C3,1*%
%TO.N,+3.3V*%
X111860000Y-88010000D03*
%TO.P,C3,2*%
%TO.N,GND*%
X111860000Y-87050000D03*
%TD*%
D32*
%TO.P,U1,1,VDD*%
%TO.N,+3.3V*%
X120700000Y-81725000D03*
%TO.P,U1,2,PF0*%
%TO.N,unconnected-(U1-PF0-Pad2)*%
X119900000Y-81725000D03*
%TO.P,U1,3,PF1*%
%TO.N,unconnected-(U1-PF1-Pad3)*%
X119100000Y-81725000D03*
%TO.P,U1,4,PG10*%
%TO.N,NRST*%
X118300000Y-81725000D03*
%TO.P,U1,5,PA0*%
%TO.N,GPIO1*%
X117500000Y-81725000D03*
%TO.P,U1,6,PA1*%
%TO.N,GPIO2*%
X116700000Y-81725000D03*
%TO.P,U1,7,PA2*%
%TO.N,UART2_DEBUG_TX*%
X115900000Y-81725000D03*
%TO.P,U1,8,PA3*%
%TO.N,UART2_DEBUG_RX*%
X115100000Y-81725000D03*
D33*
%TO.P,U1,9,PA4*%
%TO.N,GPIO3*%
X113725000Y-83100000D03*
%TO.P,U1,10,PA5*%
%TO.N,DT*%
X113725000Y-83900000D03*
%TO.P,U1,11,PA6*%
%TO.N,CLK*%
X113725000Y-84700000D03*
%TO.P,U1,12,PA7*%
%TO.N,unconnected-(U1-PA7-Pad12)*%
X113725000Y-85500000D03*
%TO.P,U1,13,PB0*%
%TO.N,unconnected-(U1-PB0-Pad13)*%
X113725000Y-86300000D03*
%TO.P,U1,14,VSSA*%
%TO.N,GND*%
X113725000Y-87100000D03*
%TO.P,U1,15,VDDA*%
%TO.N,+3.3V*%
X113725000Y-87900000D03*
%TO.P,U1,16,VSS*%
%TO.N,GND*%
X113725000Y-88700000D03*
D32*
%TO.P,U1,17,VDD*%
%TO.N,+3.3V*%
X115100000Y-90075000D03*
%TO.P,U1,18,PA8*%
%TO.N,unconnected-(U1-PA8-Pad18)*%
X115900000Y-90075000D03*
%TO.P,U1,19,PA9*%
%TO.N,UART1_HC05_TX*%
X116700000Y-90075000D03*
%TO.P,U1,20,PA10*%
%TO.N,UART1_HC05_RX*%
X117500000Y-90075000D03*
%TO.P,U1,21,PA11*%
%TO.N,unconnected-(U1-PA11-Pad21)*%
X118300000Y-90075000D03*
%TO.P,U1,22,PA12*%
%TO.N,unconnected-(U1-PA12-Pad22)*%
X119100000Y-90075000D03*
%TO.P,U1,23,PA13*%
%TO.N,SWDIO*%
X119900000Y-90075000D03*
%TO.P,U1,24,PA14*%
%TO.N,SWCLK*%
X120700000Y-90075000D03*
D33*
%TO.P,U1,25,PA15*%
%TO.N,unconnected-(U1-PA15-Pad25)*%
X122075000Y-88700000D03*
%TO.P,U1,26,PB3*%
%TO.N,unconnected-(U1-PB3-Pad26)*%
X122075000Y-87900000D03*
%TO.P,U1,27,PB4*%
%TO.N,unconnected-(U1-PB4-Pad27)*%
X122075000Y-87100000D03*
%TO.P,U1,28,PB5*%
%TO.N,unconnected-(U1-PB5-Pad28)*%
X122075000Y-86300000D03*
%TO.P,U1,29,PB6*%
%TO.N,unconnected-(U1-PB6-Pad29)*%
X122075000Y-85500000D03*
%TO.P,U1,30,PB7*%
%TO.N,unconnected-(U1-PB7-Pad30)*%
X122075000Y-84700000D03*
%TO.P,U1,31,PB8*%
%TO.N,unconnected-(U1-PB8-Pad31)*%
X122075000Y-83900000D03*
%TO.P,U1,32,VSS*%
%TO.N,GND*%
X122075000Y-83100000D03*
%TD*%
D18*
%TO.P,R9,1*%
%TO.N,+5V*%
X123000000Y-70600000D03*
%TO.P,R9,2*%
%TO.N,Net-(U3A-+)*%
X123000000Y-71620000D03*
%TD*%
D14*
%TO.P,Flex3pos1,1,1*%
%TO.N,Net-(U3A-+)*%
X119400000Y-71800000D03*
%TD*%
D19*
%TO.P,R11,1*%
%TO.N,Net-(U3A--)*%
X125200000Y-71620000D03*
%TO.P,R11,2*%
%TO.N,GND*%
X125200000Y-70600000D03*
%TD*%
D25*
%TO.P,H2,1,1*%
%TO.N,GND*%
X97600000Y-70000000D03*
X98302944Y-68302944D03*
X98302944Y-71697056D03*
X100000000Y-67600000D03*
D26*
X100000000Y-70000000D03*
D25*
X100000000Y-72400000D03*
X101697056Y-68302944D03*
X101697056Y-71697056D03*
X102400000Y-70000000D03*
%TD*%
D18*
%TO.P,R3,1*%
%TO.N,+5V*%
X106200000Y-70580000D03*
%TO.P,R3,2*%
%TO.N,Net-(U2A-+)*%
X106200000Y-71600000D03*
%TD*%
D25*
%TO.P,H3,1,1*%
%TO.N,GND*%
X129600000Y-100000000D03*
X130302944Y-98302944D03*
X130302944Y-101697056D03*
X132000000Y-97600000D03*
D26*
X132000000Y-100000000D03*
D25*
X132000000Y-102400000D03*
X133697056Y-98302944D03*
X133697056Y-101697056D03*
X134400000Y-100000000D03*
%TD*%
D19*
%TO.P,R2,1*%
%TO.N,Net-(U2A--)*%
X108400000Y-71600000D03*
%TO.P,R2,2*%
%TO.N,GND*%
X108400000Y-70580000D03*
%TD*%
D13*
%TO.P,R8,1*%
%TO.N,Net-(U2B--)*%
X103420000Y-78000000D03*
%TO.P,R8,2*%
%TO.N,+5V*%
X102400000Y-78000000D03*
%TD*%
D34*
%TO.P,SW2,A,A*%
%TO.N,CLK*%
X109820000Y-90500000D03*
D35*
%TO.P,SW2,B,B*%
%TO.N,DT*%
X109820000Y-85500000D03*
%TO.P,SW2,C,C*%
%TO.N,GND*%
X109820000Y-88000000D03*
D36*
%TO.P,SW2,MP*%
%TO.N,N/C*%
X102320000Y-93600000D03*
X102320000Y-82400000D03*
%TD*%
D22*
%TO.P,C1,1*%
%TO.N,+3.3V*%
X111860000Y-89040000D03*
%TO.P,C1,2*%
%TO.N,GND*%
X111860000Y-90000000D03*
%TD*%
D21*
%TO.P,C4,1*%
%TO.N,+3.3V*%
X123460589Y-80360589D03*
%TO.P,C4,2*%
%TO.N,GND*%
X124139411Y-81039411D03*
%TD*%
D25*
%TO.P,H4,1,1*%
%TO.N,GND*%
X129600000Y-70000000D03*
X130302944Y-68302944D03*
X130302944Y-71697056D03*
X132000000Y-67600000D03*
D26*
X132000000Y-70000000D03*
D25*
X132000000Y-72400000D03*
X133697056Y-68302944D03*
X133697056Y-71697056D03*
X134400000Y-70000000D03*
%TD*%
D19*
%TO.P,R12,1*%
%TO.N,Net-(U3A--)*%
X124100000Y-71620000D03*
%TO.P,R12,2*%
%TO.N,+5V*%
X124100000Y-70600000D03*
%TD*%
D20*
%TO.P,C7,1*%
%TO.N,+5V*%
X111000000Y-97600000D03*
%TO.P,C7,2*%
%TO.N,GND*%
X110040000Y-97600000D03*
%TD*%
D37*
%TO.P,R10,1*%
%TO.N,Net-(U3A-+)*%
X121482507Y-67285568D03*
%TO.P,R10,2*%
%TO.N,GND*%
X127317493Y-68314432D03*
%TD*%
D38*
%TO.P,J1,1,NC*%
%TO.N,unconnected-(J1-NC-Pad1)*%
X130910000Y-91090000D03*
%TO.P,J1,2,NC*%
%TO.N,unconnected-(J1-NC-Pad2)*%
X127010000Y-91090000D03*
%TO.P,J1,3,VCC*%
%TO.N,+3.3V*%
X130910000Y-89820000D03*
%TO.P,J1,4,JTMS/SWDIO*%
%TO.N,SWDIO*%
X127010000Y-89820000D03*
%TO.P,J1,5,GND*%
%TO.N,GND*%
X130910000Y-88550000D03*
%TO.P,J1,6,JCLK/SWCLK*%
%TO.N,SWCLK*%
X127010000Y-88550000D03*
%TO.P,J1,7,GND*%
%TO.N,GND*%
X130910000Y-87280000D03*
%TO.P,J1,8,JTDO/SWO*%
%TO.N,unconnected-(J1-JTDO{slash}SWO-Pad8)*%
X127010000Y-87280000D03*
%TO.P,J1,9,JRCLK/NC*%
%TO.N,unconnected-(J1-JRCLK{slash}NC-Pad9)*%
X130910000Y-86010000D03*
%TO.P,J1,10,JTDI/NC*%
%TO.N,unconnected-(J1-JTDI{slash}NC-Pad10)*%
X127010000Y-86010000D03*
%TO.P,J1,11,GNDDetect*%
%TO.N,GND*%
X130910000Y-84740000D03*
%TO.P,J1,12,~{RST}*%
%TO.N,NRST*%
X127010000Y-84740000D03*
%TO.P,J1,13,VCP_RX*%
%TO.N,UART2_DEBUG_RX*%
X130910000Y-83470000D03*
%TO.P,J1,14,VCP_TX*%
%TO.N,UART2_DEBUG_TX*%
X127010000Y-83470000D03*
%TD*%
D39*
%TO.N,GND*%
X119700000Y-77400000D03*
X105700000Y-101600000D03*
X113600000Y-78400000D03*
X126500000Y-68200000D03*
X122700000Y-78400000D03*
X109500000Y-97600000D03*
X127900000Y-103400000D03*
X106000000Y-97300000D03*
X98500000Y-83100000D03*
X128200000Y-95200000D03*
X96300000Y-96000000D03*
X96700000Y-74000000D03*
X115700000Y-76100000D03*
X135000000Y-89400000D03*
X114400000Y-92900000D03*
X119800000Y-67200000D03*
X129000000Y-73600000D03*
X116700000Y-79200000D03*
X121000000Y-92700000D03*
X121500000Y-73400000D03*
X130000000Y-95100000D03*
X101900000Y-79100000D03*
X111900000Y-90500000D03*
X105700000Y-92300000D03*
X126800000Y-100900000D03*
X110100000Y-76900000D03*
X106300000Y-86600000D03*
X111300000Y-67100000D03*
X132300000Y-87400000D03*
X104900000Y-74700000D03*
X129500000Y-66200000D03*
X136000000Y-87400000D03*
X108900000Y-82500000D03*
X134400000Y-83400000D03*
X113720589Y-89320589D03*
X111000000Y-87049725D03*
X102100000Y-74100000D03*
X132400000Y-84700000D03*
X122075000Y-82403822D03*
X127000000Y-81000000D03*
X127300000Y-76900000D03*
X135600000Y-72700000D03*
X132400000Y-88600000D03*
X112660000Y-87070000D03*
X97900000Y-90100000D03*
X108400000Y-70100000D03*
X133200000Y-94100000D03*
%TO.N,+3.3V*%
X110700000Y-78400000D03*
X117880000Y-95200000D03*
X132400000Y-89820000D03*
X126500000Y-78380000D03*
X121396178Y-81725000D03*
X114600000Y-90075000D03*
X112000000Y-84100000D03*
X112700000Y-87900000D03*
%TO.N,NRST*%
X120800000Y-85200000D03*
X124600000Y-85200000D03*
%TO.N,+5V*%
X106750000Y-70570000D03*
X102400000Y-77460000D03*
X123550000Y-70590000D03*
X111000000Y-98400000D03*
%TO.N,UART2_DEBUG_RX*%
X129400000Y-83500000D03*
X115100000Y-82800000D03*
%TO.N,UART2_DEBUG_TX*%
X125500000Y-83500000D03*
X116000000Y-82800000D03*
%TO.N,UART1_HC05_RX*%
X117600000Y-91400000D03*
%TO.N,UART1_HC05_TX*%
X116800000Y-91400000D03*
%TO.N,Net-(U2B-+)*%
X113037500Y-69300000D03*
X103400000Y-76100000D03*
%TO.N,CLK*%
X111423619Y-85236724D03*
%TO.N,GPIO3*%
X113400000Y-82200000D03*
X125900000Y-74600000D03*
%TD*%
D40*
%TO.N,GND*%
X130950000Y-84700000D02*
X130910000Y-84740000D01*
X122095000Y-78375000D02*
X123365000Y-78375000D01*
X126500000Y-68200000D02*
X127203061Y-68200000D01*
X131030000Y-87400000D02*
X130910000Y-87280000D01*
X127203061Y-68200000D02*
X127317493Y-68314432D01*
X123439411Y-81039411D02*
X122839411Y-81639411D01*
X117300000Y-79800000D02*
X116700000Y-79200000D01*
X111880000Y-87070000D02*
X111860000Y-87050000D01*
X113480000Y-88700000D02*
X113330000Y-88850000D01*
X111000000Y-87049725D02*
X110049725Y-88000000D01*
X121500000Y-73400000D02*
X122070000Y-73400000D01*
X108400000Y-70100000D02*
X108400000Y-70580000D01*
X132400000Y-84700000D02*
X130950000Y-84700000D01*
X111900000Y-90040000D02*
X111860000Y-90000000D01*
X127300000Y-77420000D02*
X127300000Y-76900000D01*
X130960000Y-88600000D02*
X130910000Y-88550000D01*
X104760000Y-73560000D02*
X104895000Y-73425000D01*
X111300000Y-67100000D02*
X110685567Y-67100000D01*
X104900000Y-73430000D02*
X104895000Y-73425000D01*
X112690000Y-87100000D02*
X113725000Y-87100000D01*
X122070000Y-73400000D02*
X122095000Y-73425000D01*
X113720589Y-89320589D02*
X113060589Y-89980589D01*
X119800000Y-67200000D02*
X118962500Y-67200000D01*
X104900000Y-74700000D02*
X104900000Y-73430000D01*
X124139411Y-81039411D02*
X123439411Y-81039411D01*
X128200000Y-95200000D02*
X126562500Y-95200000D01*
X110100000Y-77420000D02*
X110100000Y-76900000D01*
X113725000Y-88700000D02*
X113480000Y-88700000D01*
X122075000Y-82403822D02*
X122839411Y-81639411D01*
X112660000Y-87070000D02*
X112690000Y-87100000D01*
X114400000Y-92900000D02*
X113100000Y-92900000D01*
X132400000Y-88600000D02*
X130960000Y-88600000D01*
X109500000Y-97600000D02*
X110040000Y-97600000D01*
X113725000Y-88700000D02*
X113725000Y-89316178D01*
X132300000Y-87400000D02*
X131030000Y-87400000D01*
X109500000Y-88000000D02*
X110100000Y-88000000D01*
X111900000Y-90500000D02*
X111900000Y-90040000D01*
X101900000Y-79100000D02*
X102400000Y-79100000D01*
X113725000Y-89316178D02*
X113720589Y-89320589D01*
X110049725Y-88000000D02*
X109820000Y-88000000D01*
X122075000Y-83100000D02*
X122075000Y-82403822D01*
X117400000Y-79800000D02*
X117300000Y-79800000D01*
X112660000Y-87070000D02*
X111880000Y-87070000D01*
X110685567Y-67100000D02*
X110500000Y-67285567D01*
X113725000Y-88700000D02*
X113700000Y-88700000D01*
D41*
%TO.N,+3.3V*%
X112700000Y-87900000D02*
X113725000Y-87900000D01*
X113725000Y-87900000D02*
X113500000Y-87900000D01*
X113500000Y-87900000D02*
X113400000Y-88000000D01*
X114323822Y-90075000D02*
X113739411Y-90659411D01*
D42*
X117880000Y-95200000D02*
X119400000Y-95200000D01*
D41*
X114600000Y-90075000D02*
X115100000Y-90075000D01*
X121396178Y-81725000D02*
X122160589Y-80960589D01*
D42*
X119400000Y-95200000D02*
X122437500Y-95200000D01*
D41*
X120700000Y-81725000D02*
X121396178Y-81725000D01*
X126500000Y-78380000D02*
X125910000Y-78380000D01*
X114600000Y-90075000D02*
X114323822Y-90075000D01*
X112700000Y-87900000D02*
X111970000Y-87900000D01*
X111970000Y-87900000D02*
X111860000Y-88010000D01*
X112000000Y-84600000D02*
X112000000Y-83620000D01*
X122760589Y-80360589D02*
X122160589Y-80960589D01*
X127300000Y-78380000D02*
X126500000Y-78380000D01*
X110100000Y-78380000D02*
X110680000Y-78380000D01*
X111860000Y-89040000D02*
X111860000Y-88010000D01*
X112000000Y-84100000D02*
X112000000Y-83620000D01*
D42*
X113100000Y-95200000D02*
X117880000Y-95200000D01*
D41*
X132400000Y-89820000D02*
X130910000Y-89820000D01*
X123460589Y-80360589D02*
X122760589Y-80360589D01*
X110680000Y-78380000D02*
X110700000Y-78400000D01*
X125910000Y-78380000D02*
X125905000Y-78375000D01*
X110700000Y-78400000D02*
X108730000Y-78400000D01*
X108730000Y-78400000D02*
X108705000Y-78375000D01*
D40*
%TO.N,NRST*%
X125060000Y-84740000D02*
X124600000Y-85200000D01*
X118300000Y-79860000D02*
X118360000Y-79800000D01*
X127010000Y-84740000D02*
X125060000Y-84740000D01*
X118300000Y-81725000D02*
X118300000Y-79860000D01*
X120000000Y-85200000D02*
X118300000Y-83500000D01*
X118300000Y-83500000D02*
X118300000Y-81725000D01*
X120800000Y-85200000D02*
X120000000Y-85200000D01*
D41*
%TO.N,+5V*%
X111000000Y-97600000D02*
X111000000Y-98400000D01*
X123000000Y-70600000D02*
X123540000Y-70600000D01*
X107300000Y-70580000D02*
X106200000Y-70580000D01*
X106750000Y-70570000D02*
X106740000Y-70580000D01*
X123540000Y-70600000D02*
X123550000Y-70590000D01*
X113100000Y-97500000D02*
X111100000Y-97500000D01*
X106740000Y-70580000D02*
X106200000Y-70580000D01*
X102400000Y-76900000D02*
X102400000Y-77460000D01*
X102400000Y-78000000D02*
X102400000Y-76900000D01*
X111000000Y-97600000D02*
X111100000Y-97500000D01*
X124100000Y-70600000D02*
X123000000Y-70600000D01*
D40*
%TO.N,UART2_DEBUG_RX*%
X129400000Y-83500000D02*
X130880000Y-83500000D01*
X115100000Y-82800000D02*
X115100000Y-81725000D01*
X130880000Y-83500000D02*
X130910000Y-83470000D01*
%TO.N,SWDIO*%
X125580000Y-89820000D02*
X127010000Y-89820000D01*
X119900000Y-90075000D02*
X119900000Y-91300000D01*
X120300000Y-91700000D02*
X123700000Y-91700000D01*
X123700000Y-91700000D02*
X125580000Y-89820000D01*
X119900000Y-91300000D02*
X120300000Y-91700000D01*
%TO.N,UART2_DEBUG_TX*%
X125530000Y-83470000D02*
X127010000Y-83470000D01*
X125500000Y-83500000D02*
X125530000Y-83470000D01*
X116000000Y-81825000D02*
X115900000Y-81725000D01*
X116000000Y-82800000D02*
X116000000Y-81825000D01*
%TO.N,SWCLK*%
X120700000Y-90075000D02*
X122925000Y-90075000D01*
X122925000Y-90075000D02*
X124450000Y-88550000D01*
X124450000Y-88550000D02*
X127010000Y-88550000D01*
%TO.N,UART1_HC05_RX*%
X117600000Y-91400000D02*
X117600000Y-90175000D01*
X117600000Y-90175000D02*
X117500000Y-90075000D01*
%TO.N,UART1_HC05_TX*%
X116800000Y-91400000D02*
X116800000Y-90175000D01*
X116800000Y-90175000D02*
X116700000Y-90075000D01*
%TO.N,Net-(U2A--)*%
X108400000Y-71600000D02*
X107300000Y-71600000D01*
X108400000Y-71600000D02*
X110400000Y-71600000D01*
X107435000Y-73425000D02*
X107435000Y-71735000D01*
X107435000Y-71735000D02*
X107300000Y-71600000D01*
X110400000Y-71600000D02*
X111600000Y-72800000D01*
%TO.N,Net-(U2A-+)*%
X106200000Y-71600000D02*
X105100000Y-71600000D01*
X106200000Y-71600000D02*
X106300000Y-71600000D01*
X106165000Y-74835000D02*
X105700000Y-75300000D01*
X105700000Y-75300000D02*
X99800000Y-75300000D01*
X106165000Y-73425000D02*
X106165000Y-71635000D01*
X104850000Y-71350000D02*
X104665014Y-71165014D01*
X99800000Y-75300000D02*
X99500000Y-75600000D01*
X105100000Y-71600000D02*
X104850000Y-71350000D01*
X106165000Y-71635000D02*
X106200000Y-71600000D01*
X106165000Y-73425000D02*
X106165000Y-74835000D01*
X104665014Y-71165014D02*
X104665014Y-68314433D01*
%TO.N,Net-(U2B-+)*%
X103420000Y-76120000D02*
X103400000Y-76100000D01*
X113037500Y-69300000D02*
X113037500Y-67200000D01*
X113037500Y-69937500D02*
X114700000Y-71600000D01*
X104895000Y-77185000D02*
X104895000Y-78375000D01*
X104610000Y-76900000D02*
X104895000Y-77185000D01*
X103420000Y-76900000D02*
X104610000Y-76900000D01*
X103420000Y-76900000D02*
X103420000Y-76120000D01*
X113037500Y-69300000D02*
X113037500Y-69937500D01*
%TO.N,Net-(U2B--)*%
X102800000Y-80100000D02*
X100400000Y-80100000D01*
X103420000Y-79480000D02*
X102800000Y-80100000D01*
X103420000Y-79100000D02*
X103420000Y-79480000D01*
X103750000Y-79100000D02*
X103420000Y-79100000D01*
X100400000Y-80100000D02*
X99500000Y-79200000D01*
X106165000Y-78375000D02*
X106165000Y-79235000D01*
X105750000Y-79650000D02*
X104300000Y-79650000D01*
X106165000Y-79235000D02*
X105750000Y-79650000D01*
X104300000Y-79650000D02*
X103750000Y-79100000D01*
X103420000Y-78000000D02*
X103420000Y-79100000D01*
%TO.N,Net-(U3A-+)*%
X121940000Y-71800000D02*
X121100000Y-71800000D01*
X119400000Y-71800000D02*
X119400000Y-70800000D01*
X119400000Y-70800000D02*
X121100000Y-69100000D01*
X122171471Y-71620000D02*
X122120000Y-71620000D01*
X122120000Y-71620000D02*
X121940000Y-71800000D01*
X123000000Y-72000000D02*
X123000000Y-71620000D01*
X121100000Y-71800000D02*
X119400000Y-71800000D01*
X123365000Y-72365000D02*
X123000000Y-72000000D01*
X121100000Y-67668075D02*
X121482507Y-67285568D01*
X121100000Y-69100000D02*
X121100000Y-67668075D01*
X123365000Y-73425000D02*
X123365000Y-72365000D01*
X123000000Y-71620000D02*
X122171471Y-71620000D01*
%TO.N,Net-(U3A--)*%
X124635000Y-73425000D02*
X124635000Y-72435000D01*
X125200000Y-71620000D02*
X124100000Y-71620000D01*
X124635000Y-74765000D02*
X124100000Y-75300000D01*
X124100000Y-75300000D02*
X118500000Y-75300000D01*
X124635000Y-73425000D02*
X124635000Y-74765000D01*
X124635000Y-72435000D02*
X124100000Y-71900000D01*
X124100000Y-71900000D02*
X124100000Y-71620000D01*
%TO.N,CLK*%
X112000000Y-85620000D02*
X111806895Y-85620000D01*
X112250494Y-85620000D02*
X113170494Y-84700000D01*
X109500000Y-90500000D02*
X109600000Y-90500000D01*
X113170494Y-84700000D02*
X113725000Y-84700000D01*
X112000000Y-85620000D02*
X112250494Y-85620000D01*
X111806895Y-85620000D02*
X111423619Y-85236724D01*
%TO.N,DT*%
X111305787Y-82600000D02*
X112000000Y-82600000D01*
X112000000Y-82600000D02*
X112675000Y-83275000D01*
X109820000Y-85500000D02*
X109820000Y-84085787D01*
X109820000Y-84085787D02*
X111305787Y-82600000D01*
X112675000Y-83404506D02*
X113170494Y-83900000D01*
X113170494Y-83900000D02*
X113725000Y-83900000D01*
X112675000Y-83275000D02*
X112675000Y-83404506D01*
%TO.N,GPIO1*%
X108730000Y-73400000D02*
X109924999Y-73400000D01*
X109924999Y-73400000D02*
X117500000Y-80975001D01*
X117500000Y-80975001D02*
X117500000Y-81725000D01*
X108705000Y-73425000D02*
X108730000Y-73400000D01*
%TO.N,GPIO3*%
X125900000Y-74600000D02*
X125900000Y-73430000D01*
X113725000Y-82525000D02*
X113400000Y-82200000D01*
X113725000Y-83100000D02*
X113725000Y-82525000D01*
X125900000Y-73430000D02*
X125905000Y-73425000D01*
%TO.N,GPIO2*%
X107751471Y-79800000D02*
X107435000Y-79483529D01*
X115524999Y-79800000D02*
X107751471Y-79800000D01*
X107435000Y-79483529D02*
X107435000Y-78375000D01*
X116700000Y-80975001D02*
X115524999Y-79800000D01*
X116700000Y-81725000D02*
X116700000Y-80975001D01*
%TD*%
%TA.AperFunction,Conductor*%
%TO.N,GND*%
G36*
X117156289Y-82716111D02*
G01*
X117241874Y-82759719D01*
X117241876Y-82759719D01*
X117241878Y-82759720D01*
X117341507Y-82775500D01*
X117341512Y-82775500D01*
X117658493Y-82775500D01*
X117756102Y-82760040D01*
X117825395Y-82768994D01*
X117878847Y-82813990D01*
X117899487Y-82880742D01*
X117899500Y-82882513D01*
X117899500Y-83552726D01*
X117926793Y-83654589D01*
X117939316Y-83676279D01*
X117979520Y-83745913D01*
X119754087Y-85520480D01*
X119845412Y-85573207D01*
X119947273Y-85600500D01*
X120416621Y-85600500D01*
X120483660Y-85620185D01*
X120492093Y-85626114D01*
X120534982Y-85659024D01*
X120662817Y-85711974D01*
X120800000Y-85730035D01*
X120924880Y-85713593D01*
X120993912Y-85724358D01*
X121046168Y-85770737D01*
X121051548Y-85780238D01*
X121083886Y-85843706D01*
X121096782Y-85912375D01*
X121083886Y-85956294D01*
X121040279Y-86041876D01*
X121024500Y-86141506D01*
X121024500Y-86458493D01*
X121040279Y-86558123D01*
X121083886Y-86643706D01*
X121096782Y-86712375D01*
X121083886Y-86756294D01*
X121040279Y-86841876D01*
X121024500Y-86941506D01*
X121024500Y-87258493D01*
X121040279Y-87358123D01*
X121083886Y-87443706D01*
X121096782Y-87512375D01*
X121083886Y-87556294D01*
X121040279Y-87641876D01*
X121024500Y-87741506D01*
X121024500Y-88058493D01*
X121040279Y-88158123D01*
X121083886Y-88243706D01*
X121096782Y-88312375D01*
X121083886Y-88356294D01*
X121040279Y-88441876D01*
X121024500Y-88541506D01*
X121024500Y-88858493D01*
X121029042Y-88887171D01*
X121020087Y-88956465D01*
X120975091Y-89009917D01*
X120908339Y-89030556D01*
X120887171Y-89029042D01*
X120858493Y-89024500D01*
X120858488Y-89024500D01*
X120541512Y-89024500D01*
X120541507Y-89024500D01*
X120441876Y-89040279D01*
X120356294Y-89083886D01*
X120287625Y-89096782D01*
X120243706Y-89083886D01*
X120158123Y-89040279D01*
X120058493Y-89024500D01*
X120058488Y-89024500D01*
X119741512Y-89024500D01*
X119741507Y-89024500D01*
X119641876Y-89040279D01*
X119556294Y-89083886D01*
X119487625Y-89096782D01*
X119443706Y-89083886D01*
X119358123Y-89040279D01*
X119258493Y-89024500D01*
X119258488Y-89024500D01*
X118941512Y-89024500D01*
X118941507Y-89024500D01*
X118841876Y-89040279D01*
X118756294Y-89083886D01*
X118687625Y-89096782D01*
X118643706Y-89083886D01*
X118558123Y-89040279D01*
X118458493Y-89024500D01*
X118458488Y-89024500D01*
X118141512Y-89024500D01*
X118141507Y-89024500D01*
X118041876Y-89040279D01*
X117956294Y-89083886D01*
X117887625Y-89096782D01*
X117843706Y-89083886D01*
X117758123Y-89040279D01*
X117658493Y-89024500D01*
X117658488Y-89024500D01*
X117341512Y-89024500D01*
X117341507Y-89024500D01*
X117241876Y-89040279D01*
X117156294Y-89083886D01*
X117087625Y-89096782D01*
X117043706Y-89083886D01*
X116958123Y-89040279D01*
X116858493Y-89024500D01*
X116858488Y-89024500D01*
X116541512Y-89024500D01*
X116541507Y-89024500D01*
X116441876Y-89040279D01*
X116356294Y-89083886D01*
X116287625Y-89096782D01*
X116243706Y-89083886D01*
X116158123Y-89040279D01*
X116058493Y-89024500D01*
X116058488Y-89024500D01*
X115741512Y-89024500D01*
X115741507Y-89024500D01*
X115641876Y-89040279D01*
X115556294Y-89083886D01*
X115487625Y-89096782D01*
X115443706Y-89083886D01*
X115358123Y-89040279D01*
X115258493Y-89024500D01*
X115258488Y-89024500D01*
X115082421Y-89024500D01*
X115015382Y-89004815D01*
X114983260Y-88974952D01*
X114964526Y-88950000D01*
X113975000Y-88950000D01*
X113975000Y-89469615D01*
X113955315Y-89536654D01*
X113902511Y-89582409D01*
X113833529Y-89592378D01*
X113806237Y-89588493D01*
X113325046Y-90069684D01*
X113263723Y-90103169D01*
X113194031Y-90098185D01*
X113149684Y-90069684D01*
X112971493Y-89891493D01*
X112938008Y-89830170D01*
X112942992Y-89760478D01*
X112971493Y-89716131D01*
X113474999Y-89212624D01*
X113475000Y-89212623D01*
X113475000Y-88574500D01*
X113494685Y-88507461D01*
X113547489Y-88461706D01*
X113599000Y-88450500D01*
X114383494Y-88450500D01*
X114384994Y-88450382D01*
X114394717Y-88450000D01*
X114964526Y-88450000D01*
X114964525Y-88449999D01*
X114928156Y-88324814D01*
X114928154Y-88324808D01*
X114847773Y-88188891D01*
X114847767Y-88188883D01*
X114811681Y-88152798D01*
X114778195Y-88091476D01*
X114776292Y-88063360D01*
X114775500Y-88063360D01*
X114775500Y-87736640D01*
X114777429Y-87736640D01*
X114790083Y-87676279D01*
X114811681Y-87647201D01*
X114847769Y-87611113D01*
X114847775Y-87611106D01*
X114928154Y-87475191D01*
X114928156Y-87475185D01*
X114964525Y-87350000D01*
X114394717Y-87350000D01*
X114384994Y-87349618D01*
X114383494Y-87349500D01*
X114383488Y-87349500D01*
X113066512Y-87349500D01*
X113066506Y-87349500D01*
X113065006Y-87349618D01*
X113055283Y-87350000D01*
X112446362Y-87350000D01*
X112379323Y-87330315D01*
X112358681Y-87313681D01*
X112345000Y-87300000D01*
X111044000Y-87300000D01*
X110976961Y-87280315D01*
X110972680Y-87275375D01*
X110919999Y-87253553D01*
X110302962Y-87870590D01*
X110285925Y-87807007D01*
X110220099Y-87692993D01*
X110127007Y-87599901D01*
X110012993Y-87534075D01*
X109949409Y-87517037D01*
X110690055Y-86776389D01*
X110690055Y-86776388D01*
X110643236Y-86739947D01*
X110643231Y-86739944D01*
X110635452Y-86735734D01*
X110585863Y-86686513D01*
X110570757Y-86618296D01*
X110594930Y-86552741D01*
X110623348Y-86525107D01*
X110659139Y-86500047D01*
X110820047Y-86339139D01*
X110950568Y-86152734D01*
X111046739Y-85946496D01*
X111081794Y-85815667D01*
X111118159Y-85756007D01*
X111181006Y-85725478D01*
X111249019Y-85733199D01*
X111286436Y-85748698D01*
X111286437Y-85748698D01*
X111294288Y-85750802D01*
X111293397Y-85754123D01*
X111342780Y-85775962D01*
X111378553Y-85830180D01*
X111379766Y-85829756D01*
X111425618Y-85960792D01*
X111503577Y-86066424D01*
X111526687Y-86083480D01*
X111568937Y-86139128D01*
X111574394Y-86208784D01*
X111541327Y-86270333D01*
X111487647Y-86302325D01*
X111433810Y-86317966D01*
X111433804Y-86317968D01*
X111294625Y-86400278D01*
X111294616Y-86400285D01*
X111180285Y-86514616D01*
X111180278Y-86514625D01*
X111097968Y-86653804D01*
X111055496Y-86800000D01*
X112698638Y-86800000D01*
X112765677Y-86819685D01*
X112786319Y-86836319D01*
X112800000Y-86850000D01*
X113055283Y-86850000D01*
X113065006Y-86850382D01*
X113066506Y-86850500D01*
X113066512Y-86850500D01*
X114383494Y-86850500D01*
X114384994Y-86850382D01*
X114394717Y-86850000D01*
X114964526Y-86850000D01*
X114964525Y-86849999D01*
X114928156Y-86724814D01*
X114928154Y-86724808D01*
X114847773Y-86588891D01*
X114847767Y-86588883D01*
X114811681Y-86552798D01*
X114778195Y-86491476D01*
X114776292Y-86463360D01*
X114775500Y-86463360D01*
X114775500Y-86141506D01*
X114759720Y-86041878D01*
X114759719Y-86041876D01*
X114759719Y-86041874D01*
X114716112Y-85956291D01*
X114703217Y-85887626D01*
X114716111Y-85843710D01*
X114759719Y-85758126D01*
X114760879Y-85750802D01*
X114775500Y-85658493D01*
X114775500Y-85341506D01*
X114759720Y-85241878D01*
X114759719Y-85241876D01*
X114759719Y-85241874D01*
X114716112Y-85156291D01*
X114703217Y-85087626D01*
X114716111Y-85043710D01*
X114759719Y-84958126D01*
X114759720Y-84958121D01*
X114775500Y-84858493D01*
X114775500Y-84541506D01*
X114759720Y-84441878D01*
X114759719Y-84441876D01*
X114759719Y-84441874D01*
X114716112Y-84356291D01*
X114703217Y-84287626D01*
X114716111Y-84243710D01*
X114759719Y-84158126D01*
X114762511Y-84140499D01*
X114775500Y-84058493D01*
X114775500Y-83741506D01*
X114759720Y-83641878D01*
X114759719Y-83641876D01*
X114759719Y-83641874D01*
X114716112Y-83556291D01*
X114703217Y-83487626D01*
X114716111Y-83443709D01*
X114759719Y-83358126D01*
X114759719Y-83358122D01*
X114762491Y-83352683D01*
X114810465Y-83301886D01*
X114878286Y-83285091D01*
X114920425Y-83294415D01*
X114962817Y-83311974D01*
X115084039Y-83327933D01*
X115099999Y-83330035D01*
X115100000Y-83330035D01*
X115100001Y-83330035D01*
X115112947Y-83328330D01*
X115237183Y-83311974D01*
X115365018Y-83259024D01*
X115396348Y-83234983D01*
X115474513Y-83175005D01*
X115539682Y-83149810D01*
X115608127Y-83163848D01*
X115625487Y-83175005D01*
X115734980Y-83259023D01*
X115734981Y-83259023D01*
X115734982Y-83259024D01*
X115862817Y-83311974D01*
X115985702Y-83328152D01*
X115999999Y-83330035D01*
X116000000Y-83330035D01*
X116000001Y-83330035D01*
X116012947Y-83328330D01*
X116137183Y-83311974D01*
X116265018Y-83259024D01*
X116374791Y-83174791D01*
X116459024Y-83065018D01*
X116511974Y-82937183D01*
X116519066Y-82883313D01*
X116547333Y-82819418D01*
X116605657Y-82780947D01*
X116642005Y-82775500D01*
X116858493Y-82775500D01*
X116958121Y-82759720D01*
X116958121Y-82759719D01*
X116958126Y-82759719D01*
X117043708Y-82716112D01*
X117112374Y-82703217D01*
X117156289Y-82716111D01*
G37*
%TD.AperFunction*%
%TA.AperFunction,Conductor*%
G36*
X111043435Y-88869882D02*
G01*
X111063075Y-88867845D01*
X111074836Y-88857809D01*
X111144067Y-88848384D01*
X111207403Y-88877885D01*
X111244736Y-88936944D01*
X111249500Y-88970986D01*
X111249500Y-89205167D01*
X111229815Y-89272206D01*
X111177011Y-89317961D01*
X111107853Y-89327905D01*
X111044297Y-89298880D01*
X111037819Y-89292848D01*
X110992765Y-89247794D01*
X110889992Y-89202415D01*
X110864868Y-89199500D01*
X110717308Y-89199500D01*
X110650269Y-89179815D01*
X110629627Y-89163181D01*
X109949408Y-88482962D01*
X110012993Y-88465925D01*
X110127007Y-88400099D01*
X110220099Y-88307007D01*
X110285925Y-88192993D01*
X110302962Y-88129408D01*
X111043435Y-88869882D01*
G37*
%TD.AperFunction*%
%TA.AperFunction,Conductor*%
G36*
X109774783Y-73820185D02*
G01*
X109795425Y-73836819D01*
X115146425Y-79187819D01*
X115179910Y-79249142D01*
X115174926Y-79318834D01*
X115133054Y-79374767D01*
X115067590Y-79399184D01*
X115058744Y-79399500D01*
X109428053Y-79399500D01*
X109361014Y-79379815D01*
X109315259Y-79327011D01*
X109304594Y-79263925D01*
X109305500Y-79254266D01*
X109305500Y-78974500D01*
X109325185Y-78907461D01*
X109377989Y-78861706D01*
X109429500Y-78850500D01*
X109595201Y-78850500D01*
X109662240Y-78870185D01*
X109668827Y-78874724D01*
X109721843Y-78913852D01*
X109746526Y-78922489D01*
X109847173Y-78957708D01*
X109847177Y-78957708D01*
X109847181Y-78957710D01*
X109862057Y-78959105D01*
X109876930Y-78960500D01*
X109876934Y-78960500D01*
X110323070Y-78960500D01*
X110336289Y-78959260D01*
X110352819Y-78957710D01*
X110478157Y-78913852D01*
X110478158Y-78913851D01*
X110481828Y-78912567D01*
X110551607Y-78909004D01*
X110554910Y-78910077D01*
X110554966Y-78909870D01*
X110562808Y-78911970D01*
X110562817Y-78911974D01*
X110685702Y-78928152D01*
X110699999Y-78930035D01*
X110700000Y-78930035D01*
X110700001Y-78930035D01*
X110712947Y-78928330D01*
X110837183Y-78911974D01*
X110965018Y-78859024D01*
X111074791Y-78774791D01*
X111159024Y-78665018D01*
X111211974Y-78537183D01*
X111230035Y-78400000D01*
X111211974Y-78262817D01*
X111159024Y-78134983D01*
X111074791Y-78025209D01*
X111074789Y-78025208D01*
X111074789Y-78025207D01*
X111021378Y-77984223D01*
X110965018Y-77940976D01*
X110943344Y-77931998D01*
X110888942Y-77888160D01*
X110866876Y-77821866D01*
X110871721Y-77782843D01*
X110904505Y-77670000D01*
X110224000Y-77670000D01*
X110156961Y-77650315D01*
X110111206Y-77597511D01*
X110100000Y-77546000D01*
X110100000Y-77420000D01*
X109974000Y-77420000D01*
X109906961Y-77400315D01*
X109861206Y-77347511D01*
X109850000Y-77296000D01*
X109850000Y-77170000D01*
X110350000Y-77170000D01*
X110904504Y-77170000D01*
X110862031Y-77023804D01*
X110779721Y-76884625D01*
X110779714Y-76884616D01*
X110665383Y-76770285D01*
X110665374Y-76770278D01*
X110526195Y-76687968D01*
X110526190Y-76687966D01*
X110370918Y-76642855D01*
X110370912Y-76642854D01*
X110350000Y-76641209D01*
X110350000Y-77170000D01*
X109850000Y-77170000D01*
X109850000Y-76641210D01*
X109849999Y-76641209D01*
X109829087Y-76642854D01*
X109829081Y-76642855D01*
X109673809Y-76687966D01*
X109673804Y-76687968D01*
X109534625Y-76770278D01*
X109534616Y-76770285D01*
X109420285Y-76884616D01*
X109420278Y-76884625D01*
X109337968Y-77023804D01*
X109337966Y-77023808D01*
X109310376Y-77118775D01*
X109272770Y-77177660D01*
X109209297Y-77206866D01*
X109140110Y-77197120D01*
X109117667Y-77183950D01*
X109112449Y-77180099D01*
X109067882Y-77147207D01*
X109067880Y-77147206D01*
X108939700Y-77102353D01*
X108909270Y-77099500D01*
X108909266Y-77099500D01*
X108500734Y-77099500D01*
X108500730Y-77099500D01*
X108470300Y-77102353D01*
X108470298Y-77102353D01*
X108342119Y-77147206D01*
X108342117Y-77147207D01*
X108232850Y-77227850D01*
X108186396Y-77290794D01*
X108169770Y-77313321D01*
X108114123Y-77355571D01*
X108044466Y-77361030D01*
X107982917Y-77327962D01*
X107970230Y-77313321D01*
X107958512Y-77297444D01*
X107907150Y-77227850D01*
X107797882Y-77147207D01*
X107797880Y-77147206D01*
X107669700Y-77102353D01*
X107639270Y-77099500D01*
X107639266Y-77099500D01*
X107230734Y-77099500D01*
X107230730Y-77099500D01*
X107200300Y-77102353D01*
X107200298Y-77102353D01*
X107072119Y-77147206D01*
X107072117Y-77147207D01*
X106962850Y-77227850D01*
X106916396Y-77290794D01*
X106899770Y-77313321D01*
X106844123Y-77355571D01*
X106774466Y-77361030D01*
X106712917Y-77327962D01*
X106700230Y-77313321D01*
X106688512Y-77297444D01*
X106637150Y-77227850D01*
X106527882Y-77147207D01*
X106527880Y-77147206D01*
X106399700Y-77102353D01*
X106369270Y-77099500D01*
X106369266Y-77099500D01*
X105960734Y-77099500D01*
X105960730Y-77099500D01*
X105930300Y-77102353D01*
X105930298Y-77102353D01*
X105802119Y-77147206D01*
X105802117Y-77147207D01*
X105692850Y-77227850D01*
X105646396Y-77290794D01*
X105629770Y-77313321D01*
X105574123Y-77355571D01*
X105504466Y-77361030D01*
X105442917Y-77327962D01*
X105430230Y-77313321D01*
X105418512Y-77297444D01*
X105367150Y-77227850D01*
X105344148Y-77210873D01*
X105301899Y-77155228D01*
X105298055Y-77140002D01*
X105297604Y-77140124D01*
X105290779Y-77114653D01*
X105286719Y-77099500D01*
X105268207Y-77030412D01*
X105215480Y-76939087D01*
X104855913Y-76579520D01*
X104810250Y-76553156D01*
X104764589Y-76526793D01*
X104713657Y-76513146D01*
X104662727Y-76499500D01*
X104662726Y-76499500D01*
X103999816Y-76499500D01*
X103932777Y-76479815D01*
X103900043Y-76449130D01*
X103893050Y-76439654D01*
X103869081Y-76374024D01*
X103878262Y-76318572D01*
X103883715Y-76305408D01*
X103911974Y-76237183D01*
X103930035Y-76100000D01*
X103911974Y-75962817D01*
X103874337Y-75871952D01*
X103866868Y-75802483D01*
X103898143Y-75740004D01*
X103958232Y-75704352D01*
X103988898Y-75700500D01*
X105752725Y-75700500D01*
X105752727Y-75700500D01*
X105854588Y-75673207D01*
X105945913Y-75620480D01*
X106485480Y-75080913D01*
X106538207Y-74989587D01*
X106565500Y-74887727D01*
X106565500Y-74687628D01*
X106585185Y-74620589D01*
X106615866Y-74587857D01*
X106637150Y-74572150D01*
X106700231Y-74486677D01*
X106755876Y-74444428D01*
X106825532Y-74438969D01*
X106887082Y-74472036D01*
X106899763Y-74486670D01*
X106962850Y-74572150D01*
X107072118Y-74652793D01*
X107088311Y-74658459D01*
X107200299Y-74697646D01*
X107230730Y-74700500D01*
X107230734Y-74700500D01*
X107639270Y-74700500D01*
X107669699Y-74697646D01*
X107669701Y-74697646D01*
X107751259Y-74669107D01*
X107797882Y-74652793D01*
X107907150Y-74572150D01*
X107970231Y-74486677D01*
X108025877Y-74444428D01*
X108095533Y-74438969D01*
X108157083Y-74472036D01*
X108169763Y-74486670D01*
X108232850Y-74572150D01*
X108342118Y-74652793D01*
X108358311Y-74658459D01*
X108470299Y-74697646D01*
X108500730Y-74700500D01*
X108500734Y-74700500D01*
X108909270Y-74700500D01*
X108939699Y-74697646D01*
X108939701Y-74697646D01*
X109021259Y-74669107D01*
X109067882Y-74652793D01*
X109177150Y-74572150D01*
X109257793Y-74462882D01*
X109296419Y-74352495D01*
X109302646Y-74334701D01*
X109302646Y-74334699D01*
X109305500Y-74304269D01*
X109305500Y-73924500D01*
X109325185Y-73857461D01*
X109377989Y-73811706D01*
X109429500Y-73800500D01*
X109707744Y-73800500D01*
X109774783Y-73820185D01*
G37*
%TD.AperFunction*%
%TA.AperFunction,Conductor*%
G36*
X109149544Y-65520185D02*
G01*
X109195299Y-65572989D01*
X109205243Y-65642147D01*
X109197744Y-65670281D01*
X109166183Y-65749724D01*
X109140771Y-65923202D01*
X109148273Y-66026174D01*
X109360988Y-67232548D01*
X110456588Y-67039365D01*
X111552185Y-66846181D01*
X111340567Y-65646032D01*
X111348311Y-65576593D01*
X111392368Y-65522364D01*
X111458749Y-65500562D01*
X111462683Y-65500500D01*
X112012506Y-65500500D01*
X112079545Y-65520185D01*
X112125300Y-65572989D01*
X112135622Y-65639284D01*
X112135123Y-65643434D01*
X112135123Y-65643436D01*
X112124500Y-65731898D01*
X112124500Y-68668102D01*
X112125327Y-68674986D01*
X112135122Y-68756561D01*
X112190639Y-68897343D01*
X112282077Y-69017922D01*
X112395827Y-69104181D01*
X112402658Y-69109361D01*
X112436062Y-69122533D01*
X112491206Y-69165439D01*
X112514399Y-69231346D01*
X112513511Y-69254073D01*
X112507465Y-69299997D01*
X112507465Y-69300000D01*
X112522804Y-69416511D01*
X112525526Y-69437181D01*
X112525527Y-69437186D01*
X112578474Y-69565015D01*
X112578475Y-69565017D01*
X112578476Y-69565018D01*
X112611375Y-69607892D01*
X112636570Y-69673060D01*
X112637000Y-69683379D01*
X112637000Y-69884773D01*
X112637000Y-69990227D01*
X112648707Y-70033918D01*
X112664293Y-70092089D01*
X112681442Y-70121791D01*
X112717020Y-70183413D01*
X112717022Y-70183415D01*
X113673351Y-71139744D01*
X113706836Y-71201067D01*
X113704331Y-71263420D01*
X113664699Y-71394067D01*
X113644417Y-71600000D01*
X113664699Y-71805932D01*
X113687387Y-71880724D01*
X113724768Y-72003954D01*
X113822315Y-72186450D01*
X113853353Y-72224270D01*
X113953589Y-72346410D01*
X114003193Y-72387118D01*
X114113550Y-72477685D01*
X114296046Y-72575232D01*
X114494066Y-72635300D01*
X114494065Y-72635300D01*
X114512529Y-72637118D01*
X114700000Y-72655583D01*
X114905934Y-72635300D01*
X115103954Y-72575232D01*
X115286450Y-72477685D01*
X115446410Y-72346410D01*
X115577685Y-72186450D01*
X115675232Y-72003954D01*
X115735300Y-71805934D01*
X115755583Y-71600000D01*
X115735300Y-71394066D01*
X115675232Y-71196046D01*
X115577685Y-71013550D01*
X115517974Y-70940792D01*
X115446410Y-70853589D01*
X115318477Y-70748599D01*
X115286450Y-70722315D01*
X115103954Y-70624768D01*
X114905934Y-70564700D01*
X114905932Y-70564699D01*
X114905934Y-70564699D01*
X114700000Y-70544417D01*
X114494067Y-70564699D01*
X114413837Y-70589036D01*
X114363418Y-70604331D01*
X114293553Y-70604954D01*
X114239744Y-70573351D01*
X113474319Y-69807926D01*
X113440834Y-69746603D01*
X113438000Y-69720245D01*
X113438000Y-69683379D01*
X113457685Y-69616340D01*
X113463619Y-69607899D01*
X113496524Y-69565018D01*
X113549474Y-69437183D01*
X113567535Y-69300000D01*
X113561488Y-69254072D01*
X113572253Y-69185040D01*
X113618632Y-69132783D01*
X113638936Y-69122534D01*
X113672342Y-69109361D01*
X113792922Y-69017922D01*
X113884361Y-68897342D01*
X113939877Y-68756564D01*
X113949673Y-68674986D01*
X117850001Y-68674986D01*
X117860494Y-68777697D01*
X117915641Y-68944119D01*
X117915643Y-68944124D01*
X118007684Y-69093345D01*
X118131654Y-69217315D01*
X118280875Y-69309356D01*
X118280880Y-69309358D01*
X118447302Y-69364505D01*
X118447309Y-69364506D01*
X118550019Y-69374999D01*
X118712499Y-69374999D01*
X119212500Y-69374999D01*
X119374972Y-69374999D01*
X119374986Y-69374998D01*
X119477697Y-69364505D01*
X119644119Y-69309358D01*
X119644124Y-69309356D01*
X119793345Y-69217315D01*
X119917315Y-69093345D01*
X120009356Y-68944124D01*
X120009358Y-68944119D01*
X120064505Y-68777697D01*
X120064506Y-68777690D01*
X120074999Y-68674986D01*
X120075000Y-68674973D01*
X120075000Y-67450000D01*
X119212500Y-67450000D01*
X119212500Y-69374999D01*
X118712499Y-69374999D01*
X118712500Y-69374998D01*
X118712500Y-67450000D01*
X117850001Y-67450000D01*
X117850001Y-68674986D01*
X113949673Y-68674986D01*
X113950500Y-68668102D01*
X113950500Y-65731898D01*
X113939877Y-65643436D01*
X113939876Y-65643434D01*
X113939378Y-65639284D01*
X113950930Y-65570376D01*
X113997902Y-65518652D01*
X114062494Y-65500500D01*
X117735624Y-65500500D01*
X117802663Y-65520185D01*
X117848418Y-65572989D01*
X117858982Y-65637103D01*
X117850000Y-65725013D01*
X117850000Y-66950000D01*
X120074999Y-66950000D01*
X120074999Y-65725028D01*
X120074998Y-65725010D01*
X120066018Y-65637101D01*
X120078788Y-65568408D01*
X120126669Y-65517524D01*
X120189376Y-65500500D01*
X120725929Y-65500500D01*
X120792968Y-65520185D01*
X120838723Y-65572989D01*
X120848667Y-65642147D01*
X120844607Y-65660439D01*
X120838311Y-65681227D01*
X120838308Y-65681241D01*
X120328444Y-68572819D01*
X120328442Y-68572836D01*
X120323544Y-68661782D01*
X120323544Y-68661788D01*
X120353769Y-68810063D01*
X120353772Y-68810070D01*
X120422883Y-68944695D01*
X120469694Y-68995199D01*
X120500830Y-69057748D01*
X120493206Y-69127200D01*
X120466432Y-69167173D01*
X119079522Y-70554084D01*
X119079520Y-70554087D01*
X119026791Y-70645413D01*
X119012642Y-70698225D01*
X119012642Y-70698226D01*
X118999500Y-70747273D01*
X118999500Y-70748599D01*
X118999183Y-70749675D01*
X118998439Y-70755333D01*
X118997556Y-70755216D01*
X118979815Y-70815638D01*
X118933953Y-70857957D01*
X118813550Y-70922315D01*
X118813548Y-70922316D01*
X118813547Y-70922317D01*
X118653589Y-71053589D01*
X118533845Y-71199500D01*
X118522315Y-71213550D01*
X118504879Y-71246171D01*
X118424769Y-71396043D01*
X118364699Y-71594067D01*
X118344417Y-71800000D01*
X118364699Y-72005932D01*
X118374250Y-72037417D01*
X118424768Y-72203954D01*
X118522315Y-72386450D01*
X118522864Y-72387119D01*
X118653589Y-72546410D01*
X118750209Y-72625702D01*
X118813550Y-72677685D01*
X118996046Y-72775232D01*
X119194066Y-72835300D01*
X119194065Y-72835300D01*
X119212529Y-72837118D01*
X119400000Y-72855583D01*
X119605934Y-72835300D01*
X119803954Y-72775232D01*
X119986450Y-72677685D01*
X120146410Y-72546410D01*
X120277685Y-72386450D01*
X120342043Y-72266046D01*
X120391006Y-72216202D01*
X120451401Y-72200500D01*
X121219037Y-72200500D01*
X121286076Y-72220185D01*
X121331831Y-72272989D01*
X121341775Y-72342147D01*
X121338113Y-72359095D01*
X121297900Y-72497504D01*
X121297899Y-72497510D01*
X121295000Y-72534350D01*
X121295000Y-73175000D01*
X121971000Y-73175000D01*
X122038039Y-73194685D01*
X122083794Y-73247489D01*
X122095000Y-73299000D01*
X122095000Y-73551000D01*
X122075315Y-73618039D01*
X122022511Y-73663794D01*
X121971000Y-73675000D01*
X121295000Y-73675000D01*
X121295000Y-74315649D01*
X121297899Y-74352489D01*
X121297900Y-74352495D01*
X121343716Y-74510193D01*
X121343717Y-74510196D01*
X121427314Y-74651552D01*
X121427321Y-74651561D01*
X121463579Y-74687819D01*
X121497064Y-74749142D01*
X121492080Y-74818834D01*
X121450208Y-74874767D01*
X121384744Y-74899184D01*
X121375898Y-74899500D01*
X119551401Y-74899500D01*
X119484362Y-74879815D01*
X119442043Y-74833954D01*
X119433368Y-74817725D01*
X119377685Y-74713550D01*
X119304824Y-74624768D01*
X119246410Y-74553589D01*
X119086452Y-74422317D01*
X119086453Y-74422317D01*
X119086450Y-74422315D01*
X118903954Y-74324768D01*
X118705934Y-74264700D01*
X118705932Y-74264699D01*
X118705934Y-74264699D01*
X118500000Y-74244417D01*
X118294067Y-74264699D01*
X118096043Y-74324769D01*
X117985898Y-74383643D01*
X117913550Y-74422315D01*
X117913548Y-74422316D01*
X117913547Y-74422317D01*
X117753589Y-74553589D01*
X117629873Y-74704340D01*
X117622315Y-74713550D01*
X117609683Y-74737183D01*
X117524769Y-74896043D01*
X117464699Y-75094067D01*
X117444417Y-75300000D01*
X117464699Y-75505932D01*
X117493234Y-75600000D01*
X117524768Y-75703954D01*
X117622315Y-75886450D01*
X117656969Y-75928677D01*
X117753589Y-76046410D01*
X117818890Y-76100000D01*
X117913550Y-76177685D01*
X118096046Y-76275232D01*
X118294066Y-76335300D01*
X118294065Y-76335300D01*
X118312529Y-76337118D01*
X118500000Y-76355583D01*
X118705934Y-76335300D01*
X118903954Y-76275232D01*
X119086450Y-76177685D01*
X119246410Y-76046410D01*
X119377685Y-75886450D01*
X119442043Y-75766046D01*
X119491006Y-75716202D01*
X119551401Y-75700500D01*
X124152725Y-75700500D01*
X124152727Y-75700500D01*
X124254588Y-75673207D01*
X124345913Y-75620480D01*
X124955480Y-75010913D01*
X125008207Y-74919588D01*
X125035500Y-74817727D01*
X125035500Y-74712273D01*
X125035500Y-74687628D01*
X125055185Y-74620589D01*
X125085866Y-74587857D01*
X125107150Y-74572150D01*
X125146195Y-74519244D01*
X125201841Y-74476995D01*
X125271497Y-74471536D01*
X125333047Y-74504603D01*
X125366949Y-74565696D01*
X125369965Y-74592879D01*
X125369965Y-74600000D01*
X125384746Y-74712273D01*
X125388026Y-74737181D01*
X125388027Y-74737186D01*
X125440974Y-74865015D01*
X125440975Y-74865017D01*
X125440976Y-74865018D01*
X125525209Y-74974791D01*
X125634982Y-75059024D01*
X125762817Y-75111974D01*
X125885702Y-75128152D01*
X125899999Y-75130035D01*
X125900000Y-75130035D01*
X125900001Y-75130035D01*
X125912947Y-75128330D01*
X126037183Y-75111974D01*
X126165018Y-75059024D01*
X126274791Y-74974791D01*
X126359024Y-74865018D01*
X126411974Y-74737183D01*
X126430035Y-74600000D01*
X126425445Y-74565138D01*
X126436210Y-74496103D01*
X126448614Y-74475318D01*
X126457793Y-74462882D01*
X126496419Y-74352495D01*
X126502646Y-74334701D01*
X126502646Y-74334699D01*
X126505500Y-74304269D01*
X126505500Y-72545730D01*
X126502646Y-72515300D01*
X126502646Y-72515298D01*
X126457793Y-72387119D01*
X126457792Y-72387117D01*
X126422873Y-72339803D01*
X126377150Y-72277850D01*
X126267882Y-72197207D01*
X126267880Y-72197206D01*
X126139700Y-72152353D01*
X126109270Y-72149500D01*
X126109266Y-72149500D01*
X125880436Y-72149500D01*
X125813397Y-72129815D01*
X125767642Y-72077011D01*
X125757698Y-72007853D01*
X125770805Y-71967560D01*
X125774377Y-71960799D01*
X125774381Y-71960794D01*
X125814580Y-71845913D01*
X125817741Y-71836881D01*
X125817741Y-71836879D01*
X125818717Y-71826469D01*
X125820500Y-71807457D01*
X125820499Y-71432544D01*
X125817741Y-71403121D01*
X125790895Y-71326402D01*
X125787333Y-71256626D01*
X125820257Y-71197767D01*
X125890731Y-71127294D01*
X125890738Y-71127285D01*
X125972404Y-70989194D01*
X126012844Y-70850000D01*
X125324000Y-70850000D01*
X125256961Y-70830315D01*
X125211206Y-70777511D01*
X125200000Y-70726000D01*
X125200000Y-70600000D01*
X125074000Y-70600000D01*
X125006961Y-70580315D01*
X124961206Y-70527511D01*
X124955178Y-70499800D01*
X127186009Y-70499800D01*
X127346024Y-70528014D01*
X127448997Y-70535516D01*
X127622476Y-70510106D01*
X127785409Y-70445376D01*
X127929029Y-70344812D01*
X128045583Y-70213841D01*
X128073212Y-70162600D01*
X128122354Y-70112934D01*
X128190548Y-70097721D01*
X128256141Y-70121791D01*
X128298308Y-70177502D01*
X128306187Y-70214960D01*
X128315219Y-70387287D01*
X128375886Y-70770323D01*
X128375887Y-70770330D01*
X128476262Y-71144936D01*
X128615244Y-71506994D01*
X128791310Y-71852543D01*
X129002523Y-72177783D01*
X129002525Y-72177785D01*
X129211096Y-72435348D01*
X130705747Y-70940697D01*
X130779588Y-71042330D01*
X130957670Y-71220412D01*
X131059301Y-71294251D01*
X129564650Y-72788902D01*
X129822214Y-72997475D01*
X129822216Y-72997476D01*
X130147456Y-73208689D01*
X130493005Y-73384755D01*
X130855063Y-73523737D01*
X131229669Y-73624112D01*
X131229676Y-73624113D01*
X131612712Y-73684780D01*
X131999999Y-73705078D01*
X132000001Y-73705078D01*
X132387287Y-73684780D01*
X132770323Y-73624113D01*
X132770330Y-73624112D01*
X133144936Y-73523737D01*
X133506994Y-73384755D01*
X133852543Y-73208689D01*
X134177771Y-72997484D01*
X134177784Y-72997474D01*
X134435348Y-72788902D01*
X132940698Y-71294252D01*
X133042330Y-71220412D01*
X133220412Y-71042330D01*
X133294252Y-70940698D01*
X134788902Y-72435348D01*
X134997474Y-72177784D01*
X134997484Y-72177771D01*
X135208689Y-71852543D01*
X135384755Y-71506994D01*
X135523737Y-71144936D01*
X135624112Y-70770330D01*
X135624113Y-70770323D01*
X135684780Y-70387287D01*
X135705078Y-70000000D01*
X135705078Y-69999999D01*
X135684780Y-69612712D01*
X135624113Y-69229676D01*
X135624112Y-69229669D01*
X135523737Y-68855063D01*
X135384755Y-68493005D01*
X135208689Y-68147456D01*
X134997476Y-67822216D01*
X134997475Y-67822214D01*
X134788902Y-67564650D01*
X133294251Y-69059301D01*
X133220412Y-68957670D01*
X133042330Y-68779588D01*
X132940698Y-68705748D01*
X134435349Y-67211096D01*
X134177785Y-67002525D01*
X134177783Y-67002523D01*
X133852543Y-66791310D01*
X133506994Y-66615244D01*
X133144936Y-66476262D01*
X132770330Y-66375887D01*
X132770323Y-66375886D01*
X132387287Y-66315219D01*
X132000001Y-66294922D01*
X131999999Y-66294922D01*
X131612712Y-66315219D01*
X131229676Y-66375886D01*
X131229669Y-66375887D01*
X130855063Y-66476262D01*
X130493005Y-66615244D01*
X130147456Y-66791310D01*
X129822206Y-67002531D01*
X129564649Y-67211095D01*
X129564649Y-67211096D01*
X131059301Y-68705748D01*
X130957670Y-68779588D01*
X130779588Y-68957670D01*
X130705748Y-69059301D01*
X129211096Y-67564649D01*
X129211095Y-67564649D01*
X129002531Y-67822206D01*
X128791310Y-68147456D01*
X128686729Y-68352708D01*
X128638754Y-68403504D01*
X128570933Y-68420299D01*
X128504798Y-68397762D01*
X128461347Y-68343046D01*
X128454128Y-68274881D01*
X128669218Y-67055041D01*
X128676720Y-66952067D01*
X128651309Y-66778588D01*
X128586583Y-66615662D01*
X128586578Y-66615652D01*
X128486018Y-66472037D01*
X128355045Y-66355482D01*
X128200725Y-66272273D01*
X128200722Y-66272272D01*
X128101404Y-66244104D01*
X128101384Y-66244099D01*
X127941378Y-66215886D01*
X127563695Y-68357844D01*
X127186009Y-70499800D01*
X124955178Y-70499800D01*
X124950000Y-70476000D01*
X124950000Y-69830068D01*
X125450000Y-69830068D01*
X125450000Y-70350000D01*
X126012844Y-70350000D01*
X126009805Y-70339539D01*
X126010004Y-70269669D01*
X126047946Y-70210999D01*
X126111584Y-70182155D01*
X126180714Y-70192296D01*
X126211315Y-70212311D01*
X126279940Y-70273381D01*
X126434260Y-70356590D01*
X126434263Y-70356591D01*
X126533586Y-70384760D01*
X126533601Y-70384764D01*
X126693605Y-70412976D01*
X127027878Y-68517221D01*
X126178481Y-68367449D01*
X125965767Y-69573822D01*
X125958265Y-69676796D01*
X125983565Y-69849514D01*
X125973804Y-69918699D01*
X125928189Y-69971624D01*
X125861202Y-69991486D01*
X125794111Y-69971979D01*
X125783757Y-69963657D01*
X125783455Y-69964047D01*
X125777285Y-69959261D01*
X125639191Y-69877593D01*
X125639188Y-69877592D01*
X125485130Y-69832834D01*
X125450000Y-69830068D01*
X124950000Y-69830068D01*
X124949999Y-69830068D01*
X124914869Y-69832834D01*
X124914868Y-69832834D01*
X124760811Y-69877592D01*
X124760808Y-69877593D01*
X124622714Y-69959261D01*
X124622709Y-69959265D01*
X124557415Y-70024559D01*
X124496091Y-70058043D01*
X124428779Y-70053918D01*
X124366881Y-70032259D01*
X124366879Y-70032258D01*
X124337461Y-70029500D01*
X123862546Y-70029500D01*
X123833125Y-70032258D01*
X123833120Y-70032259D01*
X123726053Y-70069723D01*
X123668914Y-70075620D01*
X123550002Y-70059965D01*
X123549998Y-70059965D01*
X123431083Y-70075620D01*
X123373943Y-70069722D01*
X123266880Y-70032258D01*
X123237461Y-70029500D01*
X122762546Y-70029500D01*
X122733125Y-70032258D01*
X122733115Y-70032260D01*
X122609207Y-70075618D01*
X122503576Y-70153576D01*
X122425618Y-70259207D01*
X122382258Y-70383118D01*
X122382258Y-70383120D01*
X122379500Y-70412538D01*
X122379500Y-70787453D01*
X122382258Y-70816874D01*
X122382260Y-70816884D01*
X122425618Y-70940792D01*
X122425619Y-70940794D01*
X122470692Y-71001866D01*
X122485453Y-71021866D01*
X122509424Y-71087495D01*
X122494109Y-71155666D01*
X122444368Y-71204734D01*
X122385683Y-71219500D01*
X122067273Y-71219500D01*
X121965413Y-71246793D01*
X121965410Y-71246794D01*
X121936614Y-71263420D01*
X121909272Y-71279206D01*
X121908725Y-71279522D01*
X121874088Y-71299519D01*
X121874085Y-71299521D01*
X121810426Y-71363181D01*
X121749103Y-71396666D01*
X121722745Y-71399500D01*
X120451401Y-71399500D01*
X120384362Y-71379815D01*
X120342043Y-71333954D01*
X120312948Y-71279522D01*
X120277685Y-71213550D01*
X120194581Y-71112287D01*
X120146410Y-71053589D01*
X120014010Y-70944933D01*
X119974675Y-70887187D01*
X119972804Y-70817343D01*
X120004991Y-70761400D01*
X121420480Y-69345913D01*
X121420480Y-69345912D01*
X121426227Y-69340166D01*
X121427675Y-69341614D01*
X121475234Y-69306885D01*
X121535143Y-69301761D01*
X121535224Y-69301064D01*
X121538664Y-69301460D01*
X121538719Y-69301456D01*
X121538898Y-69301487D01*
X121538912Y-69301489D01*
X121627862Y-69306387D01*
X121627868Y-69306387D01*
X121776147Y-69276161D01*
X121819170Y-69254075D01*
X121910767Y-69207053D01*
X121910769Y-69207051D01*
X121910774Y-69207049D01*
X122021762Y-69104179D01*
X122100880Y-68975180D01*
X122126703Y-68889907D01*
X122305651Y-67875046D01*
X126265305Y-67875046D01*
X127114702Y-68024816D01*
X127448975Y-66129062D01*
X127288965Y-66100849D01*
X127288957Y-66100848D01*
X127185988Y-66093347D01*
X127012509Y-66118757D01*
X126849576Y-66183487D01*
X126705956Y-66284051D01*
X126589403Y-66415021D01*
X126506193Y-66569342D01*
X126506192Y-66569345D01*
X126478025Y-66668662D01*
X126478020Y-66668684D01*
X126265305Y-67875046D01*
X122305651Y-67875046D01*
X122636570Y-65998311D01*
X122641469Y-65909348D01*
X122613441Y-65771853D01*
X122611244Y-65761072D01*
X122611240Y-65761061D01*
X122570207Y-65681130D01*
X122557102Y-65612500D01*
X122583182Y-65547680D01*
X122640166Y-65507250D01*
X122680520Y-65500500D01*
X131934108Y-65500500D01*
X131997294Y-65500500D01*
X132002702Y-65500617D01*
X132386771Y-65517386D01*
X132397506Y-65518326D01*
X132775971Y-65568152D01*
X132786597Y-65570025D01*
X133159284Y-65652648D01*
X133169710Y-65655442D01*
X133533765Y-65770227D01*
X133543911Y-65773920D01*
X133896578Y-65920000D01*
X133906369Y-65924566D01*
X134230594Y-66093347D01*
X134244942Y-66100816D01*
X134254310Y-66106224D01*
X134576244Y-66311318D01*
X134585105Y-66317523D01*
X134887930Y-66549889D01*
X134896217Y-66556843D01*
X135177635Y-66814715D01*
X135185284Y-66822364D01*
X135443156Y-67103782D01*
X135450110Y-67112069D01*
X135682476Y-67414894D01*
X135688681Y-67423755D01*
X135893775Y-67745689D01*
X135899183Y-67755057D01*
X136075430Y-68093623D01*
X136080002Y-68103427D01*
X136226075Y-68456078D01*
X136229775Y-68466244D01*
X136344554Y-68830278D01*
X136347354Y-68840727D01*
X136429971Y-69213389D01*
X136431849Y-69224042D01*
X136481671Y-69602473D01*
X136482614Y-69613249D01*
X136495953Y-69918772D01*
X136499382Y-69997297D01*
X136499500Y-70002706D01*
X136499500Y-99997293D01*
X136499382Y-100002702D01*
X136482614Y-100386750D01*
X136481671Y-100397526D01*
X136431849Y-100775957D01*
X136429971Y-100786610D01*
X136347354Y-101159272D01*
X136344554Y-101169721D01*
X136229775Y-101533755D01*
X136226075Y-101543921D01*
X136080002Y-101896572D01*
X136075430Y-101906376D01*
X135899183Y-102244942D01*
X135893775Y-102254310D01*
X135688681Y-102576244D01*
X135682476Y-102585105D01*
X135450110Y-102887930D01*
X135443156Y-102896217D01*
X135185284Y-103177635D01*
X135177635Y-103185284D01*
X134896217Y-103443156D01*
X134887930Y-103450110D01*
X134585105Y-103682476D01*
X134576244Y-103688681D01*
X134254310Y-103893775D01*
X134244942Y-103899183D01*
X133906376Y-104075430D01*
X133896572Y-104080002D01*
X133543921Y-104226075D01*
X133533755Y-104229775D01*
X133169721Y-104344554D01*
X133159272Y-104347354D01*
X132786610Y-104429971D01*
X132775957Y-104431849D01*
X132397526Y-104481671D01*
X132386750Y-104482614D01*
X132002703Y-104499382D01*
X131997294Y-104499500D01*
X100002706Y-104499500D01*
X99997297Y-104499382D01*
X99613249Y-104482614D01*
X99602473Y-104481671D01*
X99224042Y-104431849D01*
X99213389Y-104429971D01*
X98840727Y-104347354D01*
X98830278Y-104344554D01*
X98466244Y-104229775D01*
X98456078Y-104226075D01*
X98103427Y-104080002D01*
X98093623Y-104075430D01*
X97755057Y-103899183D01*
X97745689Y-103893775D01*
X97423755Y-103688681D01*
X97414894Y-103682476D01*
X97112069Y-103450110D01*
X97103782Y-103443156D01*
X96822364Y-103185284D01*
X96814715Y-103177635D01*
X96556843Y-102896217D01*
X96549889Y-102887930D01*
X96317523Y-102585105D01*
X96311318Y-102576244D01*
X96205001Y-102409360D01*
X96106223Y-102254309D01*
X96100816Y-102244942D01*
X95924566Y-101906369D01*
X95919997Y-101896572D01*
X95878933Y-101797434D01*
X95773920Y-101543911D01*
X95770224Y-101533755D01*
X95655442Y-101169710D01*
X95652648Y-101159284D01*
X95570025Y-100786597D01*
X95568152Y-100775971D01*
X95518326Y-100397506D01*
X95517386Y-100386771D01*
X95500618Y-100002702D01*
X95500559Y-99999999D01*
X96294922Y-99999999D01*
X96294922Y-100000000D01*
X96315219Y-100387287D01*
X96375886Y-100770323D01*
X96375887Y-100770330D01*
X96476262Y-101144936D01*
X96615244Y-101506994D01*
X96791310Y-101852543D01*
X97002523Y-102177783D01*
X97002525Y-102177785D01*
X97211096Y-102435348D01*
X98705747Y-100940697D01*
X98779588Y-101042330D01*
X98957670Y-101220412D01*
X99059301Y-101294251D01*
X97564650Y-102788902D01*
X97822214Y-102997475D01*
X97822216Y-102997476D01*
X98147456Y-103208689D01*
X98493005Y-103384755D01*
X98855063Y-103523737D01*
X99229669Y-103624112D01*
X99229676Y-103624113D01*
X99612712Y-103684780D01*
X99999999Y-103705078D01*
X100000001Y-103705078D01*
X100387287Y-103684780D01*
X100770323Y-103624113D01*
X100770330Y-103624112D01*
X101144936Y-103523737D01*
X101506994Y-103384755D01*
X101852543Y-103208689D01*
X102177771Y-102997484D01*
X102177784Y-102997474D01*
X102435348Y-102788902D01*
X100940698Y-101294252D01*
X101042330Y-101220412D01*
X101220412Y-101042330D01*
X101294252Y-100940698D01*
X102788902Y-102435348D01*
X102997474Y-102177784D01*
X102997484Y-102177771D01*
X103208689Y-101852543D01*
X103384755Y-101506994D01*
X103523737Y-101144936D01*
X103624112Y-100770330D01*
X103624113Y-100770323D01*
X103677714Y-100431898D01*
X108349500Y-100431898D01*
X108349500Y-101968102D01*
X108353473Y-102001185D01*
X108360122Y-102056561D01*
X108360122Y-102056563D01*
X108360123Y-102056564D01*
X108377722Y-102101192D01*
X108415639Y-102197343D01*
X108507077Y-102317922D01*
X108627656Y-102409360D01*
X108627657Y-102409360D01*
X108627658Y-102409361D01*
X108768436Y-102464877D01*
X108856898Y-102475500D01*
X108856903Y-102475500D01*
X110143097Y-102475500D01*
X110143102Y-102475500D01*
X110231564Y-102464877D01*
X110372342Y-102409361D01*
X110492922Y-102317922D01*
X110584361Y-102197342D01*
X110639877Y-102056564D01*
X110650500Y-101968102D01*
X110650500Y-101677669D01*
X110670185Y-101610630D01*
X110722989Y-101564875D01*
X110792147Y-101554931D01*
X110855703Y-101583956D01*
X110892431Y-101639351D01*
X110933787Y-101766636D01*
X110933788Y-101766639D01*
X110989664Y-101876300D01*
X111016003Y-101927993D01*
X111016006Y-101927997D01*
X111122441Y-102074494D01*
X111122445Y-102074499D01*
X111250500Y-102202554D01*
X111250505Y-102202558D01*
X111378287Y-102295396D01*
X111397006Y-102308996D01*
X111486750Y-102354723D01*
X111558360Y-102391211D01*
X111558363Y-102391212D01*
X111640398Y-102417866D01*
X111730591Y-102447171D01*
X111813429Y-102460291D01*
X111909449Y-102475500D01*
X111909454Y-102475500D01*
X112090551Y-102475500D01*
X112177259Y-102461765D01*
X112269409Y-102447171D01*
X112441639Y-102391211D01*
X112602994Y-102308996D01*
X112749501Y-102202553D01*
X112877553Y-102074501D01*
X112983996Y-101927994D01*
X113027563Y-101842488D01*
X113075537Y-101791692D01*
X113143358Y-101774897D01*
X113209493Y-101797434D01*
X113248533Y-101842488D01*
X113345379Y-102032557D01*
X113470272Y-102204459D01*
X113470276Y-102204464D01*
X113620535Y-102354723D01*
X113620540Y-102354727D01*
X113792442Y-102479620D01*
X113981782Y-102576095D01*
X114183871Y-102641757D01*
X114250000Y-102652231D01*
X114250000Y-101604145D01*
X114316657Y-101642630D01*
X114437465Y-101675000D01*
X114562535Y-101675000D01*
X114683343Y-101642630D01*
X114750000Y-101604145D01*
X114750000Y-102652230D01*
X114816126Y-102641757D01*
X114816129Y-102641757D01*
X115018217Y-102576095D01*
X115207557Y-102479620D01*
X115379459Y-102354727D01*
X115379464Y-102354723D01*
X115529723Y-102204464D01*
X115529727Y-102204459D01*
X115654620Y-102032558D01*
X115751466Y-101842488D01*
X115799440Y-101791692D01*
X115867261Y-101774897D01*
X115933396Y-101797434D01*
X115972435Y-101842488D01*
X116016002Y-101927992D01*
X116016003Y-101927993D01*
X116122441Y-102074494D01*
X116122445Y-102074499D01*
X116250500Y-102202554D01*
X116250505Y-102202558D01*
X116378287Y-102295396D01*
X116397006Y-102308996D01*
X116486750Y-102354723D01*
X116558360Y-102391211D01*
X116558363Y-102391212D01*
X116640398Y-102417866D01*
X116730591Y-102447171D01*
X116813429Y-102460291D01*
X116909449Y-102475500D01*
X116909454Y-102475500D01*
X117090551Y-102475500D01*
X117177259Y-102461765D01*
X117269409Y-102447171D01*
X117441639Y-102391211D01*
X117602994Y-102308996D01*
X117749501Y-102202553D01*
X117877553Y-102074501D01*
X117983996Y-101927994D01*
X118066211Y-101766639D01*
X118122171Y-101594409D01*
X118126849Y-101564875D01*
X118127527Y-101560594D01*
X118157456Y-101497459D01*
X118216768Y-101460528D01*
X118286630Y-101461526D01*
X118344863Y-101500136D01*
X118372473Y-101560594D01*
X118377829Y-101594410D01*
X118433787Y-101766636D01*
X118433788Y-101766639D01*
X118489664Y-101876300D01*
X118516003Y-101927993D01*
X118516006Y-101927997D01*
X118622441Y-102074494D01*
X118622445Y-102074499D01*
X118750500Y-102202554D01*
X118750505Y-102202558D01*
X118878287Y-102295396D01*
X118897006Y-102308996D01*
X118986750Y-102354723D01*
X119058360Y-102391211D01*
X119058363Y-102391212D01*
X119140398Y-102417866D01*
X119230591Y-102447171D01*
X119313429Y-102460291D01*
X119409449Y-102475500D01*
X119409454Y-102475500D01*
X119590551Y-102475500D01*
X119677259Y-102461765D01*
X119769409Y-102447171D01*
X119941639Y-102391211D01*
X120102994Y-102308996D01*
X120249501Y-102202553D01*
X120377553Y-102074501D01*
X120483996Y-101927994D01*
X120566211Y-101766639D01*
X120622171Y-101594409D01*
X120626849Y-101564875D01*
X120627527Y-101560594D01*
X120657456Y-101497459D01*
X120716768Y-101460528D01*
X120786630Y-101461526D01*
X120844863Y-101500136D01*
X120872473Y-101560594D01*
X120877829Y-101594410D01*
X120933787Y-101766636D01*
X120933788Y-101766639D01*
X120989664Y-101876300D01*
X121016003Y-101927993D01*
X121016006Y-101927997D01*
X121122441Y-102074494D01*
X121122445Y-102074499D01*
X121250500Y-102202554D01*
X121250505Y-102202558D01*
X121378287Y-102295396D01*
X121397006Y-102308996D01*
X121486750Y-102354723D01*
X121558360Y-102391211D01*
X121558363Y-102391212D01*
X121640398Y-102417866D01*
X121730591Y-102447171D01*
X121813429Y-102460291D01*
X121909449Y-102475500D01*
X121909454Y-102475500D01*
X122090551Y-102475500D01*
X122177259Y-102461765D01*
X122269409Y-102447171D01*
X122441639Y-102391211D01*
X122602994Y-102308996D01*
X122749501Y-102202553D01*
X122877553Y-102074501D01*
X122983996Y-101927994D01*
X123066211Y-101766639D01*
X123122171Y-101594409D01*
X123138445Y-101491657D01*
X123150500Y-101415551D01*
X123150500Y-100984448D01*
X123128495Y-100845522D01*
X123122171Y-100805591D01*
X123066211Y-100633361D01*
X123066211Y-100633360D01*
X123027563Y-100557511D01*
X122983996Y-100472006D01*
X122954856Y-100431898D01*
X122877558Y-100325505D01*
X122877554Y-100325500D01*
X122749499Y-100197445D01*
X122749494Y-100197441D01*
X122602997Y-100091006D01*
X122602996Y-100091005D01*
X122602994Y-100091004D01*
X122551300Y-100064664D01*
X122441639Y-100008788D01*
X122441636Y-100008787D01*
X122414589Y-99999999D01*
X128294922Y-99999999D01*
X128294922Y-100000000D01*
X128315219Y-100387287D01*
X128375886Y-100770323D01*
X128375887Y-100770330D01*
X128476262Y-101144936D01*
X128615244Y-101506994D01*
X128791310Y-101852543D01*
X129002523Y-102177783D01*
X129002525Y-102177785D01*
X129211096Y-102435348D01*
X130705747Y-100940697D01*
X130779588Y-101042330D01*
X130957670Y-101220412D01*
X131059301Y-101294251D01*
X129564650Y-102788902D01*
X129822214Y-102997475D01*
X129822216Y-102997476D01*
X130147456Y-103208689D01*
X130493005Y-103384755D01*
X130855063Y-103523737D01*
X131229669Y-103624112D01*
X131229676Y-103624113D01*
X131612712Y-103684780D01*
X131999999Y-103705078D01*
X132000001Y-103705078D01*
X132387287Y-103684780D01*
X132770323Y-103624113D01*
X132770330Y-103624112D01*
X133144936Y-103523737D01*
X133506994Y-103384755D01*
X133852543Y-103208689D01*
X134177771Y-102997484D01*
X134177784Y-102997474D01*
X134435348Y-102788902D01*
X132940698Y-101294252D01*
X133042330Y-101220412D01*
X133220412Y-101042330D01*
X133294252Y-100940698D01*
X134788902Y-102435348D01*
X134997474Y-102177784D01*
X134997484Y-102177771D01*
X135208689Y-101852543D01*
X135384755Y-101506994D01*
X135523737Y-101144936D01*
X135624112Y-100770330D01*
X135624113Y-100770323D01*
X135684780Y-100387287D01*
X135705078Y-100000000D01*
X135705078Y-99999999D01*
X135684780Y-99612712D01*
X135624113Y-99229676D01*
X135624112Y-99229669D01*
X135523737Y-98855063D01*
X135384755Y-98493005D01*
X135208689Y-98147456D01*
X134997476Y-97822216D01*
X134997475Y-97822214D01*
X134788902Y-97564650D01*
X133294251Y-99059301D01*
X133220412Y-98957670D01*
X133042330Y-98779588D01*
X132940698Y-98705748D01*
X134435349Y-97211096D01*
X134177785Y-97002525D01*
X134177783Y-97002523D01*
X133852543Y-96791310D01*
X133506994Y-96615244D01*
X133144936Y-96476262D01*
X132770330Y-96375887D01*
X132770323Y-96375886D01*
X132387287Y-96315219D01*
X132000001Y-96294922D01*
X131999999Y-96294922D01*
X131612712Y-96315219D01*
X131229676Y-96375886D01*
X131229669Y-96375887D01*
X130855063Y-96476262D01*
X130493005Y-96615244D01*
X130147456Y-96791310D01*
X129822206Y-97002531D01*
X129564649Y-97211095D01*
X129564649Y-97211096D01*
X131059301Y-98705748D01*
X130957670Y-98779588D01*
X130779588Y-98957670D01*
X130705748Y-99059301D01*
X129211096Y-97564649D01*
X129211095Y-97564649D01*
X129002531Y-97822206D01*
X128791310Y-98147456D01*
X128615244Y-98493005D01*
X128476262Y-98855063D01*
X128375887Y-99229669D01*
X128375886Y-99229676D01*
X128315219Y-99612712D01*
X128294922Y-99999999D01*
X122414589Y-99999999D01*
X122269410Y-99952829D01*
X122090551Y-99924500D01*
X122090546Y-99924500D01*
X121909454Y-99924500D01*
X121909449Y-99924500D01*
X121730589Y-99952829D01*
X121558363Y-100008787D01*
X121558360Y-100008788D01*
X121397002Y-100091006D01*
X121250505Y-100197441D01*
X121250500Y-100197445D01*
X121122445Y-100325500D01*
X121122441Y-100325505D01*
X121016006Y-100472002D01*
X120933788Y-100633360D01*
X120933787Y-100633363D01*
X120877829Y-100805589D01*
X120872473Y-100839406D01*
X120842543Y-100902540D01*
X120783232Y-100939471D01*
X120713369Y-100938473D01*
X120655137Y-100899863D01*
X120627527Y-100839406D01*
X120624438Y-100819905D01*
X120622171Y-100805591D01*
X120566211Y-100633361D01*
X120566211Y-100633360D01*
X120527563Y-100557511D01*
X120483996Y-100472006D01*
X120454856Y-100431898D01*
X120377558Y-100325505D01*
X120377554Y-100325500D01*
X120249499Y-100197445D01*
X120249494Y-100197441D01*
X120102997Y-100091006D01*
X120102996Y-100091005D01*
X120102994Y-100091004D01*
X120051300Y-100064664D01*
X119941639Y-100008788D01*
X119941636Y-100008787D01*
X119769410Y-99952829D01*
X119590551Y-99924500D01*
X119590546Y-99924500D01*
X119409454Y-99924500D01*
X119409449Y-99924500D01*
X119230589Y-99952829D01*
X119058363Y-100008787D01*
X119058360Y-100008788D01*
X118897002Y-100091006D01*
X118750505Y-100197441D01*
X118750500Y-100197445D01*
X118622445Y-100325500D01*
X118622441Y-100325505D01*
X118516006Y-100472002D01*
X118433788Y-100633360D01*
X118433787Y-100633363D01*
X118377829Y-100805589D01*
X118372473Y-100839406D01*
X118342543Y-100902540D01*
X118283232Y-100939471D01*
X118213369Y-100938473D01*
X118155137Y-100899863D01*
X118127527Y-100839406D01*
X118124438Y-100819905D01*
X118122171Y-100805591D01*
X118066211Y-100633361D01*
X118066211Y-100633360D01*
X118027563Y-100557511D01*
X117983996Y-100472006D01*
X117954856Y-100431898D01*
X117877558Y-100325505D01*
X117877554Y-100325500D01*
X117749499Y-100197445D01*
X117749494Y-100197441D01*
X117602997Y-100091006D01*
X117602996Y-100091005D01*
X117602994Y-100091004D01*
X117551300Y-100064664D01*
X117441639Y-100008788D01*
X117441636Y-100008787D01*
X117269410Y-99952829D01*
X117090551Y-99924500D01*
X117090546Y-99924500D01*
X116909454Y-99924500D01*
X116909449Y-99924500D01*
X116730589Y-99952829D01*
X116558363Y-100008787D01*
X116558360Y-100008788D01*
X116397002Y-100091006D01*
X116250505Y-100197441D01*
X116250500Y-100197445D01*
X116122445Y-100325500D01*
X116122441Y-100325505D01*
X116016004Y-100472004D01*
X115972435Y-100557512D01*
X115924460Y-100608307D01*
X115856639Y-100625102D01*
X115790504Y-100602564D01*
X115751466Y-100557511D01*
X115654620Y-100367442D01*
X115529727Y-100195540D01*
X115529723Y-100195535D01*
X115379464Y-100045276D01*
X115379459Y-100045272D01*
X115207557Y-99920379D01*
X115018215Y-99823903D01*
X114816124Y-99758241D01*
X114750000Y-99747768D01*
X114750000Y-100795854D01*
X114683343Y-100757370D01*
X114562535Y-100725000D01*
X114437465Y-100725000D01*
X114316657Y-100757370D01*
X114250000Y-100795854D01*
X114250000Y-99747768D01*
X114249999Y-99747768D01*
X114183875Y-99758241D01*
X113981784Y-99823903D01*
X113792442Y-99920379D01*
X113620540Y-100045272D01*
X113620535Y-100045276D01*
X113470276Y-100195535D01*
X113470272Y-100195540D01*
X113345379Y-100367442D01*
X113248533Y-100557511D01*
X113200558Y-100608307D01*
X113132737Y-100625102D01*
X113066602Y-100602564D01*
X113027563Y-100557511D01*
X112983996Y-100472006D01*
X112954856Y-100431898D01*
X112877558Y-100325505D01*
X112877554Y-100325500D01*
X112749499Y-100197445D01*
X112749494Y-100197441D01*
X112602997Y-100091006D01*
X112602996Y-100091005D01*
X112602994Y-100091004D01*
X112551300Y-100064664D01*
X112441639Y-100008788D01*
X112441636Y-100008787D01*
X112269410Y-99952829D01*
X112090551Y-99924500D01*
X112090546Y-99924500D01*
X111909454Y-99924500D01*
X111909449Y-99924500D01*
X111730589Y-99952829D01*
X111558363Y-100008787D01*
X111558360Y-100008788D01*
X111397002Y-100091006D01*
X111250505Y-100197441D01*
X111250500Y-100197445D01*
X111122445Y-100325500D01*
X111122441Y-100325505D01*
X111016006Y-100472002D01*
X110933788Y-100633360D01*
X110933787Y-100633363D01*
X110892431Y-100760648D01*
X110852994Y-100818323D01*
X110788635Y-100845522D01*
X110719789Y-100833608D01*
X110668313Y-100786364D01*
X110650500Y-100722330D01*
X110650500Y-100431903D01*
X110650500Y-100431898D01*
X110639877Y-100343436D01*
X110584361Y-100202658D01*
X110584360Y-100202657D01*
X110584360Y-100202656D01*
X110492922Y-100082077D01*
X110372343Y-99990639D01*
X110231561Y-99935122D01*
X110185926Y-99929642D01*
X110143102Y-99924500D01*
X108856898Y-99924500D01*
X108817853Y-99929188D01*
X108768438Y-99935122D01*
X108627656Y-99990639D01*
X108507077Y-100082077D01*
X108415639Y-100202656D01*
X108360122Y-100343438D01*
X108357240Y-100367442D01*
X108349500Y-100431898D01*
X103677714Y-100431898D01*
X103684780Y-100387287D01*
X103705078Y-100000000D01*
X103705078Y-99999999D01*
X103684780Y-99612712D01*
X103624113Y-99229676D01*
X103624112Y-99229669D01*
X103523737Y-98855063D01*
X103384755Y-98493005D01*
X103208689Y-98147456D01*
X103015519Y-97850000D01*
X109261210Y-97850000D01*
X109262854Y-97870910D01*
X109307968Y-98026195D01*
X109390278Y-98165374D01*
X109390285Y-98165383D01*
X109504616Y-98279714D01*
X109504625Y-98279721D01*
X109643804Y-98362031D01*
X109790000Y-98404504D01*
X109790000Y-97850000D01*
X109261210Y-97850000D01*
X103015519Y-97850000D01*
X102997476Y-97822216D01*
X102997475Y-97822214D01*
X102788902Y-97564650D01*
X101294251Y-99059301D01*
X101220412Y-98957670D01*
X101042330Y-98779588D01*
X100940698Y-98705748D01*
X102296446Y-97349999D01*
X109261209Y-97349999D01*
X109261210Y-97350000D01*
X109790000Y-97350000D01*
X109790000Y-96795494D01*
X110290000Y-96795494D01*
X110290000Y-98404503D01*
X110325223Y-98394271D01*
X110395092Y-98394470D01*
X110453762Y-98432412D01*
X110482606Y-98496050D01*
X110482757Y-98497161D01*
X110488026Y-98537181D01*
X110488027Y-98537186D01*
X110540974Y-98665015D01*
X110540975Y-98665017D01*
X110540976Y-98665018D01*
X110625209Y-98774791D01*
X110734982Y-98859024D01*
X110862817Y-98911974D01*
X110985702Y-98928152D01*
X110999999Y-98930035D01*
X111000000Y-98930035D01*
X111000001Y-98930035D01*
X111012947Y-98928330D01*
X111137183Y-98911974D01*
X111265018Y-98859024D01*
X111374791Y-98774791D01*
X111459024Y-98665018D01*
X111511974Y-98537183D01*
X111530035Y-98400000D01*
X111511974Y-98262817D01*
X111471124Y-98164195D01*
X111463655Y-98094726D01*
X111485915Y-98043109D01*
X111489974Y-98037610D01*
X111517092Y-98000866D01*
X111572740Y-97958615D01*
X111616862Y-97950500D01*
X111699750Y-97950500D01*
X111766789Y-97970185D01*
X111812544Y-98022989D01*
X111818130Y-98037595D01*
X111845016Y-98123874D01*
X111854488Y-98154271D01*
X111854488Y-98154272D01*
X111939348Y-98294648D01*
X111939351Y-98294652D01*
X112055347Y-98410648D01*
X112055351Y-98410651D01*
X112195727Y-98495511D01*
X112195736Y-98495514D01*
X112227751Y-98505490D01*
X112352343Y-98544315D01*
X112420406Y-98550500D01*
X112420409Y-98550500D01*
X113779591Y-98550500D01*
X113779594Y-98550500D01*
X113847657Y-98544315D01*
X114004270Y-98495512D01*
X114144653Y-98410648D01*
X114260648Y-98294653D01*
X114338794Y-98165383D01*
X114345511Y-98154272D01*
X114345514Y-98154263D01*
X114354984Y-98123874D01*
X114394315Y-97997657D01*
X114400500Y-97929594D01*
X114400500Y-97070406D01*
X114394315Y-97002343D01*
X114345512Y-96845730D01*
X114345511Y-96845728D01*
X114345511Y-96845727D01*
X114260651Y-96705351D01*
X114260648Y-96705347D01*
X114144652Y-96589351D01*
X114144648Y-96589348D01*
X114004272Y-96504488D01*
X114004263Y-96504485D01*
X113967037Y-96492885D01*
X113908889Y-96454148D01*
X113880915Y-96390123D01*
X113891997Y-96321137D01*
X113938615Y-96269094D01*
X114003927Y-96250500D01*
X117776535Y-96250500D01*
X117975500Y-96250500D01*
X118042539Y-96270185D01*
X118088294Y-96322989D01*
X118099500Y-96374500D01*
X118099500Y-96644960D01*
X118114630Y-96779249D01*
X118114631Y-96779254D01*
X118174211Y-96949523D01*
X118250169Y-97070408D01*
X118270184Y-97102262D01*
X118397738Y-97229816D01*
X118550478Y-97325789D01*
X118696642Y-97376934D01*
X118720745Y-97385368D01*
X118720750Y-97385369D01*
X118811246Y-97395565D01*
X118855040Y-97400499D01*
X118855043Y-97400500D01*
X118855046Y-97400500D01*
X119944957Y-97400500D01*
X119944958Y-97400499D01*
X120012104Y-97392934D01*
X120079249Y-97385369D01*
X120079252Y-97385368D01*
X120079255Y-97385368D01*
X120249522Y-97325789D01*
X120402262Y-97229816D01*
X120529816Y-97102262D01*
X120625789Y-96949522D01*
X120685368Y-96779255D01*
X120700500Y-96644954D01*
X120700500Y-96374500D01*
X120720185Y-96307461D01*
X120772989Y-96261706D01*
X120824500Y-96250500D01*
X121045018Y-96250500D01*
X121090506Y-96259145D01*
X121168436Y-96289877D01*
X121256898Y-96300500D01*
X121256903Y-96300500D01*
X123618097Y-96300500D01*
X123618102Y-96300500D01*
X123706564Y-96289877D01*
X123847342Y-96234361D01*
X123967922Y-96142922D01*
X124059361Y-96022342D01*
X124114877Y-95881564D01*
X124124673Y-95799986D01*
X124675001Y-95799986D01*
X124685494Y-95902697D01*
X124740641Y-96069119D01*
X124740643Y-96069124D01*
X124832684Y-96218345D01*
X124956654Y-96342315D01*
X125105875Y-96434356D01*
X125105880Y-96434358D01*
X125272302Y-96489505D01*
X125272309Y-96489506D01*
X125375019Y-96499999D01*
X126312499Y-96499999D01*
X126812500Y-96499999D01*
X127749972Y-96499999D01*
X127749986Y-96499998D01*
X127852697Y-96489505D01*
X128019119Y-96434358D01*
X128019124Y-96434356D01*
X128168345Y-96342315D01*
X128292315Y-96218345D01*
X128384356Y-96069124D01*
X128384358Y-96069119D01*
X128439505Y-95902697D01*
X128439506Y-95902690D01*
X128449999Y-95799986D01*
X128450000Y-95799973D01*
X128450000Y-95450000D01*
X126812500Y-95450000D01*
X126812500Y-96499999D01*
X126312499Y-96499999D01*
X126312500Y-96499998D01*
X126312500Y-95450000D01*
X124675001Y-95450000D01*
X124675001Y-95799986D01*
X124124673Y-95799986D01*
X124125500Y-95793102D01*
X124125500Y-94606898D01*
X124124673Y-94600013D01*
X124675000Y-94600013D01*
X124675000Y-94950000D01*
X126312500Y-94950000D01*
X126812500Y-94950000D01*
X128449999Y-94950000D01*
X128449999Y-94600028D01*
X128449998Y-94600013D01*
X128439505Y-94497302D01*
X128384358Y-94330880D01*
X128384356Y-94330875D01*
X128292315Y-94181654D01*
X128168345Y-94057684D01*
X128019124Y-93965643D01*
X128019119Y-93965641D01*
X127852697Y-93910494D01*
X127852690Y-93910493D01*
X127749986Y-93900000D01*
X126812500Y-93900000D01*
X126812500Y-94950000D01*
X126312500Y-94950000D01*
X126312500Y-93900000D01*
X125375028Y-93900000D01*
X125375012Y-93900001D01*
X125272302Y-93910494D01*
X125105880Y-93965641D01*
X125105875Y-93965643D01*
X124956654Y-94057684D01*
X124832684Y-94181654D01*
X124740643Y-94330875D01*
X124740641Y-94330880D01*
X124685494Y-94497302D01*
X124685493Y-94497309D01*
X124675000Y-94600013D01*
X124124673Y-94600013D01*
X124114877Y-94518436D01*
X124059361Y-94377658D01*
X124059360Y-94377657D01*
X124059360Y-94377656D01*
X123967922Y-94257077D01*
X123847343Y-94165639D01*
X123706561Y-94110122D01*
X123660926Y-94104642D01*
X123618102Y-94099500D01*
X121256898Y-94099500D01*
X121223713Y-94103485D01*
X121168436Y-94110122D01*
X121118501Y-94129815D01*
X121090506Y-94140854D01*
X121045018Y-94149500D01*
X120824500Y-94149500D01*
X120757461Y-94129815D01*
X120711706Y-94077011D01*
X120700500Y-94025500D01*
X120700500Y-93755043D01*
X120700499Y-93755039D01*
X120699821Y-93749025D01*
X120685368Y-93620745D01*
X120625789Y-93450478D01*
X120529816Y-93297738D01*
X120402262Y-93170184D01*
X120249523Y-93074211D01*
X120079254Y-93014631D01*
X120079249Y-93014630D01*
X119944960Y-92999500D01*
X119944954Y-92999500D01*
X118855046Y-92999500D01*
X118855039Y-92999500D01*
X118720750Y-93014630D01*
X118720745Y-93014631D01*
X118550476Y-93074211D01*
X118397737Y-93170184D01*
X118270184Y-93297737D01*
X118174211Y-93450476D01*
X118114631Y-93620745D01*
X118114630Y-93620750D01*
X118099500Y-93755039D01*
X118099500Y-94025500D01*
X118079815Y-94092539D01*
X118027011Y-94138294D01*
X117975500Y-94149500D01*
X114385884Y-94149500D01*
X114318845Y-94129815D01*
X114273090Y-94077011D01*
X114263146Y-94007853D01*
X114292171Y-93944297D01*
X114308196Y-93928853D01*
X114347368Y-93897364D01*
X114466607Y-93749025D01*
X114466609Y-93749022D01*
X114551168Y-93578523D01*
X114597102Y-93393824D01*
X114600000Y-93351096D01*
X114600000Y-93150000D01*
X111600000Y-93150000D01*
X111600000Y-93351096D01*
X111602897Y-93393824D01*
X111648831Y-93578523D01*
X111733390Y-93749022D01*
X111733392Y-93749025D01*
X111852632Y-93897366D01*
X111852633Y-93897367D01*
X112000972Y-94016605D01*
X112076336Y-94053982D01*
X112127649Y-94101403D01*
X112145179Y-94169038D01*
X112123359Y-94235414D01*
X112085393Y-94271187D01*
X112055351Y-94289348D01*
X112055347Y-94289351D01*
X111939351Y-94405347D01*
X111939348Y-94405351D01*
X111854488Y-94545727D01*
X111854485Y-94545736D01*
X111805687Y-94702335D01*
X111805685Y-94702343D01*
X111799500Y-94770406D01*
X111799500Y-95629594D01*
X111805685Y-95697657D01*
X111805686Y-95697662D01*
X111805687Y-95697664D01*
X111854485Y-95854263D01*
X111854488Y-95854272D01*
X111939348Y-95994648D01*
X111939351Y-95994652D01*
X112055347Y-96110648D01*
X112055351Y-96110651D01*
X112195727Y-96195511D01*
X112195736Y-96195514D01*
X112311586Y-96231615D01*
X112369734Y-96270352D01*
X112397708Y-96334378D01*
X112386626Y-96403363D01*
X112340008Y-96455406D01*
X112311586Y-96468385D01*
X112195736Y-96504485D01*
X112195727Y-96504488D01*
X112055351Y-96589348D01*
X112055347Y-96589351D01*
X111939351Y-96705347D01*
X111939348Y-96705351D01*
X111854488Y-96845727D01*
X111854488Y-96845728D01*
X111854486Y-96845736D01*
X111818134Y-96962392D01*
X111779398Y-97020538D01*
X111715373Y-97048512D01*
X111699750Y-97049500D01*
X111404173Y-97049500D01*
X111357389Y-97037898D01*
X111356928Y-97039217D01*
X111222826Y-96992291D01*
X111222814Y-96992289D01*
X111193070Y-96989500D01*
X111193066Y-96989500D01*
X110806934Y-96989500D01*
X110806930Y-96989500D01*
X110777181Y-96992289D01*
X110777180Y-96992289D01*
X110754571Y-97000201D01*
X110684793Y-97003762D01*
X110625936Y-96970839D01*
X110575383Y-96920285D01*
X110575374Y-96920278D01*
X110436193Y-96837967D01*
X110436190Y-96837965D01*
X110290001Y-96795493D01*
X110290000Y-96795494D01*
X109790000Y-96795494D01*
X109789998Y-96795493D01*
X109643809Y-96837965D01*
X109643806Y-96837967D01*
X109504625Y-96920278D01*
X109504616Y-96920285D01*
X109390285Y-97034616D01*
X109390278Y-97034625D01*
X109307968Y-97173804D01*
X109307966Y-97173809D01*
X109262855Y-97329081D01*
X109262854Y-97329087D01*
X109261209Y-97349999D01*
X102296446Y-97349999D01*
X102435349Y-97211096D01*
X102177785Y-97002525D01*
X102177783Y-97002523D01*
X101852543Y-96791310D01*
X101506994Y-96615244D01*
X101144936Y-96476262D01*
X100770330Y-96375887D01*
X100770323Y-96375886D01*
X100387287Y-96315219D01*
X100000001Y-96294922D01*
X99999999Y-96294922D01*
X99612712Y-96315219D01*
X99229676Y-96375886D01*
X99229669Y-96375887D01*
X98855063Y-96476262D01*
X98493005Y-96615244D01*
X98147456Y-96791310D01*
X97822206Y-97002531D01*
X97564649Y-97211095D01*
X97564649Y-97211096D01*
X99059301Y-98705748D01*
X98957670Y-98779588D01*
X98779588Y-98957670D01*
X98705748Y-99059301D01*
X97211096Y-97564649D01*
X97211095Y-97564649D01*
X97002531Y-97822206D01*
X96791310Y-98147456D01*
X96615244Y-98493005D01*
X96476262Y-98855063D01*
X96375887Y-99229669D01*
X96375886Y-99229676D01*
X96315219Y-99612712D01*
X96294922Y-99999999D01*
X95500559Y-99999999D01*
X95500500Y-99997293D01*
X95500500Y-92305131D01*
X100519500Y-92305131D01*
X100519500Y-94894856D01*
X100519502Y-94894882D01*
X100522413Y-94919987D01*
X100522415Y-94919991D01*
X100567793Y-95022764D01*
X100567794Y-95022765D01*
X100647235Y-95102206D01*
X100750009Y-95147585D01*
X100775135Y-95150500D01*
X103864864Y-95150499D01*
X103864879Y-95150497D01*
X103864882Y-95150497D01*
X103889987Y-95147586D01*
X103889988Y-95147585D01*
X103889991Y-95147585D01*
X103992765Y-95102206D01*
X104072206Y-95022765D01*
X104117585Y-94919991D01*
X104120500Y-94894865D01*
X104120499Y-92448903D01*
X111600000Y-92448903D01*
X111600000Y-92650000D01*
X112850000Y-92650000D01*
X113350000Y-92650000D01*
X114600000Y-92650000D01*
X114600000Y-92448903D01*
X114597102Y-92406175D01*
X114551168Y-92221476D01*
X114466609Y-92050977D01*
X114466607Y-92050974D01*
X114347367Y-91902633D01*
X114347366Y-91902632D01*
X114199025Y-91783392D01*
X114199022Y-91783390D01*
X114028523Y-91698831D01*
X113843824Y-91652897D01*
X113801097Y-91650000D01*
X113350000Y-91650000D01*
X113350000Y-92650000D01*
X112850000Y-92650000D01*
X112850000Y-91650000D01*
X112398903Y-91650000D01*
X112356175Y-91652897D01*
X112171476Y-91698831D01*
X112000977Y-91783390D01*
X112000974Y-91783392D01*
X111852633Y-91902632D01*
X111852632Y-91902633D01*
X111733392Y-92050974D01*
X111733390Y-92050977D01*
X111648831Y-92221476D01*
X111602897Y-92406175D01*
X111600000Y-92448903D01*
X104120499Y-92448903D01*
X104120499Y-92305136D01*
X104120497Y-92305117D01*
X104117586Y-92280012D01*
X104117585Y-92280010D01*
X104117585Y-92280009D01*
X104072206Y-92177235D01*
X103992765Y-92097794D01*
X103937081Y-92073207D01*
X103889992Y-92052415D01*
X103864865Y-92049500D01*
X100775143Y-92049500D01*
X100775117Y-92049502D01*
X100750012Y-92052413D01*
X100750008Y-92052415D01*
X100647235Y-92097793D01*
X100567794Y-92177234D01*
X100522415Y-92280006D01*
X100522415Y-92280008D01*
X100519500Y-92305131D01*
X95500500Y-92305131D01*
X95500500Y-81105131D01*
X100519500Y-81105131D01*
X100519500Y-83694856D01*
X100519502Y-83694882D01*
X100522413Y-83719987D01*
X100522415Y-83719991D01*
X100567793Y-83822764D01*
X100567794Y-83822765D01*
X100647235Y-83902206D01*
X100750009Y-83947585D01*
X100775135Y-83950500D01*
X103864864Y-83950499D01*
X103864879Y-83950497D01*
X103864882Y-83950497D01*
X103889987Y-83947586D01*
X103889988Y-83947585D01*
X103889991Y-83947585D01*
X103992765Y-83902206D01*
X104072206Y-83822765D01*
X104117585Y-83719991D01*
X104120500Y-83694865D01*
X104120499Y-81105136D01*
X104120497Y-81105117D01*
X104117586Y-81080012D01*
X104117585Y-81080010D01*
X104117585Y-81080009D01*
X104072206Y-80977235D01*
X103992765Y-80897794D01*
X103972828Y-80888991D01*
X103889992Y-80852415D01*
X103864865Y-80849500D01*
X100775143Y-80849500D01*
X100775117Y-80849502D01*
X100750012Y-80852413D01*
X100750008Y-80852415D01*
X100647235Y-80897793D01*
X100567794Y-80977234D01*
X100522415Y-81080006D01*
X100522415Y-81080008D01*
X100519500Y-81105131D01*
X95500500Y-81105131D01*
X95500500Y-75600000D01*
X98444417Y-75600000D01*
X98464699Y-75805932D01*
X98464700Y-75805934D01*
X98524768Y-76003954D01*
X98622315Y-76186450D01*
X98622317Y-76186452D01*
X98753589Y-76346410D01*
X98825687Y-76405578D01*
X98913550Y-76477685D01*
X99096046Y-76575232D01*
X99294066Y-76635300D01*
X99294065Y-76635300D01*
X99312529Y-76637118D01*
X99500000Y-76655583D01*
X99705934Y-76635300D01*
X99903954Y-76575232D01*
X100086450Y-76477685D01*
X100246410Y-76346410D01*
X100377685Y-76186450D01*
X100475232Y-76003954D01*
X100535300Y-75805934D01*
X100535301Y-75805922D01*
X100536418Y-75800311D01*
X100568802Y-75738399D01*
X100629518Y-75703824D01*
X100658036Y-75700500D01*
X102811102Y-75700500D01*
X102878141Y-75720185D01*
X102923896Y-75772989D01*
X102933840Y-75842147D01*
X102925663Y-75871952D01*
X102888027Y-75962813D01*
X102888026Y-75962818D01*
X102869965Y-76099999D01*
X102869965Y-76100002D01*
X102881039Y-76184117D01*
X102870273Y-76253152D01*
X102823893Y-76305408D01*
X102756625Y-76324293D01*
X102717145Y-76317343D01*
X102616881Y-76282259D01*
X102616879Y-76282258D01*
X102587461Y-76279500D01*
X102212546Y-76279500D01*
X102183125Y-76282258D01*
X102183115Y-76282260D01*
X102059207Y-76325618D01*
X101953576Y-76403576D01*
X101875618Y-76509207D01*
X101832258Y-76633118D01*
X101832258Y-76633120D01*
X101829500Y-76662538D01*
X101829500Y-77137453D01*
X101832258Y-77166874D01*
X101832258Y-77166876D01*
X101832258Y-77166878D01*
X101832259Y-77166879D01*
X101843051Y-77197722D01*
X101877946Y-77297444D01*
X101883843Y-77354584D01*
X101869965Y-77459997D01*
X101869965Y-77460000D01*
X101881930Y-77550881D01*
X101876033Y-77608022D01*
X101832258Y-77733123D01*
X101829500Y-77762538D01*
X101829500Y-78237453D01*
X101832258Y-78266874D01*
X101832259Y-78266879D01*
X101853919Y-78328780D01*
X101857480Y-78398559D01*
X101824559Y-78457415D01*
X101759265Y-78522709D01*
X101759261Y-78522714D01*
X101677593Y-78660808D01*
X101677592Y-78660811D01*
X101632833Y-78814871D01*
X101632832Y-78814877D01*
X101630069Y-78850000D01*
X102276000Y-78850000D01*
X102343039Y-78869685D01*
X102388794Y-78922489D01*
X102400000Y-78974000D01*
X102400000Y-79226000D01*
X102380315Y-79293039D01*
X102327511Y-79338794D01*
X102276000Y-79350000D01*
X101630069Y-79350000D01*
X101632832Y-79385122D01*
X101632833Y-79385128D01*
X101678091Y-79540905D01*
X101677892Y-79610775D01*
X101639950Y-79669445D01*
X101576311Y-79698288D01*
X101559015Y-79699500D01*
X100617255Y-79699500D01*
X100550216Y-79679815D01*
X100529574Y-79663181D01*
X100526649Y-79660256D01*
X100493164Y-79598933D01*
X100495669Y-79536580D01*
X100535300Y-79405934D01*
X100555583Y-79200000D01*
X100535300Y-78994066D01*
X100475232Y-78796046D01*
X100377685Y-78613550D01*
X100303134Y-78522709D01*
X100246410Y-78453589D01*
X100128677Y-78356969D01*
X100086450Y-78322315D01*
X99903954Y-78224768D01*
X99705934Y-78164700D01*
X99705932Y-78164699D01*
X99705934Y-78164699D01*
X99500000Y-78144417D01*
X99294067Y-78164699D01*
X99096043Y-78224769D01*
X98985898Y-78283643D01*
X98913550Y-78322315D01*
X98913548Y-78322316D01*
X98913547Y-78322317D01*
X98753589Y-78453589D01*
X98622317Y-78613547D01*
X98622315Y-78613550D01*
X98597055Y-78660808D01*
X98524769Y-78796043D01*
X98464699Y-78994067D01*
X98444417Y-79200000D01*
X98464699Y-79405932D01*
X98481159Y-79460193D01*
X98524768Y-79603954D01*
X98622315Y-79786450D01*
X98656969Y-79828677D01*
X98753589Y-79946410D01*
X98794913Y-79980323D01*
X98913550Y-80077685D01*
X99096046Y-80175232D01*
X99294066Y-80235300D01*
X99294065Y-80235300D01*
X99309488Y-80236819D01*
X99500000Y-80255583D01*
X99705934Y-80235300D01*
X99836581Y-80195668D01*
X99906447Y-80195046D01*
X99960256Y-80226649D01*
X100154087Y-80420480D01*
X100233174Y-80466141D01*
X100241038Y-80470682D01*
X100245412Y-80473207D01*
X100347273Y-80500500D01*
X100347275Y-80500500D01*
X102852725Y-80500500D01*
X102852727Y-80500500D01*
X102954588Y-80473207D01*
X103045913Y-80420480D01*
X103687319Y-79779074D01*
X103748642Y-79745589D01*
X103818334Y-79750573D01*
X103862681Y-79779074D01*
X103979519Y-79895912D01*
X103979520Y-79895913D01*
X104054087Y-79970480D01*
X104145413Y-80023207D01*
X104247273Y-80050500D01*
X104247275Y-80050500D01*
X105802725Y-80050500D01*
X105802727Y-80050500D01*
X105904588Y-80023207D01*
X105995913Y-79970480D01*
X106279574Y-79686817D01*
X106340895Y-79653334D01*
X106367254Y-79650500D01*
X106369270Y-79650500D01*
X106399699Y-79647646D01*
X106399701Y-79647646D01*
X106463790Y-79625219D01*
X106527882Y-79602793D01*
X106637150Y-79522150D01*
X106700231Y-79436677D01*
X106755877Y-79394428D01*
X106825533Y-79388969D01*
X106887083Y-79422036D01*
X106899763Y-79436670D01*
X106962850Y-79522150D01*
X107012539Y-79558822D01*
X107054789Y-79614468D01*
X107058677Y-79626487D01*
X107061793Y-79638117D01*
X107114520Y-79729442D01*
X107430989Y-80045911D01*
X107430991Y-80045913D01*
X107505558Y-80120480D01*
X107560745Y-80152342D01*
X107560746Y-80152343D01*
X107596878Y-80173204D01*
X107596881Y-80173206D01*
X107596883Y-80173206D01*
X107596884Y-80173207D01*
X107698744Y-80200501D01*
X107698746Y-80200501D01*
X107811794Y-80200501D01*
X107811810Y-80200500D01*
X115307744Y-80200500D01*
X115374783Y-80220185D01*
X115395425Y-80236819D01*
X115658329Y-80499723D01*
X115691814Y-80561046D01*
X115686830Y-80630738D01*
X115644958Y-80686671D01*
X115626945Y-80697887D01*
X115556294Y-80733886D01*
X115487626Y-80746782D01*
X115443706Y-80733886D01*
X115358123Y-80690279D01*
X115258493Y-80674500D01*
X115258488Y-80674500D01*
X114941512Y-80674500D01*
X114941507Y-80674500D01*
X114841878Y-80690279D01*
X114841874Y-80690280D01*
X114841874Y-80690281D01*
X114807415Y-80707839D01*
X114721778Y-80751473D01*
X114721774Y-80751476D01*
X114626476Y-80846774D01*
X114626473Y-80846778D01*
X114565279Y-80966878D01*
X114549500Y-81066506D01*
X114549500Y-82383493D01*
X114554042Y-82412171D01*
X114545087Y-82481465D01*
X114500091Y-82534917D01*
X114433339Y-82555556D01*
X114412171Y-82554042D01*
X114383493Y-82549500D01*
X114383488Y-82549500D01*
X114241341Y-82549500D01*
X114174302Y-82529815D01*
X114128547Y-82477011D01*
X114121568Y-82457599D01*
X114098207Y-82370413D01*
X114045480Y-82279087D01*
X113970913Y-82204520D01*
X113954285Y-82187892D01*
X113920800Y-82126569D01*
X113919029Y-82116410D01*
X113911974Y-82062817D01*
X113866778Y-81953703D01*
X113859025Y-81934985D01*
X113859024Y-81934984D01*
X113859024Y-81934983D01*
X113774791Y-81825209D01*
X113774789Y-81825208D01*
X113774789Y-81825207D01*
X113665015Y-81740974D01*
X113537186Y-81688027D01*
X113537184Y-81688026D01*
X113537183Y-81688026D01*
X113445727Y-81675985D01*
X113400001Y-81669965D01*
X113399999Y-81669965D01*
X113331408Y-81678995D01*
X113262817Y-81688026D01*
X113262816Y-81688026D01*
X113262813Y-81688027D01*
X113134985Y-81740974D01*
X113025209Y-81825209D01*
X112940974Y-81934985D01*
X112888027Y-82062813D01*
X112888026Y-82062816D01*
X112888026Y-82062817D01*
X112869965Y-82200000D01*
X112873492Y-82226793D01*
X112888026Y-82337181D01*
X112888027Y-82337186D01*
X112935917Y-82452805D01*
X112943386Y-82522275D01*
X112912110Y-82584754D01*
X112877653Y-82610741D01*
X112846780Y-82626472D01*
X112846774Y-82626476D01*
X112832180Y-82641071D01*
X112770857Y-82674556D01*
X112701165Y-82669572D01*
X112645232Y-82627700D01*
X112620815Y-82562236D01*
X112620499Y-82553390D01*
X112620499Y-82412545D01*
X112617795Y-82383699D01*
X112617741Y-82383121D01*
X112616821Y-82380493D01*
X112606151Y-82350000D01*
X112574381Y-82259206D01*
X112499783Y-82158129D01*
X112496423Y-82153576D01*
X112423546Y-82099791D01*
X112390794Y-82075619D01*
X112390792Y-82075618D01*
X112266880Y-82032258D01*
X112237461Y-82029500D01*
X111762546Y-82029500D01*
X111733125Y-82032258D01*
X111733115Y-82032260D01*
X111609207Y-82075618D01*
X111503577Y-82153577D01*
X111497003Y-82160151D01*
X111494992Y-82158140D01*
X111451213Y-82191383D01*
X111407086Y-82199500D01*
X111253060Y-82199500D01*
X111151197Y-82226793D01*
X111059874Y-82279520D01*
X111059871Y-82279522D01*
X109499522Y-83839871D01*
X109499520Y-83839874D01*
X109446794Y-83931196D01*
X109446793Y-83931198D01*
X109446793Y-83931199D01*
X109438863Y-83960794D01*
X109438862Y-83960795D01*
X109419500Y-84033058D01*
X109419500Y-84172816D01*
X109399815Y-84239855D01*
X109347905Y-84285198D01*
X109167267Y-84369431D01*
X109167265Y-84369432D01*
X108980858Y-84499954D01*
X108819954Y-84660858D01*
X108689432Y-84847265D01*
X108689431Y-84847267D01*
X108593261Y-85053502D01*
X108593258Y-85053511D01*
X108534366Y-85273302D01*
X108534364Y-85273313D01*
X108514532Y-85499998D01*
X108514532Y-85500001D01*
X108534364Y-85726686D01*
X108534366Y-85726697D01*
X108593258Y-85946488D01*
X108593261Y-85946497D01*
X108689431Y-86152732D01*
X108689432Y-86152734D01*
X108819954Y-86339141D01*
X108980858Y-86500045D01*
X109016649Y-86525106D01*
X109060274Y-86579682D01*
X109067468Y-86649181D01*
X109035946Y-86711535D01*
X109004551Y-86735732D01*
X108996770Y-86739943D01*
X108949943Y-86776389D01*
X109690591Y-87517037D01*
X109627007Y-87534075D01*
X109512993Y-87599901D01*
X109419901Y-87692993D01*
X109354075Y-87807007D01*
X109337037Y-87870590D01*
X108596563Y-87130117D01*
X108496267Y-87283633D01*
X108496265Y-87283637D01*
X108396412Y-87511282D01*
X108335387Y-87752261D01*
X108335385Y-87752270D01*
X108314859Y-87999994D01*
X108314859Y-88000005D01*
X108335385Y-88247729D01*
X108335387Y-88247738D01*
X108396412Y-88488717D01*
X108496267Y-88716367D01*
X108596562Y-88869881D01*
X109337037Y-88129408D01*
X109354075Y-88192993D01*
X109419901Y-88307007D01*
X109512993Y-88400099D01*
X109627007Y-88465925D01*
X109690591Y-88482962D01*
X109010371Y-89163181D01*
X108949048Y-89196666D01*
X108922691Y-89199500D01*
X108775143Y-89199500D01*
X108775118Y-89199502D01*
X108750011Y-89202414D01*
X108750008Y-89202415D01*
X108647235Y-89247793D01*
X108567794Y-89327234D01*
X108522415Y-89430006D01*
X108522415Y-89430008D01*
X108519500Y-89455131D01*
X108519500Y-91544856D01*
X108519502Y-91544882D01*
X108522413Y-91569987D01*
X108522415Y-91569991D01*
X108567793Y-91672764D01*
X108567794Y-91672765D01*
X108647235Y-91752206D01*
X108750009Y-91797585D01*
X108775135Y-91800500D01*
X110864864Y-91800499D01*
X110864879Y-91800497D01*
X110864882Y-91800497D01*
X110889987Y-91797586D01*
X110889988Y-91797585D01*
X110889991Y-91797585D01*
X110992765Y-91752206D01*
X111072206Y-91672765D01*
X111117585Y-91569991D01*
X111120500Y-91544865D01*
X111120499Y-90764135D01*
X111140183Y-90697099D01*
X111192987Y-90651344D01*
X111262146Y-90641400D01*
X111307620Y-90657406D01*
X111433804Y-90732031D01*
X111589089Y-90777145D01*
X111610000Y-90778789D01*
X111610000Y-90124000D01*
X111629685Y-90056961D01*
X111682489Y-90011206D01*
X111734000Y-90000000D01*
X111986000Y-90000000D01*
X112053039Y-90019685D01*
X112098794Y-90072489D01*
X112110000Y-90124000D01*
X112110000Y-90778789D01*
X112130910Y-90777145D01*
X112286195Y-90732031D01*
X112425372Y-90649722D01*
X112428433Y-90647348D01*
X112431274Y-90646231D01*
X112432093Y-90645748D01*
X112432170Y-90645879D01*
X112493467Y-90621805D01*
X112561986Y-90635477D01*
X112592126Y-90657637D01*
X112632533Y-90698044D01*
X112660203Y-90721679D01*
X112801901Y-90799578D01*
X112958519Y-90839791D01*
X112958525Y-90839792D01*
X113030026Y-90839792D01*
X113097065Y-90859477D01*
X113141746Y-90909991D01*
X113152137Y-90931570D01*
X113152140Y-90931574D01*
X113171196Y-90954572D01*
X113171208Y-90954586D01*
X113444235Y-91227613D01*
X113444249Y-91227625D01*
X113467247Y-91246681D01*
X113467251Y-91246684D01*
X113586889Y-91304298D01*
X113586890Y-91304298D01*
X113586892Y-91304299D01*
X113718198Y-91324090D01*
X113849504Y-91304299D01*
X113969144Y-91246684D01*
X113992155Y-91227618D01*
X114307618Y-90912155D01*
X114326684Y-90889144D01*
X114347901Y-90845085D01*
X114394721Y-90793228D01*
X114462148Y-90774914D01*
X114528772Y-90795961D01*
X114570104Y-90842592D01*
X114626472Y-90953220D01*
X114626474Y-90953222D01*
X114626476Y-90953225D01*
X114721774Y-91048523D01*
X114721778Y-91048526D01*
X114721780Y-91048528D01*
X114841874Y-91109719D01*
X114841876Y-91109719D01*
X114841878Y-91109720D01*
X114941507Y-91125500D01*
X114941512Y-91125500D01*
X115258493Y-91125500D01*
X115358121Y-91109720D01*
X115358121Y-91109719D01*
X115358126Y-91109719D01*
X115443708Y-91066112D01*
X115512374Y-91053217D01*
X115556289Y-91066111D01*
X115641874Y-91109719D01*
X115641876Y-91109719D01*
X115641878Y-91109720D01*
X115741507Y-91125500D01*
X115741512Y-91125500D01*
X116058492Y-91125500D01*
X116148030Y-91111318D01*
X116217324Y-91120272D01*
X116270776Y-91165268D01*
X116291416Y-91232020D01*
X116288597Y-91254695D01*
X116289087Y-91254760D01*
X116288026Y-91262816D01*
X116288026Y-91262817D01*
X116269965Y-91400000D01*
X116287079Y-91529993D01*
X116288026Y-91537181D01*
X116288027Y-91537186D01*
X116340974Y-91665015D01*
X116340975Y-91665017D01*
X116340976Y-91665018D01*
X116425209Y-91774791D01*
X116534982Y-91859024D01*
X116662817Y-91911974D01*
X116785702Y-91928152D01*
X116799999Y-91930035D01*
X116800000Y-91930035D01*
X116800001Y-91930035D01*
X116812947Y-91928330D01*
X116937183Y-91911974D01*
X117065018Y-91859024D01*
X117124514Y-91813369D01*
X117189681Y-91788176D01*
X117258126Y-91802214D01*
X117275480Y-91813365D01*
X117334982Y-91859024D01*
X117462817Y-91911974D01*
X117585702Y-91928152D01*
X117599999Y-91930035D01*
X117600000Y-91930035D01*
X117600001Y-91930035D01*
X117612947Y-91928330D01*
X117737183Y-91911974D01*
X117865018Y-91859024D01*
X117974791Y-91774791D01*
X118059024Y-91665018D01*
X118111974Y-91537183D01*
X118130035Y-91400000D01*
X118120041Y-91324089D01*
X118112352Y-91265686D01*
X118123117Y-91196650D01*
X118169497Y-91144394D01*
X118235291Y-91125500D01*
X118458493Y-91125500D01*
X118558121Y-91109720D01*
X118558121Y-91109719D01*
X118558126Y-91109719D01*
X118643708Y-91066112D01*
X118712374Y-91053217D01*
X118756289Y-91066111D01*
X118841874Y-91109719D01*
X118841876Y-91109719D01*
X118841878Y-91109720D01*
X118941507Y-91125500D01*
X118941512Y-91125500D01*
X119258493Y-91125500D01*
X119356102Y-91110040D01*
X119425395Y-91118994D01*
X119478847Y-91163990D01*
X119499487Y-91230742D01*
X119499500Y-91232513D01*
X119499500Y-91247273D01*
X119499500Y-91352727D01*
X119513146Y-91403657D01*
X119526793Y-91454589D01*
X119553156Y-91500250D01*
X119579520Y-91545913D01*
X119979519Y-91945912D01*
X119979520Y-91945913D01*
X120054087Y-92020480D01*
X120145413Y-92073207D01*
X120247273Y-92100500D01*
X120247275Y-92100500D01*
X123752725Y-92100500D01*
X123752727Y-92100500D01*
X123854588Y-92073207D01*
X123945913Y-92020480D01*
X125297821Y-90668571D01*
X125359142Y-90635088D01*
X125428834Y-90640072D01*
X125484767Y-90681944D01*
X125509184Y-90747408D01*
X125509500Y-90756254D01*
X125509500Y-91504856D01*
X125509502Y-91504882D01*
X125512413Y-91529987D01*
X125512415Y-91529991D01*
X125557793Y-91632764D01*
X125557794Y-91632765D01*
X125637235Y-91712206D01*
X125740009Y-91757585D01*
X125765135Y-91760500D01*
X128254864Y-91760499D01*
X128254879Y-91760497D01*
X128254882Y-91760497D01*
X128279987Y-91757586D01*
X128279988Y-91757585D01*
X128279991Y-91757585D01*
X128382765Y-91712206D01*
X128462206Y-91632765D01*
X128507585Y-91529991D01*
X128510500Y-91504865D01*
X128510499Y-90675136D01*
X128507740Y-90651344D01*
X128507586Y-90650012D01*
X128507585Y-90650010D01*
X128507585Y-90650009D01*
X128462206Y-90547235D01*
X128457652Y-90542681D01*
X128424167Y-90481358D01*
X128429151Y-90411666D01*
X128457652Y-90367319D01*
X128462206Y-90362765D01*
X128507585Y-90259991D01*
X128510500Y-90234865D01*
X128510499Y-89405136D01*
X128510497Y-89405117D01*
X128507586Y-89380012D01*
X128507585Y-89380010D01*
X128507585Y-89380009D01*
X128462206Y-89277235D01*
X128457652Y-89272681D01*
X128424167Y-89211358D01*
X128429151Y-89141666D01*
X128457652Y-89097319D01*
X128458189Y-89096782D01*
X128462206Y-89092765D01*
X128507585Y-88989991D01*
X128510154Y-88967844D01*
X129210000Y-88967844D01*
X129216401Y-89027372D01*
X129216403Y-89027379D01*
X129266645Y-89162086D01*
X129266649Y-89162093D01*
X129352808Y-89277185D01*
X129352814Y-89277192D01*
X129361548Y-89283730D01*
X129403418Y-89339664D01*
X129410410Y-89397282D01*
X129409501Y-89405119D01*
X129409500Y-89405137D01*
X129409500Y-90234856D01*
X129409502Y-90234882D01*
X129412413Y-90259987D01*
X129412415Y-90259991D01*
X129457793Y-90362764D01*
X129462351Y-90367322D01*
X129495833Y-90428647D01*
X129490846Y-90498338D01*
X129462351Y-90542678D01*
X129457794Y-90547235D01*
X129412415Y-90650006D01*
X129412415Y-90650008D01*
X129409500Y-90675131D01*
X129409500Y-91504856D01*
X129409502Y-91504882D01*
X129412413Y-91529987D01*
X129412415Y-91529991D01*
X129457793Y-91632764D01*
X129457794Y-91632765D01*
X129537235Y-91712206D01*
X129640009Y-91757585D01*
X129665135Y-91760500D01*
X132154864Y-91760499D01*
X132154879Y-91760497D01*
X132154882Y-91760497D01*
X132179987Y-91757586D01*
X132179988Y-91757585D01*
X132179991Y-91757585D01*
X132282765Y-91712206D01*
X132362206Y-91632765D01*
X132407585Y-91529991D01*
X132410500Y-91504865D01*
X132410499Y-90675136D01*
X132407740Y-90651344D01*
X132407586Y-90650012D01*
X132407585Y-90650010D01*
X132407585Y-90650009D01*
X132362206Y-90547235D01*
X132355712Y-90537755D01*
X132359293Y-90535301D01*
X132336658Y-90493849D01*
X132341642Y-90424157D01*
X132383514Y-90368224D01*
X132441635Y-90344553D01*
X132537183Y-90331974D01*
X132665018Y-90279024D01*
X132774791Y-90194791D01*
X132859024Y-90085018D01*
X132911974Y-89957183D01*
X132930035Y-89820000D01*
X132911974Y-89682817D01*
X132866840Y-89573852D01*
X132859025Y-89554985D01*
X132859024Y-89554984D01*
X132859024Y-89554983D01*
X132774791Y-89445209D01*
X132774789Y-89445208D01*
X132774789Y-89445207D01*
X132700440Y-89388157D01*
X132665018Y-89360976D01*
X132639654Y-89350470D01*
X132612919Y-89339396D01*
X132558516Y-89295555D01*
X132536451Y-89229261D01*
X132550354Y-89170436D01*
X132550254Y-89170399D01*
X132550551Y-89169601D01*
X132551545Y-89165398D01*
X132553356Y-89162082D01*
X132603596Y-89027379D01*
X132603598Y-89027372D01*
X132609999Y-88967844D01*
X132610000Y-88967827D01*
X132610000Y-88800000D01*
X129210000Y-88800000D01*
X129210000Y-88967844D01*
X128510154Y-88967844D01*
X128510500Y-88964865D01*
X128510499Y-88135136D01*
X128510497Y-88135117D01*
X128507586Y-88110012D01*
X128507585Y-88110010D01*
X128507585Y-88110009D01*
X128462206Y-88007235D01*
X128457652Y-88002681D01*
X128424167Y-87941358D01*
X128429151Y-87871666D01*
X128457652Y-87827319D01*
X128462206Y-87822765D01*
X128507585Y-87719991D01*
X128510154Y-87697844D01*
X129210000Y-87697844D01*
X129216401Y-87757372D01*
X129216403Y-87757380D01*
X129259029Y-87871667D01*
X129264013Y-87941359D01*
X129259029Y-87958333D01*
X129216403Y-88072619D01*
X129216401Y-88072627D01*
X129210000Y-88132155D01*
X129210000Y-88300000D01*
X130660000Y-88300000D01*
X131160000Y-88300000D01*
X132610000Y-88300000D01*
X132610000Y-88132172D01*
X132609999Y-88132155D01*
X132603598Y-88072627D01*
X132603597Y-88072623D01*
X132560969Y-87958334D01*
X132555985Y-87888643D01*
X132560969Y-87871666D01*
X132603597Y-87757376D01*
X132603598Y-87757372D01*
X132609999Y-87697844D01*
X132610000Y-87697827D01*
X132610000Y-87530000D01*
X131160000Y-87530000D01*
X131160000Y-88300000D01*
X130660000Y-88300000D01*
X130660000Y-87530000D01*
X129210000Y-87530000D01*
X129210000Y-87697844D01*
X128510154Y-87697844D01*
X128510500Y-87694865D01*
X128510499Y-86865136D01*
X128510497Y-86865117D01*
X128507586Y-86840012D01*
X128507585Y-86840010D01*
X128507585Y-86840009D01*
X128462206Y-86737235D01*
X128457652Y-86732681D01*
X128424167Y-86671358D01*
X128429151Y-86601666D01*
X128457652Y-86557319D01*
X128462206Y-86552765D01*
X128507585Y-86449991D01*
X128510500Y-86424865D01*
X128510499Y-85595136D01*
X128509589Y-85587286D01*
X128507586Y-85570012D01*
X128507585Y-85570010D01*
X128507585Y-85570009D01*
X128462206Y-85467235D01*
X128457652Y-85462681D01*
X128424167Y-85401358D01*
X128429151Y-85331666D01*
X128457652Y-85287319D01*
X128462206Y-85282765D01*
X128507585Y-85179991D01*
X128510154Y-85157844D01*
X129210000Y-85157844D01*
X129216401Y-85217372D01*
X129216403Y-85217379D01*
X129266645Y-85352086D01*
X129266649Y-85352093D01*
X129352808Y-85467185D01*
X129352814Y-85467192D01*
X129361548Y-85473730D01*
X129403418Y-85529664D01*
X129410410Y-85587282D01*
X129409501Y-85595119D01*
X129409500Y-85595137D01*
X129409500Y-86424856D01*
X129409501Y-86424872D01*
X129410412Y-86432722D01*
X129398579Y-86501582D01*
X129361554Y-86546265D01*
X129352811Y-86552810D01*
X129352809Y-86552812D01*
X129266649Y-86667906D01*
X129266645Y-86667913D01*
X129216403Y-86802620D01*
X129216401Y-86802627D01*
X129210000Y-86862155D01*
X129210000Y-87030000D01*
X132610000Y-87030000D01*
X132610000Y-86862172D01*
X132609999Y-86862155D01*
X132603598Y-86802627D01*
X132603596Y-86802620D01*
X132553354Y-86667913D01*
X132553350Y-86667906D01*
X132467191Y-86552814D01*
X132467184Y-86552806D01*
X132458450Y-86546268D01*
X132416580Y-86490334D01*
X132409590Y-86432705D01*
X132410500Y-86424865D01*
X132410499Y-85595136D01*
X132409588Y-85587283D01*
X132421416Y-85518425D01*
X132458453Y-85473728D01*
X132467190Y-85467187D01*
X132553350Y-85352093D01*
X132553354Y-85352086D01*
X132603596Y-85217379D01*
X132603598Y-85217372D01*
X132609999Y-85157844D01*
X132610000Y-85157827D01*
X132610000Y-84990000D01*
X129210000Y-84990000D01*
X129210000Y-85157844D01*
X128510154Y-85157844D01*
X128510500Y-85154865D01*
X128510499Y-84325136D01*
X128510497Y-84325117D01*
X128507586Y-84300012D01*
X128507585Y-84300010D01*
X128507585Y-84300009D01*
X128462206Y-84197235D01*
X128457652Y-84192681D01*
X128424167Y-84131358D01*
X128429151Y-84061666D01*
X128457652Y-84017319D01*
X128462206Y-84012765D01*
X128507585Y-83909991D01*
X128510500Y-83884865D01*
X128510500Y-83500000D01*
X128869965Y-83500000D01*
X128872832Y-83521780D01*
X128888026Y-83637181D01*
X128888027Y-83637186D01*
X128940974Y-83765015D01*
X128940975Y-83765017D01*
X128940976Y-83765018D01*
X129025209Y-83874791D01*
X129134982Y-83959024D01*
X129193047Y-83983075D01*
X129247449Y-84026913D01*
X129269515Y-84093207D01*
X129261776Y-84140968D01*
X129216403Y-84262619D01*
X129216401Y-84262627D01*
X129210000Y-84322155D01*
X129210000Y-84490000D01*
X132610000Y-84490000D01*
X132610000Y-84322172D01*
X132609999Y-84322155D01*
X132603598Y-84262627D01*
X132603596Y-84262620D01*
X132553354Y-84127913D01*
X132553350Y-84127906D01*
X132467191Y-84012814D01*
X132467184Y-84012806D01*
X132458450Y-84006268D01*
X132416580Y-83950334D01*
X132409590Y-83892705D01*
X132410500Y-83884865D01*
X132410499Y-83055136D01*
X132408857Y-83040974D01*
X132407586Y-83030012D01*
X132407585Y-83030010D01*
X132407585Y-83030009D01*
X132362206Y-82927235D01*
X132282765Y-82847794D01*
X132282763Y-82847793D01*
X132179992Y-82802415D01*
X132154865Y-82799500D01*
X129665143Y-82799500D01*
X129665117Y-82799502D01*
X129640012Y-82802413D01*
X129640008Y-82802415D01*
X129537236Y-82847793D01*
X129449669Y-82935360D01*
X129447141Y-82932832D01*
X129408461Y-82964391D01*
X129376502Y-82973058D01*
X129262817Y-82988026D01*
X129262813Y-82988027D01*
X129134985Y-83040974D01*
X129025209Y-83125209D01*
X128940974Y-83234985D01*
X128888027Y-83362813D01*
X128888026Y-83362816D01*
X128888026Y-83362817D01*
X128869965Y-83500000D01*
X128510500Y-83500000D01*
X128510499Y-83055136D01*
X128508857Y-83040974D01*
X128507586Y-83030012D01*
X128507585Y-83030010D01*
X128507585Y-83030009D01*
X128462206Y-82927235D01*
X128382765Y-82847794D01*
X128382763Y-82847793D01*
X128279992Y-82802415D01*
X128254865Y-82799500D01*
X125765143Y-82799500D01*
X125765117Y-82799502D01*
X125740012Y-82802413D01*
X125740008Y-82802415D01*
X125637236Y-82847793D01*
X125549669Y-82935360D01*
X125547141Y-82932832D01*
X125508461Y-82964391D01*
X125476502Y-82973058D01*
X125362817Y-82988026D01*
X125362813Y-82988027D01*
X125234985Y-83040974D01*
X125125209Y-83125209D01*
X125040974Y-83234985D01*
X124988027Y-83362813D01*
X124988026Y-83362816D01*
X124988026Y-83362817D01*
X124969965Y-83500000D01*
X124972832Y-83521780D01*
X124988026Y-83637181D01*
X124988027Y-83637186D01*
X125040974Y-83765015D01*
X125040975Y-83765017D01*
X125040976Y-83765018D01*
X125125209Y-83874791D01*
X125234982Y-83959024D01*
X125234983Y-83959024D01*
X125234984Y-83959025D01*
X125239260Y-83960796D01*
X125362817Y-84011974D01*
X125460283Y-84024806D01*
X125524178Y-84053071D01*
X125562649Y-84111396D01*
X125563480Y-84181260D01*
X125557531Y-84197829D01*
X125550724Y-84213246D01*
X125528925Y-84262619D01*
X125527615Y-84265585D01*
X125482530Y-84318961D01*
X125415744Y-84339490D01*
X125414180Y-84339500D01*
X125007273Y-84339500D01*
X124905410Y-84366793D01*
X124814087Y-84419519D01*
X124587892Y-84645714D01*
X124526569Y-84679198D01*
X124516399Y-84680971D01*
X124462815Y-84688026D01*
X124334985Y-84740974D01*
X124225209Y-84825209D01*
X124140974Y-84934985D01*
X124088027Y-85062813D01*
X124088026Y-85062816D01*
X124088026Y-85062817D01*
X124069965Y-85200000D01*
X124088025Y-85337179D01*
X124088026Y-85337181D01*
X124088027Y-85337186D01*
X124140974Y-85465015D01*
X124140975Y-85465017D01*
X124140976Y-85465018D01*
X124225209Y-85574791D01*
X124334982Y-85659024D01*
X124462817Y-85711974D01*
X124585702Y-85728152D01*
X124599999Y-85730035D01*
X124600000Y-85730035D01*
X124600001Y-85730035D01*
X124612947Y-85728330D01*
X124737183Y-85711974D01*
X124865018Y-85659024D01*
X124974791Y-85574791D01*
X125059024Y-85465018D01*
X125111974Y-85337183D01*
X125119027Y-85283601D01*
X125147292Y-85219707D01*
X125154272Y-85212120D01*
X125189577Y-85176816D01*
X125250901Y-85143333D01*
X125277256Y-85140500D01*
X125414180Y-85140500D01*
X125481219Y-85160185D01*
X125526974Y-85212989D01*
X125527614Y-85214414D01*
X125557793Y-85282764D01*
X125562351Y-85287322D01*
X125595833Y-85348647D01*
X125590846Y-85418338D01*
X125562351Y-85462678D01*
X125557794Y-85467235D01*
X125512415Y-85570006D01*
X125512415Y-85570008D01*
X125509500Y-85595131D01*
X125509500Y-86424856D01*
X125509502Y-86424882D01*
X125512413Y-86449987D01*
X125512415Y-86449991D01*
X125557793Y-86552764D01*
X125562351Y-86557322D01*
X125595833Y-86618647D01*
X125590846Y-86688338D01*
X125562351Y-86732678D01*
X125557794Y-86737235D01*
X125512415Y-86840006D01*
X125512415Y-86840008D01*
X125509500Y-86865131D01*
X125509500Y-87694856D01*
X125509502Y-87694882D01*
X125512413Y-87719987D01*
X125512415Y-87719991D01*
X125557793Y-87822764D01*
X125562351Y-87827322D01*
X125595833Y-87888647D01*
X125590846Y-87958338D01*
X125562351Y-88002678D01*
X125557793Y-88007235D01*
X125527614Y-88075586D01*
X125482528Y-88128962D01*
X125415742Y-88149490D01*
X125414180Y-88149500D01*
X124510339Y-88149500D01*
X124510323Y-88149499D01*
X124502727Y-88149499D01*
X124397273Y-88149499D01*
X124306258Y-88173887D01*
X124306257Y-88173886D01*
X124295414Y-88176792D01*
X124295413Y-88176792D01*
X124204084Y-88229522D01*
X124129518Y-88304089D01*
X123283345Y-89150261D01*
X123222022Y-89183746D01*
X123152330Y-89178762D01*
X123096397Y-89136890D01*
X123071980Y-89071426D01*
X123085179Y-89006288D01*
X123109719Y-88958126D01*
X123113074Y-88936944D01*
X123125500Y-88858493D01*
X123125500Y-88541506D01*
X123109720Y-88441878D01*
X123109719Y-88441876D01*
X123109719Y-88441874D01*
X123066112Y-88356291D01*
X123053217Y-88287626D01*
X123066111Y-88243710D01*
X123109719Y-88158126D01*
X123111085Y-88149500D01*
X123125500Y-88058493D01*
X123125500Y-87741506D01*
X123109720Y-87641878D01*
X123109719Y-87641876D01*
X123109719Y-87641874D01*
X123066112Y-87556291D01*
X123053217Y-87487626D01*
X123066111Y-87443710D01*
X123109719Y-87358126D01*
X123114124Y-87330315D01*
X123125500Y-87258493D01*
X123125500Y-86941506D01*
X123109720Y-86841878D01*
X123109719Y-86841876D01*
X123109719Y-86841874D01*
X123066112Y-86756291D01*
X123053217Y-86687626D01*
X123066111Y-86643710D01*
X123109719Y-86558126D01*
X123109720Y-86558121D01*
X123125500Y-86458493D01*
X123125500Y-86141506D01*
X123109720Y-86041878D01*
X123109719Y-86041876D01*
X123109719Y-86041874D01*
X123066112Y-85956291D01*
X123053217Y-85887626D01*
X123066111Y-85843710D01*
X123109719Y-85758126D01*
X123110879Y-85750802D01*
X123125500Y-85658493D01*
X123125500Y-85341506D01*
X123109720Y-85241878D01*
X123109719Y-85241876D01*
X123109719Y-85241874D01*
X123066112Y-85156291D01*
X123053217Y-85087626D01*
X123066111Y-85043710D01*
X123109719Y-84958126D01*
X123109720Y-84958121D01*
X123125500Y-84858493D01*
X123125500Y-84541506D01*
X123109720Y-84441878D01*
X123109719Y-84441876D01*
X123109719Y-84441874D01*
X123066112Y-84356291D01*
X123053217Y-84287626D01*
X123066111Y-84243710D01*
X123109719Y-84158126D01*
X123112511Y-84140499D01*
X123125500Y-84058493D01*
X123125500Y-83736640D01*
X123127429Y-83736640D01*
X123140083Y-83676279D01*
X123161681Y-83647201D01*
X123197769Y-83611113D01*
X123197775Y-83611106D01*
X123278154Y-83475191D01*
X123278156Y-83475185D01*
X123314525Y-83350000D01*
X122744717Y-83350000D01*
X122734994Y-83349618D01*
X122733494Y-83349500D01*
X122733488Y-83349500D01*
X121416512Y-83349500D01*
X121416506Y-83349500D01*
X121415006Y-83349618D01*
X121405283Y-83350000D01*
X120835474Y-83350000D01*
X120871843Y-83475185D01*
X120871845Y-83475191D01*
X120952226Y-83611108D01*
X120952232Y-83611116D01*
X120988318Y-83647201D01*
X121021804Y-83708523D01*
X121023717Y-83736641D01*
X121024500Y-83736641D01*
X121024500Y-84058493D01*
X121040279Y-84158123D01*
X121083886Y-84243706D01*
X121096782Y-84312375D01*
X121083886Y-84356294D01*
X121040279Y-84441876D01*
X121024500Y-84541506D01*
X121024500Y-84558126D01*
X121004815Y-84625165D01*
X120952011Y-84670920D01*
X120884315Y-84681065D01*
X120800002Y-84669965D01*
X120799999Y-84669965D01*
X120786791Y-84671704D01*
X120662817Y-84688026D01*
X120662816Y-84688026D01*
X120662813Y-84688027D01*
X120534982Y-84740975D01*
X120492108Y-84773875D01*
X120426939Y-84799070D01*
X120416621Y-84799500D01*
X120217255Y-84799500D01*
X120150216Y-84779815D01*
X120129574Y-84763181D01*
X118736819Y-83370426D01*
X118703334Y-83309103D01*
X118700500Y-83282745D01*
X118700500Y-82882513D01*
X118720185Y-82815474D01*
X118772989Y-82769719D01*
X118842147Y-82759775D01*
X118843898Y-82760040D01*
X118941507Y-82775500D01*
X118941512Y-82775500D01*
X119258493Y-82775500D01*
X119358121Y-82759720D01*
X119358121Y-82759719D01*
X119358126Y-82759719D01*
X119443708Y-82716112D01*
X119512374Y-82703217D01*
X119556289Y-82716111D01*
X119641874Y-82759719D01*
X119641876Y-82759719D01*
X119641878Y-82759720D01*
X119741507Y-82775500D01*
X119741512Y-82775500D01*
X120058493Y-82775500D01*
X120158121Y-82759720D01*
X120158121Y-82759719D01*
X120158126Y-82759719D01*
X120243708Y-82716112D01*
X120312374Y-82703217D01*
X120356289Y-82716111D01*
X120441874Y-82759719D01*
X120441876Y-82759719D01*
X120441878Y-82759720D01*
X120541507Y-82775500D01*
X120717579Y-82775500D01*
X120784618Y-82795185D01*
X120816740Y-82825048D01*
X120835474Y-82850000D01*
X121825000Y-82850000D01*
X121825000Y-82454359D01*
X122325000Y-82454359D01*
X122325000Y-82850000D01*
X123314526Y-82850000D01*
X123314525Y-82849999D01*
X123278156Y-82724814D01*
X123278154Y-82724808D01*
X123197773Y-82588891D01*
X123197767Y-82588884D01*
X123179531Y-82570648D01*
X123146044Y-82509326D01*
X123151027Y-82439634D01*
X123192897Y-82383699D01*
X123196722Y-82380948D01*
X123197379Y-82380493D01*
X123213322Y-82366876D01*
X122839410Y-81992964D01*
X122839409Y-81992964D01*
X122432941Y-82399433D01*
X122392712Y-82426313D01*
X122325000Y-82454359D01*
X121825000Y-82454359D01*
X121825000Y-82350000D01*
X121810183Y-82350000D01*
X121743144Y-82330315D01*
X121697389Y-82277511D01*
X121687445Y-82208353D01*
X121716470Y-82144797D01*
X121734697Y-82127624D01*
X121741079Y-82122726D01*
X121770969Y-82099791D01*
X121855202Y-81990018D01*
X121855205Y-81990008D01*
X121855684Y-81989182D01*
X121856275Y-81988617D01*
X121860149Y-81983570D01*
X121860935Y-81984173D01*
X121906248Y-81940964D01*
X121974855Y-81927738D01*
X122039721Y-81953703D01*
X122071736Y-81991440D01*
X122093761Y-82031504D01*
X122574952Y-81550314D01*
X122636275Y-81516829D01*
X122705966Y-81521813D01*
X122750314Y-81550314D01*
X122839411Y-81639411D01*
X122928507Y-81550315D01*
X122989830Y-81516830D01*
X123059522Y-81521814D01*
X123103869Y-81550315D01*
X123566874Y-82013320D01*
X123566875Y-82013320D01*
X123580498Y-81997373D01*
X123649109Y-81872572D01*
X123698655Y-81823308D01*
X123766971Y-81808652D01*
X123817509Y-81823648D01*
X123880723Y-81858400D01*
X124037341Y-81898613D01*
X124037347Y-81898614D01*
X124199045Y-81898614D01*
X124199052Y-81898613D01*
X124355663Y-81858402D01*
X124355673Y-81858399D01*
X124497373Y-81780498D01*
X124513322Y-81766876D01*
X124050315Y-81303869D01*
X124016830Y-81242546D01*
X124021814Y-81172854D01*
X124050315Y-81128507D01*
X124139411Y-81039411D01*
X124139409Y-81039409D01*
X124492964Y-81039409D01*
X124492964Y-81039410D01*
X124866874Y-81413320D01*
X124866875Y-81413320D01*
X124880499Y-81397371D01*
X124958399Y-81255673D01*
X124958402Y-81255663D01*
X124998613Y-81099052D01*
X124998614Y-81099045D01*
X124998614Y-80937346D01*
X124998613Y-80937341D01*
X124958400Y-80780723D01*
X124885058Y-80647315D01*
X124492964Y-81039409D01*
X124139409Y-81039409D01*
X124050314Y-80950314D01*
X124016829Y-80888991D01*
X124021813Y-80819299D01*
X124050314Y-80774952D01*
X124531504Y-80293761D01*
X124398100Y-80220422D01*
X124241480Y-80180208D01*
X124169974Y-80180208D01*
X124102935Y-80160523D01*
X124058254Y-80110009D01*
X124047862Y-80088429D01*
X124047859Y-80088425D01*
X124028803Y-80065427D01*
X124028801Y-80065424D01*
X123963477Y-80000100D01*
X123881611Y-79918234D01*
X123848128Y-79856914D01*
X123853112Y-79787222D01*
X123894983Y-79731288D01*
X123906176Y-79723821D01*
X123916555Y-79717682D01*
X123916561Y-79717678D01*
X124032678Y-79601561D01*
X124032681Y-79601557D01*
X124035028Y-79597589D01*
X124086094Y-79549901D01*
X124154835Y-79537393D01*
X124215396Y-79560931D01*
X124272118Y-79602793D01*
X124314845Y-79617744D01*
X124400299Y-79647646D01*
X124430730Y-79650500D01*
X124430734Y-79650500D01*
X124839270Y-79650500D01*
X124869699Y-79647646D01*
X124869701Y-79647646D01*
X124933790Y-79625219D01*
X124997882Y-79602793D01*
X125107150Y-79522150D01*
X125170231Y-79436677D01*
X125225877Y-79394428D01*
X125295533Y-79388969D01*
X125357083Y-79422036D01*
X125369763Y-79436670D01*
X125432850Y-79522150D01*
X125542118Y-79602793D01*
X125584845Y-79617744D01*
X125670299Y-79647646D01*
X125700730Y-79650500D01*
X125700734Y-79650500D01*
X126109270Y-79650500D01*
X126139699Y-79647646D01*
X126139701Y-79647646D01*
X126203790Y-79625219D01*
X126267882Y-79602793D01*
X126377150Y-79522150D01*
X126457793Y-79412882D01*
X126480219Y-79348790D01*
X126502646Y-79284701D01*
X126502646Y-79284699D01*
X126505500Y-79254269D01*
X126505500Y-79018055D01*
X126525185Y-78951016D01*
X126577989Y-78905261D01*
X126613313Y-78895116D01*
X126637183Y-78891974D01*
X126735805Y-78851123D01*
X126805274Y-78843655D01*
X126856890Y-78865914D01*
X126921843Y-78913852D01*
X126946526Y-78922489D01*
X127047173Y-78957708D01*
X127047177Y-78957708D01*
X127047181Y-78957710D01*
X127062057Y-78959105D01*
X127076930Y-78960500D01*
X127076934Y-78960500D01*
X127523070Y-78960500D01*
X127536289Y-78959260D01*
X127552819Y-78957710D01*
X127552823Y-78957708D01*
X127552826Y-78957708D01*
X127601836Y-78940557D01*
X127678157Y-78913852D01*
X127784999Y-78834999D01*
X127863852Y-78728157D01*
X127890557Y-78651836D01*
X127907708Y-78602826D01*
X127907708Y-78602823D01*
X127907710Y-78602819D01*
X127910500Y-78573066D01*
X127910500Y-78186934D01*
X127907710Y-78157181D01*
X127899797Y-78134569D01*
X127896237Y-78064794D01*
X127929160Y-78005936D01*
X127979716Y-77955380D01*
X127979722Y-77955372D01*
X128062031Y-77816195D01*
X128104504Y-77670000D01*
X127424000Y-77670000D01*
X127356961Y-77650315D01*
X127311206Y-77597511D01*
X127300000Y-77546000D01*
X127300000Y-77420000D01*
X127174000Y-77420000D01*
X127106961Y-77400315D01*
X127061206Y-77347511D01*
X127050000Y-77296000D01*
X127050000Y-77170000D01*
X127550000Y-77170000D01*
X128104504Y-77170000D01*
X128062031Y-77023804D01*
X127979721Y-76884625D01*
X127979714Y-76884616D01*
X127865383Y-76770285D01*
X127865374Y-76770278D01*
X127726195Y-76687968D01*
X127726190Y-76687966D01*
X127570918Y-76642855D01*
X127570912Y-76642854D01*
X127550000Y-76641209D01*
X127550000Y-77170000D01*
X127050000Y-77170000D01*
X127050000Y-76641210D01*
X127049999Y-76641209D01*
X127029087Y-76642854D01*
X127029081Y-76642855D01*
X126873809Y-76687966D01*
X126873804Y-76687968D01*
X126734625Y-76770278D01*
X126734616Y-76770285D01*
X126620285Y-76884616D01*
X126620278Y-76884625D01*
X126537968Y-77023804D01*
X126537966Y-77023808D01*
X126510376Y-77118775D01*
X126472770Y-77177660D01*
X126409297Y-77206866D01*
X126340110Y-77197120D01*
X126317667Y-77183950D01*
X126312449Y-77180099D01*
X126267882Y-77147207D01*
X126267880Y-77147206D01*
X126139700Y-77102353D01*
X126109270Y-77099500D01*
X126109266Y-77099500D01*
X125700734Y-77099500D01*
X125700730Y-77099500D01*
X125670300Y-77102353D01*
X125670298Y-77102353D01*
X125542119Y-77147206D01*
X125542117Y-77147207D01*
X125432850Y-77227850D01*
X125386396Y-77290794D01*
X125369770Y-77313321D01*
X125314123Y-77355571D01*
X125244466Y-77361030D01*
X125182917Y-77327962D01*
X125170230Y-77313321D01*
X125158512Y-77297444D01*
X125107150Y-77227850D01*
X124997882Y-77147207D01*
X124997880Y-77147206D01*
X124869700Y-77102353D01*
X124839270Y-77099500D01*
X124839266Y-77099500D01*
X124430734Y-77099500D01*
X124430730Y-77099500D01*
X124400300Y-77102353D01*
X124400298Y-77102353D01*
X124272119Y-77147206D01*
X124272118Y-77147207D01*
X124215398Y-77189068D01*
X124149769Y-77213038D01*
X124081599Y-77197722D01*
X124035031Y-77152415D01*
X124032682Y-77148444D01*
X124032678Y-77148438D01*
X123916561Y-77032321D01*
X123916552Y-77032314D01*
X123775196Y-76948717D01*
X123775193Y-76948716D01*
X123617494Y-76902900D01*
X123617497Y-76902900D01*
X123615000Y-76902703D01*
X123615000Y-78251000D01*
X123595315Y-78318039D01*
X123542511Y-78363794D01*
X123491000Y-78375000D01*
X123365000Y-78375000D01*
X123365000Y-78501000D01*
X123345315Y-78568039D01*
X123292511Y-78613794D01*
X123241000Y-78625000D01*
X122345000Y-78625000D01*
X122345000Y-79847295D01*
X122352428Y-79854161D01*
X122395003Y-79863106D01*
X122444759Y-79912158D01*
X122460097Y-79980323D01*
X122436147Y-80045960D01*
X122424034Y-80060040D01*
X122218146Y-80265927D01*
X122156823Y-80299412D01*
X122148947Y-80300861D01*
X122050496Y-80315700D01*
X122050493Y-80315701D01*
X121930855Y-80373315D01*
X121930851Y-80373318D01*
X121907853Y-80392374D01*
X121907839Y-80392386D01*
X121592386Y-80707839D01*
X121592374Y-80707853D01*
X121573318Y-80730851D01*
X121573315Y-80730855D01*
X121515701Y-80850493D01*
X121515700Y-80850496D01*
X121500861Y-80948947D01*
X121471404Y-81012304D01*
X121465927Y-81018146D01*
X121445426Y-81038647D01*
X121384103Y-81072132D01*
X121314411Y-81067148D01*
X121258478Y-81025276D01*
X121235271Y-80970360D01*
X121234719Y-80966874D01*
X121173528Y-80846780D01*
X121173526Y-80846778D01*
X121173523Y-80846774D01*
X121078225Y-80751476D01*
X121078221Y-80751473D01*
X121078220Y-80751472D01*
X120958126Y-80690281D01*
X120958124Y-80690280D01*
X120958121Y-80690279D01*
X120858493Y-80674500D01*
X120858488Y-80674500D01*
X120541512Y-80674500D01*
X120541507Y-80674500D01*
X120441876Y-80690279D01*
X120356294Y-80733886D01*
X120287625Y-80746782D01*
X120243706Y-80733886D01*
X120158123Y-80690279D01*
X120058493Y-80674500D01*
X120058488Y-80674500D01*
X119741512Y-80674500D01*
X119741507Y-80674500D01*
X119641876Y-80690279D01*
X119556294Y-80733886D01*
X119487625Y-80746782D01*
X119443706Y-80733886D01*
X119358123Y-80690279D01*
X119258493Y-80674500D01*
X119258488Y-80674500D01*
X118941512Y-80674500D01*
X118941505Y-80674500D01*
X118843897Y-80689959D01*
X118774604Y-80681004D01*
X118721152Y-80636008D01*
X118700513Y-80569256D01*
X118700500Y-80567486D01*
X118700500Y-80432101D01*
X118720185Y-80365062D01*
X118750866Y-80332331D01*
X118814999Y-80284999D01*
X118893852Y-80178157D01*
X118925249Y-80088430D01*
X118937708Y-80052826D01*
X118937708Y-80052823D01*
X118937710Y-80052819D01*
X118940500Y-80023066D01*
X118940500Y-79576934D01*
X118937710Y-79547181D01*
X118937708Y-79547177D01*
X118937708Y-79547173D01*
X118899043Y-79436679D01*
X118893852Y-79421843D01*
X118814999Y-79315001D01*
X118748129Y-79265649D01*
X121295000Y-79265649D01*
X121297899Y-79302489D01*
X121297900Y-79302495D01*
X121343716Y-79460193D01*
X121343717Y-79460196D01*
X121427314Y-79601552D01*
X121427321Y-79601561D01*
X121543438Y-79717678D01*
X121543447Y-79717685D01*
X121684801Y-79801281D01*
X121842514Y-79847100D01*
X121842511Y-79847100D01*
X121844998Y-79847295D01*
X121845000Y-79847295D01*
X121845000Y-78625000D01*
X121295000Y-78625000D01*
X121295000Y-79265649D01*
X118748129Y-79265649D01*
X118708157Y-79236148D01*
X118708155Y-79236147D01*
X118582826Y-79192291D01*
X118582814Y-79192289D01*
X118553070Y-79189500D01*
X118553066Y-79189500D01*
X118166934Y-79189500D01*
X118166930Y-79189500D01*
X118137181Y-79192289D01*
X118137180Y-79192289D01*
X118114571Y-79200201D01*
X118044793Y-79203762D01*
X117985936Y-79170839D01*
X117935383Y-79120285D01*
X117935374Y-79120278D01*
X117796193Y-79037967D01*
X117796190Y-79037965D01*
X117650001Y-78995493D01*
X117650000Y-78995494D01*
X117650000Y-79676000D01*
X117630315Y-79743039D01*
X117577511Y-79788794D01*
X117526000Y-79800000D01*
X117274000Y-79800000D01*
X117206961Y-79780315D01*
X117161206Y-79727511D01*
X117150000Y-79676000D01*
X117150000Y-78995494D01*
X117149998Y-78995493D01*
X117003809Y-79037965D01*
X117003806Y-79037967D01*
X116864625Y-79120278D01*
X116864616Y-79120285D01*
X116750285Y-79234616D01*
X116750278Y-79234625D01*
X116673989Y-79363624D01*
X116622920Y-79411308D01*
X116554178Y-79423811D01*
X116489589Y-79397165D01*
X116479576Y-79388184D01*
X114575742Y-77484350D01*
X121295000Y-77484350D01*
X121295000Y-78125000D01*
X121845000Y-78125000D01*
X121845000Y-76902703D01*
X122345000Y-76902703D01*
X122345000Y-78125000D01*
X123115000Y-78125000D01*
X123115000Y-76902703D01*
X123112503Y-76902900D01*
X122954806Y-76948716D01*
X122954803Y-76948717D01*
X122813447Y-77032314D01*
X122807278Y-77037100D01*
X122805457Y-77034753D01*
X122756358Y-77061564D01*
X122686666Y-77056580D01*
X122653930Y-77035541D01*
X122652722Y-77037100D01*
X122646552Y-77032314D01*
X122505196Y-76948717D01*
X122505193Y-76948716D01*
X122347494Y-76902900D01*
X122347497Y-76902900D01*
X122345000Y-76902703D01*
X121845000Y-76902703D01*
X121842503Y-76902900D01*
X121684806Y-76948716D01*
X121684803Y-76948717D01*
X121543447Y-77032314D01*
X121543438Y-77032321D01*
X121427321Y-77148438D01*
X121427314Y-77148447D01*
X121343717Y-77289803D01*
X121343716Y-77289806D01*
X121297900Y-77447504D01*
X121297899Y-77447510D01*
X121295000Y-77484350D01*
X114575742Y-77484350D01*
X113621392Y-76530000D01*
X131682769Y-76530000D01*
X132726988Y-76530000D01*
X132694075Y-76587007D01*
X132660000Y-76714174D01*
X132660000Y-76845826D01*
X132694075Y-76972993D01*
X132726988Y-77030000D01*
X131682769Y-77030000D01*
X131693242Y-77096126D01*
X131693242Y-77096129D01*
X131758904Y-77298217D01*
X131855379Y-77487557D01*
X131980272Y-77659459D01*
X131980276Y-77659464D01*
X132130535Y-77809723D01*
X132130540Y-77809727D01*
X132294560Y-77928894D01*
X132337226Y-77984223D01*
X132343205Y-78053837D01*
X132310600Y-78115632D01*
X132267166Y-78144566D01*
X132137658Y-78195638D01*
X132017077Y-78287077D01*
X131925639Y-78407656D01*
X131870122Y-78548438D01*
X131867007Y-78574381D01*
X131859500Y-78636898D01*
X131859500Y-79923102D01*
X131862299Y-79946410D01*
X131870122Y-80011561D01*
X131870122Y-80011563D01*
X131870123Y-80011564D01*
X131883668Y-80045911D01*
X131925639Y-80152343D01*
X132017077Y-80272922D01*
X132137656Y-80364360D01*
X132137657Y-80364360D01*
X132137658Y-80364361D01*
X132278436Y-80419877D01*
X132366898Y-80430500D01*
X132366903Y-80430500D01*
X133953097Y-80430500D01*
X133953102Y-80430500D01*
X134041564Y-80419877D01*
X134182342Y-80364361D01*
X134302922Y-80272922D01*
X134394361Y-80152342D01*
X134449877Y-80011564D01*
X134460500Y-79923102D01*
X134460500Y-78636898D01*
X134449877Y-78548436D01*
X134394361Y-78407658D01*
X134394360Y-78407657D01*
X134394360Y-78407656D01*
X134302922Y-78287077D01*
X134182341Y-78195638D01*
X134052833Y-78144566D01*
X133997690Y-78101660D01*
X133974497Y-78035752D01*
X133990618Y-77967768D01*
X134025439Y-77928893D01*
X134189466Y-77809721D01*
X134339723Y-77659464D01*
X134339727Y-77659459D01*
X134464620Y-77487557D01*
X134561095Y-77298217D01*
X134626757Y-77096129D01*
X134626757Y-77096126D01*
X134637231Y-77030000D01*
X133593012Y-77030000D01*
X133625925Y-76972993D01*
X133660000Y-76845826D01*
X133660000Y-76714174D01*
X133625925Y-76587007D01*
X133593012Y-76530000D01*
X134637231Y-76530000D01*
X134626757Y-76463873D01*
X134626757Y-76463870D01*
X134561095Y-76261782D01*
X134464620Y-76072442D01*
X134339727Y-75900540D01*
X134339723Y-75900535D01*
X134189464Y-75750276D01*
X134189459Y-75750272D01*
X134017557Y-75625379D01*
X133828217Y-75528904D01*
X133626129Y-75463242D01*
X133416246Y-75430000D01*
X133410000Y-75430000D01*
X133410000Y-76346988D01*
X133352993Y-76314075D01*
X133225826Y-76280000D01*
X133094174Y-76280000D01*
X132967007Y-76314075D01*
X132910000Y-76346988D01*
X132910000Y-75430000D01*
X132903754Y-75430000D01*
X132693872Y-75463242D01*
X132693869Y-75463242D01*
X132491782Y-75528904D01*
X132302442Y-75625379D01*
X132130540Y-75750272D01*
X132130535Y-75750276D01*
X131980276Y-75900535D01*
X131980272Y-75900540D01*
X131855379Y-76072442D01*
X131758904Y-76261782D01*
X131693242Y-76463870D01*
X131693242Y-76463873D01*
X131682769Y-76530000D01*
X113621392Y-76530000D01*
X111073224Y-73981832D01*
X111039739Y-73920509D01*
X111044723Y-73850817D01*
X111086595Y-73794884D01*
X111152059Y-73770467D01*
X111196894Y-73775489D01*
X111394066Y-73835300D01*
X111394065Y-73835300D01*
X111409488Y-73836819D01*
X111600000Y-73855583D01*
X111805934Y-73835300D01*
X112003954Y-73775232D01*
X112186450Y-73677685D01*
X112346410Y-73546410D01*
X112477685Y-73386450D01*
X112575232Y-73203954D01*
X112635300Y-73005934D01*
X112655583Y-72800000D01*
X112635300Y-72594066D01*
X112575232Y-72396046D01*
X112477685Y-72213550D01*
X112408966Y-72129815D01*
X112346410Y-72053589D01*
X112186452Y-71922317D01*
X112186453Y-71922317D01*
X112186450Y-71922315D01*
X112003954Y-71824768D01*
X111805934Y-71764700D01*
X111805932Y-71764699D01*
X111805934Y-71764699D01*
X111600000Y-71744417D01*
X111394067Y-71764699D01*
X111313837Y-71789036D01*
X111263418Y-71804331D01*
X111193553Y-71804954D01*
X111139744Y-71773351D01*
X110645915Y-71279522D01*
X110645913Y-71279520D01*
X110600250Y-71253156D01*
X110554589Y-71226793D01*
X110503657Y-71213146D01*
X110452727Y-71199500D01*
X110452726Y-71199500D01*
X109253598Y-71199500D01*
X109186559Y-71179815D01*
X109140804Y-71127011D01*
X109130860Y-71057853D01*
X109146866Y-71012379D01*
X109172404Y-70969194D01*
X109212844Y-70830000D01*
X108524000Y-70830000D01*
X108456961Y-70810315D01*
X108411206Y-70757511D01*
X108400000Y-70706000D01*
X108400000Y-70580000D01*
X108274000Y-70580000D01*
X108206961Y-70560315D01*
X108161206Y-70507511D01*
X108150000Y-70456000D01*
X108150000Y-70330000D01*
X108650000Y-70330000D01*
X109212844Y-70330000D01*
X109172404Y-70190805D01*
X109090738Y-70052714D01*
X109090731Y-70052705D01*
X108977294Y-69939268D01*
X108977285Y-69939261D01*
X108839191Y-69857593D01*
X108839188Y-69857592D01*
X108685130Y-69812834D01*
X108650000Y-69810068D01*
X108650000Y-70330000D01*
X108150000Y-70330000D01*
X108150000Y-69810068D01*
X108149999Y-69810068D01*
X108114869Y-69812834D01*
X108114868Y-69812834D01*
X107960811Y-69857592D01*
X107960808Y-69857593D01*
X107822714Y-69939261D01*
X107822709Y-69939265D01*
X107757415Y-70004559D01*
X107696091Y-70038043D01*
X107628779Y-70033918D01*
X107566881Y-70012259D01*
X107566879Y-70012258D01*
X107537461Y-70009500D01*
X107062546Y-70009500D01*
X107033125Y-70012258D01*
X107033120Y-70012259D01*
X106926053Y-70049723D01*
X106868914Y-70055620D01*
X106750002Y-70039965D01*
X106749998Y-70039965D01*
X106631083Y-70055620D01*
X106573943Y-70049722D01*
X106466880Y-70012258D01*
X106437461Y-70009500D01*
X105962546Y-70009500D01*
X105933113Y-70012259D01*
X105932753Y-70012338D01*
X105932480Y-70012318D01*
X105925605Y-70012963D01*
X105925498Y-70011824D01*
X105863058Y-70007404D01*
X105807094Y-69965573D01*
X105782629Y-69900127D01*
X105793308Y-69847769D01*
X105790939Y-69846938D01*
X105793747Y-69838937D01*
X105793750Y-69838933D01*
X105823976Y-69690653D01*
X105823976Y-69690647D01*
X105819078Y-69601701D01*
X105819076Y-69601684D01*
X105599753Y-68357844D01*
X105488157Y-67724951D01*
X109447813Y-67724951D01*
X109660528Y-68931313D01*
X109660531Y-68931323D01*
X109688699Y-69030654D01*
X109771910Y-69184977D01*
X109888463Y-69315947D01*
X110032083Y-69416511D01*
X110195016Y-69481241D01*
X110368495Y-69506651D01*
X110471457Y-69499151D01*
X110471475Y-69499149D01*
X110631482Y-69470935D01*
X110297210Y-67575180D01*
X109447813Y-67724951D01*
X105488157Y-67724951D01*
X105446439Y-67488356D01*
X110789613Y-67488356D01*
X111123885Y-69384110D01*
X111283889Y-69355898D01*
X111283911Y-69355893D01*
X111383226Y-69327727D01*
X111383231Y-69327725D01*
X111537552Y-69244516D01*
X111668525Y-69127961D01*
X111769085Y-68984346D01*
X111769090Y-68984336D01*
X111833816Y-68821410D01*
X111859228Y-68647931D01*
X111851727Y-68544968D01*
X111851724Y-68544947D01*
X111639010Y-67338584D01*
X110789613Y-67488356D01*
X105446439Y-67488356D01*
X105309210Y-66710094D01*
X105283387Y-66624821D01*
X105204269Y-66495822D01*
X105204266Y-66495819D01*
X105093283Y-66392953D01*
X105093274Y-66392947D01*
X104958660Y-66323842D01*
X104958649Y-66323838D01*
X104810372Y-66293613D01*
X104721423Y-66298511D01*
X104721406Y-66298513D01*
X103922544Y-66439374D01*
X103922520Y-66439380D01*
X103837260Y-66465199D01*
X103708262Y-66544317D01*
X103708261Y-66544318D01*
X103605389Y-66655307D01*
X103536279Y-66789930D01*
X103536276Y-66789937D01*
X103506051Y-66938212D01*
X103506051Y-66938218D01*
X103510949Y-67027164D01*
X103510951Y-67027181D01*
X104020815Y-69918759D01*
X104020821Y-69918783D01*
X104046235Y-70002706D01*
X104046641Y-70004045D01*
X104125759Y-70133044D01*
X104216487Y-70217136D01*
X104224806Y-70224846D01*
X104260593Y-70284855D01*
X104264514Y-70315790D01*
X104264514Y-71112287D01*
X104264514Y-71217741D01*
X104272132Y-71246171D01*
X104291807Y-71319603D01*
X104320006Y-71368443D01*
X104344534Y-71410927D01*
X104522455Y-71588847D01*
X104522462Y-71588855D01*
X104683316Y-71749709D01*
X104716801Y-71811032D01*
X104711817Y-71880724D01*
X104669945Y-71936657D01*
X104630230Y-71956466D01*
X104484806Y-71998715D01*
X104484803Y-71998717D01*
X104343447Y-72082314D01*
X104343438Y-72082321D01*
X104227321Y-72198438D01*
X104227314Y-72198447D01*
X104143717Y-72339803D01*
X104143716Y-72339806D01*
X104097900Y-72497504D01*
X104097899Y-72497510D01*
X104095000Y-72534350D01*
X104095000Y-73175000D01*
X104771000Y-73175000D01*
X104838039Y-73194685D01*
X104883794Y-73247489D01*
X104895000Y-73299000D01*
X104895000Y-73551000D01*
X104875315Y-73618039D01*
X104822511Y-73663794D01*
X104771000Y-73675000D01*
X104095000Y-73675000D01*
X104095000Y-74315649D01*
X104097899Y-74352489D01*
X104097900Y-74352495D01*
X104143716Y-74510193D01*
X104143717Y-74510196D01*
X104227314Y-74651552D01*
X104227321Y-74651561D01*
X104263579Y-74687819D01*
X104297064Y-74749142D01*
X104292080Y-74818834D01*
X104250208Y-74874767D01*
X104184744Y-74899184D01*
X104175898Y-74899500D01*
X100342735Y-74899500D01*
X100275696Y-74879815D01*
X100250880Y-74857725D01*
X100250713Y-74857893D01*
X100247834Y-74855014D01*
X100246885Y-74854169D01*
X100246408Y-74853588D01*
X100104570Y-74737186D01*
X100086450Y-74722315D01*
X99903954Y-74624768D01*
X99705934Y-74564700D01*
X99705932Y-74564699D01*
X99705934Y-74564699D01*
X99500000Y-74544417D01*
X99294067Y-74564699D01*
X99131471Y-74614022D01*
X99109823Y-74620589D01*
X99096043Y-74624769D01*
X99045920Y-74651561D01*
X98913550Y-74722315D01*
X98913548Y-74722316D01*
X98913547Y-74722317D01*
X98753589Y-74853589D01*
X98624479Y-75010913D01*
X98622315Y-75013550D01*
X98598008Y-75059025D01*
X98524769Y-75196043D01*
X98464699Y-75394067D01*
X98444417Y-75600000D01*
X95500500Y-75600000D01*
X95500500Y-70002706D01*
X95500559Y-69999999D01*
X96294922Y-69999999D01*
X96294922Y-70000000D01*
X96315219Y-70387287D01*
X96375886Y-70770323D01*
X96375887Y-70770330D01*
X96476262Y-71144936D01*
X96615244Y-71506994D01*
X96791310Y-71852543D01*
X97002523Y-72177783D01*
X97002525Y-72177785D01*
X97211096Y-72435348D01*
X98705747Y-70940697D01*
X98779588Y-71042330D01*
X98957670Y-71220412D01*
X99059301Y-71294251D01*
X97564650Y-72788902D01*
X97822214Y-72997475D01*
X97822216Y-72997476D01*
X98147456Y-73208689D01*
X98493005Y-73384755D01*
X98855063Y-73523737D01*
X99229669Y-73624112D01*
X99229676Y-73624113D01*
X99612712Y-73684780D01*
X99999999Y-73705078D01*
X100000001Y-73705078D01*
X100387287Y-73684780D01*
X100770323Y-73624113D01*
X100770330Y-73624112D01*
X101144936Y-73523737D01*
X101506994Y-73384755D01*
X101852543Y-73208689D01*
X102177771Y-72997484D01*
X102177784Y-72997474D01*
X102435348Y-72788902D01*
X100940698Y-71294252D01*
X101042330Y-71220412D01*
X101220412Y-71042330D01*
X101294252Y-70940698D01*
X102788902Y-72435348D01*
X102997474Y-72177784D01*
X102997484Y-72177771D01*
X103208689Y-71852543D01*
X103384755Y-71506994D01*
X103523737Y-71144936D01*
X103624112Y-70770330D01*
X103624113Y-70770323D01*
X103684780Y-70387287D01*
X103705078Y-70000000D01*
X103705078Y-69999999D01*
X103684780Y-69612712D01*
X103624113Y-69229676D01*
X103624112Y-69229669D01*
X103523737Y-68855063D01*
X103384755Y-68493005D01*
X103208689Y-68147456D01*
X102997476Y-67822216D01*
X102997475Y-67822214D01*
X102788902Y-67564650D01*
X101294251Y-69059301D01*
X101220412Y-68957670D01*
X101042330Y-68779588D01*
X100940698Y-68705748D01*
X102435349Y-67211096D01*
X102177785Y-67002525D01*
X102177783Y-67002523D01*
X101852543Y-66791310D01*
X101506994Y-66615244D01*
X101144936Y-66476262D01*
X100770330Y-66375887D01*
X100770323Y-66375886D01*
X100387287Y-66315219D01*
X100000001Y-66294922D01*
X99999999Y-66294922D01*
X99612712Y-66315219D01*
X99229676Y-66375886D01*
X99229669Y-66375887D01*
X98855063Y-66476262D01*
X98493005Y-66615244D01*
X98147456Y-66791310D01*
X97822206Y-67002531D01*
X97564649Y-67211095D01*
X97564649Y-67211096D01*
X99059301Y-68705748D01*
X98957670Y-68779588D01*
X98779588Y-68957670D01*
X98705748Y-69059301D01*
X97211096Y-67564649D01*
X97211095Y-67564649D01*
X97002531Y-67822206D01*
X96791310Y-68147456D01*
X96615244Y-68493005D01*
X96476262Y-68855063D01*
X96375887Y-69229669D01*
X96375886Y-69229676D01*
X96315219Y-69612712D01*
X96294922Y-69999999D01*
X95500559Y-69999999D01*
X95500618Y-69997297D01*
X95502087Y-69963657D01*
X95517386Y-69613226D01*
X95518326Y-69602495D01*
X95568152Y-69224025D01*
X95570025Y-69213405D01*
X95652649Y-68840709D01*
X95655440Y-68830295D01*
X95770230Y-68466227D01*
X95773917Y-68456095D01*
X95920003Y-68103412D01*
X95924561Y-68093638D01*
X96100822Y-67755045D01*
X96106217Y-67745700D01*
X96311325Y-67423744D01*
X96317515Y-67414905D01*
X96549896Y-67112060D01*
X96556834Y-67103791D01*
X96814726Y-66822352D01*
X96822352Y-66814726D01*
X97103791Y-66556834D01*
X97112060Y-66549896D01*
X97414905Y-66317515D01*
X97423744Y-66311325D01*
X97745700Y-66106217D01*
X97755045Y-66100822D01*
X98093638Y-65924561D01*
X98103412Y-65920003D01*
X98456095Y-65773917D01*
X98466227Y-65770230D01*
X98830295Y-65655440D01*
X98840709Y-65652649D01*
X99213405Y-65570025D01*
X99224025Y-65568152D01*
X99602495Y-65518326D01*
X99613226Y-65517386D01*
X99997297Y-65500617D01*
X100002706Y-65500500D01*
X100065892Y-65500500D01*
X109082505Y-65500500D01*
X109149544Y-65520185D01*
G37*
%TD.AperFunction*%
%TD*%
M02*
