%TF.GenerationSoftware,KiCad,Pcbnew,8.0.8*%
%TF.CreationDate,2025-01-29T06:06:36+01:00*%
%TF.ProjectId,PCB_Gant,5043425f-4761-46e7-942e-6b696361645f,rev?*%
%TF.SameCoordinates,Original*%
%TF.FileFunction,Paste,Top*%
%TF.FilePolarity,Positive*%
%FSLAX46Y46*%
G04 Gerber Fmt 4.6, Leading zero omitted, Abs format (unit mm)*
G04 Created by KiCad (PCBNEW 8.0.8) date 2025-01-29 06:06:36*
%MOMM*%
%LPD*%
G01*
G04 APERTURE LIST*
G04 Aperture macros list*
%AMRoundRect*
0 Rectangle with rounded corners*
0 $1 Rounding radius*
0 $2 $3 $4 $5 $6 $7 $8 $9 X,Y pos of 4 corners*
0 Add a 4 corners polygon primitive as box body*
4,1,4,$2,$3,$4,$5,$6,$7,$8,$9,$2,$3,0*
0 Add four circle primitives for the rounded corners*
1,1,$1+$1,$2,$3*
1,1,$1+$1,$4,$5*
1,1,$1+$1,$6,$7*
1,1,$1+$1,$8,$9*
0 Add four rect primitives between the rounded corners*
20,1,$1+$1,$2,$3,$4,$5,0*
20,1,$1+$1,$4,$5,$6,$7,0*
20,1,$1+$1,$6,$7,$8,$9,0*
20,1,$1+$1,$8,$9,$2,$3,0*%
G04 Aperture macros list end*
%ADD10RoundRect,0.140000X0.219203X0.021213X0.021213X0.219203X-0.219203X-0.021213X-0.021213X-0.219203X0*%
%ADD11RoundRect,0.375000X-0.625000X-0.375000X0.625000X-0.375000X0.625000X0.375000X-0.625000X0.375000X0*%
%ADD12RoundRect,0.500000X-0.500000X-1.400000X0.500000X-1.400000X0.500000X1.400000X-0.500000X1.400000X0*%
%ADD13RoundRect,0.135000X0.135000X0.185000X-0.135000X0.185000X-0.135000X-0.185000X0.135000X-0.185000X0*%
%ADD14RoundRect,0.150000X-0.150000X0.825000X-0.150000X-0.825000X0.150000X-0.825000X0.150000X0.825000X0*%
%ADD15RoundRect,0.250000X-1.137500X-0.550000X1.137500X-0.550000X1.137500X0.550000X-1.137500X0.550000X0*%
%ADD16RoundRect,0.250000X-0.362500X-1.425000X0.362500X-1.425000X0.362500X1.425000X-0.362500X1.425000X0*%
%ADD17RoundRect,0.135000X-0.185000X0.135000X-0.185000X-0.135000X0.185000X-0.135000X0.185000X0.135000X0*%
%ADD18RoundRect,0.135000X0.185000X-0.135000X0.185000X0.135000X-0.185000X0.135000X-0.185000X-0.135000X0*%
%ADD19RoundRect,0.140000X0.140000X0.170000X-0.140000X0.170000X-0.140000X-0.170000X0.140000X-0.170000X0*%
%ADD20RoundRect,0.140000X-0.219203X-0.021213X-0.021213X-0.219203X0.219203X0.021213X0.021213X0.219203X0*%
%ADD21RoundRect,0.140000X-0.170000X0.140000X-0.170000X-0.140000X0.170000X-0.140000X0.170000X0.140000X0*%
%ADD22RoundRect,0.140000X0.170000X-0.140000X0.170000X0.140000X-0.170000X0.140000X-0.170000X-0.140000X0*%
%ADD23RoundRect,0.135000X-0.135000X-0.185000X0.135000X-0.185000X0.135000X0.185000X-0.135000X0.185000X0*%
%ADD24RoundRect,0.250000X-0.109544X-1.466299X0.604441X-1.340404X0.109544X1.466299X-0.604441X1.340404X0*%
%ADD25RoundRect,0.125000X-0.125000X0.625000X-0.125000X-0.625000X0.125000X-0.625000X0.125000X0.625000X0*%
%ADD26RoundRect,0.125000X-0.625000X0.125000X-0.625000X-0.125000X0.625000X-0.125000X0.625000X0.125000X0*%
%ADD27RoundRect,0.250000X-0.604441X-1.340404X0.109544X-1.466299X0.604441X1.340404X-0.109544X1.466299X0*%
%ADD28R,2.400000X0.740000*%
G04 APERTURE END LIST*
D10*
%TO.C,C6*%
X113739411Y-90659411D03*
X113060589Y-89980589D03*
%TD*%
D11*
%TO.C,U5*%
X113100000Y-92900000D03*
X113100000Y-95200000D03*
D12*
X119400000Y-95200000D03*
D11*
X113100000Y-97500000D03*
%TD*%
D13*
%TO.C,R7*%
X103420000Y-79100000D03*
X102400000Y-79100000D03*
%TD*%
D14*
%TO.C,U2*%
X108705000Y-73425000D03*
X107435000Y-73425000D03*
X106165000Y-73425000D03*
X104895000Y-73425000D03*
X104895000Y-78375000D03*
X106165000Y-78375000D03*
X107435000Y-78375000D03*
X108705000Y-78375000D03*
%TD*%
D15*
%TO.C,C8*%
X122437500Y-95200000D03*
X126562500Y-95200000D03*
%TD*%
D16*
%TO.C,R6*%
X113037500Y-67200000D03*
X118962500Y-67200000D03*
%TD*%
D17*
%TO.C,R13*%
X112000000Y-84600000D03*
X112000000Y-85620000D03*
%TD*%
D14*
%TO.C,U3*%
X125905000Y-73425000D03*
X124635000Y-73425000D03*
X123365000Y-73425000D03*
X122095000Y-73425000D03*
X122095000Y-78375000D03*
X123365000Y-78375000D03*
X124635000Y-78375000D03*
X125905000Y-78375000D03*
%TD*%
D18*
%TO.C,R14*%
X112000000Y-83620000D03*
X112000000Y-82600000D03*
%TD*%
D19*
%TO.C,C2*%
X118360000Y-79800000D03*
X117400000Y-79800000D03*
%TD*%
D18*
%TO.C,R1*%
X107300000Y-71600000D03*
X107300000Y-70580000D03*
%TD*%
D20*
%TO.C,C5*%
X122160589Y-80960589D03*
X122839411Y-81639411D03*
%TD*%
D21*
%TO.C,C9*%
X110100000Y-77420000D03*
X110100000Y-78380000D03*
%TD*%
D22*
%TO.C,C12*%
X127300000Y-78380000D03*
X127300000Y-77420000D03*
%TD*%
D23*
%TO.C,R5*%
X102400000Y-76900000D03*
X103420000Y-76900000D03*
%TD*%
D24*
%TO.C,R4*%
X104665014Y-68314433D03*
X110500000Y-67285567D03*
%TD*%
D22*
%TO.C,C3*%
X111860000Y-88010000D03*
X111860000Y-87050000D03*
%TD*%
D25*
%TO.C,U1*%
X120700000Y-81725000D03*
X119900000Y-81725000D03*
X119100000Y-81725000D03*
X118300000Y-81725000D03*
X117500000Y-81725000D03*
X116700000Y-81725000D03*
X115900000Y-81725000D03*
X115100000Y-81725000D03*
D26*
X113725000Y-83100000D03*
X113725000Y-83900000D03*
X113725000Y-84700000D03*
X113725000Y-85500000D03*
X113725000Y-86300000D03*
X113725000Y-87100000D03*
X113725000Y-87900000D03*
X113725000Y-88700000D03*
D25*
X115100000Y-90075000D03*
X115900000Y-90075000D03*
X116700000Y-90075000D03*
X117500000Y-90075000D03*
X118300000Y-90075000D03*
X119100000Y-90075000D03*
X119900000Y-90075000D03*
X120700000Y-90075000D03*
D26*
X122075000Y-88700000D03*
X122075000Y-87900000D03*
X122075000Y-87100000D03*
X122075000Y-86300000D03*
X122075000Y-85500000D03*
X122075000Y-84700000D03*
X122075000Y-83900000D03*
X122075000Y-83100000D03*
%TD*%
D17*
%TO.C,R9*%
X123000000Y-70600000D03*
X123000000Y-71620000D03*
%TD*%
D18*
%TO.C,R11*%
X125200000Y-71620000D03*
X125200000Y-70600000D03*
%TD*%
D17*
%TO.C,R3*%
X106200000Y-70580000D03*
X106200000Y-71600000D03*
%TD*%
D18*
%TO.C,R2*%
X108400000Y-71600000D03*
X108400000Y-70580000D03*
%TD*%
D13*
%TO.C,R8*%
X103420000Y-78000000D03*
X102400000Y-78000000D03*
%TD*%
D21*
%TO.C,C1*%
X111860000Y-89040000D03*
X111860000Y-90000000D03*
%TD*%
D20*
%TO.C,C4*%
X123460589Y-80360589D03*
X124139411Y-81039411D03*
%TD*%
D18*
%TO.C,R12*%
X124100000Y-71620000D03*
X124100000Y-70600000D03*
%TD*%
D19*
%TO.C,C7*%
X111000000Y-97600000D03*
X110040000Y-97600000D03*
%TD*%
D27*
%TO.C,R10*%
X121482507Y-67285568D03*
X127317493Y-68314432D03*
%TD*%
D28*
%TO.C,J1*%
X130910000Y-91090000D03*
X127010000Y-91090000D03*
X130910000Y-89820000D03*
X127010000Y-89820000D03*
X130910000Y-88550000D03*
X127010000Y-88550000D03*
X130910000Y-87280000D03*
X127010000Y-87280000D03*
X130910000Y-86010000D03*
X127010000Y-86010000D03*
X130910000Y-84740000D03*
X127010000Y-84740000D03*
X130910000Y-83470000D03*
X127010000Y-83470000D03*
%TD*%
M02*
