M48
; DRILL file {KiCad 8.0.8} date 2025-01-29T06:07:06+0100
; FORMAT={-:-/ absolute / metric / decimal}
; #@! TF.CreationDate,2025-01-29T06:07:06+01:00
; #@! TF.GenerationSoftware,Kicad,Pcbnew,8.0.8
; #@! TF.FileFunction,Plated,1,4,PTH
FMAT,2
METRIC
; #@! TA.AperFunction,Plated,PTH,ViaDrill
T1C0.300
; #@! TA.AperFunction,Plated,PTH,ComponentDrill
T2C0.500
; #@! TA.AperFunction,Plated,PTH,ComponentDrill
T3C0.950
; #@! TA.AperFunction,Plated,PTH,ComponentDrill
T4C1.000
; #@! TA.AperFunction,Plated,PTH,ComponentDrill
T5C2.000
; #@! TA.AperFunction,Plated,PTH,ComponentDrill
T6C3.200
%
G90
G05
T1
X96.3Y-96.0
X96.7Y-74.0
X97.9Y-90.1
X98.5Y-83.1
X101.9Y-79.1
X102.1Y-74.1
X102.4Y-77.46
X103.4Y-76.1
X104.9Y-74.7
X105.7Y-92.3
X105.7Y-101.6
X106.0Y-97.3
X106.3Y-86.6
X106.75Y-70.57
X108.4Y-70.1
X108.9Y-82.5
X109.5Y-97.6
X110.1Y-76.9
X110.7Y-78.4
X111.0Y-87.05
X111.0Y-98.4
X111.3Y-67.1
X111.424Y-85.237
X111.9Y-90.5
X112.0Y-84.1
X112.66Y-87.07
X112.7Y-87.9
X113.037Y-69.3
X113.4Y-82.2
X113.6Y-78.4
X113.721Y-89.321
X114.4Y-92.9
X114.6Y-90.075
X115.1Y-82.8
X115.7Y-76.1
X116.0Y-82.8
X116.7Y-79.2
X116.8Y-91.4
X117.6Y-91.4
X117.88Y-95.2
X119.7Y-77.4
X119.8Y-67.2
X120.8Y-85.2
X121.0Y-92.7
X121.396Y-81.725
X121.5Y-73.4
X122.075Y-82.404
X122.7Y-78.4
X123.55Y-70.59
X124.6Y-85.2
X125.5Y-83.5
X125.9Y-74.6
X126.5Y-68.2
X126.5Y-78.38
X126.8Y-100.9
X127.0Y-81.0
X127.3Y-76.9
X127.9Y-103.4
X128.2Y-95.2
X129.0Y-73.6
X129.4Y-83.5
X129.5Y-66.2
X130.0Y-95.1
X132.3Y-87.4
X132.4Y-84.7
X132.4Y-88.6
X132.4Y-89.82
X133.2Y-94.1
X134.4Y-83.4
X135.0Y-89.4
X135.6Y-72.7
X136.0Y-87.4
T2
X97.6Y-70.0
X97.6Y-100.0
X98.303Y-68.303
X98.303Y-71.697
X98.303Y-98.303
X98.303Y-101.697
X100.0Y-67.6
X100.0Y-72.4
X100.0Y-97.6
X100.0Y-102.4
X101.697Y-68.303
X101.697Y-71.697
X101.697Y-98.303
X101.697Y-101.697
X102.4Y-70.0
X102.4Y-100.0
X129.6Y-70.0
X129.6Y-100.0
X130.303Y-68.303
X130.303Y-71.697
X130.303Y-98.303
X130.303Y-101.697
X132.0Y-67.6
X132.0Y-72.4
X132.0Y-97.6
X132.0Y-102.4
X133.697Y-68.303
X133.697Y-71.697
X133.697Y-98.303
X133.697Y-101.697
X134.4Y-70.0
X134.4Y-100.0
T3
X109.5Y-101.2
X112.0Y-101.2
X114.5Y-101.2
X117.0Y-101.2
X119.5Y-101.2
X122.0Y-101.2
T4
X109.82Y-85.5
X109.82Y-88.0
X109.82Y-90.5
X133.16Y-76.78
X133.16Y-79.28
T6
X100.0Y-70.0
X100.0Y-100.0
X132.0Y-70.0
X132.0Y-100.0
T5
X102.57Y-82.4G85X102.07Y-82.4
G05
X102.57Y-93.6G85X102.07Y-93.6
G05
M30
