%TF.GenerationSoftware,KiCad,Pcbnew,8.0.8*%
%TF.CreationDate,2025-01-29T06:06:36+01:00*%
%TF.ProjectId,PCB_Gant,5043425f-4761-46e7-942e-6b696361645f,rev?*%
%TF.SameCoordinates,Original*%
%TF.FileFunction,Soldermask,Bot*%
%TF.FilePolarity,Negative*%
%FSLAX46Y46*%
G04 Gerber Fmt 4.6, Leading zero omitted, Abs format (unit mm)*
G04 Created by KiCad (PCBNEW 8.0.8) date 2025-01-29 06:06:36*
%MOMM*%
%LPD*%
G01*
G04 APERTURE LIST*
G04 Aperture macros list*
%AMRoundRect*
0 Rectangle with rounded corners*
0 $1 Rounding radius*
0 $2 $3 $4 $5 $6 $7 $8 $9 X,Y pos of 4 corners*
0 Add a 4 corners polygon primitive as box body*
4,1,4,$2,$3,$4,$5,$6,$7,$8,$9,$2,$3,0*
0 Add four circle primitives for the rounded corners*
1,1,$1+$1,$2,$3*
1,1,$1+$1,$4,$5*
1,1,$1+$1,$6,$7*
1,1,$1+$1,$8,$9*
0 Add four rect primitives between the rounded corners*
20,1,$1+$1,$2,$3,$4,$5,0*
20,1,$1+$1,$4,$5,$6,$7,0*
20,1,$1+$1,$6,$7,$8,$9,0*
20,1,$1+$1,$8,$9,$2,$3,0*%
G04 Aperture macros list end*
%ADD10RoundRect,0.250000X0.750000X-0.600000X0.750000X0.600000X-0.750000X0.600000X-0.750000X-0.600000X0*%
%ADD11O,2.000000X1.700000*%
%ADD12C,0.800000*%
%ADD13C,6.400000*%
%ADD14RoundRect,0.250000X-0.600000X-0.725000X0.600000X-0.725000X0.600000X0.725000X-0.600000X0.725000X0*%
%ADD15O,1.700000X1.950000*%
%ADD16R,2.000000X2.000000*%
%ADD17C,2.000000*%
%ADD18R,3.000000X2.500000*%
G04 APERTURE END LIST*
D10*
%TO.C,J3*%
X133160000Y-79280000D03*
D11*
X133160000Y-76780000D03*
%TD*%
D12*
%TO.C,H1*%
X97600000Y-100000000D03*
X98302944Y-98302944D03*
X98302944Y-101697056D03*
X100000000Y-97600000D03*
D13*
X100000000Y-100000000D03*
D12*
X100000000Y-102400000D03*
X101697056Y-98302944D03*
X101697056Y-101697056D03*
X102400000Y-100000000D03*
%TD*%
D14*
%TO.C,J2*%
X109500000Y-101200000D03*
D15*
X112000000Y-101200000D03*
X114500000Y-101200000D03*
X117000000Y-101200000D03*
X119500000Y-101200000D03*
X122000000Y-101200000D03*
%TD*%
D12*
%TO.C,H2*%
X97600000Y-70000000D03*
X98302944Y-68302944D03*
X98302944Y-71697056D03*
X100000000Y-67600000D03*
D13*
X100000000Y-70000000D03*
D12*
X100000000Y-72400000D03*
X101697056Y-68302944D03*
X101697056Y-71697056D03*
X102400000Y-70000000D03*
%TD*%
%TO.C,H3*%
X129600000Y-100000000D03*
X130302944Y-98302944D03*
X130302944Y-101697056D03*
X132000000Y-97600000D03*
D13*
X132000000Y-100000000D03*
D12*
X132000000Y-102400000D03*
X133697056Y-98302944D03*
X133697056Y-101697056D03*
X134400000Y-100000000D03*
%TD*%
D16*
%TO.C,SW2*%
X109820000Y-90500000D03*
D17*
X109820000Y-85500000D03*
X109820000Y-88000000D03*
D18*
X102320000Y-93600000D03*
X102320000Y-82400000D03*
%TD*%
D12*
%TO.C,H4*%
X129600000Y-70000000D03*
X130302944Y-68302944D03*
X130302944Y-71697056D03*
X132000000Y-67600000D03*
D13*
X132000000Y-70000000D03*
D12*
X132000000Y-72400000D03*
X133697056Y-68302944D03*
X133697056Y-71697056D03*
X134400000Y-70000000D03*
%TD*%
M02*
