M48
; DRILL file {KiCad 8.0.1-8.0.1-1~ubuntu22.04.1} date 2024-04-06T12:43:48+0200
; FORMAT={-:-/ absolute / inch / decimal}
; #@! TF.CreationDate,2024-04-06T12:43:48+02:00
; #@! TF.GenerationSoftware,Kicad,Pcbnew,8.0.1-8.0.1-1~ubuntu22.04.1
; #@! TF.FileFunction,Plated,1,4,PTH
FMAT,2
INCH
; #@! TA.AperFunction,Plated,PTH,ViaDrill
T1C0.0157
; #@! TA.AperFunction,Plated,PTH,ComponentDrill
T2C0.0197
; #@! TA.AperFunction,Plated,PTH,ComponentDrill
T3C0.0370
; #@! TA.AperFunction,Plated,PTH,ComponentDrill
T4C0.0374
; #@! TA.AperFunction,Plated,PTH,ComponentDrill
T5C0.0394
; #@! TA.AperFunction,Plated,PTH,ComponentDrill
T6C0.0728
; #@! TA.AperFunction,Plated,PTH,ComponentDrill
T7C0.1260
; #@! TA.AperFunction,Plated,PTH,ComponentDrill
T8C0.1772
%
G90
G05
T1
X4.1732Y-2.0472
X4.1732Y-2.2441
X4.1732Y-2.4409
X4.1732Y-2.6378
X4.1732Y-2.8346
X4.1732Y-3.0315
X4.1732Y-3.2283
X4.1732Y-3.4252
X4.1732Y-3.622
X4.1732Y-3.8189
X4.3701Y-2.6378
X4.3701Y-3.0315
X4.3701Y-3.622
X4.3701Y-4.0157
X4.4803Y-2.9872
X4.5108Y-3.2913
X4.5295Y-3.376
X4.5669Y-1.8504
X4.5669Y-2.0472
X4.5669Y-2.2441
X4.5669Y-2.4409
X4.5669Y-2.6378
X4.5669Y-2.8346
X4.5669Y-3.622
X4.5669Y-3.8189
X4.5669Y-4.0157
X4.5915Y-3.4754
X4.6181Y-3.247
X4.6299Y-2.9754
X4.6339Y-2.4685
X4.6339Y-2.5394
X4.6339Y-2.6102
X4.6506Y-2.9242
X4.6693Y-2.7539
X4.6722Y-3.6614
X4.6978Y-3.1417
X4.7441Y-3.6604
X4.7598Y-3.439
X4.7638Y-1.8504
X4.7638Y-2.0472
X4.7638Y-2.2441
X4.7638Y-2.8346
X4.7638Y-3.0315
X4.7638Y-3.2283
X4.7638Y-3.8189
X4.7638Y-4.0157
X4.7667Y-3.2963
X4.7766Y-2.6624
X4.8012Y-3.6614
X4.812Y-3.4419
X4.8571Y-2.6552
X4.8642Y-2.6939
X4.9124Y-3.1437
X4.9213Y-2.748
X4.9606Y-1.8504
X4.9606Y-2.0472
X4.9606Y-2.4409
X4.9606Y-3.0315
X4.9606Y-3.2283
X4.9606Y-3.4252
X4.9606Y-3.622
X4.9606Y-4.0157
X5.0719Y-3.0197
X5.1033Y-2.6847
X5.1426Y-2.6877
X5.1575Y-1.8504
X5.1575Y-2.0472
X5.1575Y-2.4409
X5.1575Y-3.2283
X5.1575Y-3.4252
X5.1575Y-4.0157
X5.1742Y-2.7195
X5.2215Y-2.7047
X5.2284Y-2.8976
X5.2392Y-2.7697
X5.2677Y-2.9065
X5.3081Y-2.9065
X5.3248Y-3.0108
X5.3268Y-2.5827
X5.3543Y-1.8504
X5.3543Y-2.0472
X5.3543Y-3.2283
X5.3543Y-3.4252
X5.3543Y-3.622
X5.3543Y-4.0157
X5.374Y-3.0315
X5.4293Y-2.943
X5.4331Y-2.6575
X5.4429Y-3.3996
X5.4902Y-3.3287
X5.5039Y-2.7795
X5.5118Y-2.4409
X5.5374Y-3.3996
X5.5512Y-1.8504
X5.5512Y-2.0472
X5.5512Y-3.622
X5.5512Y-4.0157
X5.5807Y-2.4665
X5.5807Y-2.6555
X5.5827Y-2.7638
X5.5827Y-2.9508
X5.5827Y-3.0551
X5.6102Y-3.2657
X5.6299Y-3.5433
X5.6496Y-3.1516
X5.6594Y-3.3524
X5.6693Y-3.5433
X5.7441Y-2.4331
X5.748Y-1.8504
X5.748Y-2.0472
X5.748Y-2.2441
X5.748Y-2.6378
X5.748Y-2.8346
X5.748Y-3.2283
X5.748Y-3.2972
X5.748Y-4.0157
X5.8268Y-3.6614
X5.8406Y-3.3524
X5.8425Y-3.6024
X5.8661Y-3.6614
X5.9449Y-1.8504
X5.9449Y-2.0472
X5.9449Y-2.8346
X5.9449Y-3.4252
X5.9449Y-3.622
X5.9449Y-4.0157
X5.9911Y-3.1191
X6.0354Y-3.3563
X6.0787Y-2.4291
X6.0787Y-2.6791
X6.0787Y-2.7205
X6.0787Y-2.9665
X6.0827Y-3.0236
X6.0827Y-3.2697
X6.0827Y-3.311
X6.1417Y-1.8504
X6.1417Y-2.0472
X6.1417Y-2.2441
X6.1417Y-2.8346
X6.1417Y-3.4252
X6.1417Y-3.622
X6.1417Y-4.0157
X6.3307Y-2.4331
X6.3386Y-2.2441
X6.3386Y-2.6378
X6.3386Y-2.8346
X6.3386Y-3.0118
X6.3386Y-3.2283
X6.3386Y-3.4252
X6.3386Y-3.622
X6.3386Y-4.0157
T2
X4.2362Y-1.9685
X4.2362Y-3.8583
X4.2639Y-1.9017
X4.2639Y-2.0353
X4.2639Y-3.7915
X4.2639Y-3.9251
X4.3307Y-1.874
X4.3307Y-2.063
X4.3307Y-3.7638
X4.3307Y-3.9528
X4.3975Y-1.9017
X4.3975Y-2.0353
X4.3975Y-3.7915
X4.3975Y-3.9251
X4.4252Y-1.9685
X4.4252Y-3.8583
X6.2047Y-1.9685
X6.2047Y-3.8583
X6.2324Y-1.9017
X6.2324Y-2.0353
X6.2324Y-3.7915
X6.2324Y-3.9251
X6.2992Y-1.874
X6.2992Y-2.063
X6.2992Y-3.7638
X6.2992Y-3.9528
X6.366Y-1.9017
X6.366Y-2.0353
X6.366Y-3.7915
X6.366Y-3.9251
X6.3937Y-1.9685
X6.3937Y-3.8583
T3
X4.9333Y-2.2858
X4.9878Y-2.174
X5.0423Y-2.2858
X5.0969Y-2.174
X5.1514Y-2.2858
X5.2059Y-2.174
X5.2604Y-2.2858
X5.315Y-2.174
X5.3695Y-2.2858
X5.424Y-2.174
X5.4785Y-2.2858
X5.5331Y-2.174
X5.5876Y-2.2858
X5.6421Y-2.174
X5.6967Y-2.2858
T4
X4.3307Y-2.2441
X4.3307Y-2.3425
X4.3307Y-2.4409
X4.3307Y-2.7165
X4.3307Y-2.815
X4.3307Y-2.9134
T5
X5.0299Y-3.6319
X5.1299Y-3.6319
X5.2299Y-3.6319
T6
X4.9449Y-3.8583
X5.1299Y-3.8583
X5.315Y-3.8583
T7
X4.3307Y-1.9685
X4.3307Y-3.8583
X6.2992Y-1.9685
X6.2992Y-3.8583
T8
X5.5856Y-3.8583
X5.8691Y-3.8583
M30
