%TF.GenerationSoftware,KiCad,Pcbnew,8.0.0*%
%TF.CreationDate,2024-10-22T21:16:36+02:00*%
%TF.ProjectId,ProjetCorps,50726f6a-6574-4436-9f72-70732e6b6963,rev?*%
%TF.SameCoordinates,Original*%
%TF.FileFunction,Copper,L3,Inr*%
%TF.FilePolarity,Positive*%
%FSLAX46Y46*%
G04 Gerber Fmt 4.6, Leading zero omitted, Abs format (unit mm)*
G04 Created by KiCad (PCBNEW 8.0.0) date 2024-10-22 21:16:36*
%MOMM*%
%LPD*%
G01*
G04 APERTURE LIST*
G04 Aperture macros list*
%AMRoundRect*
0 Rectangle with rounded corners*
0 $1 Rounding radius*
0 $2 $3 $4 $5 $6 $7 $8 $9 X,Y pos of 4 corners*
0 Add a 4 corners polygon primitive as box body*
4,1,4,$2,$3,$4,$5,$6,$7,$8,$9,$2,$3,0*
0 Add four circle primitives for the rounded corners*
1,1,$1+$1,$2,$3*
1,1,$1+$1,$4,$5*
1,1,$1+$1,$6,$7*
1,1,$1+$1,$8,$9*
0 Add four rect primitives between the rounded corners*
20,1,$1+$1,$2,$3,$4,$5,0*
20,1,$1+$1,$4,$5,$6,$7,0*
20,1,$1+$1,$6,$7,$8,$9,0*
20,1,$1+$1,$8,$9,$2,$3,0*%
G04 Aperture macros list end*
%TA.AperFunction,ComponentPad*%
%ADD10C,0.800000*%
%TD*%
%TA.AperFunction,ComponentPad*%
%ADD11C,6.400000*%
%TD*%
%TA.AperFunction,ComponentPad*%
%ADD12RoundRect,0.250000X0.725000X-0.600000X0.725000X0.600000X-0.725000X0.600000X-0.725000X-0.600000X0*%
%TD*%
%TA.AperFunction,ComponentPad*%
%ADD13O,1.950000X1.700000*%
%TD*%
%TA.AperFunction,ComponentPad*%
%ADD14RoundRect,0.250000X-0.725000X0.600000X-0.725000X-0.600000X0.725000X-0.600000X0.725000X0.600000X0*%
%TD*%
%TA.AperFunction,ComponentPad*%
%ADD15C,3.000000*%
%TD*%
%TA.AperFunction,ComponentPad*%
%ADD16C,1.600000*%
%TD*%
%TA.AperFunction,ComponentPad*%
%ADD17RoundRect,1.500000X1.500000X1.500000X-1.500000X1.500000X-1.500000X-1.500000X1.500000X-1.500000X0*%
%TD*%
%TA.AperFunction,ComponentPad*%
%ADD18C,6.000000*%
%TD*%
%TA.AperFunction,ComponentPad*%
%ADD19C,1.447800*%
%TD*%
%TA.AperFunction,ViaPad*%
%ADD20C,0.450000*%
%TD*%
G04 APERTURE END LIST*
D10*
%TO.N,GND*%
%TO.C,H102*%
X92600000Y-45000000D03*
X93302944Y-43302944D03*
X93302944Y-46697056D03*
X95000000Y-42600000D03*
D11*
X95000000Y-45000000D03*
D10*
X95000000Y-47400000D03*
X96697056Y-43302944D03*
X96697056Y-46697056D03*
X97400000Y-45000000D03*
%TD*%
%TO.N,GND*%
%TO.C,H103*%
X42600000Y-95000000D03*
X43302944Y-93302944D03*
X43302944Y-96697056D03*
X45000000Y-92600000D03*
D11*
X45000000Y-95000000D03*
D10*
X45000000Y-97400000D03*
X46697056Y-93302944D03*
X46697056Y-96697056D03*
X47400000Y-95000000D03*
%TD*%
D12*
%TO.N,GND*%
%TO.C,J103*%
X44100000Y-71100000D03*
D13*
%TO.N,+12V*%
X44100000Y-68600000D03*
%TO.N,UART_HD_XL430*%
X44100000Y-66100000D03*
%TD*%
D14*
%TO.N,UART_mp3_RX*%
%TO.C,J1*%
X95900000Y-57000000D03*
D13*
%TO.N,UART_mp3_TX*%
X95900000Y-59500000D03*
%TO.N,+5V*%
X95900000Y-62000000D03*
%TO.N,GND*%
X95900000Y-64500000D03*
%TD*%
D10*
%TO.N,GND*%
%TO.C,H101*%
X42600000Y-45000000D03*
X43302944Y-43302944D03*
X43302944Y-46697056D03*
X45000000Y-42600000D03*
D11*
X45000000Y-45000000D03*
D10*
X45000000Y-47400000D03*
X46697056Y-43302944D03*
X46697056Y-46697056D03*
X47400000Y-45000000D03*
%TD*%
D15*
%TO.N,+12V*%
%TO.C,SW101*%
X57050000Y-93350000D03*
%TO.N,Net-(J101-Pin_2)*%
X61750000Y-93350000D03*
%TO.N,unconnected-(SW101-C-Pad3)*%
X66450000Y-93350000D03*
%TD*%
D16*
%TO.N,+12V*%
%TO.C,U104*%
X59210000Y-87600000D03*
%TO.N,GND*%
X61750000Y-87600000D03*
%TO.N,+5V*%
X64290000Y-87600000D03*
%TD*%
D17*
%TO.N,GND*%
%TO.C,J101*%
X80525000Y-93350000D03*
D18*
%TO.N,Net-(J101-Pin_2)*%
X73325000Y-93350000D03*
%TD*%
D12*
%TO.N,unconnected-(J3-Pin_1-Pad1)*%
%TO.C,J3*%
X44100000Y-84600000D03*
D13*
%TO.N,GND*%
X44100000Y-82100000D03*
%TO.N,PWM_TIM4_CH1*%
X44100000Y-79600000D03*
%TO.N,+5V*%
X44100000Y-77100000D03*
%TD*%
D14*
%TO.N,unconnected-(J2-Pin_1-Pad1)*%
%TO.C,J2*%
X95900000Y-70600000D03*
D13*
%TO.N,+5V*%
X95900000Y-73100000D03*
%TO.N,GND*%
X95900000Y-75600000D03*
%TO.N,UART_hc05_TX*%
X95900000Y-78100000D03*
%TO.N,UART_hc05_RX*%
X95900000Y-80600000D03*
%TO.N,unconnected-(J2-Pin_6-Pad6)*%
X95900000Y-83100000D03*
%TD*%
D10*
%TO.N,GND*%
%TO.C,H104*%
X92600000Y-95000000D03*
X93302944Y-93302944D03*
X93302944Y-96697056D03*
X95000000Y-92600000D03*
D11*
X95000000Y-95000000D03*
D10*
X95000000Y-97400000D03*
X96697056Y-93302944D03*
X96697056Y-96697056D03*
X97400000Y-95000000D03*
%TD*%
D19*
%TO.N,GND*%
%TO.C,J104*%
X60315002Y-53059999D03*
%TO.N,PWM_TIM2_CH2*%
X63085001Y-53059999D03*
%TO.N,PWM_TIM2_CH1*%
X65855001Y-53059999D03*
%TO.N,PWM_TIM1_CH4*%
X68625001Y-53059999D03*
%TO.N,PWM_TIM1_CH3*%
X71395000Y-53059999D03*
%TO.N,PWM_TIM1_CH2*%
X74165000Y-53059999D03*
%TO.N,PWM_TIM1_CH1*%
X76934999Y-53059999D03*
%TO.N,GND*%
X79704999Y-53059999D03*
%TO.N,+12V*%
X61700000Y-50220000D03*
X64470000Y-50220000D03*
%TO.N,GND*%
X67239999Y-50220000D03*
%TO.N,I2C_SCL*%
X70009999Y-50220000D03*
%TO.N,I2C_SDA*%
X72779999Y-50220000D03*
%TO.N,TOF_INT*%
X75549998Y-50220000D03*
%TO.N,GND*%
X78319998Y-50220000D03*
%TD*%
D12*
%TO.N,GND*%
%TO.C,J102*%
X44100000Y-60000000D03*
D13*
%TO.N,+12V*%
X44100000Y-57500000D03*
%TO.N,UART_HD_XL430*%
X44100000Y-55000000D03*
%TD*%
D20*
%TO.N,GND*%
X65000000Y-56000000D03*
%TO.N,TOF_INT*%
X68677499Y-74322501D03*
%TO.N,+3.3V*%
X74000000Y-76850000D03*
X48700000Y-58700000D03*
X90250000Y-83850000D03*
X73750000Y-63300000D03*
X63150000Y-74000000D03*
X66250000Y-58200000D03*
X59100000Y-70900000D03*
X59100000Y-72000000D03*
X76830000Y-66120000D03*
X62150000Y-58200000D03*
X77500000Y-81700000D03*
X66050000Y-63150000D03*
X63300000Y-72000000D03*
X71900000Y-81700000D03*
X75400000Y-80500000D03*
X54400000Y-76600000D03*
%TO.N,GND*%
X67000000Y-77300000D03*
X88300000Y-94700000D03*
X75300000Y-59600000D03*
X67000000Y-62050000D03*
X88800000Y-63100000D03*
X72000000Y-61000000D03*
X60700000Y-76550000D03*
X82300000Y-77300000D03*
X51350000Y-71300000D03*
X80800000Y-79600000D03*
X69900000Y-41700000D03*
X54500000Y-90900000D03*
X93100000Y-75000000D03*
X47700000Y-50400000D03*
X90200000Y-60300000D03*
X56500000Y-69250000D03*
X91800000Y-84600000D03*
X73020000Y-76880000D03*
X90650000Y-79450000D03*
X90250000Y-81350000D03*
X49100000Y-77100000D03*
X93000000Y-51700000D03*
X55500000Y-42500000D03*
X51000000Y-68100000D03*
X75200000Y-85600000D03*
X81700000Y-85350000D03*
X78300000Y-42800000D03*
X57000000Y-57000000D03*
X50500000Y-81950000D03*
X91800000Y-89600000D03*
X50800000Y-56900000D03*
X86600000Y-56100000D03*
X63650000Y-65600000D03*
X85200000Y-43500000D03*
X98900000Y-50000000D03*
X77900000Y-72700000D03*
X86600000Y-59650000D03*
X61100000Y-72000000D03*
X61100000Y-70900000D03*
X87500000Y-91300000D03*
X64100000Y-45500000D03*
X91500000Y-57800000D03*
X61900000Y-82300000D03*
X74200000Y-46400000D03*
X60550000Y-66750000D03*
X53850000Y-60500000D03*
X55300000Y-46300000D03*
X63050000Y-69300000D03*
X67000000Y-63150000D03*
X49700000Y-90100000D03*
X59300000Y-59800000D03*
X53850000Y-59000000D03*
X65500000Y-71250000D03*
X49400000Y-85050000D03*
X55100000Y-63800000D03*
X87450000Y-73150000D03*
X90200000Y-82550000D03*
X87450000Y-67200000D03*
X53850000Y-62200000D03*
X41400000Y-50300000D03*
X57650000Y-77600000D03*
X58500000Y-74650000D03*
X63050000Y-67400000D03*
X48300000Y-72000000D03*
X70950000Y-84200000D03*
X63150000Y-73000000D03*
X76850000Y-67050000D03*
X51700000Y-96800000D03*
X51200000Y-92500000D03*
X83800000Y-62100000D03*
X86600000Y-57850000D03*
X82400000Y-48600000D03*
X57950000Y-84150000D03*
X60100000Y-63300000D03*
X81200000Y-67200000D03*
%TO.N,NRST*%
X76675000Y-62600000D03*
X82060000Y-63640000D03*
%TO.N,+5V*%
X49429081Y-61370919D03*
X82600000Y-86800000D03*
X79740000Y-88220000D03*
%TO.N,+12V*%
X47312653Y-57187347D03*
%TO.N,I2C_SCL*%
X63700000Y-57650000D03*
%TO.N,I2C_SDA*%
X64700000Y-57650000D03*
%TO.N,UART_DEBUG_RX*%
X65600000Y-66700000D03*
X88800000Y-76900000D03*
%TO.N,UART_DEBUG_TX*%
X84800000Y-75175000D03*
X67600000Y-65700000D03*
%TO.N,UART_mp3_RX*%
X83645000Y-64600000D03*
X77720000Y-70530000D03*
%TO.N,UART_mp3_TX*%
X77100000Y-72200000D03*
%TO.N,UART_hc05_RX*%
X67350000Y-78775000D03*
%TO.N,UART_hc05_TX*%
X65700000Y-73100000D03*
%TO.N,PWM_TIM4_CH1*%
X71400000Y-79400000D03*
%TD*%
%TA.AperFunction,Conductor*%
%TO.N,GND*%
G36*
X95000641Y-40000006D02*
G01*
X95213481Y-40002328D01*
X95222915Y-40002792D01*
X95647552Y-40039943D01*
X95658270Y-40041354D01*
X96077393Y-40115256D01*
X96087921Y-40117590D01*
X96499033Y-40227747D01*
X96509322Y-40230992D01*
X96909255Y-40376555D01*
X96919221Y-40380683D01*
X97304942Y-40560547D01*
X97314528Y-40565538D01*
X97683088Y-40778326D01*
X97692207Y-40784135D01*
X98040820Y-41028237D01*
X98049402Y-41034822D01*
X98375420Y-41308383D01*
X98383395Y-41315692D01*
X98684307Y-41616604D01*
X98691616Y-41624579D01*
X98965177Y-41950597D01*
X98971762Y-41959179D01*
X99215864Y-42307792D01*
X99221676Y-42316916D01*
X99434459Y-42685467D01*
X99439454Y-42695062D01*
X99619310Y-43080764D01*
X99623450Y-43090759D01*
X99769003Y-43490664D01*
X99772256Y-43500980D01*
X99882405Y-43912061D01*
X99884746Y-43922623D01*
X99958644Y-44341725D01*
X99960056Y-44352450D01*
X99997206Y-44777073D01*
X99997671Y-44786527D01*
X99999993Y-44999357D01*
X100000000Y-45000710D01*
X100000000Y-94999289D01*
X99999993Y-95000642D01*
X99997671Y-95213472D01*
X99997206Y-95222926D01*
X99960056Y-95647549D01*
X99958644Y-95658274D01*
X99884746Y-96077376D01*
X99882405Y-96087938D01*
X99772256Y-96499019D01*
X99769003Y-96509335D01*
X99623450Y-96909240D01*
X99619310Y-96919235D01*
X99439454Y-97304937D01*
X99434459Y-97314532D01*
X99221676Y-97683083D01*
X99215864Y-97692207D01*
X98971762Y-98040820D01*
X98965177Y-98049402D01*
X98691616Y-98375420D01*
X98684307Y-98383395D01*
X98383395Y-98684307D01*
X98375420Y-98691616D01*
X98049402Y-98965177D01*
X98040820Y-98971762D01*
X97692207Y-99215864D01*
X97683083Y-99221676D01*
X97314532Y-99434459D01*
X97304937Y-99439454D01*
X96919235Y-99619310D01*
X96909240Y-99623450D01*
X96509335Y-99769003D01*
X96499019Y-99772256D01*
X96087938Y-99882405D01*
X96077376Y-99884746D01*
X95658274Y-99958644D01*
X95647549Y-99960056D01*
X95222926Y-99997206D01*
X95213472Y-99997671D01*
X95005455Y-99999940D01*
X95000640Y-99999993D01*
X94999290Y-100000000D01*
X45000710Y-100000000D01*
X44999359Y-99999993D01*
X44994454Y-99999939D01*
X44786527Y-99997671D01*
X44777073Y-99997206D01*
X44352450Y-99960056D01*
X44341725Y-99958644D01*
X43922623Y-99884746D01*
X43912061Y-99882405D01*
X43500980Y-99772256D01*
X43490664Y-99769003D01*
X43090759Y-99623450D01*
X43080764Y-99619310D01*
X42695062Y-99439454D01*
X42685467Y-99434459D01*
X42316916Y-99221676D01*
X42307792Y-99215864D01*
X41959179Y-98971762D01*
X41950597Y-98965177D01*
X41624579Y-98691616D01*
X41616604Y-98684307D01*
X41315692Y-98383395D01*
X41308383Y-98375420D01*
X41034822Y-98049402D01*
X41028237Y-98040820D01*
X40997887Y-97997476D01*
X40784132Y-97692203D01*
X40778323Y-97683083D01*
X40635294Y-97435350D01*
X40565538Y-97314528D01*
X40560545Y-97304937D01*
X40501252Y-97177783D01*
X40380683Y-96919221D01*
X40376555Y-96909255D01*
X40230992Y-96509322D01*
X40227747Y-96499033D01*
X40117590Y-96087921D01*
X40115256Y-96077393D01*
X40041354Y-95658270D01*
X40039943Y-95647549D01*
X40037241Y-95616660D01*
X40002792Y-95222915D01*
X40002328Y-95213471D01*
X40000007Y-95000641D01*
X40000004Y-95000000D01*
X41294922Y-95000000D01*
X41315219Y-95387287D01*
X41375886Y-95770323D01*
X41375887Y-95770330D01*
X41476262Y-96144936D01*
X41615244Y-96506994D01*
X41791310Y-96852543D01*
X42002531Y-97177793D01*
X42211095Y-97435350D01*
X42211096Y-97435350D01*
X43705748Y-95940698D01*
X43779588Y-96042330D01*
X43957670Y-96220412D01*
X44059300Y-96294251D01*
X42564648Y-97788903D01*
X42564649Y-97788904D01*
X42822206Y-97997468D01*
X43147456Y-98208689D01*
X43493005Y-98384755D01*
X43855063Y-98523737D01*
X44229669Y-98624112D01*
X44229676Y-98624113D01*
X44612712Y-98684780D01*
X44999999Y-98705078D01*
X45000001Y-98705078D01*
X45387287Y-98684780D01*
X45770323Y-98624113D01*
X45770330Y-98624112D01*
X46144936Y-98523737D01*
X46506994Y-98384755D01*
X46852543Y-98208689D01*
X47177783Y-97997476D01*
X47177785Y-97997475D01*
X47435349Y-97788902D01*
X45940698Y-96294251D01*
X46042330Y-96220412D01*
X46220412Y-96042330D01*
X46294251Y-95940698D01*
X47788902Y-97435349D01*
X47997475Y-97177785D01*
X47997476Y-97177783D01*
X48208689Y-96852543D01*
X48384755Y-96506994D01*
X48523737Y-96144936D01*
X48624112Y-95770330D01*
X48624113Y-95770323D01*
X48684780Y-95387287D01*
X48705078Y-95000000D01*
X48705078Y-94999999D01*
X48684780Y-94612712D01*
X48624113Y-94229676D01*
X48624112Y-94229669D01*
X48523737Y-93855063D01*
X48384755Y-93493005D01*
X48311892Y-93350004D01*
X55344732Y-93350004D01*
X55363777Y-93604154D01*
X55406171Y-93789895D01*
X55420492Y-93852637D01*
X55513607Y-94089888D01*
X55641041Y-94310612D01*
X55799950Y-94509877D01*
X55986783Y-94683232D01*
X56197366Y-94826805D01*
X56197371Y-94826807D01*
X56197372Y-94826808D01*
X56197373Y-94826809D01*
X56295527Y-94874077D01*
X56426992Y-94937387D01*
X56426993Y-94937387D01*
X56426996Y-94937389D01*
X56670542Y-95012513D01*
X56922565Y-95050500D01*
X57177435Y-95050500D01*
X57429458Y-95012513D01*
X57673004Y-94937389D01*
X57902634Y-94826805D01*
X58113217Y-94683232D01*
X58300050Y-94509877D01*
X58458959Y-94310612D01*
X58586393Y-94089888D01*
X58679508Y-93852637D01*
X58736222Y-93604157D01*
X58755268Y-93350004D01*
X60044732Y-93350004D01*
X60063777Y-93604154D01*
X60106171Y-93789895D01*
X60120492Y-93852637D01*
X60213607Y-94089888D01*
X60341041Y-94310612D01*
X60499950Y-94509877D01*
X60686783Y-94683232D01*
X60897366Y-94826805D01*
X60897371Y-94826807D01*
X60897372Y-94826808D01*
X60897373Y-94826809D01*
X60995527Y-94874077D01*
X61126992Y-94937387D01*
X61126993Y-94937387D01*
X61126996Y-94937389D01*
X61370542Y-95012513D01*
X61622565Y-95050500D01*
X61877435Y-95050500D01*
X62129458Y-95012513D01*
X62373004Y-94937389D01*
X62602634Y-94826805D01*
X62813217Y-94683232D01*
X63000050Y-94509877D01*
X63158959Y-94310612D01*
X63286393Y-94089888D01*
X63379508Y-93852637D01*
X63436222Y-93604157D01*
X63455268Y-93350004D01*
X64744732Y-93350004D01*
X64763777Y-93604154D01*
X64806171Y-93789895D01*
X64820492Y-93852637D01*
X64913607Y-94089888D01*
X65041041Y-94310612D01*
X65199950Y-94509877D01*
X65386783Y-94683232D01*
X65597366Y-94826805D01*
X65597371Y-94826807D01*
X65597372Y-94826808D01*
X65597373Y-94826809D01*
X65695527Y-94874077D01*
X65826992Y-94937387D01*
X65826993Y-94937387D01*
X65826996Y-94937389D01*
X66070542Y-95012513D01*
X66322565Y-95050500D01*
X66577435Y-95050500D01*
X66829458Y-95012513D01*
X67073004Y-94937389D01*
X67302634Y-94826805D01*
X67513217Y-94683232D01*
X67700050Y-94509877D01*
X67858959Y-94310612D01*
X67986393Y-94089888D01*
X68079508Y-93852637D01*
X68136222Y-93604157D01*
X68155268Y-93350000D01*
X70119457Y-93350000D01*
X70139612Y-93708902D01*
X70139614Y-93708914D01*
X70199826Y-94063296D01*
X70199828Y-94063305D01*
X70299339Y-94408718D01*
X70299341Y-94408724D01*
X70436906Y-94740833D01*
X70484423Y-94826809D01*
X70610790Y-95055454D01*
X70730963Y-95224821D01*
X70818806Y-95348623D01*
X71058339Y-95616661D01*
X71326377Y-95856194D01*
X71619548Y-96064211D01*
X71934167Y-96238094D01*
X72266276Y-96375659D01*
X72611700Y-96475173D01*
X72966093Y-96535387D01*
X73325000Y-96555543D01*
X73683907Y-96535387D01*
X74038300Y-96475173D01*
X74383724Y-96375659D01*
X74715833Y-96238094D01*
X75030452Y-96064211D01*
X75323623Y-95856194D01*
X75591661Y-95616661D01*
X75831194Y-95348623D01*
X76039211Y-95055452D01*
X76113279Y-94921436D01*
X77025000Y-94921436D01*
X77040300Y-95135362D01*
X77101109Y-95414895D01*
X77201091Y-95682958D01*
X77338191Y-95934038D01*
X77338192Y-95934039D01*
X77509639Y-96163065D01*
X77509649Y-96163077D01*
X77711922Y-96365350D01*
X77711934Y-96365360D01*
X77940960Y-96536807D01*
X77940961Y-96536808D01*
X78192042Y-96673908D01*
X78192041Y-96673908D01*
X78460104Y-96773890D01*
X78739637Y-96834699D01*
X78953563Y-96849999D01*
X78953566Y-96850000D01*
X80275000Y-96850000D01*
X80275000Y-95586502D01*
X80377527Y-95600000D01*
X80672473Y-95600000D01*
X80775000Y-95586502D01*
X80775000Y-96850000D01*
X82096434Y-96850000D01*
X82096436Y-96849999D01*
X82310362Y-96834699D01*
X82589895Y-96773890D01*
X82857958Y-96673908D01*
X83109038Y-96536808D01*
X83109039Y-96536807D01*
X83338065Y-96365360D01*
X83338077Y-96365350D01*
X83540350Y-96163077D01*
X83540360Y-96163065D01*
X83711807Y-95934039D01*
X83711808Y-95934038D01*
X83848908Y-95682958D01*
X83948890Y-95414895D01*
X84009699Y-95135362D01*
X84019380Y-95000000D01*
X91294922Y-95000000D01*
X91315219Y-95387287D01*
X91375886Y-95770323D01*
X91375887Y-95770330D01*
X91476262Y-96144936D01*
X91615244Y-96506994D01*
X91791310Y-96852543D01*
X92002531Y-97177793D01*
X92211095Y-97435350D01*
X92211096Y-97435350D01*
X93705748Y-95940698D01*
X93779588Y-96042330D01*
X93957670Y-96220412D01*
X94059300Y-96294251D01*
X92564648Y-97788903D01*
X92564649Y-97788904D01*
X92822206Y-97997468D01*
X93147456Y-98208689D01*
X93493005Y-98384755D01*
X93855063Y-98523737D01*
X94229669Y-98624112D01*
X94229676Y-98624113D01*
X94612712Y-98684780D01*
X94999999Y-98705078D01*
X95000001Y-98705078D01*
X95387287Y-98684780D01*
X95770323Y-98624113D01*
X95770330Y-98624112D01*
X96144936Y-98523737D01*
X96506994Y-98384755D01*
X96852543Y-98208689D01*
X97177783Y-97997476D01*
X97177785Y-97997475D01*
X97435349Y-97788902D01*
X95940698Y-96294251D01*
X96042330Y-96220412D01*
X96220412Y-96042330D01*
X96294251Y-95940698D01*
X97788902Y-97435349D01*
X97997475Y-97177785D01*
X97997476Y-97177783D01*
X98208689Y-96852543D01*
X98384755Y-96506994D01*
X98523737Y-96144936D01*
X98624112Y-95770330D01*
X98624113Y-95770323D01*
X98684780Y-95387287D01*
X98705078Y-95000000D01*
X98705078Y-94999999D01*
X98684780Y-94612712D01*
X98624113Y-94229676D01*
X98624112Y-94229669D01*
X98523737Y-93855063D01*
X98384755Y-93493005D01*
X98208689Y-93147456D01*
X97997468Y-92822206D01*
X97788904Y-92564649D01*
X97788903Y-92564648D01*
X96294251Y-94059300D01*
X96220412Y-93957670D01*
X96042330Y-93779588D01*
X95940698Y-93705748D01*
X97435350Y-92211096D01*
X97435350Y-92211095D01*
X97177793Y-92002531D01*
X96852543Y-91791310D01*
X96506994Y-91615244D01*
X96144936Y-91476262D01*
X95770330Y-91375887D01*
X95770323Y-91375886D01*
X95387287Y-91315219D01*
X95000001Y-91294922D01*
X94999999Y-91294922D01*
X94612712Y-91315219D01*
X94229676Y-91375886D01*
X94229669Y-91375887D01*
X93855063Y-91476262D01*
X93493005Y-91615244D01*
X93147456Y-91791310D01*
X92822206Y-92002531D01*
X92564648Y-92211095D01*
X92564648Y-92211096D01*
X94059301Y-93705748D01*
X93957670Y-93779588D01*
X93779588Y-93957670D01*
X93705748Y-94059300D01*
X92211096Y-92564648D01*
X92211095Y-92564648D01*
X92002531Y-92822206D01*
X91791310Y-93147456D01*
X91615244Y-93493005D01*
X91476262Y-93855063D01*
X91375887Y-94229669D01*
X91375886Y-94229676D01*
X91315219Y-94612712D01*
X91294922Y-94999999D01*
X91294922Y-95000000D01*
X84019380Y-95000000D01*
X84024999Y-94921436D01*
X84025000Y-94921434D01*
X84025000Y-93600000D01*
X82761502Y-93600000D01*
X82775000Y-93497473D01*
X82775000Y-93202527D01*
X82761502Y-93100000D01*
X84025000Y-93100000D01*
X84025000Y-91778566D01*
X84024999Y-91778563D01*
X84009699Y-91564637D01*
X83948890Y-91285104D01*
X83848908Y-91017041D01*
X83711808Y-90765961D01*
X83711807Y-90765960D01*
X83540360Y-90536934D01*
X83540350Y-90536922D01*
X83338077Y-90334649D01*
X83338065Y-90334639D01*
X83109039Y-90163192D01*
X83109038Y-90163191D01*
X82857957Y-90026091D01*
X82857958Y-90026091D01*
X82589895Y-89926109D01*
X82310362Y-89865300D01*
X82096436Y-89850000D01*
X80775000Y-89850000D01*
X80775000Y-91113497D01*
X80672473Y-91100000D01*
X80377527Y-91100000D01*
X80275000Y-91113497D01*
X80275000Y-89850000D01*
X78953563Y-89850000D01*
X78739637Y-89865300D01*
X78460104Y-89926109D01*
X78192041Y-90026091D01*
X77940961Y-90163191D01*
X77940960Y-90163192D01*
X77711934Y-90334639D01*
X77711922Y-90334649D01*
X77509649Y-90536922D01*
X77509639Y-90536934D01*
X77338192Y-90765960D01*
X77338191Y-90765961D01*
X77201091Y-91017041D01*
X77101109Y-91285104D01*
X77040300Y-91564637D01*
X77025000Y-91778563D01*
X77025000Y-93100000D01*
X78288498Y-93100000D01*
X78275000Y-93202527D01*
X78275000Y-93497473D01*
X78288498Y-93600000D01*
X77025000Y-93600000D01*
X77025000Y-94921436D01*
X76113279Y-94921436D01*
X76213094Y-94740833D01*
X76350659Y-94408724D01*
X76450173Y-94063300D01*
X76510387Y-93708907D01*
X76530543Y-93350000D01*
X76510387Y-92991093D01*
X76450173Y-92636700D01*
X76350659Y-92291276D01*
X76213094Y-91959167D01*
X76039211Y-91644548D01*
X75831194Y-91351377D01*
X75591661Y-91083339D01*
X75323623Y-90843806D01*
X75323622Y-90843805D01*
X75030454Y-90635790D01*
X74715831Y-90461905D01*
X74629086Y-90425974D01*
X74383724Y-90324341D01*
X74383720Y-90324339D01*
X74383718Y-90324339D01*
X74038305Y-90224828D01*
X74038296Y-90224826D01*
X73683914Y-90164614D01*
X73683902Y-90164612D01*
X73325000Y-90144457D01*
X72966097Y-90164612D01*
X72966085Y-90164614D01*
X72611703Y-90224826D01*
X72611694Y-90224828D01*
X72266281Y-90324339D01*
X72266276Y-90324340D01*
X72266276Y-90324341D01*
X72230341Y-90339225D01*
X71934168Y-90461905D01*
X71619545Y-90635790D01*
X71326377Y-90843805D01*
X71058339Y-91083339D01*
X70818805Y-91351377D01*
X70610790Y-91644545D01*
X70436905Y-91959168D01*
X70299339Y-92291281D01*
X70199828Y-92636694D01*
X70199826Y-92636703D01*
X70139614Y-92991085D01*
X70139612Y-92991097D01*
X70119457Y-93350000D01*
X68155268Y-93350000D01*
X68136222Y-93095843D01*
X68079508Y-92847363D01*
X67986393Y-92610112D01*
X67858959Y-92389388D01*
X67700050Y-92190123D01*
X67513217Y-92016768D01*
X67302634Y-91873195D01*
X67302630Y-91873193D01*
X67302627Y-91873191D01*
X67302626Y-91873190D01*
X67073006Y-91762612D01*
X67073008Y-91762612D01*
X66829466Y-91687489D01*
X66829462Y-91687488D01*
X66829458Y-91687487D01*
X66708231Y-91669214D01*
X66577440Y-91649500D01*
X66577435Y-91649500D01*
X66322565Y-91649500D01*
X66322559Y-91649500D01*
X66165609Y-91673157D01*
X66070542Y-91687487D01*
X66070539Y-91687488D01*
X66070533Y-91687489D01*
X65826992Y-91762612D01*
X65597373Y-91873190D01*
X65597372Y-91873191D01*
X65386782Y-92016768D01*
X65199952Y-92190121D01*
X65199950Y-92190123D01*
X65041041Y-92389388D01*
X64913608Y-92610109D01*
X64820492Y-92847362D01*
X64820490Y-92847369D01*
X64763777Y-93095845D01*
X64744732Y-93349995D01*
X64744732Y-93350004D01*
X63455268Y-93350004D01*
X63455268Y-93350000D01*
X63436222Y-93095843D01*
X63379508Y-92847363D01*
X63286393Y-92610112D01*
X63158959Y-92389388D01*
X63000050Y-92190123D01*
X62813217Y-92016768D01*
X62602634Y-91873195D01*
X62602630Y-91873193D01*
X62602627Y-91873191D01*
X62602626Y-91873190D01*
X62373006Y-91762612D01*
X62373008Y-91762612D01*
X62129466Y-91687489D01*
X62129462Y-91687488D01*
X62129458Y-91687487D01*
X62008231Y-91669214D01*
X61877440Y-91649500D01*
X61877435Y-91649500D01*
X61622565Y-91649500D01*
X61622559Y-91649500D01*
X61465609Y-91673157D01*
X61370542Y-91687487D01*
X61370539Y-91687488D01*
X61370533Y-91687489D01*
X61126992Y-91762612D01*
X60897373Y-91873190D01*
X60897372Y-91873191D01*
X60686782Y-92016768D01*
X60499952Y-92190121D01*
X60499950Y-92190123D01*
X60341041Y-92389388D01*
X60213608Y-92610109D01*
X60120492Y-92847362D01*
X60120490Y-92847369D01*
X60063777Y-93095845D01*
X60044732Y-93349995D01*
X60044732Y-93350004D01*
X58755268Y-93350004D01*
X58755268Y-93350000D01*
X58736222Y-93095843D01*
X58679508Y-92847363D01*
X58586393Y-92610112D01*
X58458959Y-92389388D01*
X58300050Y-92190123D01*
X58113217Y-92016768D01*
X57902634Y-91873195D01*
X57902630Y-91873193D01*
X57902627Y-91873191D01*
X57902626Y-91873190D01*
X57673006Y-91762612D01*
X57673008Y-91762612D01*
X57429466Y-91687489D01*
X57429462Y-91687488D01*
X57429458Y-91687487D01*
X57308231Y-91669214D01*
X57177440Y-91649500D01*
X57177435Y-91649500D01*
X56922565Y-91649500D01*
X56922559Y-91649500D01*
X56765609Y-91673157D01*
X56670542Y-91687487D01*
X56670539Y-91687488D01*
X56670533Y-91687489D01*
X56426992Y-91762612D01*
X56197373Y-91873190D01*
X56197372Y-91873191D01*
X55986782Y-92016768D01*
X55799952Y-92190121D01*
X55799950Y-92190123D01*
X55641041Y-92389388D01*
X55513608Y-92610109D01*
X55420492Y-92847362D01*
X55420490Y-92847369D01*
X55363777Y-93095845D01*
X55344732Y-93349995D01*
X55344732Y-93350004D01*
X48311892Y-93350004D01*
X48208689Y-93147456D01*
X47997468Y-92822206D01*
X47788904Y-92564649D01*
X47788903Y-92564648D01*
X46294251Y-94059300D01*
X46220412Y-93957670D01*
X46042330Y-93779588D01*
X45940698Y-93705748D01*
X47435350Y-92211096D01*
X47435350Y-92211095D01*
X47177793Y-92002531D01*
X46852543Y-91791310D01*
X46506994Y-91615244D01*
X46144936Y-91476262D01*
X45770330Y-91375887D01*
X45770323Y-91375886D01*
X45387287Y-91315219D01*
X45000001Y-91294922D01*
X44999999Y-91294922D01*
X44612712Y-91315219D01*
X44229676Y-91375886D01*
X44229669Y-91375887D01*
X43855063Y-91476262D01*
X43493005Y-91615244D01*
X43147456Y-91791310D01*
X42822206Y-92002531D01*
X42564648Y-92211095D01*
X42564648Y-92211096D01*
X44059301Y-93705748D01*
X43957670Y-93779588D01*
X43779588Y-93957670D01*
X43705748Y-94059300D01*
X42211096Y-92564648D01*
X42211095Y-92564648D01*
X42002531Y-92822206D01*
X41791310Y-93147456D01*
X41615244Y-93493005D01*
X41476262Y-93855063D01*
X41375887Y-94229669D01*
X41375886Y-94229676D01*
X41315219Y-94612712D01*
X41294922Y-94999999D01*
X41294922Y-95000000D01*
X40000004Y-95000000D01*
X40000000Y-94999289D01*
X40000000Y-87600000D01*
X58204659Y-87600000D01*
X58223975Y-87796129D01*
X58223976Y-87796132D01*
X58271729Y-87953553D01*
X58281188Y-87984733D01*
X58374086Y-88158532D01*
X58374090Y-88158539D01*
X58499116Y-88310883D01*
X58651460Y-88435909D01*
X58651467Y-88435913D01*
X58825266Y-88528811D01*
X58825269Y-88528811D01*
X58825273Y-88528814D01*
X59013868Y-88586024D01*
X59210000Y-88605341D01*
X59406132Y-88586024D01*
X59594727Y-88528814D01*
X59768538Y-88435910D01*
X59920883Y-88310883D01*
X60045910Y-88158538D01*
X60105893Y-88046317D01*
X60138811Y-87984733D01*
X60138811Y-87984732D01*
X60138814Y-87984727D01*
X60196024Y-87796132D01*
X60206274Y-87692054D01*
X60232434Y-87627268D01*
X60270299Y-87600474D01*
X60387967Y-87600474D01*
X60419674Y-87618906D01*
X60451505Y-87681103D01*
X60453205Y-87693401D01*
X60464858Y-87826600D01*
X60464860Y-87826610D01*
X60523730Y-88046317D01*
X60523735Y-88046331D01*
X60619863Y-88252478D01*
X60670974Y-88325472D01*
X61267037Y-87729409D01*
X61284075Y-87792993D01*
X61349901Y-87907007D01*
X61442993Y-88000099D01*
X61557007Y-88065925D01*
X61620590Y-88082962D01*
X61024526Y-88679025D01*
X61097513Y-88730132D01*
X61097521Y-88730136D01*
X61303668Y-88826264D01*
X61303682Y-88826269D01*
X61523389Y-88885139D01*
X61523400Y-88885141D01*
X61749998Y-88904966D01*
X61750002Y-88904966D01*
X61976599Y-88885141D01*
X61976610Y-88885139D01*
X62196317Y-88826269D01*
X62196331Y-88826264D01*
X62402478Y-88730136D01*
X62475471Y-88679024D01*
X61879409Y-88082962D01*
X61942993Y-88065925D01*
X62057007Y-88000099D01*
X62150099Y-87907007D01*
X62215925Y-87792993D01*
X62232962Y-87729409D01*
X62829024Y-88325471D01*
X62880136Y-88252478D01*
X62976264Y-88046331D01*
X62976269Y-88046317D01*
X63035139Y-87826610D01*
X63035141Y-87826599D01*
X63046794Y-87693402D01*
X63072246Y-87628333D01*
X63110818Y-87600402D01*
X63228459Y-87600402D01*
X63259383Y-87617930D01*
X63291891Y-87679776D01*
X63293725Y-87692055D01*
X63303975Y-87796129D01*
X63303976Y-87796132D01*
X63351729Y-87953553D01*
X63361188Y-87984733D01*
X63454086Y-88158532D01*
X63454090Y-88158539D01*
X63579116Y-88310883D01*
X63731460Y-88435909D01*
X63731467Y-88435913D01*
X63905266Y-88528811D01*
X63905269Y-88528811D01*
X63905273Y-88528814D01*
X64093868Y-88586024D01*
X64290000Y-88605341D01*
X64486132Y-88586024D01*
X64674727Y-88528814D01*
X64848538Y-88435910D01*
X65000883Y-88310883D01*
X65075468Y-88220002D01*
X79309196Y-88220002D01*
X79330279Y-88353121D01*
X79330280Y-88353124D01*
X79330281Y-88353126D01*
X79391472Y-88473220D01*
X79391473Y-88473221D01*
X79391476Y-88473225D01*
X79486774Y-88568523D01*
X79486778Y-88568526D01*
X79486780Y-88568528D01*
X79606874Y-88629719D01*
X79606876Y-88629719D01*
X79606878Y-88629720D01*
X79739998Y-88650804D01*
X79740000Y-88650804D01*
X79740002Y-88650804D01*
X79873121Y-88629720D01*
X79873121Y-88629719D01*
X79873126Y-88629719D01*
X79993220Y-88568528D01*
X80088528Y-88473220D01*
X80149719Y-88353126D01*
X80170804Y-88220000D01*
X80161069Y-88158538D01*
X80149720Y-88086878D01*
X80149719Y-88086876D01*
X80149719Y-88086874D01*
X80088528Y-87966780D01*
X80088526Y-87966778D01*
X80088523Y-87966774D01*
X79993225Y-87871476D01*
X79993221Y-87871473D01*
X79993220Y-87871472D01*
X79873126Y-87810281D01*
X79873124Y-87810280D01*
X79873121Y-87810279D01*
X79740002Y-87789196D01*
X79739998Y-87789196D01*
X79606878Y-87810279D01*
X79486778Y-87871473D01*
X79486774Y-87871476D01*
X79391476Y-87966774D01*
X79391473Y-87966778D01*
X79330279Y-88086878D01*
X79309196Y-88219997D01*
X79309196Y-88220002D01*
X65075468Y-88220002D01*
X65125910Y-88158538D01*
X65185893Y-88046317D01*
X65218811Y-87984733D01*
X65218811Y-87984732D01*
X65218814Y-87984727D01*
X65276024Y-87796132D01*
X65295341Y-87600000D01*
X65276024Y-87403868D01*
X65218814Y-87215273D01*
X65218811Y-87215269D01*
X65218811Y-87215266D01*
X65125913Y-87041467D01*
X65125909Y-87041460D01*
X65000883Y-86889116D01*
X64892298Y-86800002D01*
X82169196Y-86800002D01*
X82190279Y-86933121D01*
X82190280Y-86933124D01*
X82190281Y-86933126D01*
X82197616Y-86947521D01*
X82251473Y-87053221D01*
X82251476Y-87053225D01*
X82346774Y-87148523D01*
X82346778Y-87148526D01*
X82346780Y-87148528D01*
X82466874Y-87209719D01*
X82466876Y-87209719D01*
X82466878Y-87209720D01*
X82599998Y-87230804D01*
X82600000Y-87230804D01*
X82600002Y-87230804D01*
X82733121Y-87209720D01*
X82733121Y-87209719D01*
X82733126Y-87209719D01*
X82853220Y-87148528D01*
X82948528Y-87053220D01*
X83009719Y-86933126D01*
X83009720Y-86933121D01*
X83030804Y-86800002D01*
X83030804Y-86799997D01*
X83009720Y-86666878D01*
X83009719Y-86666876D01*
X83009719Y-86666874D01*
X82948528Y-86546780D01*
X82948526Y-86546778D01*
X82948523Y-86546774D01*
X82853225Y-86451476D01*
X82853221Y-86451473D01*
X82853220Y-86451472D01*
X82733126Y-86390281D01*
X82733124Y-86390280D01*
X82733121Y-86390279D01*
X82600002Y-86369196D01*
X82599998Y-86369196D01*
X82466878Y-86390279D01*
X82346778Y-86451473D01*
X82346774Y-86451476D01*
X82251476Y-86546774D01*
X82251473Y-86546778D01*
X82190279Y-86666878D01*
X82169196Y-86799997D01*
X82169196Y-86800002D01*
X64892298Y-86800002D01*
X64848539Y-86764090D01*
X64848532Y-86764086D01*
X64674733Y-86671188D01*
X64674727Y-86671186D01*
X64486132Y-86613976D01*
X64486129Y-86613975D01*
X64290000Y-86594659D01*
X64093870Y-86613975D01*
X63905266Y-86671188D01*
X63731467Y-86764086D01*
X63731460Y-86764090D01*
X63579116Y-86889116D01*
X63454090Y-87041460D01*
X63454086Y-87041467D01*
X63361188Y-87215266D01*
X63303975Y-87403870D01*
X63293725Y-87507945D01*
X63267564Y-87572732D01*
X63228459Y-87600402D01*
X63110818Y-87600402D01*
X63112031Y-87599524D01*
X63080325Y-87581092D01*
X63048493Y-87518894D01*
X63046794Y-87506597D01*
X63035141Y-87373400D01*
X63035139Y-87373389D01*
X62976269Y-87153682D01*
X62976264Y-87153668D01*
X62880136Y-86947521D01*
X62880132Y-86947513D01*
X62829025Y-86874526D01*
X62232962Y-87470589D01*
X62215925Y-87407007D01*
X62150099Y-87292993D01*
X62057007Y-87199901D01*
X61942993Y-87134075D01*
X61879410Y-87117037D01*
X62475472Y-86520974D01*
X62402478Y-86469863D01*
X62196331Y-86373735D01*
X62196317Y-86373730D01*
X61976610Y-86314860D01*
X61976599Y-86314858D01*
X61750002Y-86295034D01*
X61749998Y-86295034D01*
X61523400Y-86314858D01*
X61523389Y-86314860D01*
X61303682Y-86373730D01*
X61303673Y-86373734D01*
X61097516Y-86469866D01*
X61097512Y-86469868D01*
X61024526Y-86520973D01*
X61024526Y-86520974D01*
X61620590Y-87117037D01*
X61557007Y-87134075D01*
X61442993Y-87199901D01*
X61349901Y-87292993D01*
X61284075Y-87407007D01*
X61267037Y-87470589D01*
X60670974Y-86874526D01*
X60670973Y-86874526D01*
X60619868Y-86947512D01*
X60619866Y-86947516D01*
X60523734Y-87153673D01*
X60523730Y-87153682D01*
X60464860Y-87373389D01*
X60464858Y-87373399D01*
X60453205Y-87506598D01*
X60427752Y-87571666D01*
X60387967Y-87600474D01*
X60270299Y-87600474D01*
X60271538Y-87599597D01*
X60240615Y-87582069D01*
X60208108Y-87520222D01*
X60206274Y-87507949D01*
X60196024Y-87403868D01*
X60138814Y-87215273D01*
X60138811Y-87215269D01*
X60138811Y-87215266D01*
X60045913Y-87041467D01*
X60045909Y-87041460D01*
X59920883Y-86889116D01*
X59768539Y-86764090D01*
X59768532Y-86764086D01*
X59594733Y-86671188D01*
X59594727Y-86671186D01*
X59406132Y-86613976D01*
X59406129Y-86613975D01*
X59210000Y-86594659D01*
X59013870Y-86613975D01*
X58825266Y-86671188D01*
X58651467Y-86764086D01*
X58651460Y-86764090D01*
X58499116Y-86889116D01*
X58374090Y-87041460D01*
X58374086Y-87041467D01*
X58281188Y-87215266D01*
X58223975Y-87403870D01*
X58204659Y-87600000D01*
X40000000Y-87600000D01*
X40000000Y-82350000D01*
X42647769Y-82350000D01*
X42658242Y-82416126D01*
X42658242Y-82416129D01*
X42723904Y-82618217D01*
X42820379Y-82807557D01*
X42945272Y-82979459D01*
X42945276Y-82979464D01*
X43095535Y-83129723D01*
X43095540Y-83129727D01*
X43267442Y-83254620D01*
X43385971Y-83315015D01*
X43436767Y-83362990D01*
X43453562Y-83430811D01*
X43431024Y-83496946D01*
X43376309Y-83540397D01*
X43329676Y-83549500D01*
X43320730Y-83549500D01*
X43290300Y-83552353D01*
X43290298Y-83552353D01*
X43162119Y-83597206D01*
X43162117Y-83597207D01*
X43052850Y-83677850D01*
X42972207Y-83787117D01*
X42972206Y-83787119D01*
X42927353Y-83915298D01*
X42927353Y-83915300D01*
X42924500Y-83945730D01*
X42924500Y-85254269D01*
X42927353Y-85284699D01*
X42927353Y-85284701D01*
X42972206Y-85412880D01*
X42972207Y-85412882D01*
X43052850Y-85522150D01*
X43162118Y-85602793D01*
X43204845Y-85617744D01*
X43290299Y-85647646D01*
X43320730Y-85650500D01*
X43320734Y-85650500D01*
X44879270Y-85650500D01*
X44909699Y-85647646D01*
X44909701Y-85647646D01*
X44973790Y-85625219D01*
X45037882Y-85602793D01*
X45147150Y-85522150D01*
X45227793Y-85412882D01*
X45250219Y-85348790D01*
X45272646Y-85284701D01*
X45272646Y-85284699D01*
X45275500Y-85254269D01*
X45275500Y-83945730D01*
X45272646Y-83915300D01*
X45272646Y-83915298D01*
X45249797Y-83850002D01*
X89819196Y-83850002D01*
X89840279Y-83983121D01*
X89840280Y-83983124D01*
X89840281Y-83983126D01*
X89901472Y-84103220D01*
X89901473Y-84103221D01*
X89901476Y-84103225D01*
X89996774Y-84198523D01*
X89996778Y-84198526D01*
X89996780Y-84198528D01*
X90116874Y-84259719D01*
X90116876Y-84259719D01*
X90116878Y-84259720D01*
X90249998Y-84280804D01*
X90250000Y-84280804D01*
X90250002Y-84280804D01*
X90383121Y-84259720D01*
X90383121Y-84259719D01*
X90383126Y-84259719D01*
X90503220Y-84198528D01*
X90598528Y-84103220D01*
X90659719Y-83983126D01*
X90659720Y-83983121D01*
X90680804Y-83850002D01*
X90680804Y-83849997D01*
X90659720Y-83716878D01*
X90659719Y-83716876D01*
X90659719Y-83716874D01*
X90598528Y-83596780D01*
X90598526Y-83596778D01*
X90598523Y-83596774D01*
X90503225Y-83501476D01*
X90503221Y-83501473D01*
X90503220Y-83501472D01*
X90383126Y-83440281D01*
X90383124Y-83440280D01*
X90383121Y-83440279D01*
X90250002Y-83419196D01*
X90249998Y-83419196D01*
X90116878Y-83440279D01*
X89996778Y-83501473D01*
X89996774Y-83501476D01*
X89901476Y-83596774D01*
X89901473Y-83596778D01*
X89840279Y-83716878D01*
X89819196Y-83849997D01*
X89819196Y-83850002D01*
X45249797Y-83850002D01*
X45227793Y-83787119D01*
X45227792Y-83787117D01*
X45214906Y-83769657D01*
X45147150Y-83677850D01*
X45037882Y-83597207D01*
X45037880Y-83597206D01*
X44909700Y-83552353D01*
X44879270Y-83549500D01*
X44879266Y-83549500D01*
X44870324Y-83549500D01*
X44803285Y-83529815D01*
X44757530Y-83477011D01*
X44747586Y-83407853D01*
X44776611Y-83344297D01*
X44814029Y-83315015D01*
X44932557Y-83254620D01*
X45002961Y-83203469D01*
X94724500Y-83203469D01*
X94764868Y-83406412D01*
X94764870Y-83406420D01*
X94844058Y-83597596D01*
X94959024Y-83769657D01*
X95105342Y-83915975D01*
X95105345Y-83915977D01*
X95277402Y-84030941D01*
X95468580Y-84110130D01*
X95671530Y-84150499D01*
X95671534Y-84150500D01*
X95671535Y-84150500D01*
X96128466Y-84150500D01*
X96128467Y-84150499D01*
X96331420Y-84110130D01*
X96522598Y-84030941D01*
X96694655Y-83915977D01*
X96840977Y-83769655D01*
X96955941Y-83597598D01*
X97035130Y-83406420D01*
X97075500Y-83203465D01*
X97075500Y-82996535D01*
X97035130Y-82793580D01*
X96955941Y-82602402D01*
X96840977Y-82430345D01*
X96840975Y-82430342D01*
X96694657Y-82284024D01*
X96608626Y-82226541D01*
X96522598Y-82169059D01*
X96379339Y-82109719D01*
X96331420Y-82089870D01*
X96331412Y-82089868D01*
X96128469Y-82049500D01*
X96128465Y-82049500D01*
X95671535Y-82049500D01*
X95671530Y-82049500D01*
X95468587Y-82089868D01*
X95468579Y-82089870D01*
X95277403Y-82169058D01*
X95105342Y-82284024D01*
X94959024Y-82430342D01*
X94844058Y-82602403D01*
X94764870Y-82793579D01*
X94764868Y-82793587D01*
X94724500Y-82996530D01*
X94724500Y-83203469D01*
X45002961Y-83203469D01*
X45104459Y-83129727D01*
X45104464Y-83129723D01*
X45254723Y-82979464D01*
X45254727Y-82979459D01*
X45379620Y-82807557D01*
X45476095Y-82618217D01*
X45541757Y-82416129D01*
X45541757Y-82416126D01*
X45552231Y-82350000D01*
X44504146Y-82350000D01*
X44542630Y-82283343D01*
X44575000Y-82162535D01*
X44575000Y-82037465D01*
X44542630Y-81916657D01*
X44504146Y-81850000D01*
X45552231Y-81850000D01*
X45541757Y-81783873D01*
X45541757Y-81783870D01*
X45514507Y-81700002D01*
X71469196Y-81700002D01*
X71490279Y-81833121D01*
X71490280Y-81833124D01*
X71490281Y-81833126D01*
X71551472Y-81953220D01*
X71551473Y-81953221D01*
X71551476Y-81953225D01*
X71646774Y-82048523D01*
X71646778Y-82048526D01*
X71646780Y-82048528D01*
X71766874Y-82109719D01*
X71766876Y-82109719D01*
X71766878Y-82109720D01*
X71899998Y-82130804D01*
X71900000Y-82130804D01*
X71900002Y-82130804D01*
X72033121Y-82109720D01*
X72033121Y-82109719D01*
X72033126Y-82109719D01*
X72153220Y-82048528D01*
X72248528Y-81953220D01*
X72309719Y-81833126D01*
X72317520Y-81783873D01*
X72330804Y-81700002D01*
X77069196Y-81700002D01*
X77090279Y-81833121D01*
X77090280Y-81833124D01*
X77090281Y-81833126D01*
X77151472Y-81953220D01*
X77151473Y-81953221D01*
X77151476Y-81953225D01*
X77246774Y-82048523D01*
X77246778Y-82048526D01*
X77246780Y-82048528D01*
X77366874Y-82109719D01*
X77366876Y-82109719D01*
X77366878Y-82109720D01*
X77499998Y-82130804D01*
X77500000Y-82130804D01*
X77500002Y-82130804D01*
X77633121Y-82109720D01*
X77633121Y-82109719D01*
X77633126Y-82109719D01*
X77753220Y-82048528D01*
X77848528Y-81953220D01*
X77909719Y-81833126D01*
X77917520Y-81783873D01*
X77930804Y-81700002D01*
X77930804Y-81699997D01*
X77909720Y-81566878D01*
X77909719Y-81566876D01*
X77909719Y-81566874D01*
X77848528Y-81446780D01*
X77848526Y-81446778D01*
X77848523Y-81446774D01*
X77753225Y-81351476D01*
X77753221Y-81351473D01*
X77753220Y-81351472D01*
X77633126Y-81290281D01*
X77633124Y-81290280D01*
X77633121Y-81290279D01*
X77500002Y-81269196D01*
X77499998Y-81269196D01*
X77366878Y-81290279D01*
X77246778Y-81351473D01*
X77246774Y-81351476D01*
X77151476Y-81446774D01*
X77151473Y-81446778D01*
X77090279Y-81566878D01*
X77069196Y-81699997D01*
X77069196Y-81700002D01*
X72330804Y-81700002D01*
X72330804Y-81699997D01*
X72309720Y-81566878D01*
X72309719Y-81566876D01*
X72309719Y-81566874D01*
X72248528Y-81446780D01*
X72248526Y-81446778D01*
X72248523Y-81446774D01*
X72153225Y-81351476D01*
X72153221Y-81351473D01*
X72153220Y-81351472D01*
X72033126Y-81290281D01*
X72033124Y-81290280D01*
X72033121Y-81290279D01*
X71900002Y-81269196D01*
X71899998Y-81269196D01*
X71766878Y-81290279D01*
X71646778Y-81351473D01*
X71646774Y-81351476D01*
X71551476Y-81446774D01*
X71551473Y-81446778D01*
X71490279Y-81566878D01*
X71469196Y-81699997D01*
X71469196Y-81700002D01*
X45514507Y-81700002D01*
X45476095Y-81581782D01*
X45379620Y-81392442D01*
X45254727Y-81220540D01*
X45254723Y-81220535D01*
X45104464Y-81070276D01*
X45104459Y-81070272D01*
X44932557Y-80945379D01*
X44743216Y-80848904D01*
X44621144Y-80809240D01*
X44563468Y-80769802D01*
X44536270Y-80705444D01*
X44548185Y-80636597D01*
X44595429Y-80585122D01*
X44612006Y-80576749D01*
X44722598Y-80530941D01*
X44768902Y-80500002D01*
X74969196Y-80500002D01*
X74990279Y-80633121D01*
X74990280Y-80633124D01*
X74990281Y-80633126D01*
X75026123Y-80703469D01*
X75051473Y-80753221D01*
X75051476Y-80753225D01*
X75146774Y-80848523D01*
X75146778Y-80848526D01*
X75146780Y-80848528D01*
X75266874Y-80909719D01*
X75266876Y-80909719D01*
X75266878Y-80909720D01*
X75399998Y-80930804D01*
X75400000Y-80930804D01*
X75400002Y-80930804D01*
X75533121Y-80909720D01*
X75533121Y-80909719D01*
X75533126Y-80909719D01*
X75653220Y-80848528D01*
X75748528Y-80753220D01*
X75773877Y-80703469D01*
X94724500Y-80703469D01*
X94764868Y-80906412D01*
X94764870Y-80906420D01*
X94844058Y-81097596D01*
X94959024Y-81269657D01*
X95105342Y-81415975D01*
X95105345Y-81415977D01*
X95277402Y-81530941D01*
X95468580Y-81610130D01*
X95671530Y-81650499D01*
X95671534Y-81650500D01*
X95671535Y-81650500D01*
X96128466Y-81650500D01*
X96128467Y-81650499D01*
X96331420Y-81610130D01*
X96522598Y-81530941D01*
X96694655Y-81415977D01*
X96840977Y-81269655D01*
X96955941Y-81097598D01*
X97035130Y-80906420D01*
X97075500Y-80703465D01*
X97075500Y-80496535D01*
X97035130Y-80293580D01*
X96955941Y-80102402D01*
X96840977Y-79930345D01*
X96840975Y-79930342D01*
X96694657Y-79784024D01*
X96608626Y-79726541D01*
X96522598Y-79669059D01*
X96331420Y-79589870D01*
X96331412Y-79589868D01*
X96128469Y-79549500D01*
X96128465Y-79549500D01*
X95671535Y-79549500D01*
X95671530Y-79549500D01*
X95468587Y-79589868D01*
X95468579Y-79589870D01*
X95277403Y-79669058D01*
X95105342Y-79784024D01*
X94959024Y-79930342D01*
X94844058Y-80102403D01*
X94764870Y-80293579D01*
X94764868Y-80293587D01*
X94724500Y-80496530D01*
X94724500Y-80703469D01*
X75773877Y-80703469D01*
X75809719Y-80633126D01*
X75817322Y-80585122D01*
X75830804Y-80500002D01*
X75830804Y-80499997D01*
X75809720Y-80366878D01*
X75809719Y-80366876D01*
X75809719Y-80366874D01*
X75748528Y-80246780D01*
X75748526Y-80246778D01*
X75748523Y-80246774D01*
X75653225Y-80151476D01*
X75653221Y-80151473D01*
X75653220Y-80151472D01*
X75533126Y-80090281D01*
X75533124Y-80090280D01*
X75533121Y-80090279D01*
X75400002Y-80069196D01*
X75399998Y-80069196D01*
X75266878Y-80090279D01*
X75146778Y-80151473D01*
X75146774Y-80151476D01*
X75051476Y-80246774D01*
X75051473Y-80246778D01*
X74990279Y-80366878D01*
X74969196Y-80499997D01*
X74969196Y-80500002D01*
X44768902Y-80500002D01*
X44894655Y-80415977D01*
X45040977Y-80269655D01*
X45155941Y-80097598D01*
X45235130Y-79906420D01*
X45275500Y-79703465D01*
X45275500Y-79496535D01*
X45256299Y-79400002D01*
X70969196Y-79400002D01*
X70990279Y-79533121D01*
X70990280Y-79533124D01*
X70990281Y-79533126D01*
X71019193Y-79589868D01*
X71051473Y-79653221D01*
X71051476Y-79653225D01*
X71146774Y-79748523D01*
X71146778Y-79748526D01*
X71146780Y-79748528D01*
X71266874Y-79809719D01*
X71266876Y-79809719D01*
X71266878Y-79809720D01*
X71399998Y-79830804D01*
X71400000Y-79830804D01*
X71400002Y-79830804D01*
X71533121Y-79809720D01*
X71533121Y-79809719D01*
X71533126Y-79809719D01*
X71653220Y-79748528D01*
X71748528Y-79653220D01*
X71809719Y-79533126D01*
X71809720Y-79533121D01*
X71830804Y-79400002D01*
X71830804Y-79399997D01*
X71809720Y-79266878D01*
X71809719Y-79266876D01*
X71809719Y-79266874D01*
X71748528Y-79146780D01*
X71748526Y-79146778D01*
X71748523Y-79146774D01*
X71653225Y-79051476D01*
X71653221Y-79051473D01*
X71653220Y-79051472D01*
X71533126Y-78990281D01*
X71533124Y-78990280D01*
X71533121Y-78990279D01*
X71400002Y-78969196D01*
X71399998Y-78969196D01*
X71266878Y-78990279D01*
X71146778Y-79051473D01*
X71146774Y-79051476D01*
X71051476Y-79146774D01*
X71051473Y-79146778D01*
X70990279Y-79266878D01*
X70969196Y-79399997D01*
X70969196Y-79400002D01*
X45256299Y-79400002D01*
X45235130Y-79293580D01*
X45155941Y-79102402D01*
X45040977Y-78930345D01*
X45040975Y-78930342D01*
X44894657Y-78784024D01*
X44881154Y-78775002D01*
X66919196Y-78775002D01*
X66940279Y-78908121D01*
X66940280Y-78908124D01*
X66940281Y-78908126D01*
X67001472Y-79028220D01*
X67001473Y-79028221D01*
X67001476Y-79028225D01*
X67096774Y-79123523D01*
X67096778Y-79123526D01*
X67096780Y-79123528D01*
X67216874Y-79184719D01*
X67216876Y-79184719D01*
X67216878Y-79184720D01*
X67349998Y-79205804D01*
X67350000Y-79205804D01*
X67350002Y-79205804D01*
X67483121Y-79184720D01*
X67483121Y-79184719D01*
X67483126Y-79184719D01*
X67603220Y-79123528D01*
X67698528Y-79028220D01*
X67759719Y-78908126D01*
X67780804Y-78775000D01*
X67779957Y-78769655D01*
X67759720Y-78641878D01*
X67759719Y-78641876D01*
X67759719Y-78641874D01*
X67698528Y-78521780D01*
X67698526Y-78521778D01*
X67698523Y-78521774D01*
X67603225Y-78426476D01*
X67603221Y-78426473D01*
X67603220Y-78426472D01*
X67483126Y-78365281D01*
X67483124Y-78365280D01*
X67483121Y-78365279D01*
X67350002Y-78344196D01*
X67349998Y-78344196D01*
X67216878Y-78365279D01*
X67096778Y-78426473D01*
X67096774Y-78426476D01*
X67001476Y-78521774D01*
X67001473Y-78521778D01*
X66940279Y-78641878D01*
X66919196Y-78774997D01*
X66919196Y-78775002D01*
X44881154Y-78775002D01*
X44808626Y-78726541D01*
X44722598Y-78669059D01*
X44531420Y-78589870D01*
X44531412Y-78589868D01*
X44328469Y-78549500D01*
X44328465Y-78549500D01*
X43871535Y-78549500D01*
X43871530Y-78549500D01*
X43668587Y-78589868D01*
X43668579Y-78589870D01*
X43477403Y-78669058D01*
X43305342Y-78784024D01*
X43159024Y-78930342D01*
X43044058Y-79102403D01*
X42964870Y-79293579D01*
X42964868Y-79293587D01*
X42924500Y-79496530D01*
X42924500Y-79703469D01*
X42964868Y-79906412D01*
X42964870Y-79906420D01*
X43044058Y-80097596D01*
X43159024Y-80269657D01*
X43305342Y-80415975D01*
X43305345Y-80415977D01*
X43477402Y-80530941D01*
X43587990Y-80576748D01*
X43642393Y-80620589D01*
X43664458Y-80686883D01*
X43647179Y-80754582D01*
X43596042Y-80802193D01*
X43578856Y-80809240D01*
X43456781Y-80848905D01*
X43267442Y-80945379D01*
X43095540Y-81070272D01*
X43095535Y-81070276D01*
X42945276Y-81220535D01*
X42945272Y-81220540D01*
X42820379Y-81392442D01*
X42723904Y-81581782D01*
X42658242Y-81783870D01*
X42658242Y-81783873D01*
X42647769Y-81850000D01*
X43695854Y-81850000D01*
X43657370Y-81916657D01*
X43625000Y-82037465D01*
X43625000Y-82162535D01*
X43657370Y-82283343D01*
X43695854Y-82350000D01*
X42647769Y-82350000D01*
X40000000Y-82350000D01*
X40000000Y-77203469D01*
X42924500Y-77203469D01*
X42964868Y-77406412D01*
X42964870Y-77406420D01*
X43044058Y-77597596D01*
X43159024Y-77769657D01*
X43305342Y-77915975D01*
X43305345Y-77915977D01*
X43477402Y-78030941D01*
X43668580Y-78110130D01*
X43871530Y-78150499D01*
X43871534Y-78150500D01*
X43871535Y-78150500D01*
X44328466Y-78150500D01*
X44328467Y-78150499D01*
X44531420Y-78110130D01*
X44722598Y-78030941D01*
X44894655Y-77915977D01*
X45040977Y-77769655D01*
X45155941Y-77597598D01*
X45235130Y-77406420D01*
X45275500Y-77203465D01*
X45275500Y-76996535D01*
X45235130Y-76793580D01*
X45155941Y-76602402D01*
X45154337Y-76600002D01*
X53969196Y-76600002D01*
X53990279Y-76733121D01*
X53990280Y-76733124D01*
X53990281Y-76733126D01*
X54051472Y-76853220D01*
X54051473Y-76853221D01*
X54051476Y-76853225D01*
X54146774Y-76948523D01*
X54146778Y-76948526D01*
X54146780Y-76948528D01*
X54266874Y-77009719D01*
X54266876Y-77009719D01*
X54266878Y-77009720D01*
X54399998Y-77030804D01*
X54400000Y-77030804D01*
X54400002Y-77030804D01*
X54533121Y-77009720D01*
X54533121Y-77009719D01*
X54533126Y-77009719D01*
X54653220Y-76948528D01*
X54748528Y-76853220D01*
X54750168Y-76850002D01*
X73569196Y-76850002D01*
X73590279Y-76983121D01*
X73590280Y-76983124D01*
X73590281Y-76983126D01*
X73644670Y-77089870D01*
X73651473Y-77103221D01*
X73651476Y-77103225D01*
X73746774Y-77198523D01*
X73746778Y-77198526D01*
X73746780Y-77198528D01*
X73866874Y-77259719D01*
X73866876Y-77259719D01*
X73866878Y-77259720D01*
X73999998Y-77280804D01*
X74000000Y-77280804D01*
X74000002Y-77280804D01*
X74133121Y-77259720D01*
X74133121Y-77259719D01*
X74133126Y-77259719D01*
X74253220Y-77198528D01*
X74348528Y-77103220D01*
X74409719Y-76983126D01*
X74415692Y-76945416D01*
X74422885Y-76900002D01*
X88369196Y-76900002D01*
X88390279Y-77033121D01*
X88390280Y-77033124D01*
X88390281Y-77033126D01*
X88451472Y-77153220D01*
X88451473Y-77153221D01*
X88451476Y-77153225D01*
X88546774Y-77248523D01*
X88546778Y-77248526D01*
X88546780Y-77248528D01*
X88666874Y-77309719D01*
X88666876Y-77309719D01*
X88666878Y-77309720D01*
X88799998Y-77330804D01*
X88800000Y-77330804D01*
X88800002Y-77330804D01*
X88933121Y-77309720D01*
X88933121Y-77309719D01*
X88933126Y-77309719D01*
X89053220Y-77248528D01*
X89148528Y-77153220D01*
X89209719Y-77033126D01*
X89213426Y-77009720D01*
X89230804Y-76900002D01*
X89230804Y-76899997D01*
X89209720Y-76766878D01*
X89209719Y-76766876D01*
X89209719Y-76766874D01*
X89148528Y-76646780D01*
X89148526Y-76646778D01*
X89148523Y-76646774D01*
X89053225Y-76551476D01*
X89053221Y-76551473D01*
X89053220Y-76551472D01*
X88933126Y-76490281D01*
X88933124Y-76490280D01*
X88933121Y-76490279D01*
X88800002Y-76469196D01*
X88799998Y-76469196D01*
X88666878Y-76490279D01*
X88666874Y-76490280D01*
X88666874Y-76490281D01*
X88644903Y-76501476D01*
X88546778Y-76551473D01*
X88546774Y-76551476D01*
X88451476Y-76646774D01*
X88451473Y-76646778D01*
X88451472Y-76646780D01*
X88407477Y-76733126D01*
X88390279Y-76766878D01*
X88369196Y-76899997D01*
X88369196Y-76900002D01*
X74422885Y-76900002D01*
X74430804Y-76850002D01*
X74430804Y-76849997D01*
X74409720Y-76716878D01*
X74409719Y-76716876D01*
X74409719Y-76716874D01*
X74348528Y-76596780D01*
X74348526Y-76596778D01*
X74348523Y-76596774D01*
X74253225Y-76501476D01*
X74253221Y-76501473D01*
X74253220Y-76501472D01*
X74133126Y-76440281D01*
X74133124Y-76440280D01*
X74133121Y-76440279D01*
X74000002Y-76419196D01*
X73999998Y-76419196D01*
X73866878Y-76440279D01*
X73866874Y-76440280D01*
X73866874Y-76440281D01*
X73810125Y-76469196D01*
X73746778Y-76501473D01*
X73746774Y-76501476D01*
X73651476Y-76596774D01*
X73651473Y-76596778D01*
X73590279Y-76716878D01*
X73569196Y-76849997D01*
X73569196Y-76850002D01*
X54750168Y-76850002D01*
X54809719Y-76733126D01*
X54809720Y-76733121D01*
X54830804Y-76600002D01*
X54830804Y-76599997D01*
X54809720Y-76466878D01*
X54809719Y-76466876D01*
X54809719Y-76466874D01*
X54748528Y-76346780D01*
X54748526Y-76346778D01*
X54748523Y-76346774D01*
X54653225Y-76251476D01*
X54653221Y-76251473D01*
X54653220Y-76251472D01*
X54533126Y-76190281D01*
X54533124Y-76190280D01*
X54533121Y-76190279D01*
X54400002Y-76169196D01*
X54399998Y-76169196D01*
X54266878Y-76190279D01*
X54146778Y-76251473D01*
X54146774Y-76251476D01*
X54051476Y-76346774D01*
X54051473Y-76346778D01*
X53990279Y-76466878D01*
X53969196Y-76599997D01*
X53969196Y-76600002D01*
X45154337Y-76600002D01*
X45040977Y-76430345D01*
X45040975Y-76430342D01*
X44894657Y-76284024D01*
X44722803Y-76169196D01*
X44722598Y-76169059D01*
X44531420Y-76089870D01*
X44531412Y-76089868D01*
X44328469Y-76049500D01*
X44328465Y-76049500D01*
X43871535Y-76049500D01*
X43871530Y-76049500D01*
X43668587Y-76089868D01*
X43668579Y-76089870D01*
X43477403Y-76169058D01*
X43305342Y-76284024D01*
X43159024Y-76430342D01*
X43044058Y-76602403D01*
X42964870Y-76793579D01*
X42964868Y-76793587D01*
X42924500Y-76996530D01*
X42924500Y-77203469D01*
X40000000Y-77203469D01*
X40000000Y-75850000D01*
X94447769Y-75850000D01*
X94458242Y-75916126D01*
X94458242Y-75916129D01*
X94523904Y-76118217D01*
X94620379Y-76307557D01*
X94745272Y-76479459D01*
X94745276Y-76479464D01*
X94895535Y-76629723D01*
X94895540Y-76629727D01*
X95067442Y-76754620D01*
X95256782Y-76851095D01*
X95378855Y-76890759D01*
X95436530Y-76930196D01*
X95463729Y-76994555D01*
X95451815Y-77063401D01*
X95404570Y-77114877D01*
X95387990Y-77123251D01*
X95277404Y-77169057D01*
X95105342Y-77284024D01*
X94959024Y-77430342D01*
X94844058Y-77602403D01*
X94764870Y-77793579D01*
X94764868Y-77793587D01*
X94724500Y-77996530D01*
X94724500Y-78203469D01*
X94764868Y-78406412D01*
X94764870Y-78406420D01*
X94844058Y-78597596D01*
X94959024Y-78769657D01*
X95105342Y-78915975D01*
X95105345Y-78915977D01*
X95277402Y-79030941D01*
X95468580Y-79110130D01*
X95652803Y-79146774D01*
X95671530Y-79150499D01*
X95671534Y-79150500D01*
X95671535Y-79150500D01*
X96128466Y-79150500D01*
X96128467Y-79150499D01*
X96331420Y-79110130D01*
X96522598Y-79030941D01*
X96694655Y-78915977D01*
X96840977Y-78769655D01*
X96955941Y-78597598D01*
X97035130Y-78406420D01*
X97075500Y-78203465D01*
X97075500Y-77996535D01*
X97035130Y-77793580D01*
X96955941Y-77602402D01*
X96840977Y-77430345D01*
X96840975Y-77430342D01*
X96694657Y-77284024D01*
X96522596Y-77169057D01*
X96412009Y-77123251D01*
X96357606Y-77079410D01*
X96335541Y-77013116D01*
X96352820Y-76945416D01*
X96403958Y-76897806D01*
X96421144Y-76890759D01*
X96543217Y-76851095D01*
X96732557Y-76754620D01*
X96904459Y-76629727D01*
X96904464Y-76629723D01*
X97054723Y-76479464D01*
X97054727Y-76479459D01*
X97179620Y-76307557D01*
X97276095Y-76118217D01*
X97341757Y-75916129D01*
X97341757Y-75916126D01*
X97352231Y-75850000D01*
X96304146Y-75850000D01*
X96342630Y-75783343D01*
X96375000Y-75662535D01*
X96375000Y-75537465D01*
X96342630Y-75416657D01*
X96304146Y-75350000D01*
X97352231Y-75350000D01*
X97341757Y-75283873D01*
X97341757Y-75283870D01*
X97276095Y-75081782D01*
X97179620Y-74892442D01*
X97054727Y-74720540D01*
X97054723Y-74720535D01*
X96904464Y-74570276D01*
X96904459Y-74570272D01*
X96732557Y-74445379D01*
X96543216Y-74348904D01*
X96421144Y-74309240D01*
X96363468Y-74269802D01*
X96336270Y-74205444D01*
X96348185Y-74136597D01*
X96395429Y-74085122D01*
X96412006Y-74076749D01*
X96522598Y-74030941D01*
X96694655Y-73915977D01*
X96840977Y-73769655D01*
X96955941Y-73597598D01*
X97035130Y-73406420D01*
X97075500Y-73203465D01*
X97075500Y-72996535D01*
X97035130Y-72793580D01*
X96955941Y-72602402D01*
X96840977Y-72430345D01*
X96840975Y-72430342D01*
X96694657Y-72284024D01*
X96568900Y-72199997D01*
X96522598Y-72169059D01*
X96520874Y-72168345D01*
X96331420Y-72089870D01*
X96331412Y-72089868D01*
X96128469Y-72049500D01*
X96128465Y-72049500D01*
X95671535Y-72049500D01*
X95671530Y-72049500D01*
X95468587Y-72089868D01*
X95468579Y-72089870D01*
X95277403Y-72169058D01*
X95105342Y-72284024D01*
X94959024Y-72430342D01*
X94844058Y-72602403D01*
X94764870Y-72793579D01*
X94764868Y-72793587D01*
X94724500Y-72996530D01*
X94724500Y-73203469D01*
X94764868Y-73406412D01*
X94764870Y-73406420D01*
X94844058Y-73597596D01*
X94959024Y-73769657D01*
X95105342Y-73915975D01*
X95105345Y-73915977D01*
X95277402Y-74030941D01*
X95387990Y-74076748D01*
X95442393Y-74120589D01*
X95464458Y-74186883D01*
X95447179Y-74254582D01*
X95396042Y-74302193D01*
X95378856Y-74309240D01*
X95256781Y-74348905D01*
X95067442Y-74445379D01*
X94895540Y-74570272D01*
X94895535Y-74570276D01*
X94745276Y-74720535D01*
X94745272Y-74720540D01*
X94620379Y-74892442D01*
X94523904Y-75081782D01*
X94458242Y-75283870D01*
X94458242Y-75283873D01*
X94447769Y-75350000D01*
X95495854Y-75350000D01*
X95457370Y-75416657D01*
X95425000Y-75537465D01*
X95425000Y-75662535D01*
X95457370Y-75783343D01*
X95495854Y-75850000D01*
X94447769Y-75850000D01*
X40000000Y-75850000D01*
X40000000Y-75175002D01*
X84369196Y-75175002D01*
X84390279Y-75308121D01*
X84390280Y-75308124D01*
X84390281Y-75308126D01*
X84451472Y-75428220D01*
X84451473Y-75428221D01*
X84451476Y-75428225D01*
X84546774Y-75523523D01*
X84546778Y-75523526D01*
X84546780Y-75523528D01*
X84666874Y-75584719D01*
X84666876Y-75584719D01*
X84666878Y-75584720D01*
X84799998Y-75605804D01*
X84800000Y-75605804D01*
X84800002Y-75605804D01*
X84933121Y-75584720D01*
X84933121Y-75584719D01*
X84933126Y-75584719D01*
X85053220Y-75523528D01*
X85148528Y-75428220D01*
X85209719Y-75308126D01*
X85209720Y-75308121D01*
X85230804Y-75175002D01*
X85230804Y-75174997D01*
X85209720Y-75041878D01*
X85209719Y-75041876D01*
X85209719Y-75041874D01*
X85148528Y-74921780D01*
X85148526Y-74921778D01*
X85148523Y-74921774D01*
X85053225Y-74826476D01*
X85053221Y-74826473D01*
X85053220Y-74826472D01*
X84933126Y-74765281D01*
X84933124Y-74765280D01*
X84933121Y-74765279D01*
X84800002Y-74744196D01*
X84799998Y-74744196D01*
X84666878Y-74765279D01*
X84546778Y-74826473D01*
X84546774Y-74826476D01*
X84451476Y-74921774D01*
X84451473Y-74921778D01*
X84390279Y-75041878D01*
X84369196Y-75174997D01*
X84369196Y-75175002D01*
X40000000Y-75175002D01*
X40000000Y-74000002D01*
X62719196Y-74000002D01*
X62740279Y-74133121D01*
X62740280Y-74133124D01*
X62740281Y-74133126D01*
X62777129Y-74205444D01*
X62801473Y-74253221D01*
X62801476Y-74253225D01*
X62896774Y-74348523D01*
X62896778Y-74348526D01*
X62896780Y-74348528D01*
X63016874Y-74409719D01*
X63016876Y-74409719D01*
X63016878Y-74409720D01*
X63149998Y-74430804D01*
X63150000Y-74430804D01*
X63150002Y-74430804D01*
X63283121Y-74409720D01*
X63283121Y-74409719D01*
X63283126Y-74409719D01*
X63403220Y-74348528D01*
X63429245Y-74322503D01*
X68246695Y-74322503D01*
X68267778Y-74455622D01*
X68267779Y-74455625D01*
X68267780Y-74455627D01*
X68326195Y-74570272D01*
X68328972Y-74575722D01*
X68328975Y-74575726D01*
X68424273Y-74671024D01*
X68424277Y-74671027D01*
X68424279Y-74671029D01*
X68544373Y-74732220D01*
X68544375Y-74732220D01*
X68544377Y-74732221D01*
X68677497Y-74753305D01*
X68677499Y-74753305D01*
X68677501Y-74753305D01*
X68810620Y-74732221D01*
X68810620Y-74732220D01*
X68810625Y-74732220D01*
X68930719Y-74671029D01*
X69026027Y-74575721D01*
X69087218Y-74455627D01*
X69108303Y-74322501D01*
X69099956Y-74269802D01*
X69087219Y-74189379D01*
X69087218Y-74189377D01*
X69087218Y-74189375D01*
X69026027Y-74069281D01*
X69026025Y-74069279D01*
X69026022Y-74069275D01*
X68930724Y-73973977D01*
X68930720Y-73973974D01*
X68930719Y-73973973D01*
X68810625Y-73912782D01*
X68810623Y-73912781D01*
X68810620Y-73912780D01*
X68677501Y-73891697D01*
X68677497Y-73891697D01*
X68544377Y-73912780D01*
X68544373Y-73912781D01*
X68544373Y-73912782D01*
X68464310Y-73953576D01*
X68424277Y-73973974D01*
X68424273Y-73973977D01*
X68328975Y-74069275D01*
X68328972Y-74069279D01*
X68267778Y-74189379D01*
X68246695Y-74322498D01*
X68246695Y-74322503D01*
X63429245Y-74322503D01*
X63498528Y-74253220D01*
X63559719Y-74133126D01*
X63567322Y-74085122D01*
X63580804Y-74000002D01*
X63580804Y-73999997D01*
X63559720Y-73866878D01*
X63559719Y-73866876D01*
X63559719Y-73866874D01*
X63498528Y-73746780D01*
X63498526Y-73746778D01*
X63498523Y-73746774D01*
X63403225Y-73651476D01*
X63403221Y-73651473D01*
X63403220Y-73651472D01*
X63283126Y-73590281D01*
X63283124Y-73590280D01*
X63283121Y-73590279D01*
X63150002Y-73569196D01*
X63149998Y-73569196D01*
X63016878Y-73590279D01*
X62896778Y-73651473D01*
X62896774Y-73651476D01*
X62801476Y-73746774D01*
X62801473Y-73746778D01*
X62740279Y-73866878D01*
X62719196Y-73999997D01*
X62719196Y-74000002D01*
X40000000Y-74000002D01*
X40000000Y-73100002D01*
X65269196Y-73100002D01*
X65290279Y-73233121D01*
X65290280Y-73233124D01*
X65290281Y-73233126D01*
X65351472Y-73353220D01*
X65351473Y-73353221D01*
X65351476Y-73353225D01*
X65446774Y-73448523D01*
X65446778Y-73448526D01*
X65446780Y-73448528D01*
X65566874Y-73509719D01*
X65566876Y-73509719D01*
X65566878Y-73509720D01*
X65699998Y-73530804D01*
X65700000Y-73530804D01*
X65700002Y-73530804D01*
X65833121Y-73509720D01*
X65833121Y-73509719D01*
X65833126Y-73509719D01*
X65953220Y-73448528D01*
X66048528Y-73353220D01*
X66109719Y-73233126D01*
X66130804Y-73100000D01*
X66109719Y-72966874D01*
X66048528Y-72846780D01*
X66048526Y-72846778D01*
X66048523Y-72846774D01*
X65953225Y-72751476D01*
X65953221Y-72751473D01*
X65953220Y-72751472D01*
X65833126Y-72690281D01*
X65833124Y-72690280D01*
X65833121Y-72690279D01*
X65700002Y-72669196D01*
X65699998Y-72669196D01*
X65566878Y-72690279D01*
X65446778Y-72751473D01*
X65446774Y-72751476D01*
X65351476Y-72846774D01*
X65351473Y-72846778D01*
X65290279Y-72966878D01*
X65269196Y-73099997D01*
X65269196Y-73100002D01*
X40000000Y-73100002D01*
X40000000Y-70850000D01*
X42625000Y-70850000D01*
X43695854Y-70850000D01*
X43657370Y-70916657D01*
X43625000Y-71037465D01*
X43625000Y-71162535D01*
X43657370Y-71283343D01*
X43695854Y-71350000D01*
X42625001Y-71350000D01*
X42625001Y-71749986D01*
X42635494Y-71852697D01*
X42690641Y-72019119D01*
X42690643Y-72019124D01*
X42782684Y-72168345D01*
X42906654Y-72292315D01*
X43055875Y-72384356D01*
X43055880Y-72384358D01*
X43222302Y-72439505D01*
X43222309Y-72439506D01*
X43325019Y-72449999D01*
X43849999Y-72449999D01*
X43850000Y-72449998D01*
X43850000Y-71504145D01*
X43916657Y-71542630D01*
X44037465Y-71575000D01*
X44162535Y-71575000D01*
X44283343Y-71542630D01*
X44350000Y-71504145D01*
X44350000Y-72449999D01*
X44874972Y-72449999D01*
X44874986Y-72449998D01*
X44977697Y-72439505D01*
X45144119Y-72384358D01*
X45144124Y-72384356D01*
X45293345Y-72292315D01*
X45417315Y-72168345D01*
X45509356Y-72019124D01*
X45509358Y-72019119D01*
X45515693Y-72000002D01*
X58669196Y-72000002D01*
X58690279Y-72133121D01*
X58690280Y-72133124D01*
X58690281Y-72133126D01*
X58751472Y-72253220D01*
X58751473Y-72253221D01*
X58751476Y-72253225D01*
X58846774Y-72348523D01*
X58846778Y-72348526D01*
X58846780Y-72348528D01*
X58966874Y-72409719D01*
X58966876Y-72409719D01*
X58966878Y-72409720D01*
X59099998Y-72430804D01*
X59100000Y-72430804D01*
X59100002Y-72430804D01*
X59233121Y-72409720D01*
X59233121Y-72409719D01*
X59233126Y-72409719D01*
X59353220Y-72348528D01*
X59448528Y-72253220D01*
X59509719Y-72133126D01*
X59516570Y-72089870D01*
X59530804Y-72000002D01*
X62869196Y-72000002D01*
X62890279Y-72133121D01*
X62890280Y-72133124D01*
X62890281Y-72133126D01*
X62951472Y-72253220D01*
X62951473Y-72253221D01*
X62951476Y-72253225D01*
X63046774Y-72348523D01*
X63046778Y-72348526D01*
X63046780Y-72348528D01*
X63166874Y-72409719D01*
X63166876Y-72409719D01*
X63166878Y-72409720D01*
X63299998Y-72430804D01*
X63300000Y-72430804D01*
X63300002Y-72430804D01*
X63433121Y-72409720D01*
X63433121Y-72409719D01*
X63433126Y-72409719D01*
X63553220Y-72348528D01*
X63648528Y-72253220D01*
X63675644Y-72200002D01*
X76669196Y-72200002D01*
X76690279Y-72333121D01*
X76690280Y-72333124D01*
X76690281Y-72333126D01*
X76749831Y-72449999D01*
X76751473Y-72453221D01*
X76751476Y-72453225D01*
X76846774Y-72548523D01*
X76846778Y-72548526D01*
X76846780Y-72548528D01*
X76966874Y-72609719D01*
X76966876Y-72609719D01*
X76966878Y-72609720D01*
X77099998Y-72630804D01*
X77100000Y-72630804D01*
X77100002Y-72630804D01*
X77233121Y-72609720D01*
X77233121Y-72609719D01*
X77233126Y-72609719D01*
X77353220Y-72548528D01*
X77448528Y-72453220D01*
X77509719Y-72333126D01*
X77530804Y-72200000D01*
X77525903Y-72169059D01*
X77509720Y-72066878D01*
X77509719Y-72066876D01*
X77509719Y-72066874D01*
X77448528Y-71946780D01*
X77448526Y-71946778D01*
X77448523Y-71946774D01*
X77353225Y-71851476D01*
X77353221Y-71851473D01*
X77353220Y-71851472D01*
X77233126Y-71790281D01*
X77233124Y-71790280D01*
X77233121Y-71790279D01*
X77100002Y-71769196D01*
X77099998Y-71769196D01*
X76966878Y-71790279D01*
X76846778Y-71851473D01*
X76846774Y-71851476D01*
X76751476Y-71946774D01*
X76751473Y-71946778D01*
X76690279Y-72066878D01*
X76669196Y-72199997D01*
X76669196Y-72200002D01*
X63675644Y-72200002D01*
X63709719Y-72133126D01*
X63716570Y-72089870D01*
X63730804Y-72000002D01*
X63730804Y-71999997D01*
X63709720Y-71866878D01*
X63709719Y-71866876D01*
X63709719Y-71866874D01*
X63648528Y-71746780D01*
X63648526Y-71746778D01*
X63648523Y-71746774D01*
X63553225Y-71651476D01*
X63553221Y-71651473D01*
X63553220Y-71651472D01*
X63433126Y-71590281D01*
X63433124Y-71590280D01*
X63433121Y-71590279D01*
X63300002Y-71569196D01*
X63299998Y-71569196D01*
X63166878Y-71590279D01*
X63046778Y-71651473D01*
X63046774Y-71651476D01*
X62951476Y-71746774D01*
X62951473Y-71746778D01*
X62890279Y-71866878D01*
X62869196Y-71999997D01*
X62869196Y-72000002D01*
X59530804Y-72000002D01*
X59530804Y-71999997D01*
X59509720Y-71866878D01*
X59509719Y-71866876D01*
X59509719Y-71866874D01*
X59448528Y-71746780D01*
X59448526Y-71746778D01*
X59448523Y-71746774D01*
X59353225Y-71651476D01*
X59353221Y-71651473D01*
X59353220Y-71651472D01*
X59233126Y-71590281D01*
X59233124Y-71590280D01*
X59233121Y-71590279D01*
X59120693Y-71572473D01*
X59100386Y-71562846D01*
X59079307Y-71572473D01*
X58966878Y-71590279D01*
X58846778Y-71651473D01*
X58846774Y-71651476D01*
X58751476Y-71746774D01*
X58751473Y-71746778D01*
X58690279Y-71866878D01*
X58669196Y-71999997D01*
X58669196Y-72000002D01*
X45515693Y-72000002D01*
X45564505Y-71852697D01*
X45564506Y-71852690D01*
X45574999Y-71749986D01*
X45575000Y-71749973D01*
X45575000Y-71350000D01*
X44504146Y-71350000D01*
X44542630Y-71283343D01*
X44575000Y-71162535D01*
X44575000Y-71037465D01*
X44542630Y-70916657D01*
X44533014Y-70900002D01*
X58669196Y-70900002D01*
X58690279Y-71033121D01*
X58690280Y-71033124D01*
X58690281Y-71033126D01*
X58692492Y-71037465D01*
X58751473Y-71153221D01*
X58751476Y-71153225D01*
X58846774Y-71248523D01*
X58846778Y-71248526D01*
X58846780Y-71248528D01*
X58966874Y-71309719D01*
X58966876Y-71309719D01*
X58966878Y-71309720D01*
X59079307Y-71327527D01*
X59099613Y-71337153D01*
X59120693Y-71327527D01*
X59233121Y-71309720D01*
X59233121Y-71309719D01*
X59233126Y-71309719D01*
X59341953Y-71254269D01*
X94724500Y-71254269D01*
X94727353Y-71284699D01*
X94727353Y-71284701D01*
X94764780Y-71391657D01*
X94772207Y-71412882D01*
X94852850Y-71522150D01*
X94962118Y-71602793D01*
X95004845Y-71617744D01*
X95090299Y-71647646D01*
X95120730Y-71650500D01*
X95120734Y-71650500D01*
X96679270Y-71650500D01*
X96709699Y-71647646D01*
X96709701Y-71647646D01*
X96773790Y-71625219D01*
X96837882Y-71602793D01*
X96947150Y-71522150D01*
X97027793Y-71412882D01*
X97063891Y-71309720D01*
X97072646Y-71284701D01*
X97072646Y-71284699D01*
X97075500Y-71254269D01*
X97075500Y-69945730D01*
X97072646Y-69915300D01*
X97072646Y-69915298D01*
X97027793Y-69787119D01*
X97027792Y-69787117D01*
X96947150Y-69677850D01*
X96837882Y-69597207D01*
X96837880Y-69597206D01*
X96709700Y-69552353D01*
X96679270Y-69549500D01*
X96679266Y-69549500D01*
X95120734Y-69549500D01*
X95120730Y-69549500D01*
X95090300Y-69552353D01*
X95090298Y-69552353D01*
X94962119Y-69597206D01*
X94962117Y-69597207D01*
X94852850Y-69677850D01*
X94772207Y-69787117D01*
X94772206Y-69787119D01*
X94727353Y-69915298D01*
X94727353Y-69915300D01*
X94724500Y-69945730D01*
X94724500Y-71254269D01*
X59341953Y-71254269D01*
X59353220Y-71248528D01*
X59448528Y-71153220D01*
X59509719Y-71033126D01*
X59530804Y-70900000D01*
X59527403Y-70878528D01*
X59509720Y-70766878D01*
X59509719Y-70766876D01*
X59509719Y-70766874D01*
X59448528Y-70646780D01*
X59448526Y-70646778D01*
X59448523Y-70646774D01*
X59353225Y-70551476D01*
X59353221Y-70551473D01*
X59353220Y-70551472D01*
X59311083Y-70530002D01*
X77289196Y-70530002D01*
X77310279Y-70663121D01*
X77310280Y-70663124D01*
X77310281Y-70663126D01*
X77371472Y-70783220D01*
X77371473Y-70783221D01*
X77371476Y-70783225D01*
X77466774Y-70878523D01*
X77466778Y-70878526D01*
X77466780Y-70878528D01*
X77586874Y-70939719D01*
X77586876Y-70939719D01*
X77586878Y-70939720D01*
X77719998Y-70960804D01*
X77720000Y-70960804D01*
X77720002Y-70960804D01*
X77853121Y-70939720D01*
X77853121Y-70939719D01*
X77853126Y-70939719D01*
X77973220Y-70878528D01*
X78068528Y-70783220D01*
X78129719Y-70663126D01*
X78150804Y-70530000D01*
X78144513Y-70490281D01*
X78129720Y-70396878D01*
X78129719Y-70396876D01*
X78129719Y-70396874D01*
X78068528Y-70276780D01*
X78068526Y-70276778D01*
X78068523Y-70276774D01*
X77973225Y-70181476D01*
X77973221Y-70181473D01*
X77973220Y-70181472D01*
X77853126Y-70120281D01*
X77853124Y-70120280D01*
X77853121Y-70120279D01*
X77720002Y-70099196D01*
X77719998Y-70099196D01*
X77586878Y-70120279D01*
X77466778Y-70181473D01*
X77466774Y-70181476D01*
X77371476Y-70276774D01*
X77371473Y-70276778D01*
X77310279Y-70396878D01*
X77289196Y-70529997D01*
X77289196Y-70530002D01*
X59311083Y-70530002D01*
X59233126Y-70490281D01*
X59233124Y-70490280D01*
X59233121Y-70490279D01*
X59100002Y-70469196D01*
X59099998Y-70469196D01*
X58966878Y-70490279D01*
X58846778Y-70551473D01*
X58846774Y-70551476D01*
X58751476Y-70646774D01*
X58751473Y-70646778D01*
X58690279Y-70766878D01*
X58669196Y-70899997D01*
X58669196Y-70900002D01*
X44533014Y-70900002D01*
X44504146Y-70850000D01*
X45574999Y-70850000D01*
X45574999Y-70450028D01*
X45574998Y-70450013D01*
X45564505Y-70347302D01*
X45509358Y-70180880D01*
X45509356Y-70180875D01*
X45417315Y-70031654D01*
X45293345Y-69907684D01*
X45144124Y-69815643D01*
X45144119Y-69815641D01*
X44977697Y-69760494D01*
X44977690Y-69760493D01*
X44874986Y-69750000D01*
X44803526Y-69750000D01*
X44736487Y-69730315D01*
X44690732Y-69677511D01*
X44680788Y-69608353D01*
X44709813Y-69544797D01*
X44734633Y-69522899D01*
X44894655Y-69415977D01*
X45040977Y-69269655D01*
X45155941Y-69097598D01*
X45235130Y-68906420D01*
X45275500Y-68703465D01*
X45275500Y-68496535D01*
X45235130Y-68293580D01*
X45155941Y-68102402D01*
X45040977Y-67930345D01*
X45040975Y-67930342D01*
X44894657Y-67784024D01*
X44808626Y-67726541D01*
X44722598Y-67669059D01*
X44531420Y-67589870D01*
X44531412Y-67589868D01*
X44328469Y-67549500D01*
X44328465Y-67549500D01*
X43871535Y-67549500D01*
X43871530Y-67549500D01*
X43668587Y-67589868D01*
X43668579Y-67589870D01*
X43477403Y-67669058D01*
X43305342Y-67784024D01*
X43159024Y-67930342D01*
X43044058Y-68102403D01*
X42964870Y-68293579D01*
X42964868Y-68293587D01*
X42924500Y-68496530D01*
X42924500Y-68703469D01*
X42964868Y-68906412D01*
X42964870Y-68906420D01*
X43044058Y-69097596D01*
X43159024Y-69269657D01*
X43305342Y-69415975D01*
X43305345Y-69415977D01*
X43465367Y-69522899D01*
X43510170Y-69576509D01*
X43518878Y-69645834D01*
X43488724Y-69708862D01*
X43429282Y-69745581D01*
X43396477Y-69750000D01*
X43325029Y-69750000D01*
X43325012Y-69750001D01*
X43222302Y-69760494D01*
X43055880Y-69815641D01*
X43055875Y-69815643D01*
X42906654Y-69907684D01*
X42782684Y-70031654D01*
X42690643Y-70180875D01*
X42690641Y-70180880D01*
X42635494Y-70347302D01*
X42635493Y-70347309D01*
X42625000Y-70450013D01*
X42625000Y-70850000D01*
X40000000Y-70850000D01*
X40000000Y-66203469D01*
X42924500Y-66203469D01*
X42964868Y-66406412D01*
X42964870Y-66406420D01*
X43044058Y-66597596D01*
X43159024Y-66769657D01*
X43305342Y-66915975D01*
X43305345Y-66915977D01*
X43477402Y-67030941D01*
X43668580Y-67110130D01*
X43871530Y-67150499D01*
X43871534Y-67150500D01*
X43871535Y-67150500D01*
X44328466Y-67150500D01*
X44328467Y-67150499D01*
X44531420Y-67110130D01*
X44722598Y-67030941D01*
X44894655Y-66915977D01*
X45040977Y-66769655D01*
X45087517Y-66700002D01*
X65169196Y-66700002D01*
X65190279Y-66833121D01*
X65190280Y-66833124D01*
X65190281Y-66833126D01*
X65232495Y-66915975D01*
X65251473Y-66953221D01*
X65251476Y-66953225D01*
X65346774Y-67048523D01*
X65346778Y-67048526D01*
X65346780Y-67048528D01*
X65466874Y-67109719D01*
X65466876Y-67109719D01*
X65466878Y-67109720D01*
X65599998Y-67130804D01*
X65600000Y-67130804D01*
X65600002Y-67130804D01*
X65733121Y-67109720D01*
X65733121Y-67109719D01*
X65733126Y-67109719D01*
X65853220Y-67048528D01*
X65948528Y-66953220D01*
X66009719Y-66833126D01*
X66009720Y-66833121D01*
X66030804Y-66700002D01*
X66030804Y-66699997D01*
X66009720Y-66566878D01*
X66009719Y-66566876D01*
X66009719Y-66566874D01*
X65948528Y-66446780D01*
X65948526Y-66446778D01*
X65948523Y-66446774D01*
X65853225Y-66351476D01*
X65853221Y-66351473D01*
X65853220Y-66351472D01*
X65733126Y-66290281D01*
X65733124Y-66290280D01*
X65733121Y-66290279D01*
X65600002Y-66269196D01*
X65599998Y-66269196D01*
X65466878Y-66290279D01*
X65346778Y-66351473D01*
X65346774Y-66351476D01*
X65251476Y-66446774D01*
X65251473Y-66446778D01*
X65190279Y-66566878D01*
X65169196Y-66699997D01*
X65169196Y-66700002D01*
X45087517Y-66700002D01*
X45155941Y-66597598D01*
X45235130Y-66406420D01*
X45275500Y-66203465D01*
X45275500Y-65996535D01*
X45235130Y-65793580D01*
X45196368Y-65700002D01*
X67169196Y-65700002D01*
X67190279Y-65833121D01*
X67190280Y-65833124D01*
X67190281Y-65833126D01*
X67197365Y-65847029D01*
X67251473Y-65953221D01*
X67251476Y-65953225D01*
X67346774Y-66048523D01*
X67346778Y-66048526D01*
X67346780Y-66048528D01*
X67466874Y-66109719D01*
X67466876Y-66109719D01*
X67466878Y-66109720D01*
X67599998Y-66130804D01*
X67600000Y-66130804D01*
X67600002Y-66130804D01*
X67668203Y-66120002D01*
X76399196Y-66120002D01*
X76420279Y-66253121D01*
X76420280Y-66253124D01*
X76420281Y-66253126D01*
X76470393Y-66351476D01*
X76481473Y-66373221D01*
X76481476Y-66373225D01*
X76576774Y-66468523D01*
X76576778Y-66468526D01*
X76576780Y-66468528D01*
X76696874Y-66529719D01*
X76696876Y-66529719D01*
X76696878Y-66529720D01*
X76829998Y-66550804D01*
X76830000Y-66550804D01*
X76830002Y-66550804D01*
X76963121Y-66529720D01*
X76963121Y-66529719D01*
X76963126Y-66529719D01*
X77083220Y-66468528D01*
X77178528Y-66373220D01*
X77239719Y-66253126D01*
X77247584Y-66203469D01*
X77260804Y-66120002D01*
X77260804Y-66119997D01*
X77239720Y-65986878D01*
X77239719Y-65986876D01*
X77239719Y-65986874D01*
X77178528Y-65866780D01*
X77178526Y-65866778D01*
X77178523Y-65866774D01*
X77083225Y-65771476D01*
X77083221Y-65771473D01*
X77083220Y-65771472D01*
X76963126Y-65710281D01*
X76963124Y-65710280D01*
X76963121Y-65710279D01*
X76830002Y-65689196D01*
X76829998Y-65689196D01*
X76696878Y-65710279D01*
X76576778Y-65771473D01*
X76576774Y-65771476D01*
X76481476Y-65866774D01*
X76481473Y-65866778D01*
X76420279Y-65986878D01*
X76399196Y-66119997D01*
X76399196Y-66120002D01*
X67668203Y-66120002D01*
X67733121Y-66109720D01*
X67733121Y-66109719D01*
X67733126Y-66109719D01*
X67853220Y-66048528D01*
X67948528Y-65953220D01*
X68009719Y-65833126D01*
X68012312Y-65816757D01*
X68030804Y-65700002D01*
X68030804Y-65699997D01*
X68009720Y-65566878D01*
X68009719Y-65566876D01*
X68009719Y-65566874D01*
X67948528Y-65446780D01*
X67948526Y-65446778D01*
X67948523Y-65446774D01*
X67853225Y-65351476D01*
X67853221Y-65351473D01*
X67853220Y-65351472D01*
X67733126Y-65290281D01*
X67733124Y-65290280D01*
X67733121Y-65290279D01*
X67600002Y-65269196D01*
X67599998Y-65269196D01*
X67466878Y-65290279D01*
X67346778Y-65351473D01*
X67346774Y-65351476D01*
X67251476Y-65446774D01*
X67251473Y-65446778D01*
X67190279Y-65566878D01*
X67169196Y-65699997D01*
X67169196Y-65700002D01*
X45196368Y-65700002D01*
X45155941Y-65602402D01*
X45040977Y-65430345D01*
X45040975Y-65430342D01*
X44894657Y-65284024D01*
X44780215Y-65207557D01*
X44722598Y-65169059D01*
X44531420Y-65089870D01*
X44531412Y-65089868D01*
X44328469Y-65049500D01*
X44328465Y-65049500D01*
X43871535Y-65049500D01*
X43871530Y-65049500D01*
X43668587Y-65089868D01*
X43668579Y-65089870D01*
X43477403Y-65169058D01*
X43305342Y-65284024D01*
X43159024Y-65430342D01*
X43044058Y-65602403D01*
X42964870Y-65793579D01*
X42964868Y-65793587D01*
X42924500Y-65996530D01*
X42924500Y-66203469D01*
X40000000Y-66203469D01*
X40000000Y-64600002D01*
X83214196Y-64600002D01*
X83235279Y-64733121D01*
X83235280Y-64733124D01*
X83235281Y-64733126D01*
X83296472Y-64853220D01*
X83296473Y-64853221D01*
X83296476Y-64853225D01*
X83391774Y-64948523D01*
X83391778Y-64948526D01*
X83391780Y-64948528D01*
X83511874Y-65009719D01*
X83511876Y-65009719D01*
X83511878Y-65009720D01*
X83644998Y-65030804D01*
X83645000Y-65030804D01*
X83645002Y-65030804D01*
X83778121Y-65009720D01*
X83778121Y-65009719D01*
X83778126Y-65009719D01*
X83898220Y-64948528D01*
X83993528Y-64853220D01*
X84046121Y-64750000D01*
X94447769Y-64750000D01*
X94458242Y-64816126D01*
X94458242Y-64816129D01*
X94523904Y-65018217D01*
X94620379Y-65207557D01*
X94745272Y-65379459D01*
X94745276Y-65379464D01*
X94895535Y-65529723D01*
X94895540Y-65529727D01*
X95067442Y-65654620D01*
X95256782Y-65751095D01*
X95458872Y-65816757D01*
X95650000Y-65847029D01*
X95650000Y-64904145D01*
X95716657Y-64942630D01*
X95837465Y-64975000D01*
X95962535Y-64975000D01*
X96083343Y-64942630D01*
X96150000Y-64904145D01*
X96150000Y-65847028D01*
X96341127Y-65816757D01*
X96543217Y-65751095D01*
X96732557Y-65654620D01*
X96904459Y-65529727D01*
X96904464Y-65529723D01*
X97054723Y-65379464D01*
X97054727Y-65379459D01*
X97179620Y-65207557D01*
X97276095Y-65018217D01*
X97341757Y-64816129D01*
X97341757Y-64816126D01*
X97352231Y-64750000D01*
X96304146Y-64750000D01*
X96342630Y-64683343D01*
X96375000Y-64562535D01*
X96375000Y-64437465D01*
X96342630Y-64316657D01*
X96304146Y-64250000D01*
X97352231Y-64250000D01*
X97341757Y-64183873D01*
X97341757Y-64183870D01*
X97276095Y-63981782D01*
X97179620Y-63792442D01*
X97054727Y-63620540D01*
X97054723Y-63620535D01*
X96904464Y-63470276D01*
X96904459Y-63470272D01*
X96732557Y-63345379D01*
X96543216Y-63248904D01*
X96421144Y-63209240D01*
X96363468Y-63169802D01*
X96336270Y-63105444D01*
X96348185Y-63036597D01*
X96395429Y-62985122D01*
X96412006Y-62976749D01*
X96522598Y-62930941D01*
X96694655Y-62815977D01*
X96840977Y-62669655D01*
X96955941Y-62497598D01*
X97035130Y-62306420D01*
X97075500Y-62103465D01*
X97075500Y-61896535D01*
X97035130Y-61693580D01*
X96955941Y-61502402D01*
X96840977Y-61330345D01*
X96840975Y-61330342D01*
X96694657Y-61184024D01*
X96595384Y-61117693D01*
X96522598Y-61069059D01*
X96520874Y-61068345D01*
X96331420Y-60989870D01*
X96331412Y-60989868D01*
X96128469Y-60949500D01*
X96128465Y-60949500D01*
X95671535Y-60949500D01*
X95671530Y-60949500D01*
X95468587Y-60989868D01*
X95468579Y-60989870D01*
X95277403Y-61069058D01*
X95105342Y-61184024D01*
X94959024Y-61330342D01*
X94844058Y-61502403D01*
X94764870Y-61693579D01*
X94764868Y-61693587D01*
X94724500Y-61896530D01*
X94724500Y-62103469D01*
X94764868Y-62306412D01*
X94764870Y-62306420D01*
X94844058Y-62497596D01*
X94959024Y-62669657D01*
X95105342Y-62815975D01*
X95105345Y-62815977D01*
X95277402Y-62930941D01*
X95387990Y-62976748D01*
X95442393Y-63020589D01*
X95464458Y-63086883D01*
X95447179Y-63154582D01*
X95396042Y-63202193D01*
X95378856Y-63209240D01*
X95256781Y-63248905D01*
X95067442Y-63345379D01*
X94895540Y-63470272D01*
X94895535Y-63470276D01*
X94745276Y-63620535D01*
X94745272Y-63620540D01*
X94620379Y-63792442D01*
X94523904Y-63981782D01*
X94458242Y-64183870D01*
X94458242Y-64183873D01*
X94447769Y-64250000D01*
X95495854Y-64250000D01*
X95457370Y-64316657D01*
X95425000Y-64437465D01*
X95425000Y-64562535D01*
X95457370Y-64683343D01*
X95495854Y-64750000D01*
X94447769Y-64750000D01*
X84046121Y-64750000D01*
X84054719Y-64733126D01*
X84075804Y-64600000D01*
X84069870Y-64562535D01*
X84054720Y-64466878D01*
X84054719Y-64466876D01*
X84054719Y-64466874D01*
X83993528Y-64346780D01*
X83993526Y-64346778D01*
X83993523Y-64346774D01*
X83898225Y-64251476D01*
X83898221Y-64251473D01*
X83898220Y-64251472D01*
X83778126Y-64190281D01*
X83778124Y-64190280D01*
X83778121Y-64190279D01*
X83645002Y-64169196D01*
X83644998Y-64169196D01*
X83511878Y-64190279D01*
X83391778Y-64251473D01*
X83391774Y-64251476D01*
X83296476Y-64346774D01*
X83296473Y-64346778D01*
X83235279Y-64466878D01*
X83214196Y-64599997D01*
X83214196Y-64600002D01*
X40000000Y-64600002D01*
X40000000Y-63150002D01*
X65619196Y-63150002D01*
X65640279Y-63283121D01*
X65640280Y-63283124D01*
X65640281Y-63283126D01*
X65701472Y-63403220D01*
X65701473Y-63403221D01*
X65701476Y-63403225D01*
X65796774Y-63498523D01*
X65796778Y-63498526D01*
X65796780Y-63498528D01*
X65916874Y-63559719D01*
X65916876Y-63559719D01*
X65916878Y-63559720D01*
X66049998Y-63580804D01*
X66050000Y-63580804D01*
X66050002Y-63580804D01*
X66183121Y-63559720D01*
X66183121Y-63559719D01*
X66183126Y-63559719D01*
X66303220Y-63498528D01*
X66398528Y-63403220D01*
X66451120Y-63300002D01*
X73319196Y-63300002D01*
X73340279Y-63433121D01*
X73340280Y-63433124D01*
X73340281Y-63433126D01*
X73377858Y-63506874D01*
X73401473Y-63553221D01*
X73401476Y-63553225D01*
X73496774Y-63648523D01*
X73496778Y-63648526D01*
X73496780Y-63648528D01*
X73616874Y-63709719D01*
X73616876Y-63709719D01*
X73616878Y-63709720D01*
X73749998Y-63730804D01*
X73750000Y-63730804D01*
X73750002Y-63730804D01*
X73883121Y-63709720D01*
X73883121Y-63709719D01*
X73883126Y-63709719D01*
X74003220Y-63648528D01*
X74011746Y-63640002D01*
X81629196Y-63640002D01*
X81650279Y-63773121D01*
X81650280Y-63773124D01*
X81650281Y-63773126D01*
X81711472Y-63893220D01*
X81711473Y-63893221D01*
X81711476Y-63893225D01*
X81806774Y-63988523D01*
X81806778Y-63988526D01*
X81806780Y-63988528D01*
X81926874Y-64049719D01*
X81926876Y-64049719D01*
X81926878Y-64049720D01*
X82059998Y-64070804D01*
X82060000Y-64070804D01*
X82060002Y-64070804D01*
X82193121Y-64049720D01*
X82193121Y-64049719D01*
X82193126Y-64049719D01*
X82313220Y-63988528D01*
X82408528Y-63893220D01*
X82469719Y-63773126D01*
X82476422Y-63730804D01*
X82490804Y-63640002D01*
X82490804Y-63639997D01*
X82469720Y-63506878D01*
X82469719Y-63506876D01*
X82469719Y-63506874D01*
X82408528Y-63386780D01*
X82408526Y-63386778D01*
X82408523Y-63386774D01*
X82313225Y-63291476D01*
X82313221Y-63291473D01*
X82313220Y-63291472D01*
X82193126Y-63230281D01*
X82193124Y-63230280D01*
X82193121Y-63230279D01*
X82060002Y-63209196D01*
X82059998Y-63209196D01*
X81926878Y-63230279D01*
X81806778Y-63291473D01*
X81806774Y-63291476D01*
X81711476Y-63386774D01*
X81711473Y-63386778D01*
X81650279Y-63506878D01*
X81629196Y-63639997D01*
X81629196Y-63640002D01*
X74011746Y-63640002D01*
X74098528Y-63553220D01*
X74159719Y-63433126D01*
X74164455Y-63403225D01*
X74180804Y-63300002D01*
X74180804Y-63299997D01*
X74159720Y-63166878D01*
X74159719Y-63166876D01*
X74159719Y-63166874D01*
X74098528Y-63046780D01*
X74098526Y-63046778D01*
X74098523Y-63046774D01*
X74003225Y-62951476D01*
X74003221Y-62951473D01*
X74003220Y-62951472D01*
X73883126Y-62890281D01*
X73883124Y-62890280D01*
X73883121Y-62890279D01*
X73750002Y-62869196D01*
X73749998Y-62869196D01*
X73616878Y-62890279D01*
X73496778Y-62951473D01*
X73496774Y-62951476D01*
X73401476Y-63046774D01*
X73401473Y-63046778D01*
X73340279Y-63166878D01*
X73319196Y-63299997D01*
X73319196Y-63300002D01*
X66451120Y-63300002D01*
X66459719Y-63283126D01*
X66468089Y-63230279D01*
X66480804Y-63150002D01*
X66480804Y-63149997D01*
X66459720Y-63016878D01*
X66459719Y-63016876D01*
X66459719Y-63016874D01*
X66398528Y-62896780D01*
X66398526Y-62896778D01*
X66398523Y-62896774D01*
X66303225Y-62801476D01*
X66303221Y-62801473D01*
X66303220Y-62801472D01*
X66183126Y-62740281D01*
X66183124Y-62740280D01*
X66183121Y-62740279D01*
X66050002Y-62719196D01*
X66049998Y-62719196D01*
X65916878Y-62740279D01*
X65796778Y-62801473D01*
X65796774Y-62801476D01*
X65701476Y-62896774D01*
X65701473Y-62896778D01*
X65640279Y-63016878D01*
X65619196Y-63149997D01*
X65619196Y-63150002D01*
X40000000Y-63150002D01*
X40000000Y-62600002D01*
X76244196Y-62600002D01*
X76265279Y-62733121D01*
X76265280Y-62733124D01*
X76265281Y-62733126D01*
X76307495Y-62815975D01*
X76326473Y-62853221D01*
X76326476Y-62853225D01*
X76421774Y-62948523D01*
X76421778Y-62948526D01*
X76421780Y-62948528D01*
X76541874Y-63009719D01*
X76541876Y-63009719D01*
X76541878Y-63009720D01*
X76674998Y-63030804D01*
X76675000Y-63030804D01*
X76675002Y-63030804D01*
X76808121Y-63009720D01*
X76808121Y-63009719D01*
X76808126Y-63009719D01*
X76928220Y-62948528D01*
X77023528Y-62853220D01*
X77084719Y-62733126D01*
X77084720Y-62733121D01*
X77105804Y-62600002D01*
X77105804Y-62599997D01*
X77084720Y-62466878D01*
X77084719Y-62466876D01*
X77084719Y-62466874D01*
X77023528Y-62346780D01*
X77023526Y-62346778D01*
X77023523Y-62346774D01*
X76928225Y-62251476D01*
X76928221Y-62251473D01*
X76928220Y-62251472D01*
X76808126Y-62190281D01*
X76808124Y-62190280D01*
X76808121Y-62190279D01*
X76675002Y-62169196D01*
X76674998Y-62169196D01*
X76541878Y-62190279D01*
X76421778Y-62251473D01*
X76421774Y-62251476D01*
X76326476Y-62346774D01*
X76326473Y-62346778D01*
X76265279Y-62466878D01*
X76244196Y-62599997D01*
X76244196Y-62600002D01*
X40000000Y-62600002D01*
X40000000Y-61370921D01*
X48998277Y-61370921D01*
X49019360Y-61504040D01*
X49019361Y-61504043D01*
X49019362Y-61504045D01*
X49080553Y-61624139D01*
X49080554Y-61624140D01*
X49080557Y-61624144D01*
X49175855Y-61719442D01*
X49175859Y-61719445D01*
X49175861Y-61719447D01*
X49295955Y-61780638D01*
X49295957Y-61780638D01*
X49295959Y-61780639D01*
X49429079Y-61801723D01*
X49429081Y-61801723D01*
X49429083Y-61801723D01*
X49562202Y-61780639D01*
X49562202Y-61780638D01*
X49562207Y-61780638D01*
X49682301Y-61719447D01*
X49777609Y-61624139D01*
X49838800Y-61504045D01*
X49859885Y-61370919D01*
X49856571Y-61349998D01*
X49838801Y-61237797D01*
X49838800Y-61237795D01*
X49838800Y-61237793D01*
X49777609Y-61117699D01*
X49777607Y-61117697D01*
X49777604Y-61117693D01*
X49682306Y-61022395D01*
X49682302Y-61022392D01*
X49682301Y-61022391D01*
X49562207Y-60961200D01*
X49562205Y-60961199D01*
X49562202Y-60961198D01*
X49429083Y-60940115D01*
X49429079Y-60940115D01*
X49295959Y-60961198D01*
X49175859Y-61022392D01*
X49175855Y-61022395D01*
X49080557Y-61117693D01*
X49080554Y-61117697D01*
X49019360Y-61237797D01*
X48998277Y-61370916D01*
X48998277Y-61370921D01*
X40000000Y-61370921D01*
X40000000Y-59750000D01*
X42625000Y-59750000D01*
X43695854Y-59750000D01*
X43657370Y-59816657D01*
X43625000Y-59937465D01*
X43625000Y-60062535D01*
X43657370Y-60183343D01*
X43695854Y-60250000D01*
X42625001Y-60250000D01*
X42625001Y-60649986D01*
X42635494Y-60752697D01*
X42690641Y-60919119D01*
X42690643Y-60919124D01*
X42782684Y-61068345D01*
X42906654Y-61192315D01*
X43055875Y-61284356D01*
X43055880Y-61284358D01*
X43222302Y-61339505D01*
X43222309Y-61339506D01*
X43325019Y-61349999D01*
X43849999Y-61349999D01*
X43850000Y-61349998D01*
X43850000Y-60404145D01*
X43916657Y-60442630D01*
X44037465Y-60475000D01*
X44162535Y-60475000D01*
X44283343Y-60442630D01*
X44350000Y-60404145D01*
X44350000Y-61349999D01*
X44874972Y-61349999D01*
X44874986Y-61349998D01*
X44977697Y-61339505D01*
X45144119Y-61284358D01*
X45144124Y-61284356D01*
X45293345Y-61192315D01*
X45417315Y-61068345D01*
X45509356Y-60919124D01*
X45509358Y-60919119D01*
X45564505Y-60752697D01*
X45564506Y-60752690D01*
X45574999Y-60649986D01*
X45575000Y-60649973D01*
X45575000Y-60250000D01*
X44504146Y-60250000D01*
X44542630Y-60183343D01*
X44575000Y-60062535D01*
X44575000Y-59937465D01*
X44542630Y-59816657D01*
X44504146Y-59750000D01*
X45574999Y-59750000D01*
X45574999Y-59603469D01*
X94724500Y-59603469D01*
X94764868Y-59806412D01*
X94764870Y-59806420D01*
X94844058Y-59997596D01*
X94959024Y-60169657D01*
X95105342Y-60315975D01*
X95105345Y-60315977D01*
X95277402Y-60430941D01*
X95468580Y-60510130D01*
X95671530Y-60550499D01*
X95671534Y-60550500D01*
X95671535Y-60550500D01*
X96128466Y-60550500D01*
X96128467Y-60550499D01*
X96331420Y-60510130D01*
X96522598Y-60430941D01*
X96694655Y-60315977D01*
X96840977Y-60169655D01*
X96955941Y-59997598D01*
X97035130Y-59806420D01*
X97075500Y-59603465D01*
X97075500Y-59396535D01*
X97035130Y-59193580D01*
X96955941Y-59002402D01*
X96840977Y-58830345D01*
X96840975Y-58830342D01*
X96694657Y-58684024D01*
X96535247Y-58577511D01*
X96522598Y-58569059D01*
X96473027Y-58548526D01*
X96331420Y-58489870D01*
X96331412Y-58489868D01*
X96128469Y-58449500D01*
X96128465Y-58449500D01*
X95671535Y-58449500D01*
X95671530Y-58449500D01*
X95468587Y-58489868D01*
X95468579Y-58489870D01*
X95277403Y-58569058D01*
X95105342Y-58684024D01*
X94959024Y-58830342D01*
X94844058Y-59002403D01*
X94764870Y-59193579D01*
X94764868Y-59193587D01*
X94724500Y-59396530D01*
X94724500Y-59603469D01*
X45574999Y-59603469D01*
X45574999Y-59350028D01*
X45574998Y-59350013D01*
X45564505Y-59247302D01*
X45509358Y-59080880D01*
X45509356Y-59080875D01*
X45417315Y-58931654D01*
X45293345Y-58807684D01*
X45144124Y-58715643D01*
X45144119Y-58715641D01*
X45096924Y-58700002D01*
X48269196Y-58700002D01*
X48290279Y-58833121D01*
X48290280Y-58833124D01*
X48290281Y-58833126D01*
X48340484Y-58931654D01*
X48351473Y-58953221D01*
X48351476Y-58953225D01*
X48446774Y-59048523D01*
X48446778Y-59048526D01*
X48446780Y-59048528D01*
X48566874Y-59109719D01*
X48566876Y-59109719D01*
X48566878Y-59109720D01*
X48699998Y-59130804D01*
X48700000Y-59130804D01*
X48700002Y-59130804D01*
X48833121Y-59109720D01*
X48833121Y-59109719D01*
X48833126Y-59109719D01*
X48953220Y-59048528D01*
X49048528Y-58953220D01*
X49109719Y-58833126D01*
X49109720Y-58833121D01*
X49130804Y-58700002D01*
X49130804Y-58699997D01*
X49109720Y-58566878D01*
X49109719Y-58566876D01*
X49109719Y-58566874D01*
X49048528Y-58446780D01*
X49048526Y-58446778D01*
X49048523Y-58446774D01*
X48953225Y-58351476D01*
X48953221Y-58351473D01*
X48953220Y-58351472D01*
X48833126Y-58290281D01*
X48833124Y-58290280D01*
X48833121Y-58290279D01*
X48700002Y-58269196D01*
X48699998Y-58269196D01*
X48566878Y-58290279D01*
X48446778Y-58351473D01*
X48446774Y-58351476D01*
X48351476Y-58446774D01*
X48351473Y-58446778D01*
X48290279Y-58566878D01*
X48269196Y-58699997D01*
X48269196Y-58700002D01*
X45096924Y-58700002D01*
X44977697Y-58660494D01*
X44977690Y-58660493D01*
X44874986Y-58650000D01*
X44803526Y-58650000D01*
X44736487Y-58630315D01*
X44690732Y-58577511D01*
X44680788Y-58508353D01*
X44709813Y-58444797D01*
X44734633Y-58422899D01*
X44894655Y-58315977D01*
X45010630Y-58200002D01*
X61719196Y-58200002D01*
X61740279Y-58333121D01*
X61740280Y-58333124D01*
X61740281Y-58333126D01*
X61798188Y-58446774D01*
X61801473Y-58453221D01*
X61801476Y-58453225D01*
X61896774Y-58548523D01*
X61896778Y-58548526D01*
X61896780Y-58548528D01*
X62016874Y-58609719D01*
X62016876Y-58609719D01*
X62016878Y-58609720D01*
X62149998Y-58630804D01*
X62150000Y-58630804D01*
X62150002Y-58630804D01*
X62283121Y-58609720D01*
X62283121Y-58609719D01*
X62283126Y-58609719D01*
X62403220Y-58548528D01*
X62498528Y-58453220D01*
X62559719Y-58333126D01*
X62562435Y-58315977D01*
X62580804Y-58200002D01*
X65819196Y-58200002D01*
X65840279Y-58333121D01*
X65840280Y-58333124D01*
X65840281Y-58333126D01*
X65898188Y-58446774D01*
X65901473Y-58453221D01*
X65901476Y-58453225D01*
X65996774Y-58548523D01*
X65996778Y-58548526D01*
X65996780Y-58548528D01*
X66116874Y-58609719D01*
X66116876Y-58609719D01*
X66116878Y-58609720D01*
X66249998Y-58630804D01*
X66250000Y-58630804D01*
X66250002Y-58630804D01*
X66383121Y-58609720D01*
X66383121Y-58609719D01*
X66383126Y-58609719D01*
X66503220Y-58548528D01*
X66598528Y-58453220D01*
X66659719Y-58333126D01*
X66662435Y-58315977D01*
X66680804Y-58200002D01*
X66680804Y-58199997D01*
X66659720Y-58066878D01*
X66659719Y-58066876D01*
X66659719Y-58066874D01*
X66598528Y-57946780D01*
X66598526Y-57946778D01*
X66598523Y-57946774D01*
X66503225Y-57851476D01*
X66503221Y-57851473D01*
X66503220Y-57851472D01*
X66383126Y-57790281D01*
X66383124Y-57790280D01*
X66383121Y-57790279D01*
X66250002Y-57769196D01*
X66249998Y-57769196D01*
X66116878Y-57790279D01*
X66116874Y-57790280D01*
X66116874Y-57790281D01*
X66072521Y-57812880D01*
X65996778Y-57851473D01*
X65996774Y-57851476D01*
X65901476Y-57946774D01*
X65901473Y-57946778D01*
X65840279Y-58066878D01*
X65819196Y-58199997D01*
X65819196Y-58200002D01*
X62580804Y-58200002D01*
X62580804Y-58199997D01*
X62559720Y-58066878D01*
X62559719Y-58066876D01*
X62559719Y-58066874D01*
X62498528Y-57946780D01*
X62498526Y-57946778D01*
X62498523Y-57946774D01*
X62403225Y-57851476D01*
X62403221Y-57851473D01*
X62403220Y-57851472D01*
X62283126Y-57790281D01*
X62283124Y-57790280D01*
X62283121Y-57790279D01*
X62150002Y-57769196D01*
X62149998Y-57769196D01*
X62016878Y-57790279D01*
X62016874Y-57790280D01*
X62016874Y-57790281D01*
X61972521Y-57812880D01*
X61896778Y-57851473D01*
X61896774Y-57851476D01*
X61801476Y-57946774D01*
X61801473Y-57946778D01*
X61740279Y-58066878D01*
X61719196Y-58199997D01*
X61719196Y-58200002D01*
X45010630Y-58200002D01*
X45040977Y-58169655D01*
X45155941Y-57997598D01*
X45235130Y-57806420D01*
X45266243Y-57650002D01*
X63269196Y-57650002D01*
X63290279Y-57783121D01*
X63290280Y-57783124D01*
X63290281Y-57783126D01*
X63351472Y-57903220D01*
X63351473Y-57903221D01*
X63351476Y-57903225D01*
X63446774Y-57998523D01*
X63446778Y-57998526D01*
X63446780Y-57998528D01*
X63566874Y-58059719D01*
X63566876Y-58059719D01*
X63566878Y-58059720D01*
X63699998Y-58080804D01*
X63700000Y-58080804D01*
X63700002Y-58080804D01*
X63833121Y-58059720D01*
X63833121Y-58059719D01*
X63833126Y-58059719D01*
X63953220Y-57998528D01*
X64048528Y-57903220D01*
X64089516Y-57822775D01*
X64137489Y-57771981D01*
X64205310Y-57755186D01*
X64271445Y-57777723D01*
X64310483Y-57822774D01*
X64351472Y-57903220D01*
X64351473Y-57903221D01*
X64351476Y-57903225D01*
X64446774Y-57998523D01*
X64446778Y-57998526D01*
X64446780Y-57998528D01*
X64566874Y-58059719D01*
X64566876Y-58059719D01*
X64566878Y-58059720D01*
X64699998Y-58080804D01*
X64700000Y-58080804D01*
X64700002Y-58080804D01*
X64833121Y-58059720D01*
X64833121Y-58059719D01*
X64833126Y-58059719D01*
X64953220Y-57998528D01*
X65048528Y-57903220D01*
X65109719Y-57783126D01*
X65111484Y-57771981D01*
X65130128Y-57654269D01*
X94724500Y-57654269D01*
X94727353Y-57684699D01*
X94727353Y-57684701D01*
X94772206Y-57812880D01*
X94772207Y-57812882D01*
X94852850Y-57922150D01*
X94962118Y-58002793D01*
X95004845Y-58017744D01*
X95090299Y-58047646D01*
X95120730Y-58050500D01*
X95120734Y-58050500D01*
X96679270Y-58050500D01*
X96709699Y-58047646D01*
X96709701Y-58047646D01*
X96773790Y-58025219D01*
X96837882Y-58002793D01*
X96947150Y-57922150D01*
X97027793Y-57812882D01*
X97050219Y-57748790D01*
X97072646Y-57684701D01*
X97072646Y-57684699D01*
X97075500Y-57654269D01*
X97075500Y-56345730D01*
X97072646Y-56315300D01*
X97072646Y-56315298D01*
X97027793Y-56187119D01*
X97027792Y-56187117D01*
X96947150Y-56077850D01*
X96837882Y-55997207D01*
X96837880Y-55997206D01*
X96709700Y-55952353D01*
X96679270Y-55949500D01*
X96679266Y-55949500D01*
X95120734Y-55949500D01*
X95120730Y-55949500D01*
X95090300Y-55952353D01*
X95090298Y-55952353D01*
X94962119Y-55997206D01*
X94962117Y-55997207D01*
X94852850Y-56077850D01*
X94772207Y-56187117D01*
X94772206Y-56187119D01*
X94727353Y-56315298D01*
X94727353Y-56315300D01*
X94724500Y-56345730D01*
X94724500Y-57654269D01*
X65130128Y-57654269D01*
X65130804Y-57650002D01*
X65130804Y-57649997D01*
X65109720Y-57516878D01*
X65109719Y-57516876D01*
X65109719Y-57516874D01*
X65048528Y-57396780D01*
X65048526Y-57396778D01*
X65048523Y-57396774D01*
X64953225Y-57301476D01*
X64953221Y-57301473D01*
X64953220Y-57301472D01*
X64833126Y-57240281D01*
X64833124Y-57240280D01*
X64833121Y-57240279D01*
X64700002Y-57219196D01*
X64699998Y-57219196D01*
X64566878Y-57240279D01*
X64446778Y-57301473D01*
X64446774Y-57301476D01*
X64351476Y-57396774D01*
X64351474Y-57396778D01*
X64351472Y-57396780D01*
X64329161Y-57440568D01*
X64310485Y-57477222D01*
X64262510Y-57528018D01*
X64194689Y-57544813D01*
X64128554Y-57522275D01*
X64089515Y-57477222D01*
X64048528Y-57396780D01*
X64048524Y-57396776D01*
X64048523Y-57396774D01*
X63953225Y-57301476D01*
X63953221Y-57301473D01*
X63953220Y-57301472D01*
X63833126Y-57240281D01*
X63833124Y-57240280D01*
X63833121Y-57240279D01*
X63700002Y-57219196D01*
X63699998Y-57219196D01*
X63566878Y-57240279D01*
X63446778Y-57301473D01*
X63446774Y-57301476D01*
X63351476Y-57396774D01*
X63351473Y-57396778D01*
X63290279Y-57516878D01*
X63269196Y-57649997D01*
X63269196Y-57650002D01*
X45266243Y-57650002D01*
X45275500Y-57603465D01*
X45275500Y-57396535D01*
X45235130Y-57193580D01*
X45232549Y-57187349D01*
X46881849Y-57187349D01*
X46902932Y-57320468D01*
X46902933Y-57320471D01*
X46902934Y-57320473D01*
X46964125Y-57440567D01*
X46964126Y-57440568D01*
X46964129Y-57440572D01*
X47059427Y-57535870D01*
X47059431Y-57535873D01*
X47059433Y-57535875D01*
X47179527Y-57597066D01*
X47179529Y-57597066D01*
X47179531Y-57597067D01*
X47312651Y-57618151D01*
X47312653Y-57618151D01*
X47312655Y-57618151D01*
X47445774Y-57597067D01*
X47445774Y-57597066D01*
X47445779Y-57597066D01*
X47565873Y-57535875D01*
X47661181Y-57440567D01*
X47722372Y-57320473D01*
X47725381Y-57301476D01*
X47743457Y-57187349D01*
X47743457Y-57187344D01*
X47722373Y-57054225D01*
X47722372Y-57054223D01*
X47722372Y-57054221D01*
X47661181Y-56934127D01*
X47661179Y-56934125D01*
X47661176Y-56934121D01*
X47565878Y-56838823D01*
X47565874Y-56838820D01*
X47565873Y-56838819D01*
X47445779Y-56777628D01*
X47445777Y-56777627D01*
X47445774Y-56777626D01*
X47312655Y-56756543D01*
X47312651Y-56756543D01*
X47179531Y-56777626D01*
X47059431Y-56838820D01*
X47059427Y-56838823D01*
X46964129Y-56934121D01*
X46964126Y-56934125D01*
X46902932Y-57054225D01*
X46881849Y-57187344D01*
X46881849Y-57187349D01*
X45232549Y-57187349D01*
X45155941Y-57002402D01*
X45040977Y-56830345D01*
X45040975Y-56830342D01*
X44894657Y-56684024D01*
X44808626Y-56626541D01*
X44722598Y-56569059D01*
X44531420Y-56489870D01*
X44531412Y-56489868D01*
X44328469Y-56449500D01*
X44328465Y-56449500D01*
X43871535Y-56449500D01*
X43871530Y-56449500D01*
X43668587Y-56489868D01*
X43668579Y-56489870D01*
X43477403Y-56569058D01*
X43305342Y-56684024D01*
X43159024Y-56830342D01*
X43044058Y-57002403D01*
X42964870Y-57193579D01*
X42964868Y-57193587D01*
X42924500Y-57396530D01*
X42924500Y-57603469D01*
X42964868Y-57806412D01*
X42964870Y-57806420D01*
X43023008Y-57946778D01*
X43044059Y-57997598D01*
X43047530Y-58002793D01*
X43159024Y-58169657D01*
X43305342Y-58315975D01*
X43305345Y-58315977D01*
X43465367Y-58422899D01*
X43510170Y-58476509D01*
X43518878Y-58545834D01*
X43488724Y-58608862D01*
X43429282Y-58645581D01*
X43396477Y-58650000D01*
X43325029Y-58650000D01*
X43325012Y-58650001D01*
X43222302Y-58660494D01*
X43055880Y-58715641D01*
X43055875Y-58715643D01*
X42906654Y-58807684D01*
X42782684Y-58931654D01*
X42690643Y-59080875D01*
X42690641Y-59080880D01*
X42635494Y-59247302D01*
X42635493Y-59247309D01*
X42625000Y-59350013D01*
X42625000Y-59750000D01*
X40000000Y-59750000D01*
X40000000Y-55103469D01*
X42924500Y-55103469D01*
X42964868Y-55306412D01*
X42964870Y-55306420D01*
X43044058Y-55497596D01*
X43159024Y-55669657D01*
X43305342Y-55815975D01*
X43305345Y-55815977D01*
X43477402Y-55930941D01*
X43668580Y-56010130D01*
X43871530Y-56050499D01*
X43871534Y-56050500D01*
X43871535Y-56050500D01*
X44328466Y-56050500D01*
X44328467Y-56050499D01*
X44531420Y-56010130D01*
X44722598Y-55930941D01*
X44894655Y-55815977D01*
X45040977Y-55669655D01*
X45155941Y-55497598D01*
X45235130Y-55306420D01*
X45275500Y-55103465D01*
X45275500Y-54896535D01*
X45235130Y-54693580D01*
X45155941Y-54502402D01*
X45040977Y-54330345D01*
X45040975Y-54330342D01*
X44894657Y-54184024D01*
X44804779Y-54123970D01*
X44722598Y-54069059D01*
X44531420Y-53989870D01*
X44531412Y-53989868D01*
X44328469Y-53949500D01*
X44328465Y-53949500D01*
X43871535Y-53949500D01*
X43871530Y-53949500D01*
X43668587Y-53989868D01*
X43668579Y-53989870D01*
X43477403Y-54069058D01*
X43305342Y-54184024D01*
X43159024Y-54330342D01*
X43044058Y-54502403D01*
X42964870Y-54693579D01*
X42964868Y-54693587D01*
X42924500Y-54896530D01*
X42924500Y-55103469D01*
X40000000Y-55103469D01*
X40000000Y-51761286D01*
X51499299Y-51761286D01*
X51499300Y-51761302D01*
X51530963Y-52001809D01*
X51530964Y-52001814D01*
X51530965Y-52001820D01*
X51530966Y-52001822D01*
X51593755Y-52236158D01*
X51686592Y-52460285D01*
X51686596Y-52460295D01*
X51807895Y-52670391D01*
X51955582Y-52862860D01*
X51955588Y-52862867D01*
X52127123Y-53034402D01*
X52127130Y-53034408D01*
X52319599Y-53182095D01*
X52529695Y-53303394D01*
X52529696Y-53303394D01*
X52529699Y-53303396D01*
X52679123Y-53365289D01*
X52753832Y-53396235D01*
X52753833Y-53396235D01*
X52753835Y-53396236D01*
X52988171Y-53459026D01*
X53228698Y-53490692D01*
X53228705Y-53490692D01*
X53471293Y-53490692D01*
X53471300Y-53490692D01*
X53711827Y-53459026D01*
X53946163Y-53396236D01*
X54170299Y-53303396D01*
X54380399Y-53182095D01*
X54539517Y-53059999D01*
X59086427Y-53059999D01*
X59105091Y-53273334D01*
X59105093Y-53273344D01*
X59160516Y-53480188D01*
X59160520Y-53480197D01*
X59251025Y-53674286D01*
X59290617Y-53730830D01*
X59856615Y-53164832D01*
X59877125Y-53241374D01*
X59938988Y-53348525D01*
X60026476Y-53436013D01*
X60133627Y-53497876D01*
X60210168Y-53518385D01*
X59644169Y-54084382D01*
X59700714Y-54123976D01*
X59894803Y-54214480D01*
X59894812Y-54214484D01*
X60101656Y-54269907D01*
X60101666Y-54269909D01*
X60315001Y-54288574D01*
X60315003Y-54288574D01*
X60528337Y-54269909D01*
X60528347Y-54269907D01*
X60735191Y-54214484D01*
X60735205Y-54214479D01*
X60929287Y-54123977D01*
X60929299Y-54123970D01*
X60985832Y-54084384D01*
X60985833Y-54084382D01*
X60419836Y-53518385D01*
X60496377Y-53497876D01*
X60603528Y-53436013D01*
X60691016Y-53348525D01*
X60752879Y-53241374D01*
X60773388Y-53164832D01*
X61339385Y-53730830D01*
X61339387Y-53730829D01*
X61378973Y-53674296D01*
X61378980Y-53674284D01*
X61469482Y-53480202D01*
X61469487Y-53480188D01*
X61524910Y-53273344D01*
X61524912Y-53273334D01*
X61543577Y-53059999D01*
X62155509Y-53059999D01*
X62175821Y-53253253D01*
X62175822Y-53253255D01*
X62235868Y-53438058D01*
X62235869Y-53438060D01*
X62316075Y-53576982D01*
X62333026Y-53606341D01*
X62378318Y-53656643D01*
X62463043Y-53750741D01*
X62463046Y-53750743D01*
X62463049Y-53750746D01*
X62580953Y-53836408D01*
X62620256Y-53864964D01*
X62688399Y-53895302D01*
X62797772Y-53943998D01*
X62987843Y-53984399D01*
X63182159Y-53984399D01*
X63372230Y-53943998D01*
X63549747Y-53864963D01*
X63706953Y-53750746D01*
X63724886Y-53730830D01*
X63735123Y-53719459D01*
X63836976Y-53606341D01*
X63934134Y-53438057D01*
X63994181Y-53253251D01*
X64014493Y-53059999D01*
X64925509Y-53059999D01*
X64945821Y-53253253D01*
X64945822Y-53253255D01*
X65005868Y-53438058D01*
X65005869Y-53438060D01*
X65086075Y-53576982D01*
X65103026Y-53606341D01*
X65148318Y-53656643D01*
X65233043Y-53750741D01*
X65233046Y-53750743D01*
X65233049Y-53750746D01*
X65350953Y-53836408D01*
X65390256Y-53864964D01*
X65458399Y-53895302D01*
X65567772Y-53943998D01*
X65757843Y-53984399D01*
X65952159Y-53984399D01*
X66142230Y-53943998D01*
X66319747Y-53864963D01*
X66476953Y-53750746D01*
X66494886Y-53730830D01*
X66505123Y-53719459D01*
X66606976Y-53606341D01*
X66704134Y-53438057D01*
X66764181Y-53253251D01*
X66784493Y-53059999D01*
X67695509Y-53059999D01*
X67715821Y-53253253D01*
X67715822Y-53253255D01*
X67775868Y-53438058D01*
X67775869Y-53438060D01*
X67856075Y-53576982D01*
X67873026Y-53606341D01*
X67918318Y-53656643D01*
X68003043Y-53750741D01*
X68003046Y-53750743D01*
X68003049Y-53750746D01*
X68120953Y-53836408D01*
X68160256Y-53864964D01*
X68228399Y-53895302D01*
X68337772Y-53943998D01*
X68527843Y-53984399D01*
X68722159Y-53984399D01*
X68912230Y-53943998D01*
X69089747Y-53864963D01*
X69246953Y-53750746D01*
X69264886Y-53730830D01*
X69275123Y-53719459D01*
X69376976Y-53606341D01*
X69474134Y-53438057D01*
X69534181Y-53253251D01*
X69554493Y-53059999D01*
X70465508Y-53059999D01*
X70485820Y-53253253D01*
X70485821Y-53253255D01*
X70545867Y-53438058D01*
X70545868Y-53438060D01*
X70626074Y-53576982D01*
X70643025Y-53606341D01*
X70688317Y-53656643D01*
X70773042Y-53750741D01*
X70773045Y-53750743D01*
X70773048Y-53750746D01*
X70890952Y-53836408D01*
X70930255Y-53864964D01*
X70998398Y-53895302D01*
X71107771Y-53943998D01*
X71297842Y-53984399D01*
X71492158Y-53984399D01*
X71682229Y-53943998D01*
X71859746Y-53864963D01*
X72016952Y-53750746D01*
X72034885Y-53730830D01*
X72045122Y-53719459D01*
X72146975Y-53606341D01*
X72244133Y-53438057D01*
X72304180Y-53253251D01*
X72324492Y-53059999D01*
X73235508Y-53059999D01*
X73255820Y-53253253D01*
X73255821Y-53253255D01*
X73315867Y-53438058D01*
X73315868Y-53438060D01*
X73396074Y-53576982D01*
X73413025Y-53606341D01*
X73458317Y-53656643D01*
X73543042Y-53750741D01*
X73543045Y-53750743D01*
X73543048Y-53750746D01*
X73660952Y-53836408D01*
X73700255Y-53864964D01*
X73768398Y-53895302D01*
X73877771Y-53943998D01*
X74067842Y-53984399D01*
X74262158Y-53984399D01*
X74452229Y-53943998D01*
X74629746Y-53864963D01*
X74786952Y-53750746D01*
X74804885Y-53730830D01*
X74815122Y-53719459D01*
X74916975Y-53606341D01*
X75014133Y-53438057D01*
X75074180Y-53253251D01*
X75094492Y-53059999D01*
X76005507Y-53059999D01*
X76025819Y-53253253D01*
X76025820Y-53253255D01*
X76085866Y-53438058D01*
X76085867Y-53438060D01*
X76166073Y-53576982D01*
X76183024Y-53606341D01*
X76228316Y-53656643D01*
X76313041Y-53750741D01*
X76313044Y-53750743D01*
X76313047Y-53750746D01*
X76430951Y-53836408D01*
X76470254Y-53864964D01*
X76538397Y-53895302D01*
X76647770Y-53943998D01*
X76837841Y-53984399D01*
X77032157Y-53984399D01*
X77222228Y-53943998D01*
X77399745Y-53864963D01*
X77556951Y-53750746D01*
X77574884Y-53730830D01*
X77585121Y-53719459D01*
X77686974Y-53606341D01*
X77784132Y-53438057D01*
X77844179Y-53253251D01*
X77864491Y-53059999D01*
X78476424Y-53059999D01*
X78495088Y-53273334D01*
X78495090Y-53273344D01*
X78550513Y-53480188D01*
X78550517Y-53480197D01*
X78641022Y-53674286D01*
X78680614Y-53730830D01*
X79246612Y-53164832D01*
X79267122Y-53241374D01*
X79328985Y-53348525D01*
X79416473Y-53436013D01*
X79523624Y-53497876D01*
X79600165Y-53518385D01*
X79034166Y-54084382D01*
X79090711Y-54123976D01*
X79284800Y-54214480D01*
X79284809Y-54214484D01*
X79491653Y-54269907D01*
X79491663Y-54269909D01*
X79704998Y-54288574D01*
X79705000Y-54288574D01*
X79918334Y-54269909D01*
X79918344Y-54269907D01*
X80125188Y-54214484D01*
X80125202Y-54214479D01*
X80319284Y-54123977D01*
X80319296Y-54123970D01*
X80375829Y-54084384D01*
X80375830Y-54084382D01*
X79809833Y-53518385D01*
X79886374Y-53497876D01*
X79993525Y-53436013D01*
X80081013Y-53348525D01*
X80142876Y-53241374D01*
X80163385Y-53164832D01*
X80729382Y-53730830D01*
X80729384Y-53730829D01*
X80768970Y-53674296D01*
X80768977Y-53674284D01*
X80859479Y-53480202D01*
X80859484Y-53480188D01*
X80914907Y-53273344D01*
X80914909Y-53273334D01*
X80933574Y-53059999D01*
X80933574Y-53059998D01*
X80914909Y-52846663D01*
X80914907Y-52846653D01*
X80859484Y-52639809D01*
X80859480Y-52639800D01*
X80768976Y-52445713D01*
X80729382Y-52389166D01*
X80163385Y-52955164D01*
X80142876Y-52878624D01*
X80081013Y-52771473D01*
X79993525Y-52683985D01*
X79886374Y-52622122D01*
X79809832Y-52601612D01*
X80375830Y-52035614D01*
X80319286Y-51996022D01*
X80125197Y-51905517D01*
X80125188Y-51905513D01*
X79918344Y-51850090D01*
X79918334Y-51850088D01*
X79705000Y-51831424D01*
X79704998Y-51831424D01*
X79491663Y-51850088D01*
X79491653Y-51850090D01*
X79284809Y-51905513D01*
X79284800Y-51905517D01*
X79090709Y-51996023D01*
X79034166Y-52035613D01*
X79600165Y-52601612D01*
X79523624Y-52622122D01*
X79416473Y-52683985D01*
X79328985Y-52771473D01*
X79267122Y-52878624D01*
X79246612Y-52955165D01*
X78680613Y-52389166D01*
X78641023Y-52445709D01*
X78550517Y-52639800D01*
X78550513Y-52639809D01*
X78495090Y-52846653D01*
X78495088Y-52846663D01*
X78476424Y-53059998D01*
X78476424Y-53059999D01*
X77864491Y-53059999D01*
X77844179Y-52866747D01*
X77784132Y-52681941D01*
X77686974Y-52513657D01*
X77625793Y-52445709D01*
X77556956Y-52369256D01*
X77556953Y-52369254D01*
X77556952Y-52369253D01*
X77556951Y-52369252D01*
X77478348Y-52312143D01*
X77399743Y-52255033D01*
X77263456Y-52194355D01*
X77222228Y-52176000D01*
X77222226Y-52175999D01*
X77032157Y-52135599D01*
X76837841Y-52135599D01*
X76647772Y-52175999D01*
X76470254Y-52255033D01*
X76313044Y-52369254D01*
X76313041Y-52369256D01*
X76183023Y-52513658D01*
X76085867Y-52681937D01*
X76085866Y-52681939D01*
X76025820Y-52866742D01*
X76025819Y-52866744D01*
X76005507Y-53059999D01*
X75094492Y-53059999D01*
X75074180Y-52866747D01*
X75014133Y-52681941D01*
X74916975Y-52513657D01*
X74855794Y-52445709D01*
X74786957Y-52369256D01*
X74786954Y-52369254D01*
X74786953Y-52369253D01*
X74786952Y-52369252D01*
X74708349Y-52312143D01*
X74629744Y-52255033D01*
X74493457Y-52194355D01*
X74452229Y-52176000D01*
X74452227Y-52175999D01*
X74262158Y-52135599D01*
X74067842Y-52135599D01*
X73877773Y-52175999D01*
X73700255Y-52255033D01*
X73543045Y-52369254D01*
X73543042Y-52369256D01*
X73413024Y-52513658D01*
X73315868Y-52681937D01*
X73315867Y-52681939D01*
X73255821Y-52866742D01*
X73255820Y-52866744D01*
X73235508Y-53059999D01*
X72324492Y-53059999D01*
X72304180Y-52866747D01*
X72244133Y-52681941D01*
X72146975Y-52513657D01*
X72085794Y-52445709D01*
X72016957Y-52369256D01*
X72016954Y-52369254D01*
X72016953Y-52369253D01*
X72016952Y-52369252D01*
X71938349Y-52312143D01*
X71859744Y-52255033D01*
X71723457Y-52194355D01*
X71682229Y-52176000D01*
X71682227Y-52175999D01*
X71492158Y-52135599D01*
X71297842Y-52135599D01*
X71107773Y-52175999D01*
X70930255Y-52255033D01*
X70773045Y-52369254D01*
X70773042Y-52369256D01*
X70643024Y-52513658D01*
X70545868Y-52681937D01*
X70545867Y-52681939D01*
X70485821Y-52866742D01*
X70485820Y-52866744D01*
X70465508Y-53059999D01*
X69554493Y-53059999D01*
X69534181Y-52866747D01*
X69474134Y-52681941D01*
X69376976Y-52513657D01*
X69315795Y-52445709D01*
X69246958Y-52369256D01*
X69246955Y-52369254D01*
X69246954Y-52369253D01*
X69246953Y-52369252D01*
X69168350Y-52312143D01*
X69089745Y-52255033D01*
X68953458Y-52194355D01*
X68912230Y-52176000D01*
X68912228Y-52175999D01*
X68722159Y-52135599D01*
X68527843Y-52135599D01*
X68337774Y-52175999D01*
X68160256Y-52255033D01*
X68003046Y-52369254D01*
X68003043Y-52369256D01*
X67873025Y-52513658D01*
X67775869Y-52681937D01*
X67775868Y-52681939D01*
X67715822Y-52866742D01*
X67715821Y-52866744D01*
X67695509Y-53059999D01*
X66784493Y-53059999D01*
X66764181Y-52866747D01*
X66704134Y-52681941D01*
X66606976Y-52513657D01*
X66545795Y-52445709D01*
X66476958Y-52369256D01*
X66476955Y-52369254D01*
X66476954Y-52369253D01*
X66476953Y-52369252D01*
X66398350Y-52312143D01*
X66319745Y-52255033D01*
X66183458Y-52194355D01*
X66142230Y-52176000D01*
X66142228Y-52175999D01*
X65952159Y-52135599D01*
X65757843Y-52135599D01*
X65567774Y-52175999D01*
X65390256Y-52255033D01*
X65233046Y-52369254D01*
X65233043Y-52369256D01*
X65103025Y-52513658D01*
X65005869Y-52681937D01*
X65005868Y-52681939D01*
X64945822Y-52866742D01*
X64945821Y-52866744D01*
X64925509Y-53059999D01*
X64014493Y-53059999D01*
X63994181Y-52866747D01*
X63934134Y-52681941D01*
X63836976Y-52513657D01*
X63775795Y-52445709D01*
X63706958Y-52369256D01*
X63706955Y-52369254D01*
X63706954Y-52369253D01*
X63706953Y-52369252D01*
X63628350Y-52312143D01*
X63549745Y-52255033D01*
X63413458Y-52194355D01*
X63372230Y-52176000D01*
X63372228Y-52175999D01*
X63182159Y-52135599D01*
X62987843Y-52135599D01*
X62797774Y-52175999D01*
X62620256Y-52255033D01*
X62463046Y-52369254D01*
X62463043Y-52369256D01*
X62333025Y-52513658D01*
X62235869Y-52681937D01*
X62235868Y-52681939D01*
X62175822Y-52866742D01*
X62175821Y-52866744D01*
X62155509Y-53059999D01*
X61543577Y-53059999D01*
X61543577Y-53059998D01*
X61524912Y-52846663D01*
X61524910Y-52846653D01*
X61469487Y-52639809D01*
X61469483Y-52639800D01*
X61378979Y-52445713D01*
X61339385Y-52389166D01*
X60773388Y-52955164D01*
X60752879Y-52878624D01*
X60691016Y-52771473D01*
X60603528Y-52683985D01*
X60496377Y-52622122D01*
X60419835Y-52601612D01*
X60985833Y-52035614D01*
X60929289Y-51996022D01*
X60735200Y-51905517D01*
X60735191Y-51905513D01*
X60528347Y-51850090D01*
X60528337Y-51850088D01*
X60315003Y-51831424D01*
X60315001Y-51831424D01*
X60101666Y-51850088D01*
X60101656Y-51850090D01*
X59894812Y-51905513D01*
X59894803Y-51905517D01*
X59700712Y-51996023D01*
X59644169Y-52035613D01*
X60210168Y-52601612D01*
X60133627Y-52622122D01*
X60026476Y-52683985D01*
X59938988Y-52771473D01*
X59877125Y-52878624D01*
X59856615Y-52955165D01*
X59290616Y-52389166D01*
X59251026Y-52445709D01*
X59160520Y-52639800D01*
X59160516Y-52639809D01*
X59105093Y-52846653D01*
X59105091Y-52846663D01*
X59086427Y-53059998D01*
X59086427Y-53059999D01*
X54539517Y-53059999D01*
X54572869Y-53034407D01*
X54744414Y-52862862D01*
X54892102Y-52670392D01*
X55013403Y-52460292D01*
X55106243Y-52236156D01*
X55169033Y-52001820D01*
X55200699Y-51761293D01*
X55200699Y-51761286D01*
X84819299Y-51761286D01*
X84819300Y-51761302D01*
X84850963Y-52001809D01*
X84850964Y-52001814D01*
X84850965Y-52001820D01*
X84850966Y-52001822D01*
X84913755Y-52236158D01*
X85006592Y-52460285D01*
X85006596Y-52460295D01*
X85127895Y-52670391D01*
X85275582Y-52862860D01*
X85275588Y-52862867D01*
X85447123Y-53034402D01*
X85447130Y-53034408D01*
X85639599Y-53182095D01*
X85849695Y-53303394D01*
X85849696Y-53303394D01*
X85849699Y-53303396D01*
X85999123Y-53365289D01*
X86073832Y-53396235D01*
X86073833Y-53396235D01*
X86073835Y-53396236D01*
X86308171Y-53459026D01*
X86548698Y-53490692D01*
X86548705Y-53490692D01*
X86791293Y-53490692D01*
X86791300Y-53490692D01*
X87031827Y-53459026D01*
X87266163Y-53396236D01*
X87490299Y-53303396D01*
X87700399Y-53182095D01*
X87892869Y-53034407D01*
X88064414Y-52862862D01*
X88212102Y-52670392D01*
X88333403Y-52460292D01*
X88426243Y-52236156D01*
X88489033Y-52001820D01*
X88520699Y-51761293D01*
X88520699Y-51518691D01*
X88489033Y-51278164D01*
X88426243Y-51043828D01*
X88333403Y-50819692D01*
X88302601Y-50766342D01*
X88212102Y-50609592D01*
X88064415Y-50417123D01*
X88064409Y-50417116D01*
X87892874Y-50245581D01*
X87892867Y-50245575D01*
X87700398Y-50097888D01*
X87490302Y-49976589D01*
X87490292Y-49976585D01*
X87266165Y-49883748D01*
X87140585Y-49850099D01*
X87031827Y-49820958D01*
X87031821Y-49820957D01*
X87031816Y-49820956D01*
X86791309Y-49789293D01*
X86791306Y-49789292D01*
X86791300Y-49789292D01*
X86548698Y-49789292D01*
X86548692Y-49789292D01*
X86548688Y-49789293D01*
X86308181Y-49820956D01*
X86308174Y-49820957D01*
X86308171Y-49820958D01*
X86262202Y-49833275D01*
X86073832Y-49883748D01*
X85849705Y-49976585D01*
X85849695Y-49976589D01*
X85639599Y-50097888D01*
X85447130Y-50245575D01*
X85447123Y-50245581D01*
X85275588Y-50417116D01*
X85275582Y-50417123D01*
X85127895Y-50609592D01*
X85006596Y-50819688D01*
X85006592Y-50819698D01*
X84913755Y-51043825D01*
X84850966Y-51278161D01*
X84850963Y-51278174D01*
X84819300Y-51518681D01*
X84819299Y-51518697D01*
X84819299Y-51761286D01*
X55200699Y-51761286D01*
X55200699Y-51518691D01*
X55169033Y-51278164D01*
X55106243Y-51043828D01*
X55013403Y-50819692D01*
X54982601Y-50766342D01*
X54892102Y-50609592D01*
X54744415Y-50417123D01*
X54744409Y-50417116D01*
X54572874Y-50245581D01*
X54572867Y-50245575D01*
X54539537Y-50220000D01*
X60770508Y-50220000D01*
X60790820Y-50413254D01*
X60790821Y-50413256D01*
X60850867Y-50598059D01*
X60850868Y-50598061D01*
X60931074Y-50736983D01*
X60948025Y-50766342D01*
X60993317Y-50816644D01*
X61078042Y-50910742D01*
X61078045Y-50910744D01*
X61078048Y-50910747D01*
X61195952Y-50996409D01*
X61235255Y-51024965D01*
X61303398Y-51055303D01*
X61412771Y-51103999D01*
X61602842Y-51144400D01*
X61797158Y-51144400D01*
X61987229Y-51103999D01*
X62164746Y-51024964D01*
X62321952Y-50910747D01*
X62339885Y-50890831D01*
X62350122Y-50879460D01*
X62451975Y-50766342D01*
X62549133Y-50598058D01*
X62609180Y-50413252D01*
X62629492Y-50220000D01*
X63540508Y-50220000D01*
X63560820Y-50413254D01*
X63560821Y-50413256D01*
X63620867Y-50598059D01*
X63620868Y-50598061D01*
X63701074Y-50736983D01*
X63718025Y-50766342D01*
X63763317Y-50816644D01*
X63848042Y-50910742D01*
X63848045Y-50910744D01*
X63848048Y-50910747D01*
X63965952Y-50996409D01*
X64005255Y-51024965D01*
X64073398Y-51055303D01*
X64182771Y-51103999D01*
X64372842Y-51144400D01*
X64567158Y-51144400D01*
X64757229Y-51103999D01*
X64934746Y-51024964D01*
X65091952Y-50910747D01*
X65109885Y-50890831D01*
X65120122Y-50879460D01*
X65221975Y-50766342D01*
X65319133Y-50598058D01*
X65379180Y-50413252D01*
X65399492Y-50220000D01*
X66011424Y-50220000D01*
X66030088Y-50433335D01*
X66030090Y-50433345D01*
X66085513Y-50640189D01*
X66085517Y-50640198D01*
X66176022Y-50834287D01*
X66215614Y-50890831D01*
X66781612Y-50324833D01*
X66802122Y-50401375D01*
X66863985Y-50508526D01*
X66951473Y-50596014D01*
X67058624Y-50657877D01*
X67135165Y-50678386D01*
X66569166Y-51244383D01*
X66625711Y-51283977D01*
X66819800Y-51374481D01*
X66819809Y-51374485D01*
X67026653Y-51429908D01*
X67026663Y-51429910D01*
X67239998Y-51448575D01*
X67240000Y-51448575D01*
X67453334Y-51429910D01*
X67453344Y-51429908D01*
X67660188Y-51374485D01*
X67660202Y-51374480D01*
X67854284Y-51283978D01*
X67854296Y-51283971D01*
X67910829Y-51244385D01*
X67910830Y-51244383D01*
X67344833Y-50678386D01*
X67421374Y-50657877D01*
X67528525Y-50596014D01*
X67616013Y-50508526D01*
X67677876Y-50401375D01*
X67698385Y-50324833D01*
X68264383Y-50890831D01*
X68264384Y-50890830D01*
X68303970Y-50834297D01*
X68303977Y-50834285D01*
X68394479Y-50640203D01*
X68394484Y-50640189D01*
X68449907Y-50433345D01*
X68449909Y-50433335D01*
X68468574Y-50220000D01*
X69080507Y-50220000D01*
X69100819Y-50413254D01*
X69100820Y-50413256D01*
X69160866Y-50598059D01*
X69160867Y-50598061D01*
X69241073Y-50736983D01*
X69258024Y-50766342D01*
X69303316Y-50816644D01*
X69388041Y-50910742D01*
X69388044Y-50910744D01*
X69388047Y-50910747D01*
X69505951Y-50996409D01*
X69545254Y-51024965D01*
X69613397Y-51055303D01*
X69722770Y-51103999D01*
X69912841Y-51144400D01*
X70107157Y-51144400D01*
X70297228Y-51103999D01*
X70474745Y-51024964D01*
X70631951Y-50910747D01*
X70649884Y-50890831D01*
X70660121Y-50879460D01*
X70761974Y-50766342D01*
X70859132Y-50598058D01*
X70919179Y-50413252D01*
X70939491Y-50220000D01*
X71850507Y-50220000D01*
X71870819Y-50413254D01*
X71870820Y-50413256D01*
X71930866Y-50598059D01*
X71930867Y-50598061D01*
X72011073Y-50736983D01*
X72028024Y-50766342D01*
X72073316Y-50816644D01*
X72158041Y-50910742D01*
X72158044Y-50910744D01*
X72158047Y-50910747D01*
X72275951Y-50996409D01*
X72315254Y-51024965D01*
X72383397Y-51055303D01*
X72492770Y-51103999D01*
X72682841Y-51144400D01*
X72877157Y-51144400D01*
X73067228Y-51103999D01*
X73244745Y-51024964D01*
X73401951Y-50910747D01*
X73419884Y-50890831D01*
X73430121Y-50879460D01*
X73531974Y-50766342D01*
X73629132Y-50598058D01*
X73689179Y-50413252D01*
X73709491Y-50220000D01*
X74620506Y-50220000D01*
X74640818Y-50413254D01*
X74640819Y-50413256D01*
X74700865Y-50598059D01*
X74700866Y-50598061D01*
X74781072Y-50736983D01*
X74798023Y-50766342D01*
X74843315Y-50816644D01*
X74928040Y-50910742D01*
X74928043Y-50910744D01*
X74928046Y-50910747D01*
X75045950Y-50996409D01*
X75085253Y-51024965D01*
X75153396Y-51055303D01*
X75262769Y-51103999D01*
X75452840Y-51144400D01*
X75647156Y-51144400D01*
X75837227Y-51103999D01*
X76014744Y-51024964D01*
X76171950Y-50910747D01*
X76189883Y-50890831D01*
X76200120Y-50879460D01*
X76301973Y-50766342D01*
X76399131Y-50598058D01*
X76459178Y-50413252D01*
X76479490Y-50220000D01*
X77091423Y-50220000D01*
X77110087Y-50433335D01*
X77110089Y-50433345D01*
X77165512Y-50640189D01*
X77165516Y-50640198D01*
X77256021Y-50834287D01*
X77295613Y-50890831D01*
X77861611Y-50324833D01*
X77882121Y-50401375D01*
X77943984Y-50508526D01*
X78031472Y-50596014D01*
X78138623Y-50657877D01*
X78215164Y-50678386D01*
X77649165Y-51244383D01*
X77705710Y-51283977D01*
X77899799Y-51374481D01*
X77899808Y-51374485D01*
X78106652Y-51429908D01*
X78106662Y-51429910D01*
X78319997Y-51448575D01*
X78319999Y-51448575D01*
X78533333Y-51429910D01*
X78533343Y-51429908D01*
X78740187Y-51374485D01*
X78740201Y-51374480D01*
X78934283Y-51283978D01*
X78934295Y-51283971D01*
X78990828Y-51244385D01*
X78990829Y-51244383D01*
X78424832Y-50678386D01*
X78501373Y-50657877D01*
X78608524Y-50596014D01*
X78696012Y-50508526D01*
X78757875Y-50401375D01*
X78778384Y-50324833D01*
X79344382Y-50890831D01*
X79344383Y-50890830D01*
X79383969Y-50834297D01*
X79383976Y-50834285D01*
X79474478Y-50640203D01*
X79474483Y-50640189D01*
X79529906Y-50433345D01*
X79529908Y-50433335D01*
X79548573Y-50220000D01*
X79548573Y-50219999D01*
X79529908Y-50006664D01*
X79529906Y-50006654D01*
X79474483Y-49799810D01*
X79474479Y-49799801D01*
X79383975Y-49605714D01*
X79344381Y-49549167D01*
X78778384Y-50115165D01*
X78757875Y-50038625D01*
X78696012Y-49931474D01*
X78608524Y-49843986D01*
X78501373Y-49782123D01*
X78424831Y-49761613D01*
X78990829Y-49195615D01*
X78934285Y-49156023D01*
X78740196Y-49065518D01*
X78740187Y-49065514D01*
X78533343Y-49010091D01*
X78533333Y-49010089D01*
X78319999Y-48991425D01*
X78319997Y-48991425D01*
X78106662Y-49010089D01*
X78106652Y-49010091D01*
X77899808Y-49065514D01*
X77899799Y-49065518D01*
X77705708Y-49156024D01*
X77649165Y-49195614D01*
X78215164Y-49761613D01*
X78138623Y-49782123D01*
X78031472Y-49843986D01*
X77943984Y-49931474D01*
X77882121Y-50038625D01*
X77861611Y-50115166D01*
X77295612Y-49549167D01*
X77256022Y-49605710D01*
X77165516Y-49799801D01*
X77165512Y-49799810D01*
X77110089Y-50006654D01*
X77110087Y-50006664D01*
X77091423Y-50219999D01*
X77091423Y-50220000D01*
X76479490Y-50220000D01*
X76459178Y-50026748D01*
X76399131Y-49841942D01*
X76301973Y-49673658D01*
X76240792Y-49605710D01*
X76171955Y-49529257D01*
X76171952Y-49529255D01*
X76171951Y-49529254D01*
X76171950Y-49529253D01*
X76093347Y-49472144D01*
X76014742Y-49415034D01*
X75878455Y-49354356D01*
X75837227Y-49336001D01*
X75837225Y-49336000D01*
X75647156Y-49295600D01*
X75452840Y-49295600D01*
X75262771Y-49336000D01*
X75085253Y-49415034D01*
X74928043Y-49529255D01*
X74928040Y-49529257D01*
X74798022Y-49673659D01*
X74700866Y-49841938D01*
X74700865Y-49841940D01*
X74640819Y-50026743D01*
X74640818Y-50026745D01*
X74620506Y-50220000D01*
X73709491Y-50220000D01*
X73689179Y-50026748D01*
X73629132Y-49841942D01*
X73531974Y-49673658D01*
X73470793Y-49605710D01*
X73401956Y-49529257D01*
X73401953Y-49529255D01*
X73401952Y-49529254D01*
X73401951Y-49529253D01*
X73323348Y-49472144D01*
X73244743Y-49415034D01*
X73108456Y-49354356D01*
X73067228Y-49336001D01*
X73067226Y-49336000D01*
X72877157Y-49295600D01*
X72682841Y-49295600D01*
X72492772Y-49336000D01*
X72315254Y-49415034D01*
X72158044Y-49529255D01*
X72158041Y-49529257D01*
X72028023Y-49673659D01*
X71930867Y-49841938D01*
X71930866Y-49841940D01*
X71870820Y-50026743D01*
X71870819Y-50026745D01*
X71850507Y-50220000D01*
X70939491Y-50220000D01*
X70919179Y-50026748D01*
X70859132Y-49841942D01*
X70761974Y-49673658D01*
X70700793Y-49605710D01*
X70631956Y-49529257D01*
X70631953Y-49529255D01*
X70631952Y-49529254D01*
X70631951Y-49529253D01*
X70553348Y-49472144D01*
X70474743Y-49415034D01*
X70338456Y-49354356D01*
X70297228Y-49336001D01*
X70297226Y-49336000D01*
X70107157Y-49295600D01*
X69912841Y-49295600D01*
X69722772Y-49336000D01*
X69545254Y-49415034D01*
X69388044Y-49529255D01*
X69388041Y-49529257D01*
X69258023Y-49673659D01*
X69160867Y-49841938D01*
X69160866Y-49841940D01*
X69100820Y-50026743D01*
X69100819Y-50026745D01*
X69080507Y-50220000D01*
X68468574Y-50220000D01*
X68468574Y-50219999D01*
X68449909Y-50006664D01*
X68449907Y-50006654D01*
X68394484Y-49799810D01*
X68394480Y-49799801D01*
X68303976Y-49605714D01*
X68264382Y-49549167D01*
X67698385Y-50115165D01*
X67677876Y-50038625D01*
X67616013Y-49931474D01*
X67528525Y-49843986D01*
X67421374Y-49782123D01*
X67344832Y-49761613D01*
X67910830Y-49195615D01*
X67854286Y-49156023D01*
X67660197Y-49065518D01*
X67660188Y-49065514D01*
X67453344Y-49010091D01*
X67453334Y-49010089D01*
X67240000Y-48991425D01*
X67239998Y-48991425D01*
X67026663Y-49010089D01*
X67026653Y-49010091D01*
X66819809Y-49065514D01*
X66819800Y-49065518D01*
X66625709Y-49156024D01*
X66569166Y-49195614D01*
X67135165Y-49761613D01*
X67058624Y-49782123D01*
X66951473Y-49843986D01*
X66863985Y-49931474D01*
X66802122Y-50038625D01*
X66781612Y-50115166D01*
X66215613Y-49549167D01*
X66176023Y-49605710D01*
X66085517Y-49799801D01*
X66085513Y-49799810D01*
X66030090Y-50006654D01*
X66030088Y-50006664D01*
X66011424Y-50219999D01*
X66011424Y-50220000D01*
X65399492Y-50220000D01*
X65379180Y-50026748D01*
X65319133Y-49841942D01*
X65221975Y-49673658D01*
X65160794Y-49605710D01*
X65091957Y-49529257D01*
X65091954Y-49529255D01*
X65091953Y-49529254D01*
X65091952Y-49529253D01*
X65013349Y-49472144D01*
X64934744Y-49415034D01*
X64798457Y-49354356D01*
X64757229Y-49336001D01*
X64757227Y-49336000D01*
X64567158Y-49295600D01*
X64372842Y-49295600D01*
X64182773Y-49336000D01*
X64005255Y-49415034D01*
X63848045Y-49529255D01*
X63848042Y-49529257D01*
X63718024Y-49673659D01*
X63620868Y-49841938D01*
X63620867Y-49841940D01*
X63560821Y-50026743D01*
X63560820Y-50026745D01*
X63540508Y-50220000D01*
X62629492Y-50220000D01*
X62609180Y-50026748D01*
X62549133Y-49841942D01*
X62451975Y-49673658D01*
X62390794Y-49605710D01*
X62321957Y-49529257D01*
X62321954Y-49529255D01*
X62321953Y-49529254D01*
X62321952Y-49529253D01*
X62243349Y-49472144D01*
X62164744Y-49415034D01*
X62028457Y-49354356D01*
X61987229Y-49336001D01*
X61987227Y-49336000D01*
X61797158Y-49295600D01*
X61602842Y-49295600D01*
X61412773Y-49336000D01*
X61235255Y-49415034D01*
X61078045Y-49529255D01*
X61078042Y-49529257D01*
X60948024Y-49673659D01*
X60850868Y-49841938D01*
X60850867Y-49841940D01*
X60790821Y-50026743D01*
X60790820Y-50026745D01*
X60770508Y-50220000D01*
X54539537Y-50220000D01*
X54380398Y-50097888D01*
X54170302Y-49976589D01*
X54170292Y-49976585D01*
X53946165Y-49883748D01*
X53820585Y-49850099D01*
X53711827Y-49820958D01*
X53711821Y-49820957D01*
X53711816Y-49820956D01*
X53471309Y-49789293D01*
X53471306Y-49789292D01*
X53471300Y-49789292D01*
X53228698Y-49789292D01*
X53228692Y-49789292D01*
X53228688Y-49789293D01*
X52988181Y-49820956D01*
X52988174Y-49820957D01*
X52988171Y-49820958D01*
X52942202Y-49833275D01*
X52753832Y-49883748D01*
X52529705Y-49976585D01*
X52529695Y-49976589D01*
X52319599Y-50097888D01*
X52127130Y-50245575D01*
X52127123Y-50245581D01*
X51955588Y-50417116D01*
X51955582Y-50417123D01*
X51807895Y-50609592D01*
X51686596Y-50819688D01*
X51686592Y-50819698D01*
X51593755Y-51043825D01*
X51530966Y-51278161D01*
X51530963Y-51278174D01*
X51499300Y-51518681D01*
X51499299Y-51518697D01*
X51499299Y-51761286D01*
X40000000Y-51761286D01*
X40000000Y-45000710D01*
X40000004Y-45000000D01*
X41294922Y-45000000D01*
X41315219Y-45387287D01*
X41375886Y-45770323D01*
X41375887Y-45770330D01*
X41476262Y-46144936D01*
X41615244Y-46506994D01*
X41791310Y-46852543D01*
X42002531Y-47177793D01*
X42211095Y-47435350D01*
X42211096Y-47435350D01*
X43705748Y-45940698D01*
X43779588Y-46042330D01*
X43957670Y-46220412D01*
X44059300Y-46294251D01*
X42564648Y-47788903D01*
X42564649Y-47788904D01*
X42822206Y-47997468D01*
X43147456Y-48208689D01*
X43493005Y-48384755D01*
X43855063Y-48523737D01*
X44229669Y-48624112D01*
X44229676Y-48624113D01*
X44612712Y-48684780D01*
X44999999Y-48705078D01*
X45000001Y-48705078D01*
X45387287Y-48684780D01*
X45770323Y-48624113D01*
X45770330Y-48624112D01*
X46144936Y-48523737D01*
X46506994Y-48384755D01*
X46852543Y-48208689D01*
X47177783Y-47997476D01*
X47177785Y-47997475D01*
X47435349Y-47788902D01*
X45940698Y-46294251D01*
X46042330Y-46220412D01*
X46220412Y-46042330D01*
X46294251Y-45940698D01*
X47788902Y-47435349D01*
X47997475Y-47177785D01*
X47997476Y-47177783D01*
X48208689Y-46852543D01*
X48384755Y-46506994D01*
X48523737Y-46144936D01*
X48624112Y-45770330D01*
X48624113Y-45770323D01*
X48684780Y-45387287D01*
X48705078Y-45000000D01*
X91294922Y-45000000D01*
X91315219Y-45387287D01*
X91375886Y-45770323D01*
X91375887Y-45770330D01*
X91476262Y-46144936D01*
X91615244Y-46506994D01*
X91791310Y-46852543D01*
X92002531Y-47177793D01*
X92211095Y-47435350D01*
X92211096Y-47435350D01*
X93705748Y-45940698D01*
X93779588Y-46042330D01*
X93957670Y-46220412D01*
X94059300Y-46294251D01*
X92564648Y-47788903D01*
X92564649Y-47788904D01*
X92822206Y-47997468D01*
X93147456Y-48208689D01*
X93493005Y-48384755D01*
X93855063Y-48523737D01*
X94229669Y-48624112D01*
X94229676Y-48624113D01*
X94612712Y-48684780D01*
X94999999Y-48705078D01*
X95000001Y-48705078D01*
X95387287Y-48684780D01*
X95770323Y-48624113D01*
X95770330Y-48624112D01*
X96144936Y-48523737D01*
X96506994Y-48384755D01*
X96852543Y-48208689D01*
X97177783Y-47997476D01*
X97177785Y-47997475D01*
X97435349Y-47788902D01*
X95940698Y-46294251D01*
X96042330Y-46220412D01*
X96220412Y-46042330D01*
X96294251Y-45940698D01*
X97788902Y-47435349D01*
X97997475Y-47177785D01*
X97997476Y-47177783D01*
X98208689Y-46852543D01*
X98384755Y-46506994D01*
X98523737Y-46144936D01*
X98624112Y-45770330D01*
X98624113Y-45770323D01*
X98684780Y-45387287D01*
X98705078Y-45000000D01*
X98705078Y-44999999D01*
X98684780Y-44612712D01*
X98624113Y-44229676D01*
X98624112Y-44229669D01*
X98523737Y-43855063D01*
X98384755Y-43493005D01*
X98208689Y-43147456D01*
X97997468Y-42822206D01*
X97788904Y-42564649D01*
X97788903Y-42564648D01*
X96294251Y-44059300D01*
X96220412Y-43957670D01*
X96042330Y-43779588D01*
X95940698Y-43705748D01*
X97435350Y-42211096D01*
X97435350Y-42211095D01*
X97177793Y-42002531D01*
X96852543Y-41791310D01*
X96506994Y-41615244D01*
X96144936Y-41476262D01*
X95770330Y-41375887D01*
X95770323Y-41375886D01*
X95387287Y-41315219D01*
X95000001Y-41294922D01*
X94999999Y-41294922D01*
X94612712Y-41315219D01*
X94229676Y-41375886D01*
X94229669Y-41375887D01*
X93855063Y-41476262D01*
X93493005Y-41615244D01*
X93147456Y-41791310D01*
X92822206Y-42002531D01*
X92564648Y-42211095D01*
X92564648Y-42211096D01*
X94059301Y-43705748D01*
X93957670Y-43779588D01*
X93779588Y-43957670D01*
X93705748Y-44059300D01*
X92211096Y-42564648D01*
X92211095Y-42564648D01*
X92002531Y-42822206D01*
X91791310Y-43147456D01*
X91615244Y-43493005D01*
X91476262Y-43855063D01*
X91375887Y-44229669D01*
X91375886Y-44229676D01*
X91315219Y-44612712D01*
X91294922Y-44999999D01*
X91294922Y-45000000D01*
X48705078Y-45000000D01*
X48705078Y-44999999D01*
X48684780Y-44612712D01*
X48624113Y-44229676D01*
X48624112Y-44229669D01*
X48523737Y-43855063D01*
X48384755Y-43493005D01*
X48208689Y-43147456D01*
X47997468Y-42822206D01*
X47788904Y-42564649D01*
X47788903Y-42564648D01*
X46294251Y-44059300D01*
X46220412Y-43957670D01*
X46042330Y-43779588D01*
X45940698Y-43705748D01*
X47435350Y-42211096D01*
X47435350Y-42211095D01*
X47177793Y-42002531D01*
X46852543Y-41791310D01*
X46506994Y-41615244D01*
X46144936Y-41476262D01*
X45770330Y-41375887D01*
X45770323Y-41375886D01*
X45387287Y-41315219D01*
X45000001Y-41294922D01*
X44999999Y-41294922D01*
X44612712Y-41315219D01*
X44229676Y-41375886D01*
X44229669Y-41375887D01*
X43855063Y-41476262D01*
X43493005Y-41615244D01*
X43147456Y-41791310D01*
X42822206Y-42002531D01*
X42564648Y-42211095D01*
X42564648Y-42211096D01*
X44059301Y-43705748D01*
X43957670Y-43779588D01*
X43779588Y-43957670D01*
X43705748Y-44059300D01*
X42211096Y-42564648D01*
X42211095Y-42564648D01*
X42002531Y-42822206D01*
X41791310Y-43147456D01*
X41615244Y-43493005D01*
X41476262Y-43855063D01*
X41375887Y-44229669D01*
X41375886Y-44229676D01*
X41315219Y-44612712D01*
X41294922Y-44999999D01*
X41294922Y-45000000D01*
X40000004Y-45000000D01*
X40000007Y-44999358D01*
X40002328Y-44786528D01*
X40002793Y-44777073D01*
X40014222Y-44646447D01*
X40039943Y-44352444D01*
X40041355Y-44341725D01*
X40115257Y-43922602D01*
X40117589Y-43912083D01*
X40227749Y-43500959D01*
X40230989Y-43490683D01*
X40376558Y-43090736D01*
X40380679Y-43080786D01*
X40560552Y-42695047D01*
X40565532Y-42685480D01*
X40778332Y-42316900D01*
X40784125Y-42307806D01*
X41028246Y-41959165D01*
X41034812Y-41950609D01*
X41308394Y-41624566D01*
X41315681Y-41616615D01*
X41616615Y-41315681D01*
X41624566Y-41308394D01*
X41950609Y-41034812D01*
X41959165Y-41028246D01*
X42307806Y-40784125D01*
X42316900Y-40778332D01*
X42685480Y-40565532D01*
X42695047Y-40560552D01*
X43080786Y-40380679D01*
X43090736Y-40376558D01*
X43490683Y-40230989D01*
X43500959Y-40227749D01*
X43912083Y-40117589D01*
X43922602Y-40115257D01*
X44341732Y-40041353D01*
X44352444Y-40039943D01*
X44777085Y-40002792D01*
X44786517Y-40002328D01*
X44999358Y-40000006D01*
X45000710Y-40000000D01*
X94999290Y-40000000D01*
X95000641Y-40000006D01*
G37*
%TD.AperFunction*%
%TD*%
M02*
