%TF.GenerationSoftware,KiCad,Pcbnew,8.0.1-8.0.1-1~ubuntu22.04.1*%
%TF.CreationDate,2024-04-06T12:43:47+02:00*%
%TF.ProjectId,ProjetCorps,50726f6a-6574-4436-9f72-70732e6b6963,rev?*%
%TF.SameCoordinates,Original*%
%TF.FileFunction,Copper,L3,Inr*%
%TF.FilePolarity,Positive*%
%FSLAX46Y46*%
G04 Gerber Fmt 4.6, Leading zero omitted, Abs format (unit mm)*
G04 Created by KiCad (PCBNEW 8.0.1-8.0.1-1~ubuntu22.04.1) date 2024-04-06 12:43:47*
%MOMM*%
%LPD*%
G01*
G04 APERTURE LIST*
G04 Aperture macros list*
%AMRoundRect*
0 Rectangle with rounded corners*
0 $1 Rounding radius*
0 $2 $3 $4 $5 $6 $7 $8 $9 X,Y pos of 4 corners*
0 Add a 4 corners polygon primitive as box body*
4,1,4,$2,$3,$4,$5,$6,$7,$8,$9,$2,$3,0*
0 Add four circle primitives for the rounded corners*
1,1,$1+$1,$2,$3*
1,1,$1+$1,$4,$5*
1,1,$1+$1,$6,$7*
1,1,$1+$1,$8,$9*
0 Add four rect primitives between the rounded corners*
20,1,$1+$1,$2,$3,$4,$5,0*
20,1,$1+$1,$4,$5,$6,$7,0*
20,1,$1+$1,$6,$7,$8,$9,0*
20,1,$1+$1,$8,$9,$2,$3,0*%
G04 Aperture macros list end*
%TA.AperFunction,ComponentPad*%
%ADD10C,0.800000*%
%TD*%
%TA.AperFunction,ComponentPad*%
%ADD11C,6.400000*%
%TD*%
%TA.AperFunction,ComponentPad*%
%ADD12RoundRect,0.250000X0.725000X-0.600000X0.725000X0.600000X-0.725000X0.600000X-0.725000X-0.600000X0*%
%TD*%
%TA.AperFunction,ComponentPad*%
%ADD13O,1.950000X1.700000*%
%TD*%
%TA.AperFunction,ComponentPad*%
%ADD14C,3.000000*%
%TD*%
%TA.AperFunction,ComponentPad*%
%ADD15C,1.600000*%
%TD*%
%TA.AperFunction,ComponentPad*%
%ADD16RoundRect,1.500000X1.500000X1.500000X-1.500000X1.500000X-1.500000X-1.500000X1.500000X-1.500000X0*%
%TD*%
%TA.AperFunction,ComponentPad*%
%ADD17C,6.000000*%
%TD*%
%TA.AperFunction,ComponentPad*%
%ADD18C,1.447800*%
%TD*%
%TA.AperFunction,ViaPad*%
%ADD19C,0.800000*%
%TD*%
G04 APERTURE END LIST*
D10*
%TO.N,GND*%
%TO.C,H102*%
X157600000Y-50000000D03*
X158302944Y-48302944D03*
X158302944Y-51697056D03*
X160000000Y-47600000D03*
D11*
X160000000Y-50000000D03*
D10*
X160000000Y-52400000D03*
X161697056Y-48302944D03*
X161697056Y-51697056D03*
X162400000Y-50000000D03*
%TD*%
%TO.N,GND*%
%TO.C,H103*%
X107600000Y-98000000D03*
X108302944Y-96302944D03*
X108302944Y-99697056D03*
X110000000Y-95600000D03*
D11*
X110000000Y-98000000D03*
D10*
X110000000Y-100400000D03*
X111697056Y-96302944D03*
X111697056Y-99697056D03*
X112400000Y-98000000D03*
%TD*%
D12*
%TO.N,GND*%
%TO.C,J103*%
X110000000Y-74000000D03*
D13*
%TO.N,+12V*%
X110000000Y-71500000D03*
%TO.N,UART_HD_XL430*%
X110000000Y-69000000D03*
%TD*%
D10*
%TO.N,GND*%
%TO.C,H101*%
X107600000Y-50000000D03*
X108302944Y-48302944D03*
X108302944Y-51697056D03*
X110000000Y-47600000D03*
D11*
X110000000Y-50000000D03*
D10*
X110000000Y-52400000D03*
X111697056Y-48302944D03*
X111697056Y-51697056D03*
X112400000Y-50000000D03*
%TD*%
D14*
%TO.N,+12V*%
%TO.C,SW101*%
X125600000Y-98000000D03*
%TO.N,Net-(J101-Pin_2)*%
X130300000Y-98000000D03*
%TO.N,unconnected-(SW101-C-Pad3)*%
X135000000Y-98000000D03*
%TD*%
D15*
%TO.N,+12V*%
%TO.C,U104*%
X127760000Y-92250000D03*
%TO.N,GND*%
X130300000Y-92250000D03*
%TO.N,+5V*%
X132840000Y-92250000D03*
%TD*%
D16*
%TO.N,GND*%
%TO.C,J101*%
X149075000Y-98000000D03*
D17*
%TO.N,Net-(J101-Pin_2)*%
X141875000Y-98000000D03*
%TD*%
D10*
%TO.N,GND*%
%TO.C,H104*%
X157600000Y-98000000D03*
X158302944Y-96302944D03*
X158302944Y-99697056D03*
X160000000Y-95600000D03*
D11*
X160000000Y-98000000D03*
D10*
X160000000Y-100400000D03*
X161697056Y-96302944D03*
X161697056Y-99697056D03*
X162400000Y-98000000D03*
%TD*%
D18*
%TO.N,GND*%
%TO.C,J104*%
X125305003Y-58060007D03*
%TO.N,PWM_TIM1_CH1*%
X128075002Y-58060007D03*
%TO.N,PWM_TIM1_CH2*%
X130845002Y-58060007D03*
%TO.N,PWM_TIM1_CH3*%
X133615002Y-58060007D03*
%TO.N,PWM_TIM1_CH4*%
X136385001Y-58060007D03*
%TO.N,PWM_TIM2_CH1*%
X139155001Y-58060007D03*
%TO.N,PWM_TIM2_CH2*%
X141925000Y-58060007D03*
%TO.N,GND*%
X144695000Y-58060007D03*
%TO.N,+12V*%
X126690001Y-55220008D03*
X129460001Y-55220008D03*
%TO.N,GND*%
X132230000Y-55220008D03*
%TO.N,I2C_SCL*%
X135000000Y-55220008D03*
%TO.N,I2C_SDA*%
X137770000Y-55220008D03*
%TO.N,+12V*%
X140539999Y-55220008D03*
%TO.N,GND*%
X143309999Y-55220008D03*
%TD*%
D12*
%TO.N,GND*%
%TO.C,J102*%
X110000000Y-62000000D03*
D13*
%TO.N,+12V*%
X110000000Y-59500000D03*
%TO.N,UART_HD_XL430*%
X110000000Y-57000000D03*
%TD*%
D19*
%TO.N,+3.3V*%
X122225000Y-87425000D03*
X141800000Y-77600000D03*
X128825000Y-76700000D03*
X154400000Y-69100000D03*
X117600000Y-75575000D03*
X135300000Y-65600000D03*
X154400000Y-61700000D03*
X154500000Y-84100000D03*
X143750000Y-85150000D03*
X146000000Y-83750000D03*
X141800000Y-70200000D03*
X139450000Y-84550000D03*
X140650000Y-86350000D03*
X141750000Y-62650000D03*
X148350000Y-85150000D03*
X139800000Y-70600000D03*
X132800343Y-73600000D03*
X138250000Y-86350000D03*
X154500000Y-76800000D03*
X125000000Y-69800000D03*
%TO.N,GND*%
X111000000Y-92000000D03*
X126000000Y-77000000D03*
X140000000Y-62000000D03*
X116000000Y-72000000D03*
X146000000Y-72000000D03*
X146000000Y-67000000D03*
X126000000Y-82000000D03*
X131000000Y-87000000D03*
X117700000Y-66300000D03*
X136000000Y-92000000D03*
X151000000Y-47000000D03*
X136000000Y-82000000D03*
X156000000Y-57000000D03*
X106000000Y-57000000D03*
X131000000Y-47000000D03*
X156000000Y-102000000D03*
X116000000Y-52000000D03*
X136000000Y-102000000D03*
X106000000Y-67000000D03*
X156000000Y-92000000D03*
X121075000Y-83725000D03*
X161000000Y-82000000D03*
X121000000Y-47000000D03*
X136500000Y-77000000D03*
X146000000Y-52000000D03*
X161000000Y-102000000D03*
X106000000Y-72000000D03*
X156000000Y-47000000D03*
X126000000Y-102000000D03*
X136000000Y-52000000D03*
X120500000Y-92975000D03*
X126000000Y-62000000D03*
X143000000Y-90000000D03*
X156000000Y-72000000D03*
X141000000Y-47000000D03*
X111000000Y-77000000D03*
X151000000Y-92000000D03*
X118675000Y-93000000D03*
X131000000Y-52000000D03*
X117300000Y-82475000D03*
X146000000Y-57000000D03*
X143500000Y-80050000D03*
X121000000Y-102000000D03*
X118600000Y-69950000D03*
X121000000Y-52000000D03*
X151000000Y-87000000D03*
X121000000Y-57000000D03*
X106000000Y-62000000D03*
X126000000Y-52000000D03*
X131000000Y-62000000D03*
X161000000Y-76500000D03*
X136000000Y-47000000D03*
X106000000Y-77000000D03*
X116000000Y-67000000D03*
X111000000Y-67000000D03*
X161000000Y-57000000D03*
X160800000Y-61800000D03*
X151000000Y-72000000D03*
X146000000Y-82000000D03*
X121950000Y-93000000D03*
X161000000Y-87000000D03*
X146000000Y-47000000D03*
X154400000Y-75350000D03*
X154500000Y-83050000D03*
X136000000Y-87000000D03*
X121000000Y-77000000D03*
X153300000Y-85250000D03*
X156000000Y-52000000D03*
X106000000Y-87000000D03*
X113800000Y-75875000D03*
X151000000Y-52000000D03*
X116000000Y-92000000D03*
X106000000Y-97000000D03*
X142500000Y-82950000D03*
X116000000Y-57000000D03*
X141000000Y-92000000D03*
X138000000Y-67500000D03*
X144000000Y-90000000D03*
X111000000Y-102000000D03*
X131000000Y-102000000D03*
X117700000Y-62700000D03*
X131000000Y-82000000D03*
X116000000Y-62000000D03*
X141000000Y-102000000D03*
X116000000Y-47000000D03*
X126000000Y-87000000D03*
X106000000Y-92000000D03*
X126000000Y-92000000D03*
X161000000Y-72000000D03*
X106000000Y-52000000D03*
X116000000Y-102000000D03*
X161000000Y-67000000D03*
X146000000Y-102000000D03*
X126000000Y-47000000D03*
X156000000Y-87000000D03*
X152175000Y-79225000D03*
X115050000Y-85750000D03*
X118125000Y-74275000D03*
X121000000Y-82000000D03*
X161000000Y-92000000D03*
X154400000Y-68050000D03*
X145900000Y-61800000D03*
X114575000Y-83600000D03*
X121000000Y-72000000D03*
X151000000Y-102000000D03*
X141000000Y-52000000D03*
X121000000Y-97000000D03*
X106000000Y-82000000D03*
X116000000Y-97000000D03*
X117700000Y-64500000D03*
X141750000Y-67450000D03*
X141800000Y-74950000D03*
%TO.N,NRST*%
X124775000Y-79850000D03*
X119325000Y-79800000D03*
%TO.N,+5V*%
X148000000Y-93000000D03*
X148400000Y-91500000D03*
X120900000Y-87350000D03*
X149000000Y-93000000D03*
%TO.N,BTN_7*%
X131425000Y-69075000D03*
X137903365Y-74751463D03*
%TO.N,+12V*%
X116625000Y-88275000D03*
%TO.N,UART_HD_XL430*%
X121325000Y-67625000D03*
X135250000Y-76475000D03*
%TO.N,PWM_TIM2_CH2*%
X134825000Y-73825000D03*
%TO.N,I2C_SCL*%
X132625000Y-68700000D03*
%TO.N,PWM_TIM2_CH1*%
X133800000Y-73825000D03*
%TO.N,I2C_SDA*%
X133075000Y-70350153D03*
%TO.N,SWDIO*%
X130622180Y-68266727D03*
X123371114Y-67441128D03*
%TO.N,SWCLK*%
X123550000Y-68425000D03*
X129624999Y-68191651D03*
%TD*%
%TA.AperFunction,Conductor*%
%TO.N,GND*%
G36*
X160000549Y-45000006D02*
G01*
X160003790Y-45000041D01*
X160214441Y-45002338D01*
X160221950Y-45002708D01*
X160648652Y-45040039D01*
X160657174Y-45041161D01*
X161078467Y-45115446D01*
X161086871Y-45117309D01*
X161500084Y-45228029D01*
X161508290Y-45230616D01*
X161910280Y-45376928D01*
X161918233Y-45380222D01*
X162305939Y-45561012D01*
X162313576Y-45564988D01*
X162684039Y-45778875D01*
X162691323Y-45783516D01*
X163041718Y-46028866D01*
X163048570Y-46034124D01*
X163376241Y-46309072D01*
X163382609Y-46314906D01*
X163685093Y-46617390D01*
X163690927Y-46623758D01*
X163965875Y-46951429D01*
X163971133Y-46958281D01*
X164216483Y-47308676D01*
X164221124Y-47315960D01*
X164435011Y-47686423D01*
X164438991Y-47694069D01*
X164619772Y-48081755D01*
X164623072Y-48089722D01*
X164769378Y-48491694D01*
X164771975Y-48499931D01*
X164882687Y-48913114D01*
X164884556Y-48921546D01*
X164958835Y-49342804D01*
X164959962Y-49351367D01*
X164997290Y-49778029D01*
X164997661Y-49785577D01*
X164999994Y-49999449D01*
X165000000Y-50000529D01*
X165000000Y-97999470D01*
X164999994Y-98000550D01*
X164997661Y-98214422D01*
X164997290Y-98221970D01*
X164959962Y-98648632D01*
X164958835Y-98657195D01*
X164884556Y-99078453D01*
X164882687Y-99086885D01*
X164771975Y-99500068D01*
X164769378Y-99508305D01*
X164623072Y-99910277D01*
X164619768Y-99918252D01*
X164457301Y-100266667D01*
X164438999Y-100305915D01*
X164435011Y-100313576D01*
X164221124Y-100684039D01*
X164216483Y-100691323D01*
X163971133Y-101041718D01*
X163965875Y-101048570D01*
X163690927Y-101376241D01*
X163685093Y-101382609D01*
X163382609Y-101685093D01*
X163376241Y-101690927D01*
X163048570Y-101965875D01*
X163041718Y-101971133D01*
X162691323Y-102216483D01*
X162684039Y-102221124D01*
X162313576Y-102435011D01*
X162305921Y-102438995D01*
X162061970Y-102552752D01*
X161918256Y-102619767D01*
X161910277Y-102623072D01*
X161508305Y-102769378D01*
X161500068Y-102771975D01*
X161086885Y-102882687D01*
X161078453Y-102884556D01*
X160657195Y-102958835D01*
X160648632Y-102959962D01*
X160221970Y-102997290D01*
X160214422Y-102997661D01*
X160000550Y-102999994D01*
X159999470Y-103000000D01*
X110001467Y-103000000D01*
X109998544Y-102999957D01*
X109774112Y-102993327D01*
X109766296Y-102992786D01*
X109317562Y-102943820D01*
X109308738Y-102942452D01*
X108866776Y-102853360D01*
X108858111Y-102851202D01*
X108425992Y-102722654D01*
X108417556Y-102719725D01*
X107998750Y-102552752D01*
X107990614Y-102549074D01*
X107588579Y-102345057D01*
X107580811Y-102340664D01*
X107198785Y-102101244D01*
X107191440Y-102096166D01*
X106832535Y-101823292D01*
X106825678Y-101817572D01*
X106492832Y-101513481D01*
X106486518Y-101507167D01*
X106182427Y-101174321D01*
X106176707Y-101167464D01*
X105903833Y-100808559D01*
X105898755Y-100801214D01*
X105829885Y-100691323D01*
X105659331Y-100419181D01*
X105654949Y-100411432D01*
X105450925Y-100009385D01*
X105447247Y-100001249D01*
X105280274Y-99582443D01*
X105277345Y-99574007D01*
X105256592Y-99504245D01*
X105148793Y-99141875D01*
X105146642Y-99133237D01*
X105057546Y-98691257D01*
X105056179Y-98682437D01*
X105052960Y-98652942D01*
X105007212Y-98233699D01*
X105006672Y-98225887D01*
X105006556Y-98221970D01*
X105000043Y-98001455D01*
X105000022Y-98000002D01*
X123894732Y-98000002D01*
X123913777Y-98254152D01*
X123913779Y-98254161D01*
X123970492Y-98502639D01*
X124063604Y-98739881D01*
X124063607Y-98739888D01*
X124191041Y-98960612D01*
X124191045Y-98960618D01*
X124191047Y-98960620D01*
X124349940Y-99159866D01*
X124349951Y-99159878D01*
X124536776Y-99333226D01*
X124536778Y-99333227D01*
X124536783Y-99333232D01*
X124747366Y-99476805D01*
X124976996Y-99587389D01*
X125220542Y-99662513D01*
X125472565Y-99700500D01*
X125472570Y-99700500D01*
X125727430Y-99700500D01*
X125727435Y-99700500D01*
X125979458Y-99662513D01*
X126223004Y-99587389D01*
X126452634Y-99476805D01*
X126663217Y-99333232D01*
X126850050Y-99159877D01*
X127008959Y-98960612D01*
X127136393Y-98739888D01*
X127229508Y-98502637D01*
X127286222Y-98254157D01*
X127305268Y-98000002D01*
X128594732Y-98000002D01*
X128613777Y-98254152D01*
X128613779Y-98254161D01*
X128670492Y-98502639D01*
X128763604Y-98739881D01*
X128763607Y-98739888D01*
X128891041Y-98960612D01*
X128891045Y-98960618D01*
X128891047Y-98960620D01*
X129049940Y-99159866D01*
X129049951Y-99159878D01*
X129236776Y-99333226D01*
X129236778Y-99333227D01*
X129236783Y-99333232D01*
X129447366Y-99476805D01*
X129676996Y-99587389D01*
X129920542Y-99662513D01*
X130172565Y-99700500D01*
X130172570Y-99700500D01*
X130427430Y-99700500D01*
X130427435Y-99700500D01*
X130679458Y-99662513D01*
X130923004Y-99587389D01*
X131152634Y-99476805D01*
X131363217Y-99333232D01*
X131550050Y-99159877D01*
X131708959Y-98960612D01*
X131836393Y-98739888D01*
X131929508Y-98502637D01*
X131986222Y-98254157D01*
X132005268Y-98000002D01*
X133294732Y-98000002D01*
X133313777Y-98254152D01*
X133313779Y-98254161D01*
X133370492Y-98502639D01*
X133463604Y-98739881D01*
X133463607Y-98739888D01*
X133591041Y-98960612D01*
X133591045Y-98960618D01*
X133591047Y-98960620D01*
X133749940Y-99159866D01*
X133749951Y-99159878D01*
X133936776Y-99333226D01*
X133936778Y-99333227D01*
X133936783Y-99333232D01*
X134147366Y-99476805D01*
X134376996Y-99587389D01*
X134620542Y-99662513D01*
X134872565Y-99700500D01*
X134872570Y-99700500D01*
X135127430Y-99700500D01*
X135127435Y-99700500D01*
X135379458Y-99662513D01*
X135623004Y-99587389D01*
X135852634Y-99476805D01*
X136063217Y-99333232D01*
X136250050Y-99159877D01*
X136408959Y-98960612D01*
X136536393Y-98739888D01*
X136629508Y-98502637D01*
X136686222Y-98254157D01*
X136705268Y-98000004D01*
X138669457Y-98000004D01*
X138689611Y-98358897D01*
X138689614Y-98358917D01*
X138749824Y-98713287D01*
X138749828Y-98713307D01*
X138849340Y-99058723D01*
X138986907Y-99390837D01*
X139158052Y-99700500D01*
X139160789Y-99705452D01*
X139368806Y-99998623D01*
X139608339Y-100266661D01*
X139876377Y-100506194D01*
X140169548Y-100714211D01*
X140169550Y-100714212D01*
X140484163Y-100888092D01*
X140484162Y-100888092D01*
X140816276Y-101025659D01*
X141161692Y-101125171D01*
X141161695Y-101125171D01*
X141161700Y-101125173D01*
X141516093Y-101185387D01*
X141516096Y-101185387D01*
X141516102Y-101185388D01*
X141874995Y-101205543D01*
X141875000Y-101205543D01*
X141875005Y-101205543D01*
X142233897Y-101185388D01*
X142233901Y-101185387D01*
X142233907Y-101185387D01*
X142588300Y-101125173D01*
X142933724Y-101025659D01*
X143265833Y-100888094D01*
X143580452Y-100714211D01*
X143873623Y-100506194D01*
X144141661Y-100266661D01*
X144381194Y-99998623D01*
X144589211Y-99705452D01*
X144763094Y-99390833D01*
X144900659Y-99058724D01*
X145000173Y-98713300D01*
X145060387Y-98358907D01*
X145066270Y-98254161D01*
X145080543Y-98000004D01*
X145080543Y-97999995D01*
X145060388Y-97641102D01*
X145060385Y-97641082D01*
X145000175Y-97286712D01*
X145000171Y-97286692D01*
X144900659Y-96941276D01*
X144763092Y-96609162D01*
X144589212Y-96294550D01*
X144381197Y-96001381D01*
X144381196Y-96001380D01*
X144381194Y-96001377D01*
X144141661Y-95733339D01*
X143873623Y-95493806D01*
X143873620Y-95493804D01*
X143873618Y-95493802D01*
X143580449Y-95285787D01*
X143265836Y-95111907D01*
X143265837Y-95111907D01*
X142933723Y-94974340D01*
X142588307Y-94874828D01*
X142588287Y-94874824D01*
X142233917Y-94814614D01*
X142233897Y-94814611D01*
X141875005Y-94794457D01*
X141874995Y-94794457D01*
X141516102Y-94814611D01*
X141516082Y-94814614D01*
X141161712Y-94874824D01*
X141161692Y-94874828D01*
X140816276Y-94974340D01*
X140484162Y-95111907D01*
X140169550Y-95285787D01*
X139876381Y-95493802D01*
X139608346Y-95733332D01*
X139608332Y-95733346D01*
X139368802Y-96001381D01*
X139160787Y-96294550D01*
X138986907Y-96609162D01*
X138849340Y-96941276D01*
X138749828Y-97286692D01*
X138749824Y-97286712D01*
X138689614Y-97641082D01*
X138689611Y-97641102D01*
X138669457Y-97999995D01*
X138669457Y-98000004D01*
X136705268Y-98000004D01*
X136705268Y-98000000D01*
X136705228Y-97999470D01*
X136686222Y-97745847D01*
X136686222Y-97745843D01*
X136629508Y-97497363D01*
X136536393Y-97260112D01*
X136408959Y-97039388D01*
X136408952Y-97039379D01*
X136250059Y-96840133D01*
X136250048Y-96840121D01*
X136063223Y-96666773D01*
X136063220Y-96666771D01*
X136063217Y-96666768D01*
X135852634Y-96523195D01*
X135623004Y-96412611D01*
X135379462Y-96337488D01*
X135379459Y-96337487D01*
X135379458Y-96337487D01*
X135379453Y-96337486D01*
X135379452Y-96337486D01*
X135127438Y-96299500D01*
X135127435Y-96299500D01*
X134872565Y-96299500D01*
X134872561Y-96299500D01*
X134620547Y-96337486D01*
X134620537Y-96337488D01*
X134376995Y-96412611D01*
X134147373Y-96523191D01*
X134147369Y-96523193D01*
X134147366Y-96523195D01*
X133936783Y-96666768D01*
X133936776Y-96666773D01*
X133749951Y-96840121D01*
X133749940Y-96840133D01*
X133591047Y-97039379D01*
X133591043Y-97039384D01*
X133591041Y-97039388D01*
X133529181Y-97146533D01*
X133463608Y-97260109D01*
X133463604Y-97260118D01*
X133370492Y-97497360D01*
X133313779Y-97745838D01*
X133313777Y-97745847D01*
X133294732Y-97999997D01*
X133294732Y-98000002D01*
X132005268Y-98000002D01*
X132005268Y-98000000D01*
X132005228Y-97999470D01*
X131986222Y-97745847D01*
X131986222Y-97745843D01*
X131929508Y-97497363D01*
X131836393Y-97260112D01*
X131708959Y-97039388D01*
X131708952Y-97039379D01*
X131550059Y-96840133D01*
X131550048Y-96840121D01*
X131363223Y-96666773D01*
X131363220Y-96666771D01*
X131363217Y-96666768D01*
X131152634Y-96523195D01*
X130923004Y-96412611D01*
X130679462Y-96337488D01*
X130679459Y-96337487D01*
X130679458Y-96337487D01*
X130679453Y-96337486D01*
X130679452Y-96337486D01*
X130427438Y-96299500D01*
X130427435Y-96299500D01*
X130172565Y-96299500D01*
X130172561Y-96299500D01*
X129920547Y-96337486D01*
X129920537Y-96337488D01*
X129676995Y-96412611D01*
X129447373Y-96523191D01*
X129447369Y-96523193D01*
X129447366Y-96523195D01*
X129236783Y-96666768D01*
X129236776Y-96666773D01*
X129049951Y-96840121D01*
X129049940Y-96840133D01*
X128891047Y-97039379D01*
X128891043Y-97039384D01*
X128891041Y-97039388D01*
X128829181Y-97146533D01*
X128763608Y-97260109D01*
X128763604Y-97260118D01*
X128670492Y-97497360D01*
X128613779Y-97745838D01*
X128613777Y-97745847D01*
X128594732Y-97999997D01*
X128594732Y-98000002D01*
X127305268Y-98000002D01*
X127305268Y-98000000D01*
X127305228Y-97999470D01*
X127286222Y-97745847D01*
X127286222Y-97745843D01*
X127229508Y-97497363D01*
X127136393Y-97260112D01*
X127008959Y-97039388D01*
X127008952Y-97039379D01*
X126850059Y-96840133D01*
X126850048Y-96840121D01*
X126663223Y-96666773D01*
X126663220Y-96666771D01*
X126663217Y-96666768D01*
X126452634Y-96523195D01*
X126223004Y-96412611D01*
X125979462Y-96337488D01*
X125979459Y-96337487D01*
X125979458Y-96337487D01*
X125979453Y-96337486D01*
X125979452Y-96337486D01*
X125727438Y-96299500D01*
X125727435Y-96299500D01*
X125472565Y-96299500D01*
X125472561Y-96299500D01*
X125220547Y-96337486D01*
X125220537Y-96337488D01*
X124976995Y-96412611D01*
X124747373Y-96523191D01*
X124747369Y-96523193D01*
X124747366Y-96523195D01*
X124536783Y-96666768D01*
X124536776Y-96666773D01*
X124349951Y-96840121D01*
X124349940Y-96840133D01*
X124191047Y-97039379D01*
X124191043Y-97039384D01*
X124191041Y-97039388D01*
X124129181Y-97146533D01*
X124063608Y-97260109D01*
X124063604Y-97260118D01*
X123970492Y-97497360D01*
X123913779Y-97745838D01*
X123913777Y-97745847D01*
X123894732Y-97999997D01*
X123894732Y-98000002D01*
X105000022Y-98000002D01*
X105000000Y-97998532D01*
X105000000Y-92250003D01*
X126754659Y-92250003D01*
X126773974Y-92446126D01*
X126773975Y-92446129D01*
X126831187Y-92634730D01*
X126831188Y-92634732D01*
X126902218Y-92767618D01*
X126924090Y-92808538D01*
X126924092Y-92808540D01*
X126924093Y-92808542D01*
X127049112Y-92960878D01*
X127049121Y-92960887D01*
X127201457Y-93085906D01*
X127201462Y-93085910D01*
X127375273Y-93178814D01*
X127563868Y-93236024D01*
X127563870Y-93236024D01*
X127563873Y-93236025D01*
X127759997Y-93255341D01*
X127760000Y-93255341D01*
X127760003Y-93255341D01*
X127956126Y-93236025D01*
X127956127Y-93236024D01*
X127956132Y-93236024D01*
X128144727Y-93178814D01*
X128318538Y-93085910D01*
X128470883Y-92960883D01*
X128595910Y-92808538D01*
X128688814Y-92634727D01*
X128746024Y-92446132D01*
X128749095Y-92414957D01*
X128765341Y-92250003D01*
X131834659Y-92250003D01*
X131853974Y-92446126D01*
X131853975Y-92446129D01*
X131911187Y-92634730D01*
X131911188Y-92634732D01*
X131982218Y-92767618D01*
X132004090Y-92808538D01*
X132004092Y-92808540D01*
X132004093Y-92808542D01*
X132129112Y-92960878D01*
X132129121Y-92960887D01*
X132281457Y-93085906D01*
X132281462Y-93085910D01*
X132455273Y-93178814D01*
X132643868Y-93236024D01*
X132643870Y-93236024D01*
X132643873Y-93236025D01*
X132839997Y-93255341D01*
X132840000Y-93255341D01*
X132840003Y-93255341D01*
X133036126Y-93236025D01*
X133036127Y-93236024D01*
X133036132Y-93236024D01*
X133224727Y-93178814D01*
X133398538Y-93085910D01*
X133503219Y-93000000D01*
X147394318Y-93000000D01*
X147414955Y-93156758D01*
X147414957Y-93156766D01*
X147475462Y-93302838D01*
X147475462Y-93302839D01*
X147475464Y-93302841D01*
X147571718Y-93428282D01*
X147697159Y-93524536D01*
X147843238Y-93585044D01*
X147960809Y-93600522D01*
X147999999Y-93605682D01*
X148000000Y-93605682D01*
X148000001Y-93605682D01*
X148031352Y-93601554D01*
X148156762Y-93585044D01*
X148302841Y-93524536D01*
X148428282Y-93428282D01*
X148428288Y-93428273D01*
X148429996Y-93426567D01*
X148431547Y-93425776D01*
X148433430Y-93424332D01*
X148433697Y-93424680D01*
X148484513Y-93398790D01*
X148544945Y-93408361D01*
X148570004Y-93426567D01*
X148571713Y-93428276D01*
X148571718Y-93428282D01*
X148697159Y-93524536D01*
X148843238Y-93585044D01*
X148960809Y-93600522D01*
X148999999Y-93605682D01*
X149000000Y-93605682D01*
X149000001Y-93605682D01*
X149031352Y-93601554D01*
X149156762Y-93585044D01*
X149302841Y-93524536D01*
X149428282Y-93428282D01*
X149524536Y-93302841D01*
X149585044Y-93156762D01*
X149605682Y-93000000D01*
X149585044Y-92843238D01*
X149585042Y-92843233D01*
X149524537Y-92697161D01*
X149524537Y-92697160D01*
X149428286Y-92571723D01*
X149428285Y-92571722D01*
X149428282Y-92571718D01*
X149428277Y-92571714D01*
X149428276Y-92571713D01*
X149302838Y-92475462D01*
X149156766Y-92414957D01*
X149156758Y-92414955D01*
X149000001Y-92394318D01*
X148999999Y-92394318D01*
X148843241Y-92414955D01*
X148843233Y-92414957D01*
X148697161Y-92475462D01*
X148697160Y-92475462D01*
X148571715Y-92571719D01*
X148569998Y-92573437D01*
X148568449Y-92574225D01*
X148566570Y-92575668D01*
X148566302Y-92575319D01*
X148515479Y-92601210D01*
X148455048Y-92591634D01*
X148430002Y-92573437D01*
X148428284Y-92571719D01*
X148302838Y-92475462D01*
X148156766Y-92414957D01*
X148156758Y-92414955D01*
X148000001Y-92394318D01*
X147999999Y-92394318D01*
X147843241Y-92414955D01*
X147843233Y-92414957D01*
X147697161Y-92475462D01*
X147697160Y-92475462D01*
X147571723Y-92571713D01*
X147571713Y-92571723D01*
X147475462Y-92697160D01*
X147475462Y-92697161D01*
X147414957Y-92843233D01*
X147414955Y-92843241D01*
X147394318Y-92999999D01*
X147394318Y-93000000D01*
X133503219Y-93000000D01*
X133550883Y-92960883D01*
X133675910Y-92808538D01*
X133768814Y-92634727D01*
X133826024Y-92446132D01*
X133829095Y-92414957D01*
X133845341Y-92250003D01*
X133845341Y-92249996D01*
X133826025Y-92053873D01*
X133826024Y-92053870D01*
X133826024Y-92053868D01*
X133768814Y-91865273D01*
X133675910Y-91691462D01*
X133647436Y-91656766D01*
X133550887Y-91539121D01*
X133550878Y-91539112D01*
X133503220Y-91500000D01*
X147794318Y-91500000D01*
X147814955Y-91656758D01*
X147814957Y-91656766D01*
X147875462Y-91802838D01*
X147875462Y-91802839D01*
X147971713Y-91928276D01*
X147971718Y-91928282D01*
X148097159Y-92024536D01*
X148097160Y-92024536D01*
X148097161Y-92024537D01*
X148243233Y-92085042D01*
X148243238Y-92085044D01*
X148360809Y-92100522D01*
X148399999Y-92105682D01*
X148400000Y-92105682D01*
X148400001Y-92105682D01*
X148431352Y-92101554D01*
X148556762Y-92085044D01*
X148702841Y-92024536D01*
X148828282Y-91928282D01*
X148924536Y-91802841D01*
X148985044Y-91656762D01*
X149005682Y-91500000D01*
X148985044Y-91343238D01*
X148924537Y-91197161D01*
X148924537Y-91197160D01*
X148828286Y-91071723D01*
X148828285Y-91071722D01*
X148828282Y-91071718D01*
X148828277Y-91071714D01*
X148828276Y-91071713D01*
X148702838Y-90975462D01*
X148556766Y-90914957D01*
X148556758Y-90914955D01*
X148400001Y-90894318D01*
X148399999Y-90894318D01*
X148243241Y-90914955D01*
X148243233Y-90914957D01*
X148097161Y-90975462D01*
X148097160Y-90975462D01*
X147971723Y-91071713D01*
X147971713Y-91071723D01*
X147875462Y-91197160D01*
X147875462Y-91197161D01*
X147814957Y-91343233D01*
X147814955Y-91343241D01*
X147794318Y-91499999D01*
X147794318Y-91500000D01*
X133503220Y-91500000D01*
X133398542Y-91414093D01*
X133398540Y-91414092D01*
X133398538Y-91414090D01*
X133357618Y-91392218D01*
X133224732Y-91321188D01*
X133224730Y-91321187D01*
X133036129Y-91263975D01*
X133036126Y-91263974D01*
X132840003Y-91244659D01*
X132839997Y-91244659D01*
X132643873Y-91263974D01*
X132643870Y-91263975D01*
X132455269Y-91321187D01*
X132455267Y-91321188D01*
X132281467Y-91414087D01*
X132281457Y-91414093D01*
X132129121Y-91539112D01*
X132129112Y-91539121D01*
X132004093Y-91691457D01*
X132004087Y-91691467D01*
X131911188Y-91865267D01*
X131911187Y-91865269D01*
X131853975Y-92053870D01*
X131853974Y-92053873D01*
X131834659Y-92249996D01*
X131834659Y-92250003D01*
X128765341Y-92250003D01*
X128765341Y-92249996D01*
X128746025Y-92053873D01*
X128746024Y-92053870D01*
X128746024Y-92053868D01*
X128688814Y-91865273D01*
X128595910Y-91691462D01*
X128567436Y-91656766D01*
X128470887Y-91539121D01*
X128470878Y-91539112D01*
X128318542Y-91414093D01*
X128318540Y-91414092D01*
X128318538Y-91414090D01*
X128277618Y-91392218D01*
X128144732Y-91321188D01*
X128144730Y-91321187D01*
X127956129Y-91263975D01*
X127956126Y-91263974D01*
X127760003Y-91244659D01*
X127759997Y-91244659D01*
X127563873Y-91263974D01*
X127563870Y-91263975D01*
X127375269Y-91321187D01*
X127375267Y-91321188D01*
X127201467Y-91414087D01*
X127201457Y-91414093D01*
X127049121Y-91539112D01*
X127049112Y-91539121D01*
X126924093Y-91691457D01*
X126924087Y-91691467D01*
X126831188Y-91865267D01*
X126831187Y-91865269D01*
X126773975Y-92053870D01*
X126773974Y-92053873D01*
X126754659Y-92249996D01*
X126754659Y-92250003D01*
X105000000Y-92250003D01*
X105000000Y-88275000D01*
X116019318Y-88275000D01*
X116039955Y-88431758D01*
X116039957Y-88431766D01*
X116100462Y-88577838D01*
X116100462Y-88577839D01*
X116100464Y-88577841D01*
X116196718Y-88703282D01*
X116322159Y-88799536D01*
X116468238Y-88860044D01*
X116585809Y-88875522D01*
X116624999Y-88880682D01*
X116625000Y-88880682D01*
X116625001Y-88880682D01*
X116656352Y-88876554D01*
X116781762Y-88860044D01*
X116927841Y-88799536D01*
X117053282Y-88703282D01*
X117149536Y-88577841D01*
X117210044Y-88431762D01*
X117230682Y-88275000D01*
X117210044Y-88118238D01*
X117149537Y-87972161D01*
X117149537Y-87972160D01*
X117053286Y-87846723D01*
X117053285Y-87846722D01*
X117053282Y-87846718D01*
X117053277Y-87846714D01*
X117053276Y-87846713D01*
X116927838Y-87750462D01*
X116781766Y-87689957D01*
X116781758Y-87689955D01*
X116625001Y-87669318D01*
X116624999Y-87669318D01*
X116468241Y-87689955D01*
X116468233Y-87689957D01*
X116322161Y-87750462D01*
X116322160Y-87750462D01*
X116196723Y-87846713D01*
X116196713Y-87846723D01*
X116100462Y-87972160D01*
X116100462Y-87972161D01*
X116039957Y-88118233D01*
X116039955Y-88118241D01*
X116019318Y-88274999D01*
X116019318Y-88275000D01*
X105000000Y-88275000D01*
X105000000Y-87350000D01*
X120294318Y-87350000D01*
X120314955Y-87506758D01*
X120314957Y-87506766D01*
X120375462Y-87652838D01*
X120375462Y-87652839D01*
X120471713Y-87778276D01*
X120471718Y-87778282D01*
X120597159Y-87874536D01*
X120743238Y-87935044D01*
X120853316Y-87949536D01*
X120899999Y-87955682D01*
X120900000Y-87955682D01*
X120900001Y-87955682D01*
X120946676Y-87949537D01*
X121056762Y-87935044D01*
X121202841Y-87874536D01*
X121328282Y-87778282D01*
X121424536Y-87652841D01*
X121455503Y-87578079D01*
X121495239Y-87531554D01*
X121554734Y-87517270D01*
X121611262Y-87540684D01*
X121638431Y-87578080D01*
X121700462Y-87727838D01*
X121700462Y-87727839D01*
X121791677Y-87846713D01*
X121796718Y-87853282D01*
X121922159Y-87949536D01*
X121922160Y-87949536D01*
X121922161Y-87949537D01*
X121976778Y-87972160D01*
X122068238Y-88010044D01*
X122185809Y-88025522D01*
X122224999Y-88030682D01*
X122225000Y-88030682D01*
X122225001Y-88030682D01*
X122256352Y-88026554D01*
X122381762Y-88010044D01*
X122527841Y-87949536D01*
X122653282Y-87853282D01*
X122749536Y-87727841D01*
X122810044Y-87581762D01*
X122830682Y-87425000D01*
X122810044Y-87268238D01*
X122749537Y-87122161D01*
X122749537Y-87122160D01*
X122653286Y-86996723D01*
X122653285Y-86996722D01*
X122653282Y-86996718D01*
X122653277Y-86996714D01*
X122653276Y-86996713D01*
X122527838Y-86900462D01*
X122381766Y-86839957D01*
X122381758Y-86839955D01*
X122225001Y-86819318D01*
X122224999Y-86819318D01*
X122068241Y-86839955D01*
X122068233Y-86839957D01*
X121922161Y-86900462D01*
X121922160Y-86900462D01*
X121796723Y-86996713D01*
X121796713Y-86996723D01*
X121700463Y-87122160D01*
X121669496Y-87196920D01*
X121629759Y-87243446D01*
X121570264Y-87257729D01*
X121513736Y-87234314D01*
X121486568Y-87196919D01*
X121485044Y-87193240D01*
X121485044Y-87193238D01*
X121424537Y-87047161D01*
X121424537Y-87047160D01*
X121328286Y-86921723D01*
X121328285Y-86921722D01*
X121328282Y-86921718D01*
X121328277Y-86921714D01*
X121328276Y-86921713D01*
X121257104Y-86867101D01*
X121202841Y-86825464D01*
X121202840Y-86825463D01*
X121202838Y-86825462D01*
X121056766Y-86764957D01*
X121056758Y-86764955D01*
X120900001Y-86744318D01*
X120899999Y-86744318D01*
X120743241Y-86764955D01*
X120743233Y-86764957D01*
X120597161Y-86825462D01*
X120597160Y-86825462D01*
X120471723Y-86921713D01*
X120471713Y-86921723D01*
X120375462Y-87047160D01*
X120375462Y-87047161D01*
X120314957Y-87193233D01*
X120314955Y-87193241D01*
X120294318Y-87349999D01*
X120294318Y-87350000D01*
X105000000Y-87350000D01*
X105000000Y-86350000D01*
X137644318Y-86350000D01*
X137664955Y-86506758D01*
X137664957Y-86506766D01*
X137725462Y-86652838D01*
X137725462Y-86652839D01*
X137811493Y-86764957D01*
X137821718Y-86778282D01*
X137947159Y-86874536D01*
X137947160Y-86874536D01*
X137947161Y-86874537D01*
X138061054Y-86921713D01*
X138093238Y-86935044D01*
X138210809Y-86950522D01*
X138249999Y-86955682D01*
X138250000Y-86955682D01*
X138250001Y-86955682D01*
X138281352Y-86951554D01*
X138406762Y-86935044D01*
X138552841Y-86874536D01*
X138678282Y-86778282D01*
X138774536Y-86652841D01*
X138835044Y-86506762D01*
X138855682Y-86350000D01*
X140044318Y-86350000D01*
X140064955Y-86506758D01*
X140064957Y-86506766D01*
X140125462Y-86652838D01*
X140125462Y-86652839D01*
X140211493Y-86764957D01*
X140221718Y-86778282D01*
X140347159Y-86874536D01*
X140347160Y-86874536D01*
X140347161Y-86874537D01*
X140461054Y-86921713D01*
X140493238Y-86935044D01*
X140610809Y-86950522D01*
X140649999Y-86955682D01*
X140650000Y-86955682D01*
X140650001Y-86955682D01*
X140681352Y-86951554D01*
X140806762Y-86935044D01*
X140952841Y-86874536D01*
X141078282Y-86778282D01*
X141174536Y-86652841D01*
X141235044Y-86506762D01*
X141255682Y-86350000D01*
X141235044Y-86193238D01*
X141174537Y-86047161D01*
X141174537Y-86047160D01*
X141078286Y-85921723D01*
X141078285Y-85921722D01*
X141078282Y-85921718D01*
X141078277Y-85921714D01*
X141078276Y-85921713D01*
X140952838Y-85825462D01*
X140806766Y-85764957D01*
X140806758Y-85764955D01*
X140650001Y-85744318D01*
X140649999Y-85744318D01*
X140493241Y-85764955D01*
X140493233Y-85764957D01*
X140347161Y-85825462D01*
X140347160Y-85825462D01*
X140221723Y-85921713D01*
X140221713Y-85921723D01*
X140125462Y-86047160D01*
X140125462Y-86047161D01*
X140064957Y-86193233D01*
X140064955Y-86193241D01*
X140044318Y-86349999D01*
X140044318Y-86350000D01*
X138855682Y-86350000D01*
X138835044Y-86193238D01*
X138774537Y-86047161D01*
X138774537Y-86047160D01*
X138678286Y-85921723D01*
X138678285Y-85921722D01*
X138678282Y-85921718D01*
X138678277Y-85921714D01*
X138678276Y-85921713D01*
X138552838Y-85825462D01*
X138406766Y-85764957D01*
X138406758Y-85764955D01*
X138250001Y-85744318D01*
X138249999Y-85744318D01*
X138093241Y-85764955D01*
X138093233Y-85764957D01*
X137947161Y-85825462D01*
X137947160Y-85825462D01*
X137821723Y-85921713D01*
X137821713Y-85921723D01*
X137725462Y-86047160D01*
X137725462Y-86047161D01*
X137664957Y-86193233D01*
X137664955Y-86193241D01*
X137644318Y-86349999D01*
X137644318Y-86350000D01*
X105000000Y-86350000D01*
X105000000Y-84550000D01*
X138844318Y-84550000D01*
X138864955Y-84706758D01*
X138864957Y-84706766D01*
X138925462Y-84852838D01*
X138925462Y-84852839D01*
X138925464Y-84852841D01*
X139021718Y-84978282D01*
X139147159Y-85074536D01*
X139293238Y-85135044D01*
X139406833Y-85149999D01*
X139449999Y-85155682D01*
X139450000Y-85155682D01*
X139450001Y-85155682D01*
X139493159Y-85150000D01*
X143144318Y-85150000D01*
X143164955Y-85306758D01*
X143164957Y-85306766D01*
X143225462Y-85452838D01*
X143225462Y-85452839D01*
X143225464Y-85452841D01*
X143321718Y-85578282D01*
X143447159Y-85674536D01*
X143593238Y-85735044D01*
X143710809Y-85750522D01*
X143749999Y-85755682D01*
X143750000Y-85755682D01*
X143750001Y-85755682D01*
X143781352Y-85751554D01*
X143906762Y-85735044D01*
X144052841Y-85674536D01*
X144178282Y-85578282D01*
X144274536Y-85452841D01*
X144335044Y-85306762D01*
X144355682Y-85150000D01*
X147744318Y-85150000D01*
X147764955Y-85306758D01*
X147764957Y-85306766D01*
X147825462Y-85452838D01*
X147825462Y-85452839D01*
X147825464Y-85452841D01*
X147921718Y-85578282D01*
X148047159Y-85674536D01*
X148193238Y-85735044D01*
X148310809Y-85750522D01*
X148349999Y-85755682D01*
X148350000Y-85755682D01*
X148350001Y-85755682D01*
X148381352Y-85751554D01*
X148506762Y-85735044D01*
X148652841Y-85674536D01*
X148778282Y-85578282D01*
X148874536Y-85452841D01*
X148935044Y-85306762D01*
X148955682Y-85150000D01*
X148935044Y-84993238D01*
X148874537Y-84847161D01*
X148874537Y-84847160D01*
X148778286Y-84721723D01*
X148778285Y-84721722D01*
X148778282Y-84721718D01*
X148778277Y-84721714D01*
X148778276Y-84721713D01*
X148652838Y-84625462D01*
X148506766Y-84564957D01*
X148506758Y-84564955D01*
X148350001Y-84544318D01*
X148349999Y-84544318D01*
X148193241Y-84564955D01*
X148193233Y-84564957D01*
X148047161Y-84625462D01*
X148047160Y-84625462D01*
X147921723Y-84721713D01*
X147921713Y-84721723D01*
X147825462Y-84847160D01*
X147825462Y-84847161D01*
X147764957Y-84993233D01*
X147764955Y-84993241D01*
X147744318Y-85149999D01*
X147744318Y-85150000D01*
X144355682Y-85150000D01*
X144335044Y-84993238D01*
X144274537Y-84847161D01*
X144274537Y-84847160D01*
X144178286Y-84721723D01*
X144178285Y-84721722D01*
X144178282Y-84721718D01*
X144178277Y-84721714D01*
X144178276Y-84721713D01*
X144052838Y-84625462D01*
X143906766Y-84564957D01*
X143906758Y-84564955D01*
X143750001Y-84544318D01*
X143749999Y-84544318D01*
X143593241Y-84564955D01*
X143593233Y-84564957D01*
X143447161Y-84625462D01*
X143447160Y-84625462D01*
X143321723Y-84721713D01*
X143321713Y-84721723D01*
X143225462Y-84847160D01*
X143225462Y-84847161D01*
X143164957Y-84993233D01*
X143164955Y-84993241D01*
X143144318Y-85149999D01*
X143144318Y-85150000D01*
X139493159Y-85150000D01*
X139493167Y-85149999D01*
X139606762Y-85135044D01*
X139752841Y-85074536D01*
X139878282Y-84978282D01*
X139974536Y-84852841D01*
X140035044Y-84706762D01*
X140055682Y-84550000D01*
X140035044Y-84393238D01*
X140010938Y-84335042D01*
X139974537Y-84247161D01*
X139974537Y-84247160D01*
X139878286Y-84121723D01*
X139878285Y-84121722D01*
X139878282Y-84121718D01*
X139878277Y-84121714D01*
X139878276Y-84121713D01*
X139788517Y-84052839D01*
X139752841Y-84025464D01*
X139752840Y-84025463D01*
X139752838Y-84025462D01*
X139606766Y-83964957D01*
X139606758Y-83964955D01*
X139450001Y-83944318D01*
X139449999Y-83944318D01*
X139293241Y-83964955D01*
X139293233Y-83964957D01*
X139147161Y-84025462D01*
X139147160Y-84025462D01*
X139021723Y-84121713D01*
X139021713Y-84121723D01*
X138925462Y-84247160D01*
X138925462Y-84247161D01*
X138864957Y-84393233D01*
X138864955Y-84393241D01*
X138844318Y-84549999D01*
X138844318Y-84550000D01*
X105000000Y-84550000D01*
X105000000Y-83750000D01*
X145394318Y-83750000D01*
X145414955Y-83906758D01*
X145414957Y-83906766D01*
X145475462Y-84052838D01*
X145475462Y-84052839D01*
X145571713Y-84178276D01*
X145571718Y-84178282D01*
X145697159Y-84274536D01*
X145843238Y-84335044D01*
X145960809Y-84350522D01*
X145999999Y-84355682D01*
X146000000Y-84355682D01*
X146000001Y-84355682D01*
X146031352Y-84351554D01*
X146156762Y-84335044D01*
X146302841Y-84274536D01*
X146428282Y-84178282D01*
X146488350Y-84100000D01*
X153894318Y-84100000D01*
X153914955Y-84256758D01*
X153914957Y-84256766D01*
X153975462Y-84402838D01*
X153975462Y-84402839D01*
X153975464Y-84402841D01*
X154071718Y-84528282D01*
X154197159Y-84624536D01*
X154197160Y-84624536D01*
X154197161Y-84624537D01*
X154199399Y-84625464D01*
X154343238Y-84685044D01*
X154460809Y-84700522D01*
X154499999Y-84705682D01*
X154500000Y-84705682D01*
X154500001Y-84705682D01*
X154531352Y-84701554D01*
X154656762Y-84685044D01*
X154802841Y-84624536D01*
X154928282Y-84528282D01*
X155024536Y-84402841D01*
X155085044Y-84256762D01*
X155105682Y-84100000D01*
X155085044Y-83943238D01*
X155069935Y-83906762D01*
X155024537Y-83797161D01*
X155024537Y-83797160D01*
X154928286Y-83671723D01*
X154928285Y-83671722D01*
X154928282Y-83671718D01*
X154928277Y-83671714D01*
X154928276Y-83671713D01*
X154857104Y-83617101D01*
X154802841Y-83575464D01*
X154802840Y-83575463D01*
X154802838Y-83575462D01*
X154656766Y-83514957D01*
X154656758Y-83514955D01*
X154500001Y-83494318D01*
X154499999Y-83494318D01*
X154343241Y-83514955D01*
X154343233Y-83514957D01*
X154197161Y-83575462D01*
X154197160Y-83575462D01*
X154071723Y-83671713D01*
X154071713Y-83671723D01*
X153975462Y-83797160D01*
X153975462Y-83797161D01*
X153914957Y-83943233D01*
X153914955Y-83943241D01*
X153894318Y-84099999D01*
X153894318Y-84100000D01*
X146488350Y-84100000D01*
X146524536Y-84052841D01*
X146585044Y-83906762D01*
X146605682Y-83750000D01*
X146585044Y-83593238D01*
X146552619Y-83514957D01*
X146524537Y-83447161D01*
X146524537Y-83447160D01*
X146428286Y-83321723D01*
X146428285Y-83321722D01*
X146428282Y-83321718D01*
X146428277Y-83321714D01*
X146428276Y-83321713D01*
X146302838Y-83225462D01*
X146156766Y-83164957D01*
X146156758Y-83164955D01*
X146000001Y-83144318D01*
X145999999Y-83144318D01*
X145843241Y-83164955D01*
X145843233Y-83164957D01*
X145697161Y-83225462D01*
X145697160Y-83225462D01*
X145571723Y-83321713D01*
X145571713Y-83321723D01*
X145475462Y-83447160D01*
X145475462Y-83447161D01*
X145414957Y-83593233D01*
X145414955Y-83593241D01*
X145394318Y-83749999D01*
X145394318Y-83750000D01*
X105000000Y-83750000D01*
X105000000Y-79800000D01*
X118719318Y-79800000D01*
X118739955Y-79956758D01*
X118739957Y-79956766D01*
X118800462Y-80102838D01*
X118800462Y-80102839D01*
X118838830Y-80152841D01*
X118896718Y-80228282D01*
X119022159Y-80324536D01*
X119168238Y-80385044D01*
X119285809Y-80400522D01*
X119324999Y-80405682D01*
X119325000Y-80405682D01*
X119325001Y-80405682D01*
X119356352Y-80401554D01*
X119481762Y-80385044D01*
X119627841Y-80324536D01*
X119753282Y-80228282D01*
X119849536Y-80102841D01*
X119910044Y-79956762D01*
X119924099Y-79850000D01*
X124169318Y-79850000D01*
X124189955Y-80006758D01*
X124189957Y-80006766D01*
X124250462Y-80152838D01*
X124250462Y-80152839D01*
X124346713Y-80278276D01*
X124346718Y-80278282D01*
X124472159Y-80374536D01*
X124472160Y-80374536D01*
X124472161Y-80374537D01*
X124547352Y-80405682D01*
X124618238Y-80435044D01*
X124735809Y-80450522D01*
X124774999Y-80455682D01*
X124775000Y-80455682D01*
X124775001Y-80455682D01*
X124806352Y-80451554D01*
X124931762Y-80435044D01*
X125077841Y-80374536D01*
X125203282Y-80278282D01*
X125299536Y-80152841D01*
X125360044Y-80006762D01*
X125380682Y-79850000D01*
X125360044Y-79693238D01*
X125299537Y-79547161D01*
X125299537Y-79547160D01*
X125203286Y-79421723D01*
X125203285Y-79421722D01*
X125203282Y-79421718D01*
X125203277Y-79421714D01*
X125203276Y-79421713D01*
X125077838Y-79325462D01*
X124931766Y-79264957D01*
X124931758Y-79264955D01*
X124775001Y-79244318D01*
X124774999Y-79244318D01*
X124618241Y-79264955D01*
X124618233Y-79264957D01*
X124472161Y-79325462D01*
X124472160Y-79325462D01*
X124346723Y-79421713D01*
X124346713Y-79421723D01*
X124250462Y-79547160D01*
X124250462Y-79547161D01*
X124189957Y-79693233D01*
X124189955Y-79693241D01*
X124169318Y-79849999D01*
X124169318Y-79850000D01*
X119924099Y-79850000D01*
X119930682Y-79800000D01*
X119910044Y-79643238D01*
X119849537Y-79497161D01*
X119849537Y-79497160D01*
X119753286Y-79371723D01*
X119753285Y-79371722D01*
X119753282Y-79371718D01*
X119753277Y-79371714D01*
X119753276Y-79371713D01*
X119627838Y-79275462D01*
X119481766Y-79214957D01*
X119481758Y-79214955D01*
X119325001Y-79194318D01*
X119324999Y-79194318D01*
X119168241Y-79214955D01*
X119168233Y-79214957D01*
X119022161Y-79275462D01*
X119022160Y-79275462D01*
X118896723Y-79371713D01*
X118896713Y-79371723D01*
X118800462Y-79497160D01*
X118800462Y-79497161D01*
X118739957Y-79643233D01*
X118739955Y-79643241D01*
X118719318Y-79799999D01*
X118719318Y-79800000D01*
X105000000Y-79800000D01*
X105000000Y-77600000D01*
X141194318Y-77600000D01*
X141214955Y-77756758D01*
X141214957Y-77756766D01*
X141275462Y-77902838D01*
X141275462Y-77902839D01*
X141275464Y-77902841D01*
X141371718Y-78028282D01*
X141497159Y-78124536D01*
X141643238Y-78185044D01*
X141760809Y-78200522D01*
X141799999Y-78205682D01*
X141800000Y-78205682D01*
X141800001Y-78205682D01*
X141831352Y-78201554D01*
X141956762Y-78185044D01*
X142102841Y-78124536D01*
X142228282Y-78028282D01*
X142324536Y-77902841D01*
X142385044Y-77756762D01*
X142405682Y-77600000D01*
X142385044Y-77443238D01*
X142360938Y-77385042D01*
X142324537Y-77297161D01*
X142324537Y-77297160D01*
X142228286Y-77171723D01*
X142228285Y-77171722D01*
X142228282Y-77171718D01*
X142228277Y-77171714D01*
X142228276Y-77171713D01*
X142138517Y-77102839D01*
X142102841Y-77075464D01*
X142102840Y-77075463D01*
X142102838Y-77075462D01*
X141956766Y-77014957D01*
X141956758Y-77014955D01*
X141800001Y-76994318D01*
X141799999Y-76994318D01*
X141643241Y-77014955D01*
X141643233Y-77014957D01*
X141497161Y-77075462D01*
X141497160Y-77075462D01*
X141371723Y-77171713D01*
X141371713Y-77171723D01*
X141275462Y-77297160D01*
X141275462Y-77297161D01*
X141214957Y-77443233D01*
X141214955Y-77443241D01*
X141194318Y-77599999D01*
X141194318Y-77600000D01*
X105000000Y-77600000D01*
X105000000Y-76700000D01*
X128219318Y-76700000D01*
X128239955Y-76856758D01*
X128239957Y-76856766D01*
X128300462Y-77002838D01*
X128300462Y-77002839D01*
X128356189Y-77075464D01*
X128396718Y-77128282D01*
X128522159Y-77224536D01*
X128522160Y-77224536D01*
X128522161Y-77224537D01*
X128531212Y-77228286D01*
X128668238Y-77285044D01*
X128785809Y-77300522D01*
X128824999Y-77305682D01*
X128825000Y-77305682D01*
X128825001Y-77305682D01*
X128856352Y-77301554D01*
X128981762Y-77285044D01*
X129127841Y-77224536D01*
X129253282Y-77128282D01*
X129349536Y-77002841D01*
X129410044Y-76856762D01*
X129430682Y-76700000D01*
X129410044Y-76543238D01*
X129390958Y-76497160D01*
X129381779Y-76475000D01*
X134644318Y-76475000D01*
X134664955Y-76631758D01*
X134664957Y-76631766D01*
X134725462Y-76777838D01*
X134725462Y-76777839D01*
X134725464Y-76777841D01*
X134821718Y-76903282D01*
X134947159Y-76999536D01*
X134947160Y-76999536D01*
X134947161Y-76999537D01*
X135093233Y-77060042D01*
X135093238Y-77060044D01*
X135210350Y-77075462D01*
X135249999Y-77080682D01*
X135250000Y-77080682D01*
X135250001Y-77080682D01*
X135289650Y-77075462D01*
X135406762Y-77060044D01*
X135552841Y-76999536D01*
X135678282Y-76903282D01*
X135757533Y-76800000D01*
X153894318Y-76800000D01*
X153914955Y-76956758D01*
X153914957Y-76956766D01*
X153975462Y-77102838D01*
X153975462Y-77102839D01*
X154068844Y-77224537D01*
X154071718Y-77228282D01*
X154197159Y-77324536D01*
X154343238Y-77385044D01*
X154460809Y-77400522D01*
X154499999Y-77405682D01*
X154500000Y-77405682D01*
X154500001Y-77405682D01*
X154531352Y-77401554D01*
X154656762Y-77385044D01*
X154802841Y-77324536D01*
X154928282Y-77228282D01*
X155024536Y-77102841D01*
X155085044Y-76956762D01*
X155105682Y-76800000D01*
X155102764Y-76777839D01*
X155092517Y-76700000D01*
X155085044Y-76643238D01*
X155080292Y-76631766D01*
X155024537Y-76497161D01*
X155024537Y-76497160D01*
X154928286Y-76371723D01*
X154928285Y-76371722D01*
X154928282Y-76371718D01*
X154928277Y-76371714D01*
X154928276Y-76371713D01*
X154802838Y-76275462D01*
X154656766Y-76214957D01*
X154656758Y-76214955D01*
X154500001Y-76194318D01*
X154499999Y-76194318D01*
X154343241Y-76214955D01*
X154343233Y-76214957D01*
X154197161Y-76275462D01*
X154197160Y-76275462D01*
X154071723Y-76371713D01*
X154071713Y-76371723D01*
X153975462Y-76497160D01*
X153975462Y-76497161D01*
X153914957Y-76643233D01*
X153914955Y-76643241D01*
X153894318Y-76799999D01*
X153894318Y-76800000D01*
X135757533Y-76800000D01*
X135774536Y-76777841D01*
X135835044Y-76631762D01*
X135855682Y-76475000D01*
X135835044Y-76318238D01*
X135835042Y-76318233D01*
X135774537Y-76172161D01*
X135774537Y-76172160D01*
X135678286Y-76046723D01*
X135678285Y-76046722D01*
X135678282Y-76046718D01*
X135678277Y-76046714D01*
X135678276Y-76046713D01*
X135552838Y-75950462D01*
X135406766Y-75889957D01*
X135406758Y-75889955D01*
X135250001Y-75869318D01*
X135249999Y-75869318D01*
X135093241Y-75889955D01*
X135093233Y-75889957D01*
X134947161Y-75950462D01*
X134947160Y-75950462D01*
X134821723Y-76046713D01*
X134821713Y-76046723D01*
X134725462Y-76172160D01*
X134725462Y-76172161D01*
X134664957Y-76318233D01*
X134664955Y-76318241D01*
X134644318Y-76474999D01*
X134644318Y-76475000D01*
X129381779Y-76475000D01*
X129349537Y-76397161D01*
X129349537Y-76397160D01*
X129253286Y-76271723D01*
X129253285Y-76271722D01*
X129253282Y-76271718D01*
X129253277Y-76271714D01*
X129253276Y-76271713D01*
X129127838Y-76175462D01*
X128981766Y-76114957D01*
X128981758Y-76114955D01*
X128825001Y-76094318D01*
X128824999Y-76094318D01*
X128668241Y-76114955D01*
X128668233Y-76114957D01*
X128522161Y-76175462D01*
X128522160Y-76175462D01*
X128396723Y-76271713D01*
X128396713Y-76271723D01*
X128300462Y-76397160D01*
X128300462Y-76397161D01*
X128239957Y-76543233D01*
X128239955Y-76543241D01*
X128219318Y-76699999D01*
X128219318Y-76700000D01*
X105000000Y-76700000D01*
X105000000Y-75575000D01*
X116994318Y-75575000D01*
X117014955Y-75731758D01*
X117014957Y-75731766D01*
X117075462Y-75877838D01*
X117075462Y-75877839D01*
X117131189Y-75950464D01*
X117171718Y-76003282D01*
X117297159Y-76099536D01*
X117297160Y-76099536D01*
X117297161Y-76099537D01*
X117443233Y-76160042D01*
X117443238Y-76160044D01*
X117560350Y-76175462D01*
X117599999Y-76180682D01*
X117600000Y-76180682D01*
X117600001Y-76180682D01*
X117639650Y-76175462D01*
X117756762Y-76160044D01*
X117902841Y-76099536D01*
X118028282Y-76003282D01*
X118124536Y-75877841D01*
X118185044Y-75731762D01*
X118205682Y-75575000D01*
X118185044Y-75418238D01*
X118185042Y-75418233D01*
X118124537Y-75272161D01*
X118124537Y-75272160D01*
X118028286Y-75146723D01*
X118028285Y-75146722D01*
X118028282Y-75146718D01*
X118028277Y-75146714D01*
X118028276Y-75146713D01*
X117907845Y-75054304D01*
X117902841Y-75050464D01*
X117902840Y-75050463D01*
X117902838Y-75050462D01*
X117756766Y-74989957D01*
X117756758Y-74989955D01*
X117600001Y-74969318D01*
X117599999Y-74969318D01*
X117443241Y-74989955D01*
X117443233Y-74989957D01*
X117297161Y-75050462D01*
X117297160Y-75050462D01*
X117171723Y-75146713D01*
X117171713Y-75146723D01*
X117075462Y-75272160D01*
X117075462Y-75272161D01*
X117014957Y-75418233D01*
X117014955Y-75418241D01*
X116994318Y-75574999D01*
X116994318Y-75575000D01*
X105000000Y-75575000D01*
X105000000Y-74751463D01*
X137297683Y-74751463D01*
X137318320Y-74908221D01*
X137318322Y-74908229D01*
X137378827Y-75054301D01*
X137378827Y-75054302D01*
X137449744Y-75146723D01*
X137475083Y-75179745D01*
X137600524Y-75275999D01*
X137746603Y-75336507D01*
X137864174Y-75351985D01*
X137903364Y-75357145D01*
X137903365Y-75357145D01*
X137903366Y-75357145D01*
X137934717Y-75353017D01*
X138060127Y-75336507D01*
X138206206Y-75275999D01*
X138331647Y-75179745D01*
X138427901Y-75054304D01*
X138488409Y-74908225D01*
X138509047Y-74751463D01*
X138488409Y-74594701D01*
X138427902Y-74448624D01*
X138427902Y-74448623D01*
X138331651Y-74323186D01*
X138331650Y-74323185D01*
X138331647Y-74323181D01*
X138331642Y-74323177D01*
X138331641Y-74323176D01*
X138240558Y-74253286D01*
X138206206Y-74226927D01*
X138206205Y-74226926D01*
X138206203Y-74226925D01*
X138060131Y-74166420D01*
X138060123Y-74166418D01*
X137903366Y-74145781D01*
X137903364Y-74145781D01*
X137746606Y-74166418D01*
X137746598Y-74166420D01*
X137600526Y-74226925D01*
X137600525Y-74226925D01*
X137475088Y-74323176D01*
X137475078Y-74323186D01*
X137378827Y-74448623D01*
X137378827Y-74448624D01*
X137318322Y-74594696D01*
X137318320Y-74594704D01*
X137297683Y-74751462D01*
X137297683Y-74751463D01*
X105000000Y-74751463D01*
X105000000Y-73600000D01*
X132194661Y-73600000D01*
X132215298Y-73756758D01*
X132215300Y-73756766D01*
X132275805Y-73902838D01*
X132275805Y-73902839D01*
X132372056Y-74028276D01*
X132372061Y-74028282D01*
X132497502Y-74124536D01*
X132497503Y-74124536D01*
X132497504Y-74124537D01*
X132505476Y-74127839D01*
X132643581Y-74185044D01*
X132761152Y-74200522D01*
X132800342Y-74205682D01*
X132800343Y-74205682D01*
X132800344Y-74205682D01*
X132831695Y-74201554D01*
X132957105Y-74185044D01*
X133103184Y-74124536D01*
X133131692Y-74102660D01*
X133189365Y-74082238D01*
X133248031Y-74099615D01*
X133270260Y-74123656D01*
X133271514Y-74122694D01*
X133351495Y-74226927D01*
X133371718Y-74253282D01*
X133497159Y-74349536D01*
X133643238Y-74410044D01*
X133760809Y-74425522D01*
X133799999Y-74430682D01*
X133800000Y-74430682D01*
X133800001Y-74430682D01*
X133831352Y-74426554D01*
X133956762Y-74410044D01*
X134102841Y-74349536D01*
X134228282Y-74253282D01*
X134233958Y-74245885D01*
X134284382Y-74211229D01*
X134345546Y-74212830D01*
X134391042Y-74245885D01*
X134396718Y-74253282D01*
X134522159Y-74349536D01*
X134668238Y-74410044D01*
X134785809Y-74425522D01*
X134824999Y-74430682D01*
X134825000Y-74430682D01*
X134825001Y-74430682D01*
X134856352Y-74426554D01*
X134981762Y-74410044D01*
X135127841Y-74349536D01*
X135253282Y-74253282D01*
X135349536Y-74127841D01*
X135410044Y-73981762D01*
X135430682Y-73825000D01*
X135410044Y-73668238D01*
X135381779Y-73600000D01*
X135349537Y-73522161D01*
X135349537Y-73522160D01*
X135253286Y-73396723D01*
X135253285Y-73396722D01*
X135253282Y-73396718D01*
X135253277Y-73396714D01*
X135253276Y-73396713D01*
X135156348Y-73322338D01*
X135127841Y-73300464D01*
X135127840Y-73300463D01*
X135127838Y-73300462D01*
X134981766Y-73239957D01*
X134981758Y-73239955D01*
X134825001Y-73219318D01*
X134824999Y-73219318D01*
X134668241Y-73239955D01*
X134668233Y-73239957D01*
X134522161Y-73300462D01*
X134522160Y-73300462D01*
X134396723Y-73396713D01*
X134396713Y-73396723D01*
X134391040Y-73404117D01*
X134340614Y-73438771D01*
X134279450Y-73437167D01*
X134233960Y-73404117D01*
X134228286Y-73396723D01*
X134228285Y-73396722D01*
X134228282Y-73396718D01*
X134228277Y-73396714D01*
X134228276Y-73396713D01*
X134131348Y-73322338D01*
X134102841Y-73300464D01*
X134102840Y-73300463D01*
X134102838Y-73300462D01*
X133956766Y-73239957D01*
X133956758Y-73239955D01*
X133800001Y-73219318D01*
X133799999Y-73219318D01*
X133643241Y-73239955D01*
X133643233Y-73239957D01*
X133497161Y-73300462D01*
X133497160Y-73300462D01*
X133468652Y-73322338D01*
X133410976Y-73342762D01*
X133352310Y-73325384D01*
X133330085Y-73301342D01*
X133328829Y-73302307D01*
X133228629Y-73171723D01*
X133228628Y-73171722D01*
X133228625Y-73171718D01*
X133228620Y-73171714D01*
X133228619Y-73171713D01*
X133103181Y-73075462D01*
X132957109Y-73014957D01*
X132957101Y-73014955D01*
X132800344Y-72994318D01*
X132800342Y-72994318D01*
X132643584Y-73014955D01*
X132643576Y-73014957D01*
X132497504Y-73075462D01*
X132497503Y-73075462D01*
X132372066Y-73171713D01*
X132372056Y-73171723D01*
X132275805Y-73297160D01*
X132275805Y-73297161D01*
X132215300Y-73443233D01*
X132215298Y-73443241D01*
X132194661Y-73599999D01*
X132194661Y-73600000D01*
X105000000Y-73600000D01*
X105000000Y-71603467D01*
X108824500Y-71603467D01*
X108864869Y-71806418D01*
X108944058Y-71997597D01*
X108944059Y-71997598D01*
X109059023Y-72169655D01*
X109205345Y-72315977D01*
X109377402Y-72430941D01*
X109568580Y-72510130D01*
X109771535Y-72550500D01*
X109771536Y-72550500D01*
X110228464Y-72550500D01*
X110228465Y-72550500D01*
X110431420Y-72510130D01*
X110622598Y-72430941D01*
X110794655Y-72315977D01*
X110940977Y-72169655D01*
X111055941Y-71997598D01*
X111135130Y-71806420D01*
X111175500Y-71603465D01*
X111175500Y-71396535D01*
X111135130Y-71193580D01*
X111055941Y-71002402D01*
X110940977Y-70830345D01*
X110794655Y-70684023D01*
X110794651Y-70684020D01*
X110622597Y-70569058D01*
X110431418Y-70489869D01*
X110228467Y-70449500D01*
X110228465Y-70449500D01*
X109771535Y-70449500D01*
X109771532Y-70449500D01*
X109568581Y-70489869D01*
X109377402Y-70569058D01*
X109205348Y-70684020D01*
X109059020Y-70830348D01*
X108944058Y-71002402D01*
X108864869Y-71193581D01*
X108824500Y-71396532D01*
X108824500Y-71603467D01*
X105000000Y-71603467D01*
X105000000Y-69103467D01*
X108824500Y-69103467D01*
X108864869Y-69306418D01*
X108944058Y-69497597D01*
X109041372Y-69643238D01*
X109059023Y-69669655D01*
X109205345Y-69815977D01*
X109377402Y-69930941D01*
X109568580Y-70010130D01*
X109771535Y-70050500D01*
X109771536Y-70050500D01*
X110228464Y-70050500D01*
X110228465Y-70050500D01*
X110431420Y-70010130D01*
X110622598Y-69930941D01*
X110794655Y-69815977D01*
X110810632Y-69800000D01*
X124394318Y-69800000D01*
X124414955Y-69956758D01*
X124414957Y-69956766D01*
X124475462Y-70102838D01*
X124475462Y-70102839D01*
X124571713Y-70228276D01*
X124571718Y-70228282D01*
X124697159Y-70324536D01*
X124697160Y-70324536D01*
X124697161Y-70324537D01*
X124774959Y-70356762D01*
X124843238Y-70385044D01*
X124960809Y-70400522D01*
X124999999Y-70405682D01*
X125000000Y-70405682D01*
X125000001Y-70405682D01*
X125031352Y-70401554D01*
X125156762Y-70385044D01*
X125240996Y-70350153D01*
X132469318Y-70350153D01*
X132489955Y-70506911D01*
X132489957Y-70506919D01*
X132550462Y-70652991D01*
X132550462Y-70652992D01*
X132646713Y-70778429D01*
X132646718Y-70778435D01*
X132772159Y-70874689D01*
X132772160Y-70874689D01*
X132772161Y-70874690D01*
X132840119Y-70902839D01*
X132918238Y-70935197D01*
X133035809Y-70950675D01*
X133074999Y-70955835D01*
X133075000Y-70955835D01*
X133075001Y-70955835D01*
X133106352Y-70951707D01*
X133231762Y-70935197D01*
X133377841Y-70874689D01*
X133503282Y-70778435D01*
X133599536Y-70652994D01*
X133621487Y-70600000D01*
X139194318Y-70600000D01*
X139214955Y-70756758D01*
X139214957Y-70756766D01*
X139275462Y-70902838D01*
X139275462Y-70902839D01*
X139371713Y-71028276D01*
X139371718Y-71028282D01*
X139497159Y-71124536D01*
X139643238Y-71185044D01*
X139760809Y-71200522D01*
X139799999Y-71205682D01*
X139800000Y-71205682D01*
X139800001Y-71205682D01*
X139831352Y-71201554D01*
X139956762Y-71185044D01*
X140102841Y-71124536D01*
X140228282Y-71028282D01*
X140324536Y-70902841D01*
X140385044Y-70756762D01*
X140405682Y-70600000D01*
X140385044Y-70443238D01*
X140349226Y-70356766D01*
X140324537Y-70297161D01*
X140324537Y-70297160D01*
X140249984Y-70200000D01*
X141194318Y-70200000D01*
X141214955Y-70356758D01*
X141214957Y-70356766D01*
X141275462Y-70502838D01*
X141275462Y-70502839D01*
X141371713Y-70628276D01*
X141371718Y-70628282D01*
X141497159Y-70724536D01*
X141497160Y-70724536D01*
X141497161Y-70724537D01*
X141574959Y-70756762D01*
X141643238Y-70785044D01*
X141760809Y-70800522D01*
X141799999Y-70805682D01*
X141800000Y-70805682D01*
X141800001Y-70805682D01*
X141831352Y-70801554D01*
X141956762Y-70785044D01*
X142102841Y-70724536D01*
X142228282Y-70628282D01*
X142324536Y-70502841D01*
X142385044Y-70356762D01*
X142405682Y-70200000D01*
X142385044Y-70043238D01*
X142349226Y-69956766D01*
X142324537Y-69897161D01*
X142324537Y-69897160D01*
X142228286Y-69771723D01*
X142228285Y-69771722D01*
X142228282Y-69771718D01*
X142228277Y-69771714D01*
X142228276Y-69771713D01*
X142102838Y-69675462D01*
X141956766Y-69614957D01*
X141956758Y-69614955D01*
X141800001Y-69594318D01*
X141799999Y-69594318D01*
X141643241Y-69614955D01*
X141643233Y-69614957D01*
X141497161Y-69675462D01*
X141497160Y-69675462D01*
X141371723Y-69771713D01*
X141371713Y-69771723D01*
X141275462Y-69897160D01*
X141275462Y-69897161D01*
X141214957Y-70043233D01*
X141214955Y-70043241D01*
X141194318Y-70199999D01*
X141194318Y-70200000D01*
X140249984Y-70200000D01*
X140228286Y-70171723D01*
X140228285Y-70171722D01*
X140228282Y-70171718D01*
X140228277Y-70171714D01*
X140228276Y-70171713D01*
X140138517Y-70102839D01*
X140102841Y-70075464D01*
X140102840Y-70075463D01*
X140102838Y-70075462D01*
X139956766Y-70014957D01*
X139956758Y-70014955D01*
X139800001Y-69994318D01*
X139799999Y-69994318D01*
X139643241Y-70014955D01*
X139643233Y-70014957D01*
X139497161Y-70075462D01*
X139497160Y-70075462D01*
X139371723Y-70171713D01*
X139371713Y-70171723D01*
X139275462Y-70297160D01*
X139275462Y-70297161D01*
X139214957Y-70443233D01*
X139214955Y-70443241D01*
X139194318Y-70599999D01*
X139194318Y-70600000D01*
X133621487Y-70600000D01*
X133660044Y-70506915D01*
X133680682Y-70350153D01*
X133677309Y-70324536D01*
X133675522Y-70310962D01*
X133660044Y-70193391D01*
X133599537Y-70047314D01*
X133599537Y-70047313D01*
X133503286Y-69921876D01*
X133503285Y-69921875D01*
X133503282Y-69921871D01*
X133503277Y-69921867D01*
X133503276Y-69921866D01*
X133377838Y-69825615D01*
X133231766Y-69765110D01*
X133231758Y-69765108D01*
X133075001Y-69744471D01*
X133074999Y-69744471D01*
X132918241Y-69765108D01*
X132918233Y-69765110D01*
X132772161Y-69825615D01*
X132772160Y-69825615D01*
X132646723Y-69921866D01*
X132646713Y-69921876D01*
X132550462Y-70047313D01*
X132550462Y-70047314D01*
X132489957Y-70193386D01*
X132489955Y-70193394D01*
X132469318Y-70350152D01*
X132469318Y-70350153D01*
X125240996Y-70350153D01*
X125302841Y-70324536D01*
X125428282Y-70228282D01*
X125524536Y-70102841D01*
X125585044Y-69956762D01*
X125605682Y-69800000D01*
X125585044Y-69643238D01*
X125573329Y-69614955D01*
X125524537Y-69497161D01*
X125524537Y-69497160D01*
X125428286Y-69371723D01*
X125428285Y-69371722D01*
X125428282Y-69371718D01*
X125428277Y-69371714D01*
X125428276Y-69371713D01*
X125302838Y-69275462D01*
X125156766Y-69214957D01*
X125156758Y-69214955D01*
X125000001Y-69194318D01*
X124999999Y-69194318D01*
X124843241Y-69214955D01*
X124843233Y-69214957D01*
X124697161Y-69275462D01*
X124697160Y-69275462D01*
X124571723Y-69371713D01*
X124571713Y-69371723D01*
X124475462Y-69497160D01*
X124475462Y-69497161D01*
X124414957Y-69643233D01*
X124414955Y-69643241D01*
X124394318Y-69799999D01*
X124394318Y-69800000D01*
X110810632Y-69800000D01*
X110940977Y-69669655D01*
X111055941Y-69497598D01*
X111135130Y-69306420D01*
X111175500Y-69103465D01*
X111175500Y-68896535D01*
X111135130Y-68693580D01*
X111055941Y-68502402D01*
X110940977Y-68330345D01*
X110794655Y-68184023D01*
X110794651Y-68184020D01*
X110622597Y-68069058D01*
X110431418Y-67989869D01*
X110228467Y-67949500D01*
X110228465Y-67949500D01*
X109771535Y-67949500D01*
X109771532Y-67949500D01*
X109568581Y-67989869D01*
X109377402Y-68069058D01*
X109205348Y-68184020D01*
X109059020Y-68330348D01*
X108944058Y-68502402D01*
X108864869Y-68693581D01*
X108824500Y-68896532D01*
X108824500Y-69103467D01*
X105000000Y-69103467D01*
X105000000Y-67625000D01*
X120719318Y-67625000D01*
X120739955Y-67781758D01*
X120739957Y-67781766D01*
X120800462Y-67927838D01*
X120800462Y-67927839D01*
X120896713Y-68053276D01*
X120896718Y-68053282D01*
X121022159Y-68149536D01*
X121022160Y-68149536D01*
X121022161Y-68149537D01*
X121105418Y-68184023D01*
X121168238Y-68210044D01*
X121285809Y-68225522D01*
X121324999Y-68230682D01*
X121325000Y-68230682D01*
X121325001Y-68230682D01*
X121356352Y-68226554D01*
X121481762Y-68210044D01*
X121627841Y-68149536D01*
X121753282Y-68053282D01*
X121849536Y-67927841D01*
X121910044Y-67781762D01*
X121930682Y-67625000D01*
X121910044Y-67468238D01*
X121898815Y-67441128D01*
X122765432Y-67441128D01*
X122786069Y-67597886D01*
X122786071Y-67597894D01*
X122846576Y-67743966D01*
X122846576Y-67743967D01*
X122919261Y-67838692D01*
X122942832Y-67869410D01*
X123018978Y-67927839D01*
X123038367Y-67942716D01*
X123073023Y-67993140D01*
X123071422Y-68054304D01*
X123056643Y-68081523D01*
X123025464Y-68122157D01*
X123025462Y-68122161D01*
X122964957Y-68268233D01*
X122964955Y-68268241D01*
X122944318Y-68424999D01*
X122944318Y-68425000D01*
X122964955Y-68581758D01*
X122964957Y-68581766D01*
X123025462Y-68727838D01*
X123025462Y-68727839D01*
X123121713Y-68853276D01*
X123121718Y-68853282D01*
X123247159Y-68949536D01*
X123247160Y-68949536D01*
X123247161Y-68949537D01*
X123375848Y-69002841D01*
X123393238Y-69010044D01*
X123510809Y-69025522D01*
X123549999Y-69030682D01*
X123550000Y-69030682D01*
X123550001Y-69030682D01*
X123581352Y-69026554D01*
X123706762Y-69010044D01*
X123852841Y-68949536D01*
X123978282Y-68853282D01*
X124074536Y-68727841D01*
X124135044Y-68581762D01*
X124155682Y-68425000D01*
X124135044Y-68268238D01*
X124103321Y-68191651D01*
X129019317Y-68191651D01*
X129039954Y-68348409D01*
X129039956Y-68348417D01*
X129100461Y-68494489D01*
X129100461Y-68494490D01*
X129196527Y-68619686D01*
X129196717Y-68619933D01*
X129322158Y-68716187D01*
X129468237Y-68776695D01*
X129578893Y-68791263D01*
X129624998Y-68797333D01*
X129624999Y-68797333D01*
X129625000Y-68797333D01*
X129656351Y-68793205D01*
X129781761Y-68776695D01*
X129927840Y-68716187D01*
X130014625Y-68649595D01*
X130026986Y-68640110D01*
X130084662Y-68619686D01*
X130143328Y-68637064D01*
X130165793Y-68658383D01*
X130193898Y-68695009D01*
X130319339Y-68791263D01*
X130319340Y-68791263D01*
X130319341Y-68791264D01*
X130465413Y-68851769D01*
X130465418Y-68851771D01*
X130622180Y-68872409D01*
X130722022Y-68859264D01*
X130782181Y-68870414D01*
X130824299Y-68914796D01*
X130833096Y-68970338D01*
X130819318Y-69074998D01*
X130819318Y-69075000D01*
X130839955Y-69231758D01*
X130839957Y-69231766D01*
X130900462Y-69377838D01*
X130900462Y-69377839D01*
X130996713Y-69503276D01*
X130996718Y-69503282D01*
X131122159Y-69599536D01*
X131122160Y-69599536D01*
X131122161Y-69599537D01*
X131227665Y-69643238D01*
X131268238Y-69660044D01*
X131385350Y-69675462D01*
X131424999Y-69680682D01*
X131425000Y-69680682D01*
X131425001Y-69680682D01*
X131464650Y-69675462D01*
X131581762Y-69660044D01*
X131727841Y-69599536D01*
X131853282Y-69503282D01*
X131949536Y-69377841D01*
X132010044Y-69231762D01*
X132017813Y-69172745D01*
X132044154Y-69117522D01*
X132097924Y-69088327D01*
X132158586Y-69096313D01*
X132194508Y-69125402D01*
X132196718Y-69128282D01*
X132322159Y-69224536D01*
X132322160Y-69224536D01*
X132322161Y-69224537D01*
X132399959Y-69256762D01*
X132468238Y-69285044D01*
X132585809Y-69300522D01*
X132624999Y-69305682D01*
X132625000Y-69305682D01*
X132625001Y-69305682D01*
X132656352Y-69301554D01*
X132781762Y-69285044D01*
X132927841Y-69224536D01*
X133053282Y-69128282D01*
X133074983Y-69100000D01*
X153794318Y-69100000D01*
X153814955Y-69256758D01*
X153814957Y-69256766D01*
X153875462Y-69402838D01*
X153875462Y-69402839D01*
X153952538Y-69503286D01*
X153971718Y-69528282D01*
X154097159Y-69624536D01*
X154097160Y-69624536D01*
X154097161Y-69624537D01*
X154220105Y-69675462D01*
X154243238Y-69685044D01*
X154360809Y-69700522D01*
X154399999Y-69705682D01*
X154400000Y-69705682D01*
X154400001Y-69705682D01*
X154431352Y-69701554D01*
X154556762Y-69685044D01*
X154702841Y-69624536D01*
X154828282Y-69528282D01*
X154924536Y-69402841D01*
X154985044Y-69256762D01*
X155005682Y-69100000D01*
X154985044Y-68943238D01*
X154949226Y-68856766D01*
X154924537Y-68797161D01*
X154924537Y-68797160D01*
X154828286Y-68671723D01*
X154828285Y-68671722D01*
X154828282Y-68671718D01*
X154828277Y-68671714D01*
X154828276Y-68671713D01*
X154711054Y-68581766D01*
X154702841Y-68575464D01*
X154702840Y-68575463D01*
X154702838Y-68575462D01*
X154556766Y-68514957D01*
X154556758Y-68514955D01*
X154400001Y-68494318D01*
X154399999Y-68494318D01*
X154243241Y-68514955D01*
X154243233Y-68514957D01*
X154097161Y-68575462D01*
X154097160Y-68575462D01*
X153971723Y-68671713D01*
X153971713Y-68671723D01*
X153875462Y-68797160D01*
X153875462Y-68797161D01*
X153814957Y-68943233D01*
X153814955Y-68943241D01*
X153794318Y-69099999D01*
X153794318Y-69100000D01*
X133074983Y-69100000D01*
X133149536Y-69002841D01*
X133210044Y-68856762D01*
X133230682Y-68700000D01*
X133230025Y-68695013D01*
X133222396Y-68637064D01*
X133210044Y-68543238D01*
X133189852Y-68494490D01*
X133149537Y-68397161D01*
X133149537Y-68397160D01*
X133053286Y-68271723D01*
X133053285Y-68271722D01*
X133053282Y-68271718D01*
X133053277Y-68271714D01*
X133053276Y-68271713D01*
X132927838Y-68175462D01*
X132781766Y-68114957D01*
X132781758Y-68114955D01*
X132625001Y-68094318D01*
X132624999Y-68094318D01*
X132468241Y-68114955D01*
X132468233Y-68114957D01*
X132322161Y-68175462D01*
X132322160Y-68175462D01*
X132196723Y-68271713D01*
X132196713Y-68271723D01*
X132100462Y-68397160D01*
X132100462Y-68397161D01*
X132039957Y-68543233D01*
X132039955Y-68543240D01*
X132032186Y-68602253D01*
X132005844Y-68657478D01*
X131952073Y-68686672D01*
X131891411Y-68678685D01*
X131855490Y-68649596D01*
X131853282Y-68646718D01*
X131853277Y-68646714D01*
X131853276Y-68646713D01*
X131752738Y-68569568D01*
X131727841Y-68550464D01*
X131727840Y-68550463D01*
X131727838Y-68550462D01*
X131581766Y-68489957D01*
X131581758Y-68489955D01*
X131425001Y-68469318D01*
X131424999Y-68469318D01*
X131325158Y-68482462D01*
X131264997Y-68471312D01*
X131222880Y-68426929D01*
X131214083Y-68371387D01*
X131219487Y-68330345D01*
X131227862Y-68266727D01*
X131207224Y-68109965D01*
X131190280Y-68069058D01*
X131146717Y-67963888D01*
X131146717Y-67963887D01*
X131050466Y-67838450D01*
X131050465Y-67838449D01*
X131050462Y-67838445D01*
X131050457Y-67838441D01*
X131050456Y-67838440D01*
X130952627Y-67763374D01*
X130925021Y-67742191D01*
X130925020Y-67742190D01*
X130925018Y-67742189D01*
X130778946Y-67681684D01*
X130778938Y-67681682D01*
X130622181Y-67661045D01*
X130622179Y-67661045D01*
X130465421Y-67681682D01*
X130465413Y-67681684D01*
X130319341Y-67742189D01*
X130319340Y-67742189D01*
X130220192Y-67818268D01*
X130162516Y-67838692D01*
X130103850Y-67821314D01*
X130081384Y-67799994D01*
X130053281Y-67763369D01*
X130053276Y-67763365D01*
X130053275Y-67763364D01*
X129982103Y-67708752D01*
X129927840Y-67667115D01*
X129927839Y-67667114D01*
X129927837Y-67667113D01*
X129781765Y-67606608D01*
X129781757Y-67606606D01*
X129625000Y-67585969D01*
X129624998Y-67585969D01*
X129468240Y-67606606D01*
X129468232Y-67606608D01*
X129322160Y-67667113D01*
X129322159Y-67667113D01*
X129196722Y-67763364D01*
X129196712Y-67763374D01*
X129100461Y-67888811D01*
X129100461Y-67888812D01*
X129039956Y-68034884D01*
X129039954Y-68034892D01*
X129019317Y-68191650D01*
X129019317Y-68191651D01*
X124103321Y-68191651D01*
X124096615Y-68175462D01*
X124074537Y-68122161D01*
X124074537Y-68122160D01*
X123978286Y-67996723D01*
X123978285Y-67996722D01*
X123978282Y-67996718D01*
X123978277Y-67996714D01*
X123978276Y-67996713D01*
X123888517Y-67927839D01*
X123882745Y-67923410D01*
X123848090Y-67872987D01*
X123849691Y-67811822D01*
X123864471Y-67784602D01*
X123866650Y-67781762D01*
X123895650Y-67743969D01*
X123956158Y-67597890D01*
X123976796Y-67441128D01*
X123956158Y-67284366D01*
X123895651Y-67138289D01*
X123895651Y-67138288D01*
X123799400Y-67012851D01*
X123799399Y-67012850D01*
X123799396Y-67012846D01*
X123799391Y-67012842D01*
X123799390Y-67012841D01*
X123673952Y-66916590D01*
X123527880Y-66856085D01*
X123527872Y-66856083D01*
X123371115Y-66835446D01*
X123371113Y-66835446D01*
X123214355Y-66856083D01*
X123214347Y-66856085D01*
X123068275Y-66916590D01*
X123068274Y-66916590D01*
X122942837Y-67012841D01*
X122942827Y-67012851D01*
X122846576Y-67138288D01*
X122846576Y-67138289D01*
X122786071Y-67284361D01*
X122786069Y-67284369D01*
X122765432Y-67441127D01*
X122765432Y-67441128D01*
X121898815Y-67441128D01*
X121849537Y-67322161D01*
X121849537Y-67322160D01*
X121753286Y-67196723D01*
X121753285Y-67196722D01*
X121753282Y-67196718D01*
X121753277Y-67196714D01*
X121753276Y-67196713D01*
X121627838Y-67100462D01*
X121481766Y-67039957D01*
X121481758Y-67039955D01*
X121325001Y-67019318D01*
X121324999Y-67019318D01*
X121168241Y-67039955D01*
X121168233Y-67039957D01*
X121022161Y-67100462D01*
X121022160Y-67100462D01*
X120896723Y-67196713D01*
X120896713Y-67196723D01*
X120800462Y-67322160D01*
X120800462Y-67322161D01*
X120739957Y-67468233D01*
X120739955Y-67468241D01*
X120719318Y-67624999D01*
X120719318Y-67625000D01*
X105000000Y-67625000D01*
X105000000Y-65600000D01*
X134694318Y-65600000D01*
X134714955Y-65756758D01*
X134714957Y-65756766D01*
X134775462Y-65902838D01*
X134775462Y-65902839D01*
X134775464Y-65902841D01*
X134871718Y-66028282D01*
X134997159Y-66124536D01*
X135143238Y-66185044D01*
X135260809Y-66200522D01*
X135299999Y-66205682D01*
X135300000Y-66205682D01*
X135300001Y-66205682D01*
X135331352Y-66201554D01*
X135456762Y-66185044D01*
X135602841Y-66124536D01*
X135728282Y-66028282D01*
X135824536Y-65902841D01*
X135885044Y-65756762D01*
X135905682Y-65600000D01*
X135885044Y-65443238D01*
X135824537Y-65297161D01*
X135824537Y-65297160D01*
X135728286Y-65171723D01*
X135728285Y-65171722D01*
X135728282Y-65171718D01*
X135728277Y-65171714D01*
X135728276Y-65171713D01*
X135602838Y-65075462D01*
X135456766Y-65014957D01*
X135456758Y-65014955D01*
X135300001Y-64994318D01*
X135299999Y-64994318D01*
X135143241Y-65014955D01*
X135143233Y-65014957D01*
X134997161Y-65075462D01*
X134997160Y-65075462D01*
X134871723Y-65171713D01*
X134871713Y-65171723D01*
X134775462Y-65297160D01*
X134775462Y-65297161D01*
X134714957Y-65443233D01*
X134714955Y-65443241D01*
X134694318Y-65599999D01*
X134694318Y-65600000D01*
X105000000Y-65600000D01*
X105000000Y-62650000D01*
X141144318Y-62650000D01*
X141164955Y-62806758D01*
X141164957Y-62806766D01*
X141225462Y-62952838D01*
X141225462Y-62952839D01*
X141225464Y-62952841D01*
X141321718Y-63078282D01*
X141447159Y-63174536D01*
X141593238Y-63235044D01*
X141710809Y-63250522D01*
X141749999Y-63255682D01*
X141750000Y-63255682D01*
X141750001Y-63255682D01*
X141781352Y-63251554D01*
X141906762Y-63235044D01*
X142052841Y-63174536D01*
X142178282Y-63078282D01*
X142274536Y-62952841D01*
X142335044Y-62806762D01*
X142355682Y-62650000D01*
X142335044Y-62493238D01*
X142274537Y-62347161D01*
X142274537Y-62347160D01*
X142178286Y-62221723D01*
X142178285Y-62221722D01*
X142178282Y-62221718D01*
X142178277Y-62221714D01*
X142178276Y-62221713D01*
X142107104Y-62167101D01*
X142052841Y-62125464D01*
X142052840Y-62125463D01*
X142052838Y-62125462D01*
X141906766Y-62064957D01*
X141906758Y-62064955D01*
X141750001Y-62044318D01*
X141749999Y-62044318D01*
X141593241Y-62064955D01*
X141593233Y-62064957D01*
X141447161Y-62125462D01*
X141447160Y-62125462D01*
X141321723Y-62221713D01*
X141321713Y-62221723D01*
X141225462Y-62347160D01*
X141225462Y-62347161D01*
X141164957Y-62493233D01*
X141164955Y-62493241D01*
X141144318Y-62649999D01*
X141144318Y-62650000D01*
X105000000Y-62650000D01*
X105000000Y-61700000D01*
X153794318Y-61700000D01*
X153814955Y-61856758D01*
X153814957Y-61856766D01*
X153875462Y-62002838D01*
X153875462Y-62002839D01*
X153971713Y-62128276D01*
X153971718Y-62128282D01*
X154097159Y-62224536D01*
X154243238Y-62285044D01*
X154360809Y-62300522D01*
X154399999Y-62305682D01*
X154400000Y-62305682D01*
X154400001Y-62305682D01*
X154431352Y-62301554D01*
X154556762Y-62285044D01*
X154702841Y-62224536D01*
X154828282Y-62128282D01*
X154924536Y-62002841D01*
X154985044Y-61856762D01*
X155005682Y-61700000D01*
X154985044Y-61543238D01*
X154924537Y-61397161D01*
X154924537Y-61397160D01*
X154828286Y-61271723D01*
X154828285Y-61271722D01*
X154828282Y-61271718D01*
X154828277Y-61271714D01*
X154828276Y-61271713D01*
X154702838Y-61175462D01*
X154556766Y-61114957D01*
X154556758Y-61114955D01*
X154400001Y-61094318D01*
X154399999Y-61094318D01*
X154243241Y-61114955D01*
X154243233Y-61114957D01*
X154097161Y-61175462D01*
X154097160Y-61175462D01*
X153971723Y-61271713D01*
X153971713Y-61271723D01*
X153875462Y-61397160D01*
X153875462Y-61397161D01*
X153814957Y-61543233D01*
X153814955Y-61543241D01*
X153794318Y-61699999D01*
X153794318Y-61700000D01*
X105000000Y-61700000D01*
X105000000Y-59603467D01*
X108824500Y-59603467D01*
X108864869Y-59806418D01*
X108944058Y-59997597D01*
X108944059Y-59997598D01*
X109059023Y-60169655D01*
X109205345Y-60315977D01*
X109377402Y-60430941D01*
X109568580Y-60510130D01*
X109771535Y-60550500D01*
X109771536Y-60550500D01*
X110228464Y-60550500D01*
X110228465Y-60550500D01*
X110431420Y-60510130D01*
X110622598Y-60430941D01*
X110794655Y-60315977D01*
X110940977Y-60169655D01*
X111055941Y-59997598D01*
X111135130Y-59806420D01*
X111175500Y-59603465D01*
X111175500Y-59396535D01*
X111135130Y-59193580D01*
X111055941Y-59002402D01*
X110940977Y-58830345D01*
X110794655Y-58684023D01*
X110622598Y-58569059D01*
X110622599Y-58569059D01*
X110622597Y-58569058D01*
X110431418Y-58489869D01*
X110228467Y-58449500D01*
X110228465Y-58449500D01*
X109771535Y-58449500D01*
X109771532Y-58449500D01*
X109568581Y-58489869D01*
X109377402Y-58569058D01*
X109205348Y-58684020D01*
X109059020Y-58830348D01*
X108944058Y-59002402D01*
X108864869Y-59193581D01*
X108824500Y-59396532D01*
X108824500Y-59603467D01*
X105000000Y-59603467D01*
X105000000Y-57103467D01*
X108824500Y-57103467D01*
X108864869Y-57306418D01*
X108944058Y-57497597D01*
X109059020Y-57669651D01*
X109059023Y-57669655D01*
X109205345Y-57815977D01*
X109377402Y-57930941D01*
X109568580Y-58010130D01*
X109771535Y-58050500D01*
X109771536Y-58050500D01*
X110228464Y-58050500D01*
X110228465Y-58050500D01*
X110431420Y-58010130D01*
X110622598Y-57930941D01*
X110794655Y-57815977D01*
X110940977Y-57669655D01*
X111055941Y-57497598D01*
X111135130Y-57306420D01*
X111175500Y-57103465D01*
X111175500Y-56896535D01*
X111148600Y-56761301D01*
X116489300Y-56761301D01*
X116520965Y-57001820D01*
X116520965Y-57001825D01*
X116583754Y-57236156D01*
X116583758Y-57236169D01*
X116676592Y-57460292D01*
X116676594Y-57460296D01*
X116676596Y-57460300D01*
X116797465Y-57669651D01*
X116797899Y-57670403D01*
X116945579Y-57862863D01*
X116945581Y-57862865D01*
X116945585Y-57862870D01*
X117117130Y-58034415D01*
X117117134Y-58034418D01*
X117117136Y-58034420D01*
X117138091Y-58050499D01*
X117309600Y-58182103D01*
X117519700Y-58303404D01*
X117743836Y-58396244D01*
X117978172Y-58459034D01*
X118218699Y-58490700D01*
X118218700Y-58490700D01*
X118461300Y-58490700D01*
X118461301Y-58490700D01*
X118701828Y-58459034D01*
X118936164Y-58396244D01*
X119160300Y-58303404D01*
X119370400Y-58182103D01*
X119529518Y-58060007D01*
X127145510Y-58060007D01*
X127165822Y-58253259D01*
X127225869Y-58438065D01*
X127323027Y-58606349D01*
X127453050Y-58750754D01*
X127610256Y-58864971D01*
X127610261Y-58864973D01*
X127610266Y-58864976D01*
X127787766Y-58944003D01*
X127787773Y-58944006D01*
X127977844Y-58984407D01*
X127977847Y-58984407D01*
X128172157Y-58984407D01*
X128172160Y-58984407D01*
X128362231Y-58944006D01*
X128539748Y-58864971D01*
X128696954Y-58750754D01*
X128826977Y-58606349D01*
X128924135Y-58438065D01*
X128984182Y-58253259D01*
X129004494Y-58060007D01*
X129915510Y-58060007D01*
X129935822Y-58253259D01*
X129995869Y-58438065D01*
X130093027Y-58606349D01*
X130223050Y-58750754D01*
X130380256Y-58864971D01*
X130380261Y-58864973D01*
X130380266Y-58864976D01*
X130557766Y-58944003D01*
X130557773Y-58944006D01*
X130747844Y-58984407D01*
X130747847Y-58984407D01*
X130942157Y-58984407D01*
X130942160Y-58984407D01*
X131132231Y-58944006D01*
X131309748Y-58864971D01*
X131466954Y-58750754D01*
X131596977Y-58606349D01*
X131694135Y-58438065D01*
X131754182Y-58253259D01*
X131774494Y-58060007D01*
X132685510Y-58060007D01*
X132705822Y-58253259D01*
X132765869Y-58438065D01*
X132863027Y-58606349D01*
X132993050Y-58750754D01*
X133150256Y-58864971D01*
X133150261Y-58864973D01*
X133150266Y-58864976D01*
X133327766Y-58944003D01*
X133327773Y-58944006D01*
X133517844Y-58984407D01*
X133517847Y-58984407D01*
X133712157Y-58984407D01*
X133712160Y-58984407D01*
X133902231Y-58944006D01*
X134079748Y-58864971D01*
X134236954Y-58750754D01*
X134366977Y-58606349D01*
X134464135Y-58438065D01*
X134524182Y-58253259D01*
X134544494Y-58060007D01*
X135455509Y-58060007D01*
X135475821Y-58253259D01*
X135535868Y-58438065D01*
X135633026Y-58606349D01*
X135763049Y-58750754D01*
X135920255Y-58864971D01*
X135920260Y-58864973D01*
X135920265Y-58864976D01*
X136097765Y-58944003D01*
X136097772Y-58944006D01*
X136287843Y-58984407D01*
X136287846Y-58984407D01*
X136482156Y-58984407D01*
X136482159Y-58984407D01*
X136672230Y-58944006D01*
X136849747Y-58864971D01*
X137006953Y-58750754D01*
X137136976Y-58606349D01*
X137234134Y-58438065D01*
X137294181Y-58253259D01*
X137314493Y-58060007D01*
X138225509Y-58060007D01*
X138245821Y-58253259D01*
X138305868Y-58438065D01*
X138403026Y-58606349D01*
X138533049Y-58750754D01*
X138690255Y-58864971D01*
X138690260Y-58864973D01*
X138690265Y-58864976D01*
X138867765Y-58944003D01*
X138867772Y-58944006D01*
X139057843Y-58984407D01*
X139057846Y-58984407D01*
X139252156Y-58984407D01*
X139252159Y-58984407D01*
X139442230Y-58944006D01*
X139619747Y-58864971D01*
X139776953Y-58750754D01*
X139906976Y-58606349D01*
X140004134Y-58438065D01*
X140064181Y-58253259D01*
X140084493Y-58060007D01*
X140995508Y-58060007D01*
X141015820Y-58253259D01*
X141075867Y-58438065D01*
X141173025Y-58606349D01*
X141303048Y-58750754D01*
X141460254Y-58864971D01*
X141460259Y-58864973D01*
X141460264Y-58864976D01*
X141637764Y-58944003D01*
X141637771Y-58944006D01*
X141827842Y-58984407D01*
X141827845Y-58984407D01*
X142022155Y-58984407D01*
X142022158Y-58984407D01*
X142212229Y-58944006D01*
X142389746Y-58864971D01*
X142546952Y-58750754D01*
X142676975Y-58606349D01*
X142774133Y-58438065D01*
X142834180Y-58253259D01*
X142854492Y-58060007D01*
X142834180Y-57866755D01*
X142774133Y-57681949D01*
X142676975Y-57513665D01*
X142546952Y-57369260D01*
X142389746Y-57255043D01*
X142389742Y-57255041D01*
X142389735Y-57255037D01*
X142212235Y-57176010D01*
X142212230Y-57176008D01*
X142212229Y-57176008D01*
X142212226Y-57176007D01*
X142212225Y-57176007D01*
X142176073Y-57168322D01*
X142022158Y-57135607D01*
X141827842Y-57135607D01*
X141706642Y-57161368D01*
X141637774Y-57176007D01*
X141637764Y-57176010D01*
X141460264Y-57255037D01*
X141460257Y-57255041D01*
X141303046Y-57369261D01*
X141221082Y-57460292D01*
X141173025Y-57513665D01*
X141075867Y-57681949D01*
X141045271Y-57776110D01*
X141015820Y-57866753D01*
X141015820Y-57866755D01*
X140995508Y-58060007D01*
X140084493Y-58060007D01*
X140064181Y-57866755D01*
X140004134Y-57681949D01*
X139906976Y-57513665D01*
X139776953Y-57369260D01*
X139619747Y-57255043D01*
X139619743Y-57255041D01*
X139619736Y-57255037D01*
X139442236Y-57176010D01*
X139442231Y-57176008D01*
X139442230Y-57176008D01*
X139442227Y-57176007D01*
X139442226Y-57176007D01*
X139406074Y-57168322D01*
X139252159Y-57135607D01*
X139057843Y-57135607D01*
X138936643Y-57161368D01*
X138867775Y-57176007D01*
X138867765Y-57176010D01*
X138690265Y-57255037D01*
X138690258Y-57255041D01*
X138533047Y-57369261D01*
X138451083Y-57460292D01*
X138403026Y-57513665D01*
X138305868Y-57681949D01*
X138275272Y-57776110D01*
X138245821Y-57866753D01*
X138245821Y-57866755D01*
X138225509Y-58060007D01*
X137314493Y-58060007D01*
X137294181Y-57866755D01*
X137234134Y-57681949D01*
X137136976Y-57513665D01*
X137006953Y-57369260D01*
X136849747Y-57255043D01*
X136849743Y-57255041D01*
X136849736Y-57255037D01*
X136672236Y-57176010D01*
X136672231Y-57176008D01*
X136672230Y-57176008D01*
X136672227Y-57176007D01*
X136672226Y-57176007D01*
X136636074Y-57168322D01*
X136482159Y-57135607D01*
X136287843Y-57135607D01*
X136166643Y-57161368D01*
X136097775Y-57176007D01*
X136097765Y-57176010D01*
X135920265Y-57255037D01*
X135920258Y-57255041D01*
X135763047Y-57369261D01*
X135681083Y-57460292D01*
X135633026Y-57513665D01*
X135535868Y-57681949D01*
X135505272Y-57776110D01*
X135475821Y-57866753D01*
X135475821Y-57866755D01*
X135455509Y-58060007D01*
X134544494Y-58060007D01*
X134524182Y-57866755D01*
X134464135Y-57681949D01*
X134366977Y-57513665D01*
X134236954Y-57369260D01*
X134079748Y-57255043D01*
X134079744Y-57255041D01*
X134079737Y-57255037D01*
X133902237Y-57176010D01*
X133902232Y-57176008D01*
X133902231Y-57176008D01*
X133902228Y-57176007D01*
X133902227Y-57176007D01*
X133866075Y-57168322D01*
X133712160Y-57135607D01*
X133517844Y-57135607D01*
X133396644Y-57161368D01*
X133327776Y-57176007D01*
X133327766Y-57176010D01*
X133150266Y-57255037D01*
X133150259Y-57255041D01*
X132993048Y-57369261D01*
X132911084Y-57460292D01*
X132863027Y-57513665D01*
X132765869Y-57681949D01*
X132735273Y-57776110D01*
X132705822Y-57866753D01*
X132705822Y-57866755D01*
X132685510Y-58060007D01*
X131774494Y-58060007D01*
X131754182Y-57866755D01*
X131694135Y-57681949D01*
X131596977Y-57513665D01*
X131466954Y-57369260D01*
X131309748Y-57255043D01*
X131309744Y-57255041D01*
X131309737Y-57255037D01*
X131132237Y-57176010D01*
X131132232Y-57176008D01*
X131132231Y-57176008D01*
X131132228Y-57176007D01*
X131132227Y-57176007D01*
X131096075Y-57168322D01*
X130942160Y-57135607D01*
X130747844Y-57135607D01*
X130626644Y-57161368D01*
X130557776Y-57176007D01*
X130557766Y-57176010D01*
X130380266Y-57255037D01*
X130380259Y-57255041D01*
X130223048Y-57369261D01*
X130141084Y-57460292D01*
X130093027Y-57513665D01*
X129995869Y-57681949D01*
X129965273Y-57776110D01*
X129935822Y-57866753D01*
X129935822Y-57866755D01*
X129915510Y-58060007D01*
X129004494Y-58060007D01*
X128984182Y-57866755D01*
X128924135Y-57681949D01*
X128826977Y-57513665D01*
X128696954Y-57369260D01*
X128539748Y-57255043D01*
X128539744Y-57255041D01*
X128539737Y-57255037D01*
X128362237Y-57176010D01*
X128362232Y-57176008D01*
X128362231Y-57176008D01*
X128362228Y-57176007D01*
X128362227Y-57176007D01*
X128326075Y-57168322D01*
X128172160Y-57135607D01*
X127977844Y-57135607D01*
X127856644Y-57161368D01*
X127787776Y-57176007D01*
X127787766Y-57176010D01*
X127610266Y-57255037D01*
X127610259Y-57255041D01*
X127453048Y-57369261D01*
X127371084Y-57460292D01*
X127323027Y-57513665D01*
X127225869Y-57681949D01*
X127195273Y-57776110D01*
X127165822Y-57866753D01*
X127165822Y-57866755D01*
X127145510Y-58060007D01*
X119529518Y-58060007D01*
X119562870Y-58034415D01*
X119734415Y-57862870D01*
X119882103Y-57670400D01*
X120003404Y-57460300D01*
X120096244Y-57236164D01*
X120159034Y-57001828D01*
X120190700Y-56761301D01*
X149809300Y-56761301D01*
X149840965Y-57001820D01*
X149840965Y-57001825D01*
X149903754Y-57236156D01*
X149903758Y-57236169D01*
X149996592Y-57460292D01*
X149996594Y-57460296D01*
X149996596Y-57460300D01*
X150117465Y-57669651D01*
X150117899Y-57670403D01*
X150265579Y-57862863D01*
X150265581Y-57862865D01*
X150265585Y-57862870D01*
X150437130Y-58034415D01*
X150437134Y-58034418D01*
X150437136Y-58034420D01*
X150458091Y-58050499D01*
X150629600Y-58182103D01*
X150839700Y-58303404D01*
X151063836Y-58396244D01*
X151298172Y-58459034D01*
X151538699Y-58490700D01*
X151538700Y-58490700D01*
X151781300Y-58490700D01*
X151781301Y-58490700D01*
X152021828Y-58459034D01*
X152256164Y-58396244D01*
X152480300Y-58303404D01*
X152690400Y-58182103D01*
X152882870Y-58034415D01*
X153054415Y-57862870D01*
X153202103Y-57670400D01*
X153323404Y-57460300D01*
X153416244Y-57236164D01*
X153479034Y-57001828D01*
X153510700Y-56761301D01*
X153510700Y-56518699D01*
X153479034Y-56278172D01*
X153416244Y-56043836D01*
X153323404Y-55819700D01*
X153202103Y-55609600D01*
X153054415Y-55417130D01*
X152882870Y-55245585D01*
X152882865Y-55245581D01*
X152882863Y-55245579D01*
X152690403Y-55097899D01*
X152690400Y-55097897D01*
X152480300Y-54976596D01*
X152480296Y-54976594D01*
X152480292Y-54976592D01*
X152256169Y-54883758D01*
X152256168Y-54883757D01*
X152256164Y-54883756D01*
X152021828Y-54820966D01*
X152021825Y-54820965D01*
X152021823Y-54820965D01*
X151781301Y-54789300D01*
X151538699Y-54789300D01*
X151538698Y-54789300D01*
X151298179Y-54820965D01*
X151298174Y-54820965D01*
X151063843Y-54883754D01*
X151063830Y-54883758D01*
X150839707Y-54976592D01*
X150629596Y-55097899D01*
X150437136Y-55245579D01*
X150265579Y-55417136D01*
X150117899Y-55609596D01*
X149996592Y-55819707D01*
X149903758Y-56043830D01*
X149903754Y-56043843D01*
X149840965Y-56278174D01*
X149840965Y-56278179D01*
X149809300Y-56518698D01*
X149809300Y-56761301D01*
X120190700Y-56761301D01*
X120190700Y-56518699D01*
X120159034Y-56278172D01*
X120096244Y-56043836D01*
X120003404Y-55819700D01*
X119882103Y-55609600D01*
X119734415Y-55417130D01*
X119562870Y-55245585D01*
X119562865Y-55245581D01*
X119562863Y-55245579D01*
X119529538Y-55220008D01*
X125760509Y-55220008D01*
X125780821Y-55413260D01*
X125840868Y-55598066D01*
X125938026Y-55766350D01*
X126068049Y-55910755D01*
X126225255Y-56024972D01*
X126225260Y-56024974D01*
X126225265Y-56024977D01*
X126402765Y-56104004D01*
X126402772Y-56104007D01*
X126592843Y-56144408D01*
X126592846Y-56144408D01*
X126787156Y-56144408D01*
X126787159Y-56144408D01*
X126977230Y-56104007D01*
X127154747Y-56024972D01*
X127311953Y-55910755D01*
X127441976Y-55766350D01*
X127539134Y-55598066D01*
X127599181Y-55413260D01*
X127619493Y-55220008D01*
X128530509Y-55220008D01*
X128550821Y-55413260D01*
X128610868Y-55598066D01*
X128708026Y-55766350D01*
X128838049Y-55910755D01*
X128995255Y-56024972D01*
X128995260Y-56024974D01*
X128995265Y-56024977D01*
X129172765Y-56104004D01*
X129172772Y-56104007D01*
X129362843Y-56144408D01*
X129362846Y-56144408D01*
X129557156Y-56144408D01*
X129557159Y-56144408D01*
X129747230Y-56104007D01*
X129924747Y-56024972D01*
X130081953Y-55910755D01*
X130211976Y-55766350D01*
X130309134Y-55598066D01*
X130369181Y-55413260D01*
X130389493Y-55220008D01*
X134070508Y-55220008D01*
X134090820Y-55413260D01*
X134150867Y-55598066D01*
X134248025Y-55766350D01*
X134378048Y-55910755D01*
X134535254Y-56024972D01*
X134535259Y-56024974D01*
X134535264Y-56024977D01*
X134712764Y-56104004D01*
X134712771Y-56104007D01*
X134902842Y-56144408D01*
X134902845Y-56144408D01*
X135097155Y-56144408D01*
X135097158Y-56144408D01*
X135287229Y-56104007D01*
X135464746Y-56024972D01*
X135621952Y-55910755D01*
X135751975Y-55766350D01*
X135849133Y-55598066D01*
X135909180Y-55413260D01*
X135929492Y-55220008D01*
X136840508Y-55220008D01*
X136860820Y-55413260D01*
X136920867Y-55598066D01*
X137018025Y-55766350D01*
X137148048Y-55910755D01*
X137305254Y-56024972D01*
X137305259Y-56024974D01*
X137305264Y-56024977D01*
X137482764Y-56104004D01*
X137482771Y-56104007D01*
X137672842Y-56144408D01*
X137672845Y-56144408D01*
X137867155Y-56144408D01*
X137867158Y-56144408D01*
X138057229Y-56104007D01*
X138234746Y-56024972D01*
X138391952Y-55910755D01*
X138521975Y-55766350D01*
X138619133Y-55598066D01*
X138679180Y-55413260D01*
X138699492Y-55220008D01*
X139610507Y-55220008D01*
X139630819Y-55413260D01*
X139690866Y-55598066D01*
X139788024Y-55766350D01*
X139918047Y-55910755D01*
X140075253Y-56024972D01*
X140075258Y-56024974D01*
X140075263Y-56024977D01*
X140252763Y-56104004D01*
X140252770Y-56104007D01*
X140442841Y-56144408D01*
X140442844Y-56144408D01*
X140637154Y-56144408D01*
X140637157Y-56144408D01*
X140827228Y-56104007D01*
X141004745Y-56024972D01*
X141161951Y-55910755D01*
X141291974Y-55766350D01*
X141389132Y-55598066D01*
X141449179Y-55413260D01*
X141469491Y-55220008D01*
X141449179Y-55026756D01*
X141389132Y-54841950D01*
X141291974Y-54673666D01*
X141161951Y-54529261D01*
X141004745Y-54415044D01*
X141004741Y-54415042D01*
X141004734Y-54415038D01*
X140827234Y-54336011D01*
X140827229Y-54336009D01*
X140827228Y-54336009D01*
X140827225Y-54336008D01*
X140827224Y-54336008D01*
X140791072Y-54328323D01*
X140637157Y-54295608D01*
X140442841Y-54295608D01*
X140321641Y-54321369D01*
X140252773Y-54336008D01*
X140252763Y-54336011D01*
X140075263Y-54415038D01*
X140075256Y-54415042D01*
X139918045Y-54529262D01*
X139798823Y-54661672D01*
X139788024Y-54673666D01*
X139690866Y-54841950D01*
X139677282Y-54883758D01*
X139630819Y-55026754D01*
X139630819Y-55026756D01*
X139610507Y-55220008D01*
X138699492Y-55220008D01*
X138679180Y-55026756D01*
X138619133Y-54841950D01*
X138521975Y-54673666D01*
X138391952Y-54529261D01*
X138234746Y-54415044D01*
X138234742Y-54415042D01*
X138234735Y-54415038D01*
X138057235Y-54336011D01*
X138057230Y-54336009D01*
X138057229Y-54336009D01*
X138057226Y-54336008D01*
X138057225Y-54336008D01*
X138021073Y-54328323D01*
X137867158Y-54295608D01*
X137672842Y-54295608D01*
X137551642Y-54321369D01*
X137482774Y-54336008D01*
X137482764Y-54336011D01*
X137305264Y-54415038D01*
X137305257Y-54415042D01*
X137148046Y-54529262D01*
X137028824Y-54661672D01*
X137018025Y-54673666D01*
X136920867Y-54841950D01*
X136907283Y-54883758D01*
X136860820Y-55026754D01*
X136860820Y-55026756D01*
X136840508Y-55220008D01*
X135929492Y-55220008D01*
X135909180Y-55026756D01*
X135849133Y-54841950D01*
X135751975Y-54673666D01*
X135621952Y-54529261D01*
X135464746Y-54415044D01*
X135464742Y-54415042D01*
X135464735Y-54415038D01*
X135287235Y-54336011D01*
X135287230Y-54336009D01*
X135287229Y-54336009D01*
X135287226Y-54336008D01*
X135287225Y-54336008D01*
X135251073Y-54328323D01*
X135097158Y-54295608D01*
X134902842Y-54295608D01*
X134781642Y-54321369D01*
X134712774Y-54336008D01*
X134712764Y-54336011D01*
X134535264Y-54415038D01*
X134535257Y-54415042D01*
X134378046Y-54529262D01*
X134258824Y-54661672D01*
X134248025Y-54673666D01*
X134150867Y-54841950D01*
X134137283Y-54883758D01*
X134090820Y-55026754D01*
X134090820Y-55026756D01*
X134070508Y-55220008D01*
X130389493Y-55220008D01*
X130369181Y-55026756D01*
X130309134Y-54841950D01*
X130211976Y-54673666D01*
X130081953Y-54529261D01*
X129924747Y-54415044D01*
X129924743Y-54415042D01*
X129924736Y-54415038D01*
X129747236Y-54336011D01*
X129747231Y-54336009D01*
X129747230Y-54336009D01*
X129747227Y-54336008D01*
X129747226Y-54336008D01*
X129711074Y-54328323D01*
X129557159Y-54295608D01*
X129362843Y-54295608D01*
X129241643Y-54321369D01*
X129172775Y-54336008D01*
X129172765Y-54336011D01*
X128995265Y-54415038D01*
X128995258Y-54415042D01*
X128838047Y-54529262D01*
X128718825Y-54661672D01*
X128708026Y-54673666D01*
X128610868Y-54841950D01*
X128597284Y-54883758D01*
X128550821Y-55026754D01*
X128550821Y-55026756D01*
X128530509Y-55220008D01*
X127619493Y-55220008D01*
X127599181Y-55026756D01*
X127539134Y-54841950D01*
X127441976Y-54673666D01*
X127311953Y-54529261D01*
X127154747Y-54415044D01*
X127154743Y-54415042D01*
X127154736Y-54415038D01*
X126977236Y-54336011D01*
X126977231Y-54336009D01*
X126977230Y-54336009D01*
X126977227Y-54336008D01*
X126977226Y-54336008D01*
X126941074Y-54328323D01*
X126787159Y-54295608D01*
X126592843Y-54295608D01*
X126471643Y-54321369D01*
X126402775Y-54336008D01*
X126402765Y-54336011D01*
X126225265Y-54415038D01*
X126225258Y-54415042D01*
X126068047Y-54529262D01*
X125948825Y-54661672D01*
X125938026Y-54673666D01*
X125840868Y-54841950D01*
X125827284Y-54883758D01*
X125780821Y-55026754D01*
X125780821Y-55026756D01*
X125760509Y-55220008D01*
X119529538Y-55220008D01*
X119370403Y-55097899D01*
X119370400Y-55097897D01*
X119160300Y-54976596D01*
X119160296Y-54976594D01*
X119160292Y-54976592D01*
X118936169Y-54883758D01*
X118936168Y-54883757D01*
X118936164Y-54883756D01*
X118701828Y-54820966D01*
X118701825Y-54820965D01*
X118701823Y-54820965D01*
X118461301Y-54789300D01*
X118218699Y-54789300D01*
X118218698Y-54789300D01*
X117978179Y-54820965D01*
X117978174Y-54820965D01*
X117743843Y-54883754D01*
X117743830Y-54883758D01*
X117519707Y-54976592D01*
X117309596Y-55097899D01*
X117117136Y-55245579D01*
X116945579Y-55417136D01*
X116797899Y-55609596D01*
X116676592Y-55819707D01*
X116583758Y-56043830D01*
X116583754Y-56043843D01*
X116520965Y-56278174D01*
X116520965Y-56278179D01*
X116489300Y-56518698D01*
X116489300Y-56761301D01*
X111148600Y-56761301D01*
X111135130Y-56693580D01*
X111055941Y-56502402D01*
X110940977Y-56330345D01*
X110794655Y-56184023D01*
X110674902Y-56104007D01*
X110622597Y-56069058D01*
X110431418Y-55989869D01*
X110228467Y-55949500D01*
X110228465Y-55949500D01*
X109771535Y-55949500D01*
X109771532Y-55949500D01*
X109568581Y-55989869D01*
X109377402Y-56069058D01*
X109205348Y-56184020D01*
X109059020Y-56330348D01*
X108944058Y-56502402D01*
X108864869Y-56693581D01*
X108824500Y-56896532D01*
X108824500Y-57103467D01*
X105000000Y-57103467D01*
X105000000Y-50000529D01*
X105000006Y-49999450D01*
X105000008Y-49999191D01*
X105002339Y-49785557D01*
X105002707Y-49778050D01*
X105040040Y-49351344D01*
X105041160Y-49342828D01*
X105115447Y-48921527D01*
X105117307Y-48913133D01*
X105228030Y-48499908D01*
X105230614Y-48491716D01*
X105376931Y-48089710D01*
X105380218Y-48081774D01*
X105561017Y-47694050D01*
X105564980Y-47686437D01*
X105778884Y-47315945D01*
X105783506Y-47308690D01*
X106028873Y-46958271D01*
X106034115Y-46951439D01*
X106309082Y-46623746D01*
X106314895Y-46617401D01*
X106617401Y-46314895D01*
X106623746Y-46309082D01*
X106951439Y-46034115D01*
X106958271Y-46028873D01*
X107308690Y-45783506D01*
X107315945Y-45778884D01*
X107686437Y-45564980D01*
X107694050Y-45561017D01*
X108081774Y-45380218D01*
X108089710Y-45376931D01*
X108491716Y-45230614D01*
X108499908Y-45228030D01*
X108913133Y-45117307D01*
X108921527Y-45115447D01*
X109342828Y-45041160D01*
X109351344Y-45040040D01*
X109778050Y-45002707D01*
X109785557Y-45002339D01*
X109996254Y-45000040D01*
X109999451Y-45000006D01*
X110000530Y-45000000D01*
X159999470Y-45000000D01*
X160000549Y-45000006D01*
G37*
%TD.AperFunction*%
%TD*%
M02*
