%TF.GenerationSoftware,KiCad,Pcbnew,8.0.1-8.0.1-1~ubuntu22.04.1*%
%TF.CreationDate,2024-04-06T12:43:47+02:00*%
%TF.ProjectId,ProjetCorps,50726f6a-6574-4436-9f72-70732e6b6963,rev?*%
%TF.SameCoordinates,Original*%
%TF.FileFunction,Soldermask,Top*%
%TF.FilePolarity,Negative*%
%FSLAX46Y46*%
G04 Gerber Fmt 4.6, Leading zero omitted, Abs format (unit mm)*
G04 Created by KiCad (PCBNEW 8.0.1-8.0.1-1~ubuntu22.04.1) date 2024-04-06 12:43:47*
%MOMM*%
%LPD*%
G01*
G04 APERTURE LIST*
G04 Aperture macros list*
%AMRoundRect*
0 Rectangle with rounded corners*
0 $1 Rounding radius*
0 $2 $3 $4 $5 $6 $7 $8 $9 X,Y pos of 4 corners*
0 Add a 4 corners polygon primitive as box body*
4,1,4,$2,$3,$4,$5,$6,$7,$8,$9,$2,$3,0*
0 Add four circle primitives for the rounded corners*
1,1,$1+$1,$2,$3*
1,1,$1+$1,$4,$5*
1,1,$1+$1,$6,$7*
1,1,$1+$1,$8,$9*
0 Add four rect primitives between the rounded corners*
20,1,$1+$1,$2,$3,$4,$5,0*
20,1,$1+$1,$4,$5,$6,$7,0*
20,1,$1+$1,$6,$7,$8,$9,0*
20,1,$1+$1,$8,$9,$2,$3,0*%
G04 Aperture macros list end*
%ADD10RoundRect,0.135000X-0.185000X0.135000X-0.185000X-0.135000X0.185000X-0.135000X0.185000X0.135000X0*%
%ADD11R,1.550000X1.300000*%
%ADD12RoundRect,0.375000X0.375000X-0.625000X0.375000X0.625000X-0.375000X0.625000X-0.375000X-0.625000X0*%
%ADD13RoundRect,0.500000X1.400000X-0.500000X1.400000X0.500000X-1.400000X0.500000X-1.400000X-0.500000X0*%
%ADD14RoundRect,0.140000X-0.170000X0.140000X-0.170000X-0.140000X0.170000X-0.140000X0.170000X0.140000X0*%
%ADD15RoundRect,0.135000X0.135000X0.185000X-0.135000X0.185000X-0.135000X-0.185000X0.135000X-0.185000X0*%
%ADD16RoundRect,0.218750X-0.218750X-0.256250X0.218750X-0.256250X0.218750X0.256250X-0.218750X0.256250X0*%
%ADD17R,2.400000X0.740000*%
%ADD18RoundRect,0.250000X-0.550000X1.137500X-0.550000X-1.137500X0.550000X-1.137500X0.550000X1.137500X0*%
%ADD19C,0.800000*%
%ADD20C,6.400000*%
%ADD21RoundRect,0.140000X0.170000X-0.140000X0.170000X0.140000X-0.170000X0.140000X-0.170000X-0.140000X0*%
%ADD22RoundRect,0.218750X0.256250X-0.218750X0.256250X0.218750X-0.256250X0.218750X-0.256250X-0.218750X0*%
%ADD23RoundRect,0.250000X0.725000X-0.600000X0.725000X0.600000X-0.725000X0.600000X-0.725000X-0.600000X0*%
%ADD24O,1.950000X1.700000*%
%ADD25C,3.000000*%
%ADD26C,1.600000*%
%ADD27RoundRect,0.125000X0.125000X-0.625000X0.125000X0.625000X-0.125000X0.625000X-0.125000X-0.625000X0*%
%ADD28RoundRect,0.125000X0.625000X-0.125000X0.625000X0.125000X-0.625000X0.125000X-0.625000X-0.125000X0*%
%ADD29RoundRect,1.500000X1.500000X1.500000X-1.500000X1.500000X-1.500000X-1.500000X1.500000X-1.500000X0*%
%ADD30C,6.000000*%
%ADD31RoundRect,0.140000X-0.140000X-0.170000X0.140000X-0.170000X0.140000X0.170000X-0.140000X0.170000X0*%
%ADD32RoundRect,0.135000X-0.135000X-0.185000X0.135000X-0.185000X0.135000X0.185000X-0.135000X0.185000X0*%
%ADD33C,1.447800*%
G04 APERTURE END LIST*
D10*
%TO.C,R202*%
X154500000Y-77600000D03*
X154500000Y-78620000D03*
%TD*%
D11*
%TO.C,SW601*%
X144025000Y-70250000D03*
X151975000Y-70250000D03*
X144025000Y-74750000D03*
X151975000Y-74750000D03*
%TD*%
%TO.C,SW401*%
X156025000Y-62750000D03*
X163975000Y-62750000D03*
X156025000Y-67250000D03*
X163975000Y-67250000D03*
%TD*%
D10*
%TO.C,R602*%
X142500000Y-70240000D03*
X142500000Y-71260000D03*
%TD*%
D11*
%TO.C,SW102*%
X118025000Y-79750000D03*
X125975000Y-79750000D03*
X118025000Y-84250000D03*
X125975000Y-84250000D03*
%TD*%
D12*
%TO.C,U103*%
X143750000Y-91450000D03*
X146050000Y-91450000D03*
D13*
X146050000Y-85150000D03*
D12*
X148350000Y-91450000D03*
%TD*%
D14*
%TO.C,C101*%
X137300000Y-65770000D03*
X137300000Y-66730000D03*
%TD*%
D10*
%TO.C,R109*%
X122250000Y-88140000D03*
X122250000Y-89160000D03*
%TD*%
D15*
%TO.C,R103*%
X122547500Y-66250000D03*
X121527500Y-66250000D03*
%TD*%
D14*
%TO.C,C103*%
X136300000Y-65770000D03*
X136300000Y-66730000D03*
%TD*%
D16*
%TO.C,D102*%
X118500000Y-64500000D03*
X120075000Y-64500000D03*
%TD*%
D14*
%TO.C,C201*%
X154500000Y-81420000D03*
X154500000Y-82380000D03*
%TD*%
D17*
%TO.C,J105*%
X108750000Y-79000000D03*
X112650000Y-79000000D03*
X108750000Y-80270000D03*
X112650000Y-80270000D03*
X108750000Y-81540000D03*
X112650000Y-81540000D03*
X108750000Y-82810000D03*
X112650000Y-82810000D03*
X108750000Y-84080000D03*
X112650000Y-84080000D03*
X108750000Y-85350000D03*
X112650000Y-85350000D03*
X108750000Y-86620000D03*
X112650000Y-86620000D03*
%TD*%
D14*
%TO.C,C104*%
X132900000Y-76670000D03*
X132900000Y-77630000D03*
%TD*%
D18*
%TO.C,C107*%
X139450000Y-86325000D03*
X139450000Y-90450000D03*
%TD*%
D11*
%TO.C,SW701*%
X144025000Y-62750000D03*
X151975000Y-62750000D03*
X144025000Y-67250000D03*
X151975000Y-67250000D03*
%TD*%
D19*
%TO.C,H102*%
X157600000Y-50000000D03*
X158302944Y-48302944D03*
X158302944Y-51697056D03*
X160000000Y-47600000D03*
D20*
X160000000Y-50000000D03*
D19*
X160000000Y-52400000D03*
X161697056Y-48302944D03*
X161697056Y-51697056D03*
X162400000Y-50000000D03*
%TD*%
D21*
%TO.C,C106*%
X150150000Y-89580000D03*
X150150000Y-88620000D03*
%TD*%
D22*
%TO.C,D105*%
X120480000Y-91887500D03*
X120480000Y-90312500D03*
%TD*%
D14*
%TO.C,C401*%
X154400000Y-66320000D03*
X154400000Y-67280000D03*
%TD*%
D19*
%TO.C,H103*%
X107600000Y-98000000D03*
X108302944Y-96302944D03*
X108302944Y-99697056D03*
X110000000Y-95600000D03*
D20*
X110000000Y-98000000D03*
D19*
X110000000Y-100400000D03*
X111697056Y-96302944D03*
X111697056Y-99697056D03*
X112400000Y-98000000D03*
%TD*%
D15*
%TO.C,R106*%
X126810000Y-73000000D03*
X125790000Y-73000000D03*
%TD*%
D16*
%TO.C,D101*%
X118500000Y-66250000D03*
X120075000Y-66250000D03*
%TD*%
D10*
%TO.C,R702*%
X142502500Y-62670000D03*
X142502500Y-63690000D03*
%TD*%
D15*
%TO.C,R105*%
X122547500Y-62750000D03*
X121527500Y-62750000D03*
%TD*%
D10*
%TO.C,R701*%
X142500000Y-64580000D03*
X142500000Y-65600000D03*
%TD*%
D23*
%TO.C,J103*%
X110000000Y-74000000D03*
D24*
X110000000Y-71500000D03*
X110000000Y-69000000D03*
%TD*%
D10*
%TO.C,R201*%
X154500000Y-79490000D03*
X154500000Y-80510000D03*
%TD*%
D19*
%TO.C,H101*%
X107600000Y-50000000D03*
X108302944Y-48302944D03*
X108302944Y-51697056D03*
X110000000Y-47600000D03*
D20*
X110000000Y-50000000D03*
D19*
X110000000Y-52400000D03*
X111697056Y-48302944D03*
X111697056Y-51697056D03*
X112400000Y-50000000D03*
%TD*%
D25*
%TO.C,SW101*%
X125600000Y-98000000D03*
X130300000Y-98000000D03*
X135000000Y-98000000D03*
%TD*%
D22*
%TO.C,D104*%
X118800000Y-91887500D03*
X118800000Y-90312500D03*
%TD*%
D10*
%TO.C,R302*%
X154400000Y-69790000D03*
X154400000Y-70810000D03*
%TD*%
%TO.C,R801*%
X154500000Y-86650000D03*
X154500000Y-87670000D03*
%TD*%
%TO.C,R402*%
X154400000Y-62540000D03*
X154400000Y-63560000D03*
%TD*%
D14*
%TO.C,C501*%
X142500000Y-81360000D03*
X142500000Y-82320000D03*
%TD*%
%TO.C,C801*%
X154500000Y-88600000D03*
X154500000Y-89560000D03*
%TD*%
D26*
%TO.C,U104*%
X127760000Y-92250000D03*
X130300000Y-92250000D03*
X132840000Y-92250000D03*
%TD*%
D22*
%TO.C,D106*%
X121980000Y-91887500D03*
X121980000Y-90312500D03*
%TD*%
D10*
%TO.C,R108*%
X120500000Y-88140000D03*
X120500000Y-89160000D03*
%TD*%
%TO.C,R502*%
X142510000Y-77600000D03*
X142510000Y-78620000D03*
%TD*%
%TO.C,R802*%
X154500000Y-84760000D03*
X154500000Y-85780000D03*
%TD*%
D27*
%TO.C,U101*%
X129650000Y-75175000D03*
X130450000Y-75175000D03*
X131250000Y-75175000D03*
X132050000Y-75175000D03*
X132850000Y-75175000D03*
X133650000Y-75175000D03*
X134450000Y-75175000D03*
X135250000Y-75175000D03*
D28*
X136625000Y-73800000D03*
X136625000Y-73000000D03*
X136625000Y-72200000D03*
X136625000Y-71400000D03*
X136625000Y-70600000D03*
X136625000Y-69800000D03*
X136625000Y-69000000D03*
X136625000Y-68200000D03*
D27*
X135250000Y-66825000D03*
X134450000Y-66825000D03*
X133650000Y-66825000D03*
X132850000Y-66825000D03*
X132050000Y-66825000D03*
X131250000Y-66825000D03*
X130450000Y-66825000D03*
X129650000Y-66825000D03*
D28*
X128275000Y-68200000D03*
X128275000Y-69000000D03*
X128275000Y-69800000D03*
X128275000Y-70600000D03*
X128275000Y-71400000D03*
X128275000Y-72200000D03*
X128275000Y-73000000D03*
X128275000Y-73800000D03*
%TD*%
D10*
%TO.C,R501*%
X142500000Y-79490000D03*
X142500000Y-80510000D03*
%TD*%
D16*
%TO.C,D103*%
X118500000Y-62750000D03*
X120075000Y-62750000D03*
%TD*%
D10*
%TO.C,R301*%
X154400000Y-71690000D03*
X154400000Y-72710000D03*
%TD*%
%TO.C,R401*%
X154400000Y-64440000D03*
X154400000Y-65460000D03*
%TD*%
%TO.C,R107*%
X118550000Y-88140000D03*
X118550000Y-89160000D03*
%TD*%
D29*
%TO.C,J101*%
X149075000Y-98000000D03*
D30*
X141875000Y-98000000D03*
%TD*%
D11*
%TO.C,SW801*%
X156025000Y-84750000D03*
X163975000Y-84750000D03*
X156025000Y-89250000D03*
X163975000Y-89250000D03*
%TD*%
D14*
%TO.C,C301*%
X154400000Y-73590000D03*
X154400000Y-74550000D03*
%TD*%
D10*
%TO.C,R601*%
X142500000Y-72100000D03*
X142500000Y-73120000D03*
%TD*%
D11*
%TO.C,SW501*%
X144025000Y-77750000D03*
X151975000Y-77750000D03*
X144025000Y-82250000D03*
X151975000Y-82250000D03*
%TD*%
%TO.C,SW201*%
X156025000Y-77750000D03*
X163975000Y-77750000D03*
X156025000Y-82250000D03*
X163975000Y-82250000D03*
%TD*%
D31*
%TO.C,C102*%
X129640000Y-76650000D03*
X130600000Y-76650000D03*
%TD*%
D15*
%TO.C,R104*%
X122547500Y-64500000D03*
X121527500Y-64500000D03*
%TD*%
D11*
%TO.C,SW301*%
X156025000Y-70250000D03*
X163975000Y-70250000D03*
X156025000Y-74750000D03*
X163975000Y-74750000D03*
%TD*%
D14*
%TO.C,C701*%
X142500000Y-66490000D03*
X142500000Y-67450000D03*
%TD*%
D32*
%TO.C,R102*%
X125790000Y-69800000D03*
X126810000Y-69800000D03*
%TD*%
D19*
%TO.C,H104*%
X157600000Y-98000000D03*
X158302944Y-96302944D03*
X158302944Y-99697056D03*
X160000000Y-95600000D03*
D20*
X160000000Y-98000000D03*
D19*
X160000000Y-100400000D03*
X161697056Y-96302944D03*
X161697056Y-99697056D03*
X162400000Y-98000000D03*
%TD*%
D33*
%TO.C,J104*%
X125305003Y-58060007D03*
X128075002Y-58060007D03*
X130845002Y-58060007D03*
X133615002Y-58060007D03*
X136385001Y-58060007D03*
X139155001Y-58060007D03*
X141925000Y-58060007D03*
X144695000Y-58060007D03*
X126690001Y-55220008D03*
X129460001Y-55220008D03*
X132230000Y-55220008D03*
X135000000Y-55220008D03*
X137770000Y-55220008D03*
X140539999Y-55220008D03*
X143309999Y-55220008D03*
%TD*%
D14*
%TO.C,C105*%
X116500000Y-81520000D03*
X116500000Y-82480000D03*
%TD*%
%TO.C,C601*%
X142500000Y-74000000D03*
X142500000Y-74960000D03*
%TD*%
D15*
%TO.C,R101*%
X139110000Y-70600000D03*
X138090000Y-70600000D03*
%TD*%
D23*
%TO.C,J102*%
X110000000Y-62000000D03*
D24*
X110000000Y-59500000D03*
X110000000Y-57000000D03*
%TD*%
M02*
