M48
; DRILL file {KiCad 8.0.8} date 2025-01-29T06:10:33+0100
; FORMAT={-:-/ absolute / metric / decimal}
; #@! TF.CreationDate,2025-01-29T06:10:33+01:00
; #@! TF.GenerationSoftware,Kicad,Pcbnew,8.0.8
; #@! TF.FileFunction,Plated,1,4,PTH
FMAT,2
METRIC
; #@! TA.AperFunction,Plated,PTH,ViaDrill
T1C0.300
; #@! TA.AperFunction,Plated,PTH,ComponentDrill
T2C0.500
; #@! TA.AperFunction,Plated,PTH,ComponentDrill
T3C0.940
; #@! TA.AperFunction,Plated,PTH,ComponentDrill
T4C0.950
; #@! TA.AperFunction,Plated,PTH,ComponentDrill
T5C1.000
; #@! TA.AperFunction,Plated,PTH,ComponentDrill
T6C1.850
; #@! TA.AperFunction,Plated,PTH,ComponentDrill
T7C3.200
; #@! TA.AperFunction,Plated,PTH,ComponentDrill
T8C4.500
%
G90
G05
T1
X41.4Y-50.3
X47.313Y-57.187
X47.7Y-50.4
X48.3Y-72.0
X48.7Y-58.7
X49.1Y-77.1
X49.4Y-85.05
X49.429Y-61.371
X49.7Y-90.1
X50.5Y-81.95
X50.8Y-56.9
X51.0Y-68.1
X51.2Y-92.5
X51.35Y-71.3
X51.7Y-96.8
X53.85Y-59.0
X53.85Y-60.5
X53.85Y-62.2
X54.4Y-76.6
X54.5Y-90.9
X55.1Y-63.8
X55.3Y-46.3
X55.5Y-42.5
X56.5Y-69.25
X57.0Y-57.0
X57.65Y-77.6
X57.95Y-84.15
X58.5Y-74.65
X59.1Y-70.9
X59.1Y-72.0
X59.3Y-59.8
X60.1Y-63.3
X60.55Y-66.75
X60.7Y-76.55
X61.1Y-70.9
X61.1Y-72.0
X61.9Y-82.3
X62.15Y-58.2
X63.05Y-67.4
X63.05Y-69.3
X63.15Y-73.0
X63.15Y-74.0
X63.3Y-72.0
X63.65Y-65.6
X63.7Y-57.65
X64.1Y-45.5
X64.7Y-57.65
X65.0Y-56.0
X65.5Y-71.25
X65.6Y-66.7
X65.7Y-73.1
X66.05Y-63.15
X66.25Y-58.2
X67.0Y-62.05
X67.0Y-63.15
X67.0Y-77.3
X67.35Y-78.775
X67.6Y-65.7
X68.677Y-74.323
X69.9Y-41.7
X70.95Y-84.2
X71.4Y-79.4
X71.9Y-81.7
X72.0Y-61.0
X73.02Y-76.88
X73.75Y-63.3
X74.0Y-76.85
X74.2Y-46.4
X75.2Y-85.6
X75.3Y-59.6
X75.4Y-80.5
X76.675Y-62.6
X76.83Y-66.12
X76.85Y-67.05
X77.1Y-72.2
X77.5Y-81.7
X77.72Y-70.53
X77.9Y-72.7
X78.3Y-42.8
X79.74Y-88.22
X80.8Y-79.6
X81.2Y-67.2
X81.7Y-85.35
X82.06Y-63.64
X82.3Y-77.3
X82.4Y-48.6
X82.6Y-86.8
X83.645Y-64.6
X83.8Y-62.1
X84.8Y-75.175
X85.2Y-43.5
X86.6Y-56.1
X86.6Y-57.85
X86.6Y-59.65
X87.45Y-67.2
X87.45Y-73.15
X87.5Y-91.3
X88.3Y-94.7
X88.8Y-63.1
X88.8Y-76.9
X90.2Y-60.3
X90.2Y-82.55
X90.25Y-81.35
X90.25Y-83.85
X90.65Y-79.45
X91.5Y-57.8
X91.8Y-84.6
X91.8Y-89.6
X93.0Y-51.7
X93.1Y-75.0
X98.9Y-50.0
T2
X42.6Y-45.0
X42.6Y-95.0
X43.303Y-43.303
X43.303Y-46.697
X43.303Y-93.303
X43.303Y-96.697
X45.0Y-42.6
X45.0Y-47.4
X45.0Y-92.6
X45.0Y-97.4
X46.697Y-43.303
X46.697Y-46.697
X46.697Y-93.303
X46.697Y-96.697
X47.4Y-45.0
X47.4Y-95.0
X92.6Y-45.0
X92.6Y-95.0
X93.303Y-43.303
X93.303Y-46.697
X93.303Y-93.303
X93.303Y-96.697
X95.0Y-42.6
X95.0Y-47.4
X95.0Y-92.6
X95.0Y-97.4
X96.697Y-43.303
X96.697Y-46.697
X96.697Y-93.303
X96.697Y-96.697
X97.4Y-45.0
X97.4Y-95.0
T3
X60.315Y-53.06
X61.7Y-50.22
X63.085Y-53.06
X64.47Y-50.22
X65.855Y-53.06
X67.24Y-50.22
X68.625Y-53.06
X70.01Y-50.22
X71.395Y-53.06
X72.78Y-50.22
X74.165Y-53.06
X75.55Y-50.22
X76.935Y-53.06
X78.32Y-50.22
X79.705Y-53.06
T4
X44.1Y-55.0
X44.1Y-57.5
X44.1Y-60.0
X44.1Y-66.1
X44.1Y-68.6
X44.1Y-71.1
X44.1Y-77.1
X44.1Y-79.6
X44.1Y-82.1
X44.1Y-84.6
X95.9Y-57.0
X95.9Y-59.5
X95.9Y-62.0
X95.9Y-64.5
X95.9Y-70.6
X95.9Y-73.1
X95.9Y-75.6
X95.9Y-78.1
X95.9Y-80.6
X95.9Y-83.1
T5
X59.21Y-87.6
X61.75Y-87.6
X64.29Y-87.6
T6
X57.05Y-93.35
X61.75Y-93.35
X66.45Y-93.35
T7
X45.0Y-45.0
X45.0Y-95.0
X95.0Y-45.0
X95.0Y-95.0
T8
X73.325Y-93.35
X80.525Y-93.35
M30
