%TF.GenerationSoftware,KiCad,Pcbnew,8.0.8*%
%TF.CreationDate,2025-01-29T06:10:27+01:00*%
%TF.ProjectId,ProjetCorps,50726f6a-6574-4436-9f72-70732e6b6963,rev?*%
%TF.SameCoordinates,Original*%
%TF.FileFunction,Legend,Top*%
%TF.FilePolarity,Positive*%
%FSLAX46Y46*%
G04 Gerber Fmt 4.6, Leading zero omitted, Abs format (unit mm)*
G04 Created by KiCad (PCBNEW 8.0.8) date 2025-01-29 06:10:27*
%MOMM*%
%LPD*%
G01*
G04 APERTURE LIST*
%ADD10C,0.150000*%
%ADD11C,0.125000*%
%ADD12C,0.120000*%
%ADD13C,0.100000*%
%ADD14C,0.152400*%
G04 APERTURE END LIST*
D10*
G36*
X89261665Y-70257633D02*
G01*
X89292072Y-70288040D01*
X89326330Y-70356556D01*
X89326330Y-70644803D01*
X88952521Y-70644803D01*
X88952521Y-70356556D01*
X88986779Y-70288040D01*
X89017186Y-70257633D01*
X89085702Y-70223375D01*
X89193149Y-70223375D01*
X89261665Y-70257633D01*
G37*
G36*
X90063632Y-71953533D02*
G01*
X88691410Y-71953533D01*
X88691410Y-71762183D01*
X88802704Y-71762183D01*
X88803962Y-71772079D01*
X88803962Y-71782054D01*
X88805791Y-71786469D01*
X88806394Y-71791213D01*
X88811344Y-71799877D01*
X88815161Y-71809090D01*
X88818539Y-71812468D01*
X88820913Y-71816622D01*
X88828802Y-71822731D01*
X88835853Y-71829782D01*
X88840269Y-71831611D01*
X88844050Y-71834539D01*
X88853673Y-71837163D01*
X88862889Y-71840981D01*
X88870371Y-71841717D01*
X88872282Y-71842239D01*
X88873757Y-71842051D01*
X88877521Y-71842422D01*
X89877521Y-71842422D01*
X89892153Y-71840981D01*
X89919189Y-71829782D01*
X89939881Y-71809090D01*
X89951080Y-71782054D01*
X89951080Y-71752790D01*
X89939881Y-71725754D01*
X89919189Y-71705062D01*
X89892153Y-71693863D01*
X89877521Y-71692422D01*
X89159938Y-71692422D01*
X89914732Y-71261112D01*
X89917816Y-71258922D01*
X89919189Y-71258354D01*
X89920586Y-71256956D01*
X89926721Y-71252602D01*
X89932829Y-71244713D01*
X89939881Y-71237662D01*
X89941711Y-71233243D01*
X89944638Y-71229464D01*
X89947262Y-71219842D01*
X89951080Y-71210626D01*
X89951080Y-71205845D01*
X89952338Y-71201233D01*
X89951080Y-71191336D01*
X89951080Y-71181362D01*
X89949250Y-71176946D01*
X89948648Y-71172203D01*
X89943697Y-71163538D01*
X89939881Y-71154326D01*
X89936502Y-71150947D01*
X89934129Y-71146794D01*
X89926239Y-71140684D01*
X89919189Y-71133634D01*
X89914772Y-71131804D01*
X89910992Y-71128877D01*
X89901368Y-71126252D01*
X89892153Y-71122435D01*
X89884670Y-71121698D01*
X89882760Y-71121177D01*
X89881284Y-71121364D01*
X89877521Y-71120994D01*
X88877521Y-71120994D01*
X88862889Y-71122435D01*
X88835853Y-71133634D01*
X88815161Y-71154326D01*
X88803962Y-71181362D01*
X88803962Y-71210626D01*
X88815161Y-71237662D01*
X88835853Y-71258354D01*
X88862889Y-71269553D01*
X88877521Y-71270994D01*
X89595104Y-71270994D01*
X88840311Y-71702304D01*
X88837227Y-71704492D01*
X88835853Y-71705062D01*
X88834453Y-71706461D01*
X88828321Y-71710814D01*
X88822211Y-71718703D01*
X88815161Y-71725754D01*
X88813331Y-71730170D01*
X88810404Y-71733951D01*
X88807779Y-71743574D01*
X88803962Y-71752790D01*
X88803962Y-71757570D01*
X88802704Y-71762183D01*
X88691410Y-71762183D01*
X88691410Y-70338851D01*
X88802521Y-70338851D01*
X88802521Y-70719803D01*
X88803962Y-70734435D01*
X88815161Y-70761471D01*
X88835853Y-70782163D01*
X88862889Y-70793362D01*
X88877521Y-70794803D01*
X89877521Y-70794803D01*
X89892153Y-70793362D01*
X89919189Y-70782163D01*
X89939881Y-70761471D01*
X89951080Y-70734435D01*
X89951080Y-70705171D01*
X89939881Y-70678135D01*
X89919189Y-70657443D01*
X89892153Y-70646244D01*
X89877521Y-70644803D01*
X89476330Y-70644803D01*
X89476330Y-70520757D01*
X89920531Y-70209817D01*
X89931691Y-70200246D01*
X89947418Y-70175567D01*
X89952504Y-70146750D01*
X89946174Y-70118179D01*
X89929392Y-70094205D01*
X89904714Y-70078478D01*
X89875896Y-70073393D01*
X89847325Y-70079722D01*
X89834512Y-70086932D01*
X89476220Y-70337735D01*
X89474889Y-70324219D01*
X89473858Y-70321730D01*
X89473667Y-70319041D01*
X89468412Y-70305310D01*
X89420793Y-70210072D01*
X89416828Y-70203772D01*
X89416071Y-70201945D01*
X89414382Y-70199888D01*
X89412961Y-70197629D01*
X89411462Y-70196329D01*
X89406744Y-70190580D01*
X89359125Y-70142961D01*
X89353375Y-70138242D01*
X89352076Y-70136744D01*
X89349816Y-70135322D01*
X89347760Y-70133634D01*
X89345932Y-70132876D01*
X89339633Y-70128912D01*
X89244395Y-70081293D01*
X89230663Y-70076038D01*
X89227975Y-70075847D01*
X89225486Y-70074816D01*
X89210854Y-70073375D01*
X89067997Y-70073375D01*
X89053365Y-70074816D01*
X89050876Y-70075846D01*
X89048187Y-70076038D01*
X89034456Y-70081293D01*
X88939218Y-70128912D01*
X88932918Y-70132876D01*
X88931091Y-70133634D01*
X88929034Y-70135322D01*
X88926775Y-70136744D01*
X88925475Y-70138242D01*
X88919726Y-70142961D01*
X88872107Y-70190580D01*
X88867388Y-70196329D01*
X88865890Y-70197629D01*
X88864468Y-70199888D01*
X88862780Y-70201945D01*
X88862022Y-70203772D01*
X88858058Y-70210072D01*
X88810439Y-70305310D01*
X88805184Y-70319042D01*
X88804993Y-70321729D01*
X88803962Y-70324219D01*
X88802521Y-70338851D01*
X88691410Y-70338851D01*
X88691410Y-69338851D01*
X88802521Y-69338851D01*
X88802521Y-69576946D01*
X88803962Y-69591578D01*
X88804993Y-69594067D01*
X88805184Y-69596755D01*
X88810439Y-69610487D01*
X88858058Y-69705725D01*
X88862022Y-69712024D01*
X88862780Y-69713852D01*
X88864468Y-69715908D01*
X88865890Y-69718168D01*
X88867388Y-69719467D01*
X88872107Y-69725217D01*
X88919726Y-69772836D01*
X88925475Y-69777554D01*
X88926775Y-69779053D01*
X88929034Y-69780474D01*
X88931091Y-69782163D01*
X88932918Y-69782920D01*
X88939218Y-69786885D01*
X89034456Y-69834504D01*
X89048187Y-69839759D01*
X89050876Y-69839950D01*
X89053365Y-69840981D01*
X89067997Y-69842422D01*
X89163235Y-69842422D01*
X89177867Y-69840981D01*
X89180356Y-69839949D01*
X89183044Y-69839759D01*
X89196776Y-69834504D01*
X89292014Y-69786885D01*
X89298313Y-69782920D01*
X89300141Y-69782163D01*
X89302197Y-69780474D01*
X89304457Y-69779053D01*
X89305756Y-69777554D01*
X89311506Y-69772836D01*
X89359125Y-69725217D01*
X89363843Y-69719467D01*
X89365342Y-69718168D01*
X89366763Y-69715908D01*
X89368452Y-69713852D01*
X89369209Y-69712024D01*
X89373174Y-69705725D01*
X89420793Y-69610487D01*
X89421202Y-69609417D01*
X89421525Y-69608982D01*
X89423717Y-69602845D01*
X89426048Y-69596756D01*
X89426086Y-69596215D01*
X89426472Y-69595136D01*
X89472094Y-69412646D01*
X89510588Y-69335659D01*
X89540995Y-69305252D01*
X89609511Y-69270994D01*
X89669339Y-69270994D01*
X89737855Y-69305252D01*
X89768263Y-69335659D01*
X89802521Y-69404175D01*
X89802521Y-69612395D01*
X89758751Y-69743705D01*
X89755491Y-69758042D01*
X89757566Y-69787232D01*
X89770652Y-69813405D01*
X89792759Y-69832579D01*
X89820522Y-69841833D01*
X89849712Y-69839758D01*
X89875885Y-69826672D01*
X89895059Y-69804565D01*
X89901053Y-69791139D01*
X89948672Y-69648283D01*
X89950321Y-69641027D01*
X89951080Y-69639197D01*
X89951341Y-69636543D01*
X89951932Y-69633946D01*
X89951791Y-69631971D01*
X89952521Y-69624565D01*
X89952521Y-69386470D01*
X89951080Y-69371838D01*
X89950049Y-69369349D01*
X89949858Y-69366660D01*
X89944603Y-69352929D01*
X89896984Y-69257691D01*
X89893019Y-69251391D01*
X89892262Y-69249564D01*
X89890574Y-69247507D01*
X89889152Y-69245248D01*
X89887652Y-69243947D01*
X89882934Y-69238198D01*
X89835314Y-69190579D01*
X89829565Y-69185861D01*
X89828266Y-69184363D01*
X89826007Y-69182941D01*
X89823949Y-69181252D01*
X89822119Y-69180494D01*
X89815823Y-69176531D01*
X89720585Y-69128912D01*
X89706853Y-69123657D01*
X89704165Y-69123466D01*
X89701676Y-69122435D01*
X89687044Y-69120994D01*
X89591806Y-69120994D01*
X89577174Y-69122435D01*
X89574685Y-69123465D01*
X89571996Y-69123657D01*
X89558265Y-69128912D01*
X89463027Y-69176531D01*
X89456727Y-69180495D01*
X89454900Y-69181253D01*
X89452843Y-69182941D01*
X89450584Y-69184363D01*
X89449284Y-69185861D01*
X89443535Y-69190580D01*
X89395916Y-69238199D01*
X89391197Y-69243948D01*
X89389699Y-69245248D01*
X89388277Y-69247507D01*
X89386589Y-69249564D01*
X89385831Y-69251391D01*
X89381867Y-69257691D01*
X89334248Y-69352929D01*
X89333838Y-69353998D01*
X89333516Y-69354434D01*
X89331320Y-69360579D01*
X89328993Y-69366661D01*
X89328954Y-69367200D01*
X89328569Y-69368280D01*
X89282946Y-69550770D01*
X89244453Y-69627757D01*
X89214046Y-69658164D01*
X89145530Y-69692422D01*
X89085702Y-69692422D01*
X89017186Y-69658164D01*
X88986779Y-69627757D01*
X88952521Y-69559241D01*
X88952521Y-69351021D01*
X88996291Y-69219712D01*
X88999551Y-69205375D01*
X88997476Y-69176185D01*
X88984390Y-69150011D01*
X88962282Y-69130837D01*
X88934520Y-69121583D01*
X88905330Y-69123658D01*
X88879157Y-69136745D01*
X88859983Y-69158852D01*
X88853989Y-69172277D01*
X88806370Y-69315134D01*
X88804720Y-69322387D01*
X88803962Y-69324219D01*
X88803700Y-69326873D01*
X88803110Y-69329471D01*
X88803250Y-69331445D01*
X88802521Y-69338851D01*
X88691410Y-69338851D01*
X88691410Y-68338851D01*
X88802521Y-68338851D01*
X88802521Y-68910279D01*
X88803962Y-68924911D01*
X88815161Y-68951947D01*
X88835853Y-68972639D01*
X88862889Y-68983838D01*
X88892153Y-68983838D01*
X88919189Y-68972639D01*
X88939881Y-68951947D01*
X88951080Y-68924911D01*
X88952521Y-68910279D01*
X88952521Y-68699565D01*
X89877521Y-68699565D01*
X89892153Y-68698124D01*
X89919189Y-68686925D01*
X89939881Y-68666233D01*
X89951080Y-68639197D01*
X89951080Y-68609933D01*
X89939881Y-68582897D01*
X89919189Y-68562205D01*
X89892153Y-68551006D01*
X89877521Y-68549565D01*
X88952521Y-68549565D01*
X88952521Y-68338851D01*
X88951080Y-68324219D01*
X88939881Y-68297183D01*
X88919189Y-68276491D01*
X88892153Y-68265292D01*
X88862889Y-68265292D01*
X88835853Y-68276491D01*
X88815161Y-68297183D01*
X88803962Y-68324219D01*
X88802521Y-68338851D01*
X88691410Y-68338851D01*
X88691410Y-68154181D01*
X90063632Y-68154181D01*
X90063632Y-71953533D01*
G37*
D11*
X62586997Y-59532309D02*
X62420331Y-59294214D01*
X62301283Y-59532309D02*
X62301283Y-59032309D01*
X62301283Y-59032309D02*
X62491759Y-59032309D01*
X62491759Y-59032309D02*
X62539378Y-59056119D01*
X62539378Y-59056119D02*
X62563188Y-59079928D01*
X62563188Y-59079928D02*
X62586997Y-59127547D01*
X62586997Y-59127547D02*
X62586997Y-59198976D01*
X62586997Y-59198976D02*
X62563188Y-59246595D01*
X62563188Y-59246595D02*
X62539378Y-59270404D01*
X62539378Y-59270404D02*
X62491759Y-59294214D01*
X62491759Y-59294214D02*
X62301283Y-59294214D01*
X63063188Y-59532309D02*
X62777474Y-59532309D01*
X62920331Y-59532309D02*
X62920331Y-59032309D01*
X62920331Y-59032309D02*
X62872712Y-59103738D01*
X62872712Y-59103738D02*
X62825093Y-59151357D01*
X62825093Y-59151357D02*
X62777474Y-59175166D01*
X63372711Y-59032309D02*
X63420330Y-59032309D01*
X63420330Y-59032309D02*
X63467949Y-59056119D01*
X63467949Y-59056119D02*
X63491759Y-59079928D01*
X63491759Y-59079928D02*
X63515568Y-59127547D01*
X63515568Y-59127547D02*
X63539378Y-59222785D01*
X63539378Y-59222785D02*
X63539378Y-59341833D01*
X63539378Y-59341833D02*
X63515568Y-59437071D01*
X63515568Y-59437071D02*
X63491759Y-59484690D01*
X63491759Y-59484690D02*
X63467949Y-59508500D01*
X63467949Y-59508500D02*
X63420330Y-59532309D01*
X63420330Y-59532309D02*
X63372711Y-59532309D01*
X63372711Y-59532309D02*
X63325092Y-59508500D01*
X63325092Y-59508500D02*
X63301283Y-59484690D01*
X63301283Y-59484690D02*
X63277473Y-59437071D01*
X63277473Y-59437071D02*
X63253664Y-59341833D01*
X63253664Y-59341833D02*
X63253664Y-59222785D01*
X63253664Y-59222785D02*
X63277473Y-59127547D01*
X63277473Y-59127547D02*
X63301283Y-59079928D01*
X63301283Y-59079928D02*
X63325092Y-59056119D01*
X63325092Y-59056119D02*
X63372711Y-59032309D01*
X64015568Y-59532309D02*
X63729854Y-59532309D01*
X63872711Y-59532309D02*
X63872711Y-59032309D01*
X63872711Y-59032309D02*
X63825092Y-59103738D01*
X63825092Y-59103738D02*
X63777473Y-59151357D01*
X63777473Y-59151357D02*
X63729854Y-59175166D01*
X81886997Y-57232309D02*
X81720331Y-56994214D01*
X81601283Y-57232309D02*
X81601283Y-56732309D01*
X81601283Y-56732309D02*
X81791759Y-56732309D01*
X81791759Y-56732309D02*
X81839378Y-56756119D01*
X81839378Y-56756119D02*
X81863188Y-56779928D01*
X81863188Y-56779928D02*
X81886997Y-56827547D01*
X81886997Y-56827547D02*
X81886997Y-56898976D01*
X81886997Y-56898976D02*
X81863188Y-56946595D01*
X81863188Y-56946595D02*
X81839378Y-56970404D01*
X81839378Y-56970404D02*
X81791759Y-56994214D01*
X81791759Y-56994214D02*
X81601283Y-56994214D01*
X82363188Y-57232309D02*
X82077474Y-57232309D01*
X82220331Y-57232309D02*
X82220331Y-56732309D01*
X82220331Y-56732309D02*
X82172712Y-56803738D01*
X82172712Y-56803738D02*
X82125093Y-56851357D01*
X82125093Y-56851357D02*
X82077474Y-56875166D01*
X82672711Y-56732309D02*
X82720330Y-56732309D01*
X82720330Y-56732309D02*
X82767949Y-56756119D01*
X82767949Y-56756119D02*
X82791759Y-56779928D01*
X82791759Y-56779928D02*
X82815568Y-56827547D01*
X82815568Y-56827547D02*
X82839378Y-56922785D01*
X82839378Y-56922785D02*
X82839378Y-57041833D01*
X82839378Y-57041833D02*
X82815568Y-57137071D01*
X82815568Y-57137071D02*
X82791759Y-57184690D01*
X82791759Y-57184690D02*
X82767949Y-57208500D01*
X82767949Y-57208500D02*
X82720330Y-57232309D01*
X82720330Y-57232309D02*
X82672711Y-57232309D01*
X82672711Y-57232309D02*
X82625092Y-57208500D01*
X82625092Y-57208500D02*
X82601283Y-57184690D01*
X82601283Y-57184690D02*
X82577473Y-57137071D01*
X82577473Y-57137071D02*
X82553664Y-57041833D01*
X82553664Y-57041833D02*
X82553664Y-56922785D01*
X82553664Y-56922785D02*
X82577473Y-56827547D01*
X82577473Y-56827547D02*
X82601283Y-56779928D01*
X82601283Y-56779928D02*
X82625092Y-56756119D01*
X82625092Y-56756119D02*
X82672711Y-56732309D01*
X83006044Y-56732309D02*
X83315568Y-56732309D01*
X83315568Y-56732309D02*
X83148901Y-56922785D01*
X83148901Y-56922785D02*
X83220330Y-56922785D01*
X83220330Y-56922785D02*
X83267949Y-56946595D01*
X83267949Y-56946595D02*
X83291758Y-56970404D01*
X83291758Y-56970404D02*
X83315568Y-57018023D01*
X83315568Y-57018023D02*
X83315568Y-57137071D01*
X83315568Y-57137071D02*
X83291758Y-57184690D01*
X83291758Y-57184690D02*
X83267949Y-57208500D01*
X83267949Y-57208500D02*
X83220330Y-57232309D01*
X83220330Y-57232309D02*
X83077473Y-57232309D01*
X83077473Y-57232309D02*
X83029854Y-57208500D01*
X83029854Y-57208500D02*
X83006044Y-57184690D01*
D10*
X41450414Y-57808458D02*
X41986128Y-57808458D01*
X41986128Y-57808458D02*
X42093271Y-57844173D01*
X42093271Y-57844173D02*
X42164700Y-57915601D01*
X42164700Y-57915601D02*
X42200414Y-58022744D01*
X42200414Y-58022744D02*
X42200414Y-58094173D01*
X42200414Y-57058458D02*
X42200414Y-57487029D01*
X42200414Y-57272744D02*
X41450414Y-57272744D01*
X41450414Y-57272744D02*
X41557557Y-57344172D01*
X41557557Y-57344172D02*
X41628985Y-57415601D01*
X41628985Y-57415601D02*
X41664700Y-57487029D01*
X41450414Y-56594172D02*
X41450414Y-56522743D01*
X41450414Y-56522743D02*
X41486128Y-56451315D01*
X41486128Y-56451315D02*
X41521842Y-56415601D01*
X41521842Y-56415601D02*
X41593271Y-56379886D01*
X41593271Y-56379886D02*
X41736128Y-56344172D01*
X41736128Y-56344172D02*
X41914700Y-56344172D01*
X41914700Y-56344172D02*
X42057557Y-56379886D01*
X42057557Y-56379886D02*
X42128985Y-56415601D01*
X42128985Y-56415601D02*
X42164700Y-56451315D01*
X42164700Y-56451315D02*
X42200414Y-56522743D01*
X42200414Y-56522743D02*
X42200414Y-56594172D01*
X42200414Y-56594172D02*
X42164700Y-56665601D01*
X42164700Y-56665601D02*
X42128985Y-56701315D01*
X42128985Y-56701315D02*
X42057557Y-56737029D01*
X42057557Y-56737029D02*
X41914700Y-56772743D01*
X41914700Y-56772743D02*
X41736128Y-56772743D01*
X41736128Y-56772743D02*
X41593271Y-56737029D01*
X41593271Y-56737029D02*
X41521842Y-56701315D01*
X41521842Y-56701315D02*
X41486128Y-56665601D01*
X41486128Y-56665601D02*
X41450414Y-56594172D01*
X41521842Y-56058457D02*
X41486128Y-56022743D01*
X41486128Y-56022743D02*
X41450414Y-55951315D01*
X41450414Y-55951315D02*
X41450414Y-55772743D01*
X41450414Y-55772743D02*
X41486128Y-55701315D01*
X41486128Y-55701315D02*
X41521842Y-55665600D01*
X41521842Y-55665600D02*
X41593271Y-55629886D01*
X41593271Y-55629886D02*
X41664700Y-55629886D01*
X41664700Y-55629886D02*
X41771842Y-55665600D01*
X41771842Y-55665600D02*
X42200414Y-56094172D01*
X42200414Y-56094172D02*
X42200414Y-55629886D01*
D11*
X64722087Y-59493649D02*
X64555421Y-59255554D01*
X64436373Y-59493649D02*
X64436373Y-58993649D01*
X64436373Y-58993649D02*
X64626849Y-58993649D01*
X64626849Y-58993649D02*
X64674468Y-59017459D01*
X64674468Y-59017459D02*
X64698278Y-59041268D01*
X64698278Y-59041268D02*
X64722087Y-59088887D01*
X64722087Y-59088887D02*
X64722087Y-59160316D01*
X64722087Y-59160316D02*
X64698278Y-59207935D01*
X64698278Y-59207935D02*
X64674468Y-59231744D01*
X64674468Y-59231744D02*
X64626849Y-59255554D01*
X64626849Y-59255554D02*
X64436373Y-59255554D01*
X65198278Y-59493649D02*
X64912564Y-59493649D01*
X65055421Y-59493649D02*
X65055421Y-58993649D01*
X65055421Y-58993649D02*
X65007802Y-59065078D01*
X65007802Y-59065078D02*
X64960183Y-59112697D01*
X64960183Y-59112697D02*
X64912564Y-59136506D01*
X65507801Y-58993649D02*
X65555420Y-58993649D01*
X65555420Y-58993649D02*
X65603039Y-59017459D01*
X65603039Y-59017459D02*
X65626849Y-59041268D01*
X65626849Y-59041268D02*
X65650658Y-59088887D01*
X65650658Y-59088887D02*
X65674468Y-59184125D01*
X65674468Y-59184125D02*
X65674468Y-59303173D01*
X65674468Y-59303173D02*
X65650658Y-59398411D01*
X65650658Y-59398411D02*
X65626849Y-59446030D01*
X65626849Y-59446030D02*
X65603039Y-59469840D01*
X65603039Y-59469840D02*
X65555420Y-59493649D01*
X65555420Y-59493649D02*
X65507801Y-59493649D01*
X65507801Y-59493649D02*
X65460182Y-59469840D01*
X65460182Y-59469840D02*
X65436373Y-59446030D01*
X65436373Y-59446030D02*
X65412563Y-59398411D01*
X65412563Y-59398411D02*
X65388754Y-59303173D01*
X65388754Y-59303173D02*
X65388754Y-59184125D01*
X65388754Y-59184125D02*
X65412563Y-59088887D01*
X65412563Y-59088887D02*
X65436373Y-59041268D01*
X65436373Y-59041268D02*
X65460182Y-59017459D01*
X65460182Y-59017459D02*
X65507801Y-58993649D01*
X65864944Y-59041268D02*
X65888753Y-59017459D01*
X65888753Y-59017459D02*
X65936372Y-58993649D01*
X65936372Y-58993649D02*
X66055420Y-58993649D01*
X66055420Y-58993649D02*
X66103039Y-59017459D01*
X66103039Y-59017459D02*
X66126848Y-59041268D01*
X66126848Y-59041268D02*
X66150658Y-59088887D01*
X66150658Y-59088887D02*
X66150658Y-59136506D01*
X66150658Y-59136506D02*
X66126848Y-59207935D01*
X66126848Y-59207935D02*
X65841134Y-59493649D01*
X65841134Y-59493649D02*
X66150658Y-59493649D01*
X81886997Y-60732309D02*
X81720331Y-60494214D01*
X81601283Y-60732309D02*
X81601283Y-60232309D01*
X81601283Y-60232309D02*
X81791759Y-60232309D01*
X81791759Y-60232309D02*
X81839378Y-60256119D01*
X81839378Y-60256119D02*
X81863188Y-60279928D01*
X81863188Y-60279928D02*
X81886997Y-60327547D01*
X81886997Y-60327547D02*
X81886997Y-60398976D01*
X81886997Y-60398976D02*
X81863188Y-60446595D01*
X81863188Y-60446595D02*
X81839378Y-60470404D01*
X81839378Y-60470404D02*
X81791759Y-60494214D01*
X81791759Y-60494214D02*
X81601283Y-60494214D01*
X82363188Y-60732309D02*
X82077474Y-60732309D01*
X82220331Y-60732309D02*
X82220331Y-60232309D01*
X82220331Y-60232309D02*
X82172712Y-60303738D01*
X82172712Y-60303738D02*
X82125093Y-60351357D01*
X82125093Y-60351357D02*
X82077474Y-60375166D01*
X82672711Y-60232309D02*
X82720330Y-60232309D01*
X82720330Y-60232309D02*
X82767949Y-60256119D01*
X82767949Y-60256119D02*
X82791759Y-60279928D01*
X82791759Y-60279928D02*
X82815568Y-60327547D01*
X82815568Y-60327547D02*
X82839378Y-60422785D01*
X82839378Y-60422785D02*
X82839378Y-60541833D01*
X82839378Y-60541833D02*
X82815568Y-60637071D01*
X82815568Y-60637071D02*
X82791759Y-60684690D01*
X82791759Y-60684690D02*
X82767949Y-60708500D01*
X82767949Y-60708500D02*
X82720330Y-60732309D01*
X82720330Y-60732309D02*
X82672711Y-60732309D01*
X82672711Y-60732309D02*
X82625092Y-60708500D01*
X82625092Y-60708500D02*
X82601283Y-60684690D01*
X82601283Y-60684690D02*
X82577473Y-60637071D01*
X82577473Y-60637071D02*
X82553664Y-60541833D01*
X82553664Y-60541833D02*
X82553664Y-60422785D01*
X82553664Y-60422785D02*
X82577473Y-60327547D01*
X82577473Y-60327547D02*
X82601283Y-60279928D01*
X82601283Y-60279928D02*
X82625092Y-60256119D01*
X82625092Y-60256119D02*
X82672711Y-60232309D01*
X83291758Y-60232309D02*
X83053663Y-60232309D01*
X83053663Y-60232309D02*
X83029854Y-60470404D01*
X83029854Y-60470404D02*
X83053663Y-60446595D01*
X83053663Y-60446595D02*
X83101282Y-60422785D01*
X83101282Y-60422785D02*
X83220330Y-60422785D01*
X83220330Y-60422785D02*
X83267949Y-60446595D01*
X83267949Y-60446595D02*
X83291758Y-60470404D01*
X83291758Y-60470404D02*
X83315568Y-60518023D01*
X83315568Y-60518023D02*
X83315568Y-60637071D01*
X83315568Y-60637071D02*
X83291758Y-60684690D01*
X83291758Y-60684690D02*
X83267949Y-60708500D01*
X83267949Y-60708500D02*
X83220330Y-60732309D01*
X83220330Y-60732309D02*
X83101282Y-60732309D01*
X83101282Y-60732309D02*
X83053663Y-60708500D01*
X83053663Y-60708500D02*
X83029854Y-60684690D01*
X48986997Y-75875545D02*
X48963188Y-75899355D01*
X48963188Y-75899355D02*
X48891759Y-75923164D01*
X48891759Y-75923164D02*
X48844140Y-75923164D01*
X48844140Y-75923164D02*
X48772712Y-75899355D01*
X48772712Y-75899355D02*
X48725093Y-75851735D01*
X48725093Y-75851735D02*
X48701283Y-75804116D01*
X48701283Y-75804116D02*
X48677474Y-75708878D01*
X48677474Y-75708878D02*
X48677474Y-75637450D01*
X48677474Y-75637450D02*
X48701283Y-75542212D01*
X48701283Y-75542212D02*
X48725093Y-75494593D01*
X48725093Y-75494593D02*
X48772712Y-75446974D01*
X48772712Y-75446974D02*
X48844140Y-75423164D01*
X48844140Y-75423164D02*
X48891759Y-75423164D01*
X48891759Y-75423164D02*
X48963188Y-75446974D01*
X48963188Y-75446974D02*
X48986997Y-75470783D01*
X49272712Y-75637450D02*
X49225093Y-75613640D01*
X49225093Y-75613640D02*
X49201283Y-75589831D01*
X49201283Y-75589831D02*
X49177474Y-75542212D01*
X49177474Y-75542212D02*
X49177474Y-75518402D01*
X49177474Y-75518402D02*
X49201283Y-75470783D01*
X49201283Y-75470783D02*
X49225093Y-75446974D01*
X49225093Y-75446974D02*
X49272712Y-75423164D01*
X49272712Y-75423164D02*
X49367950Y-75423164D01*
X49367950Y-75423164D02*
X49415569Y-75446974D01*
X49415569Y-75446974D02*
X49439378Y-75470783D01*
X49439378Y-75470783D02*
X49463188Y-75518402D01*
X49463188Y-75518402D02*
X49463188Y-75542212D01*
X49463188Y-75542212D02*
X49439378Y-75589831D01*
X49439378Y-75589831D02*
X49415569Y-75613640D01*
X49415569Y-75613640D02*
X49367950Y-75637450D01*
X49367950Y-75637450D02*
X49272712Y-75637450D01*
X49272712Y-75637450D02*
X49225093Y-75661259D01*
X49225093Y-75661259D02*
X49201283Y-75685069D01*
X49201283Y-75685069D02*
X49177474Y-75732688D01*
X49177474Y-75732688D02*
X49177474Y-75827926D01*
X49177474Y-75827926D02*
X49201283Y-75875545D01*
X49201283Y-75875545D02*
X49225093Y-75899355D01*
X49225093Y-75899355D02*
X49272712Y-75923164D01*
X49272712Y-75923164D02*
X49367950Y-75923164D01*
X49367950Y-75923164D02*
X49415569Y-75899355D01*
X49415569Y-75899355D02*
X49439378Y-75875545D01*
X49439378Y-75875545D02*
X49463188Y-75827926D01*
X49463188Y-75827926D02*
X49463188Y-75732688D01*
X49463188Y-75732688D02*
X49439378Y-75685069D01*
X49439378Y-75685069D02*
X49415569Y-75661259D01*
X49415569Y-75661259D02*
X49367950Y-75637450D01*
X49772711Y-75423164D02*
X49820330Y-75423164D01*
X49820330Y-75423164D02*
X49867949Y-75446974D01*
X49867949Y-75446974D02*
X49891759Y-75470783D01*
X49891759Y-75470783D02*
X49915568Y-75518402D01*
X49915568Y-75518402D02*
X49939378Y-75613640D01*
X49939378Y-75613640D02*
X49939378Y-75732688D01*
X49939378Y-75732688D02*
X49915568Y-75827926D01*
X49915568Y-75827926D02*
X49891759Y-75875545D01*
X49891759Y-75875545D02*
X49867949Y-75899355D01*
X49867949Y-75899355D02*
X49820330Y-75923164D01*
X49820330Y-75923164D02*
X49772711Y-75923164D01*
X49772711Y-75923164D02*
X49725092Y-75899355D01*
X49725092Y-75899355D02*
X49701283Y-75875545D01*
X49701283Y-75875545D02*
X49677473Y-75827926D01*
X49677473Y-75827926D02*
X49653664Y-75732688D01*
X49653664Y-75732688D02*
X49653664Y-75613640D01*
X49653664Y-75613640D02*
X49677473Y-75518402D01*
X49677473Y-75518402D02*
X49701283Y-75470783D01*
X49701283Y-75470783D02*
X49725092Y-75446974D01*
X49725092Y-75446974D02*
X49772711Y-75423164D01*
X50415568Y-75923164D02*
X50129854Y-75923164D01*
X50272711Y-75923164D02*
X50272711Y-75423164D01*
X50272711Y-75423164D02*
X50225092Y-75494593D01*
X50225092Y-75494593D02*
X50177473Y-75542212D01*
X50177473Y-75542212D02*
X50129854Y-75566021D01*
D10*
X70005826Y-88319840D02*
X69970112Y-88355555D01*
X69970112Y-88355555D02*
X69862969Y-88391269D01*
X69862969Y-88391269D02*
X69791541Y-88391269D01*
X69791541Y-88391269D02*
X69684398Y-88355555D01*
X69684398Y-88355555D02*
X69612969Y-88284126D01*
X69612969Y-88284126D02*
X69577255Y-88212697D01*
X69577255Y-88212697D02*
X69541541Y-88069840D01*
X69541541Y-88069840D02*
X69541541Y-87962697D01*
X69541541Y-87962697D02*
X69577255Y-87819840D01*
X69577255Y-87819840D02*
X69612969Y-87748412D01*
X69612969Y-87748412D02*
X69684398Y-87676983D01*
X69684398Y-87676983D02*
X69791541Y-87641269D01*
X69791541Y-87641269D02*
X69862969Y-87641269D01*
X69862969Y-87641269D02*
X69970112Y-87676983D01*
X69970112Y-87676983D02*
X70005826Y-87712697D01*
X70720112Y-88391269D02*
X70291541Y-88391269D01*
X70505826Y-88391269D02*
X70505826Y-87641269D01*
X70505826Y-87641269D02*
X70434398Y-87748412D01*
X70434398Y-87748412D02*
X70362969Y-87819840D01*
X70362969Y-87819840D02*
X70291541Y-87855555D01*
X71184398Y-87641269D02*
X71255827Y-87641269D01*
X71255827Y-87641269D02*
X71327255Y-87676983D01*
X71327255Y-87676983D02*
X71362970Y-87712697D01*
X71362970Y-87712697D02*
X71398684Y-87784126D01*
X71398684Y-87784126D02*
X71434398Y-87926983D01*
X71434398Y-87926983D02*
X71434398Y-88105555D01*
X71434398Y-88105555D02*
X71398684Y-88248412D01*
X71398684Y-88248412D02*
X71362970Y-88319840D01*
X71362970Y-88319840D02*
X71327255Y-88355555D01*
X71327255Y-88355555D02*
X71255827Y-88391269D01*
X71255827Y-88391269D02*
X71184398Y-88391269D01*
X71184398Y-88391269D02*
X71112970Y-88355555D01*
X71112970Y-88355555D02*
X71077255Y-88319840D01*
X71077255Y-88319840D02*
X71041541Y-88248412D01*
X71041541Y-88248412D02*
X71005827Y-88105555D01*
X71005827Y-88105555D02*
X71005827Y-87926983D01*
X71005827Y-87926983D02*
X71041541Y-87784126D01*
X71041541Y-87784126D02*
X71077255Y-87712697D01*
X71077255Y-87712697D02*
X71112970Y-87676983D01*
X71112970Y-87676983D02*
X71184398Y-87641269D01*
X71684398Y-87641269D02*
X72184398Y-87641269D01*
X72184398Y-87641269D02*
X71862970Y-88391269D01*
X60436398Y-97755555D02*
X60543541Y-97791269D01*
X60543541Y-97791269D02*
X60722112Y-97791269D01*
X60722112Y-97791269D02*
X60793541Y-97755555D01*
X60793541Y-97755555D02*
X60829255Y-97719840D01*
X60829255Y-97719840D02*
X60864969Y-97648412D01*
X60864969Y-97648412D02*
X60864969Y-97576983D01*
X60864969Y-97576983D02*
X60829255Y-97505555D01*
X60829255Y-97505555D02*
X60793541Y-97469840D01*
X60793541Y-97469840D02*
X60722112Y-97434126D01*
X60722112Y-97434126D02*
X60579255Y-97398412D01*
X60579255Y-97398412D02*
X60507826Y-97362697D01*
X60507826Y-97362697D02*
X60472112Y-97326983D01*
X60472112Y-97326983D02*
X60436398Y-97255555D01*
X60436398Y-97255555D02*
X60436398Y-97184126D01*
X60436398Y-97184126D02*
X60472112Y-97112697D01*
X60472112Y-97112697D02*
X60507826Y-97076983D01*
X60507826Y-97076983D02*
X60579255Y-97041269D01*
X60579255Y-97041269D02*
X60757826Y-97041269D01*
X60757826Y-97041269D02*
X60864969Y-97076983D01*
X61114969Y-97041269D02*
X61293541Y-97791269D01*
X61293541Y-97791269D02*
X61436398Y-97255555D01*
X61436398Y-97255555D02*
X61579255Y-97791269D01*
X61579255Y-97791269D02*
X61757827Y-97041269D01*
X62436398Y-97791269D02*
X62007827Y-97791269D01*
X62222112Y-97791269D02*
X62222112Y-97041269D01*
X62222112Y-97041269D02*
X62150684Y-97148412D01*
X62150684Y-97148412D02*
X62079255Y-97219840D01*
X62079255Y-97219840D02*
X62007827Y-97255555D01*
X62900684Y-97041269D02*
X62972113Y-97041269D01*
X62972113Y-97041269D02*
X63043541Y-97076983D01*
X63043541Y-97076983D02*
X63079256Y-97112697D01*
X63079256Y-97112697D02*
X63114970Y-97184126D01*
X63114970Y-97184126D02*
X63150684Y-97326983D01*
X63150684Y-97326983D02*
X63150684Y-97505555D01*
X63150684Y-97505555D02*
X63114970Y-97648412D01*
X63114970Y-97648412D02*
X63079256Y-97719840D01*
X63079256Y-97719840D02*
X63043541Y-97755555D01*
X63043541Y-97755555D02*
X62972113Y-97791269D01*
X62972113Y-97791269D02*
X62900684Y-97791269D01*
X62900684Y-97791269D02*
X62829256Y-97755555D01*
X62829256Y-97755555D02*
X62793541Y-97719840D01*
X62793541Y-97719840D02*
X62757827Y-97648412D01*
X62757827Y-97648412D02*
X62722113Y-97505555D01*
X62722113Y-97505555D02*
X62722113Y-97326983D01*
X62722113Y-97326983D02*
X62757827Y-97184126D01*
X62757827Y-97184126D02*
X62793541Y-97112697D01*
X62793541Y-97112697D02*
X62829256Y-97076983D01*
X62829256Y-97076983D02*
X62900684Y-97041269D01*
X63864970Y-97791269D02*
X63436399Y-97791269D01*
X63650684Y-97791269D02*
X63650684Y-97041269D01*
X63650684Y-97041269D02*
X63579256Y-97148412D01*
X63579256Y-97148412D02*
X63507827Y-97219840D01*
X63507827Y-97219840D02*
X63436399Y-97255555D01*
X41450414Y-69108458D02*
X41986128Y-69108458D01*
X41986128Y-69108458D02*
X42093271Y-69144173D01*
X42093271Y-69144173D02*
X42164700Y-69215601D01*
X42164700Y-69215601D02*
X42200414Y-69322744D01*
X42200414Y-69322744D02*
X42200414Y-69394173D01*
X42200414Y-68358458D02*
X42200414Y-68787029D01*
X42200414Y-68572744D02*
X41450414Y-68572744D01*
X41450414Y-68572744D02*
X41557557Y-68644172D01*
X41557557Y-68644172D02*
X41628985Y-68715601D01*
X41628985Y-68715601D02*
X41664700Y-68787029D01*
X41450414Y-67894172D02*
X41450414Y-67822743D01*
X41450414Y-67822743D02*
X41486128Y-67751315D01*
X41486128Y-67751315D02*
X41521842Y-67715601D01*
X41521842Y-67715601D02*
X41593271Y-67679886D01*
X41593271Y-67679886D02*
X41736128Y-67644172D01*
X41736128Y-67644172D02*
X41914700Y-67644172D01*
X41914700Y-67644172D02*
X42057557Y-67679886D01*
X42057557Y-67679886D02*
X42128985Y-67715601D01*
X42128985Y-67715601D02*
X42164700Y-67751315D01*
X42164700Y-67751315D02*
X42200414Y-67822743D01*
X42200414Y-67822743D02*
X42200414Y-67894172D01*
X42200414Y-67894172D02*
X42164700Y-67965601D01*
X42164700Y-67965601D02*
X42128985Y-68001315D01*
X42128985Y-68001315D02*
X42057557Y-68037029D01*
X42057557Y-68037029D02*
X41914700Y-68072743D01*
X41914700Y-68072743D02*
X41736128Y-68072743D01*
X41736128Y-68072743D02*
X41593271Y-68037029D01*
X41593271Y-68037029D02*
X41521842Y-68001315D01*
X41521842Y-68001315D02*
X41486128Y-67965601D01*
X41486128Y-67965601D02*
X41450414Y-67894172D01*
X41450414Y-67394172D02*
X41450414Y-66929886D01*
X41450414Y-66929886D02*
X41736128Y-67179886D01*
X41736128Y-67179886D02*
X41736128Y-67072743D01*
X41736128Y-67072743D02*
X41771842Y-67001315D01*
X41771842Y-67001315D02*
X41807557Y-66965600D01*
X41807557Y-66965600D02*
X41878985Y-66929886D01*
X41878985Y-66929886D02*
X42057557Y-66929886D01*
X42057557Y-66929886D02*
X42128985Y-66965600D01*
X42128985Y-66965600D02*
X42164700Y-67001315D01*
X42164700Y-67001315D02*
X42200414Y-67072743D01*
X42200414Y-67072743D02*
X42200414Y-67287029D01*
X42200414Y-67287029D02*
X42164700Y-67358457D01*
X42164700Y-67358457D02*
X42128985Y-67394172D01*
D11*
X52886997Y-75932309D02*
X52720331Y-75694214D01*
X52601283Y-75932309D02*
X52601283Y-75432309D01*
X52601283Y-75432309D02*
X52791759Y-75432309D01*
X52791759Y-75432309D02*
X52839378Y-75456119D01*
X52839378Y-75456119D02*
X52863188Y-75479928D01*
X52863188Y-75479928D02*
X52886997Y-75527547D01*
X52886997Y-75527547D02*
X52886997Y-75598976D01*
X52886997Y-75598976D02*
X52863188Y-75646595D01*
X52863188Y-75646595D02*
X52839378Y-75670404D01*
X52839378Y-75670404D02*
X52791759Y-75694214D01*
X52791759Y-75694214D02*
X52601283Y-75694214D01*
X53172712Y-75646595D02*
X53125093Y-75622785D01*
X53125093Y-75622785D02*
X53101283Y-75598976D01*
X53101283Y-75598976D02*
X53077474Y-75551357D01*
X53077474Y-75551357D02*
X53077474Y-75527547D01*
X53077474Y-75527547D02*
X53101283Y-75479928D01*
X53101283Y-75479928D02*
X53125093Y-75456119D01*
X53125093Y-75456119D02*
X53172712Y-75432309D01*
X53172712Y-75432309D02*
X53267950Y-75432309D01*
X53267950Y-75432309D02*
X53315569Y-75456119D01*
X53315569Y-75456119D02*
X53339378Y-75479928D01*
X53339378Y-75479928D02*
X53363188Y-75527547D01*
X53363188Y-75527547D02*
X53363188Y-75551357D01*
X53363188Y-75551357D02*
X53339378Y-75598976D01*
X53339378Y-75598976D02*
X53315569Y-75622785D01*
X53315569Y-75622785D02*
X53267950Y-75646595D01*
X53267950Y-75646595D02*
X53172712Y-75646595D01*
X53172712Y-75646595D02*
X53125093Y-75670404D01*
X53125093Y-75670404D02*
X53101283Y-75694214D01*
X53101283Y-75694214D02*
X53077474Y-75741833D01*
X53077474Y-75741833D02*
X53077474Y-75837071D01*
X53077474Y-75837071D02*
X53101283Y-75884690D01*
X53101283Y-75884690D02*
X53125093Y-75908500D01*
X53125093Y-75908500D02*
X53172712Y-75932309D01*
X53172712Y-75932309D02*
X53267950Y-75932309D01*
X53267950Y-75932309D02*
X53315569Y-75908500D01*
X53315569Y-75908500D02*
X53339378Y-75884690D01*
X53339378Y-75884690D02*
X53363188Y-75837071D01*
X53363188Y-75837071D02*
X53363188Y-75741833D01*
X53363188Y-75741833D02*
X53339378Y-75694214D01*
X53339378Y-75694214D02*
X53315569Y-75670404D01*
X53315569Y-75670404D02*
X53267950Y-75646595D01*
X53672711Y-75432309D02*
X53720330Y-75432309D01*
X53720330Y-75432309D02*
X53767949Y-75456119D01*
X53767949Y-75456119D02*
X53791759Y-75479928D01*
X53791759Y-75479928D02*
X53815568Y-75527547D01*
X53815568Y-75527547D02*
X53839378Y-75622785D01*
X53839378Y-75622785D02*
X53839378Y-75741833D01*
X53839378Y-75741833D02*
X53815568Y-75837071D01*
X53815568Y-75837071D02*
X53791759Y-75884690D01*
X53791759Y-75884690D02*
X53767949Y-75908500D01*
X53767949Y-75908500D02*
X53720330Y-75932309D01*
X53720330Y-75932309D02*
X53672711Y-75932309D01*
X53672711Y-75932309D02*
X53625092Y-75908500D01*
X53625092Y-75908500D02*
X53601283Y-75884690D01*
X53601283Y-75884690D02*
X53577473Y-75837071D01*
X53577473Y-75837071D02*
X53553664Y-75741833D01*
X53553664Y-75741833D02*
X53553664Y-75622785D01*
X53553664Y-75622785D02*
X53577473Y-75527547D01*
X53577473Y-75527547D02*
X53601283Y-75479928D01*
X53601283Y-75479928D02*
X53625092Y-75456119D01*
X53625092Y-75456119D02*
X53672711Y-75432309D01*
X54029854Y-75479928D02*
X54053663Y-75456119D01*
X54053663Y-75456119D02*
X54101282Y-75432309D01*
X54101282Y-75432309D02*
X54220330Y-75432309D01*
X54220330Y-75432309D02*
X54267949Y-75456119D01*
X54267949Y-75456119D02*
X54291758Y-75479928D01*
X54291758Y-75479928D02*
X54315568Y-75527547D01*
X54315568Y-75527547D02*
X54315568Y-75575166D01*
X54315568Y-75575166D02*
X54291758Y-75646595D01*
X54291758Y-75646595D02*
X54006044Y-75932309D01*
X54006044Y-75932309D02*
X54315568Y-75932309D01*
D10*
X85386398Y-86541269D02*
X85386398Y-87076983D01*
X85386398Y-87076983D02*
X85350683Y-87184126D01*
X85350683Y-87184126D02*
X85279255Y-87255555D01*
X85279255Y-87255555D02*
X85172112Y-87291269D01*
X85172112Y-87291269D02*
X85100683Y-87291269D01*
X86136398Y-87291269D02*
X85707827Y-87291269D01*
X85922112Y-87291269D02*
X85922112Y-86541269D01*
X85922112Y-86541269D02*
X85850684Y-86648412D01*
X85850684Y-86648412D02*
X85779255Y-86719840D01*
X85779255Y-86719840D02*
X85707827Y-86755555D01*
X86600684Y-86541269D02*
X86672113Y-86541269D01*
X86672113Y-86541269D02*
X86743541Y-86576983D01*
X86743541Y-86576983D02*
X86779256Y-86612697D01*
X86779256Y-86612697D02*
X86814970Y-86684126D01*
X86814970Y-86684126D02*
X86850684Y-86826983D01*
X86850684Y-86826983D02*
X86850684Y-87005555D01*
X86850684Y-87005555D02*
X86814970Y-87148412D01*
X86814970Y-87148412D02*
X86779256Y-87219840D01*
X86779256Y-87219840D02*
X86743541Y-87255555D01*
X86743541Y-87255555D02*
X86672113Y-87291269D01*
X86672113Y-87291269D02*
X86600684Y-87291269D01*
X86600684Y-87291269D02*
X86529256Y-87255555D01*
X86529256Y-87255555D02*
X86493541Y-87219840D01*
X86493541Y-87219840D02*
X86457827Y-87148412D01*
X86457827Y-87148412D02*
X86422113Y-87005555D01*
X86422113Y-87005555D02*
X86422113Y-86826983D01*
X86422113Y-86826983D02*
X86457827Y-86684126D01*
X86457827Y-86684126D02*
X86493541Y-86612697D01*
X86493541Y-86612697D02*
X86529256Y-86576983D01*
X86529256Y-86576983D02*
X86600684Y-86541269D01*
X87529256Y-86541269D02*
X87172113Y-86541269D01*
X87172113Y-86541269D02*
X87136399Y-86898412D01*
X87136399Y-86898412D02*
X87172113Y-86862697D01*
X87172113Y-86862697D02*
X87243542Y-86826983D01*
X87243542Y-86826983D02*
X87422113Y-86826983D01*
X87422113Y-86826983D02*
X87493542Y-86862697D01*
X87493542Y-86862697D02*
X87529256Y-86898412D01*
X87529256Y-86898412D02*
X87564970Y-86969840D01*
X87564970Y-86969840D02*
X87564970Y-87148412D01*
X87564970Y-87148412D02*
X87529256Y-87219840D01*
X87529256Y-87219840D02*
X87493542Y-87255555D01*
X87493542Y-87255555D02*
X87422113Y-87291269D01*
X87422113Y-87291269D02*
X87243542Y-87291269D01*
X87243542Y-87291269D02*
X87172113Y-87255555D01*
X87172113Y-87255555D02*
X87136399Y-87219840D01*
X75772112Y-78141269D02*
X75772112Y-78748412D01*
X75772112Y-78748412D02*
X75807826Y-78819840D01*
X75807826Y-78819840D02*
X75843541Y-78855555D01*
X75843541Y-78855555D02*
X75914969Y-78891269D01*
X75914969Y-78891269D02*
X76057826Y-78891269D01*
X76057826Y-78891269D02*
X76129255Y-78855555D01*
X76129255Y-78855555D02*
X76164969Y-78819840D01*
X76164969Y-78819840D02*
X76200683Y-78748412D01*
X76200683Y-78748412D02*
X76200683Y-78141269D01*
X76950683Y-78891269D02*
X76522112Y-78891269D01*
X76736397Y-78891269D02*
X76736397Y-78141269D01*
X76736397Y-78141269D02*
X76664969Y-78248412D01*
X76664969Y-78248412D02*
X76593540Y-78319840D01*
X76593540Y-78319840D02*
X76522112Y-78355555D01*
X77414969Y-78141269D02*
X77486398Y-78141269D01*
X77486398Y-78141269D02*
X77557826Y-78176983D01*
X77557826Y-78176983D02*
X77593541Y-78212697D01*
X77593541Y-78212697D02*
X77629255Y-78284126D01*
X77629255Y-78284126D02*
X77664969Y-78426983D01*
X77664969Y-78426983D02*
X77664969Y-78605555D01*
X77664969Y-78605555D02*
X77629255Y-78748412D01*
X77629255Y-78748412D02*
X77593541Y-78819840D01*
X77593541Y-78819840D02*
X77557826Y-78855555D01*
X77557826Y-78855555D02*
X77486398Y-78891269D01*
X77486398Y-78891269D02*
X77414969Y-78891269D01*
X77414969Y-78891269D02*
X77343541Y-78855555D01*
X77343541Y-78855555D02*
X77307826Y-78819840D01*
X77307826Y-78819840D02*
X77272112Y-78748412D01*
X77272112Y-78748412D02*
X77236398Y-78605555D01*
X77236398Y-78605555D02*
X77236398Y-78426983D01*
X77236398Y-78426983D02*
X77272112Y-78284126D01*
X77272112Y-78284126D02*
X77307826Y-78212697D01*
X77307826Y-78212697D02*
X77343541Y-78176983D01*
X77343541Y-78176983D02*
X77414969Y-78141269D01*
X77914969Y-78141269D02*
X78379255Y-78141269D01*
X78379255Y-78141269D02*
X78129255Y-78426983D01*
X78129255Y-78426983D02*
X78236398Y-78426983D01*
X78236398Y-78426983D02*
X78307827Y-78462697D01*
X78307827Y-78462697D02*
X78343541Y-78498412D01*
X78343541Y-78498412D02*
X78379255Y-78569840D01*
X78379255Y-78569840D02*
X78379255Y-78748412D01*
X78379255Y-78748412D02*
X78343541Y-78819840D01*
X78343541Y-78819840D02*
X78307827Y-78855555D01*
X78307827Y-78855555D02*
X78236398Y-78891269D01*
X78236398Y-78891269D02*
X78022112Y-78891269D01*
X78022112Y-78891269D02*
X77950684Y-78855555D01*
X77950684Y-78855555D02*
X77914969Y-78819840D01*
D11*
X62022087Y-75046030D02*
X61998278Y-75069840D01*
X61998278Y-75069840D02*
X61926849Y-75093649D01*
X61926849Y-75093649D02*
X61879230Y-75093649D01*
X61879230Y-75093649D02*
X61807802Y-75069840D01*
X61807802Y-75069840D02*
X61760183Y-75022220D01*
X61760183Y-75022220D02*
X61736373Y-74974601D01*
X61736373Y-74974601D02*
X61712564Y-74879363D01*
X61712564Y-74879363D02*
X61712564Y-74807935D01*
X61712564Y-74807935D02*
X61736373Y-74712697D01*
X61736373Y-74712697D02*
X61760183Y-74665078D01*
X61760183Y-74665078D02*
X61807802Y-74617459D01*
X61807802Y-74617459D02*
X61879230Y-74593649D01*
X61879230Y-74593649D02*
X61926849Y-74593649D01*
X61926849Y-74593649D02*
X61998278Y-74617459D01*
X61998278Y-74617459D02*
X62022087Y-74641268D01*
X62498278Y-75093649D02*
X62212564Y-75093649D01*
X62355421Y-75093649D02*
X62355421Y-74593649D01*
X62355421Y-74593649D02*
X62307802Y-74665078D01*
X62307802Y-74665078D02*
X62260183Y-74712697D01*
X62260183Y-74712697D02*
X62212564Y-74736506D01*
X62807801Y-74593649D02*
X62855420Y-74593649D01*
X62855420Y-74593649D02*
X62903039Y-74617459D01*
X62903039Y-74617459D02*
X62926849Y-74641268D01*
X62926849Y-74641268D02*
X62950658Y-74688887D01*
X62950658Y-74688887D02*
X62974468Y-74784125D01*
X62974468Y-74784125D02*
X62974468Y-74903173D01*
X62974468Y-74903173D02*
X62950658Y-74998411D01*
X62950658Y-74998411D02*
X62926849Y-75046030D01*
X62926849Y-75046030D02*
X62903039Y-75069840D01*
X62903039Y-75069840D02*
X62855420Y-75093649D01*
X62855420Y-75093649D02*
X62807801Y-75093649D01*
X62807801Y-75093649D02*
X62760182Y-75069840D01*
X62760182Y-75069840D02*
X62736373Y-75046030D01*
X62736373Y-75046030D02*
X62712563Y-74998411D01*
X62712563Y-74998411D02*
X62688754Y-74903173D01*
X62688754Y-74903173D02*
X62688754Y-74784125D01*
X62688754Y-74784125D02*
X62712563Y-74688887D01*
X62712563Y-74688887D02*
X62736373Y-74641268D01*
X62736373Y-74641268D02*
X62760182Y-74617459D01*
X62760182Y-74617459D02*
X62807801Y-74593649D01*
X63403039Y-74760316D02*
X63403039Y-75093649D01*
X63283991Y-74569840D02*
X63164944Y-74926982D01*
X63164944Y-74926982D02*
X63474467Y-74926982D01*
D10*
G36*
X57133226Y-62861670D02*
G01*
X54239225Y-62861670D01*
X54239225Y-61951892D01*
X54397103Y-61951892D01*
X54399177Y-61981082D01*
X54412264Y-62007257D01*
X54434372Y-62026430D01*
X54462133Y-62035684D01*
X54491323Y-62033610D01*
X54505055Y-62028355D01*
X54600293Y-61980736D01*
X54606592Y-61976771D01*
X54608420Y-61976014D01*
X54610476Y-61974325D01*
X54612736Y-61972904D01*
X54614035Y-61971405D01*
X54619785Y-61966687D01*
X54682228Y-61904244D01*
X54682228Y-62600559D01*
X54471514Y-62600559D01*
X54456882Y-62602000D01*
X54429846Y-62613199D01*
X54409154Y-62633891D01*
X54397955Y-62660927D01*
X54397955Y-62690191D01*
X54409154Y-62717227D01*
X54429846Y-62737919D01*
X54456882Y-62749118D01*
X54471514Y-62750559D01*
X55042942Y-62750559D01*
X55057574Y-62749118D01*
X55084610Y-62737919D01*
X55105302Y-62717227D01*
X55116501Y-62690191D01*
X55116501Y-62660927D01*
X55302717Y-62660927D01*
X55302717Y-62690191D01*
X55313916Y-62717227D01*
X55334608Y-62737919D01*
X55361644Y-62749118D01*
X55376276Y-62750559D01*
X55995323Y-62750559D01*
X56009955Y-62749118D01*
X56036991Y-62737919D01*
X56057683Y-62717227D01*
X56068882Y-62690191D01*
X56068882Y-62660927D01*
X56057683Y-62633891D01*
X56036991Y-62613199D01*
X56009955Y-62602000D01*
X55995323Y-62600559D01*
X55557342Y-62600559D01*
X56000737Y-62157163D01*
X56010065Y-62145798D01*
X56011096Y-62143307D01*
X56012861Y-62141273D01*
X56018855Y-62127847D01*
X56066474Y-61984991D01*
X56068123Y-61977735D01*
X56068882Y-61975905D01*
X56069143Y-61973251D01*
X56069734Y-61970654D01*
X56069593Y-61968679D01*
X56070323Y-61961273D01*
X56070323Y-61866035D01*
X56068882Y-61851403D01*
X56067851Y-61848914D01*
X56067660Y-61846225D01*
X56062405Y-61832494D01*
X56014786Y-61737256D01*
X56010821Y-61730956D01*
X56010064Y-61729129D01*
X56008375Y-61727072D01*
X56006954Y-61724813D01*
X56005455Y-61723513D01*
X56000737Y-61717764D01*
X55967912Y-61684939D01*
X56206627Y-61684939D01*
X56209887Y-61699276D01*
X56543220Y-62699276D01*
X56549214Y-62712701D01*
X56552724Y-62716748D01*
X56555121Y-62721542D01*
X56562229Y-62727707D01*
X56568388Y-62734808D01*
X56573177Y-62737202D01*
X56577228Y-62740716D01*
X56586153Y-62743690D01*
X56594561Y-62747895D01*
X56599905Y-62748274D01*
X56604991Y-62749970D01*
X56614371Y-62749303D01*
X56623751Y-62749970D01*
X56628836Y-62748274D01*
X56634181Y-62747895D01*
X56642591Y-62743689D01*
X56651513Y-62740716D01*
X56655560Y-62737205D01*
X56660354Y-62734809D01*
X56666517Y-62727703D01*
X56673621Y-62721542D01*
X56676016Y-62716750D01*
X56679528Y-62712702D01*
X56685522Y-62699276D01*
X57018855Y-61699276D01*
X57022115Y-61684940D01*
X57020040Y-61655750D01*
X57006954Y-61629576D01*
X56984846Y-61610402D01*
X56957084Y-61601148D01*
X56927894Y-61603223D01*
X56901721Y-61616310D01*
X56882547Y-61638417D01*
X56876553Y-61651842D01*
X56614371Y-62438388D01*
X56352189Y-61651842D01*
X56346195Y-61638416D01*
X56327021Y-61616309D01*
X56300848Y-61603223D01*
X56271658Y-61601148D01*
X56243895Y-61610402D01*
X56221788Y-61629576D01*
X56208702Y-61655749D01*
X56206627Y-61684939D01*
X55967912Y-61684939D01*
X55953118Y-61670145D01*
X55947368Y-61665426D01*
X55946069Y-61663928D01*
X55943809Y-61662506D01*
X55941753Y-61660818D01*
X55939925Y-61660060D01*
X55933626Y-61656096D01*
X55838388Y-61608477D01*
X55824656Y-61603222D01*
X55821968Y-61603031D01*
X55819479Y-61602000D01*
X55804847Y-61600559D01*
X55566752Y-61600559D01*
X55552120Y-61602000D01*
X55549631Y-61603030D01*
X55546942Y-61603222D01*
X55533211Y-61608477D01*
X55437973Y-61656096D01*
X55431673Y-61660060D01*
X55429846Y-61660818D01*
X55427789Y-61662506D01*
X55425530Y-61663928D01*
X55424230Y-61665426D01*
X55418481Y-61670145D01*
X55370862Y-61717764D01*
X55361535Y-61729129D01*
X55350336Y-61756166D01*
X55350336Y-61785428D01*
X55361535Y-61812465D01*
X55382227Y-61833157D01*
X55409264Y-61844356D01*
X55438526Y-61844356D01*
X55465563Y-61833157D01*
X55476928Y-61823830D01*
X55515941Y-61784817D01*
X55584457Y-61750559D01*
X55787142Y-61750559D01*
X55855658Y-61784817D01*
X55886065Y-61815224D01*
X55920323Y-61883740D01*
X55920323Y-61949103D01*
X55882151Y-62063616D01*
X55323243Y-62622526D01*
X55313916Y-62633891D01*
X55302717Y-62660927D01*
X55116501Y-62660927D01*
X55105302Y-62633891D01*
X55084610Y-62613199D01*
X55057574Y-62602000D01*
X55042942Y-62600559D01*
X54832228Y-62600559D01*
X54832228Y-61675559D01*
X54832222Y-61675506D01*
X54832228Y-61675480D01*
X54832212Y-61675403D01*
X54830787Y-61660927D01*
X54827945Y-61654066D01*
X54826489Y-61646785D01*
X54822399Y-61640678D01*
X54819588Y-61633891D01*
X54814339Y-61628642D01*
X54810206Y-61622470D01*
X54804089Y-61618392D01*
X54798896Y-61613199D01*
X54792036Y-61610357D01*
X54785857Y-61606238D01*
X54778648Y-61604812D01*
X54771860Y-61602000D01*
X54764433Y-61602000D01*
X54757149Y-61600559D01*
X54749944Y-61602000D01*
X54742596Y-61602000D01*
X54735735Y-61604841D01*
X54728455Y-61606298D01*
X54722349Y-61610386D01*
X54715560Y-61613199D01*
X54710309Y-61618449D01*
X54704140Y-61622581D01*
X54694919Y-61633839D01*
X54694868Y-61633891D01*
X54694858Y-61633913D01*
X54694824Y-61633956D01*
X54603704Y-61770636D01*
X54522325Y-61852015D01*
X54437973Y-61894191D01*
X54425530Y-61902023D01*
X54406357Y-61924131D01*
X54397103Y-61951892D01*
X54239225Y-61951892D01*
X54239225Y-60549045D01*
X54396864Y-60549045D01*
X54397955Y-60552660D01*
X54397955Y-60556436D01*
X54402149Y-60566561D01*
X54405317Y-60577061D01*
X54407708Y-60579984D01*
X54409154Y-60583473D01*
X54416907Y-60591226D01*
X54423848Y-60599709D01*
X54427174Y-60601493D01*
X54429846Y-60604165D01*
X54439973Y-60608360D01*
X54449635Y-60613543D01*
X54453394Y-60613918D01*
X54456883Y-60615364D01*
X54467844Y-60615364D01*
X54478754Y-60616455D01*
X54482370Y-60615364D01*
X54486145Y-60615364D01*
X54496270Y-60611169D01*
X54506770Y-60608002D01*
X54509693Y-60605610D01*
X54513182Y-60604165D01*
X54524547Y-60594838D01*
X54563560Y-60555825D01*
X54632076Y-60521567D01*
X54834761Y-60521567D01*
X54903277Y-60555825D01*
X54933684Y-60586232D01*
X54967942Y-60654748D01*
X54967942Y-60857433D01*
X54933683Y-60925949D01*
X54903276Y-60956357D01*
X54834761Y-60990615D01*
X54632076Y-60990615D01*
X54563560Y-60956357D01*
X54524548Y-60917344D01*
X54513182Y-60908016D01*
X54486146Y-60896817D01*
X54456883Y-60896817D01*
X54429847Y-60908015D01*
X54409154Y-60928708D01*
X54397955Y-60955744D01*
X54397955Y-60985007D01*
X54409153Y-61012043D01*
X54418480Y-61023408D01*
X54466099Y-61071028D01*
X54471848Y-61075746D01*
X54473149Y-61077246D01*
X54475408Y-61078668D01*
X54477465Y-61080356D01*
X54479292Y-61081113D01*
X54485592Y-61085078D01*
X54580830Y-61132697D01*
X54594561Y-61137952D01*
X54597250Y-61138143D01*
X54599739Y-61139174D01*
X54614371Y-61140615D01*
X54852466Y-61140615D01*
X54867098Y-61139174D01*
X54869587Y-61138142D01*
X54872275Y-61137952D01*
X54886007Y-61132697D01*
X54981245Y-61085078D01*
X54987544Y-61081113D01*
X54989372Y-61080356D01*
X54991428Y-61078668D01*
X54993688Y-61077246D01*
X54994988Y-61075746D01*
X55000738Y-61071028D01*
X55048356Y-61023409D01*
X55053074Y-61017659D01*
X55054573Y-61016360D01*
X55055994Y-61014101D01*
X55057684Y-61012043D01*
X55058441Y-61010213D01*
X55062405Y-61003917D01*
X55110024Y-60908679D01*
X55115279Y-60894948D01*
X55115470Y-60892258D01*
X55116501Y-60889770D01*
X55117942Y-60875138D01*
X55117942Y-60637043D01*
X55116501Y-60622411D01*
X55115470Y-60619922D01*
X55115279Y-60617233D01*
X55110024Y-60603502D01*
X55062405Y-60508264D01*
X55058440Y-60501964D01*
X55057683Y-60500137D01*
X55055994Y-60498080D01*
X55054573Y-60495821D01*
X55053074Y-60494521D01*
X55048356Y-60488772D01*
X55000737Y-60441153D01*
X54994987Y-60436434D01*
X54993688Y-60434936D01*
X54991428Y-60433514D01*
X54989372Y-60431826D01*
X54987544Y-60431068D01*
X54981245Y-60427104D01*
X54886007Y-60379485D01*
X54872275Y-60374230D01*
X54869587Y-60374039D01*
X54867098Y-60373008D01*
X54852466Y-60371567D01*
X54614371Y-60371567D01*
X54599739Y-60373008D01*
X54597250Y-60374038D01*
X54594561Y-60374230D01*
X54580830Y-60379485D01*
X54562188Y-60388805D01*
X54587007Y-60140615D01*
X54995323Y-60140615D01*
X55009955Y-60139174D01*
X55036991Y-60127975D01*
X55057683Y-60107283D01*
X55068882Y-60080247D01*
X55068882Y-60074995D01*
X55254246Y-60074995D01*
X55257506Y-60089332D01*
X55590839Y-61089332D01*
X55596833Y-61102757D01*
X55600343Y-61106804D01*
X55602740Y-61111598D01*
X55609848Y-61117763D01*
X55616007Y-61124864D01*
X55620796Y-61127258D01*
X55624847Y-61130772D01*
X55633772Y-61133746D01*
X55642180Y-61137951D01*
X55647524Y-61138330D01*
X55652610Y-61140026D01*
X55661990Y-61139359D01*
X55671370Y-61140026D01*
X55676455Y-61138330D01*
X55681800Y-61137951D01*
X55690210Y-61133745D01*
X55699132Y-61130772D01*
X55703179Y-61127261D01*
X55707973Y-61124865D01*
X55714136Y-61117759D01*
X55721240Y-61111598D01*
X55723635Y-61106806D01*
X55727147Y-61102758D01*
X55733141Y-61089332D01*
X56066474Y-60089332D01*
X56069734Y-60074996D01*
X56067659Y-60045806D01*
X56054573Y-60019632D01*
X56032465Y-60000458D01*
X56004703Y-59991204D01*
X55975513Y-59993279D01*
X55949340Y-60006366D01*
X55930166Y-60028473D01*
X55924172Y-60041898D01*
X55661990Y-60828444D01*
X55399808Y-60041898D01*
X55393814Y-60028472D01*
X55374640Y-60006365D01*
X55348467Y-59993279D01*
X55319277Y-59991204D01*
X55291514Y-60000458D01*
X55269407Y-60019632D01*
X55256321Y-60045805D01*
X55254246Y-60074995D01*
X55068882Y-60074995D01*
X55068882Y-60050983D01*
X55057683Y-60023947D01*
X55036991Y-60003255D01*
X55009955Y-59992056D01*
X54995323Y-59990615D01*
X54519133Y-59990615D01*
X54513721Y-59991147D01*
X54511893Y-59990965D01*
X54510106Y-59991503D01*
X54504501Y-59992056D01*
X54494374Y-59996250D01*
X54483877Y-59999418D01*
X54480953Y-60001809D01*
X54477465Y-60003255D01*
X54469711Y-60011008D01*
X54461229Y-60017949D01*
X54459444Y-60021275D01*
X54456773Y-60023947D01*
X54452577Y-60034076D01*
X54447395Y-60043736D01*
X54446287Y-60049260D01*
X54445574Y-60050983D01*
X54445574Y-60052819D01*
X54444505Y-60058152D01*
X54396886Y-60534342D01*
X54396864Y-60549045D01*
X54239225Y-60549045D01*
X54239225Y-58441039D01*
X54350336Y-58441039D01*
X54350336Y-58470303D01*
X54361535Y-58497339D01*
X54382227Y-58518031D01*
X54409263Y-58529230D01*
X54423895Y-58530671D01*
X54877660Y-58530671D01*
X54653166Y-58787235D01*
X54648644Y-58793559D01*
X54647249Y-58794955D01*
X54646700Y-58796278D01*
X54644615Y-58799196D01*
X54640713Y-58810733D01*
X54636050Y-58821991D01*
X54636050Y-58824521D01*
X54635240Y-58826917D01*
X54636050Y-58839070D01*
X54636050Y-58851255D01*
X54637017Y-58853591D01*
X54637186Y-58856115D01*
X54642588Y-58867040D01*
X54647249Y-58878291D01*
X54649035Y-58880077D01*
X54650158Y-58882347D01*
X54659330Y-58890372D01*
X54667941Y-58898983D01*
X54670277Y-58899951D01*
X54672182Y-58901617D01*
X54683719Y-58905518D01*
X54694977Y-58910182D01*
X54698547Y-58910533D01*
X54699903Y-58910992D01*
X54701870Y-58910860D01*
X54709609Y-58911623D01*
X54834761Y-58911623D01*
X54903277Y-58945881D01*
X54933684Y-58976288D01*
X54967942Y-59044804D01*
X54967942Y-59247489D01*
X54933683Y-59316005D01*
X54903276Y-59346413D01*
X54834761Y-59380671D01*
X54584457Y-59380671D01*
X54515941Y-59346413D01*
X54476929Y-59307400D01*
X54465563Y-59298072D01*
X54438527Y-59286873D01*
X54409264Y-59286873D01*
X54382228Y-59298071D01*
X54361535Y-59318764D01*
X54350336Y-59345800D01*
X54350336Y-59375063D01*
X54361534Y-59402099D01*
X54370861Y-59413464D01*
X54418480Y-59461084D01*
X54424229Y-59465802D01*
X54425530Y-59467302D01*
X54427789Y-59468724D01*
X54429846Y-59470412D01*
X54431673Y-59471169D01*
X54437973Y-59475134D01*
X54533211Y-59522753D01*
X54546942Y-59528008D01*
X54549631Y-59528199D01*
X54552120Y-59529230D01*
X54566752Y-59530671D01*
X54852466Y-59530671D01*
X54867098Y-59529230D01*
X54869587Y-59528198D01*
X54872275Y-59528008D01*
X54886007Y-59522753D01*
X54981245Y-59475134D01*
X54987544Y-59471169D01*
X54989372Y-59470412D01*
X54991428Y-59468724D01*
X54993688Y-59467302D01*
X54994988Y-59465802D01*
X55000738Y-59461084D01*
X55048356Y-59413465D01*
X55053074Y-59407715D01*
X55054573Y-59406416D01*
X55055994Y-59404157D01*
X55057684Y-59402099D01*
X55058441Y-59400269D01*
X55062405Y-59393973D01*
X55110024Y-59298735D01*
X55115279Y-59285004D01*
X55115470Y-59282314D01*
X55116501Y-59279826D01*
X55117942Y-59265194D01*
X55117942Y-59027099D01*
X55116501Y-59012467D01*
X55115470Y-59009978D01*
X55115279Y-59007289D01*
X55110024Y-58993558D01*
X55062405Y-58898320D01*
X55058440Y-58892020D01*
X55057683Y-58890193D01*
X55055994Y-58888136D01*
X55054573Y-58885877D01*
X55053074Y-58884577D01*
X55048356Y-58878828D01*
X55000737Y-58831209D01*
X54994987Y-58826490D01*
X54993688Y-58824992D01*
X54991428Y-58823570D01*
X54989372Y-58821882D01*
X54987544Y-58821124D01*
X54981245Y-58817160D01*
X54886007Y-58769541D01*
X54872489Y-58764368D01*
X55099385Y-58505059D01*
X55103906Y-58498734D01*
X55105302Y-58497339D01*
X55105850Y-58496015D01*
X55107936Y-58493098D01*
X55111837Y-58481560D01*
X55116501Y-58470303D01*
X55116501Y-58467772D01*
X55117311Y-58465377D01*
X55117289Y-58465051D01*
X55254246Y-58465051D01*
X55257506Y-58479388D01*
X55590839Y-59479388D01*
X55596833Y-59492813D01*
X55600343Y-59496860D01*
X55602740Y-59501654D01*
X55609848Y-59507819D01*
X55616007Y-59514920D01*
X55620796Y-59517314D01*
X55624847Y-59520828D01*
X55633772Y-59523802D01*
X55642180Y-59528007D01*
X55647524Y-59528386D01*
X55652610Y-59530082D01*
X55661990Y-59529415D01*
X55671370Y-59530082D01*
X55676455Y-59528386D01*
X55681800Y-59528007D01*
X55690210Y-59523801D01*
X55699132Y-59520828D01*
X55703179Y-59517317D01*
X55707973Y-59514921D01*
X55714136Y-59507815D01*
X55721240Y-59501654D01*
X55723635Y-59496862D01*
X55727147Y-59492814D01*
X55733141Y-59479388D01*
X56066474Y-58479388D01*
X56069734Y-58465052D01*
X56068027Y-58441039D01*
X56159860Y-58441039D01*
X56159860Y-58470303D01*
X56171059Y-58497339D01*
X56191751Y-58518031D01*
X56218787Y-58529230D01*
X56233419Y-58530671D01*
X56687184Y-58530671D01*
X56462690Y-58787235D01*
X56458168Y-58793559D01*
X56456773Y-58794955D01*
X56456224Y-58796278D01*
X56454139Y-58799196D01*
X56450237Y-58810733D01*
X56445574Y-58821991D01*
X56445574Y-58824521D01*
X56444764Y-58826917D01*
X56445574Y-58839070D01*
X56445574Y-58851255D01*
X56446541Y-58853591D01*
X56446710Y-58856115D01*
X56452112Y-58867040D01*
X56456773Y-58878291D01*
X56458559Y-58880077D01*
X56459682Y-58882347D01*
X56468854Y-58890372D01*
X56477465Y-58898983D01*
X56479801Y-58899951D01*
X56481706Y-58901617D01*
X56493243Y-58905518D01*
X56504501Y-58910182D01*
X56508071Y-58910533D01*
X56509427Y-58910992D01*
X56511394Y-58910860D01*
X56519133Y-58911623D01*
X56644285Y-58911623D01*
X56712801Y-58945881D01*
X56743208Y-58976288D01*
X56777466Y-59044804D01*
X56777466Y-59247489D01*
X56743207Y-59316005D01*
X56712800Y-59346413D01*
X56644285Y-59380671D01*
X56393981Y-59380671D01*
X56325465Y-59346413D01*
X56286453Y-59307400D01*
X56275087Y-59298072D01*
X56248051Y-59286873D01*
X56218788Y-59286873D01*
X56191752Y-59298071D01*
X56171059Y-59318764D01*
X56159860Y-59345800D01*
X56159860Y-59375063D01*
X56171058Y-59402099D01*
X56180385Y-59413464D01*
X56228004Y-59461084D01*
X56233753Y-59465802D01*
X56235054Y-59467302D01*
X56237313Y-59468724D01*
X56239370Y-59470412D01*
X56241197Y-59471169D01*
X56247497Y-59475134D01*
X56342735Y-59522753D01*
X56356466Y-59528008D01*
X56359155Y-59528199D01*
X56361644Y-59529230D01*
X56376276Y-59530671D01*
X56661990Y-59530671D01*
X56676622Y-59529230D01*
X56679111Y-59528198D01*
X56681799Y-59528008D01*
X56695531Y-59522753D01*
X56790769Y-59475134D01*
X56797068Y-59471169D01*
X56798896Y-59470412D01*
X56800952Y-59468724D01*
X56803212Y-59467302D01*
X56804512Y-59465802D01*
X56810262Y-59461084D01*
X56857880Y-59413465D01*
X56862598Y-59407715D01*
X56864097Y-59406416D01*
X56865518Y-59404157D01*
X56867208Y-59402099D01*
X56867965Y-59400269D01*
X56871929Y-59393973D01*
X56919548Y-59298735D01*
X56924803Y-59285004D01*
X56924994Y-59282314D01*
X56926025Y-59279826D01*
X56927466Y-59265194D01*
X56927466Y-59027099D01*
X56926025Y-59012467D01*
X56924994Y-59009978D01*
X56924803Y-59007289D01*
X56919548Y-58993558D01*
X56871929Y-58898320D01*
X56867964Y-58892020D01*
X56867207Y-58890193D01*
X56865518Y-58888136D01*
X56864097Y-58885877D01*
X56862598Y-58884577D01*
X56857880Y-58878828D01*
X56810261Y-58831209D01*
X56804511Y-58826490D01*
X56803212Y-58824992D01*
X56800952Y-58823570D01*
X56798896Y-58821882D01*
X56797068Y-58821124D01*
X56790769Y-58817160D01*
X56695531Y-58769541D01*
X56682013Y-58764368D01*
X56908909Y-58505059D01*
X56913430Y-58498734D01*
X56914826Y-58497339D01*
X56915374Y-58496015D01*
X56917460Y-58493098D01*
X56921361Y-58481560D01*
X56926025Y-58470303D01*
X56926025Y-58467772D01*
X56926835Y-58465377D01*
X56926025Y-58453223D01*
X56926025Y-58441039D01*
X56925057Y-58438702D01*
X56924889Y-58436179D01*
X56919486Y-58425253D01*
X56914826Y-58414003D01*
X56913039Y-58412216D01*
X56911917Y-58409947D01*
X56902744Y-58401921D01*
X56894134Y-58393311D01*
X56891797Y-58392342D01*
X56889893Y-58390677D01*
X56878355Y-58386775D01*
X56867098Y-58382112D01*
X56863527Y-58381760D01*
X56862172Y-58381302D01*
X56860204Y-58381433D01*
X56852466Y-58380671D01*
X56233419Y-58380671D01*
X56218787Y-58382112D01*
X56191751Y-58393311D01*
X56171059Y-58414003D01*
X56159860Y-58441039D01*
X56068027Y-58441039D01*
X56067659Y-58435862D01*
X56054573Y-58409688D01*
X56032465Y-58390514D01*
X56004703Y-58381260D01*
X55975513Y-58383335D01*
X55949340Y-58396422D01*
X55930166Y-58418529D01*
X55924172Y-58431954D01*
X55661990Y-59218500D01*
X55399808Y-58431954D01*
X55393814Y-58418528D01*
X55374640Y-58396421D01*
X55348467Y-58383335D01*
X55319277Y-58381260D01*
X55291514Y-58390514D01*
X55269407Y-58409688D01*
X55256321Y-58435861D01*
X55254246Y-58465051D01*
X55117289Y-58465051D01*
X55116501Y-58453223D01*
X55116501Y-58441039D01*
X55115533Y-58438702D01*
X55115365Y-58436179D01*
X55109962Y-58425253D01*
X55105302Y-58414003D01*
X55103515Y-58412216D01*
X55102393Y-58409947D01*
X55093220Y-58401921D01*
X55084610Y-58393311D01*
X55082273Y-58392342D01*
X55080369Y-58390677D01*
X55068831Y-58386775D01*
X55057574Y-58382112D01*
X55054003Y-58381760D01*
X55052648Y-58381302D01*
X55050680Y-58381433D01*
X55042942Y-58380671D01*
X54423895Y-58380671D01*
X54409263Y-58382112D01*
X54382227Y-58393311D01*
X54361535Y-58414003D01*
X54350336Y-58441039D01*
X54239225Y-58441039D01*
X54239225Y-58269560D01*
X57133226Y-58269560D01*
X57133226Y-62861670D01*
G37*
D11*
X50986997Y-75932309D02*
X50820331Y-75694214D01*
X50701283Y-75932309D02*
X50701283Y-75432309D01*
X50701283Y-75432309D02*
X50891759Y-75432309D01*
X50891759Y-75432309D02*
X50939378Y-75456119D01*
X50939378Y-75456119D02*
X50963188Y-75479928D01*
X50963188Y-75479928D02*
X50986997Y-75527547D01*
X50986997Y-75527547D02*
X50986997Y-75598976D01*
X50986997Y-75598976D02*
X50963188Y-75646595D01*
X50963188Y-75646595D02*
X50939378Y-75670404D01*
X50939378Y-75670404D02*
X50891759Y-75694214D01*
X50891759Y-75694214D02*
X50701283Y-75694214D01*
X51272712Y-75646595D02*
X51225093Y-75622785D01*
X51225093Y-75622785D02*
X51201283Y-75598976D01*
X51201283Y-75598976D02*
X51177474Y-75551357D01*
X51177474Y-75551357D02*
X51177474Y-75527547D01*
X51177474Y-75527547D02*
X51201283Y-75479928D01*
X51201283Y-75479928D02*
X51225093Y-75456119D01*
X51225093Y-75456119D02*
X51272712Y-75432309D01*
X51272712Y-75432309D02*
X51367950Y-75432309D01*
X51367950Y-75432309D02*
X51415569Y-75456119D01*
X51415569Y-75456119D02*
X51439378Y-75479928D01*
X51439378Y-75479928D02*
X51463188Y-75527547D01*
X51463188Y-75527547D02*
X51463188Y-75551357D01*
X51463188Y-75551357D02*
X51439378Y-75598976D01*
X51439378Y-75598976D02*
X51415569Y-75622785D01*
X51415569Y-75622785D02*
X51367950Y-75646595D01*
X51367950Y-75646595D02*
X51272712Y-75646595D01*
X51272712Y-75646595D02*
X51225093Y-75670404D01*
X51225093Y-75670404D02*
X51201283Y-75694214D01*
X51201283Y-75694214D02*
X51177474Y-75741833D01*
X51177474Y-75741833D02*
X51177474Y-75837071D01*
X51177474Y-75837071D02*
X51201283Y-75884690D01*
X51201283Y-75884690D02*
X51225093Y-75908500D01*
X51225093Y-75908500D02*
X51272712Y-75932309D01*
X51272712Y-75932309D02*
X51367950Y-75932309D01*
X51367950Y-75932309D02*
X51415569Y-75908500D01*
X51415569Y-75908500D02*
X51439378Y-75884690D01*
X51439378Y-75884690D02*
X51463188Y-75837071D01*
X51463188Y-75837071D02*
X51463188Y-75741833D01*
X51463188Y-75741833D02*
X51439378Y-75694214D01*
X51439378Y-75694214D02*
X51415569Y-75670404D01*
X51415569Y-75670404D02*
X51367950Y-75646595D01*
X51772711Y-75432309D02*
X51820330Y-75432309D01*
X51820330Y-75432309D02*
X51867949Y-75456119D01*
X51867949Y-75456119D02*
X51891759Y-75479928D01*
X51891759Y-75479928D02*
X51915568Y-75527547D01*
X51915568Y-75527547D02*
X51939378Y-75622785D01*
X51939378Y-75622785D02*
X51939378Y-75741833D01*
X51939378Y-75741833D02*
X51915568Y-75837071D01*
X51915568Y-75837071D02*
X51891759Y-75884690D01*
X51891759Y-75884690D02*
X51867949Y-75908500D01*
X51867949Y-75908500D02*
X51820330Y-75932309D01*
X51820330Y-75932309D02*
X51772711Y-75932309D01*
X51772711Y-75932309D02*
X51725092Y-75908500D01*
X51725092Y-75908500D02*
X51701283Y-75884690D01*
X51701283Y-75884690D02*
X51677473Y-75837071D01*
X51677473Y-75837071D02*
X51653664Y-75741833D01*
X51653664Y-75741833D02*
X51653664Y-75622785D01*
X51653664Y-75622785D02*
X51677473Y-75527547D01*
X51677473Y-75527547D02*
X51701283Y-75479928D01*
X51701283Y-75479928D02*
X51725092Y-75456119D01*
X51725092Y-75456119D02*
X51772711Y-75432309D01*
X52415568Y-75932309D02*
X52129854Y-75932309D01*
X52272711Y-75932309D02*
X52272711Y-75432309D01*
X52272711Y-75432309D02*
X52225092Y-75503738D01*
X52225092Y-75503738D02*
X52177473Y-75551357D01*
X52177473Y-75551357D02*
X52129854Y-75575166D01*
D10*
X98350414Y-76708458D02*
X98886128Y-76708458D01*
X98886128Y-76708458D02*
X98993271Y-76744173D01*
X98993271Y-76744173D02*
X99064700Y-76815601D01*
X99064700Y-76815601D02*
X99100414Y-76922744D01*
X99100414Y-76922744D02*
X99100414Y-76994173D01*
X98421842Y-76387029D02*
X98386128Y-76351315D01*
X98386128Y-76351315D02*
X98350414Y-76279887D01*
X98350414Y-76279887D02*
X98350414Y-76101315D01*
X98350414Y-76101315D02*
X98386128Y-76029887D01*
X98386128Y-76029887D02*
X98421842Y-75994172D01*
X98421842Y-75994172D02*
X98493271Y-75958458D01*
X98493271Y-75958458D02*
X98564700Y-75958458D01*
X98564700Y-75958458D02*
X98671842Y-75994172D01*
X98671842Y-75994172D02*
X99100414Y-76422744D01*
X99100414Y-76422744D02*
X99100414Y-75958458D01*
D11*
X78584690Y-67113002D02*
X78608500Y-67136811D01*
X78608500Y-67136811D02*
X78632309Y-67208240D01*
X78632309Y-67208240D02*
X78632309Y-67255859D01*
X78632309Y-67255859D02*
X78608500Y-67327287D01*
X78608500Y-67327287D02*
X78560880Y-67374906D01*
X78560880Y-67374906D02*
X78513261Y-67398716D01*
X78513261Y-67398716D02*
X78418023Y-67422525D01*
X78418023Y-67422525D02*
X78346595Y-67422525D01*
X78346595Y-67422525D02*
X78251357Y-67398716D01*
X78251357Y-67398716D02*
X78203738Y-67374906D01*
X78203738Y-67374906D02*
X78156119Y-67327287D01*
X78156119Y-67327287D02*
X78132309Y-67255859D01*
X78132309Y-67255859D02*
X78132309Y-67208240D01*
X78132309Y-67208240D02*
X78156119Y-67136811D01*
X78156119Y-67136811D02*
X78179928Y-67113002D01*
X78632309Y-66636811D02*
X78632309Y-66922525D01*
X78632309Y-66779668D02*
X78132309Y-66779668D01*
X78132309Y-66779668D02*
X78203738Y-66827287D01*
X78203738Y-66827287D02*
X78251357Y-66874906D01*
X78251357Y-66874906D02*
X78275166Y-66922525D01*
X78132309Y-66327288D02*
X78132309Y-66279669D01*
X78132309Y-66279669D02*
X78156119Y-66232050D01*
X78156119Y-66232050D02*
X78179928Y-66208240D01*
X78179928Y-66208240D02*
X78227547Y-66184431D01*
X78227547Y-66184431D02*
X78322785Y-66160621D01*
X78322785Y-66160621D02*
X78441833Y-66160621D01*
X78441833Y-66160621D02*
X78537071Y-66184431D01*
X78537071Y-66184431D02*
X78584690Y-66208240D01*
X78584690Y-66208240D02*
X78608500Y-66232050D01*
X78608500Y-66232050D02*
X78632309Y-66279669D01*
X78632309Y-66279669D02*
X78632309Y-66327288D01*
X78632309Y-66327288D02*
X78608500Y-66374907D01*
X78608500Y-66374907D02*
X78584690Y-66398716D01*
X78584690Y-66398716D02*
X78537071Y-66422526D01*
X78537071Y-66422526D02*
X78441833Y-66446335D01*
X78441833Y-66446335D02*
X78322785Y-66446335D01*
X78322785Y-66446335D02*
X78227547Y-66422526D01*
X78227547Y-66422526D02*
X78179928Y-66398716D01*
X78179928Y-66398716D02*
X78156119Y-66374907D01*
X78156119Y-66374907D02*
X78132309Y-66327288D01*
X78132309Y-65993955D02*
X78132309Y-65684431D01*
X78132309Y-65684431D02*
X78322785Y-65851098D01*
X78322785Y-65851098D02*
X78322785Y-65779669D01*
X78322785Y-65779669D02*
X78346595Y-65732050D01*
X78346595Y-65732050D02*
X78370404Y-65708241D01*
X78370404Y-65708241D02*
X78418023Y-65684431D01*
X78418023Y-65684431D02*
X78537071Y-65684431D01*
X78537071Y-65684431D02*
X78584690Y-65708241D01*
X78584690Y-65708241D02*
X78608500Y-65732050D01*
X78608500Y-65732050D02*
X78632309Y-65779669D01*
X78632309Y-65779669D02*
X78632309Y-65922526D01*
X78632309Y-65922526D02*
X78608500Y-65970145D01*
X78608500Y-65970145D02*
X78584690Y-65993955D01*
D10*
G36*
X48053166Y-66891127D02*
G01*
X48130153Y-66929621D01*
X48160561Y-66960028D01*
X48194819Y-67028544D01*
X48194819Y-67088372D01*
X48160561Y-67156887D01*
X48130153Y-67187294D01*
X48053166Y-67225788D01*
X47879632Y-67269172D01*
X47660005Y-67269172D01*
X47486471Y-67225788D01*
X47409484Y-67187295D01*
X47379077Y-67156888D01*
X47344819Y-67088372D01*
X47344819Y-67028544D01*
X47379077Y-66960028D01*
X47409484Y-66929621D01*
X47486471Y-66891127D01*
X47660005Y-66847744D01*
X47879632Y-66847744D01*
X48053166Y-66891127D01*
G37*
G36*
X48455930Y-71244569D02*
G01*
X47036678Y-71244569D01*
X47036678Y-70391871D01*
X47194819Y-70391871D01*
X47200558Y-70420565D01*
X47216841Y-70444880D01*
X47228217Y-70454196D01*
X47634610Y-70725125D01*
X47228217Y-70996054D01*
X47216841Y-71005370D01*
X47200558Y-71029685D01*
X47194819Y-71058379D01*
X47200498Y-71087087D01*
X47216731Y-71111436D01*
X47241046Y-71127719D01*
X47269740Y-71133458D01*
X47298448Y-71127779D01*
X47311421Y-71120862D01*
X47769818Y-70815263D01*
X48228216Y-71120862D01*
X48241190Y-71127779D01*
X48269898Y-71133458D01*
X48298592Y-71127719D01*
X48322907Y-71111436D01*
X48339140Y-71087087D01*
X48344819Y-71058379D01*
X48339080Y-71029685D01*
X48322797Y-71005370D01*
X48311421Y-70996054D01*
X47905027Y-70725125D01*
X48311421Y-70454196D01*
X48322797Y-70444880D01*
X48339080Y-70420565D01*
X48344819Y-70391871D01*
X48339140Y-70363163D01*
X48322907Y-70338814D01*
X48298592Y-70322531D01*
X48269898Y-70316792D01*
X48241190Y-70322471D01*
X48228216Y-70329388D01*
X47769818Y-70634986D01*
X47311421Y-70329388D01*
X47298448Y-70322471D01*
X47269740Y-70316792D01*
X47241046Y-70322531D01*
X47216731Y-70338814D01*
X47200498Y-70363163D01*
X47194819Y-70391871D01*
X47036678Y-70391871D01*
X47036678Y-69996207D01*
X47196260Y-69996207D01*
X47196260Y-70025471D01*
X47207459Y-70052507D01*
X47228151Y-70073199D01*
X47255187Y-70084398D01*
X47269819Y-70085839D01*
X48269819Y-70085839D01*
X48284451Y-70084398D01*
X48311487Y-70073199D01*
X48332179Y-70052507D01*
X48343378Y-70025471D01*
X48344819Y-70010839D01*
X48344819Y-69534649D01*
X48343378Y-69520017D01*
X48332179Y-69492981D01*
X48311487Y-69472289D01*
X48284451Y-69461090D01*
X48255187Y-69461090D01*
X48228151Y-69472289D01*
X48207459Y-69492981D01*
X48196260Y-69520017D01*
X48194819Y-69534649D01*
X48194819Y-69935839D01*
X47269819Y-69935839D01*
X47255187Y-69937280D01*
X47228151Y-69948479D01*
X47207459Y-69969171D01*
X47196260Y-69996207D01*
X47036678Y-69996207D01*
X47036678Y-69001459D01*
X47147789Y-69001459D01*
X47149864Y-69030649D01*
X47162950Y-69056822D01*
X47185057Y-69075996D01*
X47198483Y-69081990D01*
X47912767Y-69320085D01*
X47920022Y-69321734D01*
X47921853Y-69322493D01*
X47923357Y-69322493D01*
X47927104Y-69323345D01*
X47939089Y-69322493D01*
X47951117Y-69322493D01*
X47953608Y-69321460D01*
X47956294Y-69321270D01*
X47967041Y-69315896D01*
X47978153Y-69311294D01*
X47980058Y-69309388D01*
X47982468Y-69308184D01*
X47990342Y-69299104D01*
X47998845Y-69290602D01*
X47999876Y-69288111D01*
X48001642Y-69286076D01*
X48005442Y-69274675D01*
X48010044Y-69263566D01*
X48010420Y-69259739D01*
X48010896Y-69258314D01*
X48010755Y-69256339D01*
X48011485Y-69248934D01*
X48011485Y-68847744D01*
X48269819Y-68847744D01*
X48284451Y-68846303D01*
X48311487Y-68835104D01*
X48332179Y-68814412D01*
X48343378Y-68787376D01*
X48343378Y-68758112D01*
X48332179Y-68731076D01*
X48311487Y-68710384D01*
X48284451Y-68699185D01*
X48269819Y-68697744D01*
X48011485Y-68697744D01*
X48011485Y-68629887D01*
X48010044Y-68615255D01*
X47998845Y-68588219D01*
X47978153Y-68567527D01*
X47951117Y-68556328D01*
X47921853Y-68556328D01*
X47894817Y-68567527D01*
X47874125Y-68588219D01*
X47862926Y-68615255D01*
X47861485Y-68629887D01*
X47861485Y-68697744D01*
X47603152Y-68697744D01*
X47588520Y-68699185D01*
X47561484Y-68710384D01*
X47540792Y-68731076D01*
X47529593Y-68758112D01*
X47529593Y-68787376D01*
X47540792Y-68814412D01*
X47561484Y-68835104D01*
X47588520Y-68846303D01*
X47603152Y-68847744D01*
X47861485Y-68847744D01*
X47861485Y-69144877D01*
X47245917Y-68939688D01*
X47231580Y-68936428D01*
X47202390Y-68938503D01*
X47176217Y-68951589D01*
X47157043Y-68973696D01*
X47147789Y-69001459D01*
X47036678Y-69001459D01*
X47036678Y-67725125D01*
X47194819Y-67725125D01*
X47194819Y-68344172D01*
X47196260Y-68358804D01*
X47207459Y-68385840D01*
X47228151Y-68406532D01*
X47255187Y-68417731D01*
X47284451Y-68417731D01*
X47311487Y-68406532D01*
X47332179Y-68385840D01*
X47343378Y-68358804D01*
X47344819Y-68344172D01*
X47344819Y-67890407D01*
X47601383Y-68114901D01*
X47607707Y-68119422D01*
X47609103Y-68120818D01*
X47610426Y-68121366D01*
X47613344Y-68123452D01*
X47624881Y-68127353D01*
X47636139Y-68132017D01*
X47638670Y-68132017D01*
X47641065Y-68132827D01*
X47653218Y-68132017D01*
X47665403Y-68132017D01*
X47667739Y-68131049D01*
X47670263Y-68130881D01*
X47681188Y-68125478D01*
X47692439Y-68120818D01*
X47694225Y-68119031D01*
X47696495Y-68117909D01*
X47704520Y-68108736D01*
X47713131Y-68100126D01*
X47714099Y-68097789D01*
X47715765Y-68095885D01*
X47719666Y-68084347D01*
X47724330Y-68073090D01*
X47724681Y-68069519D01*
X47725140Y-68068164D01*
X47725008Y-68066196D01*
X47725771Y-68058458D01*
X47725771Y-67933306D01*
X47760029Y-67864790D01*
X47790436Y-67834383D01*
X47858952Y-67800125D01*
X48061637Y-67800125D01*
X48130153Y-67834383D01*
X48160561Y-67864790D01*
X48194819Y-67933306D01*
X48194819Y-68183610D01*
X48160561Y-68252125D01*
X48121548Y-68291138D01*
X48112220Y-68302504D01*
X48101021Y-68329540D01*
X48101021Y-68358803D01*
X48112219Y-68385839D01*
X48132912Y-68406532D01*
X48159948Y-68417731D01*
X48189211Y-68417731D01*
X48216247Y-68406533D01*
X48227612Y-68397206D01*
X48275232Y-68349587D01*
X48279950Y-68343837D01*
X48281450Y-68342537D01*
X48282872Y-68340277D01*
X48284560Y-68338221D01*
X48285317Y-68336393D01*
X48289282Y-68330094D01*
X48336901Y-68234856D01*
X48342156Y-68221125D01*
X48342347Y-68218435D01*
X48343378Y-68215947D01*
X48344819Y-68201315D01*
X48344819Y-67915601D01*
X48343378Y-67900969D01*
X48342347Y-67898480D01*
X48342156Y-67895791D01*
X48336901Y-67882060D01*
X48289282Y-67786822D01*
X48285317Y-67780522D01*
X48284560Y-67778695D01*
X48282872Y-67776638D01*
X48281450Y-67774379D01*
X48279950Y-67773078D01*
X48275232Y-67767329D01*
X48227612Y-67719710D01*
X48221863Y-67714992D01*
X48220564Y-67713494D01*
X48218305Y-67712072D01*
X48216247Y-67710383D01*
X48214417Y-67709625D01*
X48208121Y-67705662D01*
X48112883Y-67658043D01*
X48099151Y-67652788D01*
X48096463Y-67652597D01*
X48093974Y-67651566D01*
X48079342Y-67650125D01*
X47841247Y-67650125D01*
X47826615Y-67651566D01*
X47824126Y-67652596D01*
X47821437Y-67652788D01*
X47807706Y-67658043D01*
X47712468Y-67705662D01*
X47706168Y-67709626D01*
X47704341Y-67710384D01*
X47702284Y-67712072D01*
X47700025Y-67713494D01*
X47698725Y-67714992D01*
X47692976Y-67719711D01*
X47645357Y-67767330D01*
X47640638Y-67773079D01*
X47639140Y-67774379D01*
X47637718Y-67776638D01*
X47636030Y-67778695D01*
X47635272Y-67780522D01*
X47631308Y-67786822D01*
X47583689Y-67882060D01*
X47578516Y-67895577D01*
X47319207Y-67668682D01*
X47312882Y-67664160D01*
X47311487Y-67662765D01*
X47310163Y-67662216D01*
X47307246Y-67660131D01*
X47295708Y-67656229D01*
X47284451Y-67651566D01*
X47281920Y-67651566D01*
X47279525Y-67650756D01*
X47267372Y-67651566D01*
X47255187Y-67651566D01*
X47252850Y-67652533D01*
X47250327Y-67652702D01*
X47239401Y-67658104D01*
X47228151Y-67662765D01*
X47226364Y-67664551D01*
X47224095Y-67665674D01*
X47216069Y-67674846D01*
X47207459Y-67683457D01*
X47206490Y-67685793D01*
X47204825Y-67687698D01*
X47200923Y-67699235D01*
X47196260Y-67710493D01*
X47195908Y-67714063D01*
X47195450Y-67715419D01*
X47195581Y-67717386D01*
X47194819Y-67725125D01*
X47036678Y-67725125D01*
X47036678Y-67010839D01*
X47194819Y-67010839D01*
X47194819Y-67106077D01*
X47196260Y-67120709D01*
X47197291Y-67123198D01*
X47197482Y-67125886D01*
X47202737Y-67139618D01*
X47250356Y-67234856D01*
X47254320Y-67241155D01*
X47255078Y-67242983D01*
X47256766Y-67245039D01*
X47258188Y-67247299D01*
X47259686Y-67248598D01*
X47264405Y-67254348D01*
X47312024Y-67301967D01*
X47317773Y-67306685D01*
X47319073Y-67308184D01*
X47321332Y-67309605D01*
X47323389Y-67311294D01*
X47325216Y-67312051D01*
X47331516Y-67316016D01*
X47426754Y-67363635D01*
X47427823Y-67364044D01*
X47428259Y-67364367D01*
X47434395Y-67366559D01*
X47440485Y-67368890D01*
X47441025Y-67368928D01*
X47442105Y-67369314D01*
X47632581Y-67416933D01*
X47635117Y-67417308D01*
X47636139Y-67417731D01*
X47641651Y-67418273D01*
X47647125Y-67419083D01*
X47648217Y-67418920D01*
X47650771Y-67419172D01*
X47888866Y-67419172D01*
X47891419Y-67418920D01*
X47892512Y-67419083D01*
X47897985Y-67418273D01*
X47903498Y-67417731D01*
X47904519Y-67417308D01*
X47907056Y-67416933D01*
X48097532Y-67369314D01*
X48098611Y-67368928D01*
X48099151Y-67368890D01*
X48105232Y-67366562D01*
X48111378Y-67364367D01*
X48111813Y-67364044D01*
X48112883Y-67363635D01*
X48208121Y-67316016D01*
X48214417Y-67312052D01*
X48216247Y-67311295D01*
X48218305Y-67309605D01*
X48220564Y-67308184D01*
X48221863Y-67306685D01*
X48227612Y-67301968D01*
X48275232Y-67254349D01*
X48279950Y-67248599D01*
X48281450Y-67247299D01*
X48282872Y-67245039D01*
X48284560Y-67242983D01*
X48285317Y-67241155D01*
X48289282Y-67234856D01*
X48336901Y-67139618D01*
X48342156Y-67125887D01*
X48342347Y-67123197D01*
X48343378Y-67120709D01*
X48344819Y-67106077D01*
X48344819Y-67010839D01*
X48343378Y-66996207D01*
X48342347Y-66993718D01*
X48342156Y-66991029D01*
X48336901Y-66977298D01*
X48289282Y-66882060D01*
X48285317Y-66875760D01*
X48284560Y-66873933D01*
X48282872Y-66871876D01*
X48281450Y-66869617D01*
X48279950Y-66868316D01*
X48275232Y-66862567D01*
X48227612Y-66814948D01*
X48221863Y-66810230D01*
X48220564Y-66808732D01*
X48218305Y-66807310D01*
X48216247Y-66805621D01*
X48214417Y-66804863D01*
X48208121Y-66800900D01*
X48112883Y-66753281D01*
X48111813Y-66752871D01*
X48111378Y-66752549D01*
X48105232Y-66750353D01*
X48099151Y-66748026D01*
X48098611Y-66747987D01*
X48097532Y-66747602D01*
X47907056Y-66699983D01*
X47904519Y-66699607D01*
X47903498Y-66699185D01*
X47897985Y-66698642D01*
X47892512Y-66697833D01*
X47891419Y-66697995D01*
X47888866Y-66697744D01*
X47650771Y-66697744D01*
X47648217Y-66697995D01*
X47647125Y-66697833D01*
X47641651Y-66698642D01*
X47636139Y-66699185D01*
X47635117Y-66699607D01*
X47632581Y-66699983D01*
X47442105Y-66747602D01*
X47441025Y-66747987D01*
X47440485Y-66748026D01*
X47434395Y-66750356D01*
X47428259Y-66752549D01*
X47427823Y-66752871D01*
X47426754Y-66753281D01*
X47331516Y-66800900D01*
X47325216Y-66804864D01*
X47323389Y-66805622D01*
X47321332Y-66807310D01*
X47319073Y-66808732D01*
X47317773Y-66810230D01*
X47312024Y-66814949D01*
X47264405Y-66862568D01*
X47259686Y-66868317D01*
X47258188Y-66869617D01*
X47256766Y-66871876D01*
X47255078Y-66873933D01*
X47254320Y-66875760D01*
X47250356Y-66882060D01*
X47202737Y-66977298D01*
X47197482Y-66991030D01*
X47197291Y-66993717D01*
X47196260Y-66996207D01*
X47194819Y-67010839D01*
X47036678Y-67010839D01*
X47036678Y-66586633D01*
X48455930Y-66586633D01*
X48455930Y-71244569D01*
G37*
D11*
X81886997Y-58927337D02*
X81720331Y-58689242D01*
X81601283Y-58927337D02*
X81601283Y-58427337D01*
X81601283Y-58427337D02*
X81791759Y-58427337D01*
X81791759Y-58427337D02*
X81839378Y-58451147D01*
X81839378Y-58451147D02*
X81863188Y-58474956D01*
X81863188Y-58474956D02*
X81886997Y-58522575D01*
X81886997Y-58522575D02*
X81886997Y-58594004D01*
X81886997Y-58594004D02*
X81863188Y-58641623D01*
X81863188Y-58641623D02*
X81839378Y-58665432D01*
X81839378Y-58665432D02*
X81791759Y-58689242D01*
X81791759Y-58689242D02*
X81601283Y-58689242D01*
X82363188Y-58927337D02*
X82077474Y-58927337D01*
X82220331Y-58927337D02*
X82220331Y-58427337D01*
X82220331Y-58427337D02*
X82172712Y-58498766D01*
X82172712Y-58498766D02*
X82125093Y-58546385D01*
X82125093Y-58546385D02*
X82077474Y-58570194D01*
X82672711Y-58427337D02*
X82720330Y-58427337D01*
X82720330Y-58427337D02*
X82767949Y-58451147D01*
X82767949Y-58451147D02*
X82791759Y-58474956D01*
X82791759Y-58474956D02*
X82815568Y-58522575D01*
X82815568Y-58522575D02*
X82839378Y-58617813D01*
X82839378Y-58617813D02*
X82839378Y-58736861D01*
X82839378Y-58736861D02*
X82815568Y-58832099D01*
X82815568Y-58832099D02*
X82791759Y-58879718D01*
X82791759Y-58879718D02*
X82767949Y-58903528D01*
X82767949Y-58903528D02*
X82720330Y-58927337D01*
X82720330Y-58927337D02*
X82672711Y-58927337D01*
X82672711Y-58927337D02*
X82625092Y-58903528D01*
X82625092Y-58903528D02*
X82601283Y-58879718D01*
X82601283Y-58879718D02*
X82577473Y-58832099D01*
X82577473Y-58832099D02*
X82553664Y-58736861D01*
X82553664Y-58736861D02*
X82553664Y-58617813D01*
X82553664Y-58617813D02*
X82577473Y-58522575D01*
X82577473Y-58522575D02*
X82601283Y-58474956D01*
X82601283Y-58474956D02*
X82625092Y-58451147D01*
X82625092Y-58451147D02*
X82672711Y-58427337D01*
X83267949Y-58594004D02*
X83267949Y-58927337D01*
X83148901Y-58403528D02*
X83029854Y-58760670D01*
X83029854Y-58760670D02*
X83339377Y-58760670D01*
D10*
G36*
X45191503Y-88082990D02*
G01*
X45265616Y-88157103D01*
X45304109Y-88234090D01*
X45347493Y-88407624D01*
X45347493Y-88532013D01*
X45304109Y-88705547D01*
X45265615Y-88782534D01*
X45191503Y-88856647D01*
X45076990Y-88894819D01*
X44926065Y-88894819D01*
X44926065Y-88044819D01*
X45076990Y-88044819D01*
X45191503Y-88082990D01*
G37*
G36*
X45608604Y-89155930D02*
G01*
X42950668Y-89155930D01*
X42950668Y-87969819D01*
X43061779Y-87969819D01*
X43061779Y-88969819D01*
X43063220Y-88984451D01*
X43074419Y-89011487D01*
X43095111Y-89032179D01*
X43122147Y-89043378D01*
X43136779Y-89044819D01*
X43612969Y-89044819D01*
X43627601Y-89043378D01*
X43654637Y-89032179D01*
X43675329Y-89011487D01*
X43686528Y-88984451D01*
X43686528Y-88955187D01*
X43675329Y-88928151D01*
X43654637Y-88907459D01*
X43627601Y-88896260D01*
X43612969Y-88894819D01*
X43211779Y-88894819D01*
X43211779Y-87969819D01*
X43871303Y-87969819D01*
X43871303Y-88969819D01*
X43872744Y-88984451D01*
X43883943Y-89011487D01*
X43904635Y-89032179D01*
X43931671Y-89043378D01*
X43946303Y-89044819D01*
X44422493Y-89044819D01*
X44437125Y-89043378D01*
X44464161Y-89032179D01*
X44484853Y-89011487D01*
X44496052Y-88984451D01*
X44496052Y-88955187D01*
X44484853Y-88928151D01*
X44464161Y-88907459D01*
X44437125Y-88896260D01*
X44422493Y-88894819D01*
X44021303Y-88894819D01*
X44021303Y-88521009D01*
X44279636Y-88521009D01*
X44294268Y-88519568D01*
X44321304Y-88508369D01*
X44341996Y-88487677D01*
X44353195Y-88460641D01*
X44353195Y-88431377D01*
X44341996Y-88404341D01*
X44321304Y-88383649D01*
X44294268Y-88372450D01*
X44279636Y-88371009D01*
X44021303Y-88371009D01*
X44021303Y-88044819D01*
X44422493Y-88044819D01*
X44437125Y-88043378D01*
X44464161Y-88032179D01*
X44484853Y-88011487D01*
X44496052Y-87984451D01*
X44496052Y-87969819D01*
X44776065Y-87969819D01*
X44776065Y-88969819D01*
X44777506Y-88984451D01*
X44788705Y-89011487D01*
X44809397Y-89032179D01*
X44836433Y-89043378D01*
X44851065Y-89044819D01*
X45089160Y-89044819D01*
X45096565Y-89044089D01*
X45098540Y-89044230D01*
X45101137Y-89043639D01*
X45103792Y-89043378D01*
X45105623Y-89042619D01*
X45112877Y-89040970D01*
X45255734Y-88993351D01*
X45269159Y-88987357D01*
X45271194Y-88985591D01*
X45273685Y-88984560D01*
X45285050Y-88975233D01*
X45380289Y-88879993D01*
X45385006Y-88874244D01*
X45386505Y-88872945D01*
X45387926Y-88870686D01*
X45389616Y-88868628D01*
X45390373Y-88866798D01*
X45394337Y-88860502D01*
X45441956Y-88765264D01*
X45442365Y-88764194D01*
X45442688Y-88763759D01*
X45444880Y-88757622D01*
X45447211Y-88751533D01*
X45447249Y-88750992D01*
X45447635Y-88749913D01*
X45495254Y-88559437D01*
X45495629Y-88556900D01*
X45496052Y-88555879D01*
X45496594Y-88550366D01*
X45497404Y-88544893D01*
X45497241Y-88543800D01*
X45497493Y-88541247D01*
X45497493Y-88398390D01*
X45497241Y-88395836D01*
X45497404Y-88394744D01*
X45496594Y-88389270D01*
X45496052Y-88383758D01*
X45495629Y-88382736D01*
X45495254Y-88380200D01*
X45447635Y-88189724D01*
X45447249Y-88188644D01*
X45447211Y-88188104D01*
X45444880Y-88182014D01*
X45442688Y-88175878D01*
X45442365Y-88175442D01*
X45441956Y-88174373D01*
X45394337Y-88079135D01*
X45390374Y-88072840D01*
X45389616Y-88071008D01*
X45387924Y-88068946D01*
X45386505Y-88066692D01*
X45385008Y-88065393D01*
X45380288Y-88059643D01*
X45285050Y-87964405D01*
X45273685Y-87955078D01*
X45271194Y-87954046D01*
X45269159Y-87952281D01*
X45255734Y-87946287D01*
X45112877Y-87898668D01*
X45105623Y-87897018D01*
X45103792Y-87896260D01*
X45101137Y-87895998D01*
X45098540Y-87895408D01*
X45096565Y-87895548D01*
X45089160Y-87894819D01*
X44851065Y-87894819D01*
X44836433Y-87896260D01*
X44809397Y-87907459D01*
X44788705Y-87928151D01*
X44777506Y-87955187D01*
X44776065Y-87969819D01*
X44496052Y-87969819D01*
X44496052Y-87955187D01*
X44484853Y-87928151D01*
X44464161Y-87907459D01*
X44437125Y-87896260D01*
X44422493Y-87894819D01*
X43946303Y-87894819D01*
X43931671Y-87896260D01*
X43904635Y-87907459D01*
X43883943Y-87928151D01*
X43872744Y-87955187D01*
X43871303Y-87969819D01*
X43211779Y-87969819D01*
X43210338Y-87955187D01*
X43199139Y-87928151D01*
X43178447Y-87907459D01*
X43151411Y-87896260D01*
X43122147Y-87896260D01*
X43095111Y-87907459D01*
X43074419Y-87928151D01*
X43063220Y-87955187D01*
X43061779Y-87969819D01*
X42950668Y-87969819D01*
X42950668Y-87783708D01*
X45608604Y-87783708D01*
X45608604Y-89155930D01*
G37*
X47964700Y-83658458D02*
X48000414Y-83551316D01*
X48000414Y-83551316D02*
X48000414Y-83372744D01*
X48000414Y-83372744D02*
X47964700Y-83301316D01*
X47964700Y-83301316D02*
X47928985Y-83265601D01*
X47928985Y-83265601D02*
X47857557Y-83229887D01*
X47857557Y-83229887D02*
X47786128Y-83229887D01*
X47786128Y-83229887D02*
X47714700Y-83265601D01*
X47714700Y-83265601D02*
X47678985Y-83301316D01*
X47678985Y-83301316D02*
X47643271Y-83372744D01*
X47643271Y-83372744D02*
X47607557Y-83515601D01*
X47607557Y-83515601D02*
X47571842Y-83587030D01*
X47571842Y-83587030D02*
X47536128Y-83622744D01*
X47536128Y-83622744D02*
X47464700Y-83658458D01*
X47464700Y-83658458D02*
X47393271Y-83658458D01*
X47393271Y-83658458D02*
X47321842Y-83622744D01*
X47321842Y-83622744D02*
X47286128Y-83587030D01*
X47286128Y-83587030D02*
X47250414Y-83515601D01*
X47250414Y-83515601D02*
X47250414Y-83337030D01*
X47250414Y-83337030D02*
X47286128Y-83229887D01*
X47250414Y-82979887D02*
X48000414Y-82801315D01*
X48000414Y-82801315D02*
X47464700Y-82658458D01*
X47464700Y-82658458D02*
X48000414Y-82515601D01*
X48000414Y-82515601D02*
X47250414Y-82337030D01*
X47571842Y-81944172D02*
X47536128Y-82015601D01*
X47536128Y-82015601D02*
X47500414Y-82051315D01*
X47500414Y-82051315D02*
X47428985Y-82087029D01*
X47428985Y-82087029D02*
X47393271Y-82087029D01*
X47393271Y-82087029D02*
X47321842Y-82051315D01*
X47321842Y-82051315D02*
X47286128Y-82015601D01*
X47286128Y-82015601D02*
X47250414Y-81944172D01*
X47250414Y-81944172D02*
X47250414Y-81801315D01*
X47250414Y-81801315D02*
X47286128Y-81729887D01*
X47286128Y-81729887D02*
X47321842Y-81694172D01*
X47321842Y-81694172D02*
X47393271Y-81658458D01*
X47393271Y-81658458D02*
X47428985Y-81658458D01*
X47428985Y-81658458D02*
X47500414Y-81694172D01*
X47500414Y-81694172D02*
X47536128Y-81729887D01*
X47536128Y-81729887D02*
X47571842Y-81801315D01*
X47571842Y-81801315D02*
X47571842Y-81944172D01*
X47571842Y-81944172D02*
X47607557Y-82015601D01*
X47607557Y-82015601D02*
X47643271Y-82051315D01*
X47643271Y-82051315D02*
X47714700Y-82087029D01*
X47714700Y-82087029D02*
X47857557Y-82087029D01*
X47857557Y-82087029D02*
X47928985Y-82051315D01*
X47928985Y-82051315D02*
X47964700Y-82015601D01*
X47964700Y-82015601D02*
X48000414Y-81944172D01*
X48000414Y-81944172D02*
X48000414Y-81801315D01*
X48000414Y-81801315D02*
X47964700Y-81729887D01*
X47964700Y-81729887D02*
X47928985Y-81694172D01*
X47928985Y-81694172D02*
X47857557Y-81658458D01*
X47857557Y-81658458D02*
X47714700Y-81658458D01*
X47714700Y-81658458D02*
X47643271Y-81694172D01*
X47643271Y-81694172D02*
X47607557Y-81729887D01*
X47607557Y-81729887D02*
X47571842Y-81801315D01*
X47250414Y-81194172D02*
X47250414Y-81122743D01*
X47250414Y-81122743D02*
X47286128Y-81051315D01*
X47286128Y-81051315D02*
X47321842Y-81015601D01*
X47321842Y-81015601D02*
X47393271Y-80979886D01*
X47393271Y-80979886D02*
X47536128Y-80944172D01*
X47536128Y-80944172D02*
X47714700Y-80944172D01*
X47714700Y-80944172D02*
X47857557Y-80979886D01*
X47857557Y-80979886D02*
X47928985Y-81015601D01*
X47928985Y-81015601D02*
X47964700Y-81051315D01*
X47964700Y-81051315D02*
X48000414Y-81122743D01*
X48000414Y-81122743D02*
X48000414Y-81194172D01*
X48000414Y-81194172D02*
X47964700Y-81265601D01*
X47964700Y-81265601D02*
X47928985Y-81301315D01*
X47928985Y-81301315D02*
X47857557Y-81337029D01*
X47857557Y-81337029D02*
X47714700Y-81372743D01*
X47714700Y-81372743D02*
X47536128Y-81372743D01*
X47536128Y-81372743D02*
X47393271Y-81337029D01*
X47393271Y-81337029D02*
X47321842Y-81301315D01*
X47321842Y-81301315D02*
X47286128Y-81265601D01*
X47286128Y-81265601D02*
X47250414Y-81194172D01*
X48000414Y-80229886D02*
X48000414Y-80658457D01*
X48000414Y-80444172D02*
X47250414Y-80444172D01*
X47250414Y-80444172D02*
X47357557Y-80515600D01*
X47357557Y-80515600D02*
X47428985Y-80587029D01*
X47428985Y-80587029D02*
X47464700Y-80658457D01*
G36*
X50672455Y-88059180D02*
G01*
X50698949Y-88085674D01*
X50733207Y-88154190D01*
X50733207Y-88261637D01*
X50698948Y-88330153D01*
X50668541Y-88360561D01*
X50600026Y-88394819D01*
X50311779Y-88394819D01*
X50311779Y-88021009D01*
X50557942Y-88021009D01*
X50672455Y-88059180D01*
G37*
G36*
X50620923Y-87579077D02*
G01*
X50651330Y-87609484D01*
X50685588Y-87678000D01*
X50685588Y-87737828D01*
X50651330Y-87806344D01*
X50620923Y-87836751D01*
X50552407Y-87871009D01*
X50311779Y-87871009D01*
X50311779Y-87544819D01*
X50552407Y-87544819D01*
X50620923Y-87579077D01*
G37*
G36*
X52756223Y-88655930D02*
G01*
X50050668Y-88655930D01*
X50050668Y-87469819D01*
X50161779Y-87469819D01*
X50161779Y-88469819D01*
X50163220Y-88484451D01*
X50174419Y-88511487D01*
X50195111Y-88532179D01*
X50222147Y-88543378D01*
X50236779Y-88544819D01*
X50617731Y-88544819D01*
X50632363Y-88543378D01*
X50634852Y-88542346D01*
X50637540Y-88542156D01*
X50651272Y-88536901D01*
X50746510Y-88489282D01*
X50752809Y-88485317D01*
X50754637Y-88484560D01*
X50756693Y-88482872D01*
X50758953Y-88481450D01*
X50760253Y-88479950D01*
X50766003Y-88475232D01*
X50813621Y-88427613D01*
X50818339Y-88421863D01*
X50819838Y-88420564D01*
X50821259Y-88418305D01*
X50822949Y-88416247D01*
X50823706Y-88414417D01*
X50827670Y-88408121D01*
X50875289Y-88312883D01*
X50880544Y-88299152D01*
X50880735Y-88296462D01*
X50881766Y-88293974D01*
X50883207Y-88279342D01*
X50883207Y-88136485D01*
X50881766Y-88121853D01*
X50880735Y-88119364D01*
X50880544Y-88116675D01*
X50875289Y-88102944D01*
X50827670Y-88007706D01*
X50823705Y-88001406D01*
X50822948Y-87999579D01*
X50821259Y-87997522D01*
X50819838Y-87995263D01*
X50818339Y-87993963D01*
X50813621Y-87988214D01*
X50766002Y-87940595D01*
X50754637Y-87931268D01*
X50752146Y-87930236D01*
X50750111Y-87928471D01*
X50744043Y-87925762D01*
X50766002Y-87903804D01*
X50770720Y-87898054D01*
X50772219Y-87896755D01*
X50773640Y-87894495D01*
X50775329Y-87892439D01*
X50776086Y-87890611D01*
X50780051Y-87884312D01*
X50827670Y-87789074D01*
X50832925Y-87775343D01*
X50833116Y-87772653D01*
X50834147Y-87770165D01*
X50835588Y-87755533D01*
X50835588Y-87660295D01*
X50834147Y-87645663D01*
X50833116Y-87643174D01*
X50832925Y-87640485D01*
X50827670Y-87626754D01*
X50780051Y-87531516D01*
X50776086Y-87525216D01*
X50775329Y-87523389D01*
X50773640Y-87521332D01*
X50772219Y-87519073D01*
X50770720Y-87517773D01*
X50766002Y-87512024D01*
X50718383Y-87464405D01*
X50712633Y-87459686D01*
X50711334Y-87458188D01*
X50709074Y-87456766D01*
X50707151Y-87455187D01*
X51020363Y-87455187D01*
X51020363Y-87484451D01*
X51031562Y-87511487D01*
X51052254Y-87532179D01*
X51079290Y-87543378D01*
X51093922Y-87544819D01*
X51304636Y-87544819D01*
X51304636Y-88469819D01*
X51306077Y-88484451D01*
X51317276Y-88511487D01*
X51337968Y-88532179D01*
X51365004Y-88543378D01*
X51394268Y-88543378D01*
X51421304Y-88532179D01*
X51441996Y-88511487D01*
X51453195Y-88484451D01*
X51454636Y-88469819D01*
X51454636Y-87544819D01*
X51665350Y-87544819D01*
X51679982Y-87543378D01*
X51707018Y-87532179D01*
X51727710Y-87511487D01*
X51738909Y-87484451D01*
X51738909Y-87469819D01*
X51923684Y-87469819D01*
X51923684Y-88469819D01*
X51925125Y-88484451D01*
X51936324Y-88511487D01*
X51957016Y-88532179D01*
X51984052Y-88543378D01*
X52013316Y-88543378D01*
X52040352Y-88532179D01*
X52061044Y-88511487D01*
X52072243Y-88484451D01*
X52073684Y-88469819D01*
X52073684Y-87752235D01*
X52504994Y-88507030D01*
X52507183Y-88510114D01*
X52507752Y-88511487D01*
X52509149Y-88512884D01*
X52513504Y-88519019D01*
X52521392Y-88525127D01*
X52528444Y-88532179D01*
X52532862Y-88534009D01*
X52536642Y-88536936D01*
X52546263Y-88539560D01*
X52555480Y-88543378D01*
X52560261Y-88543378D01*
X52564873Y-88544636D01*
X52574770Y-88543378D01*
X52584744Y-88543378D01*
X52589159Y-88541548D01*
X52593903Y-88540946D01*
X52602567Y-88535995D01*
X52611780Y-88532179D01*
X52615158Y-88528800D01*
X52619312Y-88526427D01*
X52625421Y-88518537D01*
X52632472Y-88511487D01*
X52634301Y-88507070D01*
X52637229Y-88503290D01*
X52639853Y-88493666D01*
X52643671Y-88484451D01*
X52644407Y-88476968D01*
X52644929Y-88475058D01*
X52644741Y-88473582D01*
X52645112Y-88469819D01*
X52645112Y-87469819D01*
X52643671Y-87455187D01*
X52632472Y-87428151D01*
X52611780Y-87407459D01*
X52584744Y-87396260D01*
X52555480Y-87396260D01*
X52528444Y-87407459D01*
X52507752Y-87428151D01*
X52496553Y-87455187D01*
X52495112Y-87469819D01*
X52495112Y-88187402D01*
X52063802Y-87432609D01*
X52061613Y-87429525D01*
X52061044Y-87428151D01*
X52059644Y-87426751D01*
X52055292Y-87420619D01*
X52047402Y-87414509D01*
X52040352Y-87407459D01*
X52035935Y-87405629D01*
X52032155Y-87402702D01*
X52022531Y-87400077D01*
X52013316Y-87396260D01*
X52008535Y-87396260D01*
X52003923Y-87395002D01*
X51994026Y-87396260D01*
X51984052Y-87396260D01*
X51979636Y-87398089D01*
X51974893Y-87398692D01*
X51966228Y-87403642D01*
X51957016Y-87407459D01*
X51953637Y-87410837D01*
X51949484Y-87413211D01*
X51943374Y-87421100D01*
X51936324Y-87428151D01*
X51934494Y-87432567D01*
X51931567Y-87436348D01*
X51928942Y-87445971D01*
X51925125Y-87455187D01*
X51924388Y-87462669D01*
X51923867Y-87464580D01*
X51924054Y-87466055D01*
X51923684Y-87469819D01*
X51738909Y-87469819D01*
X51738909Y-87455187D01*
X51727710Y-87428151D01*
X51707018Y-87407459D01*
X51679982Y-87396260D01*
X51665350Y-87394819D01*
X51093922Y-87394819D01*
X51079290Y-87396260D01*
X51052254Y-87407459D01*
X51031562Y-87428151D01*
X51020363Y-87455187D01*
X50707151Y-87455187D01*
X50707018Y-87455078D01*
X50705190Y-87454320D01*
X50698891Y-87450356D01*
X50603653Y-87402737D01*
X50589921Y-87397482D01*
X50587233Y-87397291D01*
X50584744Y-87396260D01*
X50570112Y-87394819D01*
X50236779Y-87394819D01*
X50222147Y-87396260D01*
X50195111Y-87407459D01*
X50174419Y-87428151D01*
X50163220Y-87455187D01*
X50161779Y-87469819D01*
X50050668Y-87469819D01*
X50050668Y-87283708D01*
X52756223Y-87283708D01*
X52756223Y-88655930D01*
G37*
G36*
X89091503Y-59082990D02*
G01*
X89165616Y-59157103D01*
X89204109Y-59234090D01*
X89247493Y-59407624D01*
X89247493Y-59532013D01*
X89204109Y-59705547D01*
X89165615Y-59782534D01*
X89091503Y-59856647D01*
X88976990Y-59894819D01*
X88826065Y-59894819D01*
X88826065Y-59044819D01*
X88976990Y-59044819D01*
X89091503Y-59082990D01*
G37*
G36*
X89091503Y-57473046D02*
G01*
X89165616Y-57547159D01*
X89204109Y-57624146D01*
X89247493Y-57797680D01*
X89247493Y-57922069D01*
X89204109Y-58095603D01*
X89165615Y-58172590D01*
X89091503Y-58246703D01*
X88976990Y-58284875D01*
X88826065Y-58284875D01*
X88826065Y-57434875D01*
X88976990Y-57434875D01*
X89091503Y-57473046D01*
G37*
G36*
X89091503Y-55863102D02*
G01*
X89165616Y-55937215D01*
X89204109Y-56014202D01*
X89247493Y-56187736D01*
X89247493Y-56312125D01*
X89204109Y-56485659D01*
X89165615Y-56562646D01*
X89091503Y-56636759D01*
X88976990Y-56674931D01*
X88826065Y-56674931D01*
X88826065Y-55824931D01*
X88976990Y-55824931D01*
X89091503Y-55863102D01*
G37*
G36*
X91222890Y-60155930D02*
G01*
X86850668Y-60155930D01*
X86850668Y-58969819D01*
X86961779Y-58969819D01*
X86961779Y-59969819D01*
X86963220Y-59984451D01*
X86974419Y-60011487D01*
X86995111Y-60032179D01*
X87022147Y-60043378D01*
X87036779Y-60044819D01*
X87512969Y-60044819D01*
X87527601Y-60043378D01*
X87554637Y-60032179D01*
X87575329Y-60011487D01*
X87586528Y-59984451D01*
X87586528Y-59955187D01*
X87575329Y-59928151D01*
X87554637Y-59907459D01*
X87527601Y-59896260D01*
X87512969Y-59894819D01*
X87111779Y-59894819D01*
X87111779Y-58969819D01*
X87771303Y-58969819D01*
X87771303Y-59969819D01*
X87772744Y-59984451D01*
X87783943Y-60011487D01*
X87804635Y-60032179D01*
X87831671Y-60043378D01*
X87846303Y-60044819D01*
X88322493Y-60044819D01*
X88337125Y-60043378D01*
X88364161Y-60032179D01*
X88384853Y-60011487D01*
X88396052Y-59984451D01*
X88396052Y-59955187D01*
X88384853Y-59928151D01*
X88364161Y-59907459D01*
X88337125Y-59896260D01*
X88322493Y-59894819D01*
X87921303Y-59894819D01*
X87921303Y-59521009D01*
X88179636Y-59521009D01*
X88194268Y-59519568D01*
X88221304Y-59508369D01*
X88241996Y-59487677D01*
X88253195Y-59460641D01*
X88253195Y-59431377D01*
X88241996Y-59404341D01*
X88221304Y-59383649D01*
X88194268Y-59372450D01*
X88179636Y-59371009D01*
X87921303Y-59371009D01*
X87921303Y-59044819D01*
X88322493Y-59044819D01*
X88337125Y-59043378D01*
X88364161Y-59032179D01*
X88384853Y-59011487D01*
X88396052Y-58984451D01*
X88396052Y-58969819D01*
X88676065Y-58969819D01*
X88676065Y-59969819D01*
X88677506Y-59984451D01*
X88688705Y-60011487D01*
X88709397Y-60032179D01*
X88736433Y-60043378D01*
X88751065Y-60044819D01*
X88989160Y-60044819D01*
X88996565Y-60044089D01*
X88998540Y-60044230D01*
X89001137Y-60043639D01*
X89003792Y-60043378D01*
X89005623Y-60042619D01*
X89012877Y-60040970D01*
X89155734Y-59993351D01*
X89169159Y-59987357D01*
X89171194Y-59985591D01*
X89173685Y-59984560D01*
X89185050Y-59975233D01*
X89280289Y-59879993D01*
X89285006Y-59874244D01*
X89286505Y-59872945D01*
X89287926Y-59870686D01*
X89289616Y-59868628D01*
X89290373Y-59866798D01*
X89294337Y-59860502D01*
X89341956Y-59765264D01*
X89342365Y-59764194D01*
X89342688Y-59763759D01*
X89344880Y-59757622D01*
X89347211Y-59751533D01*
X89347249Y-59750992D01*
X89347635Y-59749913D01*
X89395254Y-59559437D01*
X89395629Y-59556900D01*
X89396052Y-59555879D01*
X89396594Y-59550366D01*
X89397404Y-59544893D01*
X89397241Y-59543800D01*
X89397493Y-59541247D01*
X89397493Y-59398390D01*
X89397241Y-59395836D01*
X89397404Y-59394744D01*
X89396594Y-59389270D01*
X89396052Y-59383758D01*
X89395629Y-59382736D01*
X89395254Y-59380200D01*
X89347635Y-59189724D01*
X89347249Y-59188644D01*
X89347211Y-59188104D01*
X89344880Y-59182014D01*
X89342688Y-59175878D01*
X89342365Y-59175442D01*
X89341956Y-59174373D01*
X89294337Y-59079135D01*
X89290374Y-59072840D01*
X89289616Y-59071008D01*
X89287924Y-59068946D01*
X89286505Y-59066692D01*
X89285008Y-59065393D01*
X89280288Y-59059643D01*
X89185050Y-58964405D01*
X89173818Y-58955187D01*
X90344173Y-58955187D01*
X90344173Y-58984451D01*
X90355372Y-59011487D01*
X90376064Y-59032179D01*
X90403100Y-59043378D01*
X90417732Y-59044819D01*
X90871497Y-59044819D01*
X90647003Y-59301383D01*
X90642481Y-59307707D01*
X90641086Y-59309103D01*
X90640537Y-59310426D01*
X90638452Y-59313344D01*
X90634550Y-59324881D01*
X90629887Y-59336139D01*
X90629887Y-59338669D01*
X90629077Y-59341065D01*
X90629887Y-59353218D01*
X90629887Y-59365403D01*
X90630854Y-59367739D01*
X90631023Y-59370263D01*
X90636425Y-59381188D01*
X90641086Y-59392439D01*
X90642872Y-59394225D01*
X90643995Y-59396495D01*
X90653167Y-59404520D01*
X90661778Y-59413131D01*
X90664114Y-59414099D01*
X90666019Y-59415765D01*
X90677556Y-59419666D01*
X90688814Y-59424330D01*
X90692384Y-59424681D01*
X90693740Y-59425140D01*
X90695707Y-59425008D01*
X90703446Y-59425771D01*
X90828598Y-59425771D01*
X90897114Y-59460029D01*
X90927521Y-59490436D01*
X90961779Y-59558952D01*
X90961779Y-59761637D01*
X90927520Y-59830153D01*
X90897113Y-59860561D01*
X90828598Y-59894819D01*
X90578294Y-59894819D01*
X90509778Y-59860561D01*
X90470766Y-59821548D01*
X90459400Y-59812220D01*
X90432364Y-59801021D01*
X90403101Y-59801021D01*
X90376065Y-59812219D01*
X90355372Y-59832912D01*
X90344173Y-59859948D01*
X90344173Y-59889211D01*
X90355371Y-59916247D01*
X90364698Y-59927612D01*
X90412317Y-59975232D01*
X90418066Y-59979950D01*
X90419367Y-59981450D01*
X90421626Y-59982872D01*
X90423683Y-59984560D01*
X90425510Y-59985317D01*
X90431810Y-59989282D01*
X90527048Y-60036901D01*
X90540779Y-60042156D01*
X90543468Y-60042347D01*
X90545957Y-60043378D01*
X90560589Y-60044819D01*
X90846303Y-60044819D01*
X90860935Y-60043378D01*
X90863424Y-60042346D01*
X90866112Y-60042156D01*
X90879844Y-60036901D01*
X90975082Y-59989282D01*
X90981381Y-59985317D01*
X90983209Y-59984560D01*
X90985265Y-59982872D01*
X90987525Y-59981450D01*
X90988825Y-59979950D01*
X90994575Y-59975232D01*
X91042193Y-59927613D01*
X91046911Y-59921863D01*
X91048410Y-59920564D01*
X91049831Y-59918305D01*
X91051521Y-59916247D01*
X91052278Y-59914417D01*
X91056242Y-59908121D01*
X91103861Y-59812883D01*
X91109116Y-59799152D01*
X91109307Y-59796462D01*
X91110338Y-59793974D01*
X91111779Y-59779342D01*
X91111779Y-59541247D01*
X91110338Y-59526615D01*
X91109307Y-59524126D01*
X91109116Y-59521437D01*
X91103861Y-59507706D01*
X91056242Y-59412468D01*
X91052277Y-59406168D01*
X91051520Y-59404341D01*
X91049831Y-59402284D01*
X91048410Y-59400025D01*
X91046911Y-59398725D01*
X91042193Y-59392976D01*
X90994574Y-59345357D01*
X90988824Y-59340638D01*
X90987525Y-59339140D01*
X90985265Y-59337718D01*
X90983209Y-59336030D01*
X90981381Y-59335272D01*
X90975082Y-59331308D01*
X90879844Y-59283689D01*
X90866326Y-59278516D01*
X91093222Y-59019207D01*
X91097743Y-59012882D01*
X91099139Y-59011487D01*
X91099687Y-59010163D01*
X91101773Y-59007246D01*
X91105674Y-58995708D01*
X91110338Y-58984451D01*
X91110338Y-58981920D01*
X91111148Y-58979525D01*
X91110338Y-58967371D01*
X91110338Y-58955187D01*
X91109370Y-58952850D01*
X91109202Y-58950327D01*
X91103799Y-58939401D01*
X91099139Y-58928151D01*
X91097352Y-58926364D01*
X91096230Y-58924095D01*
X91087057Y-58916069D01*
X91078447Y-58907459D01*
X91076110Y-58906490D01*
X91074206Y-58904825D01*
X91062668Y-58900923D01*
X91051411Y-58896260D01*
X91047840Y-58895908D01*
X91046485Y-58895450D01*
X91044517Y-58895581D01*
X91036779Y-58894819D01*
X90417732Y-58894819D01*
X90403100Y-58896260D01*
X90376064Y-58907459D01*
X90355372Y-58928151D01*
X90344173Y-58955187D01*
X89173818Y-58955187D01*
X89173685Y-58955078D01*
X89171194Y-58954046D01*
X89169159Y-58952281D01*
X89155734Y-58946287D01*
X89012877Y-58898668D01*
X89005623Y-58897018D01*
X89003792Y-58896260D01*
X89001137Y-58895998D01*
X88998540Y-58895408D01*
X88996565Y-58895548D01*
X88989160Y-58894819D01*
X88751065Y-58894819D01*
X88736433Y-58896260D01*
X88709397Y-58907459D01*
X88688705Y-58928151D01*
X88677506Y-58955187D01*
X88676065Y-58969819D01*
X88396052Y-58969819D01*
X88396052Y-58955187D01*
X88384853Y-58928151D01*
X88364161Y-58907459D01*
X88337125Y-58896260D01*
X88322493Y-58894819D01*
X87846303Y-58894819D01*
X87831671Y-58896260D01*
X87804635Y-58907459D01*
X87783943Y-58928151D01*
X87772744Y-58955187D01*
X87771303Y-58969819D01*
X87111779Y-58969819D01*
X87110338Y-58955187D01*
X87099139Y-58928151D01*
X87078447Y-58907459D01*
X87051411Y-58896260D01*
X87022147Y-58896260D01*
X86995111Y-58907459D01*
X86974419Y-58928151D01*
X86963220Y-58955187D01*
X86961779Y-58969819D01*
X86850668Y-58969819D01*
X86850668Y-57359875D01*
X86961779Y-57359875D01*
X86961779Y-58359875D01*
X86963220Y-58374507D01*
X86974419Y-58401543D01*
X86995111Y-58422235D01*
X87022147Y-58433434D01*
X87036779Y-58434875D01*
X87512969Y-58434875D01*
X87527601Y-58433434D01*
X87554637Y-58422235D01*
X87575329Y-58401543D01*
X87586528Y-58374507D01*
X87586528Y-58345243D01*
X87575329Y-58318207D01*
X87554637Y-58297515D01*
X87527601Y-58286316D01*
X87512969Y-58284875D01*
X87111779Y-58284875D01*
X87111779Y-57359875D01*
X87771303Y-57359875D01*
X87771303Y-58359875D01*
X87772744Y-58374507D01*
X87783943Y-58401543D01*
X87804635Y-58422235D01*
X87831671Y-58433434D01*
X87846303Y-58434875D01*
X88322493Y-58434875D01*
X88337125Y-58433434D01*
X88364161Y-58422235D01*
X88384853Y-58401543D01*
X88396052Y-58374507D01*
X88396052Y-58345243D01*
X88384853Y-58318207D01*
X88364161Y-58297515D01*
X88337125Y-58286316D01*
X88322493Y-58284875D01*
X87921303Y-58284875D01*
X87921303Y-57911065D01*
X88179636Y-57911065D01*
X88194268Y-57909624D01*
X88221304Y-57898425D01*
X88241996Y-57877733D01*
X88253195Y-57850697D01*
X88253195Y-57821433D01*
X88241996Y-57794397D01*
X88221304Y-57773705D01*
X88194268Y-57762506D01*
X88179636Y-57761065D01*
X87921303Y-57761065D01*
X87921303Y-57434875D01*
X88322493Y-57434875D01*
X88337125Y-57433434D01*
X88364161Y-57422235D01*
X88384853Y-57401543D01*
X88396052Y-57374507D01*
X88396052Y-57359875D01*
X88676065Y-57359875D01*
X88676065Y-58359875D01*
X88677506Y-58374507D01*
X88688705Y-58401543D01*
X88709397Y-58422235D01*
X88736433Y-58433434D01*
X88751065Y-58434875D01*
X88989160Y-58434875D01*
X88996565Y-58434145D01*
X88998540Y-58434286D01*
X89001137Y-58433695D01*
X89003792Y-58433434D01*
X89005623Y-58432675D01*
X89012877Y-58431026D01*
X89155734Y-58383407D01*
X89169159Y-58377413D01*
X89171194Y-58375647D01*
X89173685Y-58374616D01*
X89185050Y-58365289D01*
X89205096Y-58345243D01*
X90344173Y-58345243D01*
X90344173Y-58374507D01*
X90355372Y-58401543D01*
X90376064Y-58422235D01*
X90403100Y-58433434D01*
X90417732Y-58434875D01*
X91036779Y-58434875D01*
X91051411Y-58433434D01*
X91078447Y-58422235D01*
X91099139Y-58401543D01*
X91110338Y-58374507D01*
X91110338Y-58345243D01*
X91099139Y-58318207D01*
X91078447Y-58297515D01*
X91051411Y-58286316D01*
X91036779Y-58284875D01*
X90598798Y-58284875D01*
X91042193Y-57841479D01*
X91051521Y-57830114D01*
X91052552Y-57827623D01*
X91054317Y-57825589D01*
X91060311Y-57812163D01*
X91107930Y-57669307D01*
X91109579Y-57662051D01*
X91110338Y-57660221D01*
X91110599Y-57657567D01*
X91111190Y-57654970D01*
X91111049Y-57652995D01*
X91111779Y-57645589D01*
X91111779Y-57550351D01*
X91110338Y-57535719D01*
X91109307Y-57533230D01*
X91109116Y-57530541D01*
X91103861Y-57516810D01*
X91056242Y-57421572D01*
X91052277Y-57415272D01*
X91051520Y-57413445D01*
X91049831Y-57411388D01*
X91048410Y-57409129D01*
X91046911Y-57407829D01*
X91042193Y-57402080D01*
X90994574Y-57354461D01*
X90988824Y-57349742D01*
X90987525Y-57348244D01*
X90985265Y-57346822D01*
X90983209Y-57345134D01*
X90981381Y-57344376D01*
X90975082Y-57340412D01*
X90879844Y-57292793D01*
X90866112Y-57287538D01*
X90863424Y-57287347D01*
X90860935Y-57286316D01*
X90846303Y-57284875D01*
X90608208Y-57284875D01*
X90593576Y-57286316D01*
X90591087Y-57287346D01*
X90588398Y-57287538D01*
X90574667Y-57292793D01*
X90479429Y-57340412D01*
X90473129Y-57344376D01*
X90471302Y-57345134D01*
X90469245Y-57346822D01*
X90466986Y-57348244D01*
X90465686Y-57349742D01*
X90459937Y-57354461D01*
X90412318Y-57402080D01*
X90402991Y-57413445D01*
X90391792Y-57440482D01*
X90391792Y-57469744D01*
X90402991Y-57496781D01*
X90423683Y-57517473D01*
X90450720Y-57528672D01*
X90479982Y-57528672D01*
X90507019Y-57517473D01*
X90518384Y-57508146D01*
X90557397Y-57469133D01*
X90625913Y-57434875D01*
X90828598Y-57434875D01*
X90897114Y-57469133D01*
X90927521Y-57499540D01*
X90961779Y-57568056D01*
X90961779Y-57633419D01*
X90923607Y-57747932D01*
X90364699Y-58306842D01*
X90355372Y-58318207D01*
X90344173Y-58345243D01*
X89205096Y-58345243D01*
X89280289Y-58270049D01*
X89285006Y-58264300D01*
X89286505Y-58263001D01*
X89287926Y-58260742D01*
X89289616Y-58258684D01*
X89290373Y-58256854D01*
X89294337Y-58250558D01*
X89341956Y-58155320D01*
X89342365Y-58154250D01*
X89342688Y-58153815D01*
X89344880Y-58147678D01*
X89347211Y-58141589D01*
X89347249Y-58141048D01*
X89347635Y-58139969D01*
X89395254Y-57949493D01*
X89395629Y-57946956D01*
X89396052Y-57945935D01*
X89396594Y-57940422D01*
X89397404Y-57934949D01*
X89397241Y-57933856D01*
X89397493Y-57931303D01*
X89397493Y-57788446D01*
X89397241Y-57785892D01*
X89397404Y-57784800D01*
X89396594Y-57779326D01*
X89396052Y-57773814D01*
X89395629Y-57772792D01*
X89395254Y-57770256D01*
X89347635Y-57579780D01*
X89347249Y-57578700D01*
X89347211Y-57578160D01*
X89344880Y-57572070D01*
X89342688Y-57565934D01*
X89342365Y-57565498D01*
X89341956Y-57564429D01*
X89294337Y-57469191D01*
X89290374Y-57462896D01*
X89289616Y-57461064D01*
X89287924Y-57459002D01*
X89286505Y-57456748D01*
X89285008Y-57455449D01*
X89280288Y-57449699D01*
X89185050Y-57354461D01*
X89173685Y-57345134D01*
X89171194Y-57344102D01*
X89169159Y-57342337D01*
X89155734Y-57336343D01*
X89012877Y-57288724D01*
X89005623Y-57287074D01*
X89003792Y-57286316D01*
X89001137Y-57286054D01*
X88998540Y-57285464D01*
X88996565Y-57285604D01*
X88989160Y-57284875D01*
X88751065Y-57284875D01*
X88736433Y-57286316D01*
X88709397Y-57297515D01*
X88688705Y-57318207D01*
X88677506Y-57345243D01*
X88676065Y-57359875D01*
X88396052Y-57359875D01*
X88396052Y-57345243D01*
X88384853Y-57318207D01*
X88364161Y-57297515D01*
X88337125Y-57286316D01*
X88322493Y-57284875D01*
X87846303Y-57284875D01*
X87831671Y-57286316D01*
X87804635Y-57297515D01*
X87783943Y-57318207D01*
X87772744Y-57345243D01*
X87771303Y-57359875D01*
X87111779Y-57359875D01*
X87110338Y-57345243D01*
X87099139Y-57318207D01*
X87078447Y-57297515D01*
X87051411Y-57286316D01*
X87022147Y-57286316D01*
X86995111Y-57297515D01*
X86974419Y-57318207D01*
X86963220Y-57345243D01*
X86961779Y-57359875D01*
X86850668Y-57359875D01*
X86850668Y-55749931D01*
X86961779Y-55749931D01*
X86961779Y-56749931D01*
X86963220Y-56764563D01*
X86974419Y-56791599D01*
X86995111Y-56812291D01*
X87022147Y-56823490D01*
X87036779Y-56824931D01*
X87512969Y-56824931D01*
X87527601Y-56823490D01*
X87554637Y-56812291D01*
X87575329Y-56791599D01*
X87586528Y-56764563D01*
X87586528Y-56735299D01*
X87575329Y-56708263D01*
X87554637Y-56687571D01*
X87527601Y-56676372D01*
X87512969Y-56674931D01*
X87111779Y-56674931D01*
X87111779Y-55749931D01*
X87771303Y-55749931D01*
X87771303Y-56749931D01*
X87772744Y-56764563D01*
X87783943Y-56791599D01*
X87804635Y-56812291D01*
X87831671Y-56823490D01*
X87846303Y-56824931D01*
X88322493Y-56824931D01*
X88337125Y-56823490D01*
X88364161Y-56812291D01*
X88384853Y-56791599D01*
X88396052Y-56764563D01*
X88396052Y-56735299D01*
X88384853Y-56708263D01*
X88364161Y-56687571D01*
X88337125Y-56676372D01*
X88322493Y-56674931D01*
X87921303Y-56674931D01*
X87921303Y-56301121D01*
X88179636Y-56301121D01*
X88194268Y-56299680D01*
X88221304Y-56288481D01*
X88241996Y-56267789D01*
X88253195Y-56240753D01*
X88253195Y-56211489D01*
X88241996Y-56184453D01*
X88221304Y-56163761D01*
X88194268Y-56152562D01*
X88179636Y-56151121D01*
X87921303Y-56151121D01*
X87921303Y-55824931D01*
X88322493Y-55824931D01*
X88337125Y-55823490D01*
X88364161Y-55812291D01*
X88384853Y-55791599D01*
X88396052Y-55764563D01*
X88396052Y-55749931D01*
X88676065Y-55749931D01*
X88676065Y-56749931D01*
X88677506Y-56764563D01*
X88688705Y-56791599D01*
X88709397Y-56812291D01*
X88736433Y-56823490D01*
X88751065Y-56824931D01*
X88989160Y-56824931D01*
X88996565Y-56824201D01*
X88998540Y-56824342D01*
X89001137Y-56823751D01*
X89003792Y-56823490D01*
X89005623Y-56822731D01*
X89012877Y-56821082D01*
X89155734Y-56773463D01*
X89169159Y-56767469D01*
X89171194Y-56765703D01*
X89173685Y-56764672D01*
X89185050Y-56755345D01*
X89280289Y-56660105D01*
X89285006Y-56654356D01*
X89286505Y-56653057D01*
X89287926Y-56650798D01*
X89289616Y-56648740D01*
X89290373Y-56646910D01*
X89294337Y-56640614D01*
X89341956Y-56545376D01*
X89342365Y-56544306D01*
X89342688Y-56543871D01*
X89344880Y-56537734D01*
X89347211Y-56531645D01*
X89347249Y-56531104D01*
X89347635Y-56530025D01*
X89395254Y-56339549D01*
X89395629Y-56337012D01*
X89396052Y-56335991D01*
X89396594Y-56330478D01*
X89397404Y-56325005D01*
X89397241Y-56323912D01*
X89397493Y-56321359D01*
X89397493Y-56178502D01*
X89397241Y-56175948D01*
X89397404Y-56174856D01*
X89396594Y-56169382D01*
X89396052Y-56163870D01*
X89395629Y-56162848D01*
X89395254Y-56160312D01*
X89361742Y-56026264D01*
X90390940Y-56026264D01*
X90393014Y-56055454D01*
X90406101Y-56081629D01*
X90428209Y-56100802D01*
X90455970Y-56110056D01*
X90485160Y-56107982D01*
X90498892Y-56102727D01*
X90594130Y-56055108D01*
X90600429Y-56051143D01*
X90602257Y-56050386D01*
X90604313Y-56048697D01*
X90606573Y-56047276D01*
X90607872Y-56045777D01*
X90613622Y-56041059D01*
X90676065Y-55978616D01*
X90676065Y-56674931D01*
X90465351Y-56674931D01*
X90450719Y-56676372D01*
X90423683Y-56687571D01*
X90402991Y-56708263D01*
X90391792Y-56735299D01*
X90391792Y-56764563D01*
X90402991Y-56791599D01*
X90423683Y-56812291D01*
X90450719Y-56823490D01*
X90465351Y-56824931D01*
X91036779Y-56824931D01*
X91051411Y-56823490D01*
X91078447Y-56812291D01*
X91099139Y-56791599D01*
X91110338Y-56764563D01*
X91110338Y-56735299D01*
X91099139Y-56708263D01*
X91078447Y-56687571D01*
X91051411Y-56676372D01*
X91036779Y-56674931D01*
X90826065Y-56674931D01*
X90826065Y-55749931D01*
X90826059Y-55749878D01*
X90826065Y-55749852D01*
X90826049Y-55749775D01*
X90824624Y-55735299D01*
X90821782Y-55728438D01*
X90820326Y-55721157D01*
X90816236Y-55715050D01*
X90813425Y-55708263D01*
X90808176Y-55703014D01*
X90804043Y-55696842D01*
X90797926Y-55692764D01*
X90792733Y-55687571D01*
X90785873Y-55684729D01*
X90779694Y-55680610D01*
X90772485Y-55679184D01*
X90765697Y-55676372D01*
X90758270Y-55676372D01*
X90750986Y-55674931D01*
X90743781Y-55676372D01*
X90736433Y-55676372D01*
X90729572Y-55679213D01*
X90722292Y-55680670D01*
X90716186Y-55684758D01*
X90709397Y-55687571D01*
X90704146Y-55692821D01*
X90697977Y-55696953D01*
X90688756Y-55708211D01*
X90688705Y-55708263D01*
X90688695Y-55708285D01*
X90688661Y-55708328D01*
X90597541Y-55845008D01*
X90516162Y-55926387D01*
X90431810Y-55968563D01*
X90419367Y-55976395D01*
X90400194Y-55998503D01*
X90390940Y-56026264D01*
X89361742Y-56026264D01*
X89347635Y-55969836D01*
X89347249Y-55968756D01*
X89347211Y-55968216D01*
X89344874Y-55962109D01*
X89342688Y-55955990D01*
X89342365Y-55955554D01*
X89341956Y-55954485D01*
X89294337Y-55859247D01*
X89290374Y-55852952D01*
X89289616Y-55851120D01*
X89287924Y-55849058D01*
X89286505Y-55846804D01*
X89285008Y-55845505D01*
X89280288Y-55839755D01*
X89185050Y-55744517D01*
X89173685Y-55735190D01*
X89171194Y-55734158D01*
X89169159Y-55732393D01*
X89155734Y-55726399D01*
X89012877Y-55678780D01*
X89005623Y-55677130D01*
X89003792Y-55676372D01*
X89001137Y-55676110D01*
X88998540Y-55675520D01*
X88996565Y-55675660D01*
X88989160Y-55674931D01*
X88751065Y-55674931D01*
X88736433Y-55676372D01*
X88709397Y-55687571D01*
X88688705Y-55708263D01*
X88677506Y-55735299D01*
X88676065Y-55749931D01*
X88396052Y-55749931D01*
X88396052Y-55735299D01*
X88384853Y-55708263D01*
X88364161Y-55687571D01*
X88337125Y-55676372D01*
X88322493Y-55674931D01*
X87846303Y-55674931D01*
X87831671Y-55676372D01*
X87804635Y-55687571D01*
X87783943Y-55708263D01*
X87772744Y-55735299D01*
X87771303Y-55749931D01*
X87111779Y-55749931D01*
X87110338Y-55735299D01*
X87099139Y-55708263D01*
X87078447Y-55687571D01*
X87051411Y-55676372D01*
X87022147Y-55676372D01*
X86995111Y-55687571D01*
X86974419Y-55708263D01*
X86963220Y-55735299D01*
X86961779Y-55749931D01*
X86850668Y-55749931D01*
X86850668Y-55563820D01*
X91222890Y-55563820D01*
X91222890Y-60155930D01*
G37*
D11*
X72986997Y-78384690D02*
X72963188Y-78408500D01*
X72963188Y-78408500D02*
X72891759Y-78432309D01*
X72891759Y-78432309D02*
X72844140Y-78432309D01*
X72844140Y-78432309D02*
X72772712Y-78408500D01*
X72772712Y-78408500D02*
X72725093Y-78360880D01*
X72725093Y-78360880D02*
X72701283Y-78313261D01*
X72701283Y-78313261D02*
X72677474Y-78218023D01*
X72677474Y-78218023D02*
X72677474Y-78146595D01*
X72677474Y-78146595D02*
X72701283Y-78051357D01*
X72701283Y-78051357D02*
X72725093Y-78003738D01*
X72725093Y-78003738D02*
X72772712Y-77956119D01*
X72772712Y-77956119D02*
X72844140Y-77932309D01*
X72844140Y-77932309D02*
X72891759Y-77932309D01*
X72891759Y-77932309D02*
X72963188Y-77956119D01*
X72963188Y-77956119D02*
X72986997Y-77979928D01*
X73463188Y-78432309D02*
X73177474Y-78432309D01*
X73320331Y-78432309D02*
X73320331Y-77932309D01*
X73320331Y-77932309D02*
X73272712Y-78003738D01*
X73272712Y-78003738D02*
X73225093Y-78051357D01*
X73225093Y-78051357D02*
X73177474Y-78075166D01*
X73772711Y-77932309D02*
X73820330Y-77932309D01*
X73820330Y-77932309D02*
X73867949Y-77956119D01*
X73867949Y-77956119D02*
X73891759Y-77979928D01*
X73891759Y-77979928D02*
X73915568Y-78027547D01*
X73915568Y-78027547D02*
X73939378Y-78122785D01*
X73939378Y-78122785D02*
X73939378Y-78241833D01*
X73939378Y-78241833D02*
X73915568Y-78337071D01*
X73915568Y-78337071D02*
X73891759Y-78384690D01*
X73891759Y-78384690D02*
X73867949Y-78408500D01*
X73867949Y-78408500D02*
X73820330Y-78432309D01*
X73820330Y-78432309D02*
X73772711Y-78432309D01*
X73772711Y-78432309D02*
X73725092Y-78408500D01*
X73725092Y-78408500D02*
X73701283Y-78384690D01*
X73701283Y-78384690D02*
X73677473Y-78337071D01*
X73677473Y-78337071D02*
X73653664Y-78241833D01*
X73653664Y-78241833D02*
X73653664Y-78122785D01*
X73653664Y-78122785D02*
X73677473Y-78027547D01*
X73677473Y-78027547D02*
X73701283Y-77979928D01*
X73701283Y-77979928D02*
X73725092Y-77956119D01*
X73725092Y-77956119D02*
X73772711Y-77932309D01*
X74129854Y-77979928D02*
X74153663Y-77956119D01*
X74153663Y-77956119D02*
X74201282Y-77932309D01*
X74201282Y-77932309D02*
X74320330Y-77932309D01*
X74320330Y-77932309D02*
X74367949Y-77956119D01*
X74367949Y-77956119D02*
X74391758Y-77979928D01*
X74391758Y-77979928D02*
X74415568Y-78027547D01*
X74415568Y-78027547D02*
X74415568Y-78075166D01*
X74415568Y-78075166D02*
X74391758Y-78146595D01*
X74391758Y-78146595D02*
X74106044Y-78432309D01*
X74106044Y-78432309D02*
X74415568Y-78432309D01*
D10*
X52877255Y-88850414D02*
X52877255Y-89457557D01*
X52877255Y-89457557D02*
X52912969Y-89528985D01*
X52912969Y-89528985D02*
X52948684Y-89564700D01*
X52948684Y-89564700D02*
X53020112Y-89600414D01*
X53020112Y-89600414D02*
X53162969Y-89600414D01*
X53162969Y-89600414D02*
X53234398Y-89564700D01*
X53234398Y-89564700D02*
X53270112Y-89528985D01*
X53270112Y-89528985D02*
X53305826Y-89457557D01*
X53305826Y-89457557D02*
X53305826Y-88850414D01*
X54055826Y-89600414D02*
X53627255Y-89600414D01*
X53841540Y-89600414D02*
X53841540Y-88850414D01*
X53841540Y-88850414D02*
X53770112Y-88957557D01*
X53770112Y-88957557D02*
X53698683Y-89028985D01*
X53698683Y-89028985D02*
X53627255Y-89064700D01*
X54520112Y-88850414D02*
X54591541Y-88850414D01*
X54591541Y-88850414D02*
X54662969Y-88886128D01*
X54662969Y-88886128D02*
X54698684Y-88921842D01*
X54698684Y-88921842D02*
X54734398Y-88993271D01*
X54734398Y-88993271D02*
X54770112Y-89136128D01*
X54770112Y-89136128D02*
X54770112Y-89314700D01*
X54770112Y-89314700D02*
X54734398Y-89457557D01*
X54734398Y-89457557D02*
X54698684Y-89528985D01*
X54698684Y-89528985D02*
X54662969Y-89564700D01*
X54662969Y-89564700D02*
X54591541Y-89600414D01*
X54591541Y-89600414D02*
X54520112Y-89600414D01*
X54520112Y-89600414D02*
X54448684Y-89564700D01*
X54448684Y-89564700D02*
X54412969Y-89528985D01*
X54412969Y-89528985D02*
X54377255Y-89457557D01*
X54377255Y-89457557D02*
X54341541Y-89314700D01*
X54341541Y-89314700D02*
X54341541Y-89136128D01*
X54341541Y-89136128D02*
X54377255Y-88993271D01*
X54377255Y-88993271D02*
X54412969Y-88921842D01*
X54412969Y-88921842D02*
X54448684Y-88886128D01*
X54448684Y-88886128D02*
X54520112Y-88850414D01*
X55412970Y-89100414D02*
X55412970Y-89600414D01*
X55234398Y-88814700D02*
X55055827Y-89350414D01*
X55055827Y-89350414D02*
X55520112Y-89350414D01*
D11*
X67184690Y-60413002D02*
X67208500Y-60436811D01*
X67208500Y-60436811D02*
X67232309Y-60508240D01*
X67232309Y-60508240D02*
X67232309Y-60555859D01*
X67232309Y-60555859D02*
X67208500Y-60627287D01*
X67208500Y-60627287D02*
X67160880Y-60674906D01*
X67160880Y-60674906D02*
X67113261Y-60698716D01*
X67113261Y-60698716D02*
X67018023Y-60722525D01*
X67018023Y-60722525D02*
X66946595Y-60722525D01*
X66946595Y-60722525D02*
X66851357Y-60698716D01*
X66851357Y-60698716D02*
X66803738Y-60674906D01*
X66803738Y-60674906D02*
X66756119Y-60627287D01*
X66756119Y-60627287D02*
X66732309Y-60555859D01*
X66732309Y-60555859D02*
X66732309Y-60508240D01*
X66732309Y-60508240D02*
X66756119Y-60436811D01*
X66756119Y-60436811D02*
X66779928Y-60413002D01*
X67232309Y-59936811D02*
X67232309Y-60222525D01*
X67232309Y-60079668D02*
X66732309Y-60079668D01*
X66732309Y-60079668D02*
X66803738Y-60127287D01*
X66803738Y-60127287D02*
X66851357Y-60174906D01*
X66851357Y-60174906D02*
X66875166Y-60222525D01*
X66732309Y-59627288D02*
X66732309Y-59579669D01*
X66732309Y-59579669D02*
X66756119Y-59532050D01*
X66756119Y-59532050D02*
X66779928Y-59508240D01*
X66779928Y-59508240D02*
X66827547Y-59484431D01*
X66827547Y-59484431D02*
X66922785Y-59460621D01*
X66922785Y-59460621D02*
X67041833Y-59460621D01*
X67041833Y-59460621D02*
X67137071Y-59484431D01*
X67137071Y-59484431D02*
X67184690Y-59508240D01*
X67184690Y-59508240D02*
X67208500Y-59532050D01*
X67208500Y-59532050D02*
X67232309Y-59579669D01*
X67232309Y-59579669D02*
X67232309Y-59627288D01*
X67232309Y-59627288D02*
X67208500Y-59674907D01*
X67208500Y-59674907D02*
X67184690Y-59698716D01*
X67184690Y-59698716D02*
X67137071Y-59722526D01*
X67137071Y-59722526D02*
X67041833Y-59746335D01*
X67041833Y-59746335D02*
X66922785Y-59746335D01*
X66922785Y-59746335D02*
X66827547Y-59722526D01*
X66827547Y-59722526D02*
X66779928Y-59698716D01*
X66779928Y-59698716D02*
X66756119Y-59674907D01*
X66756119Y-59674907D02*
X66732309Y-59627288D01*
X67232309Y-58984431D02*
X67232309Y-59270145D01*
X67232309Y-59127288D02*
X66732309Y-59127288D01*
X66732309Y-59127288D02*
X66803738Y-59174907D01*
X66803738Y-59174907D02*
X66851357Y-59222526D01*
X66851357Y-59222526D02*
X66875166Y-59270145D01*
D10*
G36*
X47953166Y-52491127D02*
G01*
X48030153Y-52529621D01*
X48060561Y-52560028D01*
X48094819Y-52628544D01*
X48094819Y-52688372D01*
X48060561Y-52756887D01*
X48030153Y-52787294D01*
X47953166Y-52825788D01*
X47779632Y-52869172D01*
X47560005Y-52869172D01*
X47386471Y-52825788D01*
X47309484Y-52787295D01*
X47279077Y-52756888D01*
X47244819Y-52688372D01*
X47244819Y-52628544D01*
X47279077Y-52560028D01*
X47309484Y-52529621D01*
X47386471Y-52491127D01*
X47560005Y-52447744D01*
X47779632Y-52447744D01*
X47953166Y-52491127D01*
G37*
G36*
X48355930Y-56844569D02*
G01*
X46936678Y-56844569D01*
X46936678Y-55991871D01*
X47094819Y-55991871D01*
X47100558Y-56020565D01*
X47116841Y-56044880D01*
X47128217Y-56054196D01*
X47534610Y-56325125D01*
X47128217Y-56596054D01*
X47116841Y-56605370D01*
X47100558Y-56629685D01*
X47094819Y-56658379D01*
X47100498Y-56687087D01*
X47116731Y-56711436D01*
X47141046Y-56727719D01*
X47169740Y-56733458D01*
X47198448Y-56727779D01*
X47211421Y-56720862D01*
X47669818Y-56415263D01*
X48128216Y-56720862D01*
X48141190Y-56727779D01*
X48169898Y-56733458D01*
X48198592Y-56727719D01*
X48222907Y-56711436D01*
X48239140Y-56687087D01*
X48244819Y-56658379D01*
X48239080Y-56629685D01*
X48222797Y-56605370D01*
X48211421Y-56596054D01*
X47805027Y-56325125D01*
X48211421Y-56054196D01*
X48222797Y-56044880D01*
X48239080Y-56020565D01*
X48244819Y-55991871D01*
X48239140Y-55963163D01*
X48222907Y-55938814D01*
X48198592Y-55922531D01*
X48169898Y-55916792D01*
X48141190Y-55922471D01*
X48128216Y-55929388D01*
X47669818Y-56234986D01*
X47211421Y-55929388D01*
X47198448Y-55922471D01*
X47169740Y-55916792D01*
X47141046Y-55922531D01*
X47116731Y-55938814D01*
X47100498Y-55963163D01*
X47094819Y-55991871D01*
X46936678Y-55991871D01*
X46936678Y-55596207D01*
X47096260Y-55596207D01*
X47096260Y-55625471D01*
X47107459Y-55652507D01*
X47128151Y-55673199D01*
X47155187Y-55684398D01*
X47169819Y-55685839D01*
X48169819Y-55685839D01*
X48184451Y-55684398D01*
X48211487Y-55673199D01*
X48232179Y-55652507D01*
X48243378Y-55625471D01*
X48244819Y-55610839D01*
X48244819Y-55134649D01*
X48243378Y-55120017D01*
X48232179Y-55092981D01*
X48211487Y-55072289D01*
X48184451Y-55061090D01*
X48155187Y-55061090D01*
X48128151Y-55072289D01*
X48107459Y-55092981D01*
X48096260Y-55120017D01*
X48094819Y-55134649D01*
X48094819Y-55535839D01*
X47169819Y-55535839D01*
X47155187Y-55537280D01*
X47128151Y-55548479D01*
X47107459Y-55569171D01*
X47096260Y-55596207D01*
X46936678Y-55596207D01*
X46936678Y-54601459D01*
X47047789Y-54601459D01*
X47049864Y-54630649D01*
X47062950Y-54656822D01*
X47085057Y-54675996D01*
X47098483Y-54681990D01*
X47812767Y-54920085D01*
X47820022Y-54921734D01*
X47821853Y-54922493D01*
X47823357Y-54922493D01*
X47827104Y-54923345D01*
X47839089Y-54922493D01*
X47851117Y-54922493D01*
X47853608Y-54921460D01*
X47856294Y-54921270D01*
X47867041Y-54915896D01*
X47878153Y-54911294D01*
X47880058Y-54909388D01*
X47882468Y-54908184D01*
X47890342Y-54899104D01*
X47898845Y-54890602D01*
X47899876Y-54888111D01*
X47901642Y-54886076D01*
X47905442Y-54874675D01*
X47910044Y-54863566D01*
X47910420Y-54859739D01*
X47910896Y-54858314D01*
X47910755Y-54856339D01*
X47911485Y-54848934D01*
X47911485Y-54447744D01*
X48169819Y-54447744D01*
X48184451Y-54446303D01*
X48211487Y-54435104D01*
X48232179Y-54414412D01*
X48243378Y-54387376D01*
X48243378Y-54358112D01*
X48232179Y-54331076D01*
X48211487Y-54310384D01*
X48184451Y-54299185D01*
X48169819Y-54297744D01*
X47911485Y-54297744D01*
X47911485Y-54229887D01*
X47910044Y-54215255D01*
X47898845Y-54188219D01*
X47878153Y-54167527D01*
X47851117Y-54156328D01*
X47821853Y-54156328D01*
X47794817Y-54167527D01*
X47774125Y-54188219D01*
X47762926Y-54215255D01*
X47761485Y-54229887D01*
X47761485Y-54297744D01*
X47503152Y-54297744D01*
X47488520Y-54299185D01*
X47461484Y-54310384D01*
X47440792Y-54331076D01*
X47429593Y-54358112D01*
X47429593Y-54387376D01*
X47440792Y-54414412D01*
X47461484Y-54435104D01*
X47488520Y-54446303D01*
X47503152Y-54447744D01*
X47761485Y-54447744D01*
X47761485Y-54744877D01*
X47145917Y-54539688D01*
X47131580Y-54536428D01*
X47102390Y-54538503D01*
X47076217Y-54551589D01*
X47057043Y-54573696D01*
X47047789Y-54601459D01*
X46936678Y-54601459D01*
X46936678Y-53325125D01*
X47094819Y-53325125D01*
X47094819Y-53944172D01*
X47096260Y-53958804D01*
X47107459Y-53985840D01*
X47128151Y-54006532D01*
X47155187Y-54017731D01*
X47184451Y-54017731D01*
X47211487Y-54006532D01*
X47232179Y-53985840D01*
X47243378Y-53958804D01*
X47244819Y-53944172D01*
X47244819Y-53490407D01*
X47501383Y-53714901D01*
X47507707Y-53719422D01*
X47509103Y-53720818D01*
X47510426Y-53721366D01*
X47513344Y-53723452D01*
X47524881Y-53727353D01*
X47536139Y-53732017D01*
X47538670Y-53732017D01*
X47541065Y-53732827D01*
X47553218Y-53732017D01*
X47565403Y-53732017D01*
X47567739Y-53731049D01*
X47570263Y-53730881D01*
X47581188Y-53725478D01*
X47592439Y-53720818D01*
X47594225Y-53719031D01*
X47596495Y-53717909D01*
X47604520Y-53708736D01*
X47613131Y-53700126D01*
X47614099Y-53697789D01*
X47615765Y-53695885D01*
X47619666Y-53684347D01*
X47624330Y-53673090D01*
X47624681Y-53669519D01*
X47625140Y-53668164D01*
X47625008Y-53666196D01*
X47625771Y-53658458D01*
X47625771Y-53533306D01*
X47660029Y-53464790D01*
X47690436Y-53434383D01*
X47758952Y-53400125D01*
X47961637Y-53400125D01*
X48030153Y-53434383D01*
X48060561Y-53464790D01*
X48094819Y-53533306D01*
X48094819Y-53783610D01*
X48060561Y-53852125D01*
X48021548Y-53891138D01*
X48012220Y-53902504D01*
X48001021Y-53929540D01*
X48001021Y-53958803D01*
X48012219Y-53985839D01*
X48032912Y-54006532D01*
X48059948Y-54017731D01*
X48089211Y-54017731D01*
X48116247Y-54006533D01*
X48127612Y-53997206D01*
X48175232Y-53949587D01*
X48179950Y-53943837D01*
X48181450Y-53942537D01*
X48182872Y-53940277D01*
X48184560Y-53938221D01*
X48185317Y-53936393D01*
X48189282Y-53930094D01*
X48236901Y-53834856D01*
X48242156Y-53821125D01*
X48242347Y-53818435D01*
X48243378Y-53815947D01*
X48244819Y-53801315D01*
X48244819Y-53515601D01*
X48243378Y-53500969D01*
X48242347Y-53498480D01*
X48242156Y-53495791D01*
X48236901Y-53482060D01*
X48189282Y-53386822D01*
X48185317Y-53380522D01*
X48184560Y-53378695D01*
X48182872Y-53376638D01*
X48181450Y-53374379D01*
X48179950Y-53373078D01*
X48175232Y-53367329D01*
X48127612Y-53319710D01*
X48121863Y-53314992D01*
X48120564Y-53313494D01*
X48118305Y-53312072D01*
X48116247Y-53310383D01*
X48114417Y-53309625D01*
X48108121Y-53305662D01*
X48012883Y-53258043D01*
X47999151Y-53252788D01*
X47996463Y-53252597D01*
X47993974Y-53251566D01*
X47979342Y-53250125D01*
X47741247Y-53250125D01*
X47726615Y-53251566D01*
X47724126Y-53252596D01*
X47721437Y-53252788D01*
X47707706Y-53258043D01*
X47612468Y-53305662D01*
X47606168Y-53309626D01*
X47604341Y-53310384D01*
X47602284Y-53312072D01*
X47600025Y-53313494D01*
X47598725Y-53314992D01*
X47592976Y-53319711D01*
X47545357Y-53367330D01*
X47540638Y-53373079D01*
X47539140Y-53374379D01*
X47537718Y-53376638D01*
X47536030Y-53378695D01*
X47535272Y-53380522D01*
X47531308Y-53386822D01*
X47483689Y-53482060D01*
X47478516Y-53495577D01*
X47219207Y-53268682D01*
X47212882Y-53264160D01*
X47211487Y-53262765D01*
X47210163Y-53262216D01*
X47207246Y-53260131D01*
X47195708Y-53256229D01*
X47184451Y-53251566D01*
X47181920Y-53251566D01*
X47179525Y-53250756D01*
X47167372Y-53251566D01*
X47155187Y-53251566D01*
X47152850Y-53252533D01*
X47150327Y-53252702D01*
X47139401Y-53258104D01*
X47128151Y-53262765D01*
X47126364Y-53264551D01*
X47124095Y-53265674D01*
X47116069Y-53274846D01*
X47107459Y-53283457D01*
X47106490Y-53285793D01*
X47104825Y-53287698D01*
X47100923Y-53299235D01*
X47096260Y-53310493D01*
X47095908Y-53314063D01*
X47095450Y-53315419D01*
X47095581Y-53317386D01*
X47094819Y-53325125D01*
X46936678Y-53325125D01*
X46936678Y-52610839D01*
X47094819Y-52610839D01*
X47094819Y-52706077D01*
X47096260Y-52720709D01*
X47097291Y-52723198D01*
X47097482Y-52725886D01*
X47102737Y-52739618D01*
X47150356Y-52834856D01*
X47154320Y-52841155D01*
X47155078Y-52842983D01*
X47156766Y-52845039D01*
X47158188Y-52847299D01*
X47159686Y-52848598D01*
X47164405Y-52854348D01*
X47212024Y-52901967D01*
X47217773Y-52906685D01*
X47219073Y-52908184D01*
X47221332Y-52909605D01*
X47223389Y-52911294D01*
X47225216Y-52912051D01*
X47231516Y-52916016D01*
X47326754Y-52963635D01*
X47327823Y-52964044D01*
X47328259Y-52964367D01*
X47334395Y-52966559D01*
X47340485Y-52968890D01*
X47341025Y-52968928D01*
X47342105Y-52969314D01*
X47532581Y-53016933D01*
X47535117Y-53017308D01*
X47536139Y-53017731D01*
X47541651Y-53018273D01*
X47547125Y-53019083D01*
X47548217Y-53018920D01*
X47550771Y-53019172D01*
X47788866Y-53019172D01*
X47791419Y-53018920D01*
X47792512Y-53019083D01*
X47797985Y-53018273D01*
X47803498Y-53017731D01*
X47804519Y-53017308D01*
X47807056Y-53016933D01*
X47997532Y-52969314D01*
X47998611Y-52968928D01*
X47999151Y-52968890D01*
X48005232Y-52966562D01*
X48011378Y-52964367D01*
X48011813Y-52964044D01*
X48012883Y-52963635D01*
X48108121Y-52916016D01*
X48114417Y-52912052D01*
X48116247Y-52911295D01*
X48118305Y-52909605D01*
X48120564Y-52908184D01*
X48121863Y-52906685D01*
X48127612Y-52901968D01*
X48175232Y-52854349D01*
X48179950Y-52848599D01*
X48181450Y-52847299D01*
X48182872Y-52845039D01*
X48184560Y-52842983D01*
X48185317Y-52841155D01*
X48189282Y-52834856D01*
X48236901Y-52739618D01*
X48242156Y-52725887D01*
X48242347Y-52723197D01*
X48243378Y-52720709D01*
X48244819Y-52706077D01*
X48244819Y-52610839D01*
X48243378Y-52596207D01*
X48242347Y-52593718D01*
X48242156Y-52591029D01*
X48236901Y-52577298D01*
X48189282Y-52482060D01*
X48185317Y-52475760D01*
X48184560Y-52473933D01*
X48182872Y-52471876D01*
X48181450Y-52469617D01*
X48179950Y-52468316D01*
X48175232Y-52462567D01*
X48127612Y-52414948D01*
X48121863Y-52410230D01*
X48120564Y-52408732D01*
X48118305Y-52407310D01*
X48116247Y-52405621D01*
X48114417Y-52404863D01*
X48108121Y-52400900D01*
X48012883Y-52353281D01*
X48011813Y-52352871D01*
X48011378Y-52352549D01*
X48005232Y-52350353D01*
X47999151Y-52348026D01*
X47998611Y-52347987D01*
X47997532Y-52347602D01*
X47807056Y-52299983D01*
X47804519Y-52299607D01*
X47803498Y-52299185D01*
X47797985Y-52298642D01*
X47792512Y-52297833D01*
X47791419Y-52297995D01*
X47788866Y-52297744D01*
X47550771Y-52297744D01*
X47548217Y-52297995D01*
X47547125Y-52297833D01*
X47541651Y-52298642D01*
X47536139Y-52299185D01*
X47535117Y-52299607D01*
X47532581Y-52299983D01*
X47342105Y-52347602D01*
X47341025Y-52347987D01*
X47340485Y-52348026D01*
X47334395Y-52350356D01*
X47328259Y-52352549D01*
X47327823Y-52352871D01*
X47326754Y-52353281D01*
X47231516Y-52400900D01*
X47225216Y-52404864D01*
X47223389Y-52405622D01*
X47221332Y-52407310D01*
X47219073Y-52408732D01*
X47217773Y-52410230D01*
X47212024Y-52414949D01*
X47164405Y-52462568D01*
X47159686Y-52468317D01*
X47158188Y-52469617D01*
X47156766Y-52471876D01*
X47155078Y-52473933D01*
X47154320Y-52475760D01*
X47150356Y-52482060D01*
X47102737Y-52577298D01*
X47097482Y-52591030D01*
X47097291Y-52593717D01*
X47096260Y-52596207D01*
X47094819Y-52610839D01*
X46936678Y-52610839D01*
X46936678Y-52186633D01*
X48355930Y-52186633D01*
X48355930Y-56844569D01*
G37*
X84186398Y-96541269D02*
X84186398Y-97076983D01*
X84186398Y-97076983D02*
X84150683Y-97184126D01*
X84150683Y-97184126D02*
X84079255Y-97255555D01*
X84079255Y-97255555D02*
X83972112Y-97291269D01*
X83972112Y-97291269D02*
X83900683Y-97291269D01*
X84936398Y-97291269D02*
X84507827Y-97291269D01*
X84722112Y-97291269D02*
X84722112Y-96541269D01*
X84722112Y-96541269D02*
X84650684Y-96648412D01*
X84650684Y-96648412D02*
X84579255Y-96719840D01*
X84579255Y-96719840D02*
X84507827Y-96755555D01*
X85400684Y-96541269D02*
X85472113Y-96541269D01*
X85472113Y-96541269D02*
X85543541Y-96576983D01*
X85543541Y-96576983D02*
X85579256Y-96612697D01*
X85579256Y-96612697D02*
X85614970Y-96684126D01*
X85614970Y-96684126D02*
X85650684Y-96826983D01*
X85650684Y-96826983D02*
X85650684Y-97005555D01*
X85650684Y-97005555D02*
X85614970Y-97148412D01*
X85614970Y-97148412D02*
X85579256Y-97219840D01*
X85579256Y-97219840D02*
X85543541Y-97255555D01*
X85543541Y-97255555D02*
X85472113Y-97291269D01*
X85472113Y-97291269D02*
X85400684Y-97291269D01*
X85400684Y-97291269D02*
X85329256Y-97255555D01*
X85329256Y-97255555D02*
X85293541Y-97219840D01*
X85293541Y-97219840D02*
X85257827Y-97148412D01*
X85257827Y-97148412D02*
X85222113Y-97005555D01*
X85222113Y-97005555D02*
X85222113Y-96826983D01*
X85222113Y-96826983D02*
X85257827Y-96684126D01*
X85257827Y-96684126D02*
X85293541Y-96612697D01*
X85293541Y-96612697D02*
X85329256Y-96576983D01*
X85329256Y-96576983D02*
X85400684Y-96541269D01*
X86364970Y-97291269D02*
X85936399Y-97291269D01*
X86150684Y-97291269D02*
X86150684Y-96541269D01*
X86150684Y-96541269D02*
X86079256Y-96648412D01*
X86079256Y-96648412D02*
X86007827Y-96719840D01*
X86007827Y-96719840D02*
X85936399Y-96755555D01*
D11*
X59916666Y-73077190D02*
X59892857Y-73101000D01*
X59892857Y-73101000D02*
X59821428Y-73124809D01*
X59821428Y-73124809D02*
X59773809Y-73124809D01*
X59773809Y-73124809D02*
X59702381Y-73101000D01*
X59702381Y-73101000D02*
X59654762Y-73053380D01*
X59654762Y-73053380D02*
X59630952Y-73005761D01*
X59630952Y-73005761D02*
X59607143Y-72910523D01*
X59607143Y-72910523D02*
X59607143Y-72839095D01*
X59607143Y-72839095D02*
X59630952Y-72743857D01*
X59630952Y-72743857D02*
X59654762Y-72696238D01*
X59654762Y-72696238D02*
X59702381Y-72648619D01*
X59702381Y-72648619D02*
X59773809Y-72624809D01*
X59773809Y-72624809D02*
X59821428Y-72624809D01*
X59821428Y-72624809D02*
X59892857Y-72648619D01*
X59892857Y-72648619D02*
X59916666Y-72672428D01*
X60345238Y-72791476D02*
X60345238Y-73124809D01*
X60226190Y-72601000D02*
X60107143Y-72958142D01*
X60107143Y-72958142D02*
X60416666Y-72958142D01*
X60116666Y-70177190D02*
X60092857Y-70201000D01*
X60092857Y-70201000D02*
X60021428Y-70224809D01*
X60021428Y-70224809D02*
X59973809Y-70224809D01*
X59973809Y-70224809D02*
X59902381Y-70201000D01*
X59902381Y-70201000D02*
X59854762Y-70153380D01*
X59854762Y-70153380D02*
X59830952Y-70105761D01*
X59830952Y-70105761D02*
X59807143Y-70010523D01*
X59807143Y-70010523D02*
X59807143Y-69939095D01*
X59807143Y-69939095D02*
X59830952Y-69843857D01*
X59830952Y-69843857D02*
X59854762Y-69796238D01*
X59854762Y-69796238D02*
X59902381Y-69748619D01*
X59902381Y-69748619D02*
X59973809Y-69724809D01*
X59973809Y-69724809D02*
X60021428Y-69724809D01*
X60021428Y-69724809D02*
X60092857Y-69748619D01*
X60092857Y-69748619D02*
X60116666Y-69772428D01*
X60545238Y-69724809D02*
X60450000Y-69724809D01*
X60450000Y-69724809D02*
X60402381Y-69748619D01*
X60402381Y-69748619D02*
X60378571Y-69772428D01*
X60378571Y-69772428D02*
X60330952Y-69843857D01*
X60330952Y-69843857D02*
X60307143Y-69939095D01*
X60307143Y-69939095D02*
X60307143Y-70129571D01*
X60307143Y-70129571D02*
X60330952Y-70177190D01*
X60330952Y-70177190D02*
X60354762Y-70201000D01*
X60354762Y-70201000D02*
X60402381Y-70224809D01*
X60402381Y-70224809D02*
X60497619Y-70224809D01*
X60497619Y-70224809D02*
X60545238Y-70201000D01*
X60545238Y-70201000D02*
X60569047Y-70177190D01*
X60569047Y-70177190D02*
X60592857Y-70129571D01*
X60592857Y-70129571D02*
X60592857Y-70010523D01*
X60592857Y-70010523D02*
X60569047Y-69962904D01*
X60569047Y-69962904D02*
X60545238Y-69939095D01*
X60545238Y-69939095D02*
X60497619Y-69915285D01*
X60497619Y-69915285D02*
X60402381Y-69915285D01*
X60402381Y-69915285D02*
X60354762Y-69939095D01*
X60354762Y-69939095D02*
X60330952Y-69962904D01*
X60330952Y-69962904D02*
X60307143Y-70010523D01*
X62016666Y-70177190D02*
X61992857Y-70201000D01*
X61992857Y-70201000D02*
X61921428Y-70224809D01*
X61921428Y-70224809D02*
X61873809Y-70224809D01*
X61873809Y-70224809D02*
X61802381Y-70201000D01*
X61802381Y-70201000D02*
X61754762Y-70153380D01*
X61754762Y-70153380D02*
X61730952Y-70105761D01*
X61730952Y-70105761D02*
X61707143Y-70010523D01*
X61707143Y-70010523D02*
X61707143Y-69939095D01*
X61707143Y-69939095D02*
X61730952Y-69843857D01*
X61730952Y-69843857D02*
X61754762Y-69796238D01*
X61754762Y-69796238D02*
X61802381Y-69748619D01*
X61802381Y-69748619D02*
X61873809Y-69724809D01*
X61873809Y-69724809D02*
X61921428Y-69724809D01*
X61921428Y-69724809D02*
X61992857Y-69748619D01*
X61992857Y-69748619D02*
X62016666Y-69772428D01*
X62469047Y-69724809D02*
X62230952Y-69724809D01*
X62230952Y-69724809D02*
X62207143Y-69962904D01*
X62207143Y-69962904D02*
X62230952Y-69939095D01*
X62230952Y-69939095D02*
X62278571Y-69915285D01*
X62278571Y-69915285D02*
X62397619Y-69915285D01*
X62397619Y-69915285D02*
X62445238Y-69939095D01*
X62445238Y-69939095D02*
X62469047Y-69962904D01*
X62469047Y-69962904D02*
X62492857Y-70010523D01*
X62492857Y-70010523D02*
X62492857Y-70129571D01*
X62492857Y-70129571D02*
X62469047Y-70177190D01*
X62469047Y-70177190D02*
X62445238Y-70201000D01*
X62445238Y-70201000D02*
X62397619Y-70224809D01*
X62397619Y-70224809D02*
X62278571Y-70224809D01*
X62278571Y-70224809D02*
X62230952Y-70201000D01*
X62230952Y-70201000D02*
X62207143Y-70177190D01*
X73057190Y-62123333D02*
X73081000Y-62147142D01*
X73081000Y-62147142D02*
X73104809Y-62218571D01*
X73104809Y-62218571D02*
X73104809Y-62266190D01*
X73104809Y-62266190D02*
X73081000Y-62337618D01*
X73081000Y-62337618D02*
X73033380Y-62385237D01*
X73033380Y-62385237D02*
X72985761Y-62409047D01*
X72985761Y-62409047D02*
X72890523Y-62432856D01*
X72890523Y-62432856D02*
X72819095Y-62432856D01*
X72819095Y-62432856D02*
X72723857Y-62409047D01*
X72723857Y-62409047D02*
X72676238Y-62385237D01*
X72676238Y-62385237D02*
X72628619Y-62337618D01*
X72628619Y-62337618D02*
X72604809Y-62266190D01*
X72604809Y-62266190D02*
X72604809Y-62218571D01*
X72604809Y-62218571D02*
X72628619Y-62147142D01*
X72628619Y-62147142D02*
X72652428Y-62123333D01*
X73104809Y-61647142D02*
X73104809Y-61932856D01*
X73104809Y-61789999D02*
X72604809Y-61789999D01*
X72604809Y-61789999D02*
X72676238Y-61837618D01*
X72676238Y-61837618D02*
X72723857Y-61885237D01*
X72723857Y-61885237D02*
X72747666Y-61932856D01*
D10*
X60104819Y-65166666D02*
X59628628Y-65499999D01*
X60104819Y-65738094D02*
X59104819Y-65738094D01*
X59104819Y-65738094D02*
X59104819Y-65357142D01*
X59104819Y-65357142D02*
X59152438Y-65261904D01*
X59152438Y-65261904D02*
X59200057Y-65214285D01*
X59200057Y-65214285D02*
X59295295Y-65166666D01*
X59295295Y-65166666D02*
X59438152Y-65166666D01*
X59438152Y-65166666D02*
X59533390Y-65214285D01*
X59533390Y-65214285D02*
X59581009Y-65261904D01*
X59581009Y-65261904D02*
X59628628Y-65357142D01*
X59628628Y-65357142D02*
X59628628Y-65738094D01*
X60104819Y-64214285D02*
X60104819Y-64785713D01*
X60104819Y-64499999D02*
X59104819Y-64499999D01*
X59104819Y-64499999D02*
X59247676Y-64595237D01*
X59247676Y-64595237D02*
X59342914Y-64690475D01*
X59342914Y-64690475D02*
X59390533Y-64785713D01*
X97889164Y-60249999D02*
X98424878Y-60249999D01*
X98424878Y-60249999D02*
X98532021Y-60285714D01*
X98532021Y-60285714D02*
X98603450Y-60357142D01*
X98603450Y-60357142D02*
X98639164Y-60464285D01*
X98639164Y-60464285D02*
X98639164Y-60535714D01*
X98639164Y-59499999D02*
X98639164Y-59928570D01*
X98639164Y-59714285D02*
X97889164Y-59714285D01*
X97889164Y-59714285D02*
X97996307Y-59785713D01*
X97996307Y-59785713D02*
X98067735Y-59857142D01*
X98067735Y-59857142D02*
X98103450Y-59928570D01*
X81458450Y-71169999D02*
X81494164Y-71062857D01*
X81494164Y-71062857D02*
X81494164Y-70884285D01*
X81494164Y-70884285D02*
X81458450Y-70812857D01*
X81458450Y-70812857D02*
X81422735Y-70777142D01*
X81422735Y-70777142D02*
X81351307Y-70741428D01*
X81351307Y-70741428D02*
X81279878Y-70741428D01*
X81279878Y-70741428D02*
X81208450Y-70777142D01*
X81208450Y-70777142D02*
X81172735Y-70812857D01*
X81172735Y-70812857D02*
X81137021Y-70884285D01*
X81137021Y-70884285D02*
X81101307Y-71027142D01*
X81101307Y-71027142D02*
X81065592Y-71098571D01*
X81065592Y-71098571D02*
X81029878Y-71134285D01*
X81029878Y-71134285D02*
X80958450Y-71169999D01*
X80958450Y-71169999D02*
X80887021Y-71169999D01*
X80887021Y-71169999D02*
X80815592Y-71134285D01*
X80815592Y-71134285D02*
X80779878Y-71098571D01*
X80779878Y-71098571D02*
X80744164Y-71027142D01*
X80744164Y-71027142D02*
X80744164Y-70848571D01*
X80744164Y-70848571D02*
X80779878Y-70741428D01*
X80744164Y-70491428D02*
X81494164Y-70312856D01*
X81494164Y-70312856D02*
X80958450Y-70169999D01*
X80958450Y-70169999D02*
X81494164Y-70027142D01*
X81494164Y-70027142D02*
X80744164Y-69848571D01*
X81494164Y-69169999D02*
X81494164Y-69598570D01*
X81494164Y-69384285D02*
X80744164Y-69384285D01*
X80744164Y-69384285D02*
X80851307Y-69455713D01*
X80851307Y-69455713D02*
X80922735Y-69527142D01*
X80922735Y-69527142D02*
X80958450Y-69598570D01*
D11*
X65016666Y-62777190D02*
X64992857Y-62801000D01*
X64992857Y-62801000D02*
X64921428Y-62824809D01*
X64921428Y-62824809D02*
X64873809Y-62824809D01*
X64873809Y-62824809D02*
X64802381Y-62801000D01*
X64802381Y-62801000D02*
X64754762Y-62753380D01*
X64754762Y-62753380D02*
X64730952Y-62705761D01*
X64730952Y-62705761D02*
X64707143Y-62610523D01*
X64707143Y-62610523D02*
X64707143Y-62539095D01*
X64707143Y-62539095D02*
X64730952Y-62443857D01*
X64730952Y-62443857D02*
X64754762Y-62396238D01*
X64754762Y-62396238D02*
X64802381Y-62348619D01*
X64802381Y-62348619D02*
X64873809Y-62324809D01*
X64873809Y-62324809D02*
X64921428Y-62324809D01*
X64921428Y-62324809D02*
X64992857Y-62348619D01*
X64992857Y-62348619D02*
X65016666Y-62372428D01*
X65207143Y-62372428D02*
X65230952Y-62348619D01*
X65230952Y-62348619D02*
X65278571Y-62324809D01*
X65278571Y-62324809D02*
X65397619Y-62324809D01*
X65397619Y-62324809D02*
X65445238Y-62348619D01*
X65445238Y-62348619D02*
X65469047Y-62372428D01*
X65469047Y-62372428D02*
X65492857Y-62420047D01*
X65492857Y-62420047D02*
X65492857Y-62467666D01*
X65492857Y-62467666D02*
X65469047Y-62539095D01*
X65469047Y-62539095D02*
X65183333Y-62824809D01*
X65183333Y-62824809D02*
X65492857Y-62824809D01*
X61516666Y-73077190D02*
X61492857Y-73101000D01*
X61492857Y-73101000D02*
X61421428Y-73124809D01*
X61421428Y-73124809D02*
X61373809Y-73124809D01*
X61373809Y-73124809D02*
X61302381Y-73101000D01*
X61302381Y-73101000D02*
X61254762Y-73053380D01*
X61254762Y-73053380D02*
X61230952Y-73005761D01*
X61230952Y-73005761D02*
X61207143Y-72910523D01*
X61207143Y-72910523D02*
X61207143Y-72839095D01*
X61207143Y-72839095D02*
X61230952Y-72743857D01*
X61230952Y-72743857D02*
X61254762Y-72696238D01*
X61254762Y-72696238D02*
X61302381Y-72648619D01*
X61302381Y-72648619D02*
X61373809Y-72624809D01*
X61373809Y-72624809D02*
X61421428Y-72624809D01*
X61421428Y-72624809D02*
X61492857Y-72648619D01*
X61492857Y-72648619D02*
X61516666Y-72672428D01*
X61683333Y-72624809D02*
X61992857Y-72624809D01*
X61992857Y-72624809D02*
X61826190Y-72815285D01*
X61826190Y-72815285D02*
X61897619Y-72815285D01*
X61897619Y-72815285D02*
X61945238Y-72839095D01*
X61945238Y-72839095D02*
X61969047Y-72862904D01*
X61969047Y-72862904D02*
X61992857Y-72910523D01*
X61992857Y-72910523D02*
X61992857Y-73029571D01*
X61992857Y-73029571D02*
X61969047Y-73077190D01*
X61969047Y-73077190D02*
X61945238Y-73101000D01*
X61945238Y-73101000D02*
X61897619Y-73124809D01*
X61897619Y-73124809D02*
X61754762Y-73124809D01*
X61754762Y-73124809D02*
X61707143Y-73101000D01*
X61707143Y-73101000D02*
X61683333Y-73077190D01*
D10*
X41289164Y-80449999D02*
X41824878Y-80449999D01*
X41824878Y-80449999D02*
X41932021Y-80485714D01*
X41932021Y-80485714D02*
X42003450Y-80557142D01*
X42003450Y-80557142D02*
X42039164Y-80664285D01*
X42039164Y-80664285D02*
X42039164Y-80735714D01*
X41289164Y-80164285D02*
X41289164Y-79699999D01*
X41289164Y-79699999D02*
X41574878Y-79949999D01*
X41574878Y-79949999D02*
X41574878Y-79842856D01*
X41574878Y-79842856D02*
X41610592Y-79771428D01*
X41610592Y-79771428D02*
X41646307Y-79735713D01*
X41646307Y-79735713D02*
X41717735Y-79699999D01*
X41717735Y-79699999D02*
X41896307Y-79699999D01*
X41896307Y-79699999D02*
X41967735Y-79735713D01*
X41967735Y-79735713D02*
X42003450Y-79771428D01*
X42003450Y-79771428D02*
X42039164Y-79842856D01*
X42039164Y-79842856D02*
X42039164Y-80057142D01*
X42039164Y-80057142D02*
X42003450Y-80128570D01*
X42003450Y-80128570D02*
X41967735Y-80164285D01*
D12*
%TO.C,U103*%
X74090000Y-81740000D02*
X75350000Y-81740000D01*
X74090000Y-85500000D02*
X74090000Y-81740000D01*
X80910000Y-81740000D02*
X79650000Y-81740000D01*
X80910000Y-85500000D02*
X80910000Y-81740000D01*
X74190000Y-86780000D02*
X73860000Y-87020000D01*
X73860000Y-86540000D01*
X74190000Y-86780000D01*
G36*
X74190000Y-86780000D02*
G01*
X73860000Y-87020000D01*
X73860000Y-86540000D01*
X74190000Y-86780000D01*
G37*
%TO.C,C4*%
X59992164Y-71640000D02*
X60207836Y-71640000D01*
X59992164Y-72360000D02*
X60207836Y-72360000D01*
%TO.C,C6*%
X60207836Y-70540000D02*
X59992164Y-70540000D01*
X60207836Y-71260000D02*
X59992164Y-71260000D01*
%TO.C,C101*%
X66392164Y-61040000D02*
X66607836Y-61040000D01*
X66392164Y-61760000D02*
X66607836Y-61760000D01*
%TO.C,R109*%
X49783859Y-58350000D02*
X50091141Y-58350000D01*
X49783859Y-59110000D02*
X50091141Y-59110000D01*
%TO.C,C5*%
X61992164Y-70540000D02*
X62207836Y-70540000D01*
X61992164Y-71260000D02*
X62207836Y-71260000D01*
%TO.C,R103*%
X82256359Y-55720000D02*
X82563641Y-55720000D01*
X82256359Y-56480000D02*
X82563641Y-56480000D01*
%TO.C,C1*%
X71640000Y-62107836D02*
X71640000Y-61892164D01*
X72360000Y-62107836D02*
X72360000Y-61892164D01*
%TO.C,C103*%
X77040000Y-66492164D02*
X77040000Y-66707836D01*
X77760000Y-66492164D02*
X77760000Y-66707836D01*
%TO.C,D102*%
X84360000Y-58585000D02*
X86645000Y-58585000D01*
X86645000Y-57115000D02*
X84360000Y-57115000D01*
X86645000Y-58585000D02*
X86645000Y-57115000D01*
%TO.C,J105*%
X85085000Y-76870000D02*
X85085000Y-76805000D01*
X85085000Y-85815000D02*
X85085000Y-85750000D01*
X88615000Y-76805000D02*
X85085000Y-76805000D01*
X88615000Y-76870000D02*
X88615000Y-76805000D01*
X88615000Y-85815000D02*
X85085000Y-85815000D01*
X88615000Y-85815000D02*
X88615000Y-85750000D01*
X89940000Y-85750000D02*
X88615000Y-85750000D01*
%TO.C,C104*%
X62240000Y-73607836D02*
X62240000Y-73392164D01*
X62960000Y-73607836D02*
X62960000Y-73392164D01*
%TO.C,U1*%
X64885000Y-64880000D02*
X65835000Y-64880000D01*
X64885000Y-65830000D02*
X64885000Y-64880000D01*
X64885000Y-74150000D02*
X64885000Y-75100000D01*
X64885000Y-75100000D02*
X65835000Y-75100000D01*
X75105000Y-64880000D02*
X74155000Y-64880000D01*
X75105000Y-65830000D02*
X75105000Y-64880000D01*
X75105000Y-74150000D02*
X75105000Y-75100000D01*
X75105000Y-75100000D02*
X74155000Y-75100000D01*
X74625000Y-64605000D02*
X74155000Y-64265000D01*
X74625000Y-63925000D01*
X74625000Y-64605000D01*
G36*
X74625000Y-64605000D02*
G01*
X74155000Y-64265000D01*
X74625000Y-63925000D01*
X74625000Y-64605000D01*
G37*
%TO.C,C107*%
X68140000Y-82041937D02*
X68140000Y-86497500D01*
X68140000Y-86497500D02*
X69840000Y-86497500D01*
X69204437Y-80977500D02*
X68140000Y-82041937D01*
X69204437Y-80977500D02*
X69840000Y-80977500D01*
X72595563Y-80977500D02*
X71960000Y-80977500D01*
X72595563Y-80977500D02*
X73660000Y-82041937D01*
X73660000Y-82041937D02*
X73660000Y-86497500D01*
X73660000Y-86497500D02*
X71960000Y-86497500D01*
%TO.C,C106*%
X81340000Y-86457836D02*
X81340000Y-86242164D01*
X82060000Y-86457836D02*
X82060000Y-86242164D01*
%TO.C,D105*%
X51587500Y-61235000D02*
X53872500Y-61235000D01*
X53872500Y-59765000D02*
X51587500Y-59765000D01*
X53872500Y-61235000D02*
X53872500Y-59765000D01*
%TO.C,R1*%
X57265000Y-64772936D02*
X57265000Y-65227064D01*
X58735000Y-64772936D02*
X58735000Y-65227064D01*
%TO.C,D101*%
X84360000Y-56835000D02*
X86645000Y-56835000D01*
X86645000Y-55365000D02*
X84360000Y-55365000D01*
X86645000Y-56835000D02*
X86645000Y-55365000D01*
%TO.C,R105*%
X82256359Y-59220000D02*
X82563641Y-59220000D01*
X82256359Y-59980000D02*
X82563641Y-59980000D01*
%TO.C,J103*%
X42390000Y-63490000D02*
X42390000Y-73710000D01*
X42390000Y-73710000D02*
X46410000Y-73710000D01*
X42890000Y-63990000D02*
X44100000Y-63990000D01*
X42890000Y-73210000D02*
X42890000Y-63990000D01*
X44100000Y-63990000D02*
X44100000Y-63490000D01*
X44100000Y-73210000D02*
X42890000Y-73210000D01*
X44100000Y-73710000D02*
X44100000Y-73210000D01*
X44210000Y-74010000D02*
X46710000Y-74010000D01*
X44910000Y-63490000D02*
X44910000Y-64490000D01*
X44910000Y-64490000D02*
X46410000Y-64490000D01*
X44910000Y-72710000D02*
X46410000Y-72710000D01*
X44910000Y-73710000D02*
X44910000Y-72710000D01*
X46410000Y-63490000D02*
X42390000Y-63490000D01*
X46410000Y-73710000D02*
X46410000Y-63490000D01*
X46710000Y-74010000D02*
X46710000Y-71510000D01*
%TO.C,J1*%
X93290000Y-54090000D02*
X93290000Y-56590000D01*
X93590000Y-54390000D02*
X93590000Y-67110000D01*
X93590000Y-67110000D02*
X97610000Y-67110000D01*
X95090000Y-54390000D02*
X95090000Y-55390000D01*
X95090000Y-55390000D02*
X93590000Y-55390000D01*
X95090000Y-66110000D02*
X93590000Y-66110000D01*
X95090000Y-67110000D02*
X95090000Y-66110000D01*
X95790000Y-54090000D02*
X93290000Y-54090000D01*
X95900000Y-54390000D02*
X95900000Y-54890000D01*
X95900000Y-54890000D02*
X97110000Y-54890000D01*
X95900000Y-66610000D02*
X95900000Y-67110000D01*
X97110000Y-54890000D02*
X97110000Y-66610000D01*
X97110000Y-66610000D02*
X95900000Y-66610000D01*
X97610000Y-54390000D02*
X93590000Y-54390000D01*
X97610000Y-67110000D02*
X97610000Y-54390000D01*
%TO.C,SW1*%
X81975000Y-66940000D02*
X82005000Y-66940000D01*
X81975000Y-73400000D02*
X81975000Y-66940000D01*
X82005000Y-73400000D02*
X81975000Y-73400000D01*
X83905000Y-66940000D02*
X86505000Y-66940000D01*
X83905000Y-73400000D02*
X86505000Y-73400000D01*
X88435000Y-66940000D02*
X88405000Y-66940000D01*
X88435000Y-73400000D02*
X88405000Y-73400000D01*
X88435000Y-73400000D02*
X88435000Y-66940000D01*
%TO.C,SW101*%
D13*
X55300000Y-89950000D02*
X68200000Y-89950000D01*
X68200000Y-96750000D01*
X55300000Y-96750000D01*
X55300000Y-89950000D01*
D12*
%TO.C,D104*%
X51587500Y-62915000D02*
X53872500Y-62915000D01*
X53872500Y-61445000D02*
X51587500Y-61445000D01*
X53872500Y-62915000D02*
X53872500Y-61445000D01*
%TO.C,R801*%
X51643641Y-76195000D02*
X51336359Y-76195000D01*
X51643641Y-76955000D02*
X51336359Y-76955000D01*
%TO.C,C801*%
X49677836Y-76215000D02*
X49462164Y-76215000D01*
X49677836Y-76935000D02*
X49462164Y-76935000D01*
%TO.C,U104*%
D13*
X55750000Y-80900000D02*
X67750000Y-80900000D01*
X67750000Y-89800000D01*
X55750000Y-89800000D01*
X55750000Y-80900000D01*
D12*
%TO.C,D106*%
X51587500Y-59735000D02*
X53872500Y-59735000D01*
X53872500Y-58265000D02*
X51587500Y-58265000D01*
X53872500Y-59735000D02*
X53872500Y-58265000D01*
%TO.C,R108*%
X49783859Y-60100000D02*
X50091141Y-60100000D01*
X49783859Y-60860000D02*
X50091141Y-60860000D01*
%TO.C,R802*%
X53533641Y-76195000D02*
X53226359Y-76195000D01*
X53533641Y-76955000D02*
X53226359Y-76955000D01*
%TO.C,D103*%
X84360000Y-60335000D02*
X86645000Y-60335000D01*
X86645000Y-58865000D02*
X84360000Y-58865000D01*
X86645000Y-60335000D02*
X86645000Y-58865000D01*
%TO.C,R107*%
X49783859Y-62050000D02*
X50091141Y-62050000D01*
X49783859Y-62810000D02*
X50091141Y-62810000D01*
%TO.C,C2*%
X66392164Y-62240000D02*
X66607836Y-62240000D01*
X66392164Y-62960000D02*
X66607836Y-62960000D01*
%TO.C,C3*%
X62207836Y-71640000D02*
X61992164Y-71640000D01*
X62207836Y-72360000D02*
X61992164Y-72360000D01*
%TO.C,J101*%
X69075000Y-89200000D02*
X69075000Y-97500000D01*
X69075000Y-97500000D02*
X81925000Y-97500000D01*
X81925000Y-89200000D02*
X69075000Y-89200000D01*
X81925000Y-97500000D02*
X84775000Y-94950000D01*
X84775000Y-91800000D02*
X81925000Y-89200000D01*
X84775000Y-94950000D02*
X84775000Y-91800000D01*
%TO.C,SW801*%
X48420000Y-78845000D02*
X48420000Y-85305000D01*
X48420000Y-78845000D02*
X48450000Y-78845000D01*
X48420000Y-85305000D02*
X48450000Y-85305000D01*
X52950000Y-78845000D02*
X50350000Y-78845000D01*
X52950000Y-85305000D02*
X50350000Y-85305000D01*
X54850000Y-78845000D02*
X54880000Y-78845000D01*
X54880000Y-78845000D02*
X54880000Y-85305000D01*
X54880000Y-85305000D02*
X54850000Y-85305000D01*
%TO.C,J3*%
X42390000Y-74490000D02*
X42390000Y-87210000D01*
X42390000Y-87210000D02*
X46410000Y-87210000D01*
X42890000Y-74990000D02*
X44100000Y-74990000D01*
X42890000Y-86710000D02*
X42890000Y-74990000D01*
X44100000Y-74990000D02*
X44100000Y-74490000D01*
X44100000Y-86710000D02*
X42890000Y-86710000D01*
X44100000Y-87210000D02*
X44100000Y-86710000D01*
X44210000Y-87510000D02*
X46710000Y-87510000D01*
X44910000Y-74490000D02*
X44910000Y-75490000D01*
X44910000Y-75490000D02*
X46410000Y-75490000D01*
X44910000Y-86210000D02*
X46410000Y-86210000D01*
X44910000Y-87210000D02*
X44910000Y-86210000D01*
X46410000Y-74490000D02*
X42390000Y-74490000D01*
X46410000Y-87210000D02*
X46410000Y-74490000D01*
X46710000Y-87510000D02*
X46710000Y-85010000D01*
%TO.C,J2*%
X93290000Y-67690000D02*
X93290000Y-70190000D01*
X93590000Y-67990000D02*
X93590000Y-85710000D01*
X93590000Y-85710000D02*
X97610000Y-85710000D01*
X95090000Y-67990000D02*
X95090000Y-68990000D01*
X95090000Y-68990000D02*
X93590000Y-68990000D01*
X95090000Y-84710000D02*
X93590000Y-84710000D01*
X95090000Y-85710000D02*
X95090000Y-84710000D01*
X95790000Y-67690000D02*
X93290000Y-67690000D01*
X95900000Y-67990000D02*
X95900000Y-68490000D01*
X95900000Y-68490000D02*
X97110000Y-68490000D01*
X95900000Y-85210000D02*
X95900000Y-85710000D01*
X97110000Y-68490000D02*
X97110000Y-85210000D01*
X97110000Y-85210000D02*
X95900000Y-85210000D01*
X97610000Y-67990000D02*
X93590000Y-67990000D01*
X97610000Y-85710000D02*
X97610000Y-67990000D01*
%TO.C,C102*%
X73607836Y-77040000D02*
X73392164Y-77040000D01*
X73607836Y-77760000D02*
X73392164Y-77760000D01*
%TO.C,R104*%
X82256359Y-57470000D02*
X82563641Y-57470000D01*
X82256359Y-58230000D02*
X82563641Y-58230000D01*
%TO.C,R102*%
X65353641Y-57820000D02*
X65046359Y-57820000D01*
X65353641Y-58580000D02*
X65046359Y-58580000D01*
D14*
%TO.C,J104*%
X50210699Y-39872992D02*
X50210699Y-54826992D01*
X50210699Y-54826992D02*
X89809299Y-54826992D01*
X51622799Y-33675392D02*
X55077199Y-33675392D01*
X51622799Y-39872992D02*
X51622799Y-33675392D01*
X55077199Y-33675392D02*
X55077199Y-39872992D01*
X57398899Y-33675392D02*
X57398899Y-40126992D01*
X57398899Y-40126992D02*
X82621099Y-40126992D01*
X82621099Y-33675392D02*
X57398899Y-33675392D01*
X82621099Y-40126992D02*
X82621099Y-33675392D01*
X84942799Y-33675392D02*
X88397199Y-33675392D01*
X84942799Y-39872992D02*
X84942799Y-33675392D01*
X88397199Y-33675392D02*
X88397199Y-39872992D01*
X89809299Y-39872992D02*
X50210699Y-39872992D01*
X89809299Y-54826992D02*
X89809299Y-39872992D01*
D12*
%TO.C,R101*%
X63046359Y-57820000D02*
X63353641Y-57820000D01*
X63046359Y-58580000D02*
X63353641Y-58580000D01*
%TO.C,J102*%
X42390000Y-52390000D02*
X42390000Y-62610000D01*
X42390000Y-62610000D02*
X46410000Y-62610000D01*
X42890000Y-52890000D02*
X44100000Y-52890000D01*
X42890000Y-62110000D02*
X42890000Y-52890000D01*
X44100000Y-52890000D02*
X44100000Y-52390000D01*
X44100000Y-62110000D02*
X42890000Y-62110000D01*
X44100000Y-62610000D02*
X44100000Y-62110000D01*
X44210000Y-62910000D02*
X46710000Y-62910000D01*
X44910000Y-52390000D02*
X44910000Y-53390000D01*
X44910000Y-53390000D02*
X46410000Y-53390000D01*
X44910000Y-61610000D02*
X46410000Y-61610000D01*
X44910000Y-62610000D02*
X44910000Y-61610000D01*
X46410000Y-52390000D02*
X42390000Y-52390000D01*
X46410000Y-62610000D02*
X46410000Y-52390000D01*
X46710000Y-62910000D02*
X46710000Y-60410000D01*
%TD*%
M02*
