%TF.GenerationSoftware,KiCad,Pcbnew,8.0.0*%
%TF.CreationDate,2024-10-22T21:16:36+02:00*%
%TF.ProjectId,ProjetCorps,50726f6a-6574-4436-9f72-70732e6b6963,rev?*%
%TF.SameCoordinates,Original*%
%TF.FileFunction,Paste,Top*%
%TF.FilePolarity,Positive*%
%FSLAX46Y46*%
G04 Gerber Fmt 4.6, Leading zero omitted, Abs format (unit mm)*
G04 Created by KiCad (PCBNEW 8.0.0) date 2024-10-22 21:16:36*
%MOMM*%
%LPD*%
G01*
G04 APERTURE LIST*
G04 Aperture macros list*
%AMRoundRect*
0 Rectangle with rounded corners*
0 $1 Rounding radius*
0 $2 $3 $4 $5 $6 $7 $8 $9 X,Y pos of 4 corners*
0 Add a 4 corners polygon primitive as box body*
4,1,4,$2,$3,$4,$5,$6,$7,$8,$9,$2,$3,0*
0 Add four circle primitives for the rounded corners*
1,1,$1+$1,$2,$3*
1,1,$1+$1,$4,$5*
1,1,$1+$1,$6,$7*
1,1,$1+$1,$8,$9*
0 Add four rect primitives between the rounded corners*
20,1,$1+$1,$2,$3,$4,$5,0*
20,1,$1+$1,$4,$5,$6,$7,0*
20,1,$1+$1,$6,$7,$8,$9,0*
20,1,$1+$1,$8,$9,$2,$3,0*%
G04 Aperture macros list end*
%ADD10RoundRect,0.300000X0.300000X-0.500000X0.300000X0.500000X-0.300000X0.500000X-0.300000X-0.500000X0*%
%ADD11RoundRect,0.400000X1.120000X-0.400000X1.120000X0.400000X-1.120000X0.400000X-1.120000X-0.400000X0*%
%ADD12RoundRect,0.112000X-0.112000X-0.136000X0.112000X-0.136000X0.112000X0.136000X-0.112000X0.136000X0*%
%ADD13RoundRect,0.112000X0.112000X0.136000X-0.112000X0.136000X-0.112000X-0.136000X0.112000X-0.136000X0*%
%ADD14RoundRect,0.108000X-0.108000X-0.148000X0.108000X-0.148000X0.108000X0.148000X-0.108000X0.148000X0*%
%ADD15RoundRect,0.112000X0.136000X-0.112000X0.136000X0.112000X-0.136000X0.112000X-0.136000X-0.112000X0*%
%ADD16RoundRect,0.112000X-0.136000X0.112000X-0.136000X-0.112000X0.136000X-0.112000X0.136000X0.112000X0*%
%ADD17RoundRect,0.175000X0.175000X0.205000X-0.175000X0.205000X-0.175000X-0.205000X0.175000X-0.205000X0*%
%ADD18R,1.920000X0.592000*%
%ADD19RoundRect,0.060000X-0.060000X0.560000X-0.060000X-0.560000X0.060000X-0.560000X0.060000X0.560000X0*%
%ADD20RoundRect,0.060000X-0.560000X0.060000X-0.560000X-0.060000X0.560000X-0.060000X0.560000X0.060000X0*%
%ADD21RoundRect,0.200000X-0.440000X0.910000X-0.440000X-0.910000X0.440000X-0.910000X0.440000X0.910000X0*%
%ADD22R,1.040000X1.240000*%
%ADD23RoundRect,0.108000X0.108000X0.148000X-0.108000X0.148000X-0.108000X-0.148000X0.108000X-0.148000X0*%
G04 APERTURE END LIST*
D10*
%TO.C,U103*%
X75200000Y-86800000D03*
X77500000Y-86800000D03*
D11*
X77500000Y-80500000D03*
D10*
X79800000Y-86800000D03*
%TD*%
D12*
%TO.C,C4*%
X59620000Y-72000000D03*
X60580000Y-72000000D03*
%TD*%
D13*
%TO.C,C6*%
X60580000Y-70900000D03*
X59620000Y-70900000D03*
%TD*%
D12*
%TO.C,C101*%
X66020000Y-61400000D03*
X66980000Y-61400000D03*
%TD*%
D14*
%TO.C,R109*%
X49427500Y-58730000D03*
X50447500Y-58730000D03*
%TD*%
D12*
%TO.C,C5*%
X61620000Y-70900000D03*
X62580000Y-70900000D03*
%TD*%
D14*
%TO.C,R103*%
X81900000Y-56100000D03*
X82920000Y-56100000D03*
%TD*%
D15*
%TO.C,C1*%
X72000000Y-62480000D03*
X72000000Y-61520000D03*
%TD*%
D16*
%TO.C,C103*%
X77400000Y-66120000D03*
X77400000Y-67080000D03*
%TD*%
D17*
%TO.C,D102*%
X85947500Y-57850000D03*
X84372500Y-57850000D03*
%TD*%
D18*
%TO.C,J105*%
X88800000Y-85120000D03*
X84900000Y-85120000D03*
X88800000Y-83850000D03*
X84900000Y-83850000D03*
X88800000Y-82580000D03*
X84900000Y-82580000D03*
X88800000Y-81310000D03*
X84900000Y-81310000D03*
X88800000Y-80040000D03*
X84900000Y-80040000D03*
X88800000Y-78770000D03*
X84900000Y-78770000D03*
X88800000Y-77500000D03*
X84900000Y-77500000D03*
%TD*%
D15*
%TO.C,C104*%
X62600000Y-73980000D03*
X62600000Y-73020000D03*
%TD*%
D19*
%TO.C,U1*%
X73745000Y-64315000D03*
X73245000Y-64315000D03*
X72745000Y-64315000D03*
X72245000Y-64315000D03*
X71745000Y-64315000D03*
X71245000Y-64315000D03*
X70745000Y-64315000D03*
X70245000Y-64315000D03*
X69745000Y-64315000D03*
X69245000Y-64315000D03*
X68745000Y-64315000D03*
X68245000Y-64315000D03*
X67745000Y-64315000D03*
X67245000Y-64315000D03*
X66745000Y-64315000D03*
X66245000Y-64315000D03*
D20*
X64320000Y-66240000D03*
X64320000Y-66740000D03*
X64320000Y-67240000D03*
X64320000Y-67740000D03*
X64320000Y-68240000D03*
X64320000Y-68740000D03*
X64320000Y-69240000D03*
X64320000Y-69740000D03*
X64320000Y-70240000D03*
X64320000Y-70740000D03*
X64320000Y-71240000D03*
X64320000Y-71740000D03*
X64320000Y-72240000D03*
X64320000Y-72740000D03*
X64320000Y-73240000D03*
X64320000Y-73740000D03*
D19*
X66245000Y-75665000D03*
X66745000Y-75665000D03*
X67245000Y-75665000D03*
X67745000Y-75665000D03*
X68245000Y-75665000D03*
X68745000Y-75665000D03*
X69245000Y-75665000D03*
X69745000Y-75665000D03*
X70245000Y-75665000D03*
X70745000Y-75665000D03*
X71245000Y-75665000D03*
X71745000Y-75665000D03*
X72245000Y-75665000D03*
X72745000Y-75665000D03*
X73245000Y-75665000D03*
X73745000Y-75665000D03*
D20*
X75670000Y-73740000D03*
X75670000Y-73240000D03*
X75670000Y-72740000D03*
X75670000Y-72240000D03*
X75670000Y-71740000D03*
X75670000Y-71240000D03*
X75670000Y-70740000D03*
X75670000Y-70240000D03*
X75670000Y-69740000D03*
X75670000Y-69240000D03*
X75670000Y-68740000D03*
X75670000Y-68240000D03*
X75670000Y-67740000D03*
X75670000Y-67240000D03*
X75670000Y-66740000D03*
X75670000Y-66240000D03*
%TD*%
D21*
%TO.C,C107*%
X70900000Y-81675000D03*
X70900000Y-85800000D03*
%TD*%
D15*
%TO.C,C106*%
X81700000Y-86830000D03*
X81700000Y-85870000D03*
%TD*%
D17*
%TO.C,D105*%
X53175000Y-60500000D03*
X51600000Y-60500000D03*
%TD*%
%TO.C,D101*%
X85947500Y-56100000D03*
X84372500Y-56100000D03*
%TD*%
D14*
%TO.C,R105*%
X81900000Y-59600000D03*
X82920000Y-59600000D03*
%TD*%
D22*
%TO.C,SW1*%
X82955000Y-74145000D03*
X82955000Y-66195000D03*
X87455000Y-74145000D03*
X87455000Y-66195000D03*
%TD*%
D17*
%TO.C,D104*%
X53175000Y-62180000D03*
X51600000Y-62180000D03*
%TD*%
D23*
%TO.C,R801*%
X52000000Y-76575000D03*
X50980000Y-76575000D03*
%TD*%
D13*
%TO.C,C801*%
X50050000Y-76575000D03*
X49090000Y-76575000D03*
%TD*%
D17*
%TO.C,D106*%
X53175000Y-59000000D03*
X51600000Y-59000000D03*
%TD*%
D14*
%TO.C,R108*%
X49427500Y-60480000D03*
X50447500Y-60480000D03*
%TD*%
D23*
%TO.C,R802*%
X53890000Y-76575000D03*
X52870000Y-76575000D03*
%TD*%
D17*
%TO.C,D103*%
X85947500Y-59600000D03*
X84372500Y-59600000D03*
%TD*%
D14*
%TO.C,R107*%
X49427500Y-62430000D03*
X50447500Y-62430000D03*
%TD*%
D12*
%TO.C,C2*%
X66020000Y-62600000D03*
X66980000Y-62600000D03*
%TD*%
D13*
%TO.C,C3*%
X62580000Y-72000000D03*
X61620000Y-72000000D03*
%TD*%
D22*
%TO.C,SW801*%
X53900000Y-78100000D03*
X53900000Y-86050000D03*
X49400000Y-78100000D03*
X49400000Y-86050000D03*
%TD*%
D13*
%TO.C,C102*%
X73980000Y-77400000D03*
X73020000Y-77400000D03*
%TD*%
D14*
%TO.C,R104*%
X81900000Y-57850000D03*
X82920000Y-57850000D03*
%TD*%
D23*
%TO.C,R102*%
X65710000Y-58200000D03*
X64690000Y-58200000D03*
%TD*%
D14*
%TO.C,R101*%
X62690000Y-58200000D03*
X63710000Y-58200000D03*
%TD*%
M02*
