%TF.GenerationSoftware,KiCad,Pcbnew,8.0.0*%
%TF.CreationDate,2024-10-22T21:16:36+02:00*%
%TF.ProjectId,ProjetCorps,50726f6a-6574-4436-9f72-70732e6b6963,rev?*%
%TF.SameCoordinates,Original*%
%TF.FileFunction,Copper,L2,Inr*%
%TF.FilePolarity,Positive*%
%FSLAX46Y46*%
G04 Gerber Fmt 4.6, Leading zero omitted, Abs format (unit mm)*
G04 Created by KiCad (PCBNEW 8.0.0) date 2024-10-22 21:16:36*
%MOMM*%
%LPD*%
G01*
G04 APERTURE LIST*
G04 Aperture macros list*
%AMRoundRect*
0 Rectangle with rounded corners*
0 $1 Rounding radius*
0 $2 $3 $4 $5 $6 $7 $8 $9 X,Y pos of 4 corners*
0 Add a 4 corners polygon primitive as box body*
4,1,4,$2,$3,$4,$5,$6,$7,$8,$9,$2,$3,0*
0 Add four circle primitives for the rounded corners*
1,1,$1+$1,$2,$3*
1,1,$1+$1,$4,$5*
1,1,$1+$1,$6,$7*
1,1,$1+$1,$8,$9*
0 Add four rect primitives between the rounded corners*
20,1,$1+$1,$2,$3,$4,$5,0*
20,1,$1+$1,$4,$5,$6,$7,0*
20,1,$1+$1,$6,$7,$8,$9,0*
20,1,$1+$1,$8,$9,$2,$3,0*%
G04 Aperture macros list end*
%TA.AperFunction,ComponentPad*%
%ADD10C,0.800000*%
%TD*%
%TA.AperFunction,ComponentPad*%
%ADD11C,6.400000*%
%TD*%
%TA.AperFunction,ComponentPad*%
%ADD12RoundRect,0.250000X0.725000X-0.600000X0.725000X0.600000X-0.725000X0.600000X-0.725000X-0.600000X0*%
%TD*%
%TA.AperFunction,ComponentPad*%
%ADD13O,1.950000X1.700000*%
%TD*%
%TA.AperFunction,ComponentPad*%
%ADD14RoundRect,0.250000X-0.725000X0.600000X-0.725000X-0.600000X0.725000X-0.600000X0.725000X0.600000X0*%
%TD*%
%TA.AperFunction,ComponentPad*%
%ADD15C,3.000000*%
%TD*%
%TA.AperFunction,ComponentPad*%
%ADD16C,1.600000*%
%TD*%
%TA.AperFunction,ComponentPad*%
%ADD17RoundRect,1.500000X1.500000X1.500000X-1.500000X1.500000X-1.500000X-1.500000X1.500000X-1.500000X0*%
%TD*%
%TA.AperFunction,ComponentPad*%
%ADD18C,6.000000*%
%TD*%
%TA.AperFunction,ComponentPad*%
%ADD19C,1.447800*%
%TD*%
%TA.AperFunction,ViaPad*%
%ADD20C,0.450000*%
%TD*%
%TA.AperFunction,Conductor*%
%ADD21C,1.700000*%
%TD*%
G04 APERTURE END LIST*
D10*
%TO.N,GND*%
%TO.C,H102*%
X92600000Y-45000000D03*
X93302944Y-43302944D03*
X93302944Y-46697056D03*
X95000000Y-42600000D03*
D11*
X95000000Y-45000000D03*
D10*
X95000000Y-47400000D03*
X96697056Y-43302944D03*
X96697056Y-46697056D03*
X97400000Y-45000000D03*
%TD*%
%TO.N,GND*%
%TO.C,H103*%
X42600000Y-95000000D03*
X43302944Y-93302944D03*
X43302944Y-96697056D03*
X45000000Y-92600000D03*
D11*
X45000000Y-95000000D03*
D10*
X45000000Y-97400000D03*
X46697056Y-93302944D03*
X46697056Y-96697056D03*
X47400000Y-95000000D03*
%TD*%
D12*
%TO.N,GND*%
%TO.C,J103*%
X44100000Y-71100000D03*
D13*
%TO.N,+12V*%
X44100000Y-68600000D03*
%TO.N,UART_HD_XL430*%
X44100000Y-66100000D03*
%TD*%
D14*
%TO.N,UART_mp3_RX*%
%TO.C,J1*%
X95900000Y-57000000D03*
D13*
%TO.N,UART_mp3_TX*%
X95900000Y-59500000D03*
%TO.N,+5V*%
X95900000Y-62000000D03*
%TO.N,GND*%
X95900000Y-64500000D03*
%TD*%
D10*
%TO.N,GND*%
%TO.C,H101*%
X42600000Y-45000000D03*
X43302944Y-43302944D03*
X43302944Y-46697056D03*
X45000000Y-42600000D03*
D11*
X45000000Y-45000000D03*
D10*
X45000000Y-47400000D03*
X46697056Y-43302944D03*
X46697056Y-46697056D03*
X47400000Y-45000000D03*
%TD*%
D15*
%TO.N,+12V*%
%TO.C,SW101*%
X57050000Y-93350000D03*
%TO.N,Net-(J101-Pin_2)*%
X61750000Y-93350000D03*
%TO.N,unconnected-(SW101-C-Pad3)*%
X66450000Y-93350000D03*
%TD*%
D16*
%TO.N,+12V*%
%TO.C,U104*%
X59210000Y-87600000D03*
%TO.N,GND*%
X61750000Y-87600000D03*
%TO.N,+5V*%
X64290000Y-87600000D03*
%TD*%
D17*
%TO.N,GND*%
%TO.C,J101*%
X80525000Y-93350000D03*
D18*
%TO.N,Net-(J101-Pin_2)*%
X73325000Y-93350000D03*
%TD*%
D12*
%TO.N,unconnected-(J3-Pin_1-Pad1)*%
%TO.C,J3*%
X44100000Y-84600000D03*
D13*
%TO.N,GND*%
X44100000Y-82100000D03*
%TO.N,PWM_TIM4_CH1*%
X44100000Y-79600000D03*
%TO.N,+5V*%
X44100000Y-77100000D03*
%TD*%
D14*
%TO.N,unconnected-(J2-Pin_1-Pad1)*%
%TO.C,J2*%
X95900000Y-70600000D03*
D13*
%TO.N,+5V*%
X95900000Y-73100000D03*
%TO.N,GND*%
X95900000Y-75600000D03*
%TO.N,UART_hc05_TX*%
X95900000Y-78100000D03*
%TO.N,UART_hc05_RX*%
X95900000Y-80600000D03*
%TO.N,unconnected-(J2-Pin_6-Pad6)*%
X95900000Y-83100000D03*
%TD*%
D10*
%TO.N,GND*%
%TO.C,H104*%
X92600000Y-95000000D03*
X93302944Y-93302944D03*
X93302944Y-96697056D03*
X95000000Y-92600000D03*
D11*
X95000000Y-95000000D03*
D10*
X95000000Y-97400000D03*
X96697056Y-93302944D03*
X96697056Y-96697056D03*
X97400000Y-95000000D03*
%TD*%
D19*
%TO.N,GND*%
%TO.C,J104*%
X60315002Y-53059999D03*
%TO.N,PWM_TIM2_CH2*%
X63085001Y-53059999D03*
%TO.N,PWM_TIM2_CH1*%
X65855001Y-53059999D03*
%TO.N,PWM_TIM1_CH4*%
X68625001Y-53059999D03*
%TO.N,PWM_TIM1_CH3*%
X71395000Y-53059999D03*
%TO.N,PWM_TIM1_CH2*%
X74165000Y-53059999D03*
%TO.N,PWM_TIM1_CH1*%
X76934999Y-53059999D03*
%TO.N,GND*%
X79704999Y-53059999D03*
%TO.N,+12V*%
X61700000Y-50220000D03*
X64470000Y-50220000D03*
%TO.N,GND*%
X67239999Y-50220000D03*
%TO.N,I2C_SCL*%
X70009999Y-50220000D03*
%TO.N,I2C_SDA*%
X72779999Y-50220000D03*
%TO.N,TOF_INT*%
X75549998Y-50220000D03*
%TO.N,GND*%
X78319998Y-50220000D03*
%TD*%
D12*
%TO.N,GND*%
%TO.C,J102*%
X44100000Y-60000000D03*
D13*
%TO.N,+12V*%
X44100000Y-57500000D03*
%TO.N,UART_HD_XL430*%
X44100000Y-55000000D03*
%TD*%
D20*
%TO.N,GND*%
X65000000Y-56000000D03*
%TO.N,TOF_INT*%
X68677499Y-74322501D03*
%TO.N,+3.3V*%
X74000000Y-76850000D03*
X48700000Y-58700000D03*
X90250000Y-83850000D03*
X73750000Y-63300000D03*
X63150000Y-74000000D03*
X66250000Y-58200000D03*
X59100000Y-70900000D03*
X59100000Y-72000000D03*
X76830000Y-66120000D03*
X62150000Y-58200000D03*
X77500000Y-81700000D03*
X66050000Y-63150000D03*
X63300000Y-72000000D03*
X71900000Y-81700000D03*
X75400000Y-80500000D03*
X54400000Y-76600000D03*
%TO.N,GND*%
X67000000Y-77300000D03*
X88300000Y-94700000D03*
X75300000Y-59600000D03*
X67000000Y-62050000D03*
X88800000Y-63100000D03*
X72000000Y-61000000D03*
X60700000Y-76550000D03*
X82300000Y-77300000D03*
X51350000Y-71300000D03*
X80800000Y-79600000D03*
X69900000Y-41700000D03*
X54500000Y-90900000D03*
X93100000Y-75000000D03*
X47700000Y-50400000D03*
X90200000Y-60300000D03*
X56500000Y-69250000D03*
X91800000Y-84600000D03*
X73020000Y-76880000D03*
X90650000Y-79450000D03*
X90250000Y-81350000D03*
X49100000Y-77100000D03*
X93000000Y-51700000D03*
X55500000Y-42500000D03*
X51000000Y-68100000D03*
X75200000Y-85600000D03*
X81700000Y-85350000D03*
X78300000Y-42800000D03*
X57000000Y-57000000D03*
X50500000Y-81950000D03*
X91800000Y-89600000D03*
X50800000Y-56900000D03*
X86600000Y-56100000D03*
X63650000Y-65600000D03*
X85200000Y-43500000D03*
X98900000Y-50000000D03*
X77900000Y-72700000D03*
X86600000Y-59650000D03*
X61100000Y-72000000D03*
X61100000Y-70900000D03*
X87500000Y-91300000D03*
X64100000Y-45500000D03*
X91500000Y-57800000D03*
X61900000Y-82300000D03*
X74200000Y-46400000D03*
X60550000Y-66750000D03*
X53850000Y-60500000D03*
X55300000Y-46300000D03*
X63050000Y-69300000D03*
X67000000Y-63150000D03*
X49700000Y-90100000D03*
X59300000Y-59800000D03*
X53850000Y-59000000D03*
X65500000Y-71250000D03*
X49400000Y-85050000D03*
X55100000Y-63800000D03*
X87450000Y-73150000D03*
X90200000Y-82550000D03*
X87450000Y-67200000D03*
X53850000Y-62200000D03*
X41400000Y-50300000D03*
X57650000Y-77600000D03*
X58500000Y-74650000D03*
X63050000Y-67400000D03*
X48300000Y-72000000D03*
X70950000Y-84200000D03*
X63150000Y-73000000D03*
X76850000Y-67050000D03*
X51700000Y-96800000D03*
X51200000Y-92500000D03*
X83800000Y-62100000D03*
X86600000Y-57850000D03*
X82400000Y-48600000D03*
X57950000Y-84150000D03*
X60100000Y-63300000D03*
X81200000Y-67200000D03*
%TO.N,NRST*%
X76675000Y-62600000D03*
X82060000Y-63640000D03*
%TO.N,+5V*%
X49429081Y-61370919D03*
X82600000Y-86800000D03*
X79740000Y-88220000D03*
%TO.N,+12V*%
X47312653Y-57187347D03*
%TO.N,I2C_SCL*%
X63700000Y-57650000D03*
%TO.N,I2C_SDA*%
X64700000Y-57650000D03*
%TO.N,UART_DEBUG_RX*%
X65600000Y-66700000D03*
X88800000Y-76900000D03*
%TO.N,UART_DEBUG_TX*%
X84800000Y-75175000D03*
X67600000Y-65700000D03*
%TO.N,UART_mp3_RX*%
X83645000Y-64600000D03*
X77720000Y-70530000D03*
%TO.N,UART_mp3_TX*%
X77100000Y-72200000D03*
%TO.N,UART_hc05_RX*%
X67350000Y-78775000D03*
%TO.N,UART_hc05_TX*%
X65700000Y-73100000D03*
%TO.N,PWM_TIM4_CH1*%
X71400000Y-79400000D03*
%TD*%
D21*
%TO.N,+5V*%
X98850000Y-63650000D02*
X98850000Y-84400000D01*
X96450000Y-86800000D02*
X82700000Y-86800000D01*
X95900000Y-62000000D02*
X97200000Y-62000000D01*
X97200000Y-62000000D02*
X98850000Y-63650000D01*
X98850000Y-84400000D02*
X96450000Y-86800000D01*
%TD*%
%TA.AperFunction,Conductor*%
%TO.N,Net-(J101-Pin_2)*%
G36*
X75865305Y-89500483D02*
G01*
X76046923Y-89518480D01*
X76066066Y-89522310D01*
X76235933Y-89574170D01*
X76253949Y-89581683D01*
X76410334Y-89665872D01*
X76426519Y-89676770D01*
X76555367Y-89783414D01*
X76563341Y-89790014D01*
X76577080Y-89803885D01*
X76689010Y-89941772D01*
X76699757Y-89958064D01*
X76782452Y-90115242D01*
X76789795Y-90133334D01*
X76840033Y-90303681D01*
X76843682Y-90322862D01*
X76859948Y-90504644D01*
X76860338Y-90514410D01*
X76779479Y-99004691D01*
X76778916Y-99014331D01*
X76759639Y-99193621D01*
X76755718Y-99212508D01*
X76703486Y-99380019D01*
X76695977Y-99397788D01*
X76612250Y-99551991D01*
X76601438Y-99567966D01*
X76489395Y-99703010D01*
X76475689Y-99716585D01*
X76339594Y-99827329D01*
X76323518Y-99837988D01*
X76168520Y-99920245D01*
X76150680Y-99927585D01*
X75982680Y-99978220D01*
X75963756Y-99981961D01*
X75826262Y-99995420D01*
X75784413Y-99999517D01*
X75784290Y-99999529D01*
X75774645Y-100000000D01*
X60784457Y-100000000D01*
X60774695Y-99999517D01*
X60754115Y-99997477D01*
X60593076Y-99981519D01*
X60573932Y-99977688D01*
X60404069Y-99925830D01*
X60386048Y-99918315D01*
X60319212Y-99882334D01*
X60229667Y-99834128D01*
X60213478Y-99823227D01*
X60076658Y-99709985D01*
X60062918Y-99696113D01*
X59950987Y-99558225D01*
X59940243Y-99541937D01*
X59857544Y-99384750D01*
X59850206Y-99366672D01*
X59799965Y-99196315D01*
X59796317Y-99177137D01*
X59781319Y-99009523D01*
X59780050Y-98995345D01*
X59779661Y-98985600D01*
X59833333Y-93350002D01*
X64744732Y-93350002D01*
X64763777Y-93604152D01*
X64763779Y-93604161D01*
X64820492Y-93852639D01*
X64913604Y-94089881D01*
X64913607Y-94089888D01*
X65041041Y-94310612D01*
X65041045Y-94310618D01*
X65041047Y-94310620D01*
X65199940Y-94509866D01*
X65199951Y-94509878D01*
X65386776Y-94683226D01*
X65386778Y-94683227D01*
X65386783Y-94683232D01*
X65597366Y-94826805D01*
X65826996Y-94937389D01*
X66070542Y-95012513D01*
X66322565Y-95050500D01*
X66322570Y-95050500D01*
X66577430Y-95050500D01*
X66577435Y-95050500D01*
X66829458Y-95012513D01*
X67073004Y-94937389D01*
X67302634Y-94826805D01*
X67513217Y-94683232D01*
X67700050Y-94509877D01*
X67858959Y-94310612D01*
X67986393Y-94089888D01*
X68079508Y-93852637D01*
X68136222Y-93604157D01*
X68155268Y-93350000D01*
X68136222Y-93095843D01*
X68079508Y-92847363D01*
X67986393Y-92610112D01*
X67858959Y-92389388D01*
X67858952Y-92389379D01*
X67700059Y-92190133D01*
X67700048Y-92190121D01*
X67513223Y-92016773D01*
X67513220Y-92016771D01*
X67513217Y-92016768D01*
X67302634Y-91873195D01*
X67073004Y-91762611D01*
X66829462Y-91687488D01*
X66829459Y-91687487D01*
X66829458Y-91687487D01*
X66829453Y-91687486D01*
X66829452Y-91687486D01*
X66577438Y-91649500D01*
X66577435Y-91649500D01*
X66322565Y-91649500D01*
X66322561Y-91649500D01*
X66070547Y-91687486D01*
X66070537Y-91687488D01*
X65826995Y-91762611D01*
X65597373Y-91873191D01*
X65597369Y-91873193D01*
X65597366Y-91873195D01*
X65386783Y-92016768D01*
X65386776Y-92016773D01*
X65199951Y-92190121D01*
X65199940Y-92190133D01*
X65041047Y-92389379D01*
X65041043Y-92389384D01*
X65041041Y-92389388D01*
X64979181Y-92496533D01*
X64913608Y-92610109D01*
X64913604Y-92610118D01*
X64820492Y-92847360D01*
X64763779Y-93095838D01*
X64763777Y-93095847D01*
X64744732Y-93349997D01*
X64744732Y-93350002D01*
X59833333Y-93350002D01*
X59860521Y-90495287D01*
X59861081Y-90485689D01*
X59880360Y-90306375D01*
X59884281Y-90287491D01*
X59936515Y-90119973D01*
X59944018Y-90102218D01*
X60027751Y-89948003D01*
X60038557Y-89932037D01*
X60150608Y-89796984D01*
X60164305Y-89783418D01*
X60300407Y-89672668D01*
X60316481Y-89662011D01*
X60339974Y-89649543D01*
X60471485Y-89579751D01*
X60489309Y-89572417D01*
X60657328Y-89521777D01*
X60676235Y-89518039D01*
X60855588Y-89500483D01*
X60855711Y-89500471D01*
X60865355Y-89500000D01*
X75855543Y-89500000D01*
X75865305Y-89500483D01*
G37*
%TD.AperFunction*%
%TD*%
%TA.AperFunction,Conductor*%
%TO.N,+5V*%
G36*
X46773938Y-74620156D02*
G01*
X46825881Y-74666887D01*
X46842715Y-74711992D01*
X46911113Y-75130928D01*
X46918308Y-75174998D01*
X46918308Y-75174999D01*
X46918307Y-75174999D01*
X46923714Y-75208110D01*
X46923714Y-75208114D01*
X46923715Y-75208114D01*
X47001285Y-75683229D01*
X47001285Y-75683230D01*
X47009185Y-75731622D01*
X47009186Y-75731628D01*
X47142798Y-76549998D01*
X47148205Y-76583115D01*
X47148205Y-76583116D01*
X47232594Y-77099998D01*
X47238001Y-77133115D01*
X47238001Y-77133116D01*
X47314227Y-77599998D01*
X47319634Y-77633115D01*
X47319634Y-77633116D01*
X47409448Y-78183229D01*
X47418159Y-78236582D01*
X47418159Y-78236583D01*
X47506064Y-78774998D01*
X47580431Y-79230498D01*
X47580432Y-79230502D01*
X47586234Y-79255831D01*
X47595144Y-79285858D01*
X47595147Y-79285866D01*
X47632706Y-79355512D01*
X47635068Y-79359892D01*
X47668894Y-79399997D01*
X47668895Y-79400000D01*
X47680108Y-79413294D01*
X47680122Y-79413309D01*
X47697459Y-79431483D01*
X47697463Y-79431486D01*
X47697465Y-79431488D01*
X47697467Y-79431489D01*
X47776676Y-79477193D01*
X47776677Y-79477193D01*
X47776680Y-79477195D01*
X47843451Y-79497772D01*
X47901232Y-79506868D01*
X53183243Y-79577294D01*
X55296249Y-79605468D01*
X55297729Y-79605481D01*
X55297757Y-79605481D01*
X55297966Y-79605483D01*
X55300129Y-79605493D01*
X55300226Y-79605493D01*
X55301913Y-79605493D01*
X55301925Y-79605493D01*
X67030596Y-79557227D01*
X67030610Y-79557226D01*
X67030614Y-79557226D01*
X67053576Y-79555842D01*
X67053599Y-79555840D01*
X67081175Y-79552618D01*
X67084923Y-79551395D01*
X67087034Y-79551333D01*
X67087200Y-79551297D01*
X67087206Y-79551328D01*
X67154758Y-79549328D01*
X67214629Y-79585345D01*
X67245523Y-79648013D01*
X67247357Y-79668170D01*
X67249576Y-79914421D01*
X67256502Y-80683229D01*
X67256701Y-80705320D01*
X67260600Y-81138157D01*
X67262509Y-81349994D01*
X67262526Y-81351858D01*
X67262526Y-81351872D01*
X67271055Y-82298528D01*
X67273320Y-82549998D01*
X67273337Y-82551853D01*
X67279025Y-83183229D01*
X67279224Y-83205320D01*
X67282754Y-83597207D01*
X67288185Y-84199994D01*
X67288202Y-84201858D01*
X67288202Y-84201872D01*
X67291789Y-84599998D01*
X67293400Y-84778960D01*
X67293401Y-84778968D01*
X67298289Y-84821705D01*
X67301850Y-84837724D01*
X67309492Y-84872107D01*
X67311778Y-84881373D01*
X67354787Y-84962083D01*
X67354789Y-84962086D01*
X67400548Y-85014895D01*
X67418130Y-85032839D01*
X67418134Y-85032843D01*
X67418135Y-85032844D01*
X67418137Y-85032845D01*
X67497947Y-85077488D01*
X67497951Y-85077490D01*
X67564990Y-85097175D01*
X67622888Y-85105500D01*
X74793389Y-85105500D01*
X74860428Y-85125185D01*
X74906183Y-85177989D01*
X74916127Y-85247147D01*
X74887102Y-85310703D01*
X74881070Y-85317181D01*
X74851476Y-85346774D01*
X74851473Y-85346778D01*
X74790279Y-85466878D01*
X74769196Y-85599997D01*
X74769196Y-85600002D01*
X74790279Y-85733121D01*
X74790280Y-85733124D01*
X74790281Y-85733126D01*
X74851472Y-85853220D01*
X74851473Y-85853221D01*
X74851476Y-85853225D01*
X74946774Y-85948523D01*
X74946778Y-85948526D01*
X74946780Y-85948528D01*
X75066874Y-86009719D01*
X75066876Y-86009719D01*
X75066878Y-86009720D01*
X75199998Y-86030804D01*
X75200000Y-86030804D01*
X75200002Y-86030804D01*
X75333121Y-86009720D01*
X75333121Y-86009719D01*
X75333126Y-86009719D01*
X75453220Y-85948528D01*
X75548528Y-85853220D01*
X75609719Y-85733126D01*
X75630804Y-85600000D01*
X75630731Y-85599542D01*
X75609720Y-85466878D01*
X75609719Y-85466876D01*
X75609719Y-85466874D01*
X75548528Y-85346780D01*
X75548526Y-85346778D01*
X75548523Y-85346774D01*
X75518930Y-85317181D01*
X75485445Y-85255858D01*
X75490429Y-85186166D01*
X75532301Y-85130233D01*
X75597765Y-85105816D01*
X75606611Y-85105500D01*
X80270500Y-85105500D01*
X80337539Y-85125185D01*
X80383294Y-85177989D01*
X80394500Y-85229500D01*
X80394500Y-89170500D01*
X80374815Y-89237539D01*
X80322011Y-89283294D01*
X80270500Y-89294500D01*
X76992824Y-89294500D01*
X76966462Y-89297270D01*
X76950087Y-89298991D01*
X76899663Y-89309710D01*
X76890420Y-89311899D01*
X76890409Y-89311903D01*
X76809301Y-89354138D01*
X76809298Y-89354140D01*
X76756073Y-89399380D01*
X76756068Y-89399384D01*
X76756063Y-89399389D01*
X76754664Y-89400734D01*
X76737941Y-89416809D01*
X76726073Y-89437562D01*
X76675703Y-89485983D01*
X76618434Y-89500000D01*
X76567002Y-89500000D01*
X76508224Y-89485184D01*
X76478295Y-89469072D01*
X76351360Y-89400737D01*
X76348511Y-89399380D01*
X76333032Y-89392008D01*
X76315036Y-89384504D01*
X76295939Y-89377626D01*
X76126069Y-89325765D01*
X76106390Y-89320805D01*
X76087246Y-89316975D01*
X76087233Y-89316973D01*
X76067200Y-89313984D01*
X76067187Y-89313982D01*
X76067185Y-89313981D01*
X76067173Y-89313980D01*
X75943655Y-89301740D01*
X75885569Y-89295985D01*
X75885556Y-89295984D01*
X75875470Y-89295234D01*
X75865685Y-89294750D01*
X75855545Y-89294500D01*
X75855543Y-89294500D01*
X63417805Y-89294500D01*
X63350766Y-89274815D01*
X63305011Y-89222011D01*
X63295678Y-89163999D01*
X63294096Y-89163939D01*
X63294265Y-89159511D01*
X63209937Y-86629695D01*
X63209421Y-86614216D01*
X63203848Y-86573052D01*
X63192196Y-86524557D01*
X63192188Y-86524526D01*
X63190155Y-86516740D01*
X63146352Y-86436466D01*
X63146348Y-86436461D01*
X63100072Y-86384113D01*
X63082304Y-86366334D01*
X63002048Y-86322480D01*
X62934817Y-86303460D01*
X62876842Y-86295709D01*
X62876838Y-86295709D01*
X62876831Y-86295708D01*
X62318818Y-86301233D01*
X62318801Y-86301234D01*
X62282440Y-86304842D01*
X62239207Y-86313064D01*
X62236326Y-86313634D01*
X62236324Y-86313634D01*
X62236323Y-86313635D01*
X62179389Y-86339548D01*
X62153081Y-86351522D01*
X62097517Y-86393896D01*
X62078505Y-86410328D01*
X62050619Y-86453598D01*
X61997757Y-86499285D01*
X61947618Y-86510419D01*
X61530708Y-86514547D01*
X61463477Y-86495527D01*
X61428254Y-86458055D01*
X61426583Y-86459228D01*
X61422590Y-86453535D01*
X61407501Y-86436466D01*
X61376308Y-86401180D01*
X61358540Y-86383401D01*
X61278284Y-86339547D01*
X61211053Y-86320527D01*
X61153077Y-86312776D01*
X61153073Y-86312776D01*
X61153066Y-86312775D01*
X43117371Y-86491346D01*
X43050140Y-86472326D01*
X43003864Y-86419978D01*
X42992247Y-86372432D01*
X42965014Y-85707952D01*
X42981937Y-85640165D01*
X43032823Y-85592287D01*
X43101516Y-85579519D01*
X43153320Y-85599542D01*
X43153899Y-85598449D01*
X43162115Y-85602791D01*
X43162118Y-85602793D01*
X43204845Y-85617744D01*
X43290299Y-85647646D01*
X43320730Y-85650500D01*
X43320734Y-85650500D01*
X44879270Y-85650500D01*
X44909699Y-85647646D01*
X44909701Y-85647646D01*
X44973790Y-85625219D01*
X45037882Y-85602793D01*
X45147150Y-85522150D01*
X45227793Y-85412882D01*
X45263547Y-85310703D01*
X45272646Y-85284701D01*
X45272646Y-85284699D01*
X45275500Y-85254269D01*
X45275500Y-85050002D01*
X48969196Y-85050002D01*
X48990279Y-85183121D01*
X48990280Y-85183124D01*
X48990281Y-85183126D01*
X49051472Y-85303220D01*
X49051473Y-85303221D01*
X49051476Y-85303225D01*
X49146774Y-85398523D01*
X49146778Y-85398526D01*
X49146780Y-85398528D01*
X49266874Y-85459719D01*
X49266876Y-85459719D01*
X49266878Y-85459720D01*
X49399998Y-85480804D01*
X49400000Y-85480804D01*
X49400002Y-85480804D01*
X49533121Y-85459720D01*
X49533121Y-85459719D01*
X49533126Y-85459719D01*
X49653220Y-85398528D01*
X49748528Y-85303220D01*
X49809719Y-85183126D01*
X49811830Y-85169796D01*
X49830804Y-85050002D01*
X49830804Y-85049997D01*
X49809720Y-84916878D01*
X49809719Y-84916876D01*
X49809719Y-84916874D01*
X49748528Y-84796780D01*
X49748526Y-84796778D01*
X49748523Y-84796774D01*
X49653225Y-84701476D01*
X49653221Y-84701473D01*
X49653220Y-84701472D01*
X49533126Y-84640281D01*
X49533124Y-84640280D01*
X49533121Y-84640279D01*
X49400002Y-84619196D01*
X49399998Y-84619196D01*
X49266878Y-84640279D01*
X49266874Y-84640280D01*
X49266874Y-84640281D01*
X49207079Y-84670748D01*
X49146778Y-84701473D01*
X49146774Y-84701476D01*
X49051476Y-84796774D01*
X49051473Y-84796778D01*
X48990279Y-84916878D01*
X48969196Y-85049997D01*
X48969196Y-85050002D01*
X45275500Y-85050002D01*
X45275500Y-84150002D01*
X57519196Y-84150002D01*
X57540279Y-84283121D01*
X57540280Y-84283124D01*
X57540281Y-84283126D01*
X57601472Y-84403220D01*
X57601473Y-84403221D01*
X57601476Y-84403225D01*
X57696774Y-84498523D01*
X57696778Y-84498526D01*
X57696780Y-84498528D01*
X57816874Y-84559719D01*
X57816876Y-84559719D01*
X57816878Y-84559720D01*
X57949998Y-84580804D01*
X57950000Y-84580804D01*
X57950002Y-84580804D01*
X58083121Y-84559720D01*
X58083121Y-84559719D01*
X58083126Y-84559719D01*
X58203220Y-84498528D01*
X58298528Y-84403220D01*
X58359719Y-84283126D01*
X58359720Y-84283121D01*
X58380804Y-84150002D01*
X58380804Y-84149997D01*
X58359720Y-84016878D01*
X58359719Y-84016876D01*
X58359719Y-84016874D01*
X58298528Y-83896780D01*
X58298526Y-83896778D01*
X58298523Y-83896774D01*
X58203225Y-83801476D01*
X58203221Y-83801473D01*
X58203220Y-83801472D01*
X58083126Y-83740281D01*
X58083124Y-83740280D01*
X58083121Y-83740279D01*
X57950002Y-83719196D01*
X57949998Y-83719196D01*
X57816878Y-83740279D01*
X57696778Y-83801473D01*
X57696774Y-83801476D01*
X57601476Y-83896774D01*
X57601473Y-83896778D01*
X57540279Y-84016878D01*
X57519196Y-84149997D01*
X57519196Y-84150002D01*
X45275500Y-84150002D01*
X45275500Y-83945730D01*
X45272646Y-83915300D01*
X45272646Y-83915298D01*
X45232816Y-83801473D01*
X45227793Y-83787118D01*
X45147150Y-83677850D01*
X45037882Y-83597207D01*
X45037880Y-83597206D01*
X44909700Y-83552353D01*
X44879270Y-83549500D01*
X44879266Y-83549500D01*
X43320734Y-83549500D01*
X43320730Y-83549500D01*
X43290300Y-83552353D01*
X43290298Y-83552353D01*
X43162119Y-83597206D01*
X43162113Y-83597209D01*
X43074798Y-83661651D01*
X43009169Y-83685622D01*
X42940999Y-83670306D01*
X42891931Y-83620566D01*
X42877269Y-83566959D01*
X42842109Y-82709054D01*
X42859032Y-82641264D01*
X42909918Y-82593386D01*
X42978611Y-82580618D01*
X43043302Y-82607016D01*
X43069106Y-82635084D01*
X43099737Y-82680926D01*
X43159024Y-82769657D01*
X43305342Y-82915975D01*
X43305345Y-82915977D01*
X43477402Y-83030941D01*
X43668580Y-83110130D01*
X43871530Y-83150499D01*
X43871534Y-83150500D01*
X43871535Y-83150500D01*
X44328466Y-83150500D01*
X44328467Y-83150499D01*
X44531420Y-83110130D01*
X44722598Y-83030941D01*
X44894655Y-82915977D01*
X45040977Y-82769655D01*
X45155941Y-82597598D01*
X45235130Y-82406420D01*
X45275500Y-82203465D01*
X45275500Y-81996535D01*
X45266244Y-81950002D01*
X50069196Y-81950002D01*
X50090279Y-82083121D01*
X50090280Y-82083124D01*
X50090281Y-82083126D01*
X50132953Y-82166874D01*
X50151473Y-82203221D01*
X50151476Y-82203225D01*
X50246774Y-82298523D01*
X50246778Y-82298526D01*
X50246780Y-82298528D01*
X50366874Y-82359719D01*
X50366876Y-82359719D01*
X50366878Y-82359720D01*
X50499998Y-82380804D01*
X50500000Y-82380804D01*
X50500002Y-82380804D01*
X50633121Y-82359720D01*
X50633121Y-82359719D01*
X50633126Y-82359719D01*
X50750327Y-82300002D01*
X61469196Y-82300002D01*
X61490279Y-82433121D01*
X61490280Y-82433124D01*
X61490281Y-82433126D01*
X61551472Y-82553220D01*
X61551473Y-82553221D01*
X61551476Y-82553225D01*
X61646774Y-82648523D01*
X61646778Y-82648526D01*
X61646780Y-82648528D01*
X61766874Y-82709719D01*
X61766876Y-82709719D01*
X61766878Y-82709720D01*
X61899998Y-82730804D01*
X61900000Y-82730804D01*
X61900002Y-82730804D01*
X62033121Y-82709720D01*
X62033121Y-82709719D01*
X62033126Y-82709719D01*
X62153220Y-82648528D01*
X62248528Y-82553220D01*
X62309719Y-82433126D01*
X62319749Y-82369799D01*
X62330804Y-82300002D01*
X62330804Y-82299997D01*
X62309720Y-82166878D01*
X62309719Y-82166876D01*
X62309719Y-82166874D01*
X62248528Y-82046780D01*
X62248526Y-82046778D01*
X62248523Y-82046774D01*
X62153225Y-81951476D01*
X62153221Y-81951473D01*
X62153220Y-81951472D01*
X62033126Y-81890281D01*
X62033124Y-81890280D01*
X62033121Y-81890279D01*
X61900002Y-81869196D01*
X61899998Y-81869196D01*
X61766878Y-81890279D01*
X61646778Y-81951473D01*
X61646774Y-81951476D01*
X61551476Y-82046774D01*
X61551473Y-82046778D01*
X61490279Y-82166878D01*
X61469196Y-82299997D01*
X61469196Y-82300002D01*
X50750327Y-82300002D01*
X50753220Y-82298528D01*
X50848528Y-82203220D01*
X50909719Y-82083126D01*
X50923434Y-81996534D01*
X50930804Y-81950002D01*
X50930804Y-81949997D01*
X50909720Y-81816878D01*
X50909719Y-81816876D01*
X50909719Y-81816874D01*
X50848528Y-81696780D01*
X50848526Y-81696778D01*
X50848523Y-81696774D01*
X50753225Y-81601476D01*
X50753221Y-81601473D01*
X50753220Y-81601472D01*
X50633126Y-81540281D01*
X50633124Y-81540280D01*
X50633121Y-81540279D01*
X50500002Y-81519196D01*
X50499998Y-81519196D01*
X50366878Y-81540279D01*
X50246778Y-81601473D01*
X50246774Y-81601476D01*
X50151476Y-81696774D01*
X50151473Y-81696778D01*
X50090279Y-81816878D01*
X50069196Y-81949997D01*
X50069196Y-81950002D01*
X45266244Y-81950002D01*
X45235130Y-81793580D01*
X45155941Y-81602402D01*
X45040977Y-81430345D01*
X45040975Y-81430342D01*
X44894657Y-81284024D01*
X44723701Y-81169796D01*
X44722598Y-81169059D01*
X44649206Y-81138659D01*
X44531420Y-81089870D01*
X44531412Y-81089868D01*
X44328469Y-81049500D01*
X44328465Y-81049500D01*
X43871535Y-81049500D01*
X43871530Y-81049500D01*
X43668587Y-81089868D01*
X43668579Y-81089870D01*
X43477403Y-81169058D01*
X43305342Y-81284024D01*
X43159024Y-81430342D01*
X43044058Y-81602403D01*
X43034426Y-81625656D01*
X42990583Y-81680058D01*
X42924288Y-81702121D01*
X42856590Y-81684840D01*
X42808981Y-81633701D01*
X42795970Y-81583278D01*
X42795538Y-81572742D01*
X42729727Y-79966950D01*
X42746650Y-79899162D01*
X42797536Y-79851284D01*
X42866229Y-79838516D01*
X42930920Y-79864914D01*
X42968184Y-79914421D01*
X43044057Y-80097596D01*
X43159024Y-80269657D01*
X43305342Y-80415975D01*
X43305345Y-80415977D01*
X43477402Y-80530941D01*
X43668580Y-80610130D01*
X43871530Y-80650499D01*
X43871534Y-80650500D01*
X43871535Y-80650500D01*
X44328466Y-80650500D01*
X44328467Y-80650499D01*
X44531420Y-80610130D01*
X44722598Y-80530941D01*
X44894655Y-80415977D01*
X45040977Y-80269655D01*
X45155941Y-80097598D01*
X45235130Y-79906420D01*
X45275500Y-79703465D01*
X45275500Y-79496535D01*
X45235130Y-79293580D01*
X45155941Y-79102402D01*
X45040977Y-78930345D01*
X45040975Y-78930342D01*
X44894657Y-78784024D01*
X44808626Y-78726541D01*
X44722598Y-78669059D01*
X44649206Y-78638659D01*
X44531420Y-78589870D01*
X44531412Y-78589868D01*
X44328469Y-78549500D01*
X44328465Y-78549500D01*
X43871535Y-78549500D01*
X43871530Y-78549500D01*
X43668587Y-78589868D01*
X43668579Y-78589870D01*
X43477403Y-78669058D01*
X43305342Y-78784024D01*
X43159024Y-78930342D01*
X43044058Y-79102403D01*
X42964870Y-79293579D01*
X42964868Y-79293585D01*
X42949936Y-79368653D01*
X42917551Y-79430564D01*
X42856835Y-79465138D01*
X42787065Y-79461397D01*
X42730393Y-79420531D01*
X42704812Y-79355512D01*
X42704424Y-79349561D01*
X42519087Y-74827351D01*
X42536010Y-74759564D01*
X42586896Y-74711686D01*
X42640341Y-74698304D01*
X46677005Y-74612418D01*
X46704979Y-74608927D01*
X46773938Y-74620156D01*
G37*
%TD.AperFunction*%
%TD*%
%TA.AperFunction,Conductor*%
%TO.N,+3.3V*%
G36*
X95000641Y-40000006D02*
G01*
X95213481Y-40002328D01*
X95222915Y-40002792D01*
X95647552Y-40039943D01*
X95658270Y-40041354D01*
X96077393Y-40115256D01*
X96087921Y-40117590D01*
X96499033Y-40227747D01*
X96509322Y-40230992D01*
X96909255Y-40376555D01*
X96919221Y-40380683D01*
X97304942Y-40560547D01*
X97314528Y-40565538D01*
X97683088Y-40778326D01*
X97692207Y-40784135D01*
X98040820Y-41028237D01*
X98049402Y-41034822D01*
X98375420Y-41308383D01*
X98383395Y-41315692D01*
X98684307Y-41616604D01*
X98691616Y-41624579D01*
X98965177Y-41950597D01*
X98971762Y-41959179D01*
X99215864Y-42307792D01*
X99221676Y-42316916D01*
X99434459Y-42685467D01*
X99439454Y-42695062D01*
X99619310Y-43080764D01*
X99623450Y-43090759D01*
X99769003Y-43490664D01*
X99772256Y-43500980D01*
X99882405Y-43912061D01*
X99884746Y-43922623D01*
X99958644Y-44341725D01*
X99960056Y-44352450D01*
X99997206Y-44777073D01*
X99997671Y-44786527D01*
X99999993Y-44999357D01*
X100000000Y-45000710D01*
X100000000Y-63071473D01*
X99980315Y-63138512D01*
X99927511Y-63184267D01*
X99858353Y-63194211D01*
X99794797Y-63165186D01*
X99772898Y-63140363D01*
X99665980Y-62980349D01*
X99665974Y-62980341D01*
X99516559Y-62830926D01*
X99516528Y-62830897D01*
X98020317Y-61334686D01*
X98020297Y-61334664D01*
X97869657Y-61184024D01*
X97770384Y-61117693D01*
X97697598Y-61069059D01*
X97506420Y-60989870D01*
X97506412Y-60989868D01*
X97303469Y-60949500D01*
X97303465Y-60949500D01*
X96128465Y-60949500D01*
X95671535Y-60949500D01*
X95671530Y-60949500D01*
X95468587Y-60989868D01*
X95468579Y-60989870D01*
X95277403Y-61069058D01*
X95105342Y-61184024D01*
X94959024Y-61330342D01*
X94844058Y-61502403D01*
X94764870Y-61693579D01*
X94764868Y-61693587D01*
X94724500Y-61896530D01*
X94724500Y-62103469D01*
X94764868Y-62306412D01*
X94764870Y-62306420D01*
X94839732Y-62487153D01*
X94844059Y-62497598D01*
X94878086Y-62548523D01*
X94959024Y-62669657D01*
X95105342Y-62815975D01*
X95105345Y-62815977D01*
X95277402Y-62930941D01*
X95468580Y-63010130D01*
X95652803Y-63046774D01*
X95671530Y-63050499D01*
X95671534Y-63050500D01*
X95671535Y-63050500D01*
X95796535Y-63050500D01*
X96713507Y-63050500D01*
X96780546Y-63070185D01*
X96801188Y-63086819D01*
X97763181Y-64048812D01*
X97796666Y-64110135D01*
X97799500Y-64136493D01*
X97799500Y-83913506D01*
X97779815Y-83980545D01*
X97763181Y-84001187D01*
X96051188Y-85713181D01*
X95989865Y-85746666D01*
X95963507Y-85749500D01*
X82596530Y-85749500D01*
X82393587Y-85789868D01*
X82393579Y-85789870D01*
X82202403Y-85869058D01*
X82030342Y-85984024D01*
X81884024Y-86130342D01*
X81769058Y-86302403D01*
X81689870Y-86493579D01*
X81689868Y-86493587D01*
X81649500Y-86696530D01*
X81649500Y-86903469D01*
X81689868Y-87106412D01*
X81689870Y-87106420D01*
X81769058Y-87297596D01*
X81884024Y-87469657D01*
X82030342Y-87615975D01*
X82030345Y-87615977D01*
X82202402Y-87730941D01*
X82393580Y-87810130D01*
X82596530Y-87850499D01*
X82596534Y-87850500D01*
X82596535Y-87850500D01*
X96553466Y-87850500D01*
X96553467Y-87850499D01*
X96756420Y-87810130D01*
X96947598Y-87730941D01*
X97119655Y-87615977D01*
X97265977Y-87469655D01*
X97265977Y-87469653D01*
X97276185Y-87459446D01*
X97276186Y-87459443D01*
X99665977Y-85069655D01*
X99772898Y-84909637D01*
X99826510Y-84864832D01*
X99895835Y-84856125D01*
X99958863Y-84886279D01*
X99995582Y-84945722D01*
X100000000Y-84978528D01*
X100000000Y-94999289D01*
X99999993Y-95000642D01*
X99997671Y-95213472D01*
X99997206Y-95222926D01*
X99960056Y-95647549D01*
X99958644Y-95658274D01*
X99884746Y-96077376D01*
X99882405Y-96087938D01*
X99772256Y-96499019D01*
X99769003Y-96509335D01*
X99623450Y-96909240D01*
X99619310Y-96919235D01*
X99439454Y-97304937D01*
X99434459Y-97314532D01*
X99221676Y-97683083D01*
X99215864Y-97692207D01*
X98971762Y-98040820D01*
X98965177Y-98049402D01*
X98691616Y-98375420D01*
X98684307Y-98383395D01*
X98383395Y-98684307D01*
X98375420Y-98691616D01*
X98049402Y-98965177D01*
X98040820Y-98971762D01*
X97692207Y-99215864D01*
X97683083Y-99221676D01*
X97314532Y-99434459D01*
X97304937Y-99439454D01*
X96919235Y-99619310D01*
X96909240Y-99623450D01*
X96509335Y-99769003D01*
X96499019Y-99772256D01*
X96087938Y-99882405D01*
X96077376Y-99884746D01*
X95658274Y-99958644D01*
X95647549Y-99960056D01*
X95222926Y-99997206D01*
X95213472Y-99997671D01*
X95005455Y-99999940D01*
X95000640Y-99999993D01*
X94999290Y-100000000D01*
X90000000Y-100000000D01*
X76895186Y-100000000D01*
X76828147Y-99980315D01*
X76782392Y-99927511D01*
X76771192Y-99874819D01*
X76772200Y-99769003D01*
X76772697Y-99716752D01*
X76790737Y-99653518D01*
X76792846Y-99650049D01*
X76876573Y-99495846D01*
X76885269Y-99477781D01*
X76892778Y-99460012D01*
X76899670Y-99441192D01*
X76951902Y-99273681D01*
X76954755Y-99262666D01*
X76956922Y-99254305D01*
X76956930Y-99254272D01*
X76960845Y-99235412D01*
X76960849Y-99235393D01*
X76963961Y-99215589D01*
X76963967Y-99215538D01*
X76983236Y-99036319D01*
X76983238Y-99036299D01*
X76984066Y-99026312D01*
X76984629Y-99016672D01*
X76984970Y-99006648D01*
X77004945Y-96909240D01*
X77023562Y-94954423D01*
X77324500Y-94954423D01*
X77326651Y-94999289D01*
X77327313Y-95013104D01*
X77372107Y-95270343D01*
X77455643Y-95517730D01*
X77523047Y-95647549D01*
X77575966Y-95749470D01*
X77730244Y-95960113D01*
X77730248Y-95960118D01*
X77914881Y-96144751D01*
X77914886Y-96144755D01*
X78125529Y-96299033D01*
X78125532Y-96299034D01*
X78125534Y-96299036D01*
X78357270Y-96419357D01*
X78604657Y-96502893D01*
X78861896Y-96547687D01*
X78920590Y-96550500D01*
X78920607Y-96550500D01*
X82129393Y-96550500D01*
X82129410Y-96550500D01*
X82188104Y-96547687D01*
X82445343Y-96502893D01*
X82692730Y-96419357D01*
X82924466Y-96299036D01*
X83135119Y-96144751D01*
X83319751Y-95960119D01*
X83474036Y-95749466D01*
X83594357Y-95517730D01*
X83677893Y-95270343D01*
X83722687Y-95013104D01*
X83725500Y-94954410D01*
X83725500Y-94700002D01*
X87869196Y-94700002D01*
X87890279Y-94833121D01*
X87890280Y-94833124D01*
X87890281Y-94833126D01*
X87943406Y-94937389D01*
X87951473Y-94953221D01*
X87951476Y-94953225D01*
X88046774Y-95048523D01*
X88046778Y-95048526D01*
X88046780Y-95048528D01*
X88166874Y-95109719D01*
X88166876Y-95109719D01*
X88166878Y-95109720D01*
X88299998Y-95130804D01*
X88300000Y-95130804D01*
X88300002Y-95130804D01*
X88433121Y-95109720D01*
X88433121Y-95109719D01*
X88433126Y-95109719D01*
X88553220Y-95048528D01*
X88601748Y-95000000D01*
X91594506Y-95000000D01*
X91609163Y-95270343D01*
X91614469Y-95368196D01*
X91614470Y-95368213D01*
X91674122Y-95732068D01*
X91674128Y-95732094D01*
X91772768Y-96087365D01*
X91772770Y-96087371D01*
X91909255Y-96429926D01*
X91909261Y-96429938D01*
X92081973Y-96755708D01*
X92081976Y-96755713D01*
X92081978Y-96755716D01*
X92185444Y-96908316D01*
X92288909Y-97060916D01*
X92433214Y-97230804D01*
X92527627Y-97341956D01*
X92795330Y-97595538D01*
X93088881Y-97818690D01*
X93404838Y-98008795D01*
X93404840Y-98008796D01*
X93404842Y-98008797D01*
X93404846Y-98008799D01*
X93492608Y-98049402D01*
X93739497Y-98163625D01*
X94088934Y-98281364D01*
X94449052Y-98360632D01*
X94815630Y-98400500D01*
X94815636Y-98400500D01*
X95184364Y-98400500D01*
X95184370Y-98400500D01*
X95550948Y-98360632D01*
X95911066Y-98281364D01*
X96260503Y-98163625D01*
X96595162Y-98008795D01*
X96911119Y-97818690D01*
X97204670Y-97595538D01*
X97472373Y-97341956D01*
X97711090Y-97060917D01*
X97918022Y-96755716D01*
X98090743Y-96429930D01*
X98227227Y-96087379D01*
X98325875Y-95732081D01*
X98344237Y-95620077D01*
X98385529Y-95368213D01*
X98385529Y-95368210D01*
X98385531Y-95368199D01*
X98405494Y-95000000D01*
X98405455Y-94999289D01*
X98396446Y-94833121D01*
X98385531Y-94631801D01*
X98374887Y-94566878D01*
X98325877Y-94267931D01*
X98325876Y-94267930D01*
X98325875Y-94267919D01*
X98227227Y-93912621D01*
X98090743Y-93570070D01*
X97918022Y-93244284D01*
X97711090Y-92939083D01*
X97472373Y-92658044D01*
X97204670Y-92404462D01*
X96911119Y-92181310D01*
X96595162Y-91991205D01*
X96595161Y-91991204D01*
X96595157Y-91991202D01*
X96595153Y-91991200D01*
X96260513Y-91836379D01*
X96260508Y-91836377D01*
X96260503Y-91836375D01*
X96090172Y-91778983D01*
X95911065Y-91718635D01*
X95550946Y-91639367D01*
X95184371Y-91599500D01*
X95184370Y-91599500D01*
X94815630Y-91599500D01*
X94815628Y-91599500D01*
X94449053Y-91639367D01*
X94088934Y-91718635D01*
X93818812Y-91809650D01*
X93739497Y-91836375D01*
X93739494Y-91836376D01*
X93739486Y-91836379D01*
X93404846Y-91991200D01*
X93404842Y-91991202D01*
X93240172Y-92090281D01*
X93088881Y-92181310D01*
X93077288Y-92190123D01*
X92795330Y-92404461D01*
X92795330Y-92404462D01*
X92527626Y-92658044D01*
X92288909Y-92939083D01*
X92081979Y-93244282D01*
X92081973Y-93244291D01*
X91909261Y-93570061D01*
X91909255Y-93570073D01*
X91772770Y-93912628D01*
X91772768Y-93912634D01*
X91674128Y-94267905D01*
X91674122Y-94267931D01*
X91614470Y-94631786D01*
X91614469Y-94631803D01*
X91594545Y-94999289D01*
X91594506Y-95000000D01*
X88601748Y-95000000D01*
X88648528Y-94953220D01*
X88709719Y-94833126D01*
X88730804Y-94700000D01*
X88728148Y-94683232D01*
X88709720Y-94566878D01*
X88709719Y-94566876D01*
X88709719Y-94566874D01*
X88648528Y-94446780D01*
X88648526Y-94446778D01*
X88648523Y-94446774D01*
X88553225Y-94351476D01*
X88553221Y-94351473D01*
X88553220Y-94351472D01*
X88433126Y-94290281D01*
X88433124Y-94290280D01*
X88433121Y-94290279D01*
X88300002Y-94269196D01*
X88299998Y-94269196D01*
X88166878Y-94290279D01*
X88046778Y-94351473D01*
X88046774Y-94351476D01*
X87951476Y-94446774D01*
X87951473Y-94446778D01*
X87890279Y-94566878D01*
X87869196Y-94699997D01*
X87869196Y-94700002D01*
X83725500Y-94700002D01*
X83725500Y-91745590D01*
X83722687Y-91686896D01*
X83677893Y-91429657D01*
X83634112Y-91300002D01*
X87069196Y-91300002D01*
X87090279Y-91433121D01*
X87090280Y-91433124D01*
X87090281Y-91433126D01*
X87151472Y-91553220D01*
X87151473Y-91553221D01*
X87151476Y-91553225D01*
X87246774Y-91648523D01*
X87246778Y-91648526D01*
X87246780Y-91648528D01*
X87366874Y-91709719D01*
X87366876Y-91709719D01*
X87366878Y-91709720D01*
X87499998Y-91730804D01*
X87500000Y-91730804D01*
X87500002Y-91730804D01*
X87633121Y-91709720D01*
X87633121Y-91709719D01*
X87633126Y-91709719D01*
X87753220Y-91648528D01*
X87848528Y-91553220D01*
X87909719Y-91433126D01*
X87909720Y-91433121D01*
X87930804Y-91300002D01*
X87930804Y-91299997D01*
X87909720Y-91166878D01*
X87909719Y-91166876D01*
X87909719Y-91166874D01*
X87848528Y-91046780D01*
X87848526Y-91046778D01*
X87848523Y-91046774D01*
X87753225Y-90951476D01*
X87753221Y-90951473D01*
X87753220Y-90951472D01*
X87633126Y-90890281D01*
X87633124Y-90890280D01*
X87633121Y-90890279D01*
X87500002Y-90869196D01*
X87499998Y-90869196D01*
X87366878Y-90890279D01*
X87246778Y-90951473D01*
X87246774Y-90951476D01*
X87151476Y-91046774D01*
X87151473Y-91046778D01*
X87090279Y-91166878D01*
X87069196Y-91299997D01*
X87069196Y-91300002D01*
X83634112Y-91300002D01*
X83594357Y-91182270D01*
X83474036Y-90950534D01*
X83474034Y-90950532D01*
X83474033Y-90950529D01*
X83319755Y-90739886D01*
X83319751Y-90739881D01*
X83135118Y-90555248D01*
X83135113Y-90555244D01*
X82924470Y-90400966D01*
X82832512Y-90353220D01*
X82692730Y-90280643D01*
X82445343Y-90197107D01*
X82188104Y-90152313D01*
X82177098Y-90151785D01*
X82129423Y-90149500D01*
X82129410Y-90149500D01*
X78920590Y-90149500D01*
X78920576Y-90149500D01*
X78869232Y-90151961D01*
X78861896Y-90152313D01*
X78690403Y-90182175D01*
X78604656Y-90197107D01*
X78604655Y-90197107D01*
X78357270Y-90280643D01*
X78125529Y-90400966D01*
X77914886Y-90555244D01*
X77914881Y-90555248D01*
X77730248Y-90739881D01*
X77730244Y-90739886D01*
X77575966Y-90950529D01*
X77455643Y-91182270D01*
X77372107Y-91429655D01*
X77372107Y-91429656D01*
X77372107Y-91429657D01*
X77335590Y-91639367D01*
X77327313Y-91686898D01*
X77324500Y-91745576D01*
X77324500Y-94954423D01*
X77023562Y-94954423D01*
X77065829Y-90516401D01*
X77065828Y-90516387D01*
X77065829Y-90516367D01*
X77065674Y-90506210D01*
X77065284Y-90496444D01*
X77064630Y-90486329D01*
X77048364Y-90304547D01*
X77045561Y-90284456D01*
X77041912Y-90265275D01*
X77037140Y-90245551D01*
X77037137Y-90245539D01*
X76986903Y-90075207D01*
X76980209Y-90056052D01*
X76973686Y-90039981D01*
X76972866Y-90037959D01*
X76964317Y-90019559D01*
X76926943Y-89948523D01*
X76881369Y-89861899D01*
X76867114Y-89802983D01*
X76867780Y-89733121D01*
X76868830Y-89622817D01*
X76875766Y-89600002D01*
X91369196Y-89600002D01*
X91390279Y-89733121D01*
X91390280Y-89733124D01*
X91390281Y-89733126D01*
X91447237Y-89844908D01*
X91451473Y-89853221D01*
X91451476Y-89853225D01*
X91546774Y-89948523D01*
X91546778Y-89948526D01*
X91546780Y-89948528D01*
X91666874Y-90009719D01*
X91666876Y-90009719D01*
X91666878Y-90009720D01*
X91799998Y-90030804D01*
X91800000Y-90030804D01*
X91800002Y-90030804D01*
X91933121Y-90009720D01*
X91933121Y-90009719D01*
X91933126Y-90009719D01*
X92053220Y-89948528D01*
X92148528Y-89853220D01*
X92209719Y-89733126D01*
X92219025Y-89674370D01*
X92230804Y-89600002D01*
X92230804Y-89599997D01*
X92209720Y-89466878D01*
X92209719Y-89466876D01*
X92209719Y-89466874D01*
X92148528Y-89346780D01*
X92148526Y-89346778D01*
X92148523Y-89346774D01*
X92053225Y-89251476D01*
X92053221Y-89251473D01*
X92053220Y-89251472D01*
X91933126Y-89190281D01*
X91933124Y-89190280D01*
X91933121Y-89190279D01*
X91800002Y-89169196D01*
X91799998Y-89169196D01*
X91666878Y-89190279D01*
X91546778Y-89251473D01*
X91546774Y-89251476D01*
X91451476Y-89346774D01*
X91451473Y-89346778D01*
X91390279Y-89466878D01*
X91369196Y-89599997D01*
X91369196Y-89600002D01*
X76875766Y-89600002D01*
X76889152Y-89555970D01*
X76942389Y-89510720D01*
X76992824Y-89500000D01*
X80600000Y-89500000D01*
X80600000Y-85350002D01*
X81269196Y-85350002D01*
X81290279Y-85483121D01*
X81290280Y-85483124D01*
X81290281Y-85483126D01*
X81351472Y-85603220D01*
X81351473Y-85603221D01*
X81351476Y-85603225D01*
X81446774Y-85698523D01*
X81446778Y-85698526D01*
X81446780Y-85698528D01*
X81566874Y-85759719D01*
X81566876Y-85759719D01*
X81566878Y-85759720D01*
X81699998Y-85780804D01*
X81700000Y-85780804D01*
X81700002Y-85780804D01*
X81833121Y-85759720D01*
X81833121Y-85759719D01*
X81833126Y-85759719D01*
X81953220Y-85698528D01*
X82048528Y-85603220D01*
X82109719Y-85483126D01*
X82112293Y-85466874D01*
X82130804Y-85350002D01*
X82130804Y-85349997D01*
X82109720Y-85216878D01*
X82109719Y-85216876D01*
X82109719Y-85216874D01*
X82048528Y-85096780D01*
X82048526Y-85096778D01*
X82048523Y-85096774D01*
X81953225Y-85001476D01*
X81953221Y-85001473D01*
X81953220Y-85001472D01*
X81833126Y-84940281D01*
X81833124Y-84940280D01*
X81833121Y-84940279D01*
X81700002Y-84919196D01*
X81699998Y-84919196D01*
X81566878Y-84940279D01*
X81566874Y-84940280D01*
X81566874Y-84940281D01*
X81550698Y-84948523D01*
X81446778Y-85001473D01*
X81446774Y-85001476D01*
X81351476Y-85096774D01*
X81351473Y-85096778D01*
X81351472Y-85096780D01*
X81307477Y-85183126D01*
X81290279Y-85216878D01*
X81269196Y-85349997D01*
X81269196Y-85350002D01*
X80600000Y-85350002D01*
X80600000Y-84900000D01*
X67622888Y-84900000D01*
X67555849Y-84880315D01*
X67510094Y-84827511D01*
X67498893Y-84777117D01*
X67493694Y-84200002D01*
X70519196Y-84200002D01*
X70540279Y-84333121D01*
X70540280Y-84333124D01*
X70540281Y-84333126D01*
X70575996Y-84403220D01*
X70601473Y-84453221D01*
X70601476Y-84453225D01*
X70696774Y-84548523D01*
X70696778Y-84548526D01*
X70696780Y-84548528D01*
X70816874Y-84609719D01*
X70816876Y-84609719D01*
X70816878Y-84609720D01*
X70949998Y-84630804D01*
X70950000Y-84630804D01*
X70950002Y-84630804D01*
X71083121Y-84609720D01*
X71083121Y-84609719D01*
X71083126Y-84609719D01*
X71102197Y-84600002D01*
X91369196Y-84600002D01*
X91390279Y-84733121D01*
X91390280Y-84733124D01*
X91390281Y-84733126D01*
X91438373Y-84827511D01*
X91451473Y-84853221D01*
X91451476Y-84853225D01*
X91546774Y-84948523D01*
X91546778Y-84948526D01*
X91546780Y-84948528D01*
X91666874Y-85009719D01*
X91666876Y-85009719D01*
X91666878Y-85009720D01*
X91799998Y-85030804D01*
X91800000Y-85030804D01*
X91800002Y-85030804D01*
X91933121Y-85009720D01*
X91933121Y-85009719D01*
X91933126Y-85009719D01*
X92053220Y-84948528D01*
X92148528Y-84853220D01*
X92209719Y-84733126D01*
X92213949Y-84706419D01*
X92230804Y-84600002D01*
X92230804Y-84599997D01*
X92209720Y-84466878D01*
X92209719Y-84466876D01*
X92209719Y-84466874D01*
X92148528Y-84346780D01*
X92148526Y-84346778D01*
X92148523Y-84346774D01*
X92053225Y-84251476D01*
X92053221Y-84251473D01*
X92053220Y-84251472D01*
X91933126Y-84190281D01*
X91933124Y-84190280D01*
X91933121Y-84190279D01*
X91800002Y-84169196D01*
X91799998Y-84169196D01*
X91666878Y-84190279D01*
X91666874Y-84190280D01*
X91666874Y-84190281D01*
X91586811Y-84231075D01*
X91546778Y-84251473D01*
X91546774Y-84251476D01*
X91451476Y-84346774D01*
X91451473Y-84346778D01*
X91390279Y-84466878D01*
X91369196Y-84599997D01*
X91369196Y-84600002D01*
X71102197Y-84600002D01*
X71203220Y-84548528D01*
X71298528Y-84453220D01*
X71359719Y-84333126D01*
X71380804Y-84200000D01*
X71379264Y-84190279D01*
X71359720Y-84066878D01*
X71359719Y-84066876D01*
X71359719Y-84066874D01*
X71298528Y-83946780D01*
X71298526Y-83946778D01*
X71298523Y-83946774D01*
X71203225Y-83851476D01*
X71203221Y-83851473D01*
X71203220Y-83851472D01*
X71083126Y-83790281D01*
X71083124Y-83790280D01*
X71083121Y-83790279D01*
X70950002Y-83769196D01*
X70949998Y-83769196D01*
X70816878Y-83790279D01*
X70696778Y-83851473D01*
X70696774Y-83851476D01*
X70601476Y-83946774D01*
X70601473Y-83946778D01*
X70540279Y-84066878D01*
X70519196Y-84199997D01*
X70519196Y-84200002D01*
X67493694Y-84200002D01*
X67484716Y-83203469D01*
X94724500Y-83203469D01*
X94764868Y-83406412D01*
X94764870Y-83406420D01*
X94844058Y-83597596D01*
X94959024Y-83769657D01*
X95105342Y-83915975D01*
X95105345Y-83915977D01*
X95277402Y-84030941D01*
X95468580Y-84110130D01*
X95669021Y-84150000D01*
X95671530Y-84150499D01*
X95671534Y-84150500D01*
X95671535Y-84150500D01*
X96128466Y-84150500D01*
X96128467Y-84150499D01*
X96331420Y-84110130D01*
X96522598Y-84030941D01*
X96694655Y-83915977D01*
X96840977Y-83769655D01*
X96955941Y-83597598D01*
X97035130Y-83406420D01*
X97075500Y-83203465D01*
X97075500Y-82996535D01*
X97035130Y-82793580D01*
X96955941Y-82602402D01*
X96840977Y-82430345D01*
X96840975Y-82430342D01*
X96694657Y-82284024D01*
X96571108Y-82201472D01*
X96522598Y-82169059D01*
X96453117Y-82140279D01*
X96331420Y-82089870D01*
X96331412Y-82089868D01*
X96128469Y-82049500D01*
X96128465Y-82049500D01*
X95671535Y-82049500D01*
X95671530Y-82049500D01*
X95468587Y-82089868D01*
X95468579Y-82089870D01*
X95277403Y-82169058D01*
X95105342Y-82284024D01*
X94959024Y-82430342D01*
X94844058Y-82602403D01*
X94764870Y-82793579D01*
X94764868Y-82793587D01*
X94724500Y-82996530D01*
X94724500Y-83203469D01*
X67484716Y-83203469D01*
X67478829Y-82550002D01*
X89769196Y-82550002D01*
X89790279Y-82683121D01*
X89790280Y-82683124D01*
X89790281Y-82683126D01*
X89846564Y-82793587D01*
X89851473Y-82803221D01*
X89851476Y-82803225D01*
X89946774Y-82898523D01*
X89946778Y-82898526D01*
X89946780Y-82898528D01*
X90066874Y-82959719D01*
X90066876Y-82959719D01*
X90066878Y-82959720D01*
X90199998Y-82980804D01*
X90200000Y-82980804D01*
X90200002Y-82980804D01*
X90333121Y-82959720D01*
X90333121Y-82959719D01*
X90333126Y-82959719D01*
X90453220Y-82898528D01*
X90548528Y-82803220D01*
X90609719Y-82683126D01*
X90622504Y-82602403D01*
X90630804Y-82550002D01*
X90630804Y-82549997D01*
X90609720Y-82416878D01*
X90609719Y-82416876D01*
X90609719Y-82416874D01*
X90548528Y-82296780D01*
X90548526Y-82296778D01*
X90548523Y-82296774D01*
X90453225Y-82201476D01*
X90453221Y-82201473D01*
X90453220Y-82201472D01*
X90333126Y-82140281D01*
X90333124Y-82140280D01*
X90333121Y-82140279D01*
X90200002Y-82119196D01*
X90199998Y-82119196D01*
X90066878Y-82140279D01*
X89946778Y-82201473D01*
X89946774Y-82201476D01*
X89851476Y-82296774D01*
X89851473Y-82296778D01*
X89790279Y-82416878D01*
X89769196Y-82549997D01*
X89769196Y-82550002D01*
X67478829Y-82550002D01*
X67468018Y-81350002D01*
X89819196Y-81350002D01*
X89840279Y-81483121D01*
X89840280Y-81483124D01*
X89840281Y-81483126D01*
X89901472Y-81603220D01*
X89901473Y-81603221D01*
X89901476Y-81603225D01*
X89996774Y-81698523D01*
X89996778Y-81698526D01*
X89996780Y-81698528D01*
X90116874Y-81759719D01*
X90116876Y-81759719D01*
X90116878Y-81759720D01*
X90249998Y-81780804D01*
X90250000Y-81780804D01*
X90250002Y-81780804D01*
X90383121Y-81759720D01*
X90383121Y-81759719D01*
X90383126Y-81759719D01*
X90503220Y-81698528D01*
X90598528Y-81603220D01*
X90659719Y-81483126D01*
X90659720Y-81483121D01*
X90680804Y-81350002D01*
X90680804Y-81349997D01*
X90659720Y-81216878D01*
X90659719Y-81216876D01*
X90659719Y-81216874D01*
X90598528Y-81096780D01*
X90598526Y-81096778D01*
X90598523Y-81096774D01*
X90503225Y-81001476D01*
X90503221Y-81001473D01*
X90503220Y-81001472D01*
X90383126Y-80940281D01*
X90383124Y-80940280D01*
X90383121Y-80940279D01*
X90250002Y-80919196D01*
X90249998Y-80919196D01*
X90116878Y-80940279D01*
X89996778Y-81001473D01*
X89996774Y-81001476D01*
X89901476Y-81096774D01*
X89901473Y-81096778D01*
X89840279Y-81216878D01*
X89819196Y-81349997D01*
X89819196Y-81350002D01*
X67468018Y-81350002D01*
X67462193Y-80703469D01*
X94724500Y-80703469D01*
X94764868Y-80906412D01*
X94764870Y-80906420D01*
X94844058Y-81097596D01*
X94959024Y-81269657D01*
X95105342Y-81415975D01*
X95105345Y-81415977D01*
X95277402Y-81530941D01*
X95468580Y-81610130D01*
X95671530Y-81650499D01*
X95671534Y-81650500D01*
X95671535Y-81650500D01*
X96128466Y-81650500D01*
X96128467Y-81650499D01*
X96331420Y-81610130D01*
X96522598Y-81530941D01*
X96694655Y-81415977D01*
X96840977Y-81269655D01*
X96955941Y-81097598D01*
X97035130Y-80906420D01*
X97075500Y-80703465D01*
X97075500Y-80496535D01*
X97035130Y-80293580D01*
X96955941Y-80102402D01*
X96840977Y-79930345D01*
X96840975Y-79930342D01*
X96694657Y-79784024D01*
X96573724Y-79703220D01*
X96522598Y-79669059D01*
X96331420Y-79589870D01*
X96331412Y-79589868D01*
X96128469Y-79549500D01*
X96128465Y-79549500D01*
X95671535Y-79549500D01*
X95671530Y-79549500D01*
X95468587Y-79589868D01*
X95468579Y-79589870D01*
X95277403Y-79669058D01*
X95105342Y-79784024D01*
X94959024Y-79930342D01*
X94844058Y-80102403D01*
X94764870Y-80293579D01*
X94764868Y-80293587D01*
X94724500Y-80496530D01*
X94724500Y-80703469D01*
X67462193Y-80703469D01*
X67450450Y-79400002D01*
X70969196Y-79400002D01*
X70990279Y-79533121D01*
X70990280Y-79533124D01*
X70990281Y-79533126D01*
X71051472Y-79653220D01*
X71051473Y-79653221D01*
X71051476Y-79653225D01*
X71146774Y-79748523D01*
X71146778Y-79748526D01*
X71146780Y-79748528D01*
X71266874Y-79809719D01*
X71266876Y-79809719D01*
X71266878Y-79809720D01*
X71399998Y-79830804D01*
X71400000Y-79830804D01*
X71400002Y-79830804D01*
X71533121Y-79809720D01*
X71533121Y-79809719D01*
X71533126Y-79809719D01*
X71653220Y-79748528D01*
X71748528Y-79653220D01*
X71775644Y-79600002D01*
X80369196Y-79600002D01*
X80390279Y-79733121D01*
X80390280Y-79733124D01*
X80390281Y-79733126D01*
X80451472Y-79853220D01*
X80451473Y-79853221D01*
X80451476Y-79853225D01*
X80546774Y-79948523D01*
X80546778Y-79948526D01*
X80546780Y-79948528D01*
X80666874Y-80009719D01*
X80666876Y-80009719D01*
X80666878Y-80009720D01*
X80799998Y-80030804D01*
X80800000Y-80030804D01*
X80800002Y-80030804D01*
X80933121Y-80009720D01*
X80933121Y-80009719D01*
X80933126Y-80009719D01*
X81053220Y-79948528D01*
X81148528Y-79853220D01*
X81209719Y-79733126D01*
X81214455Y-79703225D01*
X81230804Y-79600002D01*
X81230804Y-79599997D01*
X81209720Y-79466878D01*
X81209719Y-79466876D01*
X81209719Y-79466874D01*
X81201122Y-79450002D01*
X90219196Y-79450002D01*
X90240279Y-79583121D01*
X90240280Y-79583124D01*
X90240281Y-79583126D01*
X90301472Y-79703220D01*
X90301473Y-79703221D01*
X90301476Y-79703225D01*
X90396774Y-79798523D01*
X90396778Y-79798526D01*
X90396780Y-79798528D01*
X90516874Y-79859719D01*
X90516876Y-79859719D01*
X90516878Y-79859720D01*
X90649998Y-79880804D01*
X90650000Y-79880804D01*
X90650002Y-79880804D01*
X90783121Y-79859720D01*
X90783121Y-79859719D01*
X90783126Y-79859719D01*
X90903220Y-79798528D01*
X90998528Y-79703220D01*
X91059719Y-79583126D01*
X91078131Y-79466878D01*
X91080804Y-79450002D01*
X91080804Y-79449997D01*
X91059720Y-79316878D01*
X91059719Y-79316876D01*
X91059719Y-79316874D01*
X90998528Y-79196780D01*
X90998526Y-79196778D01*
X90998523Y-79196774D01*
X90903225Y-79101476D01*
X90903221Y-79101473D01*
X90903220Y-79101472D01*
X90783126Y-79040281D01*
X90783124Y-79040280D01*
X90783121Y-79040279D01*
X90650002Y-79019196D01*
X90649998Y-79019196D01*
X90516878Y-79040279D01*
X90516874Y-79040280D01*
X90516874Y-79040281D01*
X90494903Y-79051476D01*
X90396778Y-79101473D01*
X90396774Y-79101476D01*
X90301476Y-79196774D01*
X90301473Y-79196778D01*
X90240279Y-79316878D01*
X90219196Y-79449997D01*
X90219196Y-79450002D01*
X81201122Y-79450002D01*
X81148528Y-79346780D01*
X81148526Y-79346778D01*
X81148523Y-79346774D01*
X81053225Y-79251476D01*
X81053221Y-79251473D01*
X81053220Y-79251472D01*
X80933126Y-79190281D01*
X80933124Y-79190280D01*
X80933121Y-79190279D01*
X80800002Y-79169196D01*
X80799998Y-79169196D01*
X80666878Y-79190279D01*
X80546778Y-79251473D01*
X80546774Y-79251476D01*
X80451476Y-79346774D01*
X80451473Y-79346778D01*
X80390279Y-79466878D01*
X80369196Y-79599997D01*
X80369196Y-79600002D01*
X71775644Y-79600002D01*
X71809719Y-79533126D01*
X71820212Y-79466878D01*
X71830804Y-79400002D01*
X71830804Y-79399995D01*
X71809720Y-79266878D01*
X71809719Y-79266876D01*
X71809719Y-79266874D01*
X71748528Y-79146780D01*
X71748526Y-79146778D01*
X71748523Y-79146774D01*
X71653225Y-79051476D01*
X71653221Y-79051473D01*
X71653220Y-79051472D01*
X71533126Y-78990281D01*
X71533124Y-78990280D01*
X71533121Y-78990279D01*
X71400002Y-78969196D01*
X71399998Y-78969196D01*
X71266878Y-78990279D01*
X71146778Y-79051473D01*
X71146774Y-79051476D01*
X71051476Y-79146774D01*
X71051473Y-79146778D01*
X70990279Y-79266878D01*
X70969196Y-79399995D01*
X70969196Y-79400002D01*
X67450450Y-79400002D01*
X67449827Y-79330797D01*
X67439259Y-79311741D01*
X67443787Y-79242018D01*
X67485291Y-79185811D01*
X67503942Y-79174112D01*
X67603220Y-79123528D01*
X67698528Y-79028220D01*
X67759719Y-78908126D01*
X67780804Y-78775000D01*
X67779957Y-78769655D01*
X67759720Y-78641878D01*
X67759719Y-78641876D01*
X67759719Y-78641874D01*
X67698528Y-78521780D01*
X67698526Y-78521778D01*
X67698523Y-78521774D01*
X67603225Y-78426476D01*
X67603221Y-78426473D01*
X67603220Y-78426472D01*
X67483126Y-78365281D01*
X67483124Y-78365280D01*
X67483121Y-78365279D01*
X67350002Y-78344196D01*
X67349998Y-78344196D01*
X67216878Y-78365279D01*
X67096778Y-78426473D01*
X67096774Y-78426476D01*
X67001476Y-78521774D01*
X67001473Y-78521778D01*
X66940279Y-78641878D01*
X66919196Y-78774997D01*
X66919196Y-78775002D01*
X66940279Y-78908121D01*
X66940280Y-78908124D01*
X66940281Y-78908126D01*
X67001472Y-79028220D01*
X67001473Y-79028221D01*
X67001476Y-79028225D01*
X67096775Y-79123524D01*
X67096778Y-79123526D01*
X67096780Y-79123528D01*
X67096781Y-79123528D01*
X67102125Y-79127411D01*
X67144791Y-79182741D01*
X67150770Y-79252354D01*
X67118165Y-79314150D01*
X67057326Y-79348507D01*
X67029750Y-79351729D01*
X55301079Y-79399995D01*
X55298916Y-79399985D01*
X47903972Y-79301386D01*
X47837201Y-79280809D01*
X47792154Y-79227400D01*
X47783245Y-79197377D01*
X47780855Y-79182741D01*
X47620974Y-78203469D01*
X94724500Y-78203469D01*
X94764868Y-78406412D01*
X94764870Y-78406420D01*
X94844058Y-78597596D01*
X94959024Y-78769657D01*
X95105342Y-78915975D01*
X95105345Y-78915977D01*
X95277402Y-79030941D01*
X95468580Y-79110130D01*
X95652803Y-79146774D01*
X95671530Y-79150499D01*
X95671534Y-79150500D01*
X95671535Y-79150500D01*
X96128466Y-79150500D01*
X96128467Y-79150499D01*
X96331420Y-79110130D01*
X96522598Y-79030941D01*
X96694655Y-78915977D01*
X96840977Y-78769655D01*
X96955941Y-78597598D01*
X97035130Y-78406420D01*
X97075500Y-78203465D01*
X97075500Y-77996535D01*
X97035130Y-77793580D01*
X96955941Y-77602402D01*
X96840977Y-77430345D01*
X96840975Y-77430342D01*
X96694657Y-77284024D01*
X96522803Y-77169196D01*
X96522598Y-77169059D01*
X96331420Y-77089870D01*
X96331412Y-77089868D01*
X96128469Y-77049500D01*
X96128465Y-77049500D01*
X95671535Y-77049500D01*
X95671530Y-77049500D01*
X95468587Y-77089868D01*
X95468579Y-77089870D01*
X95277403Y-77169058D01*
X95105342Y-77284024D01*
X94959024Y-77430342D01*
X94844058Y-77602403D01*
X94764870Y-77793579D01*
X94764868Y-77793587D01*
X94724500Y-77996530D01*
X94724500Y-78203469D01*
X47620974Y-78203469D01*
X47522449Y-77600002D01*
X57219196Y-77600002D01*
X57240279Y-77733121D01*
X57240280Y-77733124D01*
X57240281Y-77733126D01*
X57301472Y-77853220D01*
X57301473Y-77853221D01*
X57301476Y-77853225D01*
X57396774Y-77948523D01*
X57396778Y-77948526D01*
X57396780Y-77948528D01*
X57516874Y-78009719D01*
X57516876Y-78009719D01*
X57516878Y-78009720D01*
X57649998Y-78030804D01*
X57650000Y-78030804D01*
X57650002Y-78030804D01*
X57783121Y-78009720D01*
X57783121Y-78009719D01*
X57783126Y-78009719D01*
X57903220Y-77948528D01*
X57998528Y-77853220D01*
X58059719Y-77733126D01*
X58063426Y-77709720D01*
X58080804Y-77600002D01*
X58080804Y-77599997D01*
X58059720Y-77466878D01*
X58059719Y-77466876D01*
X58059719Y-77466874D01*
X57998528Y-77346780D01*
X57998526Y-77346778D01*
X57998523Y-77346774D01*
X57951751Y-77300002D01*
X66569196Y-77300002D01*
X66590279Y-77433121D01*
X66590280Y-77433124D01*
X66590281Y-77433126D01*
X66651472Y-77553220D01*
X66651473Y-77553221D01*
X66651476Y-77553225D01*
X66746774Y-77648523D01*
X66746778Y-77648526D01*
X66746780Y-77648528D01*
X66866874Y-77709719D01*
X66866876Y-77709719D01*
X66866878Y-77709720D01*
X66999998Y-77730804D01*
X67000000Y-77730804D01*
X67000002Y-77730804D01*
X67133121Y-77709720D01*
X67133121Y-77709719D01*
X67133126Y-77709719D01*
X67253220Y-77648528D01*
X67348528Y-77553220D01*
X67409719Y-77433126D01*
X67409720Y-77433121D01*
X67430804Y-77300002D01*
X67430804Y-77299997D01*
X67409720Y-77166878D01*
X67409719Y-77166876D01*
X67409719Y-77166874D01*
X67348528Y-77046780D01*
X67348526Y-77046778D01*
X67348523Y-77046774D01*
X67253225Y-76951476D01*
X67253221Y-76951473D01*
X67253220Y-76951472D01*
X67133126Y-76890281D01*
X67133124Y-76890280D01*
X67133121Y-76890279D01*
X67068232Y-76880002D01*
X72589196Y-76880002D01*
X72610279Y-77013121D01*
X72610280Y-77013124D01*
X72610281Y-77013126D01*
X72654546Y-77100000D01*
X72671473Y-77133221D01*
X72671476Y-77133225D01*
X72766774Y-77228523D01*
X72766778Y-77228526D01*
X72766780Y-77228528D01*
X72886874Y-77289719D01*
X72886876Y-77289719D01*
X72886878Y-77289720D01*
X73019998Y-77310804D01*
X73020000Y-77310804D01*
X73020002Y-77310804D01*
X73088203Y-77300002D01*
X81869196Y-77300002D01*
X81890279Y-77433121D01*
X81890280Y-77433124D01*
X81890281Y-77433126D01*
X81951472Y-77553220D01*
X81951473Y-77553221D01*
X81951476Y-77553225D01*
X82046774Y-77648523D01*
X82046778Y-77648526D01*
X82046780Y-77648528D01*
X82166874Y-77709719D01*
X82166876Y-77709719D01*
X82166878Y-77709720D01*
X82299998Y-77730804D01*
X82300000Y-77730804D01*
X82300002Y-77730804D01*
X82433121Y-77709720D01*
X82433121Y-77709719D01*
X82433126Y-77709719D01*
X82553220Y-77648528D01*
X82648528Y-77553220D01*
X82709719Y-77433126D01*
X82709720Y-77433121D01*
X82730804Y-77300002D01*
X82730804Y-77299997D01*
X82709720Y-77166878D01*
X82709719Y-77166876D01*
X82709719Y-77166874D01*
X82648528Y-77046780D01*
X82648526Y-77046778D01*
X82648523Y-77046774D01*
X82553225Y-76951476D01*
X82553221Y-76951473D01*
X82553220Y-76951472D01*
X82452205Y-76900002D01*
X88369196Y-76900002D01*
X88390279Y-77033121D01*
X88390280Y-77033124D01*
X88390281Y-77033126D01*
X88451472Y-77153220D01*
X88451473Y-77153221D01*
X88451476Y-77153225D01*
X88546774Y-77248523D01*
X88546778Y-77248526D01*
X88546780Y-77248528D01*
X88666874Y-77309719D01*
X88666876Y-77309719D01*
X88666878Y-77309720D01*
X88799998Y-77330804D01*
X88800000Y-77330804D01*
X88800002Y-77330804D01*
X88933121Y-77309720D01*
X88933121Y-77309719D01*
X88933126Y-77309719D01*
X89053220Y-77248528D01*
X89148528Y-77153220D01*
X89209719Y-77033126D01*
X89212887Y-77013126D01*
X89230804Y-76900002D01*
X89230804Y-76899997D01*
X89209720Y-76766878D01*
X89209719Y-76766876D01*
X89209719Y-76766874D01*
X89148528Y-76646780D01*
X89148526Y-76646778D01*
X89148523Y-76646774D01*
X89053225Y-76551476D01*
X89053221Y-76551473D01*
X89053220Y-76551472D01*
X88933126Y-76490281D01*
X88933124Y-76490280D01*
X88933121Y-76490279D01*
X88800002Y-76469196D01*
X88799998Y-76469196D01*
X88666878Y-76490279D01*
X88546778Y-76551473D01*
X88546774Y-76551476D01*
X88451476Y-76646774D01*
X88451473Y-76646778D01*
X88451472Y-76646780D01*
X88400470Y-76746878D01*
X88390279Y-76766878D01*
X88369196Y-76899997D01*
X88369196Y-76900002D01*
X82452205Y-76900002D01*
X82433126Y-76890281D01*
X82433124Y-76890280D01*
X82433121Y-76890279D01*
X82300002Y-76869196D01*
X82299998Y-76869196D01*
X82166878Y-76890279D01*
X82166874Y-76890280D01*
X82166874Y-76890281D01*
X82086811Y-76931075D01*
X82046778Y-76951473D01*
X82046774Y-76951476D01*
X81951476Y-77046774D01*
X81951473Y-77046778D01*
X81890279Y-77166878D01*
X81869196Y-77299997D01*
X81869196Y-77300002D01*
X73088203Y-77300002D01*
X73153121Y-77289720D01*
X73153121Y-77289719D01*
X73153126Y-77289719D01*
X73273220Y-77228528D01*
X73368528Y-77133220D01*
X73429719Y-77013126D01*
X73429720Y-77013121D01*
X73450804Y-76880002D01*
X73450804Y-76879997D01*
X73429720Y-76746878D01*
X73429719Y-76746876D01*
X73429719Y-76746874D01*
X73368528Y-76626780D01*
X73368526Y-76626778D01*
X73368523Y-76626774D01*
X73273225Y-76531476D01*
X73273221Y-76531473D01*
X73273220Y-76531472D01*
X73153126Y-76470281D01*
X73153124Y-76470280D01*
X73153121Y-76470279D01*
X73020002Y-76449196D01*
X73019998Y-76449196D01*
X72886878Y-76470279D01*
X72766778Y-76531473D01*
X72766774Y-76531476D01*
X72671476Y-76626774D01*
X72671473Y-76626778D01*
X72610279Y-76746878D01*
X72589196Y-76879997D01*
X72589196Y-76880002D01*
X67068232Y-76880002D01*
X67000002Y-76869196D01*
X66999998Y-76869196D01*
X66866878Y-76890279D01*
X66866874Y-76890280D01*
X66866874Y-76890281D01*
X66786811Y-76931075D01*
X66746778Y-76951473D01*
X66746774Y-76951476D01*
X66651476Y-77046774D01*
X66651473Y-77046778D01*
X66590279Y-77166878D01*
X66569196Y-77299997D01*
X66569196Y-77300002D01*
X57951751Y-77300002D01*
X57903225Y-77251476D01*
X57903221Y-77251473D01*
X57903220Y-77251472D01*
X57783126Y-77190281D01*
X57783124Y-77190280D01*
X57783121Y-77190279D01*
X57650002Y-77169196D01*
X57649998Y-77169196D01*
X57516878Y-77190279D01*
X57396778Y-77251473D01*
X57396774Y-77251476D01*
X57301476Y-77346774D01*
X57301473Y-77346778D01*
X57301472Y-77346780D01*
X57257477Y-77433126D01*
X57240279Y-77466878D01*
X57219196Y-77599997D01*
X57219196Y-77600002D01*
X47522449Y-77600002D01*
X47440816Y-77100002D01*
X48669196Y-77100002D01*
X48690279Y-77233121D01*
X48690280Y-77233124D01*
X48690281Y-77233126D01*
X48748188Y-77346774D01*
X48751473Y-77353221D01*
X48751476Y-77353225D01*
X48846774Y-77448523D01*
X48846778Y-77448526D01*
X48846780Y-77448528D01*
X48966874Y-77509719D01*
X48966876Y-77509719D01*
X48966878Y-77509720D01*
X49099998Y-77530804D01*
X49100000Y-77530804D01*
X49100002Y-77530804D01*
X49233121Y-77509720D01*
X49233121Y-77509719D01*
X49233126Y-77509719D01*
X49353220Y-77448528D01*
X49448528Y-77353220D01*
X49509719Y-77233126D01*
X49516505Y-77190281D01*
X49530804Y-77100002D01*
X49530804Y-77099997D01*
X49509720Y-76966878D01*
X49509719Y-76966876D01*
X49509719Y-76966874D01*
X49448528Y-76846780D01*
X49448526Y-76846778D01*
X49448523Y-76846774D01*
X49353225Y-76751476D01*
X49353221Y-76751473D01*
X49353220Y-76751472D01*
X49233126Y-76690281D01*
X49233124Y-76690280D01*
X49233121Y-76690279D01*
X49100002Y-76669196D01*
X49099998Y-76669196D01*
X48966878Y-76690279D01*
X48846778Y-76751473D01*
X48846774Y-76751476D01*
X48751476Y-76846774D01*
X48751473Y-76846778D01*
X48690279Y-76966878D01*
X48669196Y-77099997D01*
X48669196Y-77100002D01*
X47440816Y-77100002D01*
X47351020Y-76550002D01*
X60269196Y-76550002D01*
X60290279Y-76683121D01*
X60290280Y-76683124D01*
X60290281Y-76683126D01*
X60332953Y-76766874D01*
X60351473Y-76803221D01*
X60351476Y-76803225D01*
X60446774Y-76898523D01*
X60446778Y-76898526D01*
X60446780Y-76898528D01*
X60566874Y-76959719D01*
X60566876Y-76959719D01*
X60566878Y-76959720D01*
X60699998Y-76980804D01*
X60700000Y-76980804D01*
X60700002Y-76980804D01*
X60833121Y-76959720D01*
X60833121Y-76959719D01*
X60833126Y-76959719D01*
X60953220Y-76898528D01*
X61048528Y-76803220D01*
X61109719Y-76683126D01*
X61109720Y-76683121D01*
X61130804Y-76550002D01*
X61130804Y-76549997D01*
X61109720Y-76416878D01*
X61109719Y-76416876D01*
X61109719Y-76416874D01*
X61048528Y-76296780D01*
X61048526Y-76296778D01*
X61048523Y-76296774D01*
X60953225Y-76201476D01*
X60953221Y-76201473D01*
X60953220Y-76201472D01*
X60833126Y-76140281D01*
X60833124Y-76140280D01*
X60833121Y-76140279D01*
X60700002Y-76119196D01*
X60699998Y-76119196D01*
X60566878Y-76140279D01*
X60446778Y-76201473D01*
X60446774Y-76201476D01*
X60351476Y-76296774D01*
X60351473Y-76296778D01*
X60290279Y-76416878D01*
X60269196Y-76549997D01*
X60269196Y-76550002D01*
X47351020Y-76550002D01*
X47212810Y-75703469D01*
X94724500Y-75703469D01*
X94764868Y-75906412D01*
X94764870Y-75906420D01*
X94844059Y-76097598D01*
X94872579Y-76140281D01*
X94959024Y-76269657D01*
X95105342Y-76415975D01*
X95105345Y-76415977D01*
X95277402Y-76530941D01*
X95468580Y-76610130D01*
X95652803Y-76646774D01*
X95671530Y-76650499D01*
X95671534Y-76650500D01*
X95671535Y-76650500D01*
X96128466Y-76650500D01*
X96128467Y-76650499D01*
X96331420Y-76610130D01*
X96522598Y-76530941D01*
X96694655Y-76415977D01*
X96840977Y-76269655D01*
X96955941Y-76097598D01*
X97035130Y-75906420D01*
X97075500Y-75703465D01*
X97075500Y-75496535D01*
X97035130Y-75293580D01*
X96955941Y-75102402D01*
X96840977Y-74930345D01*
X96840975Y-74930342D01*
X96694657Y-74784024D01*
X96525543Y-74671027D01*
X96522598Y-74669059D01*
X96480139Y-74651472D01*
X96331420Y-74589870D01*
X96331412Y-74589868D01*
X96128469Y-74549500D01*
X96128465Y-74549500D01*
X95671535Y-74549500D01*
X95671530Y-74549500D01*
X95468587Y-74589868D01*
X95468579Y-74589870D01*
X95277403Y-74669058D01*
X95105342Y-74784024D01*
X94959024Y-74930342D01*
X94844058Y-75102403D01*
X94764870Y-75293579D01*
X94764868Y-75293587D01*
X94724500Y-75496530D01*
X94724500Y-75703469D01*
X47212810Y-75703469D01*
X47126530Y-75175002D01*
X84369196Y-75175002D01*
X84390279Y-75308121D01*
X84390280Y-75308124D01*
X84390281Y-75308126D01*
X84442046Y-75409720D01*
X84451473Y-75428221D01*
X84451476Y-75428225D01*
X84546774Y-75523523D01*
X84546778Y-75523526D01*
X84546780Y-75523528D01*
X84666874Y-75584719D01*
X84666876Y-75584719D01*
X84666878Y-75584720D01*
X84799998Y-75605804D01*
X84800000Y-75605804D01*
X84800002Y-75605804D01*
X84933121Y-75584720D01*
X84933121Y-75584719D01*
X84933126Y-75584719D01*
X85053220Y-75523528D01*
X85148528Y-75428220D01*
X85209719Y-75308126D01*
X85212023Y-75293579D01*
X85230804Y-75175002D01*
X85230804Y-75174997D01*
X85209720Y-75041878D01*
X85209719Y-75041876D01*
X85209719Y-75041874D01*
X85188384Y-75000002D01*
X92669196Y-75000002D01*
X92690279Y-75133121D01*
X92690280Y-75133124D01*
X92690281Y-75133126D01*
X92711617Y-75175000D01*
X92751473Y-75253221D01*
X92751476Y-75253225D01*
X92846774Y-75348523D01*
X92846778Y-75348526D01*
X92846780Y-75348528D01*
X92966874Y-75409719D01*
X92966876Y-75409719D01*
X92966878Y-75409720D01*
X93099998Y-75430804D01*
X93100000Y-75430804D01*
X93100002Y-75430804D01*
X93233121Y-75409720D01*
X93233121Y-75409719D01*
X93233126Y-75409719D01*
X93353220Y-75348528D01*
X93448528Y-75253220D01*
X93509719Y-75133126D01*
X93518006Y-75080804D01*
X93530804Y-75000002D01*
X93530804Y-74999997D01*
X93509720Y-74866878D01*
X93509719Y-74866876D01*
X93509719Y-74866874D01*
X93448528Y-74746780D01*
X93448526Y-74746778D01*
X93448523Y-74746774D01*
X93353225Y-74651476D01*
X93353221Y-74651473D01*
X93353220Y-74651472D01*
X93233126Y-74590281D01*
X93233124Y-74590280D01*
X93233121Y-74590279D01*
X93100002Y-74569196D01*
X93099998Y-74569196D01*
X92966878Y-74590279D01*
X92846778Y-74651473D01*
X92846774Y-74651476D01*
X92751476Y-74746774D01*
X92751473Y-74746778D01*
X92690279Y-74866878D01*
X92669196Y-74999997D01*
X92669196Y-75000002D01*
X85188384Y-75000002D01*
X85148528Y-74921780D01*
X85148526Y-74921778D01*
X85148523Y-74921774D01*
X85053225Y-74826476D01*
X85053221Y-74826473D01*
X85053220Y-74826472D01*
X84933126Y-74765281D01*
X84933124Y-74765280D01*
X84933121Y-74765279D01*
X84800002Y-74744196D01*
X84799998Y-74744196D01*
X84666878Y-74765279D01*
X84546778Y-74826473D01*
X84546774Y-74826476D01*
X84451476Y-74921774D01*
X84451473Y-74921778D01*
X84390279Y-75041878D01*
X84369196Y-75174997D01*
X84369196Y-75175002D01*
X47126530Y-75175002D01*
X47040816Y-74650002D01*
X58069196Y-74650002D01*
X58090279Y-74783121D01*
X58090280Y-74783124D01*
X58090281Y-74783126D01*
X58112369Y-74826476D01*
X58151473Y-74903221D01*
X58151476Y-74903225D01*
X58246774Y-74998523D01*
X58246778Y-74998526D01*
X58246780Y-74998528D01*
X58366874Y-75059719D01*
X58366876Y-75059719D01*
X58366878Y-75059720D01*
X58499998Y-75080804D01*
X58500000Y-75080804D01*
X58500002Y-75080804D01*
X58633121Y-75059720D01*
X58633121Y-75059719D01*
X58633126Y-75059719D01*
X58753220Y-74998528D01*
X58848528Y-74903220D01*
X58909719Y-74783126D01*
X58909720Y-74783121D01*
X58930804Y-74650002D01*
X58930804Y-74649997D01*
X58909720Y-74516878D01*
X58909719Y-74516876D01*
X58909719Y-74516874D01*
X58848528Y-74396780D01*
X58848526Y-74396778D01*
X58848523Y-74396774D01*
X58774252Y-74322503D01*
X68246695Y-74322503D01*
X68267778Y-74455622D01*
X68267779Y-74455625D01*
X68267780Y-74455627D01*
X68328971Y-74575721D01*
X68328972Y-74575722D01*
X68328975Y-74575726D01*
X68424273Y-74671024D01*
X68424277Y-74671027D01*
X68424279Y-74671029D01*
X68544373Y-74732220D01*
X68544375Y-74732220D01*
X68544377Y-74732221D01*
X68677497Y-74753305D01*
X68677499Y-74753305D01*
X68677501Y-74753305D01*
X68810620Y-74732221D01*
X68810620Y-74732220D01*
X68810625Y-74732220D01*
X68930719Y-74671029D01*
X69026027Y-74575721D01*
X69087218Y-74455627D01*
X69094499Y-74409658D01*
X69108303Y-74322503D01*
X69108303Y-74322498D01*
X69087219Y-74189379D01*
X69087218Y-74189377D01*
X69087218Y-74189375D01*
X69026027Y-74069281D01*
X69026025Y-74069279D01*
X69026022Y-74069275D01*
X68930724Y-73973977D01*
X68930720Y-73973974D01*
X68930719Y-73973973D01*
X68810625Y-73912782D01*
X68810623Y-73912781D01*
X68810620Y-73912780D01*
X68677501Y-73891697D01*
X68677497Y-73891697D01*
X68544377Y-73912780D01*
X68544373Y-73912781D01*
X68544373Y-73912782D01*
X68464310Y-73953576D01*
X68424277Y-73973974D01*
X68424273Y-73973977D01*
X68328975Y-74069275D01*
X68328972Y-74069279D01*
X68267778Y-74189379D01*
X68246695Y-74322498D01*
X68246695Y-74322503D01*
X58774252Y-74322503D01*
X58753225Y-74301476D01*
X58753221Y-74301473D01*
X58753220Y-74301472D01*
X58633126Y-74240281D01*
X58633124Y-74240280D01*
X58633121Y-74240279D01*
X58500002Y-74219196D01*
X58499998Y-74219196D01*
X58366878Y-74240279D01*
X58246778Y-74301473D01*
X58246774Y-74301476D01*
X58151476Y-74396774D01*
X58151473Y-74396778D01*
X58090279Y-74516878D01*
X58069196Y-74649997D01*
X58069196Y-74650002D01*
X47040816Y-74650002D01*
X47001576Y-74409658D01*
X46999958Y-74390210D01*
X46998761Y-74110129D01*
X46994017Y-73000002D01*
X62719196Y-73000002D01*
X62740279Y-73133121D01*
X62740280Y-73133124D01*
X62740281Y-73133126D01*
X62791234Y-73233126D01*
X62801473Y-73253221D01*
X62801476Y-73253225D01*
X62896774Y-73348523D01*
X62896778Y-73348526D01*
X62896780Y-73348528D01*
X63016874Y-73409719D01*
X63016876Y-73409719D01*
X63016878Y-73409720D01*
X63149998Y-73430804D01*
X63150000Y-73430804D01*
X63150002Y-73430804D01*
X63283121Y-73409720D01*
X63283121Y-73409719D01*
X63283126Y-73409719D01*
X63403220Y-73348528D01*
X63498528Y-73253220D01*
X63559719Y-73133126D01*
X63563426Y-73109720D01*
X63564965Y-73100002D01*
X65269196Y-73100002D01*
X65290279Y-73233121D01*
X65290280Y-73233124D01*
X65290281Y-73233126D01*
X65351472Y-73353220D01*
X65351473Y-73353221D01*
X65351476Y-73353225D01*
X65446774Y-73448523D01*
X65446778Y-73448526D01*
X65446780Y-73448528D01*
X65566874Y-73509719D01*
X65566876Y-73509719D01*
X65566878Y-73509720D01*
X65699998Y-73530804D01*
X65700000Y-73530804D01*
X65700002Y-73530804D01*
X65833121Y-73509720D01*
X65833121Y-73509719D01*
X65833126Y-73509719D01*
X65953220Y-73448528D01*
X66048528Y-73353220D01*
X66109719Y-73233126D01*
X66114417Y-73203465D01*
X66122885Y-73150002D01*
X87019196Y-73150002D01*
X87040279Y-73283121D01*
X87040280Y-73283124D01*
X87040281Y-73283126D01*
X87101472Y-73403220D01*
X87101473Y-73403221D01*
X87101476Y-73403225D01*
X87196774Y-73498523D01*
X87196778Y-73498526D01*
X87196780Y-73498528D01*
X87316874Y-73559719D01*
X87316876Y-73559719D01*
X87316878Y-73559720D01*
X87449998Y-73580804D01*
X87450000Y-73580804D01*
X87450002Y-73580804D01*
X87583121Y-73559720D01*
X87583121Y-73559719D01*
X87583126Y-73559719D01*
X87703220Y-73498528D01*
X87798528Y-73403220D01*
X87859719Y-73283126D01*
X87864455Y-73253225D01*
X87872336Y-73203469D01*
X94724500Y-73203469D01*
X94764868Y-73406412D01*
X94764870Y-73406420D01*
X94844058Y-73597596D01*
X94959024Y-73769657D01*
X95105342Y-73915975D01*
X95105345Y-73915977D01*
X95277402Y-74030941D01*
X95468580Y-74110130D01*
X95671530Y-74150499D01*
X95671534Y-74150500D01*
X95671535Y-74150500D01*
X96128466Y-74150500D01*
X96128467Y-74150499D01*
X96331420Y-74110130D01*
X96522598Y-74030941D01*
X96694655Y-73915977D01*
X96840977Y-73769655D01*
X96955941Y-73597598D01*
X97035130Y-73406420D01*
X97075500Y-73203465D01*
X97075500Y-72996535D01*
X97035130Y-72793580D01*
X96955941Y-72602402D01*
X96840977Y-72430345D01*
X96840975Y-72430342D01*
X96694657Y-72284024D01*
X96608626Y-72226541D01*
X96522598Y-72169059D01*
X96331420Y-72089870D01*
X96331412Y-72089868D01*
X96128469Y-72049500D01*
X96128465Y-72049500D01*
X95671535Y-72049500D01*
X95671530Y-72049500D01*
X95468587Y-72089868D01*
X95468579Y-72089870D01*
X95277403Y-72169058D01*
X95105342Y-72284024D01*
X94959024Y-72430342D01*
X94844058Y-72602403D01*
X94764870Y-72793579D01*
X94764868Y-72793587D01*
X94724500Y-72996530D01*
X94724500Y-73203469D01*
X87872336Y-73203469D01*
X87880804Y-73150002D01*
X87880804Y-73149997D01*
X87859720Y-73016878D01*
X87859719Y-73016876D01*
X87859719Y-73016874D01*
X87798528Y-72896780D01*
X87798526Y-72896778D01*
X87798523Y-72896774D01*
X87703225Y-72801476D01*
X87703221Y-72801473D01*
X87703220Y-72801472D01*
X87583126Y-72740281D01*
X87583124Y-72740280D01*
X87583121Y-72740279D01*
X87450002Y-72719196D01*
X87449998Y-72719196D01*
X87316878Y-72740279D01*
X87316874Y-72740280D01*
X87316874Y-72740281D01*
X87294903Y-72751476D01*
X87196778Y-72801473D01*
X87196774Y-72801476D01*
X87101476Y-72896774D01*
X87101473Y-72896778D01*
X87040279Y-73016878D01*
X87019196Y-73149997D01*
X87019196Y-73150002D01*
X66122885Y-73150002D01*
X66130804Y-73100002D01*
X66130804Y-73099997D01*
X66109720Y-72966878D01*
X66109719Y-72966876D01*
X66109719Y-72966874D01*
X66048528Y-72846780D01*
X66048526Y-72846778D01*
X66048523Y-72846774D01*
X65953225Y-72751476D01*
X65953221Y-72751473D01*
X65953220Y-72751472D01*
X65833126Y-72690281D01*
X65833124Y-72690280D01*
X65833121Y-72690279D01*
X65700002Y-72669196D01*
X65699998Y-72669196D01*
X65566878Y-72690279D01*
X65566874Y-72690280D01*
X65566874Y-72690281D01*
X65510125Y-72719196D01*
X65446778Y-72751473D01*
X65446774Y-72751476D01*
X65351476Y-72846774D01*
X65351473Y-72846778D01*
X65290279Y-72966878D01*
X65269196Y-73099997D01*
X65269196Y-73100002D01*
X63564965Y-73100002D01*
X63580804Y-73000002D01*
X63580804Y-72999997D01*
X63559720Y-72866878D01*
X63559719Y-72866876D01*
X63559719Y-72866874D01*
X63498528Y-72746780D01*
X63498526Y-72746778D01*
X63498523Y-72746774D01*
X63403225Y-72651476D01*
X63403221Y-72651473D01*
X63403220Y-72651472D01*
X63283126Y-72590281D01*
X63283124Y-72590280D01*
X63283121Y-72590279D01*
X63150002Y-72569196D01*
X63149998Y-72569196D01*
X63016878Y-72590279D01*
X63016874Y-72590280D01*
X63016874Y-72590281D01*
X62993085Y-72602402D01*
X62896778Y-72651473D01*
X62896774Y-72651476D01*
X62801476Y-72746774D01*
X62801473Y-72746778D01*
X62801472Y-72746780D01*
X62757477Y-72833126D01*
X62740279Y-72866878D01*
X62719196Y-72999997D01*
X62719196Y-73000002D01*
X46994017Y-73000002D01*
X46989743Y-72000002D01*
X47869196Y-72000002D01*
X47890279Y-72133121D01*
X47890280Y-72133124D01*
X47890281Y-72133126D01*
X47951472Y-72253220D01*
X47951473Y-72253221D01*
X47951476Y-72253225D01*
X48046774Y-72348523D01*
X48046778Y-72348526D01*
X48046780Y-72348528D01*
X48166874Y-72409719D01*
X48166876Y-72409719D01*
X48166878Y-72409720D01*
X48299998Y-72430804D01*
X48300000Y-72430804D01*
X48300002Y-72430804D01*
X48433121Y-72409720D01*
X48433121Y-72409719D01*
X48433126Y-72409719D01*
X48553220Y-72348528D01*
X48648528Y-72253220D01*
X48709719Y-72133126D01*
X48716570Y-72089870D01*
X48730804Y-72000002D01*
X60669196Y-72000002D01*
X60690279Y-72133121D01*
X60690280Y-72133124D01*
X60690281Y-72133126D01*
X60751472Y-72253220D01*
X60751473Y-72253221D01*
X60751476Y-72253225D01*
X60846774Y-72348523D01*
X60846778Y-72348526D01*
X60846780Y-72348528D01*
X60966874Y-72409719D01*
X60966876Y-72409719D01*
X60966878Y-72409720D01*
X61099998Y-72430804D01*
X61100000Y-72430804D01*
X61100002Y-72430804D01*
X61233121Y-72409720D01*
X61233121Y-72409719D01*
X61233126Y-72409719D01*
X61353220Y-72348528D01*
X61448528Y-72253220D01*
X61475644Y-72200002D01*
X76669196Y-72200002D01*
X76690279Y-72333121D01*
X76690280Y-72333124D01*
X76690281Y-72333126D01*
X76748188Y-72446774D01*
X76751473Y-72453221D01*
X76751476Y-72453225D01*
X76846774Y-72548523D01*
X76846778Y-72548526D01*
X76846780Y-72548528D01*
X76966874Y-72609719D01*
X76966876Y-72609719D01*
X76966878Y-72609720D01*
X77099998Y-72630804D01*
X77100000Y-72630804D01*
X77100002Y-72630804D01*
X77233121Y-72609720D01*
X77233121Y-72609719D01*
X77233126Y-72609719D01*
X77288904Y-72581298D01*
X77357570Y-72568403D01*
X77422310Y-72594679D01*
X77462568Y-72651785D01*
X77469196Y-72691784D01*
X77469196Y-72700002D01*
X77490279Y-72833121D01*
X77490280Y-72833124D01*
X77490281Y-72833126D01*
X77551472Y-72953220D01*
X77551473Y-72953221D01*
X77551476Y-72953225D01*
X77646774Y-73048523D01*
X77646778Y-73048526D01*
X77646780Y-73048528D01*
X77766874Y-73109719D01*
X77766876Y-73109719D01*
X77766878Y-73109720D01*
X77899998Y-73130804D01*
X77900000Y-73130804D01*
X77900002Y-73130804D01*
X78033121Y-73109720D01*
X78033121Y-73109719D01*
X78033126Y-73109719D01*
X78153220Y-73048528D01*
X78248528Y-72953220D01*
X78309719Y-72833126D01*
X78314732Y-72801476D01*
X78330804Y-72700002D01*
X78330804Y-72699997D01*
X78309720Y-72566878D01*
X78309719Y-72566876D01*
X78309719Y-72566874D01*
X78248528Y-72446780D01*
X78248526Y-72446778D01*
X78248523Y-72446774D01*
X78153225Y-72351476D01*
X78153221Y-72351473D01*
X78153220Y-72351472D01*
X78033126Y-72290281D01*
X78033124Y-72290280D01*
X78033121Y-72290279D01*
X77900002Y-72269196D01*
X77899998Y-72269196D01*
X77766876Y-72290279D01*
X77711098Y-72318700D01*
X77642429Y-72331596D01*
X77577688Y-72305319D01*
X77537432Y-72248212D01*
X77530804Y-72208215D01*
X77530804Y-72199997D01*
X77509720Y-72066878D01*
X77509719Y-72066876D01*
X77509719Y-72066874D01*
X77448528Y-71946780D01*
X77448526Y-71946778D01*
X77448523Y-71946774D01*
X77353225Y-71851476D01*
X77353221Y-71851473D01*
X77353220Y-71851472D01*
X77233126Y-71790281D01*
X77233124Y-71790280D01*
X77233121Y-71790279D01*
X77100002Y-71769196D01*
X77099998Y-71769196D01*
X76966878Y-71790279D01*
X76846778Y-71851473D01*
X76846774Y-71851476D01*
X76751476Y-71946774D01*
X76751473Y-71946778D01*
X76690279Y-72066878D01*
X76669196Y-72199997D01*
X76669196Y-72200002D01*
X61475644Y-72200002D01*
X61509719Y-72133126D01*
X61516570Y-72089870D01*
X61530804Y-72000002D01*
X61530804Y-71999997D01*
X61509720Y-71866878D01*
X61509719Y-71866876D01*
X61509719Y-71866874D01*
X61448528Y-71746780D01*
X61448526Y-71746778D01*
X61448523Y-71746774D01*
X61353225Y-71651476D01*
X61353221Y-71651473D01*
X61353220Y-71651472D01*
X61233126Y-71590281D01*
X61233124Y-71590280D01*
X61233121Y-71590279D01*
X61120693Y-71572473D01*
X61100386Y-71562846D01*
X61079307Y-71572473D01*
X60966878Y-71590279D01*
X60846778Y-71651473D01*
X60846774Y-71651476D01*
X60751476Y-71746774D01*
X60751473Y-71746778D01*
X60690279Y-71866878D01*
X60669196Y-71999997D01*
X60669196Y-72000002D01*
X48730804Y-72000002D01*
X48730804Y-71999997D01*
X48709720Y-71866878D01*
X48709719Y-71866876D01*
X48709719Y-71866874D01*
X48648528Y-71746780D01*
X48648526Y-71746778D01*
X48648523Y-71746774D01*
X48553225Y-71651476D01*
X48553221Y-71651473D01*
X48553220Y-71651472D01*
X48433126Y-71590281D01*
X48433124Y-71590280D01*
X48433121Y-71590279D01*
X48300002Y-71569196D01*
X48299998Y-71569196D01*
X48166878Y-71590279D01*
X48046778Y-71651473D01*
X48046774Y-71651476D01*
X47951476Y-71746774D01*
X47951473Y-71746778D01*
X47890279Y-71866878D01*
X47869196Y-71999997D01*
X47869196Y-72000002D01*
X46989743Y-72000002D01*
X46986751Y-71300002D01*
X50919196Y-71300002D01*
X50940279Y-71433121D01*
X50940280Y-71433124D01*
X50940281Y-71433126D01*
X51001472Y-71553220D01*
X51001473Y-71553221D01*
X51001476Y-71553225D01*
X51096774Y-71648523D01*
X51096778Y-71648526D01*
X51096780Y-71648528D01*
X51216874Y-71709719D01*
X51216876Y-71709719D01*
X51216878Y-71709720D01*
X51349998Y-71730804D01*
X51350000Y-71730804D01*
X51350002Y-71730804D01*
X51483121Y-71709720D01*
X51483121Y-71709719D01*
X51483126Y-71709719D01*
X51603220Y-71648528D01*
X51698528Y-71553220D01*
X51759719Y-71433126D01*
X51759720Y-71433121D01*
X51780804Y-71300002D01*
X51780804Y-71299997D01*
X51759720Y-71166878D01*
X51759719Y-71166876D01*
X51759719Y-71166874D01*
X51698528Y-71046780D01*
X51698526Y-71046778D01*
X51698523Y-71046774D01*
X51603225Y-70951476D01*
X51603221Y-70951473D01*
X51603220Y-70951472D01*
X51502205Y-70900002D01*
X60669196Y-70900002D01*
X60690279Y-71033121D01*
X60690280Y-71033124D01*
X60690281Y-71033126D01*
X60732953Y-71116874D01*
X60751473Y-71153221D01*
X60751476Y-71153225D01*
X60846774Y-71248523D01*
X60846778Y-71248526D01*
X60846780Y-71248528D01*
X60966874Y-71309719D01*
X60966876Y-71309719D01*
X60966878Y-71309720D01*
X61079307Y-71327527D01*
X61099613Y-71337153D01*
X61120693Y-71327527D01*
X61233121Y-71309720D01*
X61233121Y-71309719D01*
X61233126Y-71309719D01*
X61350327Y-71250002D01*
X65069196Y-71250002D01*
X65090279Y-71383121D01*
X65090280Y-71383124D01*
X65090281Y-71383126D01*
X65151472Y-71503220D01*
X65151473Y-71503221D01*
X65151476Y-71503225D01*
X65246774Y-71598523D01*
X65246778Y-71598526D01*
X65246780Y-71598528D01*
X65366874Y-71659719D01*
X65366876Y-71659719D01*
X65366878Y-71659720D01*
X65499998Y-71680804D01*
X65500000Y-71680804D01*
X65500002Y-71680804D01*
X65633121Y-71659720D01*
X65633121Y-71659719D01*
X65633126Y-71659719D01*
X65753220Y-71598528D01*
X65848528Y-71503220D01*
X65909719Y-71383126D01*
X65909720Y-71383121D01*
X65930128Y-71254269D01*
X94724500Y-71254269D01*
X94727353Y-71284699D01*
X94727353Y-71284701D01*
X94772206Y-71412880D01*
X94772207Y-71412882D01*
X94852850Y-71522150D01*
X94962118Y-71602793D01*
X95004845Y-71617744D01*
X95090299Y-71647646D01*
X95120730Y-71650500D01*
X95120734Y-71650500D01*
X96679270Y-71650500D01*
X96709699Y-71647646D01*
X96709701Y-71647646D01*
X96773790Y-71625219D01*
X96837882Y-71602793D01*
X96947150Y-71522150D01*
X97027793Y-71412882D01*
X97063891Y-71309720D01*
X97072646Y-71284701D01*
X97072646Y-71284699D01*
X97075500Y-71254269D01*
X97075500Y-69945730D01*
X97072646Y-69915300D01*
X97072646Y-69915298D01*
X97027793Y-69787119D01*
X97027792Y-69787117D01*
X96947150Y-69677850D01*
X96837882Y-69597207D01*
X96837880Y-69597206D01*
X96709700Y-69552353D01*
X96679270Y-69549500D01*
X96679266Y-69549500D01*
X95120734Y-69549500D01*
X95120730Y-69549500D01*
X95090300Y-69552353D01*
X95090298Y-69552353D01*
X94962119Y-69597206D01*
X94962117Y-69597207D01*
X94852850Y-69677850D01*
X94772207Y-69787117D01*
X94772206Y-69787119D01*
X94727353Y-69915298D01*
X94727353Y-69915300D01*
X94724500Y-69945730D01*
X94724500Y-71254269D01*
X65930128Y-71254269D01*
X65930804Y-71250002D01*
X65930804Y-71249997D01*
X65909720Y-71116878D01*
X65909719Y-71116876D01*
X65909719Y-71116874D01*
X65848528Y-70996780D01*
X65848526Y-70996778D01*
X65848523Y-70996774D01*
X65753225Y-70901476D01*
X65753221Y-70901473D01*
X65753220Y-70901472D01*
X65633126Y-70840281D01*
X65633124Y-70840280D01*
X65633121Y-70840279D01*
X65500002Y-70819196D01*
X65499998Y-70819196D01*
X65366878Y-70840279D01*
X65246778Y-70901473D01*
X65246774Y-70901476D01*
X65151476Y-70996774D01*
X65151473Y-70996778D01*
X65090279Y-71116878D01*
X65069196Y-71249997D01*
X65069196Y-71250002D01*
X61350327Y-71250002D01*
X61353220Y-71248528D01*
X61448528Y-71153220D01*
X61509719Y-71033126D01*
X61524513Y-70939719D01*
X61530804Y-70900002D01*
X61530804Y-70899997D01*
X61509720Y-70766878D01*
X61509719Y-70766876D01*
X61509719Y-70766874D01*
X61448528Y-70646780D01*
X61448526Y-70646778D01*
X61448523Y-70646774D01*
X61353225Y-70551476D01*
X61353221Y-70551473D01*
X61353220Y-70551472D01*
X61311083Y-70530002D01*
X77289196Y-70530002D01*
X77310279Y-70663121D01*
X77310280Y-70663124D01*
X77310281Y-70663126D01*
X77371472Y-70783220D01*
X77371473Y-70783221D01*
X77371476Y-70783225D01*
X77466774Y-70878523D01*
X77466778Y-70878526D01*
X77466780Y-70878528D01*
X77586874Y-70939719D01*
X77586876Y-70939719D01*
X77586878Y-70939720D01*
X77719998Y-70960804D01*
X77720000Y-70960804D01*
X77720002Y-70960804D01*
X77853121Y-70939720D01*
X77853121Y-70939719D01*
X77853126Y-70939719D01*
X77973220Y-70878528D01*
X78068528Y-70783220D01*
X78129719Y-70663126D01*
X78150804Y-70530000D01*
X78144513Y-70490281D01*
X78129720Y-70396878D01*
X78129719Y-70396876D01*
X78129719Y-70396874D01*
X78068528Y-70276780D01*
X78068526Y-70276778D01*
X78068523Y-70276774D01*
X77973225Y-70181476D01*
X77973221Y-70181473D01*
X77973220Y-70181472D01*
X77853126Y-70120281D01*
X77853124Y-70120280D01*
X77853121Y-70120279D01*
X77720002Y-70099196D01*
X77719998Y-70099196D01*
X77586878Y-70120279D01*
X77466778Y-70181473D01*
X77466774Y-70181476D01*
X77371476Y-70276774D01*
X77371473Y-70276778D01*
X77310279Y-70396878D01*
X77289196Y-70529997D01*
X77289196Y-70530002D01*
X61311083Y-70530002D01*
X61233126Y-70490281D01*
X61233124Y-70490280D01*
X61233121Y-70490279D01*
X61100002Y-70469196D01*
X61099998Y-70469196D01*
X60966878Y-70490279D01*
X60846778Y-70551473D01*
X60846774Y-70551476D01*
X60751476Y-70646774D01*
X60751473Y-70646778D01*
X60690279Y-70766878D01*
X60669196Y-70899997D01*
X60669196Y-70900002D01*
X51502205Y-70900002D01*
X51483126Y-70890281D01*
X51483124Y-70890280D01*
X51483121Y-70890279D01*
X51350002Y-70869196D01*
X51349998Y-70869196D01*
X51216878Y-70890279D01*
X51216874Y-70890280D01*
X51216874Y-70890281D01*
X51194903Y-70901476D01*
X51096778Y-70951473D01*
X51096774Y-70951476D01*
X51001476Y-71046774D01*
X51001473Y-71046778D01*
X50940279Y-71166878D01*
X50919196Y-71299997D01*
X50919196Y-71300002D01*
X46986751Y-71300002D01*
X46977990Y-69250002D01*
X56069196Y-69250002D01*
X56090279Y-69383121D01*
X56090280Y-69383124D01*
X56090281Y-69383126D01*
X56151472Y-69503220D01*
X56151473Y-69503221D01*
X56151476Y-69503225D01*
X56246774Y-69598523D01*
X56246778Y-69598526D01*
X56246780Y-69598528D01*
X56366874Y-69659719D01*
X56366876Y-69659719D01*
X56366878Y-69659720D01*
X56499998Y-69680804D01*
X56500000Y-69680804D01*
X56500002Y-69680804D01*
X56633121Y-69659720D01*
X56633121Y-69659719D01*
X56633126Y-69659719D01*
X56753220Y-69598528D01*
X56848528Y-69503220D01*
X56909719Y-69383126D01*
X56909720Y-69383121D01*
X56922885Y-69300002D01*
X62619196Y-69300002D01*
X62640279Y-69433121D01*
X62640280Y-69433124D01*
X62640281Y-69433126D01*
X62701031Y-69552354D01*
X62701473Y-69553221D01*
X62701476Y-69553225D01*
X62796774Y-69648523D01*
X62796778Y-69648526D01*
X62796780Y-69648528D01*
X62916874Y-69709719D01*
X62916876Y-69709719D01*
X62916878Y-69709720D01*
X63049998Y-69730804D01*
X63050000Y-69730804D01*
X63050002Y-69730804D01*
X63183121Y-69709720D01*
X63183121Y-69709719D01*
X63183126Y-69709719D01*
X63303220Y-69648528D01*
X63398528Y-69553220D01*
X63459719Y-69433126D01*
X63480804Y-69300000D01*
X63472885Y-69250002D01*
X63459720Y-69166878D01*
X63459719Y-69166876D01*
X63459719Y-69166874D01*
X63398528Y-69046780D01*
X63398526Y-69046778D01*
X63398523Y-69046774D01*
X63303225Y-68951476D01*
X63303221Y-68951473D01*
X63303220Y-68951472D01*
X63183126Y-68890281D01*
X63183124Y-68890280D01*
X63183121Y-68890279D01*
X63050002Y-68869196D01*
X63049998Y-68869196D01*
X62916878Y-68890279D01*
X62916874Y-68890280D01*
X62916874Y-68890281D01*
X62894903Y-68901476D01*
X62796778Y-68951473D01*
X62796774Y-68951476D01*
X62701476Y-69046774D01*
X62701473Y-69046778D01*
X62640279Y-69166878D01*
X62619196Y-69299997D01*
X62619196Y-69300002D01*
X56922885Y-69300002D01*
X56930804Y-69250002D01*
X56930804Y-69249997D01*
X56909720Y-69116878D01*
X56909719Y-69116876D01*
X56909719Y-69116874D01*
X56848528Y-68996780D01*
X56848526Y-68996778D01*
X56848523Y-68996774D01*
X56753225Y-68901476D01*
X56753221Y-68901473D01*
X56753220Y-68901472D01*
X56633126Y-68840281D01*
X56633124Y-68840280D01*
X56633121Y-68840279D01*
X56500002Y-68819196D01*
X56499998Y-68819196D01*
X56366878Y-68840279D01*
X56246778Y-68901473D01*
X56246774Y-68901476D01*
X56151476Y-68996774D01*
X56151473Y-68996778D01*
X56090279Y-69116878D01*
X56069196Y-69249997D01*
X56069196Y-69250002D01*
X46977990Y-69250002D01*
X46973076Y-68100002D01*
X50569196Y-68100002D01*
X50590279Y-68233121D01*
X50590280Y-68233124D01*
X50590281Y-68233126D01*
X50651472Y-68353220D01*
X50651473Y-68353221D01*
X50651476Y-68353225D01*
X50746774Y-68448523D01*
X50746778Y-68448526D01*
X50746780Y-68448528D01*
X50866874Y-68509719D01*
X50866876Y-68509719D01*
X50866878Y-68509720D01*
X50999998Y-68530804D01*
X51000000Y-68530804D01*
X51000002Y-68530804D01*
X51133121Y-68509720D01*
X51133121Y-68509719D01*
X51133126Y-68509719D01*
X51253220Y-68448528D01*
X51348528Y-68353220D01*
X51409719Y-68233126D01*
X51430804Y-68100000D01*
X51409719Y-67966874D01*
X51348528Y-67846780D01*
X51348526Y-67846778D01*
X51348523Y-67846774D01*
X51253225Y-67751476D01*
X51253221Y-67751473D01*
X51253220Y-67751472D01*
X51133126Y-67690281D01*
X51133124Y-67690280D01*
X51133121Y-67690279D01*
X51000002Y-67669196D01*
X50999998Y-67669196D01*
X50866878Y-67690279D01*
X50746778Y-67751473D01*
X50746774Y-67751476D01*
X50651476Y-67846774D01*
X50651473Y-67846778D01*
X50590279Y-67966878D01*
X50569196Y-68099997D01*
X50569196Y-68100002D01*
X46973076Y-68100002D01*
X46970085Y-67400002D01*
X62619196Y-67400002D01*
X62640279Y-67533121D01*
X62640280Y-67533124D01*
X62640281Y-67533126D01*
X62701472Y-67653220D01*
X62701473Y-67653221D01*
X62701476Y-67653225D01*
X62796774Y-67748523D01*
X62796778Y-67748526D01*
X62796780Y-67748528D01*
X62916874Y-67809719D01*
X62916876Y-67809719D01*
X62916878Y-67809720D01*
X63049998Y-67830804D01*
X63050000Y-67830804D01*
X63050002Y-67830804D01*
X63183121Y-67809720D01*
X63183121Y-67809719D01*
X63183126Y-67809719D01*
X63303220Y-67748528D01*
X63398528Y-67653220D01*
X63459719Y-67533126D01*
X63468006Y-67480804D01*
X63480804Y-67400002D01*
X63480804Y-67399997D01*
X63459720Y-67266878D01*
X63459719Y-67266876D01*
X63459719Y-67266874D01*
X63398528Y-67146780D01*
X63398526Y-67146778D01*
X63398523Y-67146774D01*
X63303225Y-67051476D01*
X63303221Y-67051473D01*
X63303220Y-67051472D01*
X63183126Y-66990281D01*
X63183124Y-66990280D01*
X63183121Y-66990279D01*
X63050002Y-66969196D01*
X63049998Y-66969196D01*
X62916878Y-66990279D01*
X62796778Y-67051473D01*
X62796774Y-67051476D01*
X62701476Y-67146774D01*
X62701473Y-67146778D01*
X62640279Y-67266878D01*
X62619196Y-67399997D01*
X62619196Y-67400002D01*
X46970085Y-67400002D01*
X46967307Y-66750002D01*
X60119196Y-66750002D01*
X60140279Y-66883121D01*
X60140280Y-66883124D01*
X60140281Y-66883126D01*
X60201472Y-67003220D01*
X60201473Y-67003221D01*
X60201476Y-67003225D01*
X60296774Y-67098523D01*
X60296778Y-67098526D01*
X60296780Y-67098528D01*
X60416874Y-67159719D01*
X60416876Y-67159719D01*
X60416878Y-67159720D01*
X60549998Y-67180804D01*
X60550000Y-67180804D01*
X60550002Y-67180804D01*
X60683121Y-67159720D01*
X60683121Y-67159719D01*
X60683126Y-67159719D01*
X60803220Y-67098528D01*
X60898528Y-67003220D01*
X60959719Y-66883126D01*
X60964732Y-66851476D01*
X60980804Y-66750002D01*
X60980804Y-66749997D01*
X60972886Y-66700002D01*
X65169196Y-66700002D01*
X65190279Y-66833121D01*
X65190280Y-66833124D01*
X65190281Y-66833126D01*
X65232953Y-66916874D01*
X65251473Y-66953221D01*
X65251476Y-66953225D01*
X65346774Y-67048523D01*
X65346778Y-67048526D01*
X65346780Y-67048528D01*
X65466874Y-67109719D01*
X65466876Y-67109719D01*
X65466878Y-67109720D01*
X65599998Y-67130804D01*
X65600000Y-67130804D01*
X65600002Y-67130804D01*
X65733121Y-67109720D01*
X65733121Y-67109719D01*
X65733126Y-67109719D01*
X65850327Y-67050002D01*
X76419196Y-67050002D01*
X76440279Y-67183121D01*
X76440280Y-67183124D01*
X76440281Y-67183126D01*
X76448879Y-67200000D01*
X76501473Y-67303221D01*
X76501476Y-67303225D01*
X76596774Y-67398523D01*
X76596778Y-67398526D01*
X76596780Y-67398528D01*
X76716874Y-67459719D01*
X76716876Y-67459719D01*
X76716878Y-67459720D01*
X76849998Y-67480804D01*
X76850000Y-67480804D01*
X76850002Y-67480804D01*
X76983121Y-67459720D01*
X76983121Y-67459719D01*
X76983126Y-67459719D01*
X77103220Y-67398528D01*
X77198528Y-67303220D01*
X77251120Y-67200002D01*
X80769196Y-67200002D01*
X80790279Y-67333121D01*
X80790280Y-67333124D01*
X80790281Y-67333126D01*
X80851472Y-67453220D01*
X80851473Y-67453221D01*
X80851476Y-67453225D01*
X80946774Y-67548523D01*
X80946778Y-67548526D01*
X80946780Y-67548528D01*
X81066874Y-67609719D01*
X81066876Y-67609719D01*
X81066878Y-67609720D01*
X81199998Y-67630804D01*
X81200000Y-67630804D01*
X81200002Y-67630804D01*
X81333121Y-67609720D01*
X81333121Y-67609719D01*
X81333126Y-67609719D01*
X81453220Y-67548528D01*
X81548528Y-67453220D01*
X81609719Y-67333126D01*
X81614455Y-67303225D01*
X81630804Y-67200002D01*
X87019196Y-67200002D01*
X87040279Y-67333121D01*
X87040280Y-67333124D01*
X87040281Y-67333126D01*
X87101472Y-67453220D01*
X87101473Y-67453221D01*
X87101476Y-67453225D01*
X87196774Y-67548523D01*
X87196778Y-67548526D01*
X87196780Y-67548528D01*
X87316874Y-67609719D01*
X87316876Y-67609719D01*
X87316878Y-67609720D01*
X87449998Y-67630804D01*
X87450000Y-67630804D01*
X87450002Y-67630804D01*
X87583121Y-67609720D01*
X87583121Y-67609719D01*
X87583126Y-67609719D01*
X87703220Y-67548528D01*
X87798528Y-67453220D01*
X87859719Y-67333126D01*
X87864455Y-67303225D01*
X87880804Y-67200002D01*
X87880804Y-67199997D01*
X87859720Y-67066878D01*
X87859719Y-67066876D01*
X87859719Y-67066874D01*
X87798528Y-66946780D01*
X87798526Y-66946778D01*
X87798523Y-66946774D01*
X87703225Y-66851476D01*
X87703221Y-66851473D01*
X87703220Y-66851472D01*
X87583126Y-66790281D01*
X87583124Y-66790280D01*
X87583121Y-66790279D01*
X87450002Y-66769196D01*
X87449998Y-66769196D01*
X87316878Y-66790279D01*
X87196778Y-66851473D01*
X87196774Y-66851476D01*
X87101476Y-66946774D01*
X87101473Y-66946778D01*
X87040279Y-67066878D01*
X87019196Y-67199997D01*
X87019196Y-67200002D01*
X81630804Y-67200002D01*
X81630804Y-67199997D01*
X81609720Y-67066878D01*
X81609719Y-67066876D01*
X81609719Y-67066874D01*
X81548528Y-66946780D01*
X81548526Y-66946778D01*
X81548523Y-66946774D01*
X81453225Y-66851476D01*
X81453221Y-66851473D01*
X81453220Y-66851472D01*
X81333126Y-66790281D01*
X81333124Y-66790280D01*
X81333121Y-66790279D01*
X81200002Y-66769196D01*
X81199998Y-66769196D01*
X81066878Y-66790279D01*
X80946778Y-66851473D01*
X80946774Y-66851476D01*
X80851476Y-66946774D01*
X80851473Y-66946778D01*
X80790279Y-67066878D01*
X80769196Y-67199997D01*
X80769196Y-67200002D01*
X77251120Y-67200002D01*
X77259719Y-67183126D01*
X77263426Y-67159720D01*
X77280804Y-67050002D01*
X77280804Y-67049997D01*
X77259720Y-66916878D01*
X77259719Y-66916876D01*
X77259719Y-66916874D01*
X77198528Y-66796780D01*
X77198526Y-66796778D01*
X77198523Y-66796774D01*
X77103225Y-66701476D01*
X77103221Y-66701473D01*
X77103220Y-66701472D01*
X76983126Y-66640281D01*
X76983124Y-66640280D01*
X76983121Y-66640279D01*
X76850002Y-66619196D01*
X76849998Y-66619196D01*
X76716878Y-66640279D01*
X76596778Y-66701473D01*
X76596774Y-66701476D01*
X76501476Y-66796774D01*
X76501473Y-66796778D01*
X76501472Y-66796780D01*
X76457477Y-66883126D01*
X76440279Y-66916878D01*
X76419196Y-67049997D01*
X76419196Y-67050002D01*
X65850327Y-67050002D01*
X65853220Y-67048528D01*
X65948528Y-66953220D01*
X66009719Y-66833126D01*
X66016505Y-66790281D01*
X66030804Y-66700002D01*
X66030804Y-66699997D01*
X66009720Y-66566878D01*
X66009719Y-66566876D01*
X66009719Y-66566874D01*
X65948528Y-66446780D01*
X65948526Y-66446778D01*
X65948523Y-66446774D01*
X65853225Y-66351476D01*
X65853221Y-66351473D01*
X65853220Y-66351472D01*
X65733126Y-66290281D01*
X65733124Y-66290280D01*
X65733121Y-66290279D01*
X65600002Y-66269196D01*
X65599998Y-66269196D01*
X65466878Y-66290279D01*
X65346778Y-66351473D01*
X65346774Y-66351476D01*
X65251476Y-66446774D01*
X65251473Y-66446778D01*
X65190279Y-66566878D01*
X65169196Y-66699997D01*
X65169196Y-66700002D01*
X60972886Y-66700002D01*
X60959720Y-66616878D01*
X60959719Y-66616876D01*
X60959719Y-66616874D01*
X60898528Y-66496780D01*
X60898526Y-66496778D01*
X60898523Y-66496774D01*
X60803225Y-66401476D01*
X60803221Y-66401473D01*
X60803220Y-66401472D01*
X60683126Y-66340281D01*
X60683124Y-66340280D01*
X60683121Y-66340279D01*
X60550002Y-66319196D01*
X60549998Y-66319196D01*
X60416878Y-66340279D01*
X60416874Y-66340280D01*
X60416874Y-66340281D01*
X60394903Y-66351476D01*
X60296778Y-66401473D01*
X60296774Y-66401476D01*
X60201476Y-66496774D01*
X60201473Y-66496778D01*
X60140279Y-66616878D01*
X60119196Y-66749997D01*
X60119196Y-66750002D01*
X46967307Y-66750002D01*
X46962392Y-65600002D01*
X63219196Y-65600002D01*
X63240279Y-65733121D01*
X63240280Y-65733124D01*
X63240281Y-65733126D01*
X63291234Y-65833126D01*
X63301473Y-65853221D01*
X63301476Y-65853225D01*
X63396774Y-65948523D01*
X63396778Y-65948526D01*
X63396780Y-65948528D01*
X63516874Y-66009719D01*
X63516876Y-66009719D01*
X63516878Y-66009720D01*
X63649998Y-66030804D01*
X63650000Y-66030804D01*
X63650002Y-66030804D01*
X63783121Y-66009720D01*
X63783121Y-66009719D01*
X63783126Y-66009719D01*
X63903220Y-65948528D01*
X63998528Y-65853220D01*
X64059719Y-65733126D01*
X64059720Y-65733121D01*
X64064966Y-65700002D01*
X67169196Y-65700002D01*
X67190279Y-65833121D01*
X67190280Y-65833124D01*
X67190281Y-65833126D01*
X67251472Y-65953220D01*
X67251473Y-65953221D01*
X67251476Y-65953225D01*
X67346774Y-66048523D01*
X67346778Y-66048526D01*
X67346780Y-66048528D01*
X67466874Y-66109719D01*
X67466876Y-66109719D01*
X67466878Y-66109720D01*
X67599998Y-66130804D01*
X67600000Y-66130804D01*
X67600002Y-66130804D01*
X67733121Y-66109720D01*
X67733121Y-66109719D01*
X67733126Y-66109719D01*
X67853220Y-66048528D01*
X67948528Y-65953220D01*
X68009719Y-65833126D01*
X68009720Y-65833121D01*
X68030804Y-65700002D01*
X68030804Y-65699997D01*
X68009720Y-65566878D01*
X68009719Y-65566876D01*
X68009719Y-65566874D01*
X67948528Y-65446780D01*
X67948526Y-65446778D01*
X67948523Y-65446774D01*
X67853225Y-65351476D01*
X67853221Y-65351473D01*
X67853220Y-65351472D01*
X67733126Y-65290281D01*
X67733124Y-65290280D01*
X67733121Y-65290279D01*
X67600002Y-65269196D01*
X67599998Y-65269196D01*
X67466878Y-65290279D01*
X67346778Y-65351473D01*
X67346774Y-65351476D01*
X67251476Y-65446774D01*
X67251473Y-65446778D01*
X67251472Y-65446780D01*
X67198625Y-65550499D01*
X67190279Y-65566878D01*
X67169196Y-65699997D01*
X67169196Y-65700002D01*
X64064966Y-65700002D01*
X64080804Y-65600002D01*
X64080804Y-65599997D01*
X64059720Y-65466878D01*
X64059719Y-65466876D01*
X64059719Y-65466874D01*
X63998528Y-65346780D01*
X63998526Y-65346778D01*
X63998523Y-65346774D01*
X63903225Y-65251476D01*
X63903221Y-65251473D01*
X63903220Y-65251472D01*
X63783126Y-65190281D01*
X63783124Y-65190280D01*
X63783121Y-65190279D01*
X63650002Y-65169196D01*
X63649998Y-65169196D01*
X63516878Y-65190279D01*
X63396778Y-65251473D01*
X63396774Y-65251476D01*
X63301476Y-65346774D01*
X63301473Y-65346778D01*
X63240279Y-65466878D01*
X63219196Y-65599997D01*
X63219196Y-65600002D01*
X46962392Y-65600002D01*
X46958119Y-64600002D01*
X83214196Y-64600002D01*
X83235279Y-64733121D01*
X83235280Y-64733124D01*
X83235281Y-64733126D01*
X83296472Y-64853220D01*
X83296473Y-64853221D01*
X83296476Y-64853225D01*
X83391774Y-64948523D01*
X83391778Y-64948526D01*
X83391780Y-64948528D01*
X83511874Y-65009719D01*
X83511876Y-65009719D01*
X83511878Y-65009720D01*
X83644998Y-65030804D01*
X83645000Y-65030804D01*
X83645002Y-65030804D01*
X83778121Y-65009720D01*
X83778121Y-65009719D01*
X83778126Y-65009719D01*
X83898220Y-64948528D01*
X83993528Y-64853220D01*
X84054719Y-64733126D01*
X84075255Y-64603469D01*
X94724500Y-64603469D01*
X94764868Y-64806412D01*
X94764870Y-64806420D01*
X94823732Y-64948526D01*
X94844059Y-64997598D01*
X94901541Y-65083626D01*
X94959024Y-65169657D01*
X95105342Y-65315975D01*
X95105345Y-65315977D01*
X95277402Y-65430941D01*
X95468580Y-65510130D01*
X95671530Y-65550499D01*
X95671534Y-65550500D01*
X95671535Y-65550500D01*
X96128466Y-65550500D01*
X96128467Y-65550499D01*
X96331420Y-65510130D01*
X96522598Y-65430941D01*
X96694655Y-65315977D01*
X96840977Y-65169655D01*
X96955941Y-64997598D01*
X97035130Y-64806420D01*
X97075500Y-64603465D01*
X97075500Y-64396535D01*
X97035130Y-64193580D01*
X96955941Y-64002402D01*
X96840977Y-63830345D01*
X96840975Y-63830342D01*
X96694657Y-63684024D01*
X96608626Y-63626541D01*
X96522598Y-63569059D01*
X96500049Y-63559719D01*
X96331420Y-63489870D01*
X96331412Y-63489868D01*
X96128469Y-63449500D01*
X96128465Y-63449500D01*
X95671535Y-63449500D01*
X95671530Y-63449500D01*
X95468587Y-63489868D01*
X95468579Y-63489870D01*
X95277403Y-63569058D01*
X95105342Y-63684024D01*
X94959024Y-63830342D01*
X94844058Y-64002403D01*
X94764870Y-64193579D01*
X94764868Y-64193587D01*
X94724500Y-64396530D01*
X94724500Y-64603469D01*
X84075255Y-64603469D01*
X84075255Y-64603466D01*
X84075804Y-64600002D01*
X84075804Y-64599997D01*
X84054720Y-64466878D01*
X84054719Y-64466876D01*
X84054719Y-64466874D01*
X83993528Y-64346780D01*
X83993526Y-64346778D01*
X83993523Y-64346774D01*
X83898225Y-64251476D01*
X83898221Y-64251473D01*
X83898220Y-64251472D01*
X83778126Y-64190281D01*
X83778124Y-64190280D01*
X83778121Y-64190279D01*
X83645002Y-64169196D01*
X83644998Y-64169196D01*
X83511878Y-64190279D01*
X83391778Y-64251473D01*
X83391774Y-64251476D01*
X83296476Y-64346774D01*
X83296473Y-64346778D01*
X83235279Y-64466878D01*
X83214196Y-64599997D01*
X83214196Y-64600002D01*
X46958119Y-64600002D01*
X46954700Y-63800002D01*
X54669196Y-63800002D01*
X54690279Y-63933121D01*
X54690280Y-63933124D01*
X54690281Y-63933126D01*
X54749689Y-64049720D01*
X54751473Y-64053221D01*
X54751476Y-64053225D01*
X54846774Y-64148523D01*
X54846778Y-64148526D01*
X54846780Y-64148528D01*
X54966874Y-64209719D01*
X54966876Y-64209719D01*
X54966878Y-64209720D01*
X55099998Y-64230804D01*
X55100000Y-64230804D01*
X55100002Y-64230804D01*
X55233121Y-64209720D01*
X55233121Y-64209719D01*
X55233126Y-64209719D01*
X55353220Y-64148528D01*
X55448528Y-64053220D01*
X55509719Y-63933126D01*
X55516039Y-63893225D01*
X55530804Y-63800002D01*
X55530804Y-63799997D01*
X55509720Y-63666878D01*
X55509719Y-63666876D01*
X55509719Y-63666874D01*
X55448528Y-63546780D01*
X55448526Y-63546778D01*
X55448523Y-63546774D01*
X55353225Y-63451476D01*
X55353221Y-63451473D01*
X55353220Y-63451472D01*
X55233126Y-63390281D01*
X55233124Y-63390280D01*
X55233121Y-63390279D01*
X55100002Y-63369196D01*
X55099998Y-63369196D01*
X54966878Y-63390279D01*
X54846778Y-63451473D01*
X54846774Y-63451476D01*
X54751476Y-63546774D01*
X54751473Y-63546778D01*
X54690279Y-63666878D01*
X54669196Y-63799997D01*
X54669196Y-63800002D01*
X46954700Y-63800002D01*
X46952563Y-63300002D01*
X59669196Y-63300002D01*
X59690279Y-63433121D01*
X59690280Y-63433124D01*
X59690281Y-63433126D01*
X59748066Y-63546535D01*
X59751473Y-63553221D01*
X59751476Y-63553225D01*
X59846774Y-63648523D01*
X59846778Y-63648526D01*
X59846780Y-63648528D01*
X59966874Y-63709719D01*
X59966876Y-63709719D01*
X59966878Y-63709720D01*
X60099998Y-63730804D01*
X60100000Y-63730804D01*
X60100002Y-63730804D01*
X60233121Y-63709720D01*
X60233121Y-63709719D01*
X60233126Y-63709719D01*
X60353220Y-63648528D01*
X60361746Y-63640002D01*
X81629196Y-63640002D01*
X81650279Y-63773121D01*
X81650280Y-63773124D01*
X81650281Y-63773126D01*
X81679436Y-63830345D01*
X81711473Y-63893221D01*
X81711476Y-63893225D01*
X81806774Y-63988523D01*
X81806778Y-63988526D01*
X81806780Y-63988528D01*
X81926874Y-64049719D01*
X81926876Y-64049719D01*
X81926878Y-64049720D01*
X82059998Y-64070804D01*
X82060000Y-64070804D01*
X82060002Y-64070804D01*
X82193121Y-64049720D01*
X82193121Y-64049719D01*
X82193126Y-64049719D01*
X82313220Y-63988528D01*
X82408528Y-63893220D01*
X82469719Y-63773126D01*
X82476422Y-63730804D01*
X82490804Y-63640002D01*
X82490804Y-63639997D01*
X82469720Y-63506878D01*
X82469719Y-63506876D01*
X82469719Y-63506874D01*
X82408528Y-63386780D01*
X82408526Y-63386778D01*
X82408523Y-63386774D01*
X82313225Y-63291476D01*
X82313221Y-63291473D01*
X82313220Y-63291472D01*
X82193126Y-63230281D01*
X82193124Y-63230280D01*
X82193121Y-63230279D01*
X82060002Y-63209196D01*
X82059998Y-63209196D01*
X81926878Y-63230279D01*
X81806778Y-63291473D01*
X81806774Y-63291476D01*
X81711476Y-63386774D01*
X81711473Y-63386778D01*
X81650279Y-63506878D01*
X81629196Y-63639997D01*
X81629196Y-63640002D01*
X60361746Y-63640002D01*
X60448528Y-63553220D01*
X60509719Y-63433126D01*
X60514455Y-63403225D01*
X60530804Y-63300002D01*
X60530804Y-63299997D01*
X60509720Y-63166878D01*
X60509719Y-63166876D01*
X60509719Y-63166874D01*
X60501122Y-63150002D01*
X66569196Y-63150002D01*
X66590279Y-63283121D01*
X66590280Y-63283124D01*
X66590281Y-63283126D01*
X66651472Y-63403220D01*
X66651473Y-63403221D01*
X66651476Y-63403225D01*
X66746774Y-63498523D01*
X66746778Y-63498526D01*
X66746780Y-63498528D01*
X66866874Y-63559719D01*
X66866876Y-63559719D01*
X66866878Y-63559720D01*
X66999998Y-63580804D01*
X67000000Y-63580804D01*
X67000002Y-63580804D01*
X67133121Y-63559720D01*
X67133121Y-63559719D01*
X67133126Y-63559719D01*
X67253220Y-63498528D01*
X67348528Y-63403220D01*
X67409719Y-63283126D01*
X67418089Y-63230279D01*
X67430804Y-63150002D01*
X67430804Y-63149997D01*
X67422886Y-63100002D01*
X88369196Y-63100002D01*
X88390279Y-63233121D01*
X88390280Y-63233124D01*
X88390281Y-63233126D01*
X88451472Y-63353220D01*
X88451473Y-63353221D01*
X88451476Y-63353225D01*
X88546774Y-63448523D01*
X88546778Y-63448526D01*
X88546780Y-63448528D01*
X88666874Y-63509719D01*
X88666876Y-63509719D01*
X88666878Y-63509720D01*
X88799998Y-63530804D01*
X88800000Y-63530804D01*
X88800002Y-63530804D01*
X88933121Y-63509720D01*
X88933121Y-63509719D01*
X88933126Y-63509719D01*
X89053220Y-63448528D01*
X89148528Y-63353220D01*
X89209719Y-63233126D01*
X89215883Y-63194211D01*
X89230804Y-63100002D01*
X89230804Y-63099997D01*
X89209720Y-62966878D01*
X89209719Y-62966876D01*
X89209719Y-62966874D01*
X89148528Y-62846780D01*
X89148526Y-62846778D01*
X89148523Y-62846774D01*
X89053225Y-62751476D01*
X89053221Y-62751473D01*
X89053220Y-62751472D01*
X88933126Y-62690281D01*
X88933124Y-62690280D01*
X88933121Y-62690279D01*
X88800002Y-62669196D01*
X88799998Y-62669196D01*
X88666878Y-62690279D01*
X88546778Y-62751473D01*
X88546774Y-62751476D01*
X88451476Y-62846774D01*
X88451473Y-62846778D01*
X88390279Y-62966878D01*
X88369196Y-63099997D01*
X88369196Y-63100002D01*
X67422886Y-63100002D01*
X67409720Y-63016878D01*
X67409719Y-63016876D01*
X67409719Y-63016874D01*
X67348528Y-62896780D01*
X67348526Y-62896778D01*
X67348523Y-62896774D01*
X67253225Y-62801476D01*
X67253221Y-62801473D01*
X67253220Y-62801472D01*
X67133126Y-62740281D01*
X67133124Y-62740280D01*
X67133121Y-62740279D01*
X67020693Y-62722473D01*
X67000386Y-62712846D01*
X66979307Y-62722473D01*
X66866878Y-62740279D01*
X66866874Y-62740280D01*
X66866874Y-62740281D01*
X66844903Y-62751476D01*
X66746778Y-62801473D01*
X66746774Y-62801476D01*
X66651476Y-62896774D01*
X66651473Y-62896778D01*
X66590279Y-63016878D01*
X66569196Y-63149997D01*
X66569196Y-63150002D01*
X60501122Y-63150002D01*
X60448528Y-63046780D01*
X60448526Y-63046778D01*
X60448523Y-63046774D01*
X60353225Y-62951476D01*
X60353221Y-62951473D01*
X60353220Y-62951472D01*
X60233126Y-62890281D01*
X60233124Y-62890280D01*
X60233121Y-62890279D01*
X60100002Y-62869196D01*
X60099998Y-62869196D01*
X59966878Y-62890279D01*
X59846778Y-62951473D01*
X59846774Y-62951476D01*
X59751476Y-63046774D01*
X59751473Y-63046778D01*
X59690279Y-63166878D01*
X59669196Y-63299997D01*
X59669196Y-63300002D01*
X46952563Y-63300002D01*
X46947863Y-62200002D01*
X53419196Y-62200002D01*
X53440279Y-62333121D01*
X53440280Y-62333124D01*
X53440281Y-62333126D01*
X53501472Y-62453220D01*
X53501473Y-62453221D01*
X53501476Y-62453225D01*
X53596774Y-62548523D01*
X53596778Y-62548526D01*
X53596780Y-62548528D01*
X53716874Y-62609719D01*
X53716876Y-62609719D01*
X53716878Y-62609720D01*
X53849998Y-62630804D01*
X53850000Y-62630804D01*
X53850002Y-62630804D01*
X53983121Y-62609720D01*
X53983121Y-62609719D01*
X53983126Y-62609719D01*
X54002197Y-62600002D01*
X76244196Y-62600002D01*
X76265279Y-62733121D01*
X76265280Y-62733124D01*
X76265281Y-62733126D01*
X76316691Y-62834023D01*
X76326473Y-62853221D01*
X76326476Y-62853225D01*
X76421774Y-62948523D01*
X76421778Y-62948526D01*
X76421780Y-62948528D01*
X76541874Y-63009719D01*
X76541876Y-63009719D01*
X76541878Y-63009720D01*
X76674998Y-63030804D01*
X76675000Y-63030804D01*
X76675002Y-63030804D01*
X76808121Y-63009720D01*
X76808121Y-63009719D01*
X76808126Y-63009719D01*
X76928220Y-62948528D01*
X77023528Y-62853220D01*
X77084719Y-62733126D01*
X77086406Y-62722473D01*
X77105804Y-62600002D01*
X77105804Y-62599997D01*
X77084720Y-62466878D01*
X77084719Y-62466876D01*
X77084719Y-62466874D01*
X77023528Y-62346780D01*
X77023526Y-62346778D01*
X77023523Y-62346774D01*
X76928225Y-62251476D01*
X76928221Y-62251473D01*
X76928220Y-62251472D01*
X76808126Y-62190281D01*
X76808124Y-62190280D01*
X76808121Y-62190279D01*
X76675002Y-62169196D01*
X76674998Y-62169196D01*
X76541878Y-62190279D01*
X76541874Y-62190280D01*
X76541874Y-62190281D01*
X76461811Y-62231075D01*
X76421778Y-62251473D01*
X76421774Y-62251476D01*
X76326476Y-62346774D01*
X76326473Y-62346778D01*
X76265279Y-62466878D01*
X76244196Y-62599997D01*
X76244196Y-62600002D01*
X54002197Y-62600002D01*
X54103220Y-62548528D01*
X54198528Y-62453220D01*
X54259719Y-62333126D01*
X54264455Y-62303225D01*
X54280804Y-62200002D01*
X54280804Y-62199997D01*
X54259720Y-62066878D01*
X54259719Y-62066876D01*
X54259719Y-62066874D01*
X54251122Y-62050002D01*
X66569196Y-62050002D01*
X66590279Y-62183121D01*
X66590280Y-62183124D01*
X66590281Y-62183126D01*
X66651472Y-62303220D01*
X66651473Y-62303221D01*
X66651476Y-62303225D01*
X66746774Y-62398523D01*
X66746778Y-62398526D01*
X66746780Y-62398528D01*
X66866874Y-62459719D01*
X66866876Y-62459719D01*
X66866878Y-62459720D01*
X66979307Y-62477527D01*
X66999613Y-62487153D01*
X67020693Y-62477527D01*
X67133121Y-62459720D01*
X67133121Y-62459719D01*
X67133126Y-62459719D01*
X67253220Y-62398528D01*
X67348528Y-62303220D01*
X67409719Y-62183126D01*
X67409720Y-62183121D01*
X67422885Y-62100002D01*
X83369196Y-62100002D01*
X83390279Y-62233121D01*
X83390280Y-62233124D01*
X83390281Y-62233126D01*
X83441234Y-62333126D01*
X83451473Y-62353221D01*
X83451476Y-62353225D01*
X83546774Y-62448523D01*
X83546778Y-62448526D01*
X83546780Y-62448528D01*
X83666874Y-62509719D01*
X83666876Y-62509719D01*
X83666878Y-62509720D01*
X83799998Y-62530804D01*
X83800000Y-62530804D01*
X83800002Y-62530804D01*
X83933121Y-62509720D01*
X83933121Y-62509719D01*
X83933126Y-62509719D01*
X84053220Y-62448528D01*
X84148528Y-62353220D01*
X84209719Y-62233126D01*
X84209720Y-62233121D01*
X84230804Y-62100002D01*
X84230804Y-62099997D01*
X84209720Y-61966878D01*
X84209719Y-61966876D01*
X84209719Y-61966874D01*
X84148528Y-61846780D01*
X84148526Y-61846778D01*
X84148523Y-61846774D01*
X84053225Y-61751476D01*
X84053221Y-61751473D01*
X84053220Y-61751472D01*
X83933126Y-61690281D01*
X83933124Y-61690280D01*
X83933121Y-61690279D01*
X83800002Y-61669196D01*
X83799998Y-61669196D01*
X83666878Y-61690279D01*
X83666874Y-61690280D01*
X83666874Y-61690281D01*
X83644903Y-61701476D01*
X83546778Y-61751473D01*
X83546774Y-61751476D01*
X83451476Y-61846774D01*
X83451473Y-61846778D01*
X83390279Y-61966878D01*
X83369196Y-62099997D01*
X83369196Y-62100002D01*
X67422885Y-62100002D01*
X67430804Y-62050002D01*
X67430804Y-62049997D01*
X67409720Y-61916878D01*
X67409719Y-61916876D01*
X67409719Y-61916874D01*
X67348528Y-61796780D01*
X67348526Y-61796778D01*
X67348523Y-61796774D01*
X67253225Y-61701476D01*
X67253221Y-61701473D01*
X67253220Y-61701472D01*
X67133126Y-61640281D01*
X67133124Y-61640280D01*
X67133121Y-61640279D01*
X67000002Y-61619196D01*
X66999998Y-61619196D01*
X66866878Y-61640279D01*
X66746778Y-61701473D01*
X66746774Y-61701476D01*
X66651476Y-61796774D01*
X66651473Y-61796778D01*
X66590279Y-61916878D01*
X66569196Y-62049997D01*
X66569196Y-62050002D01*
X54251122Y-62050002D01*
X54198528Y-61946780D01*
X54198526Y-61946778D01*
X54198523Y-61946774D01*
X54103225Y-61851476D01*
X54103221Y-61851473D01*
X54103220Y-61851472D01*
X53983126Y-61790281D01*
X53983124Y-61790280D01*
X53983121Y-61790279D01*
X53850002Y-61769196D01*
X53849998Y-61769196D01*
X53716878Y-61790279D01*
X53596778Y-61851473D01*
X53596774Y-61851476D01*
X53501476Y-61946774D01*
X53501473Y-61946778D01*
X53440279Y-62066878D01*
X53419196Y-62199997D01*
X53419196Y-62200002D01*
X46947863Y-62200002D01*
X46944320Y-61370921D01*
X48998277Y-61370921D01*
X49019360Y-61504040D01*
X49019361Y-61504043D01*
X49019362Y-61504045D01*
X49080553Y-61624139D01*
X49080554Y-61624140D01*
X49080557Y-61624144D01*
X49175855Y-61719442D01*
X49175859Y-61719445D01*
X49175861Y-61719447D01*
X49295955Y-61780638D01*
X49295957Y-61780638D01*
X49295959Y-61780639D01*
X49429079Y-61801723D01*
X49429081Y-61801723D01*
X49429083Y-61801723D01*
X49562202Y-61780639D01*
X49562202Y-61780638D01*
X49562207Y-61780638D01*
X49682301Y-61719447D01*
X49777609Y-61624139D01*
X49838800Y-61504045D01*
X49859885Y-61370919D01*
X49856338Y-61348526D01*
X49838801Y-61237797D01*
X49838800Y-61237795D01*
X49838800Y-61237793D01*
X49777609Y-61117699D01*
X49777607Y-61117697D01*
X49777604Y-61117693D01*
X49682306Y-61022395D01*
X49682302Y-61022392D01*
X49682301Y-61022391D01*
X49638360Y-61000002D01*
X71569196Y-61000002D01*
X71590279Y-61133121D01*
X71590280Y-61133124D01*
X71590281Y-61133126D01*
X71616215Y-61184024D01*
X71651473Y-61253221D01*
X71651476Y-61253225D01*
X71746774Y-61348523D01*
X71746778Y-61348526D01*
X71746780Y-61348528D01*
X71866874Y-61409719D01*
X71866876Y-61409719D01*
X71866878Y-61409720D01*
X71999998Y-61430804D01*
X72000000Y-61430804D01*
X72000002Y-61430804D01*
X72133121Y-61409720D01*
X72133121Y-61409719D01*
X72133126Y-61409719D01*
X72253220Y-61348528D01*
X72348528Y-61253220D01*
X72409719Y-61133126D01*
X72409720Y-61133121D01*
X72430804Y-61000002D01*
X72430804Y-60999997D01*
X72409720Y-60866878D01*
X72409719Y-60866876D01*
X72409719Y-60866874D01*
X72348528Y-60746780D01*
X72348526Y-60746778D01*
X72348523Y-60746774D01*
X72253225Y-60651476D01*
X72253221Y-60651473D01*
X72253220Y-60651472D01*
X72133126Y-60590281D01*
X72133124Y-60590280D01*
X72133121Y-60590279D01*
X72000002Y-60569196D01*
X71999998Y-60569196D01*
X71866878Y-60590279D01*
X71746778Y-60651473D01*
X71746774Y-60651476D01*
X71651476Y-60746774D01*
X71651473Y-60746778D01*
X71590279Y-60866878D01*
X71569196Y-60999997D01*
X71569196Y-61000002D01*
X49638360Y-61000002D01*
X49562207Y-60961200D01*
X49562205Y-60961199D01*
X49562202Y-60961198D01*
X49429083Y-60940115D01*
X49429079Y-60940115D01*
X49295959Y-60961198D01*
X49175859Y-61022392D01*
X49175855Y-61022395D01*
X49080557Y-61117693D01*
X49080554Y-61117697D01*
X49019360Y-61237797D01*
X48998277Y-61370916D01*
X48998277Y-61370921D01*
X46944320Y-61370921D01*
X46940598Y-60500002D01*
X53419196Y-60500002D01*
X53440279Y-60633121D01*
X53440280Y-60633124D01*
X53440281Y-60633126D01*
X53498188Y-60746774D01*
X53501473Y-60753221D01*
X53501476Y-60753225D01*
X53596774Y-60848523D01*
X53596778Y-60848526D01*
X53596780Y-60848528D01*
X53716874Y-60909719D01*
X53716876Y-60909719D01*
X53716878Y-60909720D01*
X53849998Y-60930804D01*
X53850000Y-60930804D01*
X53850002Y-60930804D01*
X53983121Y-60909720D01*
X53983121Y-60909719D01*
X53983126Y-60909719D01*
X54103220Y-60848528D01*
X54198528Y-60753220D01*
X54259719Y-60633126D01*
X54266505Y-60590281D01*
X54280804Y-60500002D01*
X54280804Y-60499997D01*
X54259720Y-60366878D01*
X54259719Y-60366876D01*
X54259719Y-60366874D01*
X54225646Y-60300002D01*
X89769196Y-60300002D01*
X89790279Y-60433121D01*
X89790280Y-60433124D01*
X89790281Y-60433126D01*
X89851472Y-60553220D01*
X89851473Y-60553221D01*
X89851476Y-60553225D01*
X89946774Y-60648523D01*
X89946778Y-60648526D01*
X89946780Y-60648528D01*
X90066874Y-60709719D01*
X90066876Y-60709719D01*
X90066878Y-60709720D01*
X90199998Y-60730804D01*
X90200000Y-60730804D01*
X90200002Y-60730804D01*
X90333121Y-60709720D01*
X90333121Y-60709719D01*
X90333126Y-60709719D01*
X90453220Y-60648528D01*
X90548528Y-60553220D01*
X90609719Y-60433126D01*
X90620212Y-60366878D01*
X90630804Y-60300002D01*
X90630804Y-60299997D01*
X90609720Y-60166878D01*
X90609719Y-60166876D01*
X90609719Y-60166874D01*
X90548528Y-60046780D01*
X90548526Y-60046778D01*
X90548523Y-60046774D01*
X90453225Y-59951476D01*
X90453221Y-59951473D01*
X90453220Y-59951472D01*
X90333126Y-59890281D01*
X90333124Y-59890280D01*
X90333121Y-59890279D01*
X90200002Y-59869196D01*
X90199998Y-59869196D01*
X90066878Y-59890279D01*
X89946778Y-59951473D01*
X89946774Y-59951476D01*
X89851476Y-60046774D01*
X89851473Y-60046778D01*
X89790279Y-60166878D01*
X89769196Y-60299997D01*
X89769196Y-60300002D01*
X54225646Y-60300002D01*
X54198528Y-60246780D01*
X54198526Y-60246778D01*
X54198523Y-60246774D01*
X54103225Y-60151476D01*
X54103221Y-60151473D01*
X54103220Y-60151472D01*
X53983126Y-60090281D01*
X53983124Y-60090280D01*
X53983121Y-60090279D01*
X53850002Y-60069196D01*
X53849998Y-60069196D01*
X53716878Y-60090279D01*
X53596778Y-60151473D01*
X53596774Y-60151476D01*
X53501476Y-60246774D01*
X53501473Y-60246778D01*
X53440279Y-60366878D01*
X53419196Y-60499997D01*
X53419196Y-60500002D01*
X46940598Y-60500002D01*
X46937607Y-59800002D01*
X58869196Y-59800002D01*
X58890279Y-59933121D01*
X58890280Y-59933124D01*
X58890281Y-59933126D01*
X58948188Y-60046774D01*
X58951473Y-60053221D01*
X58951476Y-60053225D01*
X59046774Y-60148523D01*
X59046778Y-60148526D01*
X59046780Y-60148528D01*
X59166874Y-60209719D01*
X59166876Y-60209719D01*
X59166878Y-60209720D01*
X59299998Y-60230804D01*
X59300000Y-60230804D01*
X59300002Y-60230804D01*
X59433121Y-60209720D01*
X59433121Y-60209719D01*
X59433126Y-60209719D01*
X59553220Y-60148528D01*
X59648528Y-60053220D01*
X59709719Y-59933126D01*
X59714455Y-59903225D01*
X59730804Y-59800002D01*
X59730804Y-59799997D01*
X59709720Y-59666878D01*
X59709719Y-59666876D01*
X59709719Y-59666874D01*
X59675646Y-59600002D01*
X74869196Y-59600002D01*
X74890279Y-59733121D01*
X74890280Y-59733124D01*
X74890281Y-59733126D01*
X74951472Y-59853220D01*
X74951473Y-59853221D01*
X74951476Y-59853225D01*
X75046774Y-59948523D01*
X75046778Y-59948526D01*
X75046780Y-59948528D01*
X75166874Y-60009719D01*
X75166876Y-60009719D01*
X75166878Y-60009720D01*
X75299998Y-60030804D01*
X75300000Y-60030804D01*
X75300002Y-60030804D01*
X75433121Y-60009720D01*
X75433121Y-60009719D01*
X75433126Y-60009719D01*
X75553220Y-59948528D01*
X75648528Y-59853220D01*
X75709719Y-59733126D01*
X75720212Y-59666878D01*
X75722885Y-59650002D01*
X86169196Y-59650002D01*
X86190279Y-59783121D01*
X86190280Y-59783124D01*
X86190281Y-59783126D01*
X86251472Y-59903220D01*
X86251473Y-59903221D01*
X86251476Y-59903225D01*
X86346774Y-59998523D01*
X86346778Y-59998526D01*
X86346780Y-59998528D01*
X86466874Y-60059719D01*
X86466876Y-60059719D01*
X86466878Y-60059720D01*
X86599998Y-60080804D01*
X86600000Y-60080804D01*
X86600002Y-60080804D01*
X86733121Y-60059720D01*
X86733121Y-60059719D01*
X86733126Y-60059719D01*
X86853220Y-59998528D01*
X86948528Y-59903220D01*
X87009719Y-59783126D01*
X87028131Y-59666878D01*
X87030804Y-59650002D01*
X87030804Y-59649997D01*
X87023435Y-59603469D01*
X94724500Y-59603469D01*
X94764868Y-59806412D01*
X94764870Y-59806420D01*
X94824954Y-59951476D01*
X94844059Y-59997598D01*
X94876917Y-60046774D01*
X94959024Y-60169657D01*
X95105342Y-60315975D01*
X95105345Y-60315977D01*
X95277402Y-60430941D01*
X95468580Y-60510130D01*
X95671530Y-60550499D01*
X95671534Y-60550500D01*
X95671535Y-60550500D01*
X96128466Y-60550500D01*
X96128467Y-60550499D01*
X96331420Y-60510130D01*
X96522598Y-60430941D01*
X96694655Y-60315977D01*
X96840977Y-60169655D01*
X96955941Y-59997598D01*
X97035130Y-59806420D01*
X97075500Y-59603465D01*
X97075500Y-59396535D01*
X97035130Y-59193580D01*
X96955941Y-59002402D01*
X96840977Y-58830345D01*
X96840975Y-58830342D01*
X96694657Y-58684024D01*
X96522803Y-58569196D01*
X96522598Y-58569059D01*
X96331420Y-58489870D01*
X96331412Y-58489868D01*
X96128469Y-58449500D01*
X96128465Y-58449500D01*
X95671535Y-58449500D01*
X95671530Y-58449500D01*
X95468587Y-58489868D01*
X95468579Y-58489870D01*
X95277403Y-58569058D01*
X95105342Y-58684024D01*
X94959024Y-58830342D01*
X94844058Y-59002403D01*
X94764870Y-59193579D01*
X94764868Y-59193587D01*
X94724500Y-59396530D01*
X94724500Y-59603469D01*
X87023435Y-59603469D01*
X87009720Y-59516878D01*
X87009719Y-59516876D01*
X87009719Y-59516874D01*
X86948528Y-59396780D01*
X86948526Y-59396778D01*
X86948523Y-59396774D01*
X86853225Y-59301476D01*
X86853221Y-59301473D01*
X86853220Y-59301472D01*
X86733126Y-59240281D01*
X86733124Y-59240280D01*
X86733121Y-59240279D01*
X86600002Y-59219196D01*
X86599998Y-59219196D01*
X86466878Y-59240279D01*
X86466874Y-59240280D01*
X86466874Y-59240281D01*
X86444903Y-59251476D01*
X86346778Y-59301473D01*
X86346774Y-59301476D01*
X86251476Y-59396774D01*
X86251473Y-59396778D01*
X86190279Y-59516878D01*
X86169196Y-59649997D01*
X86169196Y-59650002D01*
X75722885Y-59650002D01*
X75730804Y-59600002D01*
X75730804Y-59599997D01*
X75709720Y-59466878D01*
X75709719Y-59466876D01*
X75709719Y-59466874D01*
X75648528Y-59346780D01*
X75648526Y-59346778D01*
X75648523Y-59346774D01*
X75553225Y-59251476D01*
X75553221Y-59251473D01*
X75553220Y-59251472D01*
X75433126Y-59190281D01*
X75433124Y-59190280D01*
X75433121Y-59190279D01*
X75300002Y-59169196D01*
X75299998Y-59169196D01*
X75166878Y-59190279D01*
X75046778Y-59251473D01*
X75046774Y-59251476D01*
X74951476Y-59346774D01*
X74951473Y-59346778D01*
X74890279Y-59466878D01*
X74869196Y-59599997D01*
X74869196Y-59600002D01*
X59675646Y-59600002D01*
X59648528Y-59546780D01*
X59648526Y-59546778D01*
X59648523Y-59546774D01*
X59553225Y-59451476D01*
X59553221Y-59451473D01*
X59553220Y-59451472D01*
X59433126Y-59390281D01*
X59433124Y-59390280D01*
X59433121Y-59390279D01*
X59300002Y-59369196D01*
X59299998Y-59369196D01*
X59166878Y-59390279D01*
X59046778Y-59451473D01*
X59046774Y-59451476D01*
X58951476Y-59546774D01*
X58951473Y-59546778D01*
X58890279Y-59666878D01*
X58869196Y-59799997D01*
X58869196Y-59800002D01*
X46937607Y-59800002D01*
X46934188Y-59000002D01*
X53419196Y-59000002D01*
X53440279Y-59133121D01*
X53440280Y-59133124D01*
X53440281Y-59133126D01*
X53501472Y-59253220D01*
X53501473Y-59253221D01*
X53501476Y-59253225D01*
X53596774Y-59348523D01*
X53596778Y-59348526D01*
X53596780Y-59348528D01*
X53716874Y-59409719D01*
X53716876Y-59409719D01*
X53716878Y-59409720D01*
X53849998Y-59430804D01*
X53850000Y-59430804D01*
X53850002Y-59430804D01*
X53983121Y-59409720D01*
X53983121Y-59409719D01*
X53983126Y-59409719D01*
X54103220Y-59348528D01*
X54198528Y-59253220D01*
X54259719Y-59133126D01*
X54259720Y-59133121D01*
X54280804Y-59000002D01*
X54280804Y-58999997D01*
X54259720Y-58866878D01*
X54259719Y-58866876D01*
X54259719Y-58866874D01*
X54198528Y-58746780D01*
X54198526Y-58746778D01*
X54198523Y-58746774D01*
X54103225Y-58651476D01*
X54103221Y-58651473D01*
X54103220Y-58651472D01*
X53983126Y-58590281D01*
X53983124Y-58590280D01*
X53983121Y-58590279D01*
X53850002Y-58569196D01*
X53849998Y-58569196D01*
X53716878Y-58590279D01*
X53596778Y-58651473D01*
X53596774Y-58651476D01*
X53501476Y-58746774D01*
X53501473Y-58746778D01*
X53440279Y-58866878D01*
X53419196Y-58999997D01*
X53419196Y-59000002D01*
X46934188Y-59000002D01*
X46928513Y-57672042D01*
X46934882Y-57650002D01*
X63269196Y-57650002D01*
X63290279Y-57783121D01*
X63290280Y-57783124D01*
X63290281Y-57783126D01*
X63351472Y-57903220D01*
X63351473Y-57903221D01*
X63351476Y-57903225D01*
X63446774Y-57998523D01*
X63446778Y-57998526D01*
X63446780Y-57998528D01*
X63566874Y-58059719D01*
X63566876Y-58059719D01*
X63566878Y-58059720D01*
X63699998Y-58080804D01*
X63700000Y-58080804D01*
X63700002Y-58080804D01*
X63833121Y-58059720D01*
X63833121Y-58059719D01*
X63833126Y-58059719D01*
X63953220Y-57998528D01*
X64048528Y-57903220D01*
X64089516Y-57822775D01*
X64137489Y-57771981D01*
X64205310Y-57755186D01*
X64271445Y-57777723D01*
X64310483Y-57822774D01*
X64351472Y-57903220D01*
X64351473Y-57903221D01*
X64351476Y-57903225D01*
X64446774Y-57998523D01*
X64446778Y-57998526D01*
X64446780Y-57998528D01*
X64566874Y-58059719D01*
X64566876Y-58059719D01*
X64566878Y-58059720D01*
X64699998Y-58080804D01*
X64700000Y-58080804D01*
X64700002Y-58080804D01*
X64833121Y-58059720D01*
X64833121Y-58059719D01*
X64833126Y-58059719D01*
X64953220Y-57998528D01*
X65048528Y-57903220D01*
X65075644Y-57850002D01*
X86169196Y-57850002D01*
X86190279Y-57983121D01*
X86190280Y-57983124D01*
X86190281Y-57983126D01*
X86251472Y-58103220D01*
X86251473Y-58103221D01*
X86251476Y-58103225D01*
X86346774Y-58198523D01*
X86346778Y-58198526D01*
X86346780Y-58198528D01*
X86466874Y-58259719D01*
X86466876Y-58259719D01*
X86466878Y-58259720D01*
X86599998Y-58280804D01*
X86600000Y-58280804D01*
X86600002Y-58280804D01*
X86733121Y-58259720D01*
X86733121Y-58259719D01*
X86733126Y-58259719D01*
X86853220Y-58198528D01*
X86948528Y-58103220D01*
X87009719Y-57983126D01*
X87030804Y-57850000D01*
X87026492Y-57822777D01*
X87022885Y-57800002D01*
X91069196Y-57800002D01*
X91090279Y-57933121D01*
X91090280Y-57933124D01*
X91090281Y-57933126D01*
X91151472Y-58053220D01*
X91151473Y-58053221D01*
X91151476Y-58053225D01*
X91246774Y-58148523D01*
X91246778Y-58148526D01*
X91246780Y-58148528D01*
X91366874Y-58209719D01*
X91366876Y-58209719D01*
X91366878Y-58209720D01*
X91499998Y-58230804D01*
X91500000Y-58230804D01*
X91500002Y-58230804D01*
X91633121Y-58209720D01*
X91633121Y-58209719D01*
X91633126Y-58209719D01*
X91753220Y-58148528D01*
X91848528Y-58053220D01*
X91909719Y-57933126D01*
X91909720Y-57933121D01*
X91930804Y-57800002D01*
X91930804Y-57799997D01*
X91909720Y-57666878D01*
X91909719Y-57666876D01*
X91909719Y-57666874D01*
X91903296Y-57654269D01*
X94724500Y-57654269D01*
X94727353Y-57684699D01*
X94727353Y-57684701D01*
X94767698Y-57799997D01*
X94772207Y-57812882D01*
X94852850Y-57922150D01*
X94962118Y-58002793D01*
X95004845Y-58017744D01*
X95090299Y-58047646D01*
X95120730Y-58050500D01*
X95120734Y-58050500D01*
X96679270Y-58050500D01*
X96709699Y-58047646D01*
X96709701Y-58047646D01*
X96773790Y-58025219D01*
X96837882Y-58002793D01*
X96947150Y-57922150D01*
X97027793Y-57812882D01*
X97061388Y-57716874D01*
X97072646Y-57684701D01*
X97072646Y-57684699D01*
X97075500Y-57654269D01*
X97075500Y-56345730D01*
X97072646Y-56315300D01*
X97072646Y-56315298D01*
X97027793Y-56187119D01*
X97027792Y-56187117D01*
X96987945Y-56133126D01*
X96947150Y-56077850D01*
X96837882Y-55997207D01*
X96837880Y-55997206D01*
X96709700Y-55952353D01*
X96679270Y-55949500D01*
X96679266Y-55949500D01*
X95120734Y-55949500D01*
X95120730Y-55949500D01*
X95090300Y-55952353D01*
X95090298Y-55952353D01*
X94962119Y-55997206D01*
X94962117Y-55997207D01*
X94852850Y-56077850D01*
X94772207Y-56187117D01*
X94772206Y-56187119D01*
X94727353Y-56315298D01*
X94727353Y-56315300D01*
X94724500Y-56345730D01*
X94724500Y-57654269D01*
X91903296Y-57654269D01*
X91848528Y-57546780D01*
X91848526Y-57546778D01*
X91848523Y-57546774D01*
X91753225Y-57451476D01*
X91753221Y-57451473D01*
X91753220Y-57451472D01*
X91633126Y-57390281D01*
X91633124Y-57390280D01*
X91633121Y-57390279D01*
X91500002Y-57369196D01*
X91499998Y-57369196D01*
X91366878Y-57390279D01*
X91246778Y-57451473D01*
X91246774Y-57451476D01*
X91151476Y-57546774D01*
X91151473Y-57546778D01*
X91090279Y-57666878D01*
X91069196Y-57799997D01*
X91069196Y-57800002D01*
X87022885Y-57800002D01*
X87009720Y-57716878D01*
X87009719Y-57716876D01*
X87009719Y-57716874D01*
X86948528Y-57596780D01*
X86948526Y-57596778D01*
X86948523Y-57596774D01*
X86853225Y-57501476D01*
X86853221Y-57501473D01*
X86853220Y-57501472D01*
X86733126Y-57440281D01*
X86733124Y-57440280D01*
X86733121Y-57440279D01*
X86600002Y-57419196D01*
X86599998Y-57419196D01*
X86466878Y-57440279D01*
X86466874Y-57440280D01*
X86466874Y-57440281D01*
X86444903Y-57451476D01*
X86346778Y-57501473D01*
X86346774Y-57501476D01*
X86251476Y-57596774D01*
X86251473Y-57596778D01*
X86190279Y-57716878D01*
X86169196Y-57849997D01*
X86169196Y-57850002D01*
X65075644Y-57850002D01*
X65109719Y-57783126D01*
X65120212Y-57716878D01*
X65130804Y-57650002D01*
X65130804Y-57649997D01*
X65109720Y-57516878D01*
X65109719Y-57516876D01*
X65109719Y-57516874D01*
X65048528Y-57396780D01*
X65048526Y-57396778D01*
X65048523Y-57396774D01*
X64953225Y-57301476D01*
X64953221Y-57301473D01*
X64953220Y-57301472D01*
X64833126Y-57240281D01*
X64833124Y-57240280D01*
X64833121Y-57240279D01*
X64700002Y-57219196D01*
X64699998Y-57219196D01*
X64566878Y-57240279D01*
X64446778Y-57301473D01*
X64446774Y-57301476D01*
X64351476Y-57396774D01*
X64351474Y-57396778D01*
X64351472Y-57396780D01*
X64329161Y-57440568D01*
X64310485Y-57477222D01*
X64262510Y-57528018D01*
X64194689Y-57544813D01*
X64128554Y-57522275D01*
X64089515Y-57477222D01*
X64048528Y-57396780D01*
X64048524Y-57396776D01*
X64048523Y-57396774D01*
X63953225Y-57301476D01*
X63953221Y-57301473D01*
X63953220Y-57301472D01*
X63833126Y-57240281D01*
X63833124Y-57240280D01*
X63833121Y-57240279D01*
X63700002Y-57219196D01*
X63699998Y-57219196D01*
X63566878Y-57240279D01*
X63446778Y-57301473D01*
X63446774Y-57301476D01*
X63351476Y-57396774D01*
X63351473Y-57396778D01*
X63290279Y-57516878D01*
X63269196Y-57649997D01*
X63269196Y-57650002D01*
X46934882Y-57650002D01*
X46947910Y-57604923D01*
X47000518Y-57558943D01*
X47069633Y-57548704D01*
X47108801Y-57561029D01*
X47179527Y-57597066D01*
X47179529Y-57597066D01*
X47179531Y-57597067D01*
X47312651Y-57618151D01*
X47312653Y-57618151D01*
X47312655Y-57618151D01*
X47445774Y-57597067D01*
X47445774Y-57597066D01*
X47445779Y-57597066D01*
X47565873Y-57535875D01*
X47661181Y-57440567D01*
X47722372Y-57320473D01*
X47725381Y-57301476D01*
X47743457Y-57187349D01*
X47743457Y-57187344D01*
X47722373Y-57054225D01*
X47722372Y-57054223D01*
X47722372Y-57054221D01*
X47661181Y-56934127D01*
X47661179Y-56934125D01*
X47661176Y-56934121D01*
X47627057Y-56900002D01*
X50369196Y-56900002D01*
X50390279Y-57033121D01*
X50390280Y-57033124D01*
X50390281Y-57033126D01*
X50441234Y-57133126D01*
X50451473Y-57153221D01*
X50451476Y-57153225D01*
X50546774Y-57248523D01*
X50546778Y-57248526D01*
X50546780Y-57248528D01*
X50666874Y-57309719D01*
X50666876Y-57309719D01*
X50666878Y-57309720D01*
X50799998Y-57330804D01*
X50800000Y-57330804D01*
X50800002Y-57330804D01*
X50933121Y-57309720D01*
X50933121Y-57309719D01*
X50933126Y-57309719D01*
X51053220Y-57248528D01*
X51148528Y-57153220D01*
X51209719Y-57033126D01*
X51209720Y-57033121D01*
X51214966Y-57000002D01*
X56569196Y-57000002D01*
X56590279Y-57133121D01*
X56590280Y-57133124D01*
X56590281Y-57133126D01*
X56651472Y-57253220D01*
X56651473Y-57253221D01*
X56651476Y-57253225D01*
X56746774Y-57348523D01*
X56746778Y-57348526D01*
X56746780Y-57348528D01*
X56866874Y-57409719D01*
X56866876Y-57409719D01*
X56866878Y-57409720D01*
X56999998Y-57430804D01*
X57000000Y-57430804D01*
X57000002Y-57430804D01*
X57133121Y-57409720D01*
X57133121Y-57409719D01*
X57133126Y-57409719D01*
X57253220Y-57348528D01*
X57348528Y-57253220D01*
X57409719Y-57133126D01*
X57422216Y-57054225D01*
X57430804Y-57000002D01*
X57430804Y-56999997D01*
X57409720Y-56866878D01*
X57409719Y-56866876D01*
X57409719Y-56866874D01*
X57348528Y-56746780D01*
X57348526Y-56746778D01*
X57348523Y-56746774D01*
X57253225Y-56651476D01*
X57253221Y-56651473D01*
X57253220Y-56651472D01*
X57133126Y-56590281D01*
X57133124Y-56590280D01*
X57133121Y-56590279D01*
X57000002Y-56569196D01*
X56999998Y-56569196D01*
X56866878Y-56590279D01*
X56746778Y-56651473D01*
X56746774Y-56651476D01*
X56651476Y-56746774D01*
X56651473Y-56746778D01*
X56590279Y-56866878D01*
X56569196Y-56999997D01*
X56569196Y-57000002D01*
X51214966Y-57000002D01*
X51230804Y-56900002D01*
X51230804Y-56899997D01*
X51209720Y-56766878D01*
X51209719Y-56766876D01*
X51209719Y-56766874D01*
X51148528Y-56646780D01*
X51148526Y-56646778D01*
X51148523Y-56646774D01*
X51053225Y-56551476D01*
X51053221Y-56551473D01*
X51053220Y-56551472D01*
X50933126Y-56490281D01*
X50933124Y-56490280D01*
X50933121Y-56490279D01*
X50800002Y-56469196D01*
X50799998Y-56469196D01*
X50666878Y-56490279D01*
X50546778Y-56551473D01*
X50546774Y-56551476D01*
X50451476Y-56646774D01*
X50451473Y-56646778D01*
X50390279Y-56766878D01*
X50369196Y-56899997D01*
X50369196Y-56900002D01*
X47627057Y-56900002D01*
X47565878Y-56838823D01*
X47565874Y-56838820D01*
X47565873Y-56838819D01*
X47445779Y-56777628D01*
X47445777Y-56777627D01*
X47445774Y-56777626D01*
X47312655Y-56756543D01*
X47312651Y-56756543D01*
X47179530Y-56777626D01*
X47104674Y-56815767D01*
X47036005Y-56828662D01*
X46971265Y-56802385D01*
X46931009Y-56745278D01*
X46924383Y-56705822D01*
X46921367Y-56000002D01*
X64569196Y-56000002D01*
X64590279Y-56133121D01*
X64590280Y-56133124D01*
X64590281Y-56133126D01*
X64641234Y-56233126D01*
X64651473Y-56253221D01*
X64651476Y-56253225D01*
X64746774Y-56348523D01*
X64746778Y-56348526D01*
X64746780Y-56348528D01*
X64866874Y-56409719D01*
X64866876Y-56409719D01*
X64866878Y-56409720D01*
X64999998Y-56430804D01*
X65000000Y-56430804D01*
X65000002Y-56430804D01*
X65133121Y-56409720D01*
X65133121Y-56409719D01*
X65133126Y-56409719D01*
X65253220Y-56348528D01*
X65348528Y-56253220D01*
X65409719Y-56133126D01*
X65409720Y-56133121D01*
X65414966Y-56100002D01*
X86169196Y-56100002D01*
X86190279Y-56233121D01*
X86190280Y-56233124D01*
X86190281Y-56233126D01*
X86251472Y-56353220D01*
X86251473Y-56353221D01*
X86251476Y-56353225D01*
X86346774Y-56448523D01*
X86346778Y-56448526D01*
X86346780Y-56448528D01*
X86466874Y-56509719D01*
X86466876Y-56509719D01*
X86466878Y-56509720D01*
X86599998Y-56530804D01*
X86600000Y-56530804D01*
X86600002Y-56530804D01*
X86733121Y-56509720D01*
X86733121Y-56509719D01*
X86733126Y-56509719D01*
X86853220Y-56448528D01*
X86948528Y-56353220D01*
X87009719Y-56233126D01*
X87017006Y-56187117D01*
X87030804Y-56100002D01*
X87030804Y-56099997D01*
X87009720Y-55966878D01*
X87009719Y-55966876D01*
X87009719Y-55966874D01*
X86948528Y-55846780D01*
X86948526Y-55846778D01*
X86948523Y-55846774D01*
X86853225Y-55751476D01*
X86853221Y-55751473D01*
X86853220Y-55751472D01*
X86733126Y-55690281D01*
X86733124Y-55690280D01*
X86733121Y-55690279D01*
X86600002Y-55669196D01*
X86599998Y-55669196D01*
X86466878Y-55690279D01*
X86346778Y-55751473D01*
X86346774Y-55751476D01*
X86251476Y-55846774D01*
X86251473Y-55846778D01*
X86190279Y-55966878D01*
X86169196Y-56099997D01*
X86169196Y-56100002D01*
X65414966Y-56100002D01*
X65430804Y-56000002D01*
X65430804Y-55999997D01*
X65409720Y-55866878D01*
X65409719Y-55866876D01*
X65409719Y-55866874D01*
X65348528Y-55746780D01*
X65348526Y-55746778D01*
X65348523Y-55746774D01*
X65253225Y-55651476D01*
X65253221Y-55651473D01*
X65253220Y-55651472D01*
X65133126Y-55590281D01*
X65133124Y-55590280D01*
X65133121Y-55590279D01*
X65000002Y-55569196D01*
X64999998Y-55569196D01*
X64866878Y-55590279D01*
X64746778Y-55651473D01*
X64746774Y-55651476D01*
X64651476Y-55746774D01*
X64651473Y-55746778D01*
X64590279Y-55866878D01*
X64569196Y-55999997D01*
X64569196Y-56000002D01*
X46921367Y-56000002D01*
X46900532Y-51124529D01*
X46919930Y-51057407D01*
X46972538Y-51011427D01*
X47024531Y-51000000D01*
X51443899Y-51000000D01*
X51510938Y-51019685D01*
X51556693Y-51072489D01*
X51566637Y-51141647D01*
X51563674Y-51156093D01*
X51530966Y-51278161D01*
X51530963Y-51278174D01*
X51499300Y-51518681D01*
X51499299Y-51518697D01*
X51499299Y-51761286D01*
X51499300Y-51761302D01*
X51530963Y-52001809D01*
X51530964Y-52001814D01*
X51530965Y-52001820D01*
X51559876Y-52109719D01*
X51593755Y-52236158D01*
X51686592Y-52460285D01*
X51686596Y-52460295D01*
X51807895Y-52670391D01*
X51955582Y-52862860D01*
X51955588Y-52862867D01*
X52127123Y-53034402D01*
X52127130Y-53034408D01*
X52319599Y-53182095D01*
X52529695Y-53303394D01*
X52529696Y-53303394D01*
X52529699Y-53303396D01*
X52679123Y-53365289D01*
X52753832Y-53396235D01*
X52753833Y-53396235D01*
X52753835Y-53396236D01*
X52988171Y-53459026D01*
X53228698Y-53490692D01*
X53228705Y-53490692D01*
X53471293Y-53490692D01*
X53471300Y-53490692D01*
X53711827Y-53459026D01*
X53946163Y-53396236D01*
X54170299Y-53303396D01*
X54380399Y-53182095D01*
X54539517Y-53059999D01*
X59385510Y-53059999D01*
X59405822Y-53253253D01*
X59405823Y-53253255D01*
X59465869Y-53438058D01*
X59465870Y-53438060D01*
X59546076Y-53576982D01*
X59563027Y-53606341D01*
X59608319Y-53656643D01*
X59693044Y-53750741D01*
X59693047Y-53750743D01*
X59693050Y-53750746D01*
X59810954Y-53836408D01*
X59850257Y-53864964D01*
X59918400Y-53895302D01*
X60027773Y-53943998D01*
X60217844Y-53984399D01*
X60412160Y-53984399D01*
X60602231Y-53943998D01*
X60779748Y-53864963D01*
X60936954Y-53750746D01*
X61066977Y-53606341D01*
X61164135Y-53438057D01*
X61224182Y-53253251D01*
X61244494Y-53059999D01*
X62155509Y-53059999D01*
X62175821Y-53253253D01*
X62175822Y-53253255D01*
X62235868Y-53438058D01*
X62235869Y-53438060D01*
X62316075Y-53576982D01*
X62333026Y-53606341D01*
X62378318Y-53656643D01*
X62463043Y-53750741D01*
X62463046Y-53750743D01*
X62463049Y-53750746D01*
X62580953Y-53836408D01*
X62620256Y-53864964D01*
X62688399Y-53895302D01*
X62797772Y-53943998D01*
X62987843Y-53984399D01*
X63182159Y-53984399D01*
X63372230Y-53943998D01*
X63549747Y-53864963D01*
X63706953Y-53750746D01*
X63836976Y-53606341D01*
X63934134Y-53438057D01*
X63994181Y-53253251D01*
X64014493Y-53059999D01*
X64925509Y-53059999D01*
X64945821Y-53253253D01*
X64945822Y-53253255D01*
X65005868Y-53438058D01*
X65005869Y-53438060D01*
X65086075Y-53576982D01*
X65103026Y-53606341D01*
X65148318Y-53656643D01*
X65233043Y-53750741D01*
X65233046Y-53750743D01*
X65233049Y-53750746D01*
X65350953Y-53836408D01*
X65390256Y-53864964D01*
X65458399Y-53895302D01*
X65567772Y-53943998D01*
X65757843Y-53984399D01*
X65952159Y-53984399D01*
X66142230Y-53943998D01*
X66319747Y-53864963D01*
X66476953Y-53750746D01*
X66606976Y-53606341D01*
X66704134Y-53438057D01*
X66764181Y-53253251D01*
X66784493Y-53059999D01*
X67695509Y-53059999D01*
X67715821Y-53253253D01*
X67715822Y-53253255D01*
X67775868Y-53438058D01*
X67775869Y-53438060D01*
X67856075Y-53576982D01*
X67873026Y-53606341D01*
X67918318Y-53656643D01*
X68003043Y-53750741D01*
X68003046Y-53750743D01*
X68003049Y-53750746D01*
X68120953Y-53836408D01*
X68160256Y-53864964D01*
X68228399Y-53895302D01*
X68337772Y-53943998D01*
X68527843Y-53984399D01*
X68722159Y-53984399D01*
X68912230Y-53943998D01*
X69089747Y-53864963D01*
X69246953Y-53750746D01*
X69376976Y-53606341D01*
X69474134Y-53438057D01*
X69534181Y-53253251D01*
X69554493Y-53059999D01*
X70465508Y-53059999D01*
X70485820Y-53253253D01*
X70485821Y-53253255D01*
X70545867Y-53438058D01*
X70545868Y-53438060D01*
X70626074Y-53576982D01*
X70643025Y-53606341D01*
X70688317Y-53656643D01*
X70773042Y-53750741D01*
X70773045Y-53750743D01*
X70773048Y-53750746D01*
X70890952Y-53836408D01*
X70930255Y-53864964D01*
X70998398Y-53895302D01*
X71107771Y-53943998D01*
X71297842Y-53984399D01*
X71492158Y-53984399D01*
X71682229Y-53943998D01*
X71859746Y-53864963D01*
X72016952Y-53750746D01*
X72146975Y-53606341D01*
X72244133Y-53438057D01*
X72304180Y-53253251D01*
X72324492Y-53059999D01*
X73235508Y-53059999D01*
X73255820Y-53253253D01*
X73255821Y-53253255D01*
X73315867Y-53438058D01*
X73315868Y-53438060D01*
X73396074Y-53576982D01*
X73413025Y-53606341D01*
X73458317Y-53656643D01*
X73543042Y-53750741D01*
X73543045Y-53750743D01*
X73543048Y-53750746D01*
X73660952Y-53836408D01*
X73700255Y-53864964D01*
X73768398Y-53895302D01*
X73877771Y-53943998D01*
X74067842Y-53984399D01*
X74262158Y-53984399D01*
X74452229Y-53943998D01*
X74629746Y-53864963D01*
X74786952Y-53750746D01*
X74916975Y-53606341D01*
X75014133Y-53438057D01*
X75074180Y-53253251D01*
X75094492Y-53059999D01*
X76005507Y-53059999D01*
X76025819Y-53253253D01*
X76025820Y-53253255D01*
X76085866Y-53438058D01*
X76085867Y-53438060D01*
X76166073Y-53576982D01*
X76183024Y-53606341D01*
X76228316Y-53656643D01*
X76313041Y-53750741D01*
X76313044Y-53750743D01*
X76313047Y-53750746D01*
X76430951Y-53836408D01*
X76470254Y-53864964D01*
X76538397Y-53895302D01*
X76647770Y-53943998D01*
X76837841Y-53984399D01*
X77032157Y-53984399D01*
X77222228Y-53943998D01*
X77399745Y-53864963D01*
X77556951Y-53750746D01*
X77686974Y-53606341D01*
X77784132Y-53438057D01*
X77844179Y-53253251D01*
X77864491Y-53059999D01*
X78775507Y-53059999D01*
X78795819Y-53253253D01*
X78795820Y-53253255D01*
X78855866Y-53438058D01*
X78855867Y-53438060D01*
X78936073Y-53576982D01*
X78953024Y-53606341D01*
X78998316Y-53656643D01*
X79083041Y-53750741D01*
X79083044Y-53750743D01*
X79083047Y-53750746D01*
X79200951Y-53836408D01*
X79240254Y-53864964D01*
X79308397Y-53895302D01*
X79417770Y-53943998D01*
X79607841Y-53984399D01*
X79802157Y-53984399D01*
X79992228Y-53943998D01*
X80169745Y-53864963D01*
X80326951Y-53750746D01*
X80456974Y-53606341D01*
X80554132Y-53438057D01*
X80614179Y-53253251D01*
X80634491Y-53059999D01*
X80614179Y-52866747D01*
X80554132Y-52681941D01*
X80456974Y-52513657D01*
X80406047Y-52457097D01*
X80326956Y-52369256D01*
X80326953Y-52369254D01*
X80326952Y-52369253D01*
X80326951Y-52369252D01*
X80248348Y-52312143D01*
X80169743Y-52255033D01*
X80033456Y-52194355D01*
X79992228Y-52176000D01*
X79992226Y-52175999D01*
X79802157Y-52135599D01*
X79607841Y-52135599D01*
X79417772Y-52175999D01*
X79240254Y-52255033D01*
X79083044Y-52369254D01*
X79083041Y-52369256D01*
X78953023Y-52513658D01*
X78855867Y-52681937D01*
X78855866Y-52681939D01*
X78795820Y-52866742D01*
X78795819Y-52866744D01*
X78775507Y-53059999D01*
X77864491Y-53059999D01*
X77844179Y-52866747D01*
X77784132Y-52681941D01*
X77686974Y-52513657D01*
X77636047Y-52457097D01*
X77556956Y-52369256D01*
X77556953Y-52369254D01*
X77556952Y-52369253D01*
X77556951Y-52369252D01*
X77478348Y-52312143D01*
X77399743Y-52255033D01*
X77263456Y-52194355D01*
X77222228Y-52176000D01*
X77222226Y-52175999D01*
X77032157Y-52135599D01*
X76837841Y-52135599D01*
X76647772Y-52175999D01*
X76470254Y-52255033D01*
X76313044Y-52369254D01*
X76313041Y-52369256D01*
X76183023Y-52513658D01*
X76085867Y-52681937D01*
X76085866Y-52681939D01*
X76025820Y-52866742D01*
X76025819Y-52866744D01*
X76005507Y-53059999D01*
X75094492Y-53059999D01*
X75074180Y-52866747D01*
X75014133Y-52681941D01*
X74916975Y-52513657D01*
X74866048Y-52457097D01*
X74786957Y-52369256D01*
X74786954Y-52369254D01*
X74786953Y-52369253D01*
X74786952Y-52369252D01*
X74708349Y-52312143D01*
X74629744Y-52255033D01*
X74493457Y-52194355D01*
X74452229Y-52176000D01*
X74452227Y-52175999D01*
X74262158Y-52135599D01*
X74067842Y-52135599D01*
X73877773Y-52175999D01*
X73700255Y-52255033D01*
X73543045Y-52369254D01*
X73543042Y-52369256D01*
X73413024Y-52513658D01*
X73315868Y-52681937D01*
X73315867Y-52681939D01*
X73255821Y-52866742D01*
X73255820Y-52866744D01*
X73235508Y-53059999D01*
X72324492Y-53059999D01*
X72304180Y-52866747D01*
X72244133Y-52681941D01*
X72146975Y-52513657D01*
X72096048Y-52457097D01*
X72016957Y-52369256D01*
X72016954Y-52369254D01*
X72016953Y-52369253D01*
X72016952Y-52369252D01*
X71938349Y-52312143D01*
X71859744Y-52255033D01*
X71723457Y-52194355D01*
X71682229Y-52176000D01*
X71682227Y-52175999D01*
X71492158Y-52135599D01*
X71297842Y-52135599D01*
X71107773Y-52175999D01*
X70930255Y-52255033D01*
X70773045Y-52369254D01*
X70773042Y-52369256D01*
X70643024Y-52513658D01*
X70545868Y-52681937D01*
X70545867Y-52681939D01*
X70485821Y-52866742D01*
X70485820Y-52866744D01*
X70465508Y-53059999D01*
X69554493Y-53059999D01*
X69534181Y-52866747D01*
X69474134Y-52681941D01*
X69376976Y-52513657D01*
X69326049Y-52457097D01*
X69246958Y-52369256D01*
X69246955Y-52369254D01*
X69246954Y-52369253D01*
X69246953Y-52369252D01*
X69168350Y-52312143D01*
X69089745Y-52255033D01*
X68953458Y-52194355D01*
X68912230Y-52176000D01*
X68912228Y-52175999D01*
X68722159Y-52135599D01*
X68527843Y-52135599D01*
X68337774Y-52175999D01*
X68160256Y-52255033D01*
X68003046Y-52369254D01*
X68003043Y-52369256D01*
X67873025Y-52513658D01*
X67775869Y-52681937D01*
X67775868Y-52681939D01*
X67715822Y-52866742D01*
X67715821Y-52866744D01*
X67695509Y-53059999D01*
X66784493Y-53059999D01*
X66764181Y-52866747D01*
X66704134Y-52681941D01*
X66606976Y-52513657D01*
X66556049Y-52457097D01*
X66476958Y-52369256D01*
X66476955Y-52369254D01*
X66476954Y-52369253D01*
X66476953Y-52369252D01*
X66398350Y-52312143D01*
X66319745Y-52255033D01*
X66183458Y-52194355D01*
X66142230Y-52176000D01*
X66142228Y-52175999D01*
X65952159Y-52135599D01*
X65757843Y-52135599D01*
X65567774Y-52175999D01*
X65390256Y-52255033D01*
X65233046Y-52369254D01*
X65233043Y-52369256D01*
X65103025Y-52513658D01*
X65005869Y-52681937D01*
X65005868Y-52681939D01*
X64945822Y-52866742D01*
X64945821Y-52866744D01*
X64925509Y-53059999D01*
X64014493Y-53059999D01*
X63994181Y-52866747D01*
X63934134Y-52681941D01*
X63836976Y-52513657D01*
X63786049Y-52457097D01*
X63706958Y-52369256D01*
X63706955Y-52369254D01*
X63706954Y-52369253D01*
X63706953Y-52369252D01*
X63628350Y-52312143D01*
X63549745Y-52255033D01*
X63413458Y-52194355D01*
X63372230Y-52176000D01*
X63372228Y-52175999D01*
X63182159Y-52135599D01*
X62987843Y-52135599D01*
X62797774Y-52175999D01*
X62620256Y-52255033D01*
X62463046Y-52369254D01*
X62463043Y-52369256D01*
X62333025Y-52513658D01*
X62235869Y-52681937D01*
X62235868Y-52681939D01*
X62175822Y-52866742D01*
X62175821Y-52866744D01*
X62155509Y-53059999D01*
X61244494Y-53059999D01*
X61224182Y-52866747D01*
X61164135Y-52681941D01*
X61066977Y-52513657D01*
X61016050Y-52457097D01*
X60936959Y-52369256D01*
X60936956Y-52369254D01*
X60936955Y-52369253D01*
X60936954Y-52369252D01*
X60858351Y-52312143D01*
X60779746Y-52255033D01*
X60643459Y-52194355D01*
X60602231Y-52176000D01*
X60602229Y-52175999D01*
X60412160Y-52135599D01*
X60217844Y-52135599D01*
X60027775Y-52175999D01*
X59850257Y-52255033D01*
X59693047Y-52369254D01*
X59693044Y-52369256D01*
X59563026Y-52513658D01*
X59465870Y-52681937D01*
X59465869Y-52681939D01*
X59405823Y-52866742D01*
X59405822Y-52866744D01*
X59385510Y-53059999D01*
X54539517Y-53059999D01*
X54572869Y-53034407D01*
X54744414Y-52862862D01*
X54892102Y-52670392D01*
X55013403Y-52460292D01*
X55106243Y-52236156D01*
X55169033Y-52001820D01*
X55200699Y-51761293D01*
X55200699Y-51761286D01*
X84819299Y-51761286D01*
X84819300Y-51761302D01*
X84850963Y-52001809D01*
X84850964Y-52001814D01*
X84850965Y-52001820D01*
X84879876Y-52109719D01*
X84913755Y-52236158D01*
X85006592Y-52460285D01*
X85006596Y-52460295D01*
X85127895Y-52670391D01*
X85275582Y-52862860D01*
X85275588Y-52862867D01*
X85447123Y-53034402D01*
X85447130Y-53034408D01*
X85639599Y-53182095D01*
X85849695Y-53303394D01*
X85849696Y-53303394D01*
X85849699Y-53303396D01*
X85999123Y-53365289D01*
X86073832Y-53396235D01*
X86073833Y-53396235D01*
X86073835Y-53396236D01*
X86308171Y-53459026D01*
X86548698Y-53490692D01*
X86548705Y-53490692D01*
X86791293Y-53490692D01*
X86791300Y-53490692D01*
X87031827Y-53459026D01*
X87266163Y-53396236D01*
X87490299Y-53303396D01*
X87700399Y-53182095D01*
X87892869Y-53034407D01*
X88064414Y-52862862D01*
X88212102Y-52670392D01*
X88333403Y-52460292D01*
X88426243Y-52236156D01*
X88489033Y-52001820D01*
X88520699Y-51761293D01*
X88520699Y-51700002D01*
X92569196Y-51700002D01*
X92590279Y-51833121D01*
X92590280Y-51833124D01*
X92590281Y-51833126D01*
X92651472Y-51953220D01*
X92651473Y-51953221D01*
X92651476Y-51953225D01*
X92746774Y-52048523D01*
X92746778Y-52048526D01*
X92746780Y-52048528D01*
X92866874Y-52109719D01*
X92866876Y-52109719D01*
X92866878Y-52109720D01*
X92999998Y-52130804D01*
X93000000Y-52130804D01*
X93000002Y-52130804D01*
X93133121Y-52109720D01*
X93133121Y-52109719D01*
X93133126Y-52109719D01*
X93253220Y-52048528D01*
X93348528Y-51953220D01*
X93409719Y-51833126D01*
X93421096Y-51761293D01*
X93430804Y-51700002D01*
X93430804Y-51699997D01*
X93409720Y-51566878D01*
X93409719Y-51566876D01*
X93409719Y-51566874D01*
X93348528Y-51446780D01*
X93348526Y-51446778D01*
X93348523Y-51446774D01*
X93253225Y-51351476D01*
X93253221Y-51351473D01*
X93253220Y-51351472D01*
X93133126Y-51290281D01*
X93133124Y-51290280D01*
X93133121Y-51290279D01*
X93000002Y-51269196D01*
X92999998Y-51269196D01*
X92866878Y-51290279D01*
X92746778Y-51351473D01*
X92746774Y-51351476D01*
X92651476Y-51446774D01*
X92651473Y-51446778D01*
X92651472Y-51446780D01*
X92614832Y-51518691D01*
X92590279Y-51566878D01*
X92569196Y-51699997D01*
X92569196Y-51700002D01*
X88520699Y-51700002D01*
X88520699Y-51518691D01*
X88489033Y-51278164D01*
X88426243Y-51043828D01*
X88333403Y-50819692D01*
X88302601Y-50766342D01*
X88212102Y-50609592D01*
X88064415Y-50417123D01*
X88064409Y-50417116D01*
X87892874Y-50245581D01*
X87892867Y-50245575D01*
X87700398Y-50097888D01*
X87530854Y-50000002D01*
X98469196Y-50000002D01*
X98490279Y-50133121D01*
X98490280Y-50133124D01*
X98490281Y-50133126D01*
X98534546Y-50220000D01*
X98551473Y-50253221D01*
X98551476Y-50253225D01*
X98646774Y-50348523D01*
X98646778Y-50348526D01*
X98646780Y-50348528D01*
X98766874Y-50409719D01*
X98766876Y-50409719D01*
X98766878Y-50409720D01*
X98899998Y-50430804D01*
X98900000Y-50430804D01*
X98900002Y-50430804D01*
X99033121Y-50409720D01*
X99033121Y-50409719D01*
X99033126Y-50409719D01*
X99153220Y-50348528D01*
X99248528Y-50253220D01*
X99309719Y-50133126D01*
X99330804Y-50000000D01*
X99327096Y-49976589D01*
X99309720Y-49866878D01*
X99309719Y-49866876D01*
X99309719Y-49866874D01*
X99248528Y-49746780D01*
X99248526Y-49746778D01*
X99248523Y-49746774D01*
X99153225Y-49651476D01*
X99153221Y-49651473D01*
X99153220Y-49651472D01*
X99033126Y-49590281D01*
X99033124Y-49590280D01*
X99033121Y-49590279D01*
X98900002Y-49569196D01*
X98899998Y-49569196D01*
X98766878Y-49590279D01*
X98646778Y-49651473D01*
X98646774Y-49651476D01*
X98551476Y-49746774D01*
X98551473Y-49746778D01*
X98551472Y-49746780D01*
X98502985Y-49841942D01*
X98490279Y-49866878D01*
X98469196Y-49999997D01*
X98469196Y-50000002D01*
X87530854Y-50000002D01*
X87490302Y-49976589D01*
X87490292Y-49976585D01*
X87266165Y-49883748D01*
X87140585Y-49850099D01*
X87031827Y-49820958D01*
X87031821Y-49820957D01*
X87031816Y-49820956D01*
X86791309Y-49789293D01*
X86791306Y-49789292D01*
X86791300Y-49789292D01*
X86548698Y-49789292D01*
X86548692Y-49789292D01*
X86548688Y-49789293D01*
X86308181Y-49820956D01*
X86308174Y-49820957D01*
X86308171Y-49820958D01*
X86262202Y-49833275D01*
X86073832Y-49883748D01*
X85849705Y-49976585D01*
X85849695Y-49976589D01*
X85639599Y-50097888D01*
X85447130Y-50245575D01*
X85447123Y-50245581D01*
X85275588Y-50417116D01*
X85275582Y-50417123D01*
X85127895Y-50609592D01*
X85006596Y-50819688D01*
X85006592Y-50819698D01*
X84913755Y-51043825D01*
X84850966Y-51278161D01*
X84850963Y-51278174D01*
X84819300Y-51518681D01*
X84819299Y-51518697D01*
X84819299Y-51761286D01*
X55200699Y-51761286D01*
X55200699Y-51518691D01*
X55169033Y-51278164D01*
X55136324Y-51156092D01*
X55137987Y-51086243D01*
X55177150Y-51028381D01*
X55241378Y-51000877D01*
X55256099Y-51000000D01*
X61160604Y-51000000D01*
X61227643Y-51019685D01*
X61233488Y-51023681D01*
X61235254Y-51024964D01*
X61412771Y-51103999D01*
X61602842Y-51144400D01*
X61797158Y-51144400D01*
X61987229Y-51103999D01*
X62164746Y-51024964D01*
X62166509Y-51023682D01*
X62167703Y-51023256D01*
X62170372Y-51021716D01*
X62170653Y-51022204D01*
X62232314Y-51000202D01*
X62239396Y-51000000D01*
X63930604Y-51000000D01*
X63997643Y-51019685D01*
X64003488Y-51023681D01*
X64005254Y-51024964D01*
X64182771Y-51103999D01*
X64372842Y-51144400D01*
X64567158Y-51144400D01*
X64757229Y-51103999D01*
X64934746Y-51024964D01*
X64936509Y-51023682D01*
X64937703Y-51023256D01*
X64940372Y-51021716D01*
X64940653Y-51022204D01*
X65002314Y-51000202D01*
X65009396Y-51000000D01*
X66700603Y-51000000D01*
X66767642Y-51019685D01*
X66773487Y-51023681D01*
X66775253Y-51024964D01*
X66952770Y-51103999D01*
X67142841Y-51144400D01*
X67337157Y-51144400D01*
X67527228Y-51103999D01*
X67704745Y-51024964D01*
X67706508Y-51023682D01*
X67707702Y-51023256D01*
X67710371Y-51021716D01*
X67710652Y-51022204D01*
X67772313Y-51000202D01*
X67779395Y-51000000D01*
X69470603Y-51000000D01*
X69537642Y-51019685D01*
X69543487Y-51023681D01*
X69545253Y-51024964D01*
X69722770Y-51103999D01*
X69912841Y-51144400D01*
X70107157Y-51144400D01*
X70297228Y-51103999D01*
X70474745Y-51024964D01*
X70476508Y-51023682D01*
X70477702Y-51023256D01*
X70480371Y-51021716D01*
X70480652Y-51022204D01*
X70542313Y-51000202D01*
X70549395Y-51000000D01*
X72240603Y-51000000D01*
X72307642Y-51019685D01*
X72313487Y-51023681D01*
X72315253Y-51024964D01*
X72492770Y-51103999D01*
X72682841Y-51144400D01*
X72877157Y-51144400D01*
X73067228Y-51103999D01*
X73244745Y-51024964D01*
X73246508Y-51023682D01*
X73247702Y-51023256D01*
X73250371Y-51021716D01*
X73250652Y-51022204D01*
X73312313Y-51000202D01*
X73319395Y-51000000D01*
X75010602Y-51000000D01*
X75077641Y-51019685D01*
X75083486Y-51023681D01*
X75085252Y-51024964D01*
X75262769Y-51103999D01*
X75452840Y-51144400D01*
X75647156Y-51144400D01*
X75837227Y-51103999D01*
X76014744Y-51024964D01*
X76016507Y-51023682D01*
X76017701Y-51023256D01*
X76020370Y-51021716D01*
X76020651Y-51022204D01*
X76082312Y-51000202D01*
X76089394Y-51000000D01*
X77780602Y-51000000D01*
X77847641Y-51019685D01*
X77853486Y-51023681D01*
X77855252Y-51024964D01*
X78032769Y-51103999D01*
X78222840Y-51144400D01*
X78417156Y-51144400D01*
X78607227Y-51103999D01*
X78784744Y-51024964D01*
X78786507Y-51023682D01*
X78787701Y-51023256D01*
X78790370Y-51021716D01*
X78790651Y-51022204D01*
X78852312Y-51000202D01*
X78859394Y-51000000D01*
X83600000Y-51000000D01*
X83600000Y-45000002D01*
X91594506Y-45000002D01*
X91614469Y-45368196D01*
X91614470Y-45368213D01*
X91674122Y-45732068D01*
X91674128Y-45732094D01*
X91772768Y-46087365D01*
X91772770Y-46087371D01*
X91909255Y-46429926D01*
X91909261Y-46429938D01*
X92081973Y-46755708D01*
X92081976Y-46755713D01*
X92081978Y-46755716D01*
X92288910Y-47060917D01*
X92527627Y-47341956D01*
X92795330Y-47595538D01*
X93088881Y-47818690D01*
X93404838Y-48008795D01*
X93404840Y-48008796D01*
X93404842Y-48008797D01*
X93404846Y-48008799D01*
X93739486Y-48163620D01*
X93739497Y-48163625D01*
X94088934Y-48281364D01*
X94449052Y-48360632D01*
X94815630Y-48400500D01*
X94815636Y-48400500D01*
X95184364Y-48400500D01*
X95184370Y-48400500D01*
X95550948Y-48360632D01*
X95911066Y-48281364D01*
X96260503Y-48163625D01*
X96595162Y-48008795D01*
X96911119Y-47818690D01*
X97204670Y-47595538D01*
X97472373Y-47341956D01*
X97711090Y-47060917D01*
X97918022Y-46755716D01*
X98090743Y-46429930D01*
X98227227Y-46087379D01*
X98325875Y-45732081D01*
X98385531Y-45368199D01*
X98405494Y-45000000D01*
X98385531Y-44631801D01*
X98325875Y-44267919D01*
X98303748Y-44188226D01*
X98227231Y-43912634D01*
X98227229Y-43912628D01*
X98227228Y-43912627D01*
X98227227Y-43912621D01*
X98090743Y-43570070D01*
X97983015Y-43366874D01*
X97918026Y-43244291D01*
X97918024Y-43244288D01*
X97918022Y-43244284D01*
X97711090Y-42939083D01*
X97472373Y-42658044D01*
X97204670Y-42404462D01*
X96911119Y-42181310D01*
X96595162Y-41991205D01*
X96595161Y-41991204D01*
X96595157Y-41991202D01*
X96595153Y-41991200D01*
X96260513Y-41836379D01*
X96260508Y-41836377D01*
X96260503Y-41836375D01*
X96090172Y-41778983D01*
X95911065Y-41718635D01*
X95550946Y-41639367D01*
X95184371Y-41599500D01*
X95184370Y-41599500D01*
X94815630Y-41599500D01*
X94815628Y-41599500D01*
X94449053Y-41639367D01*
X94088934Y-41718635D01*
X93818812Y-41809650D01*
X93739497Y-41836375D01*
X93739494Y-41836376D01*
X93739486Y-41836379D01*
X93404846Y-41991200D01*
X93404842Y-41991202D01*
X93240172Y-42090281D01*
X93088881Y-42181310D01*
X93002757Y-42246780D01*
X92795330Y-42404461D01*
X92795330Y-42404462D01*
X92527626Y-42658044D01*
X92288909Y-42939083D01*
X92081979Y-43244282D01*
X92081973Y-43244291D01*
X91909261Y-43570061D01*
X91909255Y-43570073D01*
X91772770Y-43912628D01*
X91772768Y-43912634D01*
X91674128Y-44267905D01*
X91674122Y-44267931D01*
X91614470Y-44631786D01*
X91614469Y-44631803D01*
X91594506Y-44999997D01*
X91594506Y-45000002D01*
X83600000Y-45000002D01*
X83600000Y-43500002D01*
X84769196Y-43500002D01*
X84790279Y-43633121D01*
X84790280Y-43633124D01*
X84790281Y-43633126D01*
X84851472Y-43753220D01*
X84851473Y-43753221D01*
X84851476Y-43753225D01*
X84946774Y-43848523D01*
X84946778Y-43848526D01*
X84946780Y-43848528D01*
X85066874Y-43909719D01*
X85066876Y-43909719D01*
X85066878Y-43909720D01*
X85199998Y-43930804D01*
X85200000Y-43930804D01*
X85200002Y-43930804D01*
X85333121Y-43909720D01*
X85333121Y-43909719D01*
X85333126Y-43909719D01*
X85453220Y-43848528D01*
X85548528Y-43753220D01*
X85609719Y-43633126D01*
X85619706Y-43570070D01*
X85630804Y-43500002D01*
X85630804Y-43499997D01*
X85609720Y-43366878D01*
X85609719Y-43366876D01*
X85609719Y-43366874D01*
X85548528Y-43246780D01*
X85548526Y-43246778D01*
X85548523Y-43246774D01*
X85453225Y-43151476D01*
X85453221Y-43151473D01*
X85453220Y-43151472D01*
X85333126Y-43090281D01*
X85333124Y-43090280D01*
X85333121Y-43090279D01*
X85200002Y-43069196D01*
X85199998Y-43069196D01*
X85066878Y-43090279D01*
X84946778Y-43151473D01*
X84946774Y-43151476D01*
X84851476Y-43246774D01*
X84851473Y-43246778D01*
X84790279Y-43366878D01*
X84769196Y-43499997D01*
X84769196Y-43500002D01*
X83600000Y-43500002D01*
X83600000Y-40124000D01*
X83619685Y-40056961D01*
X83672489Y-40011206D01*
X83724000Y-40000000D01*
X94999290Y-40000000D01*
X95000641Y-40000006D01*
G37*
%TD.AperFunction*%
%TD*%
%TA.AperFunction,Conductor*%
%TO.N,+12V*%
G36*
X83337539Y-40019685D02*
G01*
X83383294Y-40072489D01*
X83394500Y-40124000D01*
X83394500Y-50670500D01*
X83374815Y-50737539D01*
X83322011Y-50783294D01*
X83270500Y-50794500D01*
X79270490Y-50794500D01*
X79203451Y-50774815D01*
X79157696Y-50722011D01*
X79147752Y-50652853D01*
X79163103Y-50608500D01*
X79169129Y-50598061D01*
X79169130Y-50598059D01*
X79169131Y-50598058D01*
X79229178Y-50413252D01*
X79249490Y-50220000D01*
X79229178Y-50026748D01*
X79169131Y-49841942D01*
X79138078Y-49788157D01*
X79131785Y-49777257D01*
X79071973Y-49673658D01*
X79021046Y-49617098D01*
X78941955Y-49529257D01*
X78941952Y-49529255D01*
X78941951Y-49529254D01*
X78941950Y-49529253D01*
X78863347Y-49472144D01*
X78784742Y-49415034D01*
X78648455Y-49354356D01*
X78607227Y-49336001D01*
X78607225Y-49336000D01*
X78417156Y-49295600D01*
X78222840Y-49295600D01*
X78032771Y-49336000D01*
X77855253Y-49415034D01*
X77698043Y-49529255D01*
X77698040Y-49529257D01*
X77568022Y-49673659D01*
X77470866Y-49841938D01*
X77470865Y-49841940D01*
X77410819Y-50026743D01*
X77410818Y-50026745D01*
X77390506Y-50220000D01*
X77410818Y-50413254D01*
X77410819Y-50413256D01*
X77470865Y-50598059D01*
X77470866Y-50598061D01*
X77476893Y-50608500D01*
X77493366Y-50676400D01*
X77470513Y-50742427D01*
X77415592Y-50785618D01*
X77369506Y-50794500D01*
X76500490Y-50794500D01*
X76433451Y-50774815D01*
X76387696Y-50722011D01*
X76377752Y-50652853D01*
X76393103Y-50608500D01*
X76399129Y-50598061D01*
X76399130Y-50598059D01*
X76399131Y-50598058D01*
X76459178Y-50413252D01*
X76479490Y-50220000D01*
X76459178Y-50026748D01*
X76399131Y-49841942D01*
X76368078Y-49788157D01*
X76361785Y-49777257D01*
X76301973Y-49673658D01*
X76251046Y-49617098D01*
X76171955Y-49529257D01*
X76171952Y-49529255D01*
X76171951Y-49529254D01*
X76171950Y-49529253D01*
X76093347Y-49472144D01*
X76014742Y-49415034D01*
X75878455Y-49354356D01*
X75837227Y-49336001D01*
X75837225Y-49336000D01*
X75647156Y-49295600D01*
X75452840Y-49295600D01*
X75262771Y-49336000D01*
X75085253Y-49415034D01*
X74928043Y-49529255D01*
X74928040Y-49529257D01*
X74798022Y-49673659D01*
X74700866Y-49841938D01*
X74700865Y-49841940D01*
X74640819Y-50026743D01*
X74640818Y-50026745D01*
X74620506Y-50220000D01*
X74640818Y-50413254D01*
X74640819Y-50413256D01*
X74700865Y-50598059D01*
X74700866Y-50598061D01*
X74706893Y-50608500D01*
X74723366Y-50676400D01*
X74700513Y-50742427D01*
X74645592Y-50785618D01*
X74599506Y-50794500D01*
X73730491Y-50794500D01*
X73663452Y-50774815D01*
X73617697Y-50722011D01*
X73607753Y-50652853D01*
X73623104Y-50608500D01*
X73629130Y-50598061D01*
X73629131Y-50598059D01*
X73629132Y-50598058D01*
X73689179Y-50413252D01*
X73709491Y-50220000D01*
X73689179Y-50026748D01*
X73629132Y-49841942D01*
X73598079Y-49788157D01*
X73591786Y-49777257D01*
X73531974Y-49673658D01*
X73481047Y-49617098D01*
X73401956Y-49529257D01*
X73401953Y-49529255D01*
X73401952Y-49529254D01*
X73401951Y-49529253D01*
X73323348Y-49472144D01*
X73244743Y-49415034D01*
X73108456Y-49354356D01*
X73067228Y-49336001D01*
X73067226Y-49336000D01*
X72877157Y-49295600D01*
X72682841Y-49295600D01*
X72492772Y-49336000D01*
X72315254Y-49415034D01*
X72158044Y-49529255D01*
X72158041Y-49529257D01*
X72028023Y-49673659D01*
X71930867Y-49841938D01*
X71930866Y-49841940D01*
X71870820Y-50026743D01*
X71870819Y-50026745D01*
X71850507Y-50220000D01*
X71870819Y-50413254D01*
X71870820Y-50413256D01*
X71930866Y-50598059D01*
X71930867Y-50598061D01*
X71936894Y-50608500D01*
X71953367Y-50676400D01*
X71930514Y-50742427D01*
X71875593Y-50785618D01*
X71829507Y-50794500D01*
X70960491Y-50794500D01*
X70893452Y-50774815D01*
X70847697Y-50722011D01*
X70837753Y-50652853D01*
X70853104Y-50608500D01*
X70859130Y-50598061D01*
X70859131Y-50598059D01*
X70859132Y-50598058D01*
X70919179Y-50413252D01*
X70939491Y-50220000D01*
X70919179Y-50026748D01*
X70859132Y-49841942D01*
X70828079Y-49788157D01*
X70821786Y-49777257D01*
X70761974Y-49673658D01*
X70711047Y-49617098D01*
X70631956Y-49529257D01*
X70631953Y-49529255D01*
X70631952Y-49529254D01*
X70631951Y-49529253D01*
X70553348Y-49472144D01*
X70474743Y-49415034D01*
X70338456Y-49354356D01*
X70297228Y-49336001D01*
X70297226Y-49336000D01*
X70107157Y-49295600D01*
X69912841Y-49295600D01*
X69722772Y-49336000D01*
X69545254Y-49415034D01*
X69388044Y-49529255D01*
X69388041Y-49529257D01*
X69258023Y-49673659D01*
X69160867Y-49841938D01*
X69160866Y-49841940D01*
X69100820Y-50026743D01*
X69100819Y-50026745D01*
X69080507Y-50220000D01*
X69100819Y-50413254D01*
X69100820Y-50413256D01*
X69160866Y-50598059D01*
X69160867Y-50598061D01*
X69166894Y-50608500D01*
X69183367Y-50676400D01*
X69160514Y-50742427D01*
X69105593Y-50785618D01*
X69059507Y-50794500D01*
X68190491Y-50794500D01*
X68123452Y-50774815D01*
X68077697Y-50722011D01*
X68067753Y-50652853D01*
X68083104Y-50608500D01*
X68089130Y-50598061D01*
X68089131Y-50598059D01*
X68089132Y-50598058D01*
X68149179Y-50413252D01*
X68169491Y-50220000D01*
X68149179Y-50026748D01*
X68089132Y-49841942D01*
X68058079Y-49788157D01*
X68051786Y-49777257D01*
X67991974Y-49673658D01*
X67941047Y-49617098D01*
X67861956Y-49529257D01*
X67861953Y-49529255D01*
X67861952Y-49529254D01*
X67861951Y-49529253D01*
X67783348Y-49472144D01*
X67704743Y-49415034D01*
X67568456Y-49354356D01*
X67527228Y-49336001D01*
X67527226Y-49336000D01*
X67337157Y-49295600D01*
X67142841Y-49295600D01*
X66952772Y-49336000D01*
X66775254Y-49415034D01*
X66618044Y-49529255D01*
X66618041Y-49529257D01*
X66488023Y-49673659D01*
X66390867Y-49841938D01*
X66390866Y-49841940D01*
X66330820Y-50026743D01*
X66330819Y-50026745D01*
X66310507Y-50220000D01*
X66330819Y-50413254D01*
X66330820Y-50413256D01*
X66390866Y-50598059D01*
X66390867Y-50598061D01*
X66396894Y-50608500D01*
X66413367Y-50676400D01*
X66390514Y-50742427D01*
X66335593Y-50785618D01*
X66289507Y-50794500D01*
X65009369Y-50794500D01*
X65003587Y-50794582D01*
X64996454Y-50794786D01*
X64933260Y-50806651D01*
X64933244Y-50806656D01*
X64892681Y-50821130D01*
X64886531Y-50821481D01*
X64870002Y-50828841D01*
X64861242Y-50832348D01*
X64845757Y-50837873D01*
X64845058Y-50838658D01*
X64829960Y-50846669D01*
X64705277Y-50902181D01*
X64680623Y-50910191D01*
X64558309Y-50936190D01*
X64532528Y-50938900D01*
X64407471Y-50938900D01*
X64381690Y-50936190D01*
X64259375Y-50910191D01*
X64234721Y-50902181D01*
X64056160Y-50822681D01*
X64055923Y-50822622D01*
X63988509Y-50802826D01*
X63987860Y-50802732D01*
X63930604Y-50794500D01*
X62239396Y-50794500D01*
X62239369Y-50794500D01*
X62233587Y-50794582D01*
X62226454Y-50794786D01*
X62163260Y-50806651D01*
X62163244Y-50806656D01*
X62122681Y-50821130D01*
X62116531Y-50821481D01*
X62100002Y-50828841D01*
X62091242Y-50832348D01*
X62075757Y-50837873D01*
X62075058Y-50838658D01*
X62059960Y-50846669D01*
X61935277Y-50902181D01*
X61910623Y-50910191D01*
X61788309Y-50936190D01*
X61762528Y-50938900D01*
X61637471Y-50938900D01*
X61611690Y-50936190D01*
X61489375Y-50910191D01*
X61464721Y-50902181D01*
X61286160Y-50822681D01*
X61285923Y-50822622D01*
X61218509Y-50802826D01*
X61217860Y-50802732D01*
X61160604Y-50794500D01*
X55256099Y-50794500D01*
X55255405Y-50794520D01*
X55243895Y-50794863D01*
X55229156Y-50795741D01*
X55160481Y-50811969D01*
X55140151Y-50820675D01*
X55070775Y-50828969D01*
X55007929Y-50798438D01*
X54983957Y-50768690D01*
X54892102Y-50609592D01*
X54892101Y-50609590D01*
X54744415Y-50417123D01*
X54744409Y-50417116D01*
X54572874Y-50245581D01*
X54572867Y-50245575D01*
X54380398Y-50097888D01*
X54170302Y-49976589D01*
X54170292Y-49976585D01*
X53946165Y-49883748D01*
X53820585Y-49850099D01*
X53711827Y-49820958D01*
X53711821Y-49820957D01*
X53711816Y-49820956D01*
X53471309Y-49789293D01*
X53471306Y-49789292D01*
X53471300Y-49789292D01*
X53228698Y-49789292D01*
X53228692Y-49789292D01*
X53228688Y-49789293D01*
X52988181Y-49820956D01*
X52988174Y-49820957D01*
X52988171Y-49820958D01*
X52942202Y-49833275D01*
X52753832Y-49883748D01*
X52529705Y-49976585D01*
X52529695Y-49976589D01*
X52319599Y-50097888D01*
X52127130Y-50245575D01*
X52127123Y-50245581D01*
X51955588Y-50417116D01*
X51955582Y-50417123D01*
X51807895Y-50609593D01*
X51716891Y-50767216D01*
X51666324Y-50815432D01*
X51597717Y-50828654D01*
X51574568Y-50824193D01*
X51501804Y-50802826D01*
X51501155Y-50802732D01*
X51443899Y-50794500D01*
X51443895Y-50794500D01*
X48178891Y-50794500D01*
X48111852Y-50774815D01*
X48066097Y-50722011D01*
X48056153Y-50652853D01*
X48068404Y-50614210D01*
X48109719Y-50533126D01*
X48109720Y-50533121D01*
X48130804Y-50400002D01*
X48130804Y-50399997D01*
X48109720Y-50266878D01*
X48109719Y-50266876D01*
X48109719Y-50266874D01*
X48048528Y-50146780D01*
X48048526Y-50146778D01*
X48048523Y-50146774D01*
X47953225Y-50051476D01*
X47953221Y-50051473D01*
X47953220Y-50051472D01*
X47833126Y-49990281D01*
X47833124Y-49990280D01*
X47833121Y-49990279D01*
X47700002Y-49969196D01*
X47699998Y-49969196D01*
X47566878Y-49990279D01*
X47446778Y-50051473D01*
X47446774Y-50051476D01*
X47351476Y-50146774D01*
X47351473Y-50146778D01*
X47290279Y-50266878D01*
X47269196Y-50399997D01*
X47269196Y-50400002D01*
X47290279Y-50533121D01*
X47290280Y-50533124D01*
X47290281Y-50533126D01*
X47331594Y-50614208D01*
X47344490Y-50682874D01*
X47318214Y-50747615D01*
X47261108Y-50787872D01*
X47221109Y-50794500D01*
X47024531Y-50794500D01*
X46980415Y-50799290D01*
X46980410Y-50799291D01*
X46928421Y-50810717D01*
X46917834Y-50813340D01*
X46917826Y-50813343D01*
X46837304Y-50856695D01*
X46837302Y-50856697D01*
X46784694Y-50902677D01*
X46784686Y-50902684D01*
X46784677Y-50902693D01*
X46766817Y-50920341D01*
X46766813Y-50920347D01*
X46722509Y-51000351D01*
X46703110Y-51067477D01*
X46695034Y-51125401D01*
X46695033Y-51125406D01*
X46715865Y-55999992D01*
X46715869Y-56000890D01*
X46715869Y-56000912D01*
X46718885Y-56706696D01*
X46718885Y-56706707D01*
X46721720Y-56739849D01*
X46721723Y-56739872D01*
X46728345Y-56779305D01*
X46728349Y-56779318D01*
X46763045Y-56863679D01*
X46788648Y-56899998D01*
X46788647Y-56899998D01*
X46803302Y-56920786D01*
X46819016Y-56940408D01*
X46869234Y-56975504D01*
X46873013Y-56978145D01*
X46916687Y-57032683D01*
X46925979Y-57079253D01*
X46926907Y-57296435D01*
X46907509Y-57363558D01*
X46869843Y-57398574D01*
X46871003Y-57400248D01*
X46865283Y-57404211D01*
X46828765Y-57436128D01*
X46812674Y-57450193D01*
X46812666Y-57450200D01*
X46812657Y-57450209D01*
X46794794Y-57467860D01*
X46750488Y-57547868D01*
X46736738Y-57595448D01*
X46736734Y-57595463D01*
X46731091Y-57614991D01*
X46731089Y-57614997D01*
X46726211Y-57649995D01*
X46726211Y-57649999D01*
X46723014Y-57672919D01*
X46727350Y-58687471D01*
X46728686Y-58999998D01*
X46728690Y-59000880D01*
X46732023Y-59780926D01*
X46732105Y-59799992D01*
X46732109Y-59800890D01*
X46732109Y-59800912D01*
X46735096Y-60499992D01*
X46735100Y-60500890D01*
X46735100Y-60500912D01*
X46736433Y-60812880D01*
X46737233Y-60999998D01*
X46738701Y-61343650D01*
X46738818Y-61370911D01*
X46738822Y-61371809D01*
X46738822Y-61371831D01*
X46742361Y-62199992D01*
X46742365Y-62200890D01*
X46742365Y-62200912D01*
X46744070Y-62599998D01*
X46747061Y-63299992D01*
X46747065Y-63300890D01*
X46747065Y-63300912D01*
X46749198Y-63799992D01*
X46749202Y-63800890D01*
X46749202Y-63800912D01*
X46752617Y-64599992D01*
X46752621Y-64600890D01*
X46752621Y-64600912D01*
X46756890Y-65599992D01*
X46756894Y-65600890D01*
X46756894Y-65600912D01*
X46761805Y-66749992D01*
X46761809Y-66750890D01*
X46761809Y-66750912D01*
X46763087Y-67049998D01*
X46764583Y-67399992D01*
X46764587Y-67400890D01*
X46764587Y-67400912D01*
X46767574Y-68099992D01*
X46767578Y-68100890D01*
X46767578Y-68100912D01*
X46772488Y-69249992D01*
X46772492Y-69250890D01*
X46772492Y-69250912D01*
X46777959Y-70529998D01*
X46779540Y-70899998D01*
X46781249Y-71299992D01*
X46781253Y-71300890D01*
X46781253Y-71300912D01*
X46784241Y-71999992D01*
X46784245Y-72000890D01*
X46784245Y-72000912D01*
X46786513Y-72531583D01*
X46788515Y-72999992D01*
X46788519Y-73000890D01*
X46788519Y-73000912D01*
X46793995Y-74282462D01*
X46774597Y-74349585D01*
X46721989Y-74395565D01*
X46672634Y-74406964D01*
X42299999Y-74500000D01*
X42799999Y-86699999D01*
X42799999Y-86699998D01*
X42800000Y-86700000D01*
X61155112Y-86518266D01*
X61222343Y-86537286D01*
X61268619Y-86589634D01*
X61279247Y-86658691D01*
X61250852Y-86722531D01*
X61214794Y-86751618D01*
X61191464Y-86764088D01*
X61191460Y-86764090D01*
X61039116Y-86889116D01*
X60914090Y-87041460D01*
X60914086Y-87041467D01*
X60821188Y-87215266D01*
X60763975Y-87403870D01*
X60744659Y-87600000D01*
X60763975Y-87796129D01*
X60821188Y-87984733D01*
X60914086Y-88158532D01*
X60914090Y-88158539D01*
X61039116Y-88310883D01*
X61191460Y-88435909D01*
X61191467Y-88435913D01*
X61365266Y-88528811D01*
X61365269Y-88528811D01*
X61365273Y-88528814D01*
X61553868Y-88586024D01*
X61750000Y-88605341D01*
X61946132Y-88586024D01*
X62134727Y-88528814D01*
X62308538Y-88435910D01*
X62460883Y-88310883D01*
X62585910Y-88158538D01*
X62678814Y-87984727D01*
X62736024Y-87796132D01*
X62755341Y-87600000D01*
X62736024Y-87403868D01*
X62678814Y-87215273D01*
X62678811Y-87215269D01*
X62678811Y-87215266D01*
X62585913Y-87041467D01*
X62585909Y-87041460D01*
X62460883Y-86889116D01*
X62308539Y-86764090D01*
X62308532Y-86764085D01*
X62263613Y-86740076D01*
X62213768Y-86691114D01*
X62198308Y-86622976D01*
X62222140Y-86557296D01*
X62277698Y-86514927D01*
X62320835Y-86506724D01*
X62878876Y-86501199D01*
X62946107Y-86520219D01*
X62992383Y-86572567D01*
X63004035Y-86621062D01*
X63088879Y-89166369D01*
X63071439Y-89234027D01*
X63020189Y-89281516D01*
X62964948Y-89294500D01*
X60865355Y-89294500D01*
X60864899Y-89294511D01*
X60855310Y-89294745D01*
X60845716Y-89295213D01*
X60835672Y-89295949D01*
X60656251Y-89313511D01*
X60656220Y-89313515D01*
X60656215Y-89313516D01*
X60653055Y-89313982D01*
X60636380Y-89316440D01*
X60636368Y-89316442D01*
X60617466Y-89320180D01*
X60607915Y-89322557D01*
X60598026Y-89325019D01*
X60598023Y-89325020D01*
X60430027Y-89375652D01*
X60429994Y-89375663D01*
X60411134Y-89382368D01*
X60411124Y-89382371D01*
X60411113Y-89382376D01*
X60405949Y-89384501D01*
X60393295Y-89389707D01*
X60375150Y-89398229D01*
X60220170Y-89480477D01*
X60220158Y-89480483D01*
X60220148Y-89480489D01*
X60220140Y-89480493D01*
X60220127Y-89480501D01*
X60216657Y-89482566D01*
X60153256Y-89500000D01*
X59869999Y-89500000D01*
X59867301Y-89783241D01*
X59849280Y-89846448D01*
X59847157Y-89849941D01*
X59847147Y-89849957D01*
X59763431Y-90004142D01*
X59763409Y-90004185D01*
X59754731Y-90022213D01*
X59747222Y-90039982D01*
X59740327Y-90058811D01*
X59688092Y-90226332D01*
X59683078Y-90245687D01*
X59683071Y-90245721D01*
X59679155Y-90264577D01*
X59679151Y-90264600D01*
X59676036Y-90284419D01*
X59676034Y-90284427D01*
X59656760Y-90463700D01*
X59655931Y-90473697D01*
X59655368Y-90483354D01*
X59655029Y-90493329D01*
X59627842Y-93348021D01*
X59627842Y-93348038D01*
X59627823Y-93350005D01*
X59574169Y-98983607D01*
X59574170Y-98983643D01*
X59574325Y-98993797D01*
X59574325Y-98993819D01*
X59574326Y-98993826D01*
X59574713Y-99003531D01*
X59575366Y-99013641D01*
X59591635Y-99195454D01*
X59594439Y-99215552D01*
X59598084Y-99234716D01*
X59602854Y-99254432D01*
X59653094Y-99424786D01*
X59653103Y-99424813D01*
X59659792Y-99443958D01*
X59659795Y-99443967D01*
X59667125Y-99462024D01*
X59667129Y-99462034D01*
X59667132Y-99462040D01*
X59675679Y-99480433D01*
X59758378Y-99637620D01*
X59758387Y-99637636D01*
X59758630Y-99638097D01*
X59772885Y-99697014D01*
X59771169Y-99877181D01*
X59750847Y-99944030D01*
X59697610Y-99989280D01*
X59647175Y-100000000D01*
X45000710Y-100000000D01*
X44999359Y-99999993D01*
X44994454Y-99999939D01*
X44786527Y-99997671D01*
X44777073Y-99997206D01*
X44352450Y-99960056D01*
X44341725Y-99958644D01*
X43922623Y-99884746D01*
X43912061Y-99882405D01*
X43500980Y-99772256D01*
X43490664Y-99769003D01*
X43292875Y-99697014D01*
X43090756Y-99623448D01*
X43080764Y-99619310D01*
X42695062Y-99439454D01*
X42685467Y-99434459D01*
X42316916Y-99221676D01*
X42307792Y-99215864D01*
X41959179Y-98971762D01*
X41950597Y-98965177D01*
X41624579Y-98691616D01*
X41616604Y-98684307D01*
X41315692Y-98383395D01*
X41308383Y-98375420D01*
X41295974Y-98360632D01*
X41034821Y-98049401D01*
X41028237Y-98040820D01*
X40784135Y-97692207D01*
X40778323Y-97683083D01*
X40727778Y-97595537D01*
X40565538Y-97314528D01*
X40560545Y-97304937D01*
X40380683Y-96919221D01*
X40376555Y-96909255D01*
X40230992Y-96509322D01*
X40227747Y-96499033D01*
X40117590Y-96087921D01*
X40115256Y-96077393D01*
X40041354Y-95658270D01*
X40039943Y-95647549D01*
X40002793Y-95222926D01*
X40002328Y-95213471D01*
X40000007Y-95000641D01*
X40000004Y-95000002D01*
X41594506Y-95000002D01*
X41614469Y-95368196D01*
X41614470Y-95368213D01*
X41674122Y-95732068D01*
X41674128Y-95732094D01*
X41772768Y-96087365D01*
X41772770Y-96087371D01*
X41772772Y-96087377D01*
X41772773Y-96087379D01*
X41790714Y-96132407D01*
X41909255Y-96429926D01*
X41909261Y-96429938D01*
X42081973Y-96755708D01*
X42081976Y-96755713D01*
X42081978Y-96755716D01*
X42112005Y-96800002D01*
X42288909Y-97060916D01*
X42433214Y-97230804D01*
X42527627Y-97341956D01*
X42795330Y-97595538D01*
X43088881Y-97818690D01*
X43404838Y-98008795D01*
X43404840Y-98008796D01*
X43404842Y-98008797D01*
X43404846Y-98008799D01*
X43492606Y-98049401D01*
X43739497Y-98163625D01*
X44088934Y-98281364D01*
X44449052Y-98360632D01*
X44815630Y-98400500D01*
X44815636Y-98400500D01*
X45184364Y-98400500D01*
X45184370Y-98400500D01*
X45550948Y-98360632D01*
X45911066Y-98281364D01*
X46260503Y-98163625D01*
X46595162Y-98008795D01*
X46911119Y-97818690D01*
X47204670Y-97595538D01*
X47472373Y-97341956D01*
X47711090Y-97060917D01*
X47887995Y-96800002D01*
X51269196Y-96800002D01*
X51290279Y-96933121D01*
X51290280Y-96933124D01*
X51290281Y-96933126D01*
X51351472Y-97053220D01*
X51351473Y-97053221D01*
X51351476Y-97053225D01*
X51446774Y-97148523D01*
X51446778Y-97148526D01*
X51446780Y-97148528D01*
X51566874Y-97209719D01*
X51566876Y-97209719D01*
X51566878Y-97209720D01*
X51699998Y-97230804D01*
X51700000Y-97230804D01*
X51700002Y-97230804D01*
X51833121Y-97209720D01*
X51833121Y-97209719D01*
X51833126Y-97209719D01*
X51953220Y-97148528D01*
X52048528Y-97053220D01*
X52109719Y-96933126D01*
X52109720Y-96933121D01*
X52130804Y-96800002D01*
X52130804Y-96799997D01*
X52109720Y-96666878D01*
X52109719Y-96666876D01*
X52109719Y-96666874D01*
X52048528Y-96546780D01*
X52048526Y-96546778D01*
X52048523Y-96546774D01*
X51953225Y-96451476D01*
X51953221Y-96451473D01*
X51953220Y-96451472D01*
X51833126Y-96390281D01*
X51833124Y-96390280D01*
X51833121Y-96390279D01*
X51700002Y-96369196D01*
X51699998Y-96369196D01*
X51566878Y-96390279D01*
X51446778Y-96451473D01*
X51446774Y-96451476D01*
X51351476Y-96546774D01*
X51351473Y-96546778D01*
X51290279Y-96666878D01*
X51269196Y-96799997D01*
X51269196Y-96800002D01*
X47887995Y-96800002D01*
X47918022Y-96755716D01*
X48090743Y-96429930D01*
X48227227Y-96087379D01*
X48325875Y-95732081D01*
X48385531Y-95368199D01*
X48405494Y-95000000D01*
X48405455Y-94999289D01*
X48398999Y-94880202D01*
X48385531Y-94631801D01*
X48325875Y-94267919D01*
X48227227Y-93912621D01*
X48090743Y-93570070D01*
X47918022Y-93244284D01*
X47711090Y-92939083D01*
X47472373Y-92658044D01*
X47305530Y-92500002D01*
X50769196Y-92500002D01*
X50790279Y-92633121D01*
X50790280Y-92633124D01*
X50790281Y-92633126D01*
X50851472Y-92753220D01*
X50851473Y-92753221D01*
X50851476Y-92753225D01*
X50946774Y-92848523D01*
X50946778Y-92848526D01*
X50946780Y-92848528D01*
X51066874Y-92909719D01*
X51066876Y-92909719D01*
X51066878Y-92909720D01*
X51199998Y-92930804D01*
X51200000Y-92930804D01*
X51200002Y-92930804D01*
X51333121Y-92909720D01*
X51333121Y-92909719D01*
X51333126Y-92909719D01*
X51453220Y-92848528D01*
X51548528Y-92753220D01*
X51609719Y-92633126D01*
X51630804Y-92500000D01*
X51615672Y-92404462D01*
X51609720Y-92366878D01*
X51609719Y-92366876D01*
X51609719Y-92366874D01*
X51548528Y-92246780D01*
X51548526Y-92246778D01*
X51548523Y-92246774D01*
X51453225Y-92151476D01*
X51453221Y-92151473D01*
X51453220Y-92151472D01*
X51333126Y-92090281D01*
X51333124Y-92090280D01*
X51333121Y-92090279D01*
X51200002Y-92069196D01*
X51199998Y-92069196D01*
X51066878Y-92090279D01*
X50946778Y-92151473D01*
X50946774Y-92151476D01*
X50851476Y-92246774D01*
X50851473Y-92246778D01*
X50790279Y-92366878D01*
X50769196Y-92499997D01*
X50769196Y-92500002D01*
X47305530Y-92500002D01*
X47204670Y-92404462D01*
X46911119Y-92181310D01*
X46595162Y-91991205D01*
X46595161Y-91991204D01*
X46595157Y-91991202D01*
X46595153Y-91991200D01*
X46260513Y-91836379D01*
X46260508Y-91836377D01*
X46260503Y-91836375D01*
X46090172Y-91778983D01*
X45911065Y-91718635D01*
X45550946Y-91639367D01*
X45184371Y-91599500D01*
X45184370Y-91599500D01*
X44815630Y-91599500D01*
X44815628Y-91599500D01*
X44449053Y-91639367D01*
X44088934Y-91718635D01*
X43832615Y-91805000D01*
X43739497Y-91836375D01*
X43739494Y-91836376D01*
X43739486Y-91836379D01*
X43404846Y-91991200D01*
X43404842Y-91991202D01*
X43240172Y-92090281D01*
X43088881Y-92181310D01*
X43002757Y-92246780D01*
X42795330Y-92404461D01*
X42795330Y-92404462D01*
X42527626Y-92658044D01*
X42288909Y-92939083D01*
X42081979Y-93244282D01*
X42081973Y-93244291D01*
X41909261Y-93570061D01*
X41909255Y-93570073D01*
X41772770Y-93912628D01*
X41772768Y-93912634D01*
X41674128Y-94267905D01*
X41674122Y-94267931D01*
X41614470Y-94631786D01*
X41614469Y-94631799D01*
X41614469Y-94631801D01*
X41610771Y-94700000D01*
X41594506Y-94999997D01*
X41594506Y-95000002D01*
X40000004Y-95000002D01*
X40000000Y-94999289D01*
X40000000Y-90900002D01*
X54069196Y-90900002D01*
X54090279Y-91033121D01*
X54090280Y-91033124D01*
X54090281Y-91033126D01*
X54151472Y-91153220D01*
X54151473Y-91153221D01*
X54151476Y-91153225D01*
X54246774Y-91248523D01*
X54246778Y-91248526D01*
X54246780Y-91248528D01*
X54366874Y-91309719D01*
X54366876Y-91309719D01*
X54366878Y-91309720D01*
X54499998Y-91330804D01*
X54500000Y-91330804D01*
X54500002Y-91330804D01*
X54633121Y-91309720D01*
X54633121Y-91309719D01*
X54633126Y-91309719D01*
X54753220Y-91248528D01*
X54848528Y-91153220D01*
X54909719Y-91033126D01*
X54930804Y-90900000D01*
X54909719Y-90766874D01*
X54848528Y-90646780D01*
X54848526Y-90646778D01*
X54848523Y-90646774D01*
X54753225Y-90551476D01*
X54753221Y-90551473D01*
X54753220Y-90551472D01*
X54633126Y-90490281D01*
X54633124Y-90490280D01*
X54633121Y-90490279D01*
X54500002Y-90469196D01*
X54499998Y-90469196D01*
X54366878Y-90490279D01*
X54246778Y-90551473D01*
X54246774Y-90551476D01*
X54151476Y-90646774D01*
X54151473Y-90646778D01*
X54090279Y-90766878D01*
X54069196Y-90899997D01*
X54069196Y-90900002D01*
X40000000Y-90900002D01*
X40000000Y-90100002D01*
X49269196Y-90100002D01*
X49290279Y-90233121D01*
X49290280Y-90233124D01*
X49290281Y-90233126D01*
X49351472Y-90353220D01*
X49351473Y-90353221D01*
X49351476Y-90353225D01*
X49446774Y-90448523D01*
X49446778Y-90448526D01*
X49446780Y-90448528D01*
X49566874Y-90509719D01*
X49566876Y-90509719D01*
X49566878Y-90509720D01*
X49699998Y-90530804D01*
X49700000Y-90530804D01*
X49700002Y-90530804D01*
X49833121Y-90509720D01*
X49833121Y-90509719D01*
X49833126Y-90509719D01*
X49953220Y-90448528D01*
X50048528Y-90353220D01*
X50109719Y-90233126D01*
X50130804Y-90100000D01*
X50124280Y-90058811D01*
X50109720Y-89966878D01*
X50109719Y-89966876D01*
X50109719Y-89966874D01*
X50048528Y-89846780D01*
X50048526Y-89846778D01*
X50048523Y-89846774D01*
X49953225Y-89751476D01*
X49953221Y-89751473D01*
X49953220Y-89751472D01*
X49833126Y-89690281D01*
X49833124Y-89690280D01*
X49833121Y-89690279D01*
X49700002Y-89669196D01*
X49699998Y-89669196D01*
X49566878Y-89690279D01*
X49446778Y-89751473D01*
X49446774Y-89751476D01*
X49351476Y-89846774D01*
X49351473Y-89846778D01*
X49290279Y-89966878D01*
X49269196Y-90099997D01*
X49269196Y-90100002D01*
X40000000Y-90100002D01*
X40000000Y-71754269D01*
X42924500Y-71754269D01*
X42927353Y-71784699D01*
X42927353Y-71784701D01*
X42972206Y-71912880D01*
X42972207Y-71912882D01*
X43052850Y-72022150D01*
X43162118Y-72102793D01*
X43204845Y-72117744D01*
X43290299Y-72147646D01*
X43320730Y-72150500D01*
X43320734Y-72150500D01*
X44879270Y-72150500D01*
X44909699Y-72147646D01*
X44909701Y-72147646D01*
X44973790Y-72125219D01*
X45037882Y-72102793D01*
X45147150Y-72022150D01*
X45227793Y-71912882D01*
X45250219Y-71848790D01*
X45272646Y-71784701D01*
X45272646Y-71784699D01*
X45275500Y-71754269D01*
X45275500Y-70445730D01*
X45272646Y-70415300D01*
X45272646Y-70415298D01*
X45227793Y-70287119D01*
X45227792Y-70287117D01*
X45147150Y-70177850D01*
X45037882Y-70097207D01*
X45037880Y-70097206D01*
X44909700Y-70052353D01*
X44879270Y-70049500D01*
X44879266Y-70049500D01*
X43320734Y-70049500D01*
X43320730Y-70049500D01*
X43290300Y-70052353D01*
X43290298Y-70052353D01*
X43162119Y-70097206D01*
X43162117Y-70097207D01*
X43052850Y-70177850D01*
X42972207Y-70287117D01*
X42972206Y-70287119D01*
X42927353Y-70415298D01*
X42927353Y-70415300D01*
X42924500Y-70445730D01*
X42924500Y-71754269D01*
X40000000Y-71754269D01*
X40000000Y-66203469D01*
X42924500Y-66203469D01*
X42964868Y-66406412D01*
X42964870Y-66406420D01*
X43044058Y-66597596D01*
X43159024Y-66769657D01*
X43305342Y-66915975D01*
X43305345Y-66915977D01*
X43477402Y-67030941D01*
X43668580Y-67110130D01*
X43871530Y-67150499D01*
X43871534Y-67150500D01*
X43871535Y-67150500D01*
X44328466Y-67150500D01*
X44328467Y-67150499D01*
X44531420Y-67110130D01*
X44722598Y-67030941D01*
X44894655Y-66915977D01*
X45040977Y-66769655D01*
X45155941Y-66597598D01*
X45235130Y-66406420D01*
X45275500Y-66203465D01*
X45275500Y-65996535D01*
X45235130Y-65793580D01*
X45155941Y-65602402D01*
X45040977Y-65430345D01*
X45040975Y-65430342D01*
X44894657Y-65284024D01*
X44808626Y-65226541D01*
X44722598Y-65169059D01*
X44531420Y-65089870D01*
X44531412Y-65089868D01*
X44328469Y-65049500D01*
X44328465Y-65049500D01*
X43871535Y-65049500D01*
X43871530Y-65049500D01*
X43668587Y-65089868D01*
X43668579Y-65089870D01*
X43477403Y-65169058D01*
X43305342Y-65284024D01*
X43159024Y-65430342D01*
X43044058Y-65602403D01*
X42964870Y-65793579D01*
X42964868Y-65793587D01*
X42924500Y-65996530D01*
X42924500Y-66203469D01*
X40000000Y-66203469D01*
X40000000Y-60654269D01*
X42924500Y-60654269D01*
X42927353Y-60684699D01*
X42927353Y-60684701D01*
X42972206Y-60812880D01*
X42972207Y-60812882D01*
X43052850Y-60922150D01*
X43162118Y-61002793D01*
X43204845Y-61017744D01*
X43290299Y-61047646D01*
X43320730Y-61050500D01*
X43320734Y-61050500D01*
X44879270Y-61050500D01*
X44909699Y-61047646D01*
X44909701Y-61047646D01*
X44973790Y-61025219D01*
X45037882Y-61002793D01*
X45147150Y-60922150D01*
X45227793Y-60812882D01*
X45250219Y-60748790D01*
X45272646Y-60684701D01*
X45272646Y-60684699D01*
X45275500Y-60654269D01*
X45275500Y-59345730D01*
X45272646Y-59315300D01*
X45272646Y-59315298D01*
X45227793Y-59187119D01*
X45227792Y-59187117D01*
X45147150Y-59077850D01*
X45037882Y-58997207D01*
X45037880Y-58997206D01*
X44909700Y-58952353D01*
X44879270Y-58949500D01*
X44879266Y-58949500D01*
X43320734Y-58949500D01*
X43320730Y-58949500D01*
X43290300Y-58952353D01*
X43290298Y-58952353D01*
X43162119Y-58997206D01*
X43162117Y-58997207D01*
X43052850Y-59077850D01*
X42972207Y-59187117D01*
X42972206Y-59187119D01*
X42927353Y-59315298D01*
X42927353Y-59315300D01*
X42924500Y-59345730D01*
X42924500Y-60654269D01*
X40000000Y-60654269D01*
X40000000Y-55103469D01*
X42924500Y-55103469D01*
X42964868Y-55306412D01*
X42964870Y-55306420D01*
X43044058Y-55497596D01*
X43159024Y-55669657D01*
X43305342Y-55815975D01*
X43305345Y-55815977D01*
X43477402Y-55930941D01*
X43668580Y-56010130D01*
X43871530Y-56050499D01*
X43871534Y-56050500D01*
X43871535Y-56050500D01*
X44328466Y-56050500D01*
X44328467Y-56050499D01*
X44531420Y-56010130D01*
X44722598Y-55930941D01*
X44894655Y-55815977D01*
X45040977Y-55669655D01*
X45155941Y-55497598D01*
X45235130Y-55306420D01*
X45275500Y-55103465D01*
X45275500Y-54896535D01*
X45235130Y-54693580D01*
X45155941Y-54502402D01*
X45040977Y-54330345D01*
X45040975Y-54330342D01*
X44894657Y-54184024D01*
X44808626Y-54126541D01*
X44722598Y-54069059D01*
X44531420Y-53989870D01*
X44531412Y-53989868D01*
X44328469Y-53949500D01*
X44328465Y-53949500D01*
X43871535Y-53949500D01*
X43871530Y-53949500D01*
X43668587Y-53989868D01*
X43668579Y-53989870D01*
X43477403Y-54069058D01*
X43305342Y-54184024D01*
X43159024Y-54330342D01*
X43044058Y-54502403D01*
X42964870Y-54693579D01*
X42964868Y-54693587D01*
X42924500Y-54896530D01*
X42924500Y-55103469D01*
X40000000Y-55103469D01*
X40000000Y-50300002D01*
X40969196Y-50300002D01*
X40990279Y-50433121D01*
X40990280Y-50433124D01*
X40990281Y-50433126D01*
X41051472Y-50553220D01*
X41051473Y-50553221D01*
X41051476Y-50553225D01*
X41146774Y-50648523D01*
X41146778Y-50648526D01*
X41146780Y-50648528D01*
X41266874Y-50709719D01*
X41266876Y-50709719D01*
X41266878Y-50709720D01*
X41399998Y-50730804D01*
X41400000Y-50730804D01*
X41400002Y-50730804D01*
X41533121Y-50709720D01*
X41533121Y-50709719D01*
X41533126Y-50709719D01*
X41653220Y-50648528D01*
X41748528Y-50553220D01*
X41809719Y-50433126D01*
X41812866Y-50413256D01*
X41830804Y-50300002D01*
X41830804Y-50299997D01*
X41809720Y-50166878D01*
X41809719Y-50166876D01*
X41809719Y-50166874D01*
X41748528Y-50046780D01*
X41748526Y-50046778D01*
X41748523Y-50046774D01*
X41653225Y-49951476D01*
X41653221Y-49951473D01*
X41653220Y-49951472D01*
X41533126Y-49890281D01*
X41533124Y-49890280D01*
X41533121Y-49890279D01*
X41400002Y-49869196D01*
X41399998Y-49869196D01*
X41266878Y-49890279D01*
X41146778Y-49951473D01*
X41146774Y-49951476D01*
X41051476Y-50046774D01*
X41051473Y-50046778D01*
X40990279Y-50166878D01*
X40969196Y-50299997D01*
X40969196Y-50300002D01*
X40000000Y-50300002D01*
X40000000Y-48600002D01*
X81969196Y-48600002D01*
X81990279Y-48733121D01*
X81990280Y-48733124D01*
X81990281Y-48733126D01*
X82051472Y-48853220D01*
X82051473Y-48853221D01*
X82051476Y-48853225D01*
X82146774Y-48948523D01*
X82146778Y-48948526D01*
X82146780Y-48948528D01*
X82266874Y-49009719D01*
X82266876Y-49009719D01*
X82266878Y-49009720D01*
X82399998Y-49030804D01*
X82400000Y-49030804D01*
X82400002Y-49030804D01*
X82533121Y-49009720D01*
X82533121Y-49009719D01*
X82533126Y-49009719D01*
X82653220Y-48948528D01*
X82748528Y-48853220D01*
X82809719Y-48733126D01*
X82830804Y-48600000D01*
X82809719Y-48466874D01*
X82748528Y-48346780D01*
X82748526Y-48346778D01*
X82748523Y-48346774D01*
X82653225Y-48251476D01*
X82653221Y-48251473D01*
X82653220Y-48251472D01*
X82533126Y-48190281D01*
X82533124Y-48190280D01*
X82533121Y-48190279D01*
X82400002Y-48169196D01*
X82399998Y-48169196D01*
X82266878Y-48190279D01*
X82266874Y-48190280D01*
X82266874Y-48190281D01*
X82186811Y-48231075D01*
X82146778Y-48251473D01*
X82146774Y-48251476D01*
X82051476Y-48346774D01*
X82051473Y-48346778D01*
X81990279Y-48466878D01*
X81969196Y-48599997D01*
X81969196Y-48600002D01*
X40000000Y-48600002D01*
X40000000Y-45000710D01*
X40000004Y-45000000D01*
X41594506Y-45000000D01*
X41614397Y-45366878D01*
X41614469Y-45368196D01*
X41614470Y-45368213D01*
X41674122Y-45732068D01*
X41674128Y-45732094D01*
X41772768Y-46087365D01*
X41772770Y-46087371D01*
X41909255Y-46429926D01*
X41909261Y-46429938D01*
X42081973Y-46755708D01*
X42081976Y-46755713D01*
X42081978Y-46755716D01*
X42288910Y-47060917D01*
X42527627Y-47341956D01*
X42795330Y-47595538D01*
X43088881Y-47818690D01*
X43404838Y-48008795D01*
X43404840Y-48008796D01*
X43404842Y-48008797D01*
X43404846Y-48008799D01*
X43565363Y-48083062D01*
X43739497Y-48163625D01*
X44088934Y-48281364D01*
X44449052Y-48360632D01*
X44815630Y-48400500D01*
X44815636Y-48400500D01*
X45184364Y-48400500D01*
X45184370Y-48400500D01*
X45550948Y-48360632D01*
X45911066Y-48281364D01*
X46260503Y-48163625D01*
X46595162Y-48008795D01*
X46911119Y-47818690D01*
X47204670Y-47595538D01*
X47472373Y-47341956D01*
X47711090Y-47060917D01*
X47918022Y-46755716D01*
X48090743Y-46429930D01*
X48142511Y-46300002D01*
X54869196Y-46300002D01*
X54890279Y-46433121D01*
X54890280Y-46433124D01*
X54890281Y-46433126D01*
X54941234Y-46533126D01*
X54951473Y-46553221D01*
X54951476Y-46553225D01*
X55046774Y-46648523D01*
X55046778Y-46648526D01*
X55046780Y-46648528D01*
X55166874Y-46709719D01*
X55166876Y-46709719D01*
X55166878Y-46709720D01*
X55299998Y-46730804D01*
X55300000Y-46730804D01*
X55300002Y-46730804D01*
X55433121Y-46709720D01*
X55433121Y-46709719D01*
X55433126Y-46709719D01*
X55553220Y-46648528D01*
X55648528Y-46553220D01*
X55709719Y-46433126D01*
X55710226Y-46429926D01*
X55714966Y-46400002D01*
X73769196Y-46400002D01*
X73790279Y-46533121D01*
X73790280Y-46533124D01*
X73790281Y-46533126D01*
X73849636Y-46649616D01*
X73851473Y-46653221D01*
X73851476Y-46653225D01*
X73946774Y-46748523D01*
X73946778Y-46748526D01*
X73946780Y-46748528D01*
X74066874Y-46809719D01*
X74066876Y-46809719D01*
X74066878Y-46809720D01*
X74199998Y-46830804D01*
X74200000Y-46830804D01*
X74200002Y-46830804D01*
X74333121Y-46809720D01*
X74333121Y-46809719D01*
X74333126Y-46809719D01*
X74453220Y-46748528D01*
X74548528Y-46653220D01*
X74609719Y-46533126D01*
X74609720Y-46533121D01*
X74630804Y-46400002D01*
X74630804Y-46399997D01*
X74609720Y-46266878D01*
X74609719Y-46266876D01*
X74609719Y-46266874D01*
X74548528Y-46146780D01*
X74548526Y-46146778D01*
X74548523Y-46146774D01*
X74453225Y-46051476D01*
X74453221Y-46051473D01*
X74453220Y-46051472D01*
X74333126Y-45990281D01*
X74333124Y-45990280D01*
X74333121Y-45990279D01*
X74200002Y-45969196D01*
X74199998Y-45969196D01*
X74066878Y-45990279D01*
X73946778Y-46051473D01*
X73946774Y-46051476D01*
X73851476Y-46146774D01*
X73851473Y-46146778D01*
X73790279Y-46266878D01*
X73769196Y-46399997D01*
X73769196Y-46400002D01*
X55714966Y-46400002D01*
X55730804Y-46300002D01*
X55730804Y-46299997D01*
X55709720Y-46166878D01*
X55709719Y-46166876D01*
X55709719Y-46166874D01*
X55648528Y-46046780D01*
X55648526Y-46046778D01*
X55648523Y-46046774D01*
X55553225Y-45951476D01*
X55553221Y-45951473D01*
X55553220Y-45951472D01*
X55433126Y-45890281D01*
X55433124Y-45890280D01*
X55433121Y-45890279D01*
X55300002Y-45869196D01*
X55299998Y-45869196D01*
X55166878Y-45890279D01*
X55046778Y-45951473D01*
X55046774Y-45951476D01*
X54951476Y-46046774D01*
X54951473Y-46046778D01*
X54890279Y-46166878D01*
X54869196Y-46299997D01*
X54869196Y-46300002D01*
X48142511Y-46300002D01*
X48227227Y-46087379D01*
X48325875Y-45732081D01*
X48363923Y-45500002D01*
X63669196Y-45500002D01*
X63690279Y-45633121D01*
X63690280Y-45633124D01*
X63690281Y-45633126D01*
X63740708Y-45732094D01*
X63751473Y-45753221D01*
X63751476Y-45753225D01*
X63846774Y-45848523D01*
X63846778Y-45848526D01*
X63846780Y-45848528D01*
X63966874Y-45909719D01*
X63966876Y-45909719D01*
X63966878Y-45909720D01*
X64099998Y-45930804D01*
X64100000Y-45930804D01*
X64100002Y-45930804D01*
X64233121Y-45909720D01*
X64233121Y-45909719D01*
X64233126Y-45909719D01*
X64353220Y-45848528D01*
X64448528Y-45753220D01*
X64509719Y-45633126D01*
X64530804Y-45500000D01*
X64509928Y-45368196D01*
X64509720Y-45366878D01*
X64509719Y-45366876D01*
X64509719Y-45366874D01*
X64448528Y-45246780D01*
X64448526Y-45246778D01*
X64448523Y-45246774D01*
X64353225Y-45151476D01*
X64353221Y-45151473D01*
X64353220Y-45151472D01*
X64233126Y-45090281D01*
X64233124Y-45090280D01*
X64233121Y-45090279D01*
X64100002Y-45069196D01*
X64099998Y-45069196D01*
X63966878Y-45090279D01*
X63846778Y-45151473D01*
X63846774Y-45151476D01*
X63751476Y-45246774D01*
X63751473Y-45246778D01*
X63690279Y-45366878D01*
X63669196Y-45499997D01*
X63669196Y-45500002D01*
X48363923Y-45500002D01*
X48385531Y-45368199D01*
X48405494Y-45000000D01*
X48385531Y-44631801D01*
X48325875Y-44267919D01*
X48245471Y-43978330D01*
X48227231Y-43912634D01*
X48227229Y-43912628D01*
X48227228Y-43912627D01*
X48227227Y-43912621D01*
X48090743Y-43570070D01*
X48011382Y-43420379D01*
X47918026Y-43244291D01*
X47918024Y-43244288D01*
X47918022Y-43244284D01*
X47711090Y-42939083D01*
X47472373Y-42658044D01*
X47305530Y-42500002D01*
X55069196Y-42500002D01*
X55090279Y-42633121D01*
X55090280Y-42633124D01*
X55090281Y-42633126D01*
X55151472Y-42753220D01*
X55151473Y-42753221D01*
X55151476Y-42753225D01*
X55246774Y-42848523D01*
X55246778Y-42848526D01*
X55246780Y-42848528D01*
X55366874Y-42909719D01*
X55366876Y-42909719D01*
X55366878Y-42909720D01*
X55499998Y-42930804D01*
X55500000Y-42930804D01*
X55500002Y-42930804D01*
X55633121Y-42909720D01*
X55633121Y-42909719D01*
X55633126Y-42909719D01*
X55753220Y-42848528D01*
X55801746Y-42800002D01*
X77869196Y-42800002D01*
X77890279Y-42933121D01*
X77890280Y-42933124D01*
X77890281Y-42933126D01*
X77951472Y-43053220D01*
X77951473Y-43053221D01*
X77951476Y-43053225D01*
X78046774Y-43148523D01*
X78046778Y-43148526D01*
X78046780Y-43148528D01*
X78166874Y-43209719D01*
X78166876Y-43209719D01*
X78166878Y-43209720D01*
X78299998Y-43230804D01*
X78300000Y-43230804D01*
X78300002Y-43230804D01*
X78433121Y-43209720D01*
X78433121Y-43209719D01*
X78433126Y-43209719D01*
X78553220Y-43148528D01*
X78648528Y-43053220D01*
X78709719Y-42933126D01*
X78713426Y-42909720D01*
X78730804Y-42800002D01*
X78730804Y-42799997D01*
X78709720Y-42666878D01*
X78709719Y-42666876D01*
X78709719Y-42666874D01*
X78648528Y-42546780D01*
X78648526Y-42546778D01*
X78648523Y-42546774D01*
X78553225Y-42451476D01*
X78553221Y-42451473D01*
X78553220Y-42451472D01*
X78433126Y-42390281D01*
X78433124Y-42390280D01*
X78433121Y-42390279D01*
X78300002Y-42369196D01*
X78299998Y-42369196D01*
X78166878Y-42390279D01*
X78046778Y-42451473D01*
X78046774Y-42451476D01*
X77951476Y-42546774D01*
X77951473Y-42546778D01*
X77951472Y-42546780D01*
X77907477Y-42633126D01*
X77890279Y-42666878D01*
X77869196Y-42799997D01*
X77869196Y-42800002D01*
X55801746Y-42800002D01*
X55848528Y-42753220D01*
X55909719Y-42633126D01*
X55914939Y-42600170D01*
X55930804Y-42500002D01*
X55930804Y-42499997D01*
X55909720Y-42366878D01*
X55909719Y-42366876D01*
X55909719Y-42366874D01*
X55848528Y-42246780D01*
X55848526Y-42246778D01*
X55848523Y-42246774D01*
X55753225Y-42151476D01*
X55753221Y-42151473D01*
X55753220Y-42151472D01*
X55633126Y-42090281D01*
X55633124Y-42090280D01*
X55633121Y-42090279D01*
X55500002Y-42069196D01*
X55499998Y-42069196D01*
X55366878Y-42090279D01*
X55246778Y-42151473D01*
X55246774Y-42151476D01*
X55151476Y-42246774D01*
X55151473Y-42246778D01*
X55090279Y-42366878D01*
X55069196Y-42499997D01*
X55069196Y-42500002D01*
X47305530Y-42500002D01*
X47204670Y-42404462D01*
X46911119Y-42181310D01*
X46595162Y-41991205D01*
X46595161Y-41991204D01*
X46595157Y-41991202D01*
X46595153Y-41991200D01*
X46260513Y-41836379D01*
X46260508Y-41836377D01*
X46260503Y-41836375D01*
X46090172Y-41778983D01*
X45911065Y-41718635D01*
X45826414Y-41700002D01*
X69469196Y-41700002D01*
X69490279Y-41833121D01*
X69490280Y-41833124D01*
X69490281Y-41833126D01*
X69495035Y-41842456D01*
X69551473Y-41953221D01*
X69551476Y-41953225D01*
X69646774Y-42048523D01*
X69646778Y-42048526D01*
X69646780Y-42048528D01*
X69766874Y-42109719D01*
X69766876Y-42109719D01*
X69766878Y-42109720D01*
X69899998Y-42130804D01*
X69900000Y-42130804D01*
X69900002Y-42130804D01*
X70033121Y-42109720D01*
X70033121Y-42109719D01*
X70033126Y-42109719D01*
X70153220Y-42048528D01*
X70248528Y-41953220D01*
X70309719Y-41833126D01*
X70314174Y-41805000D01*
X70330804Y-41700002D01*
X70330804Y-41699997D01*
X70309720Y-41566878D01*
X70309719Y-41566876D01*
X70309719Y-41566874D01*
X70248528Y-41446780D01*
X70248526Y-41446778D01*
X70248523Y-41446774D01*
X70153225Y-41351476D01*
X70153221Y-41351473D01*
X70153220Y-41351472D01*
X70033126Y-41290281D01*
X70033124Y-41290280D01*
X70033121Y-41290279D01*
X69900002Y-41269196D01*
X69899998Y-41269196D01*
X69766878Y-41290279D01*
X69646778Y-41351473D01*
X69646774Y-41351476D01*
X69551476Y-41446774D01*
X69551473Y-41446778D01*
X69490279Y-41566878D01*
X69469196Y-41699997D01*
X69469196Y-41700002D01*
X45826414Y-41700002D01*
X45550946Y-41639367D01*
X45184371Y-41599500D01*
X45184370Y-41599500D01*
X44815630Y-41599500D01*
X44815628Y-41599500D01*
X44449053Y-41639367D01*
X44088934Y-41718635D01*
X43832615Y-41805000D01*
X43739497Y-41836375D01*
X43739494Y-41836376D01*
X43739486Y-41836379D01*
X43404846Y-41991200D01*
X43404842Y-41991202D01*
X43172823Y-42130804D01*
X43088881Y-42181310D01*
X43002757Y-42246780D01*
X42795330Y-42404461D01*
X42795330Y-42404462D01*
X42527626Y-42658044D01*
X42288909Y-42939083D01*
X42081979Y-43244282D01*
X42081973Y-43244291D01*
X41909261Y-43570061D01*
X41909255Y-43570073D01*
X41772770Y-43912628D01*
X41772768Y-43912634D01*
X41674128Y-44267905D01*
X41674122Y-44267931D01*
X41614470Y-44631786D01*
X41614469Y-44631799D01*
X41614469Y-44631801D01*
X41594506Y-45000000D01*
X40000004Y-45000000D01*
X40000007Y-44999358D01*
X40002328Y-44786528D01*
X40002793Y-44777073D01*
X40039943Y-44352450D01*
X40041355Y-44341725D01*
X40054367Y-44267931D01*
X40115257Y-43922602D01*
X40117589Y-43912083D01*
X40227749Y-43500959D01*
X40230989Y-43490683D01*
X40376558Y-43090736D01*
X40380679Y-43080786D01*
X40560552Y-42695047D01*
X40565532Y-42685480D01*
X40778332Y-42316900D01*
X40784125Y-42307806D01*
X41028246Y-41959165D01*
X41034812Y-41950609D01*
X41308394Y-41624566D01*
X41315681Y-41616615D01*
X41616615Y-41315681D01*
X41624566Y-41308394D01*
X41950609Y-41034812D01*
X41959165Y-41028246D01*
X42307806Y-40784125D01*
X42316900Y-40778332D01*
X42685480Y-40565532D01*
X42695047Y-40560552D01*
X43080786Y-40380679D01*
X43090736Y-40376558D01*
X43490683Y-40230989D01*
X43500959Y-40227749D01*
X43912083Y-40117589D01*
X43922602Y-40115257D01*
X44341732Y-40041353D01*
X44352444Y-40039943D01*
X44777085Y-40002792D01*
X44786517Y-40002328D01*
X44999358Y-40000006D01*
X45000710Y-40000000D01*
X83270500Y-40000000D01*
X83337539Y-40019685D01*
G37*
%TD.AperFunction*%
%TD*%
M02*
